G04 (created by PCBNEW (2013-07-07 BZR 4022)-stable) date 2/14/2016 6:55:42 AM*
%MOIN*%
G04 Gerber Fmt 3.4, Leading zero omitted, Abs format*
%FSLAX34Y34*%
G01*
G70*
G90*
G04 APERTURE LIST*
%ADD10C,0.00590551*%
%ADD11C,0.01*%
%ADD12C,0.011811*%
%ADD13R,0.055X0.055*%
%ADD14C,0.055*%
%ADD15O,0.12X0.062*%
%ADD16O,0.12X0.063*%
%ADD17C,0.19*%
%ADD18C,0.2*%
%ADD19C,0.099*%
%ADD20C,0.079*%
%ADD21C,0.118*%
%ADD22C,0.3*%
G04 APERTURE END LIST*
G54D10*
G54D11*
X50000Y-12400D02*
X50000Y-12150D01*
X49900Y-12500D02*
X49650Y-12500D01*
X50000Y-12600D02*
X50000Y-12850D01*
X50100Y-12500D02*
X50350Y-12500D01*
X50000Y-32850D02*
X50000Y-33100D01*
X49900Y-32750D02*
X49650Y-32750D01*
X50000Y-32650D02*
X50000Y-32400D01*
X50100Y-32750D02*
X50350Y-32750D01*
X24600Y-32650D02*
X24600Y-32400D01*
X24500Y-32750D02*
X24250Y-32750D01*
X24600Y-32850D02*
X24600Y-33100D01*
X24700Y-32750D02*
X24950Y-32750D01*
G54D12*
X39743Y-39429D02*
X39659Y-39457D01*
X39630Y-39485D01*
X39602Y-39542D01*
X39602Y-39626D01*
X39630Y-39682D01*
X39659Y-39710D01*
X39715Y-39739D01*
X39940Y-39739D01*
X39940Y-39148D01*
X39743Y-39148D01*
X39687Y-39176D01*
X39659Y-39204D01*
X39630Y-39260D01*
X39630Y-39317D01*
X39659Y-39373D01*
X39687Y-39401D01*
X39743Y-39429D01*
X39940Y-39429D01*
X39377Y-39570D02*
X39096Y-39570D01*
X39434Y-39739D02*
X39237Y-39148D01*
X39040Y-39739D01*
X38506Y-39682D02*
X38534Y-39710D01*
X38618Y-39739D01*
X38674Y-39739D01*
X38759Y-39710D01*
X38815Y-39654D01*
X38843Y-39598D01*
X38871Y-39485D01*
X38871Y-39401D01*
X38843Y-39289D01*
X38815Y-39232D01*
X38759Y-39176D01*
X38674Y-39148D01*
X38618Y-39148D01*
X38534Y-39176D01*
X38506Y-39204D01*
X38253Y-39739D02*
X38253Y-39148D01*
X37915Y-39739D02*
X38168Y-39401D01*
X37915Y-39148D02*
X38253Y-39485D01*
X37212Y-39739D02*
X37212Y-39148D01*
X37015Y-39570D01*
X36818Y-39148D01*
X36818Y-39739D01*
X36565Y-39570D02*
X36284Y-39570D01*
X36621Y-39739D02*
X36425Y-39148D01*
X36228Y-39739D01*
X36059Y-39710D02*
X35975Y-39739D01*
X35834Y-39739D01*
X35778Y-39710D01*
X35750Y-39682D01*
X35722Y-39626D01*
X35722Y-39570D01*
X35750Y-39514D01*
X35778Y-39485D01*
X35834Y-39457D01*
X35947Y-39429D01*
X36003Y-39401D01*
X36031Y-39373D01*
X36059Y-39317D01*
X36059Y-39260D01*
X36031Y-39204D01*
X36003Y-39176D01*
X35947Y-39148D01*
X35806Y-39148D01*
X35722Y-39176D01*
X35469Y-39739D02*
X35469Y-39148D01*
X35131Y-39739D02*
X35384Y-39401D01*
X35131Y-39148D02*
X35469Y-39485D01*
G54D13*
X29800Y-31400D03*
G54D14*
X29800Y-30400D03*
G54D15*
X47600Y-27188D03*
G54D16*
X47600Y-25811D03*
G54D17*
X31900Y-17200D03*
X33800Y-16000D03*
G54D18*
X33800Y-18400D03*
G54D19*
X37950Y-19670D03*
X37950Y-17170D03*
X37950Y-14670D03*
X42450Y-19670D03*
X42450Y-17170D03*
X42450Y-14670D03*
G54D20*
X37950Y-15930D03*
X42450Y-15930D03*
G54D21*
X38790Y-18430D03*
G54D22*
X27100Y-30650D03*
X47500Y-30650D03*
G54D13*
X29300Y-28900D03*
G54D14*
X30300Y-28900D03*
X31300Y-28900D03*
X32300Y-28900D03*
X32300Y-25900D03*
X31300Y-25900D03*
X30300Y-25900D03*
X29300Y-25900D03*
G54D13*
X28100Y-24200D03*
G54D14*
X28100Y-23200D03*
X28100Y-22200D03*
G54D13*
X46500Y-25000D03*
G54D14*
X46500Y-26000D03*
X46500Y-27000D03*
X46500Y-28000D03*
G54D13*
X46500Y-17000D03*
G54D14*
X46500Y-18000D03*
X46500Y-19000D03*
G54D13*
X36100Y-31000D03*
G54D14*
X37100Y-31000D03*
G54D13*
X46500Y-20000D03*
G54D14*
X46500Y-21000D03*
X46500Y-22000D03*
X46500Y-23000D03*
X46500Y-24000D03*
G54D13*
X30050Y-15175D03*
G54D14*
X29050Y-15175D03*
G54D13*
X29050Y-13575D03*
X30050Y-13575D03*
M02*
