G04 (created by PCBNEW (2013-07-07 BZR 4022)-stable) date 2/14/2016 6:55:42 AM*
%MOIN*%
G04 Gerber Fmt 3.4, Leading zero omitted, Abs format*
%FSLAX34Y34*%
G01*
G70*
G90*
G04 APERTURE LIST*
%ADD10C,0.00590551*%
%ADD11C,0.01*%
%ADD12C,0.011811*%
%ADD13C,0.00393701*%
G04 APERTURE END LIST*
G54D10*
G54D11*
X50000Y-12400D02*
X50000Y-12150D01*
X50000Y-12600D02*
X50000Y-12850D01*
X49900Y-12500D02*
X49650Y-12500D01*
X50100Y-12500D02*
X50350Y-12500D01*
X50000Y-32850D02*
X50000Y-33100D01*
X49900Y-32750D02*
X49650Y-32750D01*
X50100Y-32750D02*
X50350Y-32750D01*
X50000Y-32400D02*
X50000Y-32650D01*
X24600Y-32650D02*
X24600Y-32400D01*
X24500Y-32750D02*
X24250Y-32750D01*
X24600Y-32850D02*
X24600Y-33100D01*
X24700Y-32750D02*
X24950Y-32750D01*
G54D12*
X35229Y-40929D02*
X35426Y-40929D01*
X35511Y-41239D02*
X35229Y-41239D01*
X35229Y-40648D01*
X35511Y-40648D01*
X35764Y-41239D02*
X35764Y-40648D01*
X35904Y-40648D01*
X35989Y-40676D01*
X36045Y-40732D01*
X36073Y-40789D01*
X36101Y-40901D01*
X36101Y-40985D01*
X36073Y-41098D01*
X36045Y-41154D01*
X35989Y-41210D01*
X35904Y-41239D01*
X35764Y-41239D01*
X36664Y-40676D02*
X36607Y-40648D01*
X36523Y-40648D01*
X36439Y-40676D01*
X36382Y-40732D01*
X36354Y-40789D01*
X36326Y-40901D01*
X36326Y-40985D01*
X36354Y-41098D01*
X36382Y-41154D01*
X36439Y-41210D01*
X36523Y-41239D01*
X36579Y-41239D01*
X36664Y-41210D01*
X36692Y-41182D01*
X36692Y-40985D01*
X36579Y-40985D01*
X36945Y-40929D02*
X37142Y-40929D01*
X37226Y-41239D02*
X36945Y-41239D01*
X36945Y-40648D01*
X37226Y-40648D01*
X38267Y-41182D02*
X38238Y-41210D01*
X38154Y-41239D01*
X38098Y-41239D01*
X38014Y-41210D01*
X37957Y-41154D01*
X37929Y-41098D01*
X37901Y-40985D01*
X37901Y-40901D01*
X37929Y-40789D01*
X37957Y-40732D01*
X38014Y-40676D01*
X38098Y-40648D01*
X38154Y-40648D01*
X38238Y-40676D01*
X38267Y-40704D01*
X38520Y-40648D02*
X38520Y-41126D01*
X38548Y-41182D01*
X38576Y-41210D01*
X38632Y-41239D01*
X38745Y-41239D01*
X38801Y-41210D01*
X38829Y-41182D01*
X38857Y-41126D01*
X38857Y-40648D01*
X39054Y-40648D02*
X39391Y-40648D01*
X39223Y-41239D02*
X39223Y-40648D01*
X39560Y-41210D02*
X39645Y-41239D01*
X39785Y-41239D01*
X39841Y-41210D01*
X39870Y-41182D01*
X39898Y-41126D01*
X39898Y-41070D01*
X39870Y-41014D01*
X39841Y-40985D01*
X39785Y-40957D01*
X39673Y-40929D01*
X39616Y-40901D01*
X39588Y-40873D01*
X39560Y-40817D01*
X39560Y-40760D01*
X39588Y-40704D01*
X39616Y-40676D01*
X39673Y-40648D01*
X39813Y-40648D01*
X39898Y-40676D01*
G54D13*
X24600Y-32750D02*
G75*
G03X24600Y-32750I0J0D01*
G74*
G01*
X24599Y-32750D02*
X24600Y-32750D01*
X24600Y-32749D02*
X24600Y-32750D01*
X50000Y-32750D02*
G75*
G03X50000Y-32750I0J0D01*
G74*
G01*
X49999Y-32750D02*
X50000Y-32750D01*
X50000Y-32749D02*
X50000Y-32750D01*
X50000Y-12500D02*
G75*
G03X50000Y-12500I0J0D01*
G74*
G01*
X49999Y-12500D02*
X50000Y-12500D01*
X50000Y-12499D02*
X50000Y-12500D01*
X25100Y-32250D02*
X49500Y-32250D01*
X26800Y-30800D02*
G75*
G03X26800Y-30800I0J0D01*
G74*
G01*
X25100Y-13000D02*
X25100Y-32250D01*
X49500Y-32250D02*
X49500Y-13000D01*
X49500Y-13000D02*
X25100Y-13000D01*
M02*
