G04 #@! TF.FileFunction,Soldermask,Bot*
%FSLAX46Y46*%
G04 Gerber Fmt 4.6, Leading zero omitted, Abs format (unit mm)*
G04 Created by KiCad (PCBNEW 4.0.5) date 05/03/17 10:24:09*
%MOMM*%
%LPD*%
G01*
G04 APERTURE LIST*
%ADD10C,0.150000*%
%ADD11C,0.254000*%
%ADD12C,0.300000*%
%ADD13R,1.397000X1.397000*%
%ADD14C,1.397000*%
%ADD15O,3.048000X1.574800*%
%ADD16O,3.048000X1.600200*%
%ADD17C,4.826000*%
%ADD18C,5.080000*%
%ADD19C,2.514600*%
%ADD20C,2.006600*%
%ADD21C,2.997200*%
%ADD22C,7.620000*%
G04 APERTURE END LIST*
D10*
D11*
X127000000Y-31496000D02*
X127000000Y-30861000D01*
X126746000Y-31750000D02*
X126111000Y-31750000D01*
X127000000Y-32004000D02*
X127000000Y-32639000D01*
X127254000Y-31750000D02*
X127889000Y-31750000D01*
X127000000Y-83439000D02*
X127000000Y-84074000D01*
X126746000Y-83185000D02*
X126111000Y-83185000D01*
X127000000Y-82931000D02*
X127000000Y-82296000D01*
X127254000Y-83185000D02*
X127889000Y-83185000D01*
X62484000Y-82931000D02*
X62484000Y-82296000D01*
X62230000Y-83185000D02*
X61595000Y-83185000D01*
X62484000Y-83439000D02*
X62484000Y-84074000D01*
X62738000Y-83185000D02*
X63373000Y-83185000D01*
D12*
X100948428Y-100222857D02*
X100734142Y-100294286D01*
X100662714Y-100365714D01*
X100591285Y-100508571D01*
X100591285Y-100722857D01*
X100662714Y-100865714D01*
X100734142Y-100937143D01*
X100877000Y-101008571D01*
X101448428Y-101008571D01*
X101448428Y-99508571D01*
X100948428Y-99508571D01*
X100805571Y-99580000D01*
X100734142Y-99651429D01*
X100662714Y-99794286D01*
X100662714Y-99937143D01*
X100734142Y-100080000D01*
X100805571Y-100151429D01*
X100948428Y-100222857D01*
X101448428Y-100222857D01*
X100019857Y-100580000D02*
X99305571Y-100580000D01*
X100162714Y-101008571D02*
X99662714Y-99508571D01*
X99162714Y-101008571D01*
X97805571Y-100865714D02*
X97877000Y-100937143D01*
X98091286Y-101008571D01*
X98234143Y-101008571D01*
X98448428Y-100937143D01*
X98591286Y-100794286D01*
X98662714Y-100651429D01*
X98734143Y-100365714D01*
X98734143Y-100151429D01*
X98662714Y-99865714D01*
X98591286Y-99722857D01*
X98448428Y-99580000D01*
X98234143Y-99508571D01*
X98091286Y-99508571D01*
X97877000Y-99580000D01*
X97805571Y-99651429D01*
X97162714Y-101008571D02*
X97162714Y-99508571D01*
X96305571Y-101008571D02*
X96948428Y-100151429D01*
X96305571Y-99508571D02*
X97162714Y-100365714D01*
X94519857Y-101008571D02*
X94519857Y-99508571D01*
X94019857Y-100580000D01*
X93519857Y-99508571D01*
X93519857Y-101008571D01*
X92877000Y-100580000D02*
X92162714Y-100580000D01*
X93019857Y-101008571D02*
X92519857Y-99508571D01*
X92019857Y-101008571D01*
X91591286Y-100937143D02*
X91377000Y-101008571D01*
X91019857Y-101008571D01*
X90877000Y-100937143D01*
X90805571Y-100865714D01*
X90734143Y-100722857D01*
X90734143Y-100580000D01*
X90805571Y-100437143D01*
X90877000Y-100365714D01*
X91019857Y-100294286D01*
X91305571Y-100222857D01*
X91448429Y-100151429D01*
X91519857Y-100080000D01*
X91591286Y-99937143D01*
X91591286Y-99794286D01*
X91519857Y-99651429D01*
X91448429Y-99580000D01*
X91305571Y-99508571D01*
X90948429Y-99508571D01*
X90734143Y-99580000D01*
X90091286Y-101008571D02*
X90091286Y-99508571D01*
X89234143Y-101008571D02*
X89877000Y-100151429D01*
X89234143Y-99508571D02*
X90091286Y-100365714D01*
D13*
X75692000Y-79756000D03*
D14*
X75692000Y-77216000D03*
D15*
X120904000Y-69060000D03*
D16*
X120904000Y-65560000D03*
D17*
X81026000Y-43688000D03*
X85852000Y-40640000D03*
D18*
X85852000Y-46736000D03*
D19*
X96393000Y-49961800D03*
X96393000Y-43611800D03*
X96393000Y-37261800D03*
X107823000Y-49961800D03*
X107823000Y-43611800D03*
X107823000Y-37261800D03*
D20*
X96393000Y-40462200D03*
X107823000Y-40462200D03*
D21*
X98526600Y-46812200D03*
D22*
X68834000Y-77851000D03*
X120650000Y-77851000D03*
D13*
X74422000Y-73406000D03*
D14*
X76962000Y-73406000D03*
X79502000Y-73406000D03*
X82042000Y-73406000D03*
X82042000Y-65786000D03*
X79502000Y-65786000D03*
X76962000Y-65786000D03*
X74422000Y-65786000D03*
D13*
X71374000Y-61468000D03*
D14*
X71374000Y-58928000D03*
X71374000Y-56388000D03*
D13*
X118110000Y-63500000D03*
D14*
X118110000Y-66040000D03*
X118110000Y-68580000D03*
X118110000Y-71120000D03*
D13*
X118110000Y-43180000D03*
D14*
X118110000Y-45720000D03*
X118110000Y-48260000D03*
D13*
X91694000Y-78740000D03*
D14*
X94234000Y-78740000D03*
D13*
X118110000Y-50800000D03*
D14*
X118110000Y-53340000D03*
X118110000Y-55880000D03*
X118110000Y-58420000D03*
X118110000Y-60960000D03*
D13*
X76327000Y-38544500D03*
D14*
X73787000Y-38544500D03*
D13*
X73787000Y-34480500D03*
X76327000Y-34480500D03*
M02*
