G04 #@! TF.FileFunction,Copper,L1,Top,Signal*
%FSLAX46Y46*%
G04 Gerber Fmt 4.6, Leading zero omitted, Abs format (unit mm)*
G04 Created by KiCad (PCBNEW 4.0.5) date 05/03/17 10:24:09*
%MOMM*%
%LPD*%
G01*
G04 APERTURE LIST*
%ADD10C,0.150000*%
%ADD11C,0.300000*%
%ADD12C,0.203200*%
%ADD13C,0.558800*%
%ADD14O,1.651000X0.635000*%
%ADD15R,0.635000X1.270000*%
%ADD16R,1.143000X0.635000*%
%ADD17R,1.397000X1.397000*%
%ADD18C,1.397000*%
%ADD19O,3.048000X1.574800*%
%ADD20O,3.048000X1.600200*%
%ADD21R,5.613400X2.311400*%
%ADD22C,4.826000*%
%ADD23C,5.080000*%
%ADD24C,2.514600*%
%ADD25C,7.620000*%
%ADD26R,3.599200X1.600200*%
%ADD27R,1.000800X0.899200*%
%ADD28R,1.597700X0.998200*%
%ADD29R,6.197600X5.397500*%
%ADD30R,1.300480X1.498600*%
%ADD31R,0.998200X1.597700*%
%ADD32R,5.397500X6.197600*%
%ADD33R,1.803400X1.600200*%
%ADD34C,1.016000*%
%ADD35C,0.889000*%
%ADD36C,0.254000*%
%ADD37C,1.016000*%
%ADD38C,0.762000*%
G04 APERTURE END LIST*
D10*
D11*
X87662714Y-90697857D02*
X87162714Y-90697857D01*
X87162714Y-91483571D02*
X87162714Y-89983571D01*
X87877000Y-89983571D01*
X89305571Y-91483571D02*
X88805571Y-90769286D01*
X88448428Y-91483571D02*
X88448428Y-89983571D01*
X89019856Y-89983571D01*
X89162714Y-90055000D01*
X89234142Y-90126429D01*
X89305571Y-90269286D01*
X89305571Y-90483571D01*
X89234142Y-90626429D01*
X89162714Y-90697857D01*
X89019856Y-90769286D01*
X88448428Y-90769286D01*
X90234142Y-89983571D02*
X90519856Y-89983571D01*
X90662714Y-90055000D01*
X90805571Y-90197857D01*
X90876999Y-90483571D01*
X90876999Y-90983571D01*
X90805571Y-91269286D01*
X90662714Y-91412143D01*
X90519856Y-91483571D01*
X90234142Y-91483571D01*
X90091285Y-91412143D01*
X89948428Y-91269286D01*
X89876999Y-90983571D01*
X89876999Y-90483571D01*
X89948428Y-90197857D01*
X90091285Y-90055000D01*
X90234142Y-89983571D01*
X91519857Y-91483571D02*
X91519857Y-89983571D01*
X92377000Y-91483571D01*
X92377000Y-89983571D01*
X92877000Y-89983571D02*
X93734143Y-89983571D01*
X93305572Y-91483571D02*
X93305572Y-89983571D01*
X96234143Y-91340714D02*
X96162714Y-91412143D01*
X95948428Y-91483571D01*
X95805571Y-91483571D01*
X95591286Y-91412143D01*
X95448428Y-91269286D01*
X95377000Y-91126429D01*
X95305571Y-90840714D01*
X95305571Y-90626429D01*
X95377000Y-90340714D01*
X95448428Y-90197857D01*
X95591286Y-90055000D01*
X95805571Y-89983571D01*
X95948428Y-89983571D01*
X96162714Y-90055000D01*
X96234143Y-90126429D01*
X97162714Y-89983571D02*
X97448428Y-89983571D01*
X97591286Y-90055000D01*
X97734143Y-90197857D01*
X97805571Y-90483571D01*
X97805571Y-90983571D01*
X97734143Y-91269286D01*
X97591286Y-91412143D01*
X97448428Y-91483571D01*
X97162714Y-91483571D01*
X97019857Y-91412143D01*
X96877000Y-91269286D01*
X96805571Y-90983571D01*
X96805571Y-90483571D01*
X96877000Y-90197857D01*
X97019857Y-90055000D01*
X97162714Y-89983571D01*
X98448429Y-91483571D02*
X98448429Y-89983571D01*
X99019857Y-89983571D01*
X99162715Y-90055000D01*
X99234143Y-90126429D01*
X99305572Y-90269286D01*
X99305572Y-90483571D01*
X99234143Y-90626429D01*
X99162715Y-90697857D01*
X99019857Y-90769286D01*
X98448429Y-90769286D01*
X99948429Y-91483571D02*
X99948429Y-89983571D01*
X100519857Y-89983571D01*
X100662715Y-90055000D01*
X100734143Y-90126429D01*
X100805572Y-90269286D01*
X100805572Y-90483571D01*
X100734143Y-90626429D01*
X100662715Y-90697857D01*
X100519857Y-90769286D01*
X99948429Y-90769286D01*
X101448429Y-90697857D02*
X101948429Y-90697857D01*
X102162715Y-91483571D02*
X101448429Y-91483571D01*
X101448429Y-89983571D01*
X102162715Y-89983571D01*
X103662715Y-91483571D02*
X103162715Y-90769286D01*
X102805572Y-91483571D02*
X102805572Y-89983571D01*
X103377000Y-89983571D01*
X103519858Y-90055000D01*
X103591286Y-90126429D01*
X103662715Y-90269286D01*
X103662715Y-90483571D01*
X103591286Y-90626429D01*
X103519858Y-90697857D01*
X103377000Y-90769286D01*
X102805572Y-90769286D01*
D12*
X108254800Y-68351400D02*
X108254800Y-70307200D01*
X112826800Y-70307200D02*
X112826800Y-68351400D01*
X112826800Y-68351400D02*
X108254800Y-68351400D01*
D13*
X112649000Y-68707000D02*
X108432600Y-68707000D01*
X112649000Y-69215000D02*
X108432600Y-69215000D01*
X112649000Y-70231000D02*
X108432600Y-70231000D01*
X112649000Y-69723000D02*
X108432600Y-69723000D01*
X112649000Y-66929000D02*
X108432600Y-66929000D01*
X112649000Y-67437000D02*
X108432600Y-67437000D01*
X112649000Y-66421000D02*
X108432600Y-66421000D01*
X112649000Y-65913000D02*
X108432600Y-65913000D01*
D12*
X112826800Y-67792600D02*
X112826800Y-65836800D01*
X108254800Y-65836800D02*
X108254800Y-67792600D01*
X108254800Y-67792600D02*
X112826800Y-67792600D01*
X108254800Y-75971400D02*
X108254800Y-77927200D01*
X112826800Y-77927200D02*
X112826800Y-75971400D01*
X112826800Y-75971400D02*
X108254800Y-75971400D01*
D13*
X112649000Y-76327000D02*
X108432600Y-76327000D01*
X112649000Y-76835000D02*
X108432600Y-76835000D01*
X112649000Y-77851000D02*
X108432600Y-77851000D01*
X112649000Y-77343000D02*
X108432600Y-77343000D01*
X112649000Y-74549000D02*
X108432600Y-74549000D01*
X112649000Y-75057000D02*
X108432600Y-75057000D01*
X112649000Y-74041000D02*
X108432600Y-74041000D01*
X112649000Y-73533000D02*
X108432600Y-73533000D01*
D12*
X112826800Y-75412600D02*
X112826800Y-73456800D01*
X108254800Y-73456800D02*
X108254800Y-75412600D01*
X108254800Y-75412600D02*
X112826800Y-75412600D01*
D14*
X96012000Y-66167000D03*
X96012000Y-67437000D03*
X96012000Y-68707000D03*
X96012000Y-69977000D03*
X101600000Y-69977000D03*
X101600000Y-68707000D03*
X101600000Y-67437000D03*
X101600000Y-66167000D03*
X96012000Y-73787000D03*
X96012000Y-75057000D03*
X96012000Y-76327000D03*
X96012000Y-77597000D03*
X101600000Y-77597000D03*
X101600000Y-76327000D03*
X101600000Y-75057000D03*
X101600000Y-73787000D03*
D15*
X85598000Y-71628000D03*
X86868000Y-71628000D03*
X88138000Y-71628000D03*
X89408000Y-71628000D03*
X90678000Y-71628000D03*
X91948000Y-71628000D03*
X93218000Y-71628000D03*
X93218000Y-66040000D03*
X91948000Y-66040000D03*
X90678000Y-66040000D03*
X89408000Y-66040000D03*
X88138000Y-66040000D03*
X86868000Y-66040000D03*
X85598000Y-66040000D03*
D16*
X91948000Y-64135000D03*
X91948000Y-62611000D03*
X77597000Y-59309000D03*
X77597000Y-57785000D03*
D17*
X75692000Y-79756000D03*
D18*
X75692000Y-77216000D03*
D19*
X120904000Y-69060000D03*
D20*
X120904000Y-65560000D03*
D21*
X89992200Y-57185560D03*
X89992200Y-52034440D03*
D22*
X81026000Y-43688000D03*
X85852000Y-40640000D03*
D23*
X85852000Y-46736000D03*
D24*
X96393000Y-49961800D03*
X96393000Y-43611800D03*
X96393000Y-37261800D03*
X107823000Y-49961800D03*
X107823000Y-43611800D03*
X107823000Y-37261800D03*
D25*
X68834000Y-77851000D03*
X120650000Y-77851000D03*
D17*
X74422000Y-73406000D03*
D18*
X76962000Y-73406000D03*
X79502000Y-73406000D03*
X82042000Y-73406000D03*
X82042000Y-65786000D03*
X79502000Y-65786000D03*
X76962000Y-65786000D03*
X74422000Y-65786000D03*
D26*
X105961200Y-61468000D03*
X111462800Y-61468000D03*
X83903800Y-52324000D03*
X78402200Y-52324000D03*
X69512200Y-49022000D03*
X75013800Y-49022000D03*
D27*
X85598000Y-64124800D03*
X85598000Y-62621200D03*
X65405000Y-47762200D03*
X65405000Y-49265800D03*
X73914000Y-57901800D03*
X73914000Y-56398200D03*
X111633000Y-35803800D03*
X111633000Y-34300200D03*
X71120000Y-71744800D03*
X71120000Y-70241200D03*
X111633000Y-41158200D03*
X111633000Y-42661800D03*
X67818000Y-44206200D03*
X67818000Y-45709800D03*
D28*
X113972300Y-35720000D03*
X113972300Y-40276800D03*
D29*
X121269800Y-37998400D03*
D17*
X71374000Y-61468000D03*
D18*
X71374000Y-58928000D03*
X71374000Y-56388000D03*
D17*
X118110000Y-63500000D03*
D18*
X118110000Y-66040000D03*
X118110000Y-68580000D03*
X118110000Y-71120000D03*
D17*
X118110000Y-43180000D03*
D18*
X118110000Y-45720000D03*
X118110000Y-48260000D03*
D16*
X111633000Y-37592000D03*
X111633000Y-39116000D03*
D30*
X75501500Y-62738000D03*
X77406500Y-62738000D03*
X110426500Y-71882000D03*
X112331500Y-71882000D03*
X98488500Y-71882000D03*
X100393500Y-71882000D03*
X98361500Y-64262000D03*
X100266500Y-64262000D03*
D16*
X85852000Y-74549000D03*
X85852000Y-76073000D03*
X115189000Y-61976000D03*
X115189000Y-60452000D03*
X93091000Y-74549000D03*
X93091000Y-76073000D03*
X115189000Y-55626000D03*
X115189000Y-54102000D03*
X90932000Y-74549000D03*
X90932000Y-76073000D03*
X115189000Y-58801000D03*
X115189000Y-57277000D03*
X85852000Y-79502000D03*
X85852000Y-77978000D03*
X80772000Y-79502000D03*
X80772000Y-77978000D03*
X83312000Y-79502000D03*
X83312000Y-77978000D03*
D17*
X91694000Y-78740000D03*
D18*
X94234000Y-78740000D03*
D27*
X88138000Y-64124800D03*
X88138000Y-62621200D03*
X115189000Y-51678800D03*
X115189000Y-50175200D03*
X92964000Y-45709800D03*
X92964000Y-44206200D03*
X80264000Y-62727800D03*
X80264000Y-61224200D03*
D16*
X88011000Y-74549000D03*
X88011000Y-76073000D03*
D17*
X118110000Y-50800000D03*
D18*
X118110000Y-53340000D03*
X118110000Y-55880000D03*
X118110000Y-58420000D03*
X118110000Y-60960000D03*
D31*
X65412600Y-44168100D03*
X69969400Y-44168100D03*
D32*
X67691000Y-36870600D03*
D14*
X106680000Y-66167000D03*
X106680000Y-67437000D03*
X106680000Y-68707000D03*
X106680000Y-69977000D03*
X112268000Y-69977000D03*
X112268000Y-68707000D03*
X112268000Y-67437000D03*
X112268000Y-66167000D03*
X106680000Y-73787000D03*
X106680000Y-75057000D03*
X106680000Y-76327000D03*
X106680000Y-77597000D03*
X112268000Y-77597000D03*
X112268000Y-76327000D03*
X112268000Y-75057000D03*
X112268000Y-73787000D03*
D27*
X115189000Y-44693800D03*
X115189000Y-43190200D03*
X88265000Y-80634800D03*
X88265000Y-79131200D03*
D17*
X76327000Y-38544500D03*
D18*
X73787000Y-38544500D03*
D17*
X73787000Y-34480500D03*
X76327000Y-34480500D03*
D16*
X80264000Y-57785000D03*
X80264000Y-59309000D03*
X78359000Y-77216000D03*
X78359000Y-78740000D03*
D33*
X79756000Y-34607500D03*
X79756000Y-37401500D03*
D34*
X87376000Y-49784000D03*
X86131400Y-50063400D03*
X81407000Y-35306000D03*
X81407000Y-34099500D03*
X66294000Y-46228000D03*
X72009000Y-44831000D03*
X107442000Y-63627000D03*
X108966000Y-71348600D03*
X104902000Y-77089000D03*
X104902000Y-71323200D03*
X105918000Y-71323200D03*
X104902000Y-68376800D03*
X104902000Y-69443600D03*
X108585000Y-63627000D03*
X109728000Y-63627000D03*
X104902000Y-76047600D03*
X108966000Y-72415400D03*
X116078000Y-71501000D03*
X121031000Y-71501000D03*
X120015000Y-71501000D03*
X119761000Y-63119000D03*
X115697000Y-63119000D03*
X116078000Y-72517000D03*
X119761000Y-67310000D03*
D35*
X83947000Y-74422000D03*
X83947000Y-70612000D03*
X76149200Y-53924200D03*
X77597000Y-56642000D03*
X90043000Y-36576000D03*
X85852000Y-73634600D03*
X85725000Y-69723000D03*
X89408000Y-73660000D03*
X89408000Y-69342000D03*
X91948000Y-73279000D03*
X91186000Y-68580000D03*
X89408000Y-80645000D03*
X87630000Y-68199000D03*
X75819000Y-57658000D03*
X75819000Y-55753000D03*
X89281000Y-35306000D03*
X92837000Y-35306000D03*
X83185000Y-56769000D03*
X83185000Y-54229000D03*
X73914000Y-55245000D03*
D34*
X122682000Y-34036000D03*
X121158000Y-34036000D03*
X124206000Y-34036000D03*
X89217500Y-39878000D03*
X89217500Y-41275000D03*
X82194400Y-46837600D03*
X82565933Y-40783832D03*
X80543400Y-46837600D03*
X87376000Y-43370500D03*
X89154000Y-37846000D03*
X119507000Y-41529000D03*
X121285000Y-41529000D03*
X123063000Y-41529000D03*
X78867000Y-61214000D03*
X112649000Y-59563000D03*
X112522000Y-64135000D03*
X77825600Y-43688000D03*
X89535000Y-79121000D03*
X115189000Y-41910000D03*
X111379000Y-58801000D03*
X71501000Y-35179000D03*
X71501000Y-39878000D03*
X71501000Y-36830000D03*
X71501000Y-38481000D03*
X93218000Y-42926000D03*
X115316000Y-48260000D03*
X98450400Y-70358000D03*
X104902000Y-65278000D03*
X104902000Y-72898000D03*
X104902000Y-73990200D03*
X113792000Y-71374000D03*
X113792000Y-72440800D03*
X73660000Y-47117000D03*
X74930000Y-46482000D03*
X78486000Y-49657000D03*
X78867000Y-62738000D03*
X72390000Y-71755000D03*
X91948000Y-61468000D03*
X89408000Y-62611000D03*
X84437724Y-62628276D03*
X113919000Y-64135000D03*
X96774000Y-64262000D03*
X111633000Y-44196000D03*
X81026000Y-50292000D03*
X79883000Y-50292000D03*
X76454000Y-46863000D03*
X67818000Y-46990000D03*
X65405000Y-50546000D03*
X112903000Y-34036000D03*
X118110000Y-34036000D03*
X119634000Y-34036000D03*
X94361000Y-71628000D03*
X94615000Y-76327000D03*
X110109000Y-59563000D03*
X104902000Y-66395600D03*
X111379000Y-64135000D03*
X94488000Y-68707000D03*
D35*
X81343500Y-36639500D03*
X81343500Y-37528500D03*
D36*
X62484000Y-82931000D02*
X62484000Y-82296000D01*
X62738000Y-83185000D02*
X63373000Y-83185000D01*
X126746000Y-83185000D02*
X126111000Y-83185000D01*
X127000000Y-82931000D02*
X127000000Y-82296000D01*
X127000000Y-32004000D02*
X127000000Y-32639000D01*
X126746000Y-31750000D02*
X126111000Y-31750000D01*
X127254000Y-31750000D02*
X127889000Y-31750000D01*
X127000000Y-31496000D02*
X127000000Y-30861000D01*
X127000000Y-83439000D02*
X127000000Y-84074000D01*
X127254000Y-83185000D02*
X127889000Y-83185000D01*
X62230000Y-83185000D02*
X61595000Y-83185000D01*
X62484000Y-83439000D02*
X62484000Y-84074000D01*
D37*
X115189000Y-44693800D02*
X116067800Y-44693800D01*
X118110000Y-45720000D02*
X117094000Y-45720000D01*
X113665000Y-40584100D02*
X113972300Y-40276800D01*
X113665000Y-44196000D02*
X113665000Y-40584100D01*
X114162800Y-44693800D02*
X113665000Y-44196000D01*
X116067800Y-44693800D02*
X114162800Y-44693800D01*
X117094000Y-45720000D02*
X116067800Y-44693800D01*
X111633000Y-41158200D02*
X111876800Y-41158200D01*
X112776000Y-40259000D02*
X113972300Y-40276800D01*
X111876800Y-41158200D02*
X112776000Y-40259000D01*
X111633000Y-39116000D02*
X113411000Y-39116000D01*
X113972300Y-39677300D02*
X113972300Y-40276800D01*
X113411000Y-39116000D02*
X113972300Y-39677300D01*
D36*
X101600000Y-75057000D02*
X102616000Y-75057000D01*
X104267000Y-75057000D02*
X104267000Y-75057000D01*
X102616000Y-75057000D02*
X104267000Y-75057000D01*
X102616000Y-75057000D02*
X102616000Y-75057000D01*
X104267000Y-75057000D02*
X106680000Y-75057000D01*
X102616000Y-67437000D02*
X102616000Y-67437000D01*
X102616000Y-67437000D02*
X101600000Y-67437000D01*
X104267000Y-67437000D02*
X104267000Y-67437000D01*
X102616000Y-67437000D02*
X104267000Y-67437000D01*
X104267000Y-67437000D02*
X106680000Y-67437000D01*
D37*
X87376000Y-49784000D02*
X87223600Y-49784000D01*
X84582000Y-48006000D02*
X85852000Y-46736000D01*
X84582000Y-50063400D02*
X84582000Y-48006000D01*
X84582000Y-51308000D02*
X84582000Y-50063400D01*
X83903800Y-51605200D02*
X84582000Y-51308000D01*
X84582000Y-50063400D02*
X86131400Y-50063400D01*
X81407000Y-35306000D02*
X80962500Y-35306000D01*
X80962500Y-35306000D02*
X81153000Y-35242500D01*
X81407000Y-34099500D02*
X80962500Y-34099500D01*
X80962500Y-34099500D02*
X81153000Y-34036000D01*
X81407000Y-35306000D02*
X82362040Y-34589720D01*
X81724500Y-34607500D02*
X81407000Y-35306000D01*
X82362040Y-34589720D02*
X82616040Y-34335720D01*
X81407000Y-34163000D02*
X81407000Y-34099500D01*
X81407000Y-34163000D02*
X81724500Y-34607500D01*
X81280000Y-34607500D02*
X81724500Y-34607500D01*
X90424000Y-34036000D02*
X81407000Y-34099500D01*
X81280000Y-34607500D02*
X79756000Y-34607500D01*
X65412600Y-44168100D02*
X65412600Y-44950400D01*
X64770000Y-47127200D02*
X65405000Y-47762200D01*
X64770000Y-45593000D02*
X64770000Y-47127200D01*
X65412600Y-44950400D02*
X64770000Y-45593000D01*
X66294000Y-46228000D02*
X66294000Y-47498000D01*
X66029800Y-47762200D02*
X65405000Y-47762200D01*
X66294000Y-47498000D02*
X66029800Y-47762200D01*
X90424000Y-42164000D02*
X91440000Y-41148000D01*
X85852000Y-46736000D02*
X90424000Y-42164000D01*
X91440000Y-34036000D02*
X90424000Y-34036000D01*
X91440000Y-41148000D02*
X91440000Y-34036000D01*
X110098800Y-35803800D02*
X108331000Y-34036000D01*
X108331000Y-34036000D02*
X90424000Y-34036000D01*
X111633000Y-35803800D02*
X110098800Y-35803800D01*
X89992200Y-49707800D02*
X90017600Y-49707800D01*
X90017600Y-49707800D02*
X90728800Y-48996600D01*
X89357200Y-48971200D02*
X87858600Y-50063400D01*
X87858600Y-50063400D02*
X87249000Y-49784000D01*
X87249000Y-49784000D02*
X87223600Y-49784000D01*
X87223600Y-49784000D02*
X87376000Y-49784000D01*
X86131400Y-50063400D02*
X86868000Y-49784000D01*
X87376000Y-49403000D02*
X87376000Y-49784000D01*
X87376000Y-49784000D02*
X87376000Y-51943000D01*
X85471000Y-51943000D02*
X83903800Y-51605200D01*
X87376000Y-51943000D02*
X85471000Y-51943000D01*
X83903800Y-52324000D02*
X86626702Y-52324000D01*
X86626702Y-52324000D02*
X87350600Y-52705000D01*
X83903800Y-52324000D02*
X83820000Y-52324000D01*
X76708000Y-44831000D02*
X72009000Y-44831000D01*
X83820000Y-52324000D02*
X82804000Y-51308000D01*
X82804000Y-51308000D02*
X82804000Y-49174400D01*
X82804000Y-49174400D02*
X82245200Y-48564800D01*
X82245200Y-48564800D02*
X80213200Y-48564800D01*
X80213200Y-48564800D02*
X76708000Y-44831000D01*
X111633000Y-37592000D02*
X113411000Y-37592000D01*
X113972300Y-37030700D02*
X113972300Y-35720000D01*
X113411000Y-37592000D02*
X113972300Y-37030700D01*
X83903800Y-52324000D02*
X83903800Y-51605200D01*
X85852000Y-47498000D02*
X87376000Y-49022000D01*
X85852000Y-46736000D02*
X85852000Y-47498000D01*
X111633000Y-35803800D02*
X113888500Y-35803800D01*
X113888500Y-35803800D02*
X113972300Y-35720000D01*
X89992200Y-52034440D02*
X89992200Y-49707800D01*
X89992200Y-49707800D02*
X89992200Y-49606200D01*
X89992200Y-49606200D02*
X89357200Y-48971200D01*
X89357200Y-48971200D02*
X87884000Y-47498000D01*
X87884000Y-47498000D02*
X88392000Y-46736000D01*
X88392000Y-46736000D02*
X85852000Y-46736000D01*
X92329000Y-49784000D02*
X92329000Y-49784000D01*
X92329000Y-50927000D02*
X92329000Y-49784000D01*
X89154000Y-46736000D02*
X85852000Y-46736000D01*
X92329000Y-49784000D02*
X89154000Y-46736000D01*
X85852000Y-46736000D02*
X87884000Y-46736000D01*
X109728000Y-63627000D02*
X108597700Y-62852300D01*
X99822000Y-73279000D02*
X99822000Y-75692000D01*
X100393500Y-72707500D02*
X99822000Y-73279000D01*
X100393500Y-71882000D02*
X100393500Y-72707500D01*
X100457000Y-76327000D02*
X101600000Y-76327000D01*
X99822000Y-75692000D02*
X100457000Y-76327000D01*
X101600000Y-68707000D02*
X99792437Y-68707000D01*
X99792437Y-68707000D02*
X99792437Y-68706979D01*
X106172000Y-63601600D02*
X106197400Y-63627000D01*
X106146600Y-63601600D02*
X105181400Y-62636400D01*
X106172000Y-63601600D02*
X106146600Y-63601600D01*
X108585000Y-63627000D02*
X108686600Y-63525400D01*
X108610400Y-62865000D02*
X108000800Y-62255400D01*
X108610400Y-63525400D02*
X108610400Y-62865000D01*
X108686600Y-63525400D02*
X108610400Y-63525400D01*
X107442000Y-63627000D02*
X108585000Y-63627000D01*
X100961978Y-63119000D02*
X100266500Y-63754001D01*
X99796600Y-69342000D02*
X99796600Y-70332600D01*
X99792437Y-68706979D02*
X99796600Y-69342000D01*
X99796600Y-70332600D02*
X100393500Y-70929500D01*
X100393500Y-70929500D02*
X100393500Y-71882000D01*
X108585000Y-63627000D02*
X108712000Y-63627000D01*
X108712000Y-63627000D02*
X109728000Y-63627000D01*
X107899200Y-72364600D02*
X107832520Y-72364600D01*
X107832520Y-72364600D02*
X105156000Y-71475600D01*
X105918000Y-71323200D02*
X106520254Y-71323200D01*
X108966000Y-71348600D02*
X106943027Y-71348600D01*
X108966000Y-71348600D02*
X110426500Y-71882000D01*
X108966000Y-72415400D02*
X108966000Y-71348600D01*
X110426500Y-71882000D02*
X110426500Y-71882000D01*
X104902000Y-68376800D02*
X104902000Y-68910200D01*
X104902000Y-77089000D02*
X105029000Y-77089000D01*
X105410000Y-76708000D02*
X104902000Y-76708000D01*
X105029000Y-77089000D02*
X105410000Y-76708000D01*
X104902000Y-76047600D02*
X104902000Y-76708000D01*
X104902000Y-71323200D02*
X105918000Y-71323200D01*
X105892600Y-71323200D02*
X105918000Y-71323200D01*
X105918000Y-71323200D02*
X105892600Y-71323200D01*
X105918000Y-71323200D02*
X106984800Y-71323200D01*
X108911527Y-72360927D02*
X108966000Y-72415400D01*
X106803327Y-71675127D02*
X107899200Y-72364600D01*
X107899200Y-72364600D02*
X108911527Y-72360927D01*
X104902000Y-69443600D02*
X105206800Y-69443600D01*
X105206800Y-69443600D02*
X105435400Y-69164200D01*
X104902000Y-68376800D02*
X105333800Y-68376800D01*
X105333800Y-68376800D02*
X105664000Y-68707000D01*
X106680000Y-68707000D02*
X105664000Y-68707000D01*
X106553000Y-61468000D02*
X108585000Y-63627000D01*
X105961200Y-61468000D02*
X106553000Y-61468000D01*
X105961200Y-61468000D02*
X105961200Y-62908200D01*
X105961200Y-62908200D02*
X106663970Y-63634956D01*
X106663970Y-63634956D02*
X107442000Y-63627000D01*
X104419400Y-60960000D02*
X104673400Y-60579000D01*
X91008200Y-59309000D02*
X91313000Y-59613800D01*
X91313000Y-59613800D02*
X103733600Y-59613800D01*
X103733600Y-59613800D02*
X104673400Y-60579000D01*
X91008200Y-59309000D02*
X89992200Y-57185560D01*
X89992200Y-57185560D02*
X91475560Y-57185560D01*
X105961200Y-59987200D02*
X105961200Y-61468000D01*
X104241600Y-58267600D02*
X105961200Y-59987200D01*
X87630000Y-58674000D02*
X92036900Y-58674000D01*
X92036900Y-58674000D02*
X92849700Y-58267600D01*
X92849700Y-58267600D02*
X104241600Y-58267600D01*
X91475560Y-57185560D02*
X87630000Y-58674000D01*
X89992200Y-57185560D02*
X92420440Y-57185560D01*
X107315000Y-59436000D02*
X107315000Y-60579000D01*
X104775000Y-56896000D02*
X107315000Y-59436000D01*
X92511880Y-56896000D02*
X104775000Y-56896000D01*
X92420440Y-57185560D02*
X92511880Y-57277000D01*
X109728000Y-63627000D02*
X107696000Y-63627000D01*
X107696000Y-63627000D02*
X106807000Y-62357000D01*
X106850200Y-62357000D02*
X105961200Y-61468000D01*
X106807000Y-62357000D02*
X106850200Y-62357000D01*
X104902000Y-76047600D02*
X105415183Y-76323029D01*
X105415183Y-76323029D02*
X106680000Y-76327000D01*
X100961978Y-63119000D02*
X103585165Y-63119000D01*
X103585165Y-63119000D02*
X105961200Y-61447028D01*
X99772463Y-65660157D02*
X99792437Y-68706979D01*
X100266500Y-64262000D02*
X100266500Y-65087500D01*
X100266500Y-65087500D02*
X99772463Y-65660157D01*
X100266500Y-63754001D02*
X100266500Y-64262000D01*
X108966000Y-72415400D02*
X110490000Y-71882000D01*
X116078000Y-71501000D02*
X115951000Y-71501000D01*
X116205000Y-71374000D02*
X116078000Y-71501000D01*
X117551200Y-71120000D02*
X116205000Y-71374000D01*
X115224338Y-73298051D02*
X115189000Y-73599170D01*
X115951000Y-71501000D02*
X115224338Y-73298051D01*
X118110000Y-71120000D02*
X117094000Y-71120000D01*
X117094000Y-71120000D02*
X116205000Y-72009000D01*
X121539000Y-69060000D02*
X121539000Y-70993000D01*
X121031000Y-71501000D02*
X120015000Y-71501000D01*
X120015000Y-71501000D02*
X120523000Y-71501000D01*
X115443000Y-75438000D02*
X116651459Y-74025114D01*
X116651459Y-74025114D02*
X120523000Y-71501000D01*
X121793000Y-69723000D02*
X121793000Y-69060000D01*
X120015000Y-71501000D02*
X121234200Y-70281800D01*
X121234200Y-70281800D02*
X121793000Y-69723000D01*
X121539000Y-70993000D02*
X121031000Y-71501000D01*
X118110000Y-63500000D02*
X119761000Y-63119000D01*
X119634000Y-63119000D02*
X115697000Y-63119000D01*
X118110000Y-63500000D02*
X119634000Y-63119000D01*
X116398511Y-72704751D02*
X116392751Y-72704751D01*
X116392751Y-72704751D02*
X116078000Y-72517000D01*
X121694000Y-69060000D02*
X121539000Y-69060000D01*
X119253000Y-69850000D02*
X119024400Y-70078600D01*
X117551200Y-70688200D02*
X117551200Y-71120000D01*
X119024400Y-70078600D02*
X117551200Y-70688200D01*
X121793000Y-69060000D02*
X120424000Y-69060000D01*
X120424000Y-69060000D02*
X119253000Y-69850000D01*
X119253000Y-69850000D02*
X119227600Y-69875400D01*
X118110000Y-71120000D02*
X119606000Y-71247000D01*
X119606000Y-71247000D02*
X119761000Y-71092000D01*
X119761000Y-71092000D02*
X119380000Y-70612000D01*
X119380000Y-70612000D02*
X121793000Y-69060000D01*
X118110000Y-71120000D02*
X117551200Y-71120000D01*
X114935000Y-73787000D02*
X115189000Y-73599170D01*
X112268000Y-73787000D02*
X114935000Y-73787000D01*
X115189000Y-73599170D02*
X116398511Y-72704751D01*
X116398511Y-72704751D02*
X117856000Y-71120000D01*
X118745000Y-71628000D02*
X115976400Y-74015600D01*
X112268000Y-75057000D02*
X114173000Y-75057000D01*
X114173000Y-75057000D02*
X115824000Y-73406000D01*
X112268000Y-77597000D02*
X114427000Y-77597000D01*
X114427000Y-77597000D02*
X115443000Y-76581000D01*
X115443000Y-76581000D02*
X115443000Y-75438000D01*
X112268000Y-76327000D02*
X113919000Y-76327000D01*
X113919000Y-76327000D02*
X115697000Y-74676000D01*
X115697000Y-74676000D02*
X115443000Y-75438000D01*
X115443000Y-75438000D02*
X115976400Y-74015600D01*
X115976400Y-74015600D02*
X115824000Y-73406000D01*
X115824000Y-73406000D02*
X117054385Y-72098716D01*
X112268000Y-77597000D02*
X112268000Y-76327000D01*
X112268000Y-76327000D02*
X112268000Y-75057000D01*
X112268000Y-73787000D02*
X112268000Y-75057000D01*
X119126000Y-67132200D02*
X119126000Y-67564000D01*
X119710200Y-67360800D02*
X119126000Y-67132200D01*
X119761000Y-67310000D02*
X119710200Y-67360800D01*
X120904000Y-66548000D02*
X119126000Y-67564000D01*
X119126000Y-67564000D02*
X120438985Y-66813723D01*
X120438985Y-66813723D02*
X119430800Y-67259200D01*
X118110000Y-68580000D02*
X119430800Y-67259200D01*
X119430800Y-67259200D02*
X120116600Y-66954400D01*
X120116600Y-66954400D02*
X120269000Y-66522600D01*
X120269000Y-66522600D02*
X120269000Y-66548000D01*
X118719600Y-65560000D02*
X118696800Y-65582800D01*
X117373400Y-65582800D02*
X116789200Y-66167000D01*
X118696800Y-65582800D02*
X117373400Y-65582800D01*
X116039719Y-69977083D02*
X116852602Y-69164200D01*
X116852602Y-69164200D02*
X117627400Y-69164200D01*
X116713000Y-68707000D02*
X116789200Y-68630800D01*
X116789200Y-68630800D02*
X117398800Y-68630800D01*
X116713000Y-67437000D02*
X117576600Y-67437000D01*
X116713000Y-66167000D02*
X116789200Y-66167000D01*
X116789200Y-66167000D02*
X117983000Y-66167000D01*
X117983000Y-66167000D02*
X118110000Y-66040000D01*
X121793000Y-65560000D02*
X121793000Y-65659000D01*
X120904000Y-66548000D02*
X120269000Y-66548000D01*
X121793000Y-65659000D02*
X120904000Y-66548000D01*
X120269000Y-66548000D02*
X118872000Y-66548000D01*
X118872000Y-66548000D02*
X118110000Y-67310000D01*
X118110000Y-68580000D02*
X118110000Y-67310000D01*
X118110000Y-67310000D02*
X118110000Y-66040000D01*
X121793000Y-65560000D02*
X118719600Y-65560000D01*
X118719600Y-65560000D02*
X118590000Y-65560000D01*
X118590000Y-65560000D02*
X118110000Y-66040000D01*
X116713000Y-67462400D02*
X116713000Y-67437000D01*
X116713000Y-67437000D02*
X116713000Y-66167000D01*
X115189000Y-66167000D02*
X116713000Y-66167000D01*
X115189000Y-66167000D02*
X112268000Y-66167000D01*
X116713000Y-68707000D02*
X116713000Y-67462400D01*
X115189000Y-67437000D02*
X116687600Y-67437000D01*
X115189000Y-67437000D02*
X112268000Y-67437000D01*
X116713000Y-67462400D02*
X116687600Y-67437000D01*
X116039719Y-69977083D02*
X116039719Y-69380281D01*
X116713000Y-68707000D02*
X112268000Y-68707000D01*
X116039719Y-69380281D02*
X116713000Y-68707000D01*
X116039719Y-69977083D02*
X115404719Y-69977083D01*
X112268000Y-69977000D02*
X116039719Y-69977083D01*
X112268000Y-66167000D02*
X112268000Y-67437000D01*
X112268000Y-67437000D02*
X112268000Y-68707000D01*
X112268000Y-68707000D02*
X112268000Y-69977000D01*
X112268000Y-69977000D02*
X112395000Y-69850000D01*
D36*
X92202000Y-68834000D02*
X92202000Y-68072000D01*
X90678000Y-66548000D02*
X90678000Y-66040000D01*
X92202000Y-68072000D02*
X90678000Y-66548000D01*
X85598000Y-71628000D02*
X84963000Y-71628000D01*
X84963000Y-71628000D02*
X83947000Y-70612000D01*
X79502000Y-73406000D02*
X79502000Y-74549000D01*
X79502000Y-74549000D02*
X80010000Y-75057000D01*
X83312000Y-75057000D02*
X80010000Y-75057000D01*
X83947000Y-74422000D02*
X83312000Y-75057000D01*
X90805000Y-70231000D02*
X92202000Y-68834000D01*
X86868000Y-70612000D02*
X86868000Y-70612000D01*
X87249000Y-70231000D02*
X90805000Y-70231000D01*
X86868000Y-70612000D02*
X87249000Y-70231000D01*
X86868000Y-70612000D02*
X86868000Y-70612000D01*
X85598000Y-71628000D02*
X86868000Y-71628000D01*
X86868000Y-70612000D02*
X86868000Y-71628000D01*
X93091000Y-68834000D02*
X93091000Y-67945000D01*
X90678000Y-71628000D02*
X90678000Y-71247000D01*
X91948000Y-66802000D02*
X91948000Y-66040000D01*
X93091000Y-67945000D02*
X91948000Y-66802000D01*
X90678000Y-71247000D02*
X93091000Y-68834000D01*
X79502000Y-65786000D02*
X79502000Y-67437000D01*
X79502000Y-67437000D02*
X80772000Y-68707000D01*
X80772000Y-68707000D02*
X80772000Y-68707000D01*
X91948000Y-66040000D02*
X91948000Y-63881000D01*
X80772000Y-68707000D02*
X84836000Y-72771000D01*
X90678000Y-72644000D02*
X90678000Y-71628000D01*
X90551000Y-72771000D02*
X90678000Y-72644000D01*
X84836000Y-72771000D02*
X90551000Y-72771000D01*
X78359000Y-79756000D02*
X79121000Y-79756000D01*
X79552800Y-79324200D02*
X79552800Y-79324200D01*
X79121000Y-79756000D02*
X79552800Y-79324200D01*
X75692000Y-79756000D02*
X78359000Y-79756000D01*
X78359000Y-79502000D02*
X78359000Y-78740000D01*
X78359000Y-79756000D02*
X78359000Y-79502000D01*
X80264000Y-62727800D02*
X80264000Y-63627000D01*
X79552800Y-76449322D02*
X79552800Y-79324200D01*
X80019293Y-75946000D02*
X83820000Y-75946000D01*
X83820000Y-75946000D02*
X84785200Y-74980800D01*
X84785200Y-73863200D02*
X84785200Y-74980800D01*
X78232000Y-67310000D02*
X84785200Y-73863200D01*
X78232000Y-64897000D02*
X78232000Y-67310000D01*
X80019293Y-75946000D02*
X79552800Y-76449322D01*
X78867000Y-64262000D02*
X78232000Y-64897000D01*
X79629000Y-64262000D02*
X78867000Y-64262000D01*
X80264000Y-63627000D02*
X79629000Y-64262000D01*
X77597000Y-59309000D02*
X80264000Y-59309000D01*
X80264000Y-59309000D02*
X81153000Y-59309000D01*
X81163200Y-62727800D02*
X80264000Y-62727800D01*
X81534000Y-62357000D02*
X81163200Y-62727800D01*
X81534000Y-59690000D02*
X81534000Y-62357000D01*
X81153000Y-59309000D02*
X81534000Y-59690000D01*
X90043000Y-36576000D02*
X88392000Y-36576000D01*
X88392000Y-36576000D02*
X87503000Y-37465000D01*
X87503000Y-37465000D02*
X84455000Y-37465000D01*
X79629000Y-40513000D02*
X81407000Y-40513000D01*
X70993000Y-45910500D02*
X70993000Y-44196000D01*
X76149200Y-53924200D02*
X75946000Y-53721000D01*
X72263000Y-50609500D02*
X72263000Y-47180500D01*
X72720200Y-51066700D02*
X72263000Y-50609500D01*
X74231500Y-51066700D02*
X72720200Y-51066700D01*
X75946000Y-52781200D02*
X74231500Y-51066700D01*
X75946000Y-52781200D02*
X75946000Y-53721000D01*
X72263000Y-47180500D02*
X70993000Y-45910500D01*
X71501000Y-43688000D02*
X76454000Y-43688000D01*
X70993000Y-44196000D02*
X71501000Y-43688000D01*
X79629000Y-40513000D02*
X76454000Y-43688000D01*
X81407000Y-40513000D02*
X84455000Y-37465000D01*
X77597000Y-57785000D02*
X77597000Y-56642000D01*
X82296000Y-57785000D02*
X82296000Y-56388000D01*
X82296000Y-56388000D02*
X82931000Y-55753000D01*
X82804000Y-69596000D02*
X80772000Y-67564000D01*
X80264000Y-57785000D02*
X81407000Y-57785000D01*
X80772000Y-64770000D02*
X80772000Y-66167000D01*
X82296000Y-63246000D02*
X80772000Y-64770000D01*
X82296000Y-57785000D02*
X82296000Y-63246000D01*
X81407000Y-57785000D02*
X82296000Y-57785000D01*
X80772000Y-66167000D02*
X80772000Y-67564000D01*
X85598000Y-69596000D02*
X85725000Y-69723000D01*
X82804000Y-69596000D02*
X85598000Y-69596000D01*
X85852000Y-73634600D02*
X85852000Y-74549000D01*
X112268000Y-54102000D02*
X115189000Y-54102000D01*
X82931000Y-55753000D02*
X84709000Y-55753000D01*
X84709000Y-55753000D02*
X86106000Y-54356000D01*
X86106000Y-54356000D02*
X93535500Y-54356000D01*
X93535500Y-54356000D02*
X95948500Y-51943000D01*
X95948500Y-51943000D02*
X110109000Y-51943000D01*
X112014000Y-53848000D02*
X110109000Y-51943000D01*
X112268000Y-54102000D02*
X112014000Y-53848000D01*
X75692000Y-77216000D02*
X75692000Y-77216000D01*
X75692000Y-77216000D02*
X75692000Y-77216000D01*
X75692000Y-77216000D02*
X78359000Y-77216000D01*
X74422000Y-75946000D02*
X75692000Y-77216000D01*
X74422000Y-73406000D02*
X74422000Y-75946000D01*
X75692000Y-77216000D02*
X75692000Y-77216000D01*
X77216000Y-55753000D02*
X82042000Y-55753000D01*
X82042000Y-55753000D02*
X82677000Y-55118000D01*
X74930000Y-59817000D02*
X74930000Y-57023000D01*
X76962000Y-65786000D02*
X75565000Y-67183000D01*
X72898000Y-66548000D02*
X72898000Y-61849000D01*
X73533000Y-67183000D02*
X72898000Y-66548000D01*
X75565000Y-67183000D02*
X73533000Y-67183000D01*
X72898000Y-61849000D02*
X74930000Y-59817000D01*
X76327000Y-56642000D02*
X77216000Y-55753000D01*
X75311000Y-56642000D02*
X76327000Y-56642000D01*
X74930000Y-57023000D02*
X75311000Y-56642000D01*
X92964000Y-47879000D02*
X92964000Y-45709800D01*
X93205300Y-53733700D02*
X85839300Y-53733700D01*
X84455000Y-55118000D02*
X82677000Y-55118000D01*
X85839300Y-53733700D02*
X84455000Y-55118000D01*
X94107000Y-49022000D02*
X94107000Y-52832000D01*
X94107000Y-52832000D02*
X93205300Y-53733700D01*
X92964000Y-47879000D02*
X94107000Y-49022000D01*
X92964000Y-45709800D02*
X94115293Y-45728293D01*
X96393000Y-48006000D02*
X96393000Y-49961800D01*
X94115293Y-45728293D02*
X96393000Y-48006000D01*
X71120000Y-70241200D02*
X71120000Y-69977000D01*
X69738394Y-69977000D02*
X71120000Y-69977000D01*
X71120000Y-69977000D02*
X75565000Y-69977000D01*
X76962000Y-71374000D02*
X76962000Y-73406000D01*
X76962000Y-71374000D02*
X75565000Y-69977000D01*
X71120000Y-70241200D02*
X71120000Y-70241200D01*
X69738394Y-69977000D02*
X66040000Y-66040000D01*
X66040000Y-61468000D02*
X66040000Y-66040000D01*
X68580000Y-58928000D02*
X66040000Y-61468000D01*
X71374000Y-58928000D02*
X68580000Y-58928000D01*
X89408000Y-69342000D02*
X86995000Y-69342000D01*
X86995000Y-69342000D02*
X86423500Y-68770500D01*
X89408000Y-74549000D02*
X89408000Y-74295000D01*
X89408000Y-73660000D02*
X89408000Y-74295000D01*
X83121500Y-68770500D02*
X86423500Y-68770500D01*
X82042000Y-65786000D02*
X82042000Y-67691000D01*
X82042000Y-67691000D02*
X83121500Y-68770500D01*
X82042000Y-65786000D02*
X82042000Y-65786000D01*
X89408000Y-76200000D02*
X89408000Y-76454000D01*
X89408000Y-74549000D02*
X89408000Y-76200000D01*
X88011000Y-74549000D02*
X89408000Y-74549000D01*
X89408000Y-76454000D02*
X90551000Y-77597000D01*
X90551000Y-77597000D02*
X91440000Y-77597000D01*
X91440000Y-77597000D02*
X91694000Y-77851000D01*
X91694000Y-77851000D02*
X91694000Y-78740000D01*
X88138000Y-66040000D02*
X88138000Y-66802000D01*
X89408000Y-69342000D02*
X89408000Y-68072000D01*
X89408000Y-68072000D02*
X88138000Y-66802000D01*
X86868000Y-62103000D02*
X86360000Y-61595000D01*
X115189000Y-57277000D02*
X114427000Y-57277000D01*
X114427000Y-57277000D02*
X114300000Y-57150000D01*
X94234000Y-54991000D02*
X96520000Y-52705000D01*
X96520000Y-52705000D02*
X109601000Y-52705000D01*
X94234000Y-54991000D02*
X86360000Y-54991000D01*
X86360000Y-61595000D02*
X86360000Y-61595000D01*
X86360000Y-61595000D02*
X84201000Y-59436000D01*
X84201000Y-59436000D02*
X84201000Y-57150000D01*
X84201000Y-57150000D02*
X86360000Y-54991000D01*
X86868000Y-66040000D02*
X86868000Y-62103000D01*
X114300000Y-57150000D02*
X109855000Y-52705000D01*
X109855000Y-52705000D02*
X109601000Y-52705000D01*
X88138000Y-66040000D02*
X88138000Y-64124800D01*
X86868000Y-66040000D02*
X88138000Y-66040000D01*
X96012000Y-69977000D02*
X96012000Y-71628000D01*
X94869000Y-75057000D02*
X96012000Y-75057000D01*
X91948000Y-71628000D02*
X91948000Y-70866000D01*
X92837000Y-69977000D02*
X94869000Y-69977000D01*
X94869000Y-69977000D02*
X94869000Y-69977000D01*
X94869000Y-69977000D02*
X96012000Y-69977000D01*
X91948000Y-70866000D02*
X92837000Y-69977000D01*
X94488000Y-73152000D02*
X94488000Y-74676000D01*
X96012000Y-71628000D02*
X94488000Y-73152000D01*
X94488000Y-74676000D02*
X94869000Y-75057000D01*
X104013000Y-70383400D02*
X104013000Y-70358000D01*
X103632000Y-69977000D02*
X101600000Y-69977000D01*
X104013000Y-70358000D02*
X103632000Y-69977000D01*
X106680000Y-69977000D02*
X106121200Y-69977000D01*
X105714800Y-70383400D02*
X104013000Y-70383400D01*
X106121200Y-69977000D02*
X105714800Y-70383400D01*
X96012000Y-67437000D02*
X97155000Y-67437000D01*
X97536000Y-70358000D02*
X97028000Y-70866000D01*
X97028000Y-70866000D02*
X97028000Y-72898000D01*
X97028000Y-72898000D02*
X97663000Y-73533000D01*
X97663000Y-73533000D02*
X97663000Y-77089000D01*
X97663000Y-77089000D02*
X97155000Y-77597000D01*
X97155000Y-77597000D02*
X96012000Y-77597000D01*
X97536000Y-67818000D02*
X97536000Y-70358000D01*
X97155000Y-67437000D02*
X97536000Y-67818000D01*
X96012000Y-67437000D02*
X95123000Y-67437000D01*
X95123000Y-67437000D02*
X93726000Y-66040000D01*
X93218000Y-66040000D02*
X93726000Y-66040000D01*
X104343200Y-78181200D02*
X105587800Y-78181200D01*
X106172000Y-77597000D02*
X105587800Y-78181200D01*
X106680000Y-77597000D02*
X106172000Y-77597000D01*
X104343200Y-78181200D02*
X103759000Y-77597000D01*
X103759000Y-77597000D02*
X101600000Y-77597000D01*
X88138000Y-71628000D02*
X89408000Y-71628000D01*
X91186000Y-68580000D02*
X91186000Y-68580000D01*
X89408000Y-66675000D02*
X89408000Y-66040000D01*
X91186000Y-68580000D02*
X89408000Y-66675000D01*
X91948000Y-73279000D02*
X91948000Y-74549000D01*
X90932000Y-74549000D02*
X91313000Y-74549000D01*
X91313000Y-74549000D02*
X91948000Y-74549000D01*
X91948000Y-74549000D02*
X93091000Y-74549000D01*
X89408000Y-64389000D02*
X90551000Y-63246000D01*
X89408000Y-60960000D02*
X88900000Y-60960000D01*
X90551000Y-62103000D02*
X89408000Y-60960000D01*
X90551000Y-63246000D02*
X90551000Y-62103000D01*
X115189000Y-60452000D02*
X114427000Y-60452000D01*
X109578206Y-53467000D02*
X114173000Y-58182710D01*
X84963000Y-57327800D02*
X86715600Y-55575200D01*
X88900000Y-60960000D02*
X86741000Y-60960000D01*
X86741000Y-60960000D02*
X84963000Y-59182000D01*
X84963000Y-59182000D02*
X84963000Y-57327800D01*
X89408000Y-64389000D02*
X89408000Y-66040000D01*
X89408000Y-64389000D02*
X89408000Y-64389000D01*
X94919800Y-55575200D02*
X97028000Y-53467000D01*
X86715600Y-55575200D02*
X94919800Y-55575200D01*
X97028000Y-53467000D02*
X109578206Y-53467000D01*
X114173000Y-60198000D02*
X114173000Y-58182710D01*
X114427000Y-60452000D02*
X114173000Y-60198000D01*
D38*
X76809688Y-54836487D02*
X81561513Y-54836487D01*
X81561513Y-54836487D02*
X82169000Y-54229000D01*
X89281000Y-35306000D02*
X88138000Y-35306000D01*
X88138000Y-35306000D02*
X86931500Y-36512500D01*
X84137500Y-36512500D02*
X86931500Y-36512500D01*
X69969400Y-43695600D02*
X69969400Y-44168100D01*
X69969400Y-43695600D02*
X70866000Y-42799000D01*
X76073000Y-42799000D02*
X79248000Y-39624000D01*
X76073000Y-42799000D02*
X70866000Y-42799000D01*
X81026000Y-39624000D02*
X84137500Y-36512500D01*
X79248000Y-39624000D02*
X81026000Y-39624000D01*
X83312000Y-79502000D02*
X83312000Y-80645000D01*
X89397800Y-80634800D02*
X89408000Y-80645000D01*
X83809800Y-67299800D02*
X84455000Y-67945000D01*
X83809800Y-64124800D02*
X83809800Y-67299800D01*
X89397800Y-80634800D02*
X88265000Y-80634800D01*
X86995000Y-67945000D02*
X84455000Y-67945000D01*
X87376000Y-67945000D02*
X86995000Y-67945000D01*
X87630000Y-68199000D02*
X87376000Y-67945000D01*
X75819000Y-55753000D02*
X75882500Y-55689500D01*
X75819000Y-60960000D02*
X75501500Y-61277500D01*
X75819000Y-57658000D02*
X75819000Y-60960000D01*
X98043999Y-35306001D02*
X98044001Y-35306001D01*
X104902000Y-42164000D02*
X104902000Y-45085000D01*
X98044001Y-35306001D02*
X104902000Y-42164000D01*
X113157000Y-49911000D02*
X113157000Y-50927000D01*
X113157000Y-50927000D02*
X113908800Y-51678800D01*
X113908800Y-51678800D02*
X115189000Y-51678800D01*
X113157000Y-49911000D02*
X109982000Y-46736000D01*
X109982000Y-46736000D02*
X106553000Y-46736000D01*
X106553000Y-46736000D02*
X104902000Y-45085000D01*
X98043999Y-35306001D02*
X98043998Y-35306000D01*
X98043998Y-35306000D02*
X93599000Y-35306000D01*
X92837000Y-35306000D02*
X93599000Y-35306000D01*
X85852000Y-80645000D02*
X88127800Y-80645000D01*
X85852000Y-80645000D02*
X85852000Y-80645000D01*
X85852000Y-79502000D02*
X85852000Y-80645000D01*
X80772000Y-80645000D02*
X81153000Y-80645000D01*
X81153000Y-80645000D02*
X82677000Y-80645000D01*
X82677000Y-80645000D02*
X83312000Y-80645000D01*
X83312000Y-80645000D02*
X85852000Y-80645000D01*
X80772000Y-79502000D02*
X80772000Y-80645000D01*
X73787000Y-52514500D02*
X74930000Y-53657500D01*
X74930000Y-53657500D02*
X74930000Y-54590462D01*
X74930000Y-54590462D02*
X75882500Y-55689500D01*
X69512200Y-50843200D02*
X71183500Y-52514500D01*
X71183500Y-52514500D02*
X73787000Y-52514500D01*
X69512200Y-49022000D02*
X69512200Y-50843200D01*
X76809688Y-54836487D02*
X75882500Y-55689500D01*
X83809800Y-64124800D02*
X83185000Y-63627000D01*
X83185000Y-63627000D02*
X83185000Y-56769000D01*
X82169000Y-54229000D02*
X83185000Y-54229000D01*
X83820000Y-64124800D02*
X83809800Y-64124800D01*
X85598000Y-64124800D02*
X83820000Y-64124800D01*
X75501500Y-61277500D02*
X75501500Y-62738000D01*
X75501500Y-62738000D02*
X75501500Y-64706500D01*
X75501500Y-64706500D02*
X74422000Y-65786000D01*
X71374000Y-56388000D02*
X73903800Y-56388000D01*
X73903800Y-56388000D02*
X73914000Y-56398200D01*
X115189000Y-51678800D02*
X115189000Y-51689000D01*
X115189000Y-51689000D02*
X117475000Y-53340000D01*
X117475000Y-53340000D02*
X118110000Y-53340000D01*
X69969400Y-44168100D02*
X69969400Y-48564800D01*
X69969400Y-48564800D02*
X69512200Y-49022000D01*
X69969400Y-44168100D02*
X67856100Y-44168100D01*
X67856100Y-44168100D02*
X67818000Y-44206200D01*
X73914000Y-56398200D02*
X73914000Y-55245000D01*
X85598000Y-64135000D02*
X85598000Y-66040000D01*
X73903800Y-56408400D02*
X73914000Y-56398200D01*
D37*
X124206000Y-34036000D02*
X122682000Y-34036000D01*
X122682000Y-34036000D02*
X121158000Y-34036000D01*
X89217500Y-41275000D02*
X89217500Y-39878000D01*
X89217500Y-39878000D02*
X88519000Y-40640000D01*
X88519000Y-40640000D02*
X85852000Y-40640000D01*
X80543400Y-46837600D02*
X80543400Y-44170600D01*
X80543400Y-44170600D02*
X81026000Y-43688000D01*
X82194400Y-46837600D02*
X82194400Y-46126400D01*
X82194400Y-46126400D02*
X81026000Y-44958000D01*
X81026000Y-44958000D02*
X81026000Y-43688000D01*
X85852000Y-41529000D02*
X87376000Y-43370500D01*
X85852000Y-41529000D02*
X85852000Y-40640000D01*
X81026000Y-43688000D02*
X81026000Y-44640500D01*
X81026000Y-43688000D02*
X81026000Y-42291000D01*
X81026000Y-42291000D02*
X82565933Y-40783832D01*
X82565933Y-40783832D02*
X84010500Y-39370000D01*
X85852000Y-40640000D02*
X86106000Y-40640000D01*
X86106000Y-40640000D02*
X88773000Y-37846000D01*
X88773000Y-37846000D02*
X89154000Y-37846000D01*
X121269800Y-37998400D02*
X121269800Y-39766200D01*
X121269800Y-39766200D02*
X119507000Y-41529000D01*
X121269800Y-37998400D02*
X121269800Y-41513800D01*
X121269800Y-41513800D02*
X121285000Y-41529000D01*
X121269800Y-37998400D02*
X121269800Y-39735800D01*
X121269800Y-39735800D02*
X123063000Y-41529000D01*
X73901300Y-58940700D02*
X73901300Y-57914500D01*
X73901300Y-57914500D02*
X73914000Y-57901800D01*
X80264000Y-61224200D02*
X78877200Y-61224200D01*
X78877200Y-61224200D02*
X78867000Y-61214000D01*
X111462800Y-61468000D02*
X111760000Y-61468000D01*
X112649000Y-60579000D02*
X112649000Y-59563000D01*
X111760000Y-61468000D02*
X112649000Y-60579000D01*
X111462800Y-61468000D02*
X111875455Y-61468000D01*
X112522000Y-62484000D02*
X112522000Y-64135000D01*
X111875455Y-61468000D02*
X112522000Y-62484000D01*
X81026000Y-43688000D02*
X83185000Y-43688000D01*
X83185000Y-43688000D02*
X84467700Y-42405300D01*
X78562200Y-43688000D02*
X78181200Y-43662600D01*
X81026000Y-43688000D02*
X78562200Y-43688000D01*
X78181200Y-43662600D02*
X77825600Y-43688000D01*
X71374000Y-61468000D02*
X73279000Y-59563000D01*
X73279000Y-59563000D02*
X73901300Y-58940700D01*
X73901300Y-58940700D02*
X73914000Y-58928000D01*
X89535000Y-79121000D02*
X88275200Y-79121000D01*
X88275200Y-79121000D02*
X88265000Y-79131200D01*
X115189000Y-43190200D02*
X115189000Y-41910000D01*
X118110000Y-43180000D02*
X115199200Y-43180000D01*
X115199200Y-43180000D02*
X115189000Y-43190200D01*
X69377600Y-38557200D02*
X67691000Y-36870600D01*
X69047400Y-36870600D02*
X71501000Y-35179000D01*
X67691000Y-36870600D02*
X69047400Y-36870600D01*
X71501000Y-39878000D02*
X70612000Y-39878000D01*
X70485000Y-39751000D02*
X67945000Y-36957000D01*
X70612000Y-39878000D02*
X70485000Y-39751000D01*
X67691000Y-36870600D02*
X71460400Y-36870600D01*
X71460400Y-36870600D02*
X71501000Y-36830000D01*
X67691000Y-36870600D02*
X68747600Y-36870600D01*
X68747600Y-36870600D02*
X71501000Y-38481000D01*
X92964000Y-44196000D02*
X92964000Y-43180000D01*
X92964000Y-43180000D02*
X93218000Y-42926000D01*
X118110000Y-48260000D02*
X115316000Y-48260000D01*
X98488500Y-71882000D02*
X98488500Y-70396100D01*
X98488500Y-70396100D02*
X98450400Y-70358000D01*
X104902000Y-65278000D02*
X104902000Y-65862200D01*
X106578400Y-73406000D02*
X104902000Y-72898000D01*
X106578400Y-73914000D02*
X106578400Y-73406000D01*
X105283000Y-73990200D02*
X104902000Y-73990200D01*
X105283000Y-73990200D02*
X106578400Y-73914000D01*
X104902000Y-73431400D02*
X104902000Y-73990200D01*
X113792000Y-72440800D02*
X112522000Y-71882000D01*
X113792000Y-71374000D02*
X112522000Y-71628000D01*
X113792000Y-71374000D02*
X113792000Y-72440800D01*
X112395000Y-71755000D02*
X112522000Y-71628000D01*
X112522000Y-71882000D02*
X112471200Y-71831200D01*
X73660000Y-47117000D02*
X73710800Y-48793400D01*
X73710800Y-48793400D02*
X75013800Y-49022000D01*
X106680000Y-66167000D02*
X106680000Y-65913000D01*
X104902000Y-65278000D02*
X104902000Y-65278000D01*
X106680000Y-65913000D02*
X104902000Y-65278000D01*
X104902000Y-72898000D02*
X104902000Y-72898000D01*
X75013800Y-49022000D02*
X75013800Y-46565800D01*
X75013800Y-46565800D02*
X74930000Y-46482000D01*
X78402200Y-52324000D02*
X78402200Y-49740800D01*
X78402200Y-49740800D02*
X78486000Y-49657000D01*
X78867000Y-62738000D02*
X77406500Y-62738000D01*
X71120000Y-71744800D02*
X72379800Y-71744800D01*
X72379800Y-71744800D02*
X72390000Y-71755000D01*
X82042000Y-73406000D02*
X82042000Y-73406000D01*
X71374000Y-67132200D02*
X71374000Y-61468000D01*
X72466200Y-68224400D02*
X71374000Y-67132200D01*
X76860400Y-68224400D02*
X72466200Y-68224400D01*
X82042000Y-73406000D02*
X76860400Y-68224400D01*
X91948000Y-62357000D02*
X91948000Y-61468000D01*
X88138000Y-62621200D02*
X89397800Y-62621200D01*
X89397800Y-62621200D02*
X89408000Y-62611000D01*
X85598000Y-62621200D02*
X84444800Y-62621200D01*
X84444800Y-62621200D02*
X84437724Y-62628276D01*
X112903000Y-34036000D02*
X112141000Y-34036000D01*
X111876800Y-34300200D02*
X111633000Y-34300200D01*
X112141000Y-34036000D02*
X111876800Y-34300200D01*
X115189000Y-50175200D02*
X115072200Y-50175200D01*
X115189000Y-50175200D02*
X116713000Y-50165000D01*
X117708600Y-50800000D02*
X118110000Y-50800000D01*
X116713000Y-50165000D02*
X117708600Y-50800000D01*
X98361500Y-64262000D02*
X96774000Y-64262000D01*
X111633000Y-43042800D02*
X111633000Y-44196000D01*
X78402200Y-52324000D02*
X80137000Y-52324000D01*
X81026000Y-51435000D02*
X81026000Y-50292000D01*
X80137000Y-52324000D02*
X81026000Y-51435000D01*
X75013800Y-49022000D02*
X75013800Y-49022000D01*
X78402200Y-52324000D02*
X79502000Y-52324000D01*
X79883000Y-51435000D02*
X79883000Y-50292000D01*
X79502000Y-52324000D02*
X79883000Y-51435000D01*
X75013800Y-49022000D02*
X75819000Y-49022000D01*
X76457643Y-48131766D02*
X76454000Y-46863000D01*
X75819000Y-49022000D02*
X76457643Y-48131766D01*
X67818000Y-45709800D02*
X67818000Y-46990000D01*
X65405000Y-49265800D02*
X65405000Y-50546000D01*
X118110000Y-34036000D02*
X119634000Y-34036000D01*
X112903000Y-34036000D02*
X118110000Y-34036000D01*
X121117400Y-38608000D02*
X121117400Y-38648600D01*
X119634000Y-34036000D02*
X121158000Y-34036000D01*
X93218000Y-71628000D02*
X94361000Y-71628000D01*
X121117400Y-38608000D02*
X121117400Y-36997600D01*
X121117400Y-38608000D02*
X121158000Y-38608000D01*
X85852000Y-40640000D02*
X84483430Y-40640000D01*
X84483430Y-40640000D02*
X82550000Y-42545000D01*
X81026000Y-43688000D02*
X82487922Y-42233491D01*
X121117400Y-38608000D02*
X121117400Y-37170400D01*
X121117400Y-38608000D02*
X121117400Y-34076600D01*
X121117400Y-34076600D02*
X121158000Y-34036000D01*
X111379000Y-58801000D02*
X111379000Y-60411400D01*
X111462800Y-60495200D02*
X111462800Y-61468000D01*
X111379000Y-60411400D02*
X111462800Y-60495200D01*
X94615000Y-76327000D02*
X96012000Y-76327000D01*
X111252000Y-61468000D02*
X110134400Y-60756800D01*
X110134400Y-60756800D02*
X110109000Y-59563000D01*
X111462800Y-61468000D02*
X111252000Y-61468000D01*
X104902000Y-66395600D02*
X106680000Y-66167000D01*
X111462800Y-61468000D02*
X112598200Y-61442600D01*
X112598200Y-61442600D02*
X112268000Y-62128400D01*
X112268000Y-62128400D02*
X113030000Y-62611000D01*
X113030000Y-62611000D02*
X113919000Y-63500000D01*
X113919000Y-63500000D02*
X113919000Y-64135000D01*
X113919000Y-64135000D02*
X113919000Y-64135000D01*
X111462800Y-61468000D02*
X110744000Y-61468000D01*
X111379000Y-62357000D02*
X111462800Y-61468000D01*
X111379000Y-64135000D02*
X111379000Y-62357000D01*
X111379000Y-58801000D02*
X111379000Y-58801000D01*
X96012000Y-68707000D02*
X94869000Y-68707000D01*
X94869000Y-68707000D02*
X94488000Y-68707000D01*
D36*
X79756000Y-37401500D02*
X79565500Y-37401500D01*
X78689200Y-38328600D02*
X78232000Y-38354000D01*
X79565500Y-37401500D02*
X78689200Y-38328600D01*
X79756000Y-37401500D02*
X79692500Y-37401500D01*
X78613000Y-36322000D02*
X78232000Y-36322000D01*
X79692500Y-37401500D02*
X78613000Y-36322000D01*
X76327000Y-38735000D02*
X79565500Y-38735000D01*
X79756000Y-38354000D02*
X79756000Y-37401500D01*
X79565500Y-38735000D02*
X79756000Y-38354000D01*
X78295500Y-37401500D02*
X79756000Y-37401500D01*
X81343500Y-37528500D02*
X81343500Y-38163500D01*
X81343500Y-36639500D02*
X81153000Y-37719000D01*
X81153000Y-37719000D02*
X81343500Y-37528500D01*
X80772000Y-38735000D02*
X80137000Y-38735000D01*
X81343500Y-38163500D02*
X80772000Y-38735000D01*
X81343500Y-36639500D02*
X81026000Y-36322000D01*
X81026000Y-36322000D02*
X80645000Y-36322000D01*
X80645000Y-36322000D02*
X79756000Y-37401500D01*
X79756000Y-37401500D02*
X79756000Y-37465000D01*
X80543430Y-38262010D02*
X81207238Y-38263277D01*
X79756000Y-37465000D02*
X80543430Y-38262010D01*
X79756000Y-37401500D02*
X80073500Y-37401500D01*
X80645000Y-37846000D02*
X81280000Y-37846000D01*
X81343500Y-36639500D02*
X81026000Y-36957000D01*
X81026000Y-36957000D02*
X80645000Y-36957000D01*
X81343500Y-37084000D02*
X81343500Y-36639500D01*
X115189000Y-55626000D02*
X116459000Y-55626000D01*
X118110000Y-55880000D02*
X116713000Y-55880000D01*
X116713000Y-55880000D02*
X116459000Y-55626000D01*
X118110000Y-60960000D02*
X119126000Y-60960000D01*
X115951000Y-58801000D02*
X115062000Y-58801000D01*
X117602000Y-57150000D02*
X115951000Y-58801000D01*
X118999000Y-57150000D02*
X117602000Y-57150000D01*
X119507000Y-57658000D02*
X118999000Y-57150000D01*
X119507000Y-60579000D02*
X119507000Y-57658000D01*
X119126000Y-60960000D02*
X119507000Y-60579000D01*
X84836000Y-76073000D02*
X85852000Y-76073000D01*
X84836000Y-76073000D02*
X84074000Y-76835000D01*
X84074000Y-76835000D02*
X81248250Y-76835000D01*
X81248250Y-76835000D02*
X80772000Y-77470000D01*
X80772000Y-77978000D02*
X80772000Y-77470000D01*
X118110000Y-58420000D02*
X116586000Y-59817000D01*
X115951000Y-61976000D02*
X115189000Y-61976000D01*
X116586000Y-61341000D02*
X115951000Y-61976000D01*
X116586000Y-59817000D02*
X116586000Y-61341000D01*
X90487500Y-78549500D02*
X89916000Y-77978000D01*
X90932000Y-76073000D02*
X90932000Y-76708000D01*
X92202000Y-76962000D02*
X92964000Y-77724000D01*
X92964000Y-77724000D02*
X92964000Y-80010000D01*
X92964000Y-80010000D02*
X92583000Y-80391000D01*
X92583000Y-80391000D02*
X90868500Y-80391000D01*
X90868500Y-80391000D02*
X90487500Y-80010000D01*
X90487500Y-80010000D02*
X90487500Y-78549500D01*
X91186000Y-76962000D02*
X92202000Y-76962000D01*
X90932000Y-76708000D02*
X91186000Y-76962000D01*
X89916000Y-77978000D02*
X85852000Y-77978000D01*
X85090000Y-76962000D02*
X87884000Y-76962000D01*
X83058000Y-77978000D02*
X84074000Y-77978000D01*
X85090000Y-76962000D02*
X84074000Y-77978000D01*
X88011000Y-76835000D02*
X88011000Y-76073000D01*
X87884000Y-76962000D02*
X88011000Y-76835000D01*
X93091000Y-76073000D02*
X93091000Y-76708000D01*
X93091000Y-76708000D02*
X94234000Y-77851000D01*
X94234000Y-77851000D02*
X94234000Y-78740000D01*
G36*
X78105000Y-74803000D02*
X75819000Y-74803000D01*
X75819000Y-71321395D01*
X75236605Y-70739000D01*
X72001358Y-70739000D01*
X72001466Y-70615347D01*
X72001466Y-70485000D01*
X75354580Y-70485000D01*
X76454000Y-71584420D01*
X76454000Y-72447881D01*
X76351312Y-72490311D01*
X76047379Y-72793714D01*
X75882688Y-73190332D01*
X75882314Y-73619784D01*
X76046311Y-74016688D01*
X76349714Y-74320621D01*
X76746332Y-74485312D01*
X77175784Y-74485686D01*
X77572688Y-74321689D01*
X77876621Y-74018286D01*
X78041312Y-73621668D01*
X78041686Y-73192216D01*
X77877689Y-72795312D01*
X77574286Y-72491379D01*
X77470000Y-72448075D01*
X77470000Y-71374000D01*
X77437746Y-71211849D01*
X77431331Y-71179597D01*
X77431331Y-71179596D01*
X77321210Y-71014790D01*
X75924210Y-69617790D01*
X75759403Y-69507669D01*
X75565000Y-69469000D01*
X71836708Y-69469000D01*
X71836501Y-69468792D01*
X71696518Y-69410666D01*
X71544947Y-69410534D01*
X70544147Y-69410534D01*
X70404063Y-69468416D01*
X70403477Y-69469000D01*
X69956919Y-69469000D01*
X66548000Y-65838868D01*
X66548000Y-61678420D01*
X68790420Y-59436000D01*
X70415881Y-59436000D01*
X70458311Y-59538688D01*
X70761714Y-59842621D01*
X71158332Y-60007312D01*
X71587784Y-60007686D01*
X71984688Y-59843689D01*
X72288621Y-59540286D01*
X72453312Y-59143668D01*
X72453686Y-58714216D01*
X72289689Y-58317312D01*
X71986286Y-58013379D01*
X71589668Y-57848688D01*
X71160216Y-57848314D01*
X70763312Y-58012311D01*
X70459379Y-58315714D01*
X70416075Y-58420000D01*
X68580000Y-58420000D01*
X68385597Y-58458669D01*
X68330910Y-58495209D01*
X68220789Y-58568790D01*
X65680790Y-61108790D01*
X65570669Y-61273597D01*
X65532000Y-61468000D01*
X65532000Y-66040000D01*
X65549807Y-66129526D01*
X65564794Y-66219565D01*
X65569086Y-66226448D01*
X65570669Y-66234403D01*
X65621377Y-66310292D01*
X65669684Y-66387750D01*
X69367384Y-70325401D01*
X69376144Y-70331661D01*
X69379184Y-70336210D01*
X69430372Y-70370413D01*
X69528651Y-70440644D01*
X69539106Y-70443067D01*
X69543991Y-70446331D01*
X69608828Y-70459227D01*
X69721744Y-70485400D01*
X69731903Y-70483708D01*
X69738394Y-70485000D01*
X70238534Y-70485000D01*
X70238534Y-70739000D01*
X69269474Y-70739000D01*
X64389000Y-65608245D01*
X64389000Y-54356000D01*
X73915827Y-54356000D01*
X73916747Y-54419501D01*
X73750518Y-54419357D01*
X73447002Y-54544767D01*
X73214583Y-54776781D01*
X73088643Y-55080077D01*
X73088357Y-55408482D01*
X73152000Y-55562510D01*
X73152000Y-55626000D01*
X72138640Y-55626000D01*
X71986286Y-55473379D01*
X71589668Y-55308688D01*
X71160216Y-55308314D01*
X70763312Y-55472311D01*
X70459379Y-55775714D01*
X70294688Y-56172332D01*
X70294314Y-56601784D01*
X70458311Y-56998688D01*
X70761714Y-57302621D01*
X71158332Y-57467312D01*
X71587784Y-57467686D01*
X71984688Y-57303689D01*
X72138645Y-57150000D01*
X72851395Y-57150000D01*
X72778490Y-57326445D01*
X72778600Y-57616050D01*
X72937350Y-57774800D01*
X73787000Y-57774800D01*
X73787000Y-57754800D01*
X73965084Y-57754800D01*
X73998066Y-60030512D01*
X73787000Y-60241578D01*
X73787000Y-58827650D01*
X73787000Y-58028800D01*
X72937350Y-58028800D01*
X72778600Y-58187550D01*
X72778490Y-58477155D01*
X72874959Y-58710629D01*
X73053432Y-58889413D01*
X73286736Y-58986289D01*
X73539355Y-58986510D01*
X73628250Y-58986400D01*
X73787000Y-58827650D01*
X73787000Y-60241578D01*
X72707610Y-61320969D01*
X72687581Y-61340998D01*
X72548752Y-61340998D01*
X72707500Y-61182250D01*
X72707610Y-60643745D01*
X72611141Y-60410271D01*
X72432668Y-60231487D01*
X72199364Y-60134611D01*
X71946745Y-60134390D01*
X71659750Y-60134500D01*
X71501000Y-60293250D01*
X71501000Y-61341000D01*
X71521000Y-61341000D01*
X71521000Y-61595000D01*
X71501000Y-61595000D01*
X71501000Y-62642750D01*
X71659750Y-62801500D01*
X71946745Y-62801610D01*
X72199364Y-62801389D01*
X72390000Y-62722230D01*
X72390000Y-62865000D01*
X71247000Y-62865000D01*
X71247000Y-62642750D01*
X71247000Y-61595000D01*
X71247000Y-61341000D01*
X71247000Y-60293250D01*
X71088250Y-60134500D01*
X70801255Y-60134390D01*
X70548636Y-60134611D01*
X70315332Y-60231487D01*
X70136859Y-60410271D01*
X70040390Y-60643745D01*
X70040500Y-61182250D01*
X70199250Y-61341000D01*
X71247000Y-61341000D01*
X71247000Y-61595000D01*
X70199250Y-61595000D01*
X70040500Y-61753750D01*
X70040390Y-62292255D01*
X70136859Y-62525729D01*
X70315332Y-62704513D01*
X70548636Y-62801389D01*
X70801255Y-62801610D01*
X71088250Y-62801500D01*
X71247000Y-62642750D01*
X71247000Y-62865000D01*
X67437000Y-62865000D01*
X67437000Y-66471800D01*
X70049571Y-69215000D01*
X76018257Y-69215000D01*
X78105000Y-71424492D01*
X78105000Y-74803000D01*
X78105000Y-74803000D01*
G37*
X78105000Y-74803000D02*
X75819000Y-74803000D01*
X75819000Y-71321395D01*
X75236605Y-70739000D01*
X72001358Y-70739000D01*
X72001466Y-70615347D01*
X72001466Y-70485000D01*
X75354580Y-70485000D01*
X76454000Y-71584420D01*
X76454000Y-72447881D01*
X76351312Y-72490311D01*
X76047379Y-72793714D01*
X75882688Y-73190332D01*
X75882314Y-73619784D01*
X76046311Y-74016688D01*
X76349714Y-74320621D01*
X76746332Y-74485312D01*
X77175784Y-74485686D01*
X77572688Y-74321689D01*
X77876621Y-74018286D01*
X78041312Y-73621668D01*
X78041686Y-73192216D01*
X77877689Y-72795312D01*
X77574286Y-72491379D01*
X77470000Y-72448075D01*
X77470000Y-71374000D01*
X77437746Y-71211849D01*
X77431331Y-71179597D01*
X77431331Y-71179596D01*
X77321210Y-71014790D01*
X75924210Y-69617790D01*
X75759403Y-69507669D01*
X75565000Y-69469000D01*
X71836708Y-69469000D01*
X71836501Y-69468792D01*
X71696518Y-69410666D01*
X71544947Y-69410534D01*
X70544147Y-69410534D01*
X70404063Y-69468416D01*
X70403477Y-69469000D01*
X69956919Y-69469000D01*
X66548000Y-65838868D01*
X66548000Y-61678420D01*
X68790420Y-59436000D01*
X70415881Y-59436000D01*
X70458311Y-59538688D01*
X70761714Y-59842621D01*
X71158332Y-60007312D01*
X71587784Y-60007686D01*
X71984688Y-59843689D01*
X72288621Y-59540286D01*
X72453312Y-59143668D01*
X72453686Y-58714216D01*
X72289689Y-58317312D01*
X71986286Y-58013379D01*
X71589668Y-57848688D01*
X71160216Y-57848314D01*
X70763312Y-58012311D01*
X70459379Y-58315714D01*
X70416075Y-58420000D01*
X68580000Y-58420000D01*
X68385597Y-58458669D01*
X68330910Y-58495209D01*
X68220789Y-58568790D01*
X65680790Y-61108790D01*
X65570669Y-61273597D01*
X65532000Y-61468000D01*
X65532000Y-66040000D01*
X65549807Y-66129526D01*
X65564794Y-66219565D01*
X65569086Y-66226448D01*
X65570669Y-66234403D01*
X65621377Y-66310292D01*
X65669684Y-66387750D01*
X69367384Y-70325401D01*
X69376144Y-70331661D01*
X69379184Y-70336210D01*
X69430372Y-70370413D01*
X69528651Y-70440644D01*
X69539106Y-70443067D01*
X69543991Y-70446331D01*
X69608828Y-70459227D01*
X69721744Y-70485400D01*
X69731903Y-70483708D01*
X69738394Y-70485000D01*
X70238534Y-70485000D01*
X70238534Y-70739000D01*
X69269474Y-70739000D01*
X64389000Y-65608245D01*
X64389000Y-54356000D01*
X73915827Y-54356000D01*
X73916747Y-54419501D01*
X73750518Y-54419357D01*
X73447002Y-54544767D01*
X73214583Y-54776781D01*
X73088643Y-55080077D01*
X73088357Y-55408482D01*
X73152000Y-55562510D01*
X73152000Y-55626000D01*
X72138640Y-55626000D01*
X71986286Y-55473379D01*
X71589668Y-55308688D01*
X71160216Y-55308314D01*
X70763312Y-55472311D01*
X70459379Y-55775714D01*
X70294688Y-56172332D01*
X70294314Y-56601784D01*
X70458311Y-56998688D01*
X70761714Y-57302621D01*
X71158332Y-57467312D01*
X71587784Y-57467686D01*
X71984688Y-57303689D01*
X72138645Y-57150000D01*
X72851395Y-57150000D01*
X72778490Y-57326445D01*
X72778600Y-57616050D01*
X72937350Y-57774800D01*
X73787000Y-57774800D01*
X73787000Y-57754800D01*
X73965084Y-57754800D01*
X73998066Y-60030512D01*
X73787000Y-60241578D01*
X73787000Y-58827650D01*
X73787000Y-58028800D01*
X72937350Y-58028800D01*
X72778600Y-58187550D01*
X72778490Y-58477155D01*
X72874959Y-58710629D01*
X73053432Y-58889413D01*
X73286736Y-58986289D01*
X73539355Y-58986510D01*
X73628250Y-58986400D01*
X73787000Y-58827650D01*
X73787000Y-60241578D01*
X72707610Y-61320969D01*
X72687581Y-61340998D01*
X72548752Y-61340998D01*
X72707500Y-61182250D01*
X72707610Y-60643745D01*
X72611141Y-60410271D01*
X72432668Y-60231487D01*
X72199364Y-60134611D01*
X71946745Y-60134390D01*
X71659750Y-60134500D01*
X71501000Y-60293250D01*
X71501000Y-61341000D01*
X71521000Y-61341000D01*
X71521000Y-61595000D01*
X71501000Y-61595000D01*
X71501000Y-62642750D01*
X71659750Y-62801500D01*
X71946745Y-62801610D01*
X72199364Y-62801389D01*
X72390000Y-62722230D01*
X72390000Y-62865000D01*
X71247000Y-62865000D01*
X71247000Y-62642750D01*
X71247000Y-61595000D01*
X71247000Y-61341000D01*
X71247000Y-60293250D01*
X71088250Y-60134500D01*
X70801255Y-60134390D01*
X70548636Y-60134611D01*
X70315332Y-60231487D01*
X70136859Y-60410271D01*
X70040390Y-60643745D01*
X70040500Y-61182250D01*
X70199250Y-61341000D01*
X71247000Y-61341000D01*
X71247000Y-61595000D01*
X70199250Y-61595000D01*
X70040500Y-61753750D01*
X70040390Y-62292255D01*
X70136859Y-62525729D01*
X70315332Y-62704513D01*
X70548636Y-62801389D01*
X70801255Y-62801610D01*
X71088250Y-62801500D01*
X71247000Y-62642750D01*
X71247000Y-62865000D01*
X67437000Y-62865000D01*
X67437000Y-66471800D01*
X70049571Y-69215000D01*
X76018257Y-69215000D01*
X78105000Y-71424492D01*
X78105000Y-74803000D01*
G36*
X125095000Y-61849000D02*
X119761000Y-61849000D01*
X119761000Y-61043420D01*
X119866210Y-60938211D01*
X119866210Y-60938210D01*
X119976331Y-60773404D01*
X119976331Y-60773403D01*
X119982746Y-60741150D01*
X120014999Y-60579000D01*
X120015000Y-60579000D01*
X120015000Y-57658000D01*
X119976331Y-57463597D01*
X119976330Y-57463596D01*
X119939790Y-57408910D01*
X119866210Y-57298790D01*
X119866210Y-57298789D01*
X119761000Y-57193579D01*
X119761000Y-41910000D01*
X116967000Y-41910000D01*
X116967000Y-41148000D01*
X118999000Y-41148000D01*
X118999000Y-34798000D01*
X116858640Y-34798000D01*
X115588640Y-34417000D01*
X112903000Y-34417000D01*
X112903000Y-33655000D01*
X125095000Y-33655000D01*
X125095000Y-34477194D01*
X123063000Y-35874194D01*
X123063000Y-39935629D01*
X125095000Y-41713629D01*
X125095000Y-61849000D01*
X125095000Y-61849000D01*
G37*
X125095000Y-61849000D02*
X119761000Y-61849000D01*
X119761000Y-61043420D01*
X119866210Y-60938211D01*
X119866210Y-60938210D01*
X119976331Y-60773404D01*
X119976331Y-60773403D01*
X119982746Y-60741150D01*
X120014999Y-60579000D01*
X120015000Y-60579000D01*
X120015000Y-57658000D01*
X119976331Y-57463597D01*
X119976330Y-57463596D01*
X119939790Y-57408910D01*
X119866210Y-57298790D01*
X119866210Y-57298789D01*
X119761000Y-57193579D01*
X119761000Y-41910000D01*
X116967000Y-41910000D01*
X116967000Y-41148000D01*
X118999000Y-41148000D01*
X118999000Y-34798000D01*
X116858640Y-34798000D01*
X115588640Y-34417000D01*
X112903000Y-34417000D01*
X112903000Y-33655000D01*
X125095000Y-33655000D01*
X125095000Y-34477194D01*
X123063000Y-35874194D01*
X123063000Y-39935629D01*
X125095000Y-41713629D01*
X125095000Y-61849000D01*
G36*
X76835000Y-40959370D02*
X75884370Y-41910000D01*
X71247000Y-41910000D01*
X71247000Y-41275000D01*
X64389000Y-41275000D01*
X64389000Y-33655000D01*
X64643000Y-33655000D01*
X64643000Y-35560000D01*
X66802000Y-35560000D01*
X68326000Y-35560000D01*
X70739000Y-35560000D01*
X70739000Y-33655000D01*
X72669400Y-33655000D01*
X72669400Y-35560000D01*
X75311000Y-35560000D01*
X75311000Y-35400230D01*
X75412399Y-35501808D01*
X75552382Y-35559934D01*
X75703953Y-35560066D01*
X76835000Y-35560066D01*
X76835000Y-37464934D01*
X75553047Y-37464934D01*
X75552887Y-37465000D01*
X72898000Y-37465000D01*
X72898000Y-39624000D01*
X75628167Y-39624000D01*
X75703953Y-39624066D01*
X76835000Y-39624066D01*
X76835000Y-40959370D01*
X76835000Y-40959370D01*
G37*
X76835000Y-40959370D02*
X75884370Y-41910000D01*
X71247000Y-41910000D01*
X71247000Y-41275000D01*
X64389000Y-41275000D01*
X64389000Y-33655000D01*
X64643000Y-33655000D01*
X64643000Y-35560000D01*
X66802000Y-35560000D01*
X68326000Y-35560000D01*
X70739000Y-35560000D01*
X70739000Y-33655000D01*
X72669400Y-33655000D01*
X72669400Y-35560000D01*
X75311000Y-35560000D01*
X75311000Y-35400230D01*
X75412399Y-35501808D01*
X75552382Y-35559934D01*
X75703953Y-35560066D01*
X76835000Y-35560066D01*
X76835000Y-37464934D01*
X75553047Y-37464934D01*
X75552887Y-37465000D01*
X72898000Y-37465000D01*
X72898000Y-39624000D01*
X75628167Y-39624000D01*
X75703953Y-39624066D01*
X76835000Y-39624066D01*
X76835000Y-40959370D01*
G36*
X87503000Y-34863369D02*
X86679369Y-35687000D01*
X81229325Y-35687000D01*
X81292810Y-35533355D01*
X81292700Y-35020250D01*
X81133950Y-34861500D01*
X80010000Y-34861500D01*
X80010000Y-34881500D01*
X79502000Y-34881500D01*
X79502000Y-34861500D01*
X78378050Y-34861500D01*
X78219300Y-35020250D01*
X78219190Y-35533355D01*
X78282674Y-35687000D01*
X77597000Y-35687000D01*
X77597000Y-33655000D01*
X78230199Y-33655000D01*
X78219190Y-33681645D01*
X78219300Y-34194750D01*
X78378050Y-34353500D01*
X79502000Y-34353500D01*
X79502000Y-34333500D01*
X80010000Y-34333500D01*
X80010000Y-34353500D01*
X81133950Y-34353500D01*
X81292700Y-34194750D01*
X81292810Y-33681645D01*
X81281800Y-33655000D01*
X87503000Y-33655000D01*
X87503000Y-34863369D01*
X87503000Y-34863369D01*
G37*
X87503000Y-34863369D02*
X86679369Y-35687000D01*
X81229325Y-35687000D01*
X81292810Y-35533355D01*
X81292700Y-35020250D01*
X81133950Y-34861500D01*
X80010000Y-34861500D01*
X80010000Y-34881500D01*
X79502000Y-34881500D01*
X79502000Y-34861500D01*
X78378050Y-34861500D01*
X78219300Y-35020250D01*
X78219190Y-35533355D01*
X78282674Y-35687000D01*
X77597000Y-35687000D01*
X77597000Y-33655000D01*
X78230199Y-33655000D01*
X78219190Y-33681645D01*
X78219300Y-34194750D01*
X78378050Y-34353500D01*
X79502000Y-34353500D01*
X79502000Y-34333500D01*
X80010000Y-34333500D01*
X80010000Y-34353500D01*
X81133950Y-34353500D01*
X81292700Y-34194750D01*
X81292810Y-33681645D01*
X81281800Y-33655000D01*
X87503000Y-33655000D01*
X87503000Y-34863369D01*
G36*
X83250369Y-36322000D02*
X81292799Y-38279569D01*
X81292700Y-37814250D01*
X81133950Y-37655500D01*
X80010000Y-37655500D01*
X80010000Y-38677850D01*
X80168750Y-38836600D01*
X80531945Y-38836710D01*
X80735838Y-38836531D01*
X80710369Y-38862000D01*
X79502000Y-38862000D01*
X79502000Y-38677850D01*
X79502000Y-37655500D01*
X78378050Y-37655500D01*
X78219300Y-37814250D01*
X78219190Y-38327355D01*
X78315659Y-38560829D01*
X78494132Y-38739613D01*
X78727436Y-38836489D01*
X78980055Y-38836710D01*
X79343250Y-38836600D01*
X79502000Y-38677850D01*
X79502000Y-38862000D01*
X79248000Y-38862000D01*
X77597000Y-38862000D01*
X77597000Y-38195250D01*
X77660500Y-38131750D01*
X77660610Y-37971755D01*
X77660389Y-37719136D01*
X77597000Y-37566477D01*
X77597000Y-36322000D01*
X78282674Y-36322000D01*
X78219190Y-36475645D01*
X78219300Y-36988750D01*
X78378050Y-37147500D01*
X79502000Y-37147500D01*
X79502000Y-37127500D01*
X80010000Y-37127500D01*
X80010000Y-37147500D01*
X81133950Y-37147500D01*
X81292700Y-36988750D01*
X81292810Y-36475645D01*
X81229325Y-36322000D01*
X83250369Y-36322000D01*
X83250369Y-36322000D01*
G37*
X83250369Y-36322000D02*
X81292799Y-38279569D01*
X81292700Y-37814250D01*
X81133950Y-37655500D01*
X80010000Y-37655500D01*
X80010000Y-38677850D01*
X80168750Y-38836600D01*
X80531945Y-38836710D01*
X80735838Y-38836531D01*
X80710369Y-38862000D01*
X79502000Y-38862000D01*
X79502000Y-38677850D01*
X79502000Y-37655500D01*
X78378050Y-37655500D01*
X78219300Y-37814250D01*
X78219190Y-38327355D01*
X78315659Y-38560829D01*
X78494132Y-38739613D01*
X78727436Y-38836489D01*
X78980055Y-38836710D01*
X79343250Y-38836600D01*
X79502000Y-38677850D01*
X79502000Y-38862000D01*
X79248000Y-38862000D01*
X77597000Y-38862000D01*
X77597000Y-38195250D01*
X77660500Y-38131750D01*
X77660610Y-37971755D01*
X77660389Y-37719136D01*
X77597000Y-37566477D01*
X77597000Y-36322000D01*
X78282674Y-36322000D01*
X78219190Y-36475645D01*
X78219300Y-36988750D01*
X78378050Y-37147500D01*
X79502000Y-37147500D01*
X79502000Y-37127500D01*
X80010000Y-37127500D01*
X80010000Y-37147500D01*
X81133950Y-37147500D01*
X81292700Y-36988750D01*
X81292810Y-36475645D01*
X81229325Y-36322000D01*
X83250369Y-36322000D01*
M02*
