G04 #@! TF.FileFunction,Legend,Top*
%FSLAX46Y46*%
G04 Gerber Fmt 4.6, Leading zero omitted, Abs format (unit mm)*
G04 Created by KiCad (PCBNEW 4.0.5) date 05/03/17 10:24:09*
%MOMM*%
%LPD*%
G01*
G04 APERTURE LIST*
%ADD10C,0.150000*%
%ADD11C,0.254000*%
%ADD12C,0.300000*%
%ADD13C,0.508000*%
%ADD14C,0.203200*%
%ADD15C,0.127000*%
%ADD16C,0.165100*%
%ADD17C,0.152400*%
%ADD18C,0.157480*%
%ADD19C,0.149860*%
%ADD20C,0.304800*%
%ADD21C,0.066000*%
%ADD22C,0.198100*%
%ADD23C,0.635000*%
%ADD24C,0.317500*%
%ADD25C,0.002540*%
%ADD26C,0.010000*%
%ADD27C,0.101600*%
%ADD28C,0.190500*%
%ADD29O,1.651000X0.635000*%
%ADD30R,0.635000X1.270000*%
%ADD31R,1.143000X0.635000*%
%ADD32R,1.397000X1.397000*%
%ADD33C,1.397000*%
%ADD34O,3.048000X1.574800*%
%ADD35O,3.048000X1.600200*%
%ADD36R,5.613400X2.311400*%
%ADD37C,4.826000*%
%ADD38C,5.080000*%
%ADD39C,2.514600*%
%ADD40C,2.006600*%
%ADD41C,2.997200*%
%ADD42C,7.620000*%
%ADD43R,3.599200X1.600200*%
%ADD44R,1.000800X0.899200*%
%ADD45R,1.597700X0.998200*%
%ADD46R,6.197600X5.397500*%
%ADD47R,1.300480X1.498600*%
%ADD48R,0.998200X1.597700*%
%ADD49R,5.397500X6.197600*%
%ADD50R,1.803400X1.600200*%
G04 APERTURE END LIST*
D10*
D11*
X127254000Y-31750000D02*
X127889000Y-31750000D01*
X62484000Y-82931000D02*
X62484000Y-82296000D01*
X62484000Y-83439000D02*
X62484000Y-84074000D01*
X62230000Y-83185000D02*
X61595000Y-83185000D01*
X62738000Y-83185000D02*
X63373000Y-83185000D01*
X127000000Y-83439000D02*
X127000000Y-84074000D01*
X126746000Y-83185000D02*
X126111000Y-83185000D01*
X127000000Y-82931000D02*
X127000000Y-82296000D01*
X127254000Y-83185000D02*
X127889000Y-83185000D01*
X127000000Y-32004000D02*
X127000000Y-32639000D01*
X126746000Y-31750000D02*
X126111000Y-31750000D01*
X127254000Y-31750000D02*
X127889000Y-31750000D01*
X127000000Y-31496000D02*
X127000000Y-30861000D01*
D12*
X84769857Y-96412857D02*
X84269857Y-96412857D01*
X84269857Y-97198571D02*
X84269857Y-95698571D01*
X84984143Y-95698571D01*
X86412714Y-97198571D02*
X85912714Y-96484286D01*
X85555571Y-97198571D02*
X85555571Y-95698571D01*
X86126999Y-95698571D01*
X86269857Y-95770000D01*
X86341285Y-95841429D01*
X86412714Y-95984286D01*
X86412714Y-96198571D01*
X86341285Y-96341429D01*
X86269857Y-96412857D01*
X86126999Y-96484286D01*
X85555571Y-96484286D01*
X87341285Y-95698571D02*
X87626999Y-95698571D01*
X87769857Y-95770000D01*
X87912714Y-95912857D01*
X87984142Y-96198571D01*
X87984142Y-96698571D01*
X87912714Y-96984286D01*
X87769857Y-97127143D01*
X87626999Y-97198571D01*
X87341285Y-97198571D01*
X87198428Y-97127143D01*
X87055571Y-96984286D01*
X86984142Y-96698571D01*
X86984142Y-96198571D01*
X87055571Y-95912857D01*
X87198428Y-95770000D01*
X87341285Y-95698571D01*
X88627000Y-97198571D02*
X88627000Y-95698571D01*
X89484143Y-97198571D01*
X89484143Y-95698571D01*
X89984143Y-95698571D02*
X90841286Y-95698571D01*
X90412715Y-97198571D02*
X90412715Y-95698571D01*
X92412714Y-97127143D02*
X92627000Y-97198571D01*
X92984143Y-97198571D01*
X93127000Y-97127143D01*
X93198429Y-97055714D01*
X93269857Y-96912857D01*
X93269857Y-96770000D01*
X93198429Y-96627143D01*
X93127000Y-96555714D01*
X92984143Y-96484286D01*
X92698429Y-96412857D01*
X92555571Y-96341429D01*
X92484143Y-96270000D01*
X92412714Y-96127143D01*
X92412714Y-95984286D01*
X92484143Y-95841429D01*
X92555571Y-95770000D01*
X92698429Y-95698571D01*
X93055571Y-95698571D01*
X93269857Y-95770000D01*
X93912714Y-97198571D02*
X93912714Y-95698571D01*
X95341286Y-97198571D02*
X94627000Y-97198571D01*
X94627000Y-95698571D01*
X95841286Y-97198571D02*
X95841286Y-95698571D01*
X96698429Y-97198571D02*
X96055572Y-96341429D01*
X96698429Y-95698571D02*
X95841286Y-96555714D01*
X98412714Y-97127143D02*
X98627000Y-97198571D01*
X98984143Y-97198571D01*
X99127000Y-97127143D01*
X99198429Y-97055714D01*
X99269857Y-96912857D01*
X99269857Y-96770000D01*
X99198429Y-96627143D01*
X99127000Y-96555714D01*
X98984143Y-96484286D01*
X98698429Y-96412857D01*
X98555571Y-96341429D01*
X98484143Y-96270000D01*
X98412714Y-96127143D01*
X98412714Y-95984286D01*
X98484143Y-95841429D01*
X98555571Y-95770000D01*
X98698429Y-95698571D01*
X99055571Y-95698571D01*
X99269857Y-95770000D01*
X100769857Y-97055714D02*
X100698428Y-97127143D01*
X100484142Y-97198571D01*
X100341285Y-97198571D01*
X100127000Y-97127143D01*
X99984142Y-96984286D01*
X99912714Y-96841429D01*
X99841285Y-96555714D01*
X99841285Y-96341429D01*
X99912714Y-96055714D01*
X99984142Y-95912857D01*
X100127000Y-95770000D01*
X100341285Y-95698571D01*
X100484142Y-95698571D01*
X100698428Y-95770000D01*
X100769857Y-95841429D01*
X102269857Y-97198571D02*
X101769857Y-96484286D01*
X101412714Y-97198571D02*
X101412714Y-95698571D01*
X101984142Y-95698571D01*
X102127000Y-95770000D01*
X102198428Y-95841429D01*
X102269857Y-95984286D01*
X102269857Y-96198571D01*
X102198428Y-96341429D01*
X102127000Y-96412857D01*
X101984142Y-96484286D01*
X101412714Y-96484286D01*
X102912714Y-96412857D02*
X103412714Y-96412857D01*
X103627000Y-97198571D02*
X102912714Y-97198571D01*
X102912714Y-95698571D01*
X103627000Y-95698571D01*
X104269857Y-96412857D02*
X104769857Y-96412857D01*
X104984143Y-97198571D02*
X104269857Y-97198571D01*
X104269857Y-95698571D01*
X104984143Y-95698571D01*
X105627000Y-97198571D02*
X105627000Y-95698571D01*
X106484143Y-97198571D01*
X106484143Y-95698571D01*
D13*
X90398601Y-78729114D02*
X90495362Y-78825876D01*
X90398601Y-78922638D01*
X90301839Y-78825876D01*
X90398601Y-78729114D01*
X90398601Y-78922638D01*
X73202801Y-61457114D02*
X73299562Y-61553876D01*
X73202801Y-61650638D01*
X73106039Y-61553876D01*
X73202801Y-61457114D01*
X73202801Y-61650638D01*
X116306601Y-43194514D02*
X116403362Y-43291276D01*
X116306601Y-43388038D01*
X116209839Y-43291276D01*
X116306601Y-43194514D01*
X116306601Y-43388038D01*
X116306601Y-50789114D02*
X116403362Y-50885876D01*
X116306601Y-50982638D01*
X116209839Y-50885876D01*
X116306601Y-50789114D01*
X116306601Y-50982638D01*
X116306601Y-63666914D02*
X116403362Y-63763676D01*
X116306601Y-63860438D01*
X116209839Y-63763676D01*
X116306601Y-63666914D01*
X116306601Y-63860438D01*
D12*
X91107381Y-81600524D02*
X91107381Y-80330524D01*
X91409762Y-80330524D01*
X91591190Y-80391000D01*
X91712143Y-80511952D01*
X91772619Y-80632905D01*
X91833095Y-80874810D01*
X91833095Y-81056238D01*
X91772619Y-81298143D01*
X91712143Y-81419095D01*
X91591190Y-81540048D01*
X91409762Y-81600524D01*
X91107381Y-81600524D01*
X86245095Y-81479571D02*
X86184619Y-81540048D01*
X86003190Y-81600524D01*
X85882238Y-81600524D01*
X85700810Y-81540048D01*
X85579857Y-81419095D01*
X85519381Y-81298143D01*
X85458905Y-81056238D01*
X85458905Y-80874810D01*
X85519381Y-80632905D01*
X85579857Y-80511952D01*
X85700810Y-80391000D01*
X85882238Y-80330524D01*
X86003190Y-80330524D01*
X86184619Y-80391000D01*
X86245095Y-80451476D01*
X83529714Y-80935286D02*
X83711143Y-80995762D01*
X83771619Y-81056238D01*
X83832095Y-81177190D01*
X83832095Y-81358619D01*
X83771619Y-81479571D01*
X83711143Y-81540048D01*
X83590190Y-81600524D01*
X83106381Y-81600524D01*
X83106381Y-80330524D01*
X83529714Y-80330524D01*
X83650667Y-80391000D01*
X83711143Y-80451476D01*
X83771619Y-80572429D01*
X83771619Y-80693381D01*
X83711143Y-80814333D01*
X83650667Y-80874810D01*
X83529714Y-80935286D01*
X83106381Y-80935286D01*
X80469620Y-81237667D02*
X81074382Y-81237667D01*
X80348667Y-81600524D02*
X80772001Y-80330524D01*
X81195334Y-81600524D01*
D14*
X97647620Y-79159100D02*
X97964287Y-79159100D01*
X98100001Y-79717900D02*
X97647620Y-79717900D01*
X97647620Y-78651100D01*
X98100001Y-78651100D01*
X98642859Y-79717900D02*
X98552383Y-79667100D01*
X98507144Y-79565500D01*
X98507144Y-78651100D01*
X99366668Y-79667100D02*
X99276192Y-79717900D01*
X99095240Y-79717900D01*
X99004763Y-79667100D01*
X98959525Y-79565500D01*
X98959525Y-79159100D01*
X99004763Y-79057500D01*
X99095240Y-79006700D01*
X99276192Y-79006700D01*
X99366668Y-79057500D01*
X99411906Y-79159100D01*
X99411906Y-79260700D01*
X98959525Y-79362300D01*
X100226192Y-79667100D02*
X100135716Y-79717900D01*
X99954764Y-79717900D01*
X99864288Y-79667100D01*
X99819049Y-79616300D01*
X99773811Y-79514700D01*
X99773811Y-79209900D01*
X99819049Y-79108300D01*
X99864288Y-79057500D01*
X99954764Y-79006700D01*
X100135716Y-79006700D01*
X100226192Y-79057500D01*
X100497621Y-79006700D02*
X100859526Y-79006700D01*
X100633335Y-78651100D02*
X100633335Y-79565500D01*
X100678574Y-79667100D01*
X100769050Y-79717900D01*
X100859526Y-79717900D01*
X101176192Y-79717900D02*
X101176192Y-79006700D01*
X101176192Y-79209900D02*
X101221431Y-79108300D01*
X101266669Y-79057500D01*
X101357145Y-79006700D01*
X101447621Y-79006700D01*
X101764287Y-79717900D02*
X101764287Y-79006700D01*
X101764287Y-78651100D02*
X101719049Y-78701900D01*
X101764287Y-78752700D01*
X101809526Y-78701900D01*
X101764287Y-78651100D01*
X101764287Y-78752700D01*
X102623811Y-79667100D02*
X102533335Y-79717900D01*
X102352383Y-79717900D01*
X102261907Y-79667100D01*
X102216668Y-79616300D01*
X102171430Y-79514700D01*
X102171430Y-79209900D01*
X102216668Y-79108300D01*
X102261907Y-79057500D01*
X102352383Y-79006700D01*
X102533335Y-79006700D01*
X102623811Y-79057500D01*
X103754764Y-79159100D02*
X104071431Y-79159100D01*
X104207145Y-79717900D02*
X103754764Y-79717900D01*
X103754764Y-78651100D01*
X104207145Y-78651100D01*
X104976193Y-79667100D02*
X104885717Y-79717900D01*
X104704765Y-79717900D01*
X104614288Y-79667100D01*
X104569050Y-79565500D01*
X104569050Y-79159100D01*
X104614288Y-79057500D01*
X104704765Y-79006700D01*
X104885717Y-79006700D01*
X104976193Y-79057500D01*
X105021431Y-79159100D01*
X105021431Y-79260700D01*
X104569050Y-79362300D01*
X105564289Y-79717900D02*
X105473813Y-79667100D01*
X105428574Y-79565500D01*
X105428574Y-78651100D01*
X106559527Y-78651100D02*
X106785718Y-79717900D01*
X106966670Y-78955900D01*
X107147623Y-79717900D01*
X107373813Y-78651100D01*
X107735717Y-79717900D02*
X107735717Y-78651100D01*
X108142860Y-79717900D02*
X108142860Y-79159100D01*
X108097622Y-79057500D01*
X108007146Y-79006700D01*
X107871432Y-79006700D01*
X107780956Y-79057500D01*
X107735717Y-79108300D01*
X108957146Y-79667100D02*
X108866670Y-79717900D01*
X108685718Y-79717900D01*
X108595241Y-79667100D01*
X108550003Y-79565500D01*
X108550003Y-79159100D01*
X108595241Y-79057500D01*
X108685718Y-79006700D01*
X108866670Y-79006700D01*
X108957146Y-79057500D01*
X109002384Y-79159100D01*
X109002384Y-79260700D01*
X108550003Y-79362300D01*
X109771432Y-79667100D02*
X109680956Y-79717900D01*
X109500004Y-79717900D01*
X109409527Y-79667100D01*
X109364289Y-79565500D01*
X109364289Y-79159100D01*
X109409527Y-79057500D01*
X109500004Y-79006700D01*
X109680956Y-79006700D01*
X109771432Y-79057500D01*
X109816670Y-79159100D01*
X109816670Y-79260700D01*
X109364289Y-79362300D01*
X110359528Y-79717900D02*
X110269052Y-79667100D01*
X110223813Y-79565500D01*
X110223813Y-78651100D01*
X111897623Y-78651100D02*
X111445242Y-78651100D01*
X111400004Y-79159100D01*
X111445242Y-79108300D01*
X111535719Y-79057500D01*
X111761909Y-79057500D01*
X111852385Y-79108300D01*
X111897623Y-79159100D01*
X111942862Y-79260700D01*
X111942862Y-79514700D01*
X111897623Y-79616300D01*
X111852385Y-79667100D01*
X111761909Y-79717900D01*
X111535719Y-79717900D01*
X111445242Y-79667100D01*
X111400004Y-79616300D01*
X95340476Y-80454500D02*
X95657143Y-81521300D01*
X95973810Y-80454500D01*
X96652381Y-81470500D02*
X96561905Y-81521300D01*
X96380953Y-81521300D01*
X96290476Y-81470500D01*
X96245238Y-81368900D01*
X96245238Y-80962500D01*
X96290476Y-80860900D01*
X96380953Y-80810100D01*
X96561905Y-80810100D01*
X96652381Y-80860900D01*
X96697619Y-80962500D01*
X96697619Y-81064100D01*
X96245238Y-81165700D01*
X97104762Y-81521300D02*
X97104762Y-80810100D01*
X97104762Y-81013300D02*
X97150001Y-80911700D01*
X97195239Y-80860900D01*
X97285715Y-80810100D01*
X97376191Y-80810100D01*
X97647619Y-81470500D02*
X97738096Y-81521300D01*
X97919048Y-81521300D01*
X98009524Y-81470500D01*
X98054762Y-81368900D01*
X98054762Y-81318100D01*
X98009524Y-81216500D01*
X97919048Y-81165700D01*
X97783334Y-81165700D01*
X97692857Y-81114900D01*
X97647619Y-81013300D01*
X97647619Y-80962500D01*
X97692857Y-80860900D01*
X97783334Y-80810100D01*
X97919048Y-80810100D01*
X98009524Y-80860900D01*
X98461905Y-81521300D02*
X98461905Y-80810100D01*
X98461905Y-80454500D02*
X98416667Y-80505300D01*
X98461905Y-80556100D01*
X98507144Y-80505300D01*
X98461905Y-80454500D01*
X98461905Y-80556100D01*
X99050001Y-81521300D02*
X98959525Y-81470500D01*
X98914286Y-81419700D01*
X98869048Y-81318100D01*
X98869048Y-81013300D01*
X98914286Y-80911700D01*
X98959525Y-80860900D01*
X99050001Y-80810100D01*
X99185715Y-80810100D01*
X99276191Y-80860900D01*
X99321429Y-80911700D01*
X99366667Y-81013300D01*
X99366667Y-81318100D01*
X99321429Y-81419700D01*
X99276191Y-81470500D01*
X99185715Y-81521300D01*
X99050001Y-81521300D01*
X99773810Y-80810100D02*
X99773810Y-81521300D01*
X99773810Y-80911700D02*
X99819049Y-80860900D01*
X99909525Y-80810100D01*
X100045239Y-80810100D01*
X100135715Y-80860900D01*
X100180953Y-80962500D01*
X100180953Y-81521300D01*
X101854764Y-81521300D02*
X101311906Y-81521300D01*
X101583335Y-81521300D02*
X101583335Y-80454500D01*
X101492859Y-80606900D01*
X101402383Y-80708500D01*
X101311906Y-80759300D01*
X102985716Y-81114900D02*
X103709526Y-81114900D01*
X104885716Y-81521300D02*
X104885716Y-80454500D01*
X105202383Y-81216500D01*
X105519050Y-80454500D01*
X105519050Y-81521300D01*
X106378573Y-81521300D02*
X106378573Y-80962500D01*
X106333335Y-80860900D01*
X106242859Y-80810100D01*
X106061907Y-80810100D01*
X105971430Y-80860900D01*
X106378573Y-81470500D02*
X106288097Y-81521300D01*
X106061907Y-81521300D01*
X105971430Y-81470500D01*
X105926192Y-81368900D01*
X105926192Y-81267300D01*
X105971430Y-81165700D01*
X106061907Y-81114900D01*
X106288097Y-81114900D01*
X106378573Y-81064100D01*
X106740478Y-80810100D02*
X106966669Y-81521300D01*
X107192859Y-80810100D02*
X106966669Y-81521300D01*
X106876193Y-81775300D01*
X106830954Y-81826100D01*
X106740478Y-81876900D01*
X108188098Y-80454500D02*
X108776194Y-80454500D01*
X108459527Y-80860900D01*
X108595241Y-80860900D01*
X108685717Y-80911700D01*
X108730955Y-80962500D01*
X108776194Y-81064100D01*
X108776194Y-81318100D01*
X108730955Y-81419700D01*
X108685717Y-81470500D01*
X108595241Y-81521300D01*
X108323813Y-81521300D01*
X108233336Y-81470500D01*
X108188098Y-81419700D01*
X109228575Y-81470500D02*
X109228575Y-81521300D01*
X109183336Y-81622900D01*
X109138098Y-81673700D01*
X110314289Y-80556100D02*
X110359527Y-80505300D01*
X110450004Y-80454500D01*
X110676194Y-80454500D01*
X110766670Y-80505300D01*
X110811908Y-80556100D01*
X110857147Y-80657700D01*
X110857147Y-80759300D01*
X110811908Y-80911700D01*
X110269051Y-81521300D01*
X110857147Y-81521300D01*
X111445242Y-80454500D02*
X111535718Y-80454500D01*
X111626194Y-80505300D01*
X111671432Y-80556100D01*
X111716670Y-80657700D01*
X111761909Y-80860900D01*
X111761909Y-81114900D01*
X111716670Y-81318100D01*
X111671432Y-81419700D01*
X111626194Y-81470500D01*
X111535718Y-81521300D01*
X111445242Y-81521300D01*
X111354766Y-81470500D01*
X111309528Y-81419700D01*
X111264289Y-81318100D01*
X111219051Y-81114900D01*
X111219051Y-80860900D01*
X111264289Y-80657700D01*
X111309528Y-80556100D01*
X111354766Y-80505300D01*
X111445242Y-80454500D01*
X112666671Y-81521300D02*
X112123813Y-81521300D01*
X112395242Y-81521300D02*
X112395242Y-80454500D01*
X112304766Y-80606900D01*
X112214290Y-80708500D01*
X112123813Y-80759300D01*
X112983337Y-80454500D02*
X113616671Y-80454500D01*
X113209528Y-81521300D01*
D15*
X122470334Y-64452500D02*
X123147667Y-64452500D01*
X122809000Y-64791167D02*
X122809000Y-64113833D01*
X122470334Y-70294500D02*
X123147667Y-70294500D01*
X122809000Y-70633167D02*
X122809000Y-69955833D01*
X122470334Y-68135500D02*
X123147667Y-68135500D01*
X122470334Y-66611500D02*
X123147667Y-66611500D01*
D16*
X64479714Y-59390643D02*
X64643000Y-59445071D01*
X64915143Y-59445071D01*
X65024000Y-59390643D01*
X65078429Y-59336214D01*
X65132857Y-59227357D01*
X65132857Y-59118500D01*
X65078429Y-59009643D01*
X65024000Y-58955214D01*
X64915143Y-58900786D01*
X64697429Y-58846357D01*
X64588571Y-58791929D01*
X64534143Y-58737500D01*
X64479714Y-58628643D01*
X64479714Y-58519786D01*
X64534143Y-58410929D01*
X64588571Y-58356500D01*
X64697429Y-58302071D01*
X64969571Y-58302071D01*
X65132857Y-58356500D01*
X65622714Y-59445071D02*
X65622714Y-58683071D01*
X65622714Y-58302071D02*
X65568285Y-58356500D01*
X65622714Y-58410929D01*
X65677142Y-58356500D01*
X65622714Y-58302071D01*
X65622714Y-58410929D01*
X66656857Y-58683071D02*
X66656857Y-59608357D01*
X66602428Y-59717214D01*
X66548000Y-59771643D01*
X66439143Y-59826071D01*
X66275857Y-59826071D01*
X66167000Y-59771643D01*
X66656857Y-59390643D02*
X66548000Y-59445071D01*
X66330286Y-59445071D01*
X66221428Y-59390643D01*
X66167000Y-59336214D01*
X66112571Y-59227357D01*
X66112571Y-58900786D01*
X66167000Y-58791929D01*
X66221428Y-58737500D01*
X66330286Y-58683071D01*
X66548000Y-58683071D01*
X66656857Y-58737500D01*
X67201143Y-58683071D02*
X67201143Y-59445071D01*
X67201143Y-58791929D02*
X67255571Y-58737500D01*
X67364429Y-58683071D01*
X67527714Y-58683071D01*
X67636571Y-58737500D01*
X67691000Y-58846357D01*
X67691000Y-59445071D01*
X68725143Y-59445071D02*
X68725143Y-58846357D01*
X68670714Y-58737500D01*
X68561857Y-58683071D01*
X68344143Y-58683071D01*
X68235286Y-58737500D01*
X68725143Y-59390643D02*
X68616286Y-59445071D01*
X68344143Y-59445071D01*
X68235286Y-59390643D01*
X68180857Y-59281786D01*
X68180857Y-59172929D01*
X68235286Y-59064071D01*
X68344143Y-59009643D01*
X68616286Y-59009643D01*
X68725143Y-58955214D01*
X69432715Y-59445071D02*
X69323857Y-59390643D01*
X69269429Y-59281786D01*
X69269429Y-58302071D01*
D12*
X64706572Y-61829143D02*
X65849429Y-61829143D01*
X64706572Y-56241143D02*
X65849429Y-56241143D01*
X65278000Y-56812571D02*
X65278000Y-55669714D01*
D17*
X93908638Y-42265601D02*
X92943438Y-42265601D01*
X92943438Y-41994667D01*
X92989400Y-41926934D01*
X93035362Y-41893067D01*
X93127286Y-41859201D01*
X93265171Y-41859201D01*
X93357095Y-41893067D01*
X93403057Y-41926934D01*
X93449019Y-41994667D01*
X93449019Y-42265601D01*
X93862676Y-41283467D02*
X93908638Y-41351201D01*
X93908638Y-41486667D01*
X93862676Y-41554401D01*
X93770752Y-41588267D01*
X93403057Y-41588267D01*
X93311133Y-41554401D01*
X93265171Y-41486667D01*
X93265171Y-41351201D01*
X93311133Y-41283467D01*
X93403057Y-41249601D01*
X93494981Y-41249601D01*
X93586905Y-41588267D01*
X93908638Y-40640001D02*
X92943438Y-40640001D01*
X93862676Y-40640001D02*
X93908638Y-40707734D01*
X93908638Y-40843201D01*
X93862676Y-40910934D01*
X93816714Y-40944801D01*
X93724790Y-40978667D01*
X93449019Y-40978667D01*
X93357095Y-40944801D01*
X93311133Y-40910934D01*
X93265171Y-40843201D01*
X93265171Y-40707734D01*
X93311133Y-40640001D01*
X93908638Y-39996534D02*
X93403057Y-39996534D01*
X93311133Y-40030400D01*
X93265171Y-40098134D01*
X93265171Y-40233600D01*
X93311133Y-40301334D01*
X93862676Y-39996534D02*
X93908638Y-40064267D01*
X93908638Y-40233600D01*
X93862676Y-40301334D01*
X93770752Y-40335200D01*
X93678829Y-40335200D01*
X93586905Y-40301334D01*
X93540943Y-40233600D01*
X93540943Y-40064267D01*
X93494981Y-39996534D01*
X93908638Y-39556267D02*
X93862676Y-39624000D01*
X93770752Y-39657867D01*
X92943438Y-39657867D01*
X93862676Y-38777333D02*
X93908638Y-38675733D01*
X93908638Y-38506400D01*
X93862676Y-38438667D01*
X93816714Y-38404800D01*
X93724790Y-38370933D01*
X93632867Y-38370933D01*
X93540943Y-38404800D01*
X93494981Y-38438667D01*
X93449019Y-38506400D01*
X93403057Y-38641867D01*
X93357095Y-38709600D01*
X93311133Y-38743467D01*
X93219210Y-38777333D01*
X93127286Y-38777333D01*
X93035362Y-38743467D01*
X92989400Y-38709600D01*
X92943438Y-38641867D01*
X92943438Y-38472533D01*
X92989400Y-38370933D01*
X93265171Y-38133867D02*
X93908638Y-37998400D01*
X93449019Y-37862934D01*
X93908638Y-37727467D01*
X93265171Y-37592000D01*
X93908638Y-37321067D02*
X93265171Y-37321067D01*
X92943438Y-37321067D02*
X92989400Y-37354933D01*
X93035362Y-37321067D01*
X92989400Y-37287200D01*
X92943438Y-37321067D01*
X93035362Y-37321067D01*
X93265171Y-37084000D02*
X93265171Y-36813066D01*
X92943438Y-36982400D02*
X93770752Y-36982400D01*
X93862676Y-36948533D01*
X93908638Y-36880800D01*
X93908638Y-36813066D01*
X93862676Y-36271200D02*
X93908638Y-36338933D01*
X93908638Y-36474400D01*
X93862676Y-36542133D01*
X93816714Y-36576000D01*
X93724790Y-36609866D01*
X93449019Y-36609866D01*
X93357095Y-36576000D01*
X93311133Y-36542133D01*
X93265171Y-36474400D01*
X93265171Y-36338933D01*
X93311133Y-36271200D01*
X93908638Y-35966400D02*
X92943438Y-35966400D01*
X93908638Y-35661600D02*
X93403057Y-35661600D01*
X93311133Y-35695466D01*
X93265171Y-35763200D01*
X93265171Y-35864800D01*
X93311133Y-35932533D01*
X93357095Y-35966400D01*
X91648038Y-39827201D02*
X90682838Y-39827201D01*
X90682838Y-39657867D01*
X90728800Y-39556267D01*
X90820724Y-39488534D01*
X90912648Y-39454667D01*
X91096495Y-39420801D01*
X91234381Y-39420801D01*
X91418229Y-39454667D01*
X91510152Y-39488534D01*
X91602076Y-39556267D01*
X91648038Y-39657867D01*
X91648038Y-39827201D01*
X91556114Y-38709601D02*
X91602076Y-38743467D01*
X91648038Y-38845067D01*
X91648038Y-38912801D01*
X91602076Y-39014401D01*
X91510152Y-39082134D01*
X91418229Y-39116001D01*
X91234381Y-39149867D01*
X91096495Y-39149867D01*
X90912648Y-39116001D01*
X90820724Y-39082134D01*
X90728800Y-39014401D01*
X90682838Y-38912801D01*
X90682838Y-38845067D01*
X90728800Y-38743467D01*
X90774762Y-38709601D01*
X91648038Y-37862934D02*
X90682838Y-37862934D01*
X90682838Y-37592000D01*
X90728800Y-37524267D01*
X90774762Y-37490400D01*
X90866686Y-37456534D01*
X91004571Y-37456534D01*
X91096495Y-37490400D01*
X91142457Y-37524267D01*
X91188419Y-37592000D01*
X91188419Y-37862934D01*
X91648038Y-37050134D02*
X91602076Y-37117867D01*
X91556114Y-37151734D01*
X91464190Y-37185600D01*
X91188419Y-37185600D01*
X91096495Y-37151734D01*
X91050533Y-37117867D01*
X91004571Y-37050134D01*
X91004571Y-36948534D01*
X91050533Y-36880800D01*
X91096495Y-36846934D01*
X91188419Y-36813067D01*
X91464190Y-36813067D01*
X91556114Y-36846934D01*
X91602076Y-36880800D01*
X91648038Y-36948534D01*
X91648038Y-37050134D01*
X91004571Y-36576000D02*
X91648038Y-36440533D01*
X91188419Y-36305067D01*
X91648038Y-36169600D01*
X91004571Y-36034133D01*
X91602076Y-35492266D02*
X91648038Y-35560000D01*
X91648038Y-35695466D01*
X91602076Y-35763200D01*
X91510152Y-35797066D01*
X91142457Y-35797066D01*
X91050533Y-35763200D01*
X91004571Y-35695466D01*
X91004571Y-35560000D01*
X91050533Y-35492266D01*
X91142457Y-35458400D01*
X91234381Y-35458400D01*
X91326305Y-35797066D01*
X91648038Y-35153600D02*
X91004571Y-35153600D01*
X91188419Y-35153600D02*
X91096495Y-35119733D01*
X91050533Y-35085866D01*
X91004571Y-35018133D01*
X91004571Y-34950400D01*
X64993763Y-54591857D02*
X64945382Y-54640238D01*
X64800239Y-54688619D01*
X64703477Y-54688619D01*
X64558335Y-54640238D01*
X64461573Y-54543476D01*
X64413192Y-54446714D01*
X64364811Y-54253190D01*
X64364811Y-54108048D01*
X64413192Y-53914524D01*
X64461573Y-53817762D01*
X64558335Y-53721000D01*
X64703477Y-53672619D01*
X64800239Y-53672619D01*
X64945382Y-53721000D01*
X64993763Y-53769381D01*
X65574335Y-54688619D02*
X65477573Y-54640238D01*
X65429192Y-54591857D01*
X65380811Y-54495095D01*
X65380811Y-54204810D01*
X65429192Y-54108048D01*
X65477573Y-54059667D01*
X65574335Y-54011286D01*
X65719477Y-54011286D01*
X65816239Y-54059667D01*
X65864620Y-54108048D01*
X65913001Y-54204810D01*
X65913001Y-54495095D01*
X65864620Y-54591857D01*
X65816239Y-54640238D01*
X65719477Y-54688619D01*
X65574335Y-54688619D01*
X66348430Y-54011286D02*
X66348430Y-54688619D01*
X66348430Y-54108048D02*
X66396811Y-54059667D01*
X66493573Y-54011286D01*
X66638715Y-54011286D01*
X66735477Y-54059667D01*
X66783858Y-54156429D01*
X66783858Y-54688619D01*
X67122525Y-54011286D02*
X67509573Y-54011286D01*
X67267668Y-53672619D02*
X67267668Y-54543476D01*
X67316049Y-54640238D01*
X67412811Y-54688619D01*
X67509573Y-54688619D01*
X67848239Y-54688619D02*
X67848239Y-54011286D01*
X67848239Y-54204810D02*
X67896620Y-54108048D01*
X67945001Y-54059667D01*
X68041763Y-54011286D01*
X68138524Y-54011286D01*
X68622334Y-54688619D02*
X68525572Y-54640238D01*
X68477191Y-54591857D01*
X68428810Y-54495095D01*
X68428810Y-54204810D01*
X68477191Y-54108048D01*
X68525572Y-54059667D01*
X68622334Y-54011286D01*
X68767476Y-54011286D01*
X68864238Y-54059667D01*
X68912619Y-54108048D01*
X68961000Y-54204810D01*
X68961000Y-54495095D01*
X68912619Y-54591857D01*
X68864238Y-54640238D01*
X68767476Y-54688619D01*
X68622334Y-54688619D01*
X69541572Y-54688619D02*
X69444810Y-54640238D01*
X69396429Y-54543476D01*
X69396429Y-53672619D01*
D18*
X122398367Y-72090038D02*
X122102033Y-71630419D01*
X121890367Y-72090038D02*
X121890367Y-71124838D01*
X122229033Y-71124838D01*
X122313700Y-71170800D01*
X122356033Y-71216762D01*
X122398367Y-71308686D01*
X122398367Y-71446571D01*
X122356033Y-71538495D01*
X122313700Y-71584457D01*
X122229033Y-71630419D01*
X121890367Y-71630419D01*
X122779367Y-71584457D02*
X123075700Y-71584457D01*
X123202700Y-72090038D02*
X122779367Y-72090038D01*
X122779367Y-71124838D01*
X123202700Y-71124838D01*
X123583700Y-72090038D02*
X123583700Y-71124838D01*
X123795366Y-71124838D01*
X123922366Y-71170800D01*
X124007033Y-71262724D01*
X124049366Y-71354648D01*
X124091700Y-71538495D01*
X124091700Y-71676381D01*
X124049366Y-71860229D01*
X124007033Y-71952152D01*
X123922366Y-72044076D01*
X123795366Y-72090038D01*
X123583700Y-72090038D01*
X124472700Y-71722343D02*
X125150033Y-71722343D01*
X124811366Y-72090038D02*
X124811366Y-71354648D01*
X122279833Y-63075457D02*
X122406833Y-63121419D01*
X122449166Y-63167381D01*
X122491500Y-63259305D01*
X122491500Y-63397190D01*
X122449166Y-63489114D01*
X122406833Y-63535076D01*
X122322166Y-63581038D01*
X121983500Y-63581038D01*
X121983500Y-62615838D01*
X122279833Y-62615838D01*
X122364500Y-62661800D01*
X122406833Y-62707762D01*
X122449166Y-62799686D01*
X122449166Y-62891610D01*
X122406833Y-62983533D01*
X122364500Y-63029495D01*
X122279833Y-63075457D01*
X121983500Y-63075457D01*
X123295833Y-63581038D02*
X122872500Y-63581038D01*
X122872500Y-62615838D01*
X123592167Y-63581038D02*
X123592167Y-62615838D01*
X124100167Y-63581038D02*
X123719167Y-63029495D01*
X124100167Y-62615838D02*
X123592167Y-63167381D01*
X124481167Y-63213343D02*
X125158500Y-63213343D01*
D15*
X97383600Y-65659000D02*
X97383600Y-70485000D01*
X100457000Y-65659000D02*
X97155000Y-65659000D01*
X97155000Y-65659000D02*
X97155000Y-70485000D01*
X97155000Y-70485000D02*
X100457000Y-70485000D01*
X100457000Y-70485000D02*
X100457000Y-65659000D01*
X98491067Y-66319400D02*
G75*
G03X98491067Y-66319400I-472467J0D01*
G01*
X97383600Y-73279000D02*
X97383600Y-78105000D01*
X100457000Y-73279000D02*
X97155000Y-73279000D01*
X97155000Y-73279000D02*
X97155000Y-78105000D01*
X97155000Y-78105000D02*
X100457000Y-78105000D01*
X100457000Y-78105000D02*
X100457000Y-73279000D01*
X98491067Y-73939400D02*
G75*
G03X98491067Y-73939400I-472467J0D01*
G01*
X85090000Y-70662800D02*
X93726000Y-70662800D01*
X85090000Y-67005200D02*
X85090000Y-70662800D01*
X85090000Y-70408800D02*
X93726000Y-70408800D01*
X93726000Y-70662800D02*
X93726000Y-67005200D01*
X93726000Y-67005200D02*
X85090000Y-67005200D01*
X86222867Y-69748400D02*
G75*
G03X86222867Y-69748400I-472467J0D01*
G01*
D19*
X91249500Y-63873380D02*
X91249500Y-64579500D01*
X91249500Y-64579500D02*
X92646500Y-64579500D01*
X92646500Y-64579500D02*
X92646500Y-63873380D01*
X91249500Y-62166500D02*
X91249500Y-62872620D01*
X91249500Y-62166500D02*
X92646500Y-62166500D01*
X92646500Y-62166500D02*
X92646500Y-62872620D01*
X76898500Y-59047380D02*
X76898500Y-59753500D01*
X76898500Y-59753500D02*
X78295500Y-59753500D01*
X78295500Y-59753500D02*
X78295500Y-59047380D01*
X76898500Y-57340500D02*
X76898500Y-58046620D01*
X76898500Y-57340500D02*
X78295500Y-57340500D01*
X78295500Y-57340500D02*
X78295500Y-58046620D01*
D20*
X76962000Y-81026000D02*
X74422000Y-81026000D01*
X74422000Y-81026000D02*
X74422000Y-75946000D01*
X74422000Y-75946000D02*
X76962000Y-75946000D01*
X76962000Y-75946000D02*
X76962000Y-81026000D01*
D19*
X125439000Y-67060000D02*
X123439000Y-67060000D01*
X123439000Y-67060000D02*
X123439000Y-64060000D01*
X123439000Y-64060000D02*
X125439000Y-64060000D01*
X125439000Y-70560000D02*
X123439000Y-70560000D01*
X123439000Y-70560000D02*
X123439000Y-67560000D01*
X123439000Y-67560000D02*
X125439000Y-67560000D01*
X118439000Y-70810000D02*
X118439000Y-63810000D01*
X118439000Y-63810000D02*
X125439000Y-63810000D01*
X125439000Y-63810000D02*
X125439000Y-70810000D01*
X125439000Y-70810000D02*
X118439000Y-70810000D01*
D15*
X93167200Y-50520600D02*
X93167200Y-58699400D01*
X93167200Y-58699400D02*
X86817200Y-58699400D01*
X86817200Y-58699400D02*
X86817200Y-50520600D01*
X86817200Y-50520600D02*
X93167200Y-50520600D01*
D11*
X90297000Y-47625000D02*
X88392000Y-47625000D01*
X81407000Y-47625000D02*
X83312000Y-47625000D01*
X81407000Y-46228000D02*
X81407000Y-47625000D01*
X81407000Y-33020000D02*
X81407000Y-41021000D01*
D14*
X90297000Y-36195000D02*
X81407000Y-36195000D01*
X90297000Y-47625000D02*
X90297000Y-33020000D01*
X90297000Y-33020000D02*
X81407000Y-33020000D01*
D11*
X110109000Y-33020000D02*
X110109000Y-57404000D01*
X98044000Y-29972000D02*
X109220000Y-29972000D01*
X109220000Y-29972000D02*
X109220000Y-33020000D01*
X98044000Y-33020000D02*
X98044000Y-29972000D01*
X110109000Y-33020000D02*
X109220000Y-33020000D01*
X94234000Y-33020000D02*
X98044000Y-33020000D01*
X110109000Y-57404000D02*
X94234000Y-57404000D01*
X94234000Y-57404000D02*
X94234000Y-33020000D01*
X74190668Y-71450200D02*
G75*
G03X74190668Y-71450200I-352868J0D01*
G01*
X73152000Y-68681600D02*
X74168000Y-68681600D01*
X74168000Y-68681600D02*
X74168000Y-70510400D01*
X74168000Y-70510400D02*
X73152000Y-70510400D01*
X73152000Y-67056000D02*
X83312000Y-67056000D01*
X83312000Y-67056000D02*
X83312000Y-72136000D01*
X83312000Y-72136000D02*
X73152000Y-72136000D01*
X73152000Y-72136000D02*
X73152000Y-67056000D01*
D19*
X111582200Y-62534800D02*
X111582200Y-62407800D01*
X111556800Y-60528200D02*
X111556800Y-60426600D01*
X111558882Y-60406767D02*
G75*
G03X105867200Y-60401200I-2846882J-1061233D01*
G01*
X105845949Y-62545896D02*
G75*
G03X111582200Y-62534800I2866051J1077896D01*
G01*
X111506000Y-60299600D02*
X111506000Y-60528200D01*
X111379000Y-60045600D02*
X111379000Y-60528200D01*
X111252000Y-59842400D02*
X111252000Y-60528200D01*
X111125000Y-59664600D02*
X111125000Y-60528200D01*
X111125000Y-60528200D02*
X111556800Y-60528200D01*
X111125000Y-62407800D02*
X111582200Y-62407800D01*
X111506000Y-62687200D02*
X111506000Y-62407800D01*
X111379000Y-62941200D02*
X111379000Y-62407800D01*
X111252000Y-63144400D02*
X111252000Y-62407800D01*
X111125000Y-63322200D02*
X111125000Y-62407800D01*
X112014000Y-64770000D02*
X112014000Y-62585600D01*
X112014000Y-58166000D02*
X112014000Y-60350400D01*
X105410000Y-64008000D02*
X105410000Y-62585600D01*
X105410000Y-60325000D02*
X105410000Y-58928000D01*
X112674400Y-63500000D02*
X112674400Y-62738000D01*
X112014000Y-58166000D02*
X106172000Y-58166000D01*
X106172000Y-58166000D02*
X105410000Y-58928000D01*
X105410000Y-64008000D02*
X106172000Y-64770000D01*
X106172000Y-64770000D02*
X112014000Y-64770000D01*
X104444800Y-63144400D02*
X105206800Y-63144400D01*
X104825800Y-63500000D02*
X104825800Y-62738000D01*
X78282800Y-51257200D02*
X78282800Y-51384200D01*
X78308200Y-53263800D02*
X78308200Y-53365400D01*
X78306118Y-53385233D02*
G75*
G03X83997800Y-53390800I2846882J1061233D01*
G01*
X84019051Y-51246104D02*
G75*
G03X78282800Y-51257200I-2866051J-1077896D01*
G01*
X78359000Y-53492400D02*
X78359000Y-53263800D01*
X78486000Y-53746400D02*
X78486000Y-53263800D01*
X78613000Y-53949600D02*
X78613000Y-53263800D01*
X78740000Y-54127400D02*
X78740000Y-53263800D01*
X78740000Y-53263800D02*
X78308200Y-53263800D01*
X78740000Y-51384200D02*
X78282800Y-51384200D01*
X78359000Y-51104800D02*
X78359000Y-51384200D01*
X78486000Y-50850800D02*
X78486000Y-51384200D01*
X78613000Y-50647600D02*
X78613000Y-51384200D01*
X78740000Y-50469800D02*
X78740000Y-51384200D01*
X77851000Y-49022000D02*
X77851000Y-51206400D01*
X77851000Y-55626000D02*
X77851000Y-53441600D01*
X84455000Y-49784000D02*
X84455000Y-51206400D01*
X84455000Y-53467000D02*
X84455000Y-54864000D01*
X77190600Y-50292000D02*
X77190600Y-51054000D01*
X77851000Y-55626000D02*
X83693000Y-55626000D01*
X83693000Y-55626000D02*
X84455000Y-54864000D01*
X84455000Y-49784000D02*
X83693000Y-49022000D01*
X83693000Y-49022000D02*
X77851000Y-49022000D01*
X85420200Y-50647600D02*
X84658200Y-50647600D01*
X85039200Y-50292000D02*
X85039200Y-51054000D01*
X75133200Y-50088800D02*
X75133200Y-49961800D01*
X75107800Y-48082200D02*
X75107800Y-47980600D01*
X75109882Y-47960767D02*
G75*
G03X69418200Y-47955200I-2846882J-1061233D01*
G01*
X69396949Y-50099896D02*
G75*
G03X75133200Y-50088800I2866051J1077896D01*
G01*
X75057000Y-47853600D02*
X75057000Y-48082200D01*
X74930000Y-47599600D02*
X74930000Y-48082200D01*
X74803000Y-47396400D02*
X74803000Y-48082200D01*
X74676000Y-47218600D02*
X74676000Y-48082200D01*
X74676000Y-48082200D02*
X75107800Y-48082200D01*
X74676000Y-49961800D02*
X75133200Y-49961800D01*
X75057000Y-50241200D02*
X75057000Y-49961800D01*
X74930000Y-50495200D02*
X74930000Y-49961800D01*
X74803000Y-50698400D02*
X74803000Y-49961800D01*
X74676000Y-50876200D02*
X74676000Y-49961800D01*
X75565000Y-52324000D02*
X75565000Y-50139600D01*
X75565000Y-45720000D02*
X75565000Y-47904400D01*
X68961000Y-51562000D02*
X68961000Y-50139600D01*
X68961000Y-47879000D02*
X68961000Y-46482000D01*
X76225400Y-51054000D02*
X76225400Y-50292000D01*
X75565000Y-45720000D02*
X69723000Y-45720000D01*
X69723000Y-45720000D02*
X68961000Y-46482000D01*
X68961000Y-51562000D02*
X69723000Y-52324000D01*
X69723000Y-52324000D02*
X75565000Y-52324000D01*
X67995800Y-50698400D02*
X68757800Y-50698400D01*
X68376800Y-51054000D02*
X68376800Y-50292000D01*
X84937600Y-64744600D02*
X86258400Y-64744600D01*
X84937600Y-62001400D02*
X84937600Y-64744600D01*
X86258400Y-64744600D02*
X86258400Y-62001400D01*
X84937600Y-62001400D02*
X86258400Y-62001400D01*
X66065400Y-47142400D02*
X64744600Y-47142400D01*
X66065400Y-49885600D02*
X66065400Y-47142400D01*
X64744600Y-47142400D02*
X64744600Y-49885600D01*
X66065400Y-49885600D02*
X64744600Y-49885600D01*
X73253600Y-58521600D02*
X74574400Y-58521600D01*
X73253600Y-55778400D02*
X73253600Y-58521600D01*
X74574400Y-58521600D02*
X74574400Y-55778400D01*
X73253600Y-55778400D02*
X74574400Y-55778400D01*
X110972600Y-36423600D02*
X112293400Y-36423600D01*
X110972600Y-33680400D02*
X110972600Y-36423600D01*
X112293400Y-36423600D02*
X112293400Y-33680400D01*
X110972600Y-33680400D02*
X112293400Y-33680400D01*
X70459600Y-72364600D02*
X71780400Y-72364600D01*
X70459600Y-69621400D02*
X70459600Y-72364600D01*
X71780400Y-72364600D02*
X71780400Y-69621400D01*
X70459600Y-69621400D02*
X71780400Y-69621400D01*
X112293400Y-40538400D02*
X110972600Y-40538400D01*
X112293400Y-43281600D02*
X112293400Y-40538400D01*
X110972600Y-40538400D02*
X110972600Y-43281600D01*
X112293400Y-43281600D02*
X110972600Y-43281600D01*
X68478400Y-43586400D02*
X67157600Y-43586400D01*
X68478400Y-46329600D02*
X68478400Y-43586400D01*
X67157600Y-43586400D02*
X67157600Y-46329600D01*
X68478400Y-46329600D02*
X67157600Y-46329600D01*
D11*
X116484400Y-36474400D02*
X114960400Y-36474400D01*
X116484400Y-35204400D02*
X114960400Y-35204400D01*
X116484400Y-40792400D02*
X114960400Y-40792400D01*
X116484400Y-39776400D02*
X114960400Y-39776400D01*
X116484400Y-38506400D02*
X115722400Y-38506400D01*
X115722400Y-38506400D02*
X115722400Y-37490400D01*
X115722400Y-37490400D02*
X116484400Y-37490400D01*
D21*
X116509800Y-37566600D02*
X116509800Y-38430200D01*
D14*
X122605800Y-41275000D02*
X116611400Y-41275000D01*
X116611400Y-41275000D02*
X116611400Y-34721800D01*
X116611400Y-34721800D02*
X122605800Y-34721800D01*
X122603300Y-34721800D02*
X122603300Y-41275000D01*
X122707400Y-35433000D02*
X123418600Y-35433000D01*
X123418600Y-35433000D02*
X123875800Y-35890200D01*
X123875800Y-35890200D02*
X123875800Y-40106600D01*
X123875800Y-40106600D02*
X123418600Y-40563800D01*
X123418600Y-40563800D02*
X122707400Y-40563800D01*
X122707400Y-40563800D02*
X122707400Y-35433000D01*
D22*
X122707400Y-35433000D02*
X123418600Y-35433000D01*
X123418600Y-35433000D02*
X123875800Y-35890200D01*
X123875800Y-35890200D02*
X123875800Y-40106600D01*
X123875800Y-40106600D02*
X123418600Y-40563800D01*
X123418600Y-40563800D02*
X122707400Y-40563800D01*
X122707400Y-40563800D02*
X122707400Y-35433000D01*
D20*
X70104000Y-62738000D02*
X64008000Y-62738000D01*
X64008000Y-62738000D02*
X64008000Y-55118000D01*
X70104000Y-55118000D02*
X64008000Y-55118000D01*
X72644000Y-62738000D02*
X70104000Y-62738000D01*
X70104000Y-62738000D02*
X70104000Y-55118000D01*
X70104000Y-55118000D02*
X72644000Y-55118000D01*
X72644000Y-55118000D02*
X72644000Y-62738000D01*
X70104000Y-60198000D02*
X72644000Y-60198000D01*
X119380000Y-72390000D02*
X125476000Y-72390000D01*
X125476000Y-72390000D02*
X125476000Y-62230000D01*
X125476000Y-62230000D02*
X119380000Y-62230000D01*
X119380000Y-62230000D02*
X119380000Y-62230000D01*
X116840000Y-62230000D02*
X119380000Y-62230000D01*
X119380000Y-62230000D02*
X119380000Y-62230000D01*
X119380000Y-62230000D02*
X119380000Y-72390000D01*
X119380000Y-72390000D02*
X116840000Y-72390000D01*
X116840000Y-72390000D02*
X116840000Y-62230000D01*
X116840000Y-64770000D02*
X119380000Y-64770000D01*
X119380000Y-41910000D02*
X125476000Y-41910000D01*
X125476000Y-41910000D02*
X125476000Y-49530000D01*
X119380000Y-49530000D02*
X125476000Y-49530000D01*
X116840000Y-41910000D02*
X119380000Y-41910000D01*
X119380000Y-41910000D02*
X119380000Y-49530000D01*
X119380000Y-49530000D02*
X116840000Y-49530000D01*
X116840000Y-49530000D02*
X116840000Y-41910000D01*
X119380000Y-44450000D02*
X116840000Y-44450000D01*
D19*
X112331500Y-37853620D02*
X112331500Y-37147500D01*
X112331500Y-37147500D02*
X110934500Y-37147500D01*
X110934500Y-37147500D02*
X110934500Y-37853620D01*
X112331500Y-39560500D02*
X112331500Y-38854380D01*
X112331500Y-39560500D02*
X110934500Y-39560500D01*
X110934500Y-39560500D02*
X110934500Y-38854380D01*
D17*
X78206600Y-63652400D02*
X74701400Y-63652400D01*
X74701400Y-63652400D02*
X74701400Y-61823600D01*
X74701400Y-61823600D02*
X78206600Y-61823600D01*
X78206600Y-61823600D02*
X78206600Y-63652400D01*
X113131600Y-72796400D02*
X109626400Y-72796400D01*
X109626400Y-72796400D02*
X109626400Y-70967600D01*
X109626400Y-70967600D02*
X113131600Y-70967600D01*
X113131600Y-70967600D02*
X113131600Y-72796400D01*
X101193600Y-72796400D02*
X97688400Y-72796400D01*
X97688400Y-72796400D02*
X97688400Y-70967600D01*
X97688400Y-70967600D02*
X101193600Y-70967600D01*
X101193600Y-70967600D02*
X101193600Y-72796400D01*
X101066600Y-65176400D02*
X97561400Y-65176400D01*
X97561400Y-65176400D02*
X97561400Y-63347600D01*
X97561400Y-63347600D02*
X101066600Y-63347600D01*
X101066600Y-63347600D02*
X101066600Y-65176400D01*
D19*
X86550500Y-74810620D02*
X86550500Y-74104500D01*
X86550500Y-74104500D02*
X85153500Y-74104500D01*
X85153500Y-74104500D02*
X85153500Y-74810620D01*
X86550500Y-76517500D02*
X86550500Y-75811380D01*
X86550500Y-76517500D02*
X85153500Y-76517500D01*
X85153500Y-76517500D02*
X85153500Y-75811380D01*
X114490500Y-61714380D02*
X114490500Y-62420500D01*
X114490500Y-62420500D02*
X115887500Y-62420500D01*
X115887500Y-62420500D02*
X115887500Y-61714380D01*
X114490500Y-60007500D02*
X114490500Y-60713620D01*
X114490500Y-60007500D02*
X115887500Y-60007500D01*
X115887500Y-60007500D02*
X115887500Y-60713620D01*
X93789500Y-74810620D02*
X93789500Y-74104500D01*
X93789500Y-74104500D02*
X92392500Y-74104500D01*
X92392500Y-74104500D02*
X92392500Y-74810620D01*
X93789500Y-76517500D02*
X93789500Y-75811380D01*
X93789500Y-76517500D02*
X92392500Y-76517500D01*
X92392500Y-76517500D02*
X92392500Y-75811380D01*
X114490500Y-55364380D02*
X114490500Y-56070500D01*
X114490500Y-56070500D02*
X115887500Y-56070500D01*
X115887500Y-56070500D02*
X115887500Y-55364380D01*
X114490500Y-53657500D02*
X114490500Y-54363620D01*
X114490500Y-53657500D02*
X115887500Y-53657500D01*
X115887500Y-53657500D02*
X115887500Y-54363620D01*
X91630500Y-74810620D02*
X91630500Y-74104500D01*
X91630500Y-74104500D02*
X90233500Y-74104500D01*
X90233500Y-74104500D02*
X90233500Y-74810620D01*
X91630500Y-76517500D02*
X91630500Y-75811380D01*
X91630500Y-76517500D02*
X90233500Y-76517500D01*
X90233500Y-76517500D02*
X90233500Y-75811380D01*
X114490500Y-58539380D02*
X114490500Y-59245500D01*
X114490500Y-59245500D02*
X115887500Y-59245500D01*
X115887500Y-59245500D02*
X115887500Y-58539380D01*
X114490500Y-56832500D02*
X114490500Y-57538620D01*
X114490500Y-56832500D02*
X115887500Y-56832500D01*
X115887500Y-56832500D02*
X115887500Y-57538620D01*
D10*
X85153500Y-77406500D02*
X86550500Y-77406500D01*
D19*
X85153500Y-79240380D02*
X85153500Y-79946500D01*
X85153500Y-79946500D02*
X86550500Y-79946500D01*
X86550500Y-79946500D02*
X86550500Y-79240380D01*
X85153500Y-77406500D02*
X85153500Y-78239620D01*
X85153500Y-77533500D02*
X86550500Y-77533500D01*
X86550500Y-77406500D02*
X86550500Y-78239620D01*
D10*
X80073500Y-77406500D02*
X81470500Y-77406500D01*
D19*
X80073500Y-79240380D02*
X80073500Y-79946500D01*
X80073500Y-79946500D02*
X81470500Y-79946500D01*
X81470500Y-79946500D02*
X81470500Y-79240380D01*
X80073500Y-77406500D02*
X80073500Y-78239620D01*
X80073500Y-77533500D02*
X81470500Y-77533500D01*
X81470500Y-77406500D02*
X81470500Y-78239620D01*
D10*
X82613500Y-77406500D02*
X84010500Y-77406500D01*
D19*
X82613500Y-79240380D02*
X82613500Y-79946500D01*
X82613500Y-79946500D02*
X84010500Y-79946500D01*
X84010500Y-79946500D02*
X84010500Y-79240380D01*
X82613500Y-77406500D02*
X82613500Y-78239620D01*
X82613500Y-77533500D02*
X84010500Y-77533500D01*
X84010500Y-77406500D02*
X84010500Y-78239620D01*
D20*
X94299265Y-77784728D02*
G75*
G03X91617800Y-77800200I-1335265J-955272D01*
G01*
X91621522Y-79710371D02*
G75*
G03X94310200Y-79705200I1342478J970371D01*
G01*
X90580522Y-78740000D02*
G75*
G03X90580522Y-78740000I-80322J0D01*
G01*
D19*
X87477600Y-64744600D02*
X88798400Y-64744600D01*
X87477600Y-62001400D02*
X87477600Y-64744600D01*
X88798400Y-64744600D02*
X88798400Y-62001400D01*
X87477600Y-62001400D02*
X88798400Y-62001400D01*
X114528600Y-52298600D02*
X115849400Y-52298600D01*
X114528600Y-49555400D02*
X114528600Y-52298600D01*
X115849400Y-52298600D02*
X115849400Y-49555400D01*
X114528600Y-49555400D02*
X115849400Y-49555400D01*
X92303600Y-46329600D02*
X93624400Y-46329600D01*
X92303600Y-43586400D02*
X92303600Y-46329600D01*
X93624400Y-46329600D02*
X93624400Y-43586400D01*
X92303600Y-43586400D02*
X93624400Y-43586400D01*
X79603600Y-63347600D02*
X80924400Y-63347600D01*
X79603600Y-60604400D02*
X79603600Y-63347600D01*
X80924400Y-63347600D02*
X80924400Y-60604400D01*
X79603600Y-60604400D02*
X80924400Y-60604400D01*
X88709500Y-74810620D02*
X88709500Y-74104500D01*
X88709500Y-74104500D02*
X87312500Y-74104500D01*
X87312500Y-74104500D02*
X87312500Y-74810620D01*
X88709500Y-76517500D02*
X88709500Y-75811380D01*
X88709500Y-76517500D02*
X87312500Y-76517500D01*
X87312500Y-76517500D02*
X87312500Y-75811380D01*
D20*
X125476000Y-62230000D02*
X125476000Y-49530000D01*
X116840000Y-62230000D02*
X125476000Y-62230000D01*
X119380000Y-49530000D02*
X119380000Y-62230000D01*
X125476000Y-49530000D02*
X116840000Y-49530000D01*
X116840000Y-62230000D02*
X116840000Y-49530000D01*
X116840000Y-52070000D02*
X119380000Y-52070000D01*
D11*
X66167000Y-41656000D02*
X66167000Y-43180000D01*
X64897000Y-41656000D02*
X64897000Y-43180000D01*
X70485000Y-41656000D02*
X70485000Y-43180000D01*
X69469000Y-41656000D02*
X69469000Y-43180000D01*
X68199000Y-41656000D02*
X68199000Y-42418000D01*
X68199000Y-42418000D02*
X67183000Y-42418000D01*
X67183000Y-42418000D02*
X67183000Y-41656000D01*
D21*
X67259200Y-41630600D02*
X68122800Y-41630600D01*
D14*
X70967600Y-35534600D02*
X70967600Y-41529000D01*
X70967600Y-41529000D02*
X64414400Y-41529000D01*
X64414400Y-41529000D02*
X64414400Y-35534600D01*
X64414400Y-35537100D02*
X70967600Y-35537100D01*
X65125600Y-35433000D02*
X65125600Y-34721800D01*
X65125600Y-34721800D02*
X65582800Y-34264600D01*
X65582800Y-34264600D02*
X69799200Y-34264600D01*
X69799200Y-34264600D02*
X70256400Y-34721800D01*
X70256400Y-34721800D02*
X70256400Y-35433000D01*
X70256400Y-35433000D02*
X65125600Y-35433000D01*
D22*
X65125600Y-35433000D02*
X65125600Y-34721800D01*
X65125600Y-34721800D02*
X65582800Y-34264600D01*
X65582800Y-34264600D02*
X69799200Y-34264600D01*
X69799200Y-34264600D02*
X70256400Y-34721800D01*
X70256400Y-34721800D02*
X70256400Y-35433000D01*
X70256400Y-35433000D02*
X65125600Y-35433000D01*
D15*
X108051600Y-65659000D02*
X108051600Y-70485000D01*
X111125000Y-65659000D02*
X107823000Y-65659000D01*
X107823000Y-65659000D02*
X107823000Y-70485000D01*
X107823000Y-70485000D02*
X111125000Y-70485000D01*
X111125000Y-70485000D02*
X111125000Y-65659000D01*
X109159067Y-66319400D02*
G75*
G03X109159067Y-66319400I-472467J0D01*
G01*
X108051600Y-73279000D02*
X108051600Y-78105000D01*
X111125000Y-73279000D02*
X107823000Y-73279000D01*
X107823000Y-73279000D02*
X107823000Y-78105000D01*
X107823000Y-78105000D02*
X111125000Y-78105000D01*
X111125000Y-78105000D02*
X111125000Y-73279000D01*
X109159067Y-73939400D02*
G75*
G03X109159067Y-73939400I-472467J0D01*
G01*
D19*
X114528600Y-45313600D02*
X115849400Y-45313600D01*
X114528600Y-42570400D02*
X114528600Y-45313600D01*
X115849400Y-45313600D02*
X115849400Y-42570400D01*
X114528600Y-42570400D02*
X115849400Y-42570400D01*
X87604600Y-81254600D02*
X88925400Y-81254600D01*
X87604600Y-78511400D02*
X87604600Y-81254600D01*
X88925400Y-81254600D02*
X88925400Y-78511400D01*
X87604600Y-78511400D02*
X88925400Y-78511400D01*
D20*
X77495400Y-30772100D02*
X72618600Y-30772100D01*
X75057000Y-33032700D02*
X75057000Y-28333700D01*
D23*
X75387200Y-36741100D02*
X75006200Y-36741100D01*
D20*
X74650600Y-36233100D02*
X74650600Y-37249100D01*
X74650600Y-36741100D02*
X75539600Y-37249100D01*
X75539600Y-37249100D02*
X75539600Y-36233100D01*
X75539600Y-36741100D02*
X76403200Y-36741100D01*
X74650600Y-36741100D02*
X73761600Y-36741100D01*
X75539600Y-36233100D02*
X74650600Y-36741100D01*
X77495400Y-30772100D02*
G75*
G03X72618600Y-30772100I-2438400J0D01*
G01*
X77495400Y-33032700D02*
X77495400Y-30772100D01*
X72618600Y-33032700D02*
X72618600Y-30772100D01*
X72059800Y-38544500D02*
X72059800Y-33032700D01*
X75234800Y-38392100D02*
X74879200Y-38392100D01*
X78054200Y-38392100D02*
X77419200Y-38392100D01*
X72059800Y-38392100D02*
X72694800Y-38392100D01*
X78054200Y-33032700D02*
X78054200Y-42227500D01*
X78054200Y-42227500D02*
X72059800Y-42227500D01*
X72059800Y-42227500D02*
X72059800Y-38544500D01*
X72059800Y-33032700D02*
X78054200Y-33032700D01*
D24*
X72517000Y-35750500D02*
X75057000Y-35750500D01*
X72517000Y-33210500D02*
X75057000Y-33210500D01*
D20*
X72517000Y-35750500D02*
X72517000Y-33210500D01*
X75057000Y-33210500D02*
X75057000Y-35750500D01*
D24*
X75057000Y-35750500D02*
X77597000Y-35750500D01*
X75057000Y-33210500D02*
X77597000Y-33210500D01*
D20*
X75057000Y-35750500D02*
X75057000Y-33210500D01*
X77597000Y-33210500D02*
X77597000Y-35750500D01*
D19*
X80962500Y-58046620D02*
X80962500Y-57340500D01*
X80962500Y-57340500D02*
X79565500Y-57340500D01*
X79565500Y-57340500D02*
X79565500Y-58046620D01*
X80962500Y-59753500D02*
X80962500Y-59047380D01*
X80962500Y-59753500D02*
X79565500Y-59753500D01*
X79565500Y-59753500D02*
X79565500Y-59047380D01*
X79057500Y-77477620D02*
X79057500Y-76771500D01*
X79057500Y-76771500D02*
X77660500Y-76771500D01*
X77660500Y-76771500D02*
X77660500Y-77477620D01*
X79057500Y-79184500D02*
X79057500Y-78478380D01*
X79057500Y-79184500D02*
X77660500Y-79184500D01*
X77660500Y-79184500D02*
X77660500Y-78478380D01*
D17*
X78689200Y-38366700D02*
X80822800Y-38366700D01*
X80822800Y-38366700D02*
X80822800Y-33642300D01*
X80822800Y-33642300D02*
X78689200Y-33642300D01*
X78689200Y-33642300D02*
X78689200Y-38366700D01*
D25*
G36*
X105562400Y-53332380D02*
X105557320Y-53903880D01*
X105491280Y-54483000D01*
X105376980Y-54996080D01*
X105328720Y-55133240D01*
X105204260Y-55425340D01*
X105145840Y-55504080D01*
X105145840Y-53266340D01*
X105120440Y-52636420D01*
X104962960Y-52039520D01*
X104670860Y-51506120D01*
X104541320Y-51346100D01*
X104358440Y-51147980D01*
X104226360Y-51018440D01*
X104178100Y-50987960D01*
X104183180Y-51076860D01*
X104218740Y-51282600D01*
X104272080Y-51521360D01*
X104381300Y-52283360D01*
X104343200Y-53030120D01*
X104152700Y-53802280D01*
X104081580Y-53997860D01*
X103987600Y-54211220D01*
X103906320Y-54340760D01*
X103880920Y-54356000D01*
X103850440Y-54282340D01*
X103845360Y-54094380D01*
X103852980Y-53997860D01*
X103870760Y-53784500D01*
X103860600Y-53721000D01*
X103814880Y-53792120D01*
X103786940Y-53848000D01*
X103672640Y-54071520D01*
X103532940Y-54320440D01*
X103527860Y-54330600D01*
X103370380Y-54599840D01*
X103677720Y-54744620D01*
X103901240Y-54889400D01*
X104058720Y-55059580D01*
X104076500Y-55090060D01*
X104106980Y-55267860D01*
X104005380Y-55412640D01*
X103941880Y-55445660D01*
X103941880Y-55242460D01*
X103919020Y-55217060D01*
X103751380Y-55239920D01*
X103715820Y-55245000D01*
X103535480Y-55270400D01*
X103502460Y-55255160D01*
X103588820Y-55194200D01*
X103748840Y-55095140D01*
X103797100Y-55034180D01*
X103766620Y-54963060D01*
X103759000Y-54950360D01*
X103657400Y-54917340D01*
X103454200Y-55003700D01*
X103408480Y-55029100D01*
X103172260Y-55158640D01*
X103063040Y-55194200D01*
X103090980Y-55138320D01*
X103251000Y-54993540D01*
X103398320Y-54853840D01*
X103418640Y-54782720D01*
X103337360Y-54782720D01*
X103179880Y-54846220D01*
X102971600Y-54968140D01*
X102834440Y-55064660D01*
X102626160Y-55232300D01*
X102534720Y-55338980D01*
X102539800Y-55420260D01*
X102598220Y-55488840D01*
X102773480Y-55598060D01*
X103014780Y-55615840D01*
X103362760Y-55547260D01*
X103380540Y-55542180D01*
X103634540Y-55448200D01*
X103837740Y-55333900D01*
X103847900Y-55326280D01*
X103941880Y-55242460D01*
X103941880Y-55445660D01*
X103761540Y-55542180D01*
X103482140Y-55631080D01*
X103240840Y-55725060D01*
X103070660Y-55834280D01*
X103040180Y-55869840D01*
X102974140Y-55943500D01*
X102956360Y-55902860D01*
X102908100Y-55803800D01*
X102824280Y-55819040D01*
X102786180Y-55923180D01*
X102740460Y-56034940D01*
X102699820Y-56050180D01*
X102636320Y-55976520D01*
X102616000Y-55839360D01*
X102537260Y-55613300D01*
X102303580Y-55448200D01*
X101917500Y-55344060D01*
X101711760Y-55318660D01*
X101219000Y-55275480D01*
X101452680Y-55427880D01*
X101610160Y-55549800D01*
X101683820Y-55641240D01*
X101683820Y-55646320D01*
X101607620Y-55679340D01*
X101404420Y-55702200D01*
X101137720Y-55712360D01*
X100810060Y-55727600D01*
X100647500Y-55783480D01*
X100647500Y-55882540D01*
X100807520Y-56029860D01*
X100975160Y-56141620D01*
X101457760Y-56365140D01*
X101968300Y-56446420D01*
X102527100Y-56382920D01*
X103042720Y-56227980D01*
X103390700Y-56055260D01*
X103766620Y-55806340D01*
X103992680Y-55620920D01*
X104462580Y-55110380D01*
X104813100Y-54528720D01*
X105041700Y-53903880D01*
X105145840Y-53266340D01*
X105145840Y-55504080D01*
X105072180Y-55605680D01*
X104886760Y-55737760D01*
X104785160Y-55791100D01*
X104500680Y-55897780D01*
X104221280Y-55961280D01*
X104145080Y-55966360D01*
X103926640Y-56001920D01*
X103626920Y-56100980D01*
X103306880Y-56238140D01*
X103306880Y-56240680D01*
X102925880Y-56405780D01*
X102585520Y-56494680D01*
X102191820Y-56530240D01*
X102153720Y-56532780D01*
X101818440Y-56532780D01*
X101523800Y-56512460D01*
X101338380Y-56481980D01*
X100954840Y-56299100D01*
X100655120Y-56042560D01*
X100538280Y-55874920D01*
X100477320Y-55709820D01*
X100515420Y-55610760D01*
X100675440Y-55557420D01*
X100980240Y-55539640D01*
X101036120Y-55539640D01*
X101389180Y-55537100D01*
X101048820Y-55377080D01*
X100711000Y-55217060D01*
X101559360Y-55209440D01*
X101991160Y-55199280D01*
X102298500Y-55168800D01*
X102537260Y-55097680D01*
X102748080Y-54973220D01*
X102984300Y-54777640D01*
X103068120Y-54703980D01*
X103324660Y-54396640D01*
X103553260Y-54000400D01*
X103705660Y-53599080D01*
X103715820Y-53553360D01*
X103781860Y-53380640D01*
X103863140Y-53317140D01*
X103865680Y-53317140D01*
X103939340Y-53253640D01*
X104007920Y-53065680D01*
X104066340Y-52788820D01*
X104109520Y-52471320D01*
X104124760Y-52151280D01*
X104114600Y-51930300D01*
X103997760Y-51386740D01*
X103776780Y-50868580D01*
X103482140Y-50441860D01*
X103441500Y-50398680D01*
X103281480Y-50223420D01*
X103233220Y-50144680D01*
X103309420Y-50157380D01*
X103515160Y-50258980D01*
X103685340Y-50352960D01*
X104292400Y-50782220D01*
X104805480Y-51338480D01*
X105206800Y-51988720D01*
X105470960Y-52702460D01*
X105503980Y-52844700D01*
X105562400Y-53332380D01*
X105562400Y-53332380D01*
X105562400Y-53332380D01*
G37*
X105562400Y-53332380D02*
X105557320Y-53903880D01*
X105491280Y-54483000D01*
X105376980Y-54996080D01*
X105328720Y-55133240D01*
X105204260Y-55425340D01*
X105145840Y-55504080D01*
X105145840Y-53266340D01*
X105120440Y-52636420D01*
X104962960Y-52039520D01*
X104670860Y-51506120D01*
X104541320Y-51346100D01*
X104358440Y-51147980D01*
X104226360Y-51018440D01*
X104178100Y-50987960D01*
X104183180Y-51076860D01*
X104218740Y-51282600D01*
X104272080Y-51521360D01*
X104381300Y-52283360D01*
X104343200Y-53030120D01*
X104152700Y-53802280D01*
X104081580Y-53997860D01*
X103987600Y-54211220D01*
X103906320Y-54340760D01*
X103880920Y-54356000D01*
X103850440Y-54282340D01*
X103845360Y-54094380D01*
X103852980Y-53997860D01*
X103870760Y-53784500D01*
X103860600Y-53721000D01*
X103814880Y-53792120D01*
X103786940Y-53848000D01*
X103672640Y-54071520D01*
X103532940Y-54320440D01*
X103527860Y-54330600D01*
X103370380Y-54599840D01*
X103677720Y-54744620D01*
X103901240Y-54889400D01*
X104058720Y-55059580D01*
X104076500Y-55090060D01*
X104106980Y-55267860D01*
X104005380Y-55412640D01*
X103941880Y-55445660D01*
X103941880Y-55242460D01*
X103919020Y-55217060D01*
X103751380Y-55239920D01*
X103715820Y-55245000D01*
X103535480Y-55270400D01*
X103502460Y-55255160D01*
X103588820Y-55194200D01*
X103748840Y-55095140D01*
X103797100Y-55034180D01*
X103766620Y-54963060D01*
X103759000Y-54950360D01*
X103657400Y-54917340D01*
X103454200Y-55003700D01*
X103408480Y-55029100D01*
X103172260Y-55158640D01*
X103063040Y-55194200D01*
X103090980Y-55138320D01*
X103251000Y-54993540D01*
X103398320Y-54853840D01*
X103418640Y-54782720D01*
X103337360Y-54782720D01*
X103179880Y-54846220D01*
X102971600Y-54968140D01*
X102834440Y-55064660D01*
X102626160Y-55232300D01*
X102534720Y-55338980D01*
X102539800Y-55420260D01*
X102598220Y-55488840D01*
X102773480Y-55598060D01*
X103014780Y-55615840D01*
X103362760Y-55547260D01*
X103380540Y-55542180D01*
X103634540Y-55448200D01*
X103837740Y-55333900D01*
X103847900Y-55326280D01*
X103941880Y-55242460D01*
X103941880Y-55445660D01*
X103761540Y-55542180D01*
X103482140Y-55631080D01*
X103240840Y-55725060D01*
X103070660Y-55834280D01*
X103040180Y-55869840D01*
X102974140Y-55943500D01*
X102956360Y-55902860D01*
X102908100Y-55803800D01*
X102824280Y-55819040D01*
X102786180Y-55923180D01*
X102740460Y-56034940D01*
X102699820Y-56050180D01*
X102636320Y-55976520D01*
X102616000Y-55839360D01*
X102537260Y-55613300D01*
X102303580Y-55448200D01*
X101917500Y-55344060D01*
X101711760Y-55318660D01*
X101219000Y-55275480D01*
X101452680Y-55427880D01*
X101610160Y-55549800D01*
X101683820Y-55641240D01*
X101683820Y-55646320D01*
X101607620Y-55679340D01*
X101404420Y-55702200D01*
X101137720Y-55712360D01*
X100810060Y-55727600D01*
X100647500Y-55783480D01*
X100647500Y-55882540D01*
X100807520Y-56029860D01*
X100975160Y-56141620D01*
X101457760Y-56365140D01*
X101968300Y-56446420D01*
X102527100Y-56382920D01*
X103042720Y-56227980D01*
X103390700Y-56055260D01*
X103766620Y-55806340D01*
X103992680Y-55620920D01*
X104462580Y-55110380D01*
X104813100Y-54528720D01*
X105041700Y-53903880D01*
X105145840Y-53266340D01*
X105145840Y-55504080D01*
X105072180Y-55605680D01*
X104886760Y-55737760D01*
X104785160Y-55791100D01*
X104500680Y-55897780D01*
X104221280Y-55961280D01*
X104145080Y-55966360D01*
X103926640Y-56001920D01*
X103626920Y-56100980D01*
X103306880Y-56238140D01*
X103306880Y-56240680D01*
X102925880Y-56405780D01*
X102585520Y-56494680D01*
X102191820Y-56530240D01*
X102153720Y-56532780D01*
X101818440Y-56532780D01*
X101523800Y-56512460D01*
X101338380Y-56481980D01*
X100954840Y-56299100D01*
X100655120Y-56042560D01*
X100538280Y-55874920D01*
X100477320Y-55709820D01*
X100515420Y-55610760D01*
X100675440Y-55557420D01*
X100980240Y-55539640D01*
X101036120Y-55539640D01*
X101389180Y-55537100D01*
X101048820Y-55377080D01*
X100711000Y-55217060D01*
X101559360Y-55209440D01*
X101991160Y-55199280D01*
X102298500Y-55168800D01*
X102537260Y-55097680D01*
X102748080Y-54973220D01*
X102984300Y-54777640D01*
X103068120Y-54703980D01*
X103324660Y-54396640D01*
X103553260Y-54000400D01*
X103705660Y-53599080D01*
X103715820Y-53553360D01*
X103781860Y-53380640D01*
X103863140Y-53317140D01*
X103865680Y-53317140D01*
X103939340Y-53253640D01*
X104007920Y-53065680D01*
X104066340Y-52788820D01*
X104109520Y-52471320D01*
X104124760Y-52151280D01*
X104114600Y-51930300D01*
X103997760Y-51386740D01*
X103776780Y-50868580D01*
X103482140Y-50441860D01*
X103441500Y-50398680D01*
X103281480Y-50223420D01*
X103233220Y-50144680D01*
X103309420Y-50157380D01*
X103515160Y-50258980D01*
X103685340Y-50352960D01*
X104292400Y-50782220D01*
X104805480Y-51338480D01*
X105206800Y-51988720D01*
X105470960Y-52702460D01*
X105503980Y-52844700D01*
X105562400Y-53332380D01*
X105562400Y-53332380D01*
G36*
X103360220Y-50634900D02*
X103357680Y-50647600D01*
X103258620Y-50721260D01*
X103162100Y-50746660D01*
X103162100Y-50566320D01*
X103136700Y-50487580D01*
X103124000Y-50462180D01*
X102918260Y-50238660D01*
X102585520Y-50063400D01*
X102168960Y-49951640D01*
X101765100Y-49918620D01*
X101394260Y-49938940D01*
X101064060Y-50015140D01*
X100693220Y-50162460D01*
X100644960Y-50185320D01*
X100032820Y-50553620D01*
X99524820Y-51015900D01*
X99128580Y-51556920D01*
X98846640Y-52148740D01*
X98689160Y-52773580D01*
X98658680Y-53408580D01*
X98760280Y-54028340D01*
X99001580Y-54615080D01*
X99357180Y-55107840D01*
X99532440Y-55298340D01*
X99656900Y-55425340D01*
X99695000Y-55458360D01*
X99687380Y-55384700D01*
X99636580Y-55199280D01*
X99590860Y-55054500D01*
X99494340Y-54607460D01*
X99456240Y-54089300D01*
X99471480Y-53548280D01*
X99537520Y-53022500D01*
X99649280Y-52560220D01*
X99801680Y-52202080D01*
X99865180Y-52113180D01*
X99943920Y-52021740D01*
X99974400Y-52039520D01*
X99966780Y-52186840D01*
X99949000Y-52324000D01*
X99898200Y-52705000D01*
X100154740Y-52250340D01*
X100309680Y-51945540D01*
X100357940Y-51755040D01*
X100304600Y-51663600D01*
X100213160Y-51648360D01*
X100093780Y-51589940D01*
X99918520Y-51447700D01*
X99857560Y-51386740D01*
X99611180Y-51125120D01*
X99814380Y-50960020D01*
X100030280Y-50830480D01*
X100309680Y-50716180D01*
X100385880Y-50693320D01*
X100639880Y-50596800D01*
X100751640Y-50487580D01*
X100754180Y-50464720D01*
X100766880Y-50378360D01*
X100825300Y-50446940D01*
X100835460Y-50459640D01*
X100901500Y-50540920D01*
X100965000Y-50515520D01*
X101061520Y-50363120D01*
X101076760Y-50335180D01*
X101147880Y-50220880D01*
X101170740Y-50261520D01*
X101173280Y-50360580D01*
X101252020Y-50665380D01*
X101470460Y-50883820D01*
X101828600Y-51013360D01*
X102278180Y-51051460D01*
X102572820Y-51048920D01*
X102341680Y-50906680D01*
X102179120Y-50787300D01*
X102108000Y-50698400D01*
X102108000Y-50695860D01*
X102184200Y-50662840D01*
X102387400Y-50639980D01*
X102661720Y-50632360D01*
X102956360Y-50627280D01*
X103111300Y-50609500D01*
X103162100Y-50566320D01*
X103162100Y-50746660D01*
X103045260Y-50779680D01*
X102905560Y-50800000D01*
X102489000Y-50843180D01*
X102778560Y-50949860D01*
X102969060Y-51036220D01*
X102999540Y-51099720D01*
X102867460Y-51140360D01*
X102572820Y-51158140D01*
X102212140Y-51155600D01*
X101823520Y-51155600D01*
X101554280Y-51178460D01*
X101348540Y-51231800D01*
X101269800Y-51267360D01*
X101269800Y-51033680D01*
X101267260Y-50949860D01*
X101203760Y-50868580D01*
X101041200Y-50751740D01*
X100817680Y-50726340D01*
X100505260Y-50787300D01*
X100302060Y-50850800D01*
X100037900Y-50954940D01*
X99882960Y-51046380D01*
X99849940Y-51107340D01*
X99956620Y-51122580D01*
X100086160Y-51104800D01*
X100263960Y-51076860D01*
X100289360Y-51092100D01*
X100182680Y-51153060D01*
X100037900Y-51249580D01*
X99992180Y-51315620D01*
X100050600Y-51419760D01*
X100223320Y-51409600D01*
X100472240Y-51300380D01*
X100794820Y-51122580D01*
X100558600Y-51341020D01*
X100423980Y-51490880D01*
X100416360Y-51556920D01*
X100515420Y-51546760D01*
X100703380Y-51457860D01*
X100957380Y-51295300D01*
X100959920Y-51292760D01*
X101175820Y-51135280D01*
X101269800Y-51033680D01*
X101269800Y-51267360D01*
X101152960Y-51323240D01*
X101142800Y-51330860D01*
X100711000Y-51671220D01*
X100360480Y-52136040D01*
X100152200Y-52595780D01*
X100055680Y-52837080D01*
X99966780Y-52992020D01*
X99918520Y-53025040D01*
X99865180Y-53093620D01*
X99799140Y-53284120D01*
X99735640Y-53555900D01*
X99679760Y-54259480D01*
X99781360Y-54912260D01*
X100037900Y-55506620D01*
X100324920Y-55905400D01*
X100477320Y-56085740D01*
X100563680Y-56197500D01*
X100571300Y-56217820D01*
X100487480Y-56179720D01*
X100302060Y-56078120D01*
X100088700Y-55956200D01*
X99461320Y-55506620D01*
X98955860Y-54947820D01*
X98579940Y-54302660D01*
X98336100Y-53588920D01*
X98234500Y-52821840D01*
X98280220Y-52026820D01*
X98440240Y-51335940D01*
X98643440Y-50899060D01*
X98938080Y-50601880D01*
X99331780Y-50436780D01*
X99547680Y-50401220D01*
X99839780Y-50342800D01*
X100195380Y-50225960D01*
X100469700Y-50106580D01*
X101025960Y-49903380D01*
X101612700Y-49801780D01*
X102174040Y-49811940D01*
X102420420Y-49862740D01*
X102666800Y-49964340D01*
X102923340Y-50124360D01*
X103151940Y-50312320D01*
X103309420Y-50495200D01*
X103360220Y-50634900D01*
X103360220Y-50634900D01*
X103360220Y-50634900D01*
G37*
X103360220Y-50634900D02*
X103357680Y-50647600D01*
X103258620Y-50721260D01*
X103162100Y-50746660D01*
X103162100Y-50566320D01*
X103136700Y-50487580D01*
X103124000Y-50462180D01*
X102918260Y-50238660D01*
X102585520Y-50063400D01*
X102168960Y-49951640D01*
X101765100Y-49918620D01*
X101394260Y-49938940D01*
X101064060Y-50015140D01*
X100693220Y-50162460D01*
X100644960Y-50185320D01*
X100032820Y-50553620D01*
X99524820Y-51015900D01*
X99128580Y-51556920D01*
X98846640Y-52148740D01*
X98689160Y-52773580D01*
X98658680Y-53408580D01*
X98760280Y-54028340D01*
X99001580Y-54615080D01*
X99357180Y-55107840D01*
X99532440Y-55298340D01*
X99656900Y-55425340D01*
X99695000Y-55458360D01*
X99687380Y-55384700D01*
X99636580Y-55199280D01*
X99590860Y-55054500D01*
X99494340Y-54607460D01*
X99456240Y-54089300D01*
X99471480Y-53548280D01*
X99537520Y-53022500D01*
X99649280Y-52560220D01*
X99801680Y-52202080D01*
X99865180Y-52113180D01*
X99943920Y-52021740D01*
X99974400Y-52039520D01*
X99966780Y-52186840D01*
X99949000Y-52324000D01*
X99898200Y-52705000D01*
X100154740Y-52250340D01*
X100309680Y-51945540D01*
X100357940Y-51755040D01*
X100304600Y-51663600D01*
X100213160Y-51648360D01*
X100093780Y-51589940D01*
X99918520Y-51447700D01*
X99857560Y-51386740D01*
X99611180Y-51125120D01*
X99814380Y-50960020D01*
X100030280Y-50830480D01*
X100309680Y-50716180D01*
X100385880Y-50693320D01*
X100639880Y-50596800D01*
X100751640Y-50487580D01*
X100754180Y-50464720D01*
X100766880Y-50378360D01*
X100825300Y-50446940D01*
X100835460Y-50459640D01*
X100901500Y-50540920D01*
X100965000Y-50515520D01*
X101061520Y-50363120D01*
X101076760Y-50335180D01*
X101147880Y-50220880D01*
X101170740Y-50261520D01*
X101173280Y-50360580D01*
X101252020Y-50665380D01*
X101470460Y-50883820D01*
X101828600Y-51013360D01*
X102278180Y-51051460D01*
X102572820Y-51048920D01*
X102341680Y-50906680D01*
X102179120Y-50787300D01*
X102108000Y-50698400D01*
X102108000Y-50695860D01*
X102184200Y-50662840D01*
X102387400Y-50639980D01*
X102661720Y-50632360D01*
X102956360Y-50627280D01*
X103111300Y-50609500D01*
X103162100Y-50566320D01*
X103162100Y-50746660D01*
X103045260Y-50779680D01*
X102905560Y-50800000D01*
X102489000Y-50843180D01*
X102778560Y-50949860D01*
X102969060Y-51036220D01*
X102999540Y-51099720D01*
X102867460Y-51140360D01*
X102572820Y-51158140D01*
X102212140Y-51155600D01*
X101823520Y-51155600D01*
X101554280Y-51178460D01*
X101348540Y-51231800D01*
X101269800Y-51267360D01*
X101269800Y-51033680D01*
X101267260Y-50949860D01*
X101203760Y-50868580D01*
X101041200Y-50751740D01*
X100817680Y-50726340D01*
X100505260Y-50787300D01*
X100302060Y-50850800D01*
X100037900Y-50954940D01*
X99882960Y-51046380D01*
X99849940Y-51107340D01*
X99956620Y-51122580D01*
X100086160Y-51104800D01*
X100263960Y-51076860D01*
X100289360Y-51092100D01*
X100182680Y-51153060D01*
X100037900Y-51249580D01*
X99992180Y-51315620D01*
X100050600Y-51419760D01*
X100223320Y-51409600D01*
X100472240Y-51300380D01*
X100794820Y-51122580D01*
X100558600Y-51341020D01*
X100423980Y-51490880D01*
X100416360Y-51556920D01*
X100515420Y-51546760D01*
X100703380Y-51457860D01*
X100957380Y-51295300D01*
X100959920Y-51292760D01*
X101175820Y-51135280D01*
X101269800Y-51033680D01*
X101269800Y-51267360D01*
X101152960Y-51323240D01*
X101142800Y-51330860D01*
X100711000Y-51671220D01*
X100360480Y-52136040D01*
X100152200Y-52595780D01*
X100055680Y-52837080D01*
X99966780Y-52992020D01*
X99918520Y-53025040D01*
X99865180Y-53093620D01*
X99799140Y-53284120D01*
X99735640Y-53555900D01*
X99679760Y-54259480D01*
X99781360Y-54912260D01*
X100037900Y-55506620D01*
X100324920Y-55905400D01*
X100477320Y-56085740D01*
X100563680Y-56197500D01*
X100571300Y-56217820D01*
X100487480Y-56179720D01*
X100302060Y-56078120D01*
X100088700Y-55956200D01*
X99461320Y-55506620D01*
X98955860Y-54947820D01*
X98579940Y-54302660D01*
X98336100Y-53588920D01*
X98234500Y-52821840D01*
X98280220Y-52026820D01*
X98440240Y-51335940D01*
X98643440Y-50899060D01*
X98938080Y-50601880D01*
X99331780Y-50436780D01*
X99547680Y-50401220D01*
X99839780Y-50342800D01*
X100195380Y-50225960D01*
X100469700Y-50106580D01*
X101025960Y-49903380D01*
X101612700Y-49801780D01*
X102174040Y-49811940D01*
X102420420Y-49862740D01*
X102666800Y-49964340D01*
X102923340Y-50124360D01*
X103151940Y-50312320D01*
X103309420Y-50495200D01*
X103360220Y-50634900D01*
X103360220Y-50634900D01*
G36*
X103675180Y-53172360D02*
X103626920Y-53218080D01*
X103423720Y-53246020D01*
X103106220Y-53256180D01*
X102791260Y-53266340D01*
X102534720Y-53289200D01*
X102392480Y-53319680D01*
X102387400Y-53322220D01*
X102377240Y-53411120D01*
X102486460Y-53596540D01*
X102715060Y-53875940D01*
X102913180Y-54112160D01*
X103047800Y-54300120D01*
X103098600Y-54404260D01*
X103096060Y-54411880D01*
X103017320Y-54381400D01*
X102849680Y-54256940D01*
X102631240Y-54063900D01*
X102590600Y-54028340D01*
X102362000Y-53817520D01*
X102181660Y-53665120D01*
X102082600Y-53596540D01*
X102077520Y-53594000D01*
X102041960Y-53670200D01*
X102019100Y-53855620D01*
X102016560Y-53911500D01*
X101998780Y-54229000D01*
X101963220Y-54523640D01*
X101917500Y-54757320D01*
X101866700Y-54889400D01*
X101833680Y-54899560D01*
X101800660Y-54790340D01*
X101777800Y-54556660D01*
X101770180Y-54251860D01*
X101770180Y-54216300D01*
X101762560Y-53916580D01*
X101744780Y-53695600D01*
X101721920Y-53596540D01*
X101716840Y-53594000D01*
X101633020Y-53647340D01*
X101455220Y-53781960D01*
X101221540Y-53977540D01*
X101163120Y-54028340D01*
X100921820Y-54226460D01*
X100731320Y-54363620D01*
X100622100Y-54416960D01*
X100611940Y-54414420D01*
X100644960Y-54335680D01*
X100769420Y-54168040D01*
X100967540Y-53941980D01*
X101038660Y-53865780D01*
X101252020Y-53629560D01*
X101399340Y-53439060D01*
X101460300Y-53327300D01*
X101457760Y-53312060D01*
X101351080Y-53284120D01*
X101122480Y-53263800D01*
X100817680Y-53256180D01*
X100782120Y-53256180D01*
X100467160Y-53246020D01*
X100248720Y-53215540D01*
X100159820Y-53174900D01*
X100159820Y-53172360D01*
X100238560Y-53129180D01*
X100451920Y-53098700D01*
X100764340Y-53086000D01*
X100789740Y-53086000D01*
X101099620Y-53078380D01*
X101335840Y-53055520D01*
X101457760Y-53025040D01*
X101460300Y-53019960D01*
X101429820Y-52928520D01*
X101307900Y-52750720D01*
X101119940Y-52517040D01*
X101074220Y-52466240D01*
X100878640Y-52230020D01*
X100744020Y-52042060D01*
X100693220Y-51937920D01*
X100695760Y-51930300D01*
X100774500Y-51960780D01*
X100942140Y-52085240D01*
X101163120Y-52280820D01*
X101213920Y-52329080D01*
X101442520Y-52534820D01*
X101625400Y-52674520D01*
X101724460Y-52730400D01*
X101734620Y-52727860D01*
X101762560Y-52626260D01*
X101795580Y-52400200D01*
X101823520Y-52095400D01*
X101828600Y-52039520D01*
X101869240Y-51683920D01*
X101914960Y-51495960D01*
X101958140Y-51470560D01*
X101996240Y-51602640D01*
X102019100Y-51894740D01*
X102024180Y-52118260D01*
X102034340Y-52458620D01*
X102067360Y-52677060D01*
X102113080Y-52748180D01*
X102214680Y-52692300D01*
X102397560Y-52550060D01*
X102628700Y-52344320D01*
X102664260Y-52311300D01*
X102941120Y-52067460D01*
X103113840Y-51950620D01*
X103174800Y-51950620D01*
X103121460Y-52064920D01*
X102946200Y-52278280D01*
X102755700Y-52478940D01*
X102539800Y-52712620D01*
X102389940Y-52900580D01*
X102328980Y-53012340D01*
X102331520Y-53027580D01*
X102438200Y-53055520D01*
X102669340Y-53078380D01*
X102971600Y-53086000D01*
X103004620Y-53086000D01*
X103314500Y-53096160D01*
X103550720Y-53126640D01*
X103670100Y-53167280D01*
X103675180Y-53172360D01*
X103675180Y-53172360D01*
X103675180Y-53172360D01*
G37*
X103675180Y-53172360D02*
X103626920Y-53218080D01*
X103423720Y-53246020D01*
X103106220Y-53256180D01*
X102791260Y-53266340D01*
X102534720Y-53289200D01*
X102392480Y-53319680D01*
X102387400Y-53322220D01*
X102377240Y-53411120D01*
X102486460Y-53596540D01*
X102715060Y-53875940D01*
X102913180Y-54112160D01*
X103047800Y-54300120D01*
X103098600Y-54404260D01*
X103096060Y-54411880D01*
X103017320Y-54381400D01*
X102849680Y-54256940D01*
X102631240Y-54063900D01*
X102590600Y-54028340D01*
X102362000Y-53817520D01*
X102181660Y-53665120D01*
X102082600Y-53596540D01*
X102077520Y-53594000D01*
X102041960Y-53670200D01*
X102019100Y-53855620D01*
X102016560Y-53911500D01*
X101998780Y-54229000D01*
X101963220Y-54523640D01*
X101917500Y-54757320D01*
X101866700Y-54889400D01*
X101833680Y-54899560D01*
X101800660Y-54790340D01*
X101777800Y-54556660D01*
X101770180Y-54251860D01*
X101770180Y-54216300D01*
X101762560Y-53916580D01*
X101744780Y-53695600D01*
X101721920Y-53596540D01*
X101716840Y-53594000D01*
X101633020Y-53647340D01*
X101455220Y-53781960D01*
X101221540Y-53977540D01*
X101163120Y-54028340D01*
X100921820Y-54226460D01*
X100731320Y-54363620D01*
X100622100Y-54416960D01*
X100611940Y-54414420D01*
X100644960Y-54335680D01*
X100769420Y-54168040D01*
X100967540Y-53941980D01*
X101038660Y-53865780D01*
X101252020Y-53629560D01*
X101399340Y-53439060D01*
X101460300Y-53327300D01*
X101457760Y-53312060D01*
X101351080Y-53284120D01*
X101122480Y-53263800D01*
X100817680Y-53256180D01*
X100782120Y-53256180D01*
X100467160Y-53246020D01*
X100248720Y-53215540D01*
X100159820Y-53174900D01*
X100159820Y-53172360D01*
X100238560Y-53129180D01*
X100451920Y-53098700D01*
X100764340Y-53086000D01*
X100789740Y-53086000D01*
X101099620Y-53078380D01*
X101335840Y-53055520D01*
X101457760Y-53025040D01*
X101460300Y-53019960D01*
X101429820Y-52928520D01*
X101307900Y-52750720D01*
X101119940Y-52517040D01*
X101074220Y-52466240D01*
X100878640Y-52230020D01*
X100744020Y-52042060D01*
X100693220Y-51937920D01*
X100695760Y-51930300D01*
X100774500Y-51960780D01*
X100942140Y-52085240D01*
X101163120Y-52280820D01*
X101213920Y-52329080D01*
X101442520Y-52534820D01*
X101625400Y-52674520D01*
X101724460Y-52730400D01*
X101734620Y-52727860D01*
X101762560Y-52626260D01*
X101795580Y-52400200D01*
X101823520Y-52095400D01*
X101828600Y-52039520D01*
X101869240Y-51683920D01*
X101914960Y-51495960D01*
X101958140Y-51470560D01*
X101996240Y-51602640D01*
X102019100Y-51894740D01*
X102024180Y-52118260D01*
X102034340Y-52458620D01*
X102067360Y-52677060D01*
X102113080Y-52748180D01*
X102214680Y-52692300D01*
X102397560Y-52550060D01*
X102628700Y-52344320D01*
X102664260Y-52311300D01*
X102941120Y-52067460D01*
X103113840Y-51950620D01*
X103174800Y-51950620D01*
X103121460Y-52064920D01*
X102946200Y-52278280D01*
X102755700Y-52478940D01*
X102539800Y-52712620D01*
X102389940Y-52900580D01*
X102328980Y-53012340D01*
X102331520Y-53027580D01*
X102438200Y-53055520D01*
X102669340Y-53078380D01*
X102971600Y-53086000D01*
X103004620Y-53086000D01*
X103314500Y-53096160D01*
X103550720Y-53126640D01*
X103670100Y-53167280D01*
X103675180Y-53172360D01*
X103675180Y-53172360D01*
G36*
X101658420Y-56062880D02*
X101572060Y-56128920D01*
X101521260Y-56134000D01*
X101376480Y-56080660D01*
X101346000Y-56001920D01*
X101409500Y-55900320D01*
X101485700Y-55895240D01*
X101627940Y-55966360D01*
X101658420Y-56062880D01*
X101658420Y-56062880D01*
X101658420Y-56062880D01*
G37*
X101658420Y-56062880D02*
X101572060Y-56128920D01*
X101521260Y-56134000D01*
X101376480Y-56080660D01*
X101346000Y-56001920D01*
X101409500Y-55900320D01*
X101485700Y-55895240D01*
X101627940Y-55966360D01*
X101658420Y-56062880D01*
X101658420Y-56062880D01*
G36*
X104566720Y-54706520D02*
X104533700Y-54869080D01*
X104432100Y-55008780D01*
X104391460Y-55034180D01*
X104249220Y-55079900D01*
X104173020Y-54998620D01*
X104167940Y-54983380D01*
X104167940Y-54780180D01*
X104287320Y-54607460D01*
X104424480Y-54541420D01*
X104533700Y-54576980D01*
X104566720Y-54706520D01*
X104566720Y-54706520D01*
X104566720Y-54706520D01*
G37*
X104566720Y-54706520D02*
X104533700Y-54869080D01*
X104432100Y-55008780D01*
X104391460Y-55034180D01*
X104249220Y-55079900D01*
X104173020Y-54998620D01*
X104167940Y-54983380D01*
X104167940Y-54780180D01*
X104287320Y-54607460D01*
X104424480Y-54541420D01*
X104533700Y-54576980D01*
X104566720Y-54706520D01*
X104566720Y-54706520D01*
G36*
X104465120Y-54063900D02*
X104383840Y-54213760D01*
X104322880Y-54254400D01*
X104239060Y-54229000D01*
X104236520Y-54140100D01*
X104317800Y-53992780D01*
X104381300Y-53952140D01*
X104465120Y-53977540D01*
X104465120Y-54063900D01*
X104465120Y-54063900D01*
X104465120Y-54063900D01*
G37*
X104465120Y-54063900D02*
X104383840Y-54213760D01*
X104322880Y-54254400D01*
X104239060Y-54229000D01*
X104236520Y-54140100D01*
X104317800Y-53992780D01*
X104381300Y-53952140D01*
X104465120Y-53977540D01*
X104465120Y-54063900D01*
X104465120Y-54063900D01*
G36*
X104902000Y-53802280D02*
X104856280Y-53916580D01*
X104818180Y-53934360D01*
X104734360Y-53873400D01*
X104731820Y-53853080D01*
X104792780Y-53738780D01*
X104818180Y-53721000D01*
X104889300Y-53741320D01*
X104902000Y-53802280D01*
X104902000Y-53802280D01*
X104902000Y-53802280D01*
G37*
X104902000Y-53802280D02*
X104856280Y-53916580D01*
X104818180Y-53934360D01*
X104734360Y-53873400D01*
X104731820Y-53853080D01*
X104792780Y-53738780D01*
X104818180Y-53721000D01*
X104889300Y-53741320D01*
X104902000Y-53802280D01*
X104902000Y-53802280D01*
G36*
X104731820Y-53202840D02*
X104691180Y-53385720D01*
X104599740Y-53517800D01*
X104493060Y-53553360D01*
X104434640Y-53510180D01*
X104409240Y-53360320D01*
X104429560Y-53207920D01*
X104515920Y-53045360D01*
X104630220Y-53007260D01*
X104716580Y-53096160D01*
X104731820Y-53202840D01*
X104731820Y-53202840D01*
X104731820Y-53202840D01*
G37*
X104731820Y-53202840D02*
X104691180Y-53385720D01*
X104599740Y-53517800D01*
X104493060Y-53553360D01*
X104434640Y-53510180D01*
X104409240Y-53360320D01*
X104429560Y-53207920D01*
X104515920Y-53045360D01*
X104630220Y-53007260D01*
X104716580Y-53096160D01*
X104731820Y-53202840D01*
X104731820Y-53202840D01*
G36*
X105054400Y-52791360D02*
X105013760Y-52923440D01*
X104904540Y-52964080D01*
X104874060Y-52946300D01*
X104820720Y-52821840D01*
X104828340Y-52671980D01*
X104886760Y-52580540D01*
X104904540Y-52578000D01*
X105008680Y-52646580D01*
X105054400Y-52791360D01*
X105054400Y-52791360D01*
X105054400Y-52791360D01*
G37*
X105054400Y-52791360D02*
X105013760Y-52923440D01*
X104904540Y-52964080D01*
X104874060Y-52946300D01*
X104820720Y-52821840D01*
X104828340Y-52671980D01*
X104886760Y-52580540D01*
X104904540Y-52578000D01*
X105008680Y-52646580D01*
X105054400Y-52791360D01*
X105054400Y-52791360D01*
G36*
X98971100Y-53642260D02*
X98927920Y-53751480D01*
X98894900Y-53764180D01*
X98780600Y-53703220D01*
X98767900Y-53687980D01*
X98750120Y-53560980D01*
X98795840Y-53433980D01*
X98877120Y-53380640D01*
X98899980Y-53388260D01*
X98960940Y-53492400D01*
X98971100Y-53642260D01*
X98971100Y-53642260D01*
X98971100Y-53642260D01*
G37*
X98971100Y-53642260D02*
X98927920Y-53751480D01*
X98894900Y-53764180D01*
X98780600Y-53703220D01*
X98767900Y-53687980D01*
X98750120Y-53560980D01*
X98795840Y-53433980D01*
X98877120Y-53380640D01*
X98899980Y-53388260D01*
X98960940Y-53492400D01*
X98971100Y-53642260D01*
X98971100Y-53642260D01*
G36*
X99385120Y-52999640D02*
X99382580Y-53022500D01*
X99324160Y-53218080D01*
X99225100Y-53327300D01*
X99126040Y-53332380D01*
X99065080Y-53218080D01*
X99060000Y-53152040D01*
X99110800Y-52936140D01*
X99232720Y-52783740D01*
X99336860Y-52748180D01*
X99377500Y-52821840D01*
X99385120Y-52999640D01*
X99385120Y-52999640D01*
X99385120Y-52999640D01*
G37*
X99385120Y-52999640D02*
X99382580Y-53022500D01*
X99324160Y-53218080D01*
X99225100Y-53327300D01*
X99126040Y-53332380D01*
X99065080Y-53218080D01*
X99060000Y-53152040D01*
X99110800Y-52936140D01*
X99232720Y-52783740D01*
X99336860Y-52748180D01*
X99377500Y-52821840D01*
X99385120Y-52999640D01*
X99385120Y-52999640D01*
G36*
X99060000Y-52537360D02*
X99014280Y-52649120D01*
X98976180Y-52664360D01*
X98899980Y-52595780D01*
X98889820Y-52537360D01*
X98935540Y-52423060D01*
X98976180Y-52410360D01*
X99049840Y-52476400D01*
X99060000Y-52537360D01*
X99060000Y-52537360D01*
X99060000Y-52537360D01*
G37*
X99060000Y-52537360D02*
X99014280Y-52649120D01*
X98976180Y-52664360D01*
X98899980Y-52595780D01*
X98889820Y-52537360D01*
X98935540Y-52423060D01*
X98976180Y-52410360D01*
X99049840Y-52476400D01*
X99060000Y-52537360D01*
X99060000Y-52537360D01*
G36*
X99555300Y-52202080D02*
X99474020Y-52349400D01*
X99410520Y-52390040D01*
X99326700Y-52364640D01*
X99326700Y-52278280D01*
X99407980Y-52128420D01*
X99468940Y-52087780D01*
X99552760Y-52113180D01*
X99555300Y-52202080D01*
X99555300Y-52202080D01*
X99555300Y-52202080D01*
G37*
X99555300Y-52202080D02*
X99474020Y-52349400D01*
X99410520Y-52390040D01*
X99326700Y-52364640D01*
X99326700Y-52278280D01*
X99407980Y-52128420D01*
X99468940Y-52087780D01*
X99552760Y-52113180D01*
X99555300Y-52202080D01*
X99555300Y-52202080D01*
G36*
X99623880Y-51554380D02*
X99512120Y-51737260D01*
X99413060Y-51798220D01*
X99303840Y-51760120D01*
X99260660Y-51689000D01*
X99275900Y-51516280D01*
X99382580Y-51371500D01*
X99512120Y-51254660D01*
X99575620Y-51257200D01*
X99621340Y-51346100D01*
X99623880Y-51554380D01*
X99623880Y-51554380D01*
X99623880Y-51554380D01*
G37*
X99623880Y-51554380D02*
X99512120Y-51737260D01*
X99413060Y-51798220D01*
X99303840Y-51760120D01*
X99260660Y-51689000D01*
X99275900Y-51516280D01*
X99382580Y-51371500D01*
X99512120Y-51254660D01*
X99575620Y-51257200D01*
X99621340Y-51346100D01*
X99623880Y-51554380D01*
X99623880Y-51554380D01*
G36*
X102466140Y-50294540D02*
X102453440Y-50391060D01*
X102341680Y-50444400D01*
X102214680Y-50411380D01*
X102191820Y-50335180D01*
X102252780Y-50228500D01*
X102334060Y-50223420D01*
X102466140Y-50294540D01*
X102466140Y-50294540D01*
X102466140Y-50294540D01*
G37*
X102466140Y-50294540D02*
X102453440Y-50391060D01*
X102341680Y-50444400D01*
X102214680Y-50411380D01*
X102191820Y-50335180D01*
X102252780Y-50228500D01*
X102334060Y-50223420D01*
X102466140Y-50294540D01*
X102466140Y-50294540D01*
D26*
G36*
X67138187Y-63151315D02*
X67202670Y-63152975D01*
X67249303Y-63155945D01*
X67269651Y-63159088D01*
X67299417Y-63167065D01*
X67299417Y-64087530D01*
X67089881Y-64080259D01*
X66880047Y-64080523D01*
X66685859Y-64097382D01*
X66501420Y-64132075D01*
X66320832Y-64185839D01*
X66138197Y-64259911D01*
X66062489Y-64295879D01*
X65881938Y-64394977D01*
X65719298Y-64506326D01*
X65566901Y-64635408D01*
X65507622Y-64692705D01*
X65350985Y-64867861D01*
X65215473Y-65058520D01*
X65101766Y-65263394D01*
X65010544Y-65481193D01*
X64942485Y-65710629D01*
X64922326Y-65803197D01*
X64910177Y-65887244D01*
X64902066Y-65990234D01*
X64897985Y-66104965D01*
X64897926Y-66224234D01*
X64901884Y-66340837D01*
X64909851Y-66447571D01*
X64921819Y-66537233D01*
X64923057Y-66544031D01*
X64978911Y-66772759D01*
X65058299Y-66990965D01*
X65159931Y-67197177D01*
X65282522Y-67389928D01*
X65424781Y-67567748D01*
X65585421Y-67729168D01*
X65763155Y-67872719D01*
X65956693Y-67996931D01*
X66164748Y-68100336D01*
X66348237Y-68169535D01*
X66451377Y-68201118D01*
X66546107Y-68225129D01*
X66638870Y-68242463D01*
X66736106Y-68254016D01*
X66844258Y-68260680D01*
X66969767Y-68263352D01*
X67024911Y-68263504D01*
X67299417Y-68263186D01*
X67299417Y-69180164D01*
X67269651Y-69188141D01*
X67244251Y-69191138D01*
X67197256Y-69193203D01*
X67133510Y-69194382D01*
X67057858Y-69194723D01*
X66975146Y-69194274D01*
X66890217Y-69193083D01*
X66807917Y-69191197D01*
X66733091Y-69188663D01*
X66670583Y-69185531D01*
X66625238Y-69181847D01*
X66624729Y-69181789D01*
X66511729Y-69165341D01*
X66384128Y-69140706D01*
X66251662Y-69110083D01*
X66124066Y-69075667D01*
X66042984Y-69050536D01*
X65778447Y-68949498D01*
X65527723Y-68826513D01*
X65291805Y-68682777D01*
X65071680Y-68519487D01*
X64868340Y-68337838D01*
X64682773Y-68139026D01*
X64515970Y-67924247D01*
X64368921Y-67694698D01*
X64242615Y-67451573D01*
X64138042Y-67196070D01*
X64056192Y-66929383D01*
X63998055Y-66652709D01*
X63984838Y-66563875D01*
X63976382Y-66479107D01*
X63970563Y-66375118D01*
X63967382Y-66259009D01*
X63966839Y-66137887D01*
X63968934Y-66018854D01*
X63973666Y-65909014D01*
X63981037Y-65815472D01*
X63984838Y-65783354D01*
X64035759Y-65500706D01*
X64111205Y-65227614D01*
X64210919Y-64964714D01*
X64334646Y-64712637D01*
X64482128Y-64472017D01*
X64560952Y-64361218D01*
X64739230Y-64143723D01*
X64935233Y-63945344D01*
X65147598Y-63766882D01*
X65374959Y-63609133D01*
X65615953Y-63472897D01*
X65869213Y-63358971D01*
X66133377Y-63268153D01*
X66407079Y-63201241D01*
X66597880Y-63169813D01*
X66650354Y-63164490D01*
X66719218Y-63159930D01*
X66799581Y-63156212D01*
X66886550Y-63153413D01*
X66975236Y-63151612D01*
X67060745Y-63150887D01*
X67138187Y-63151315D01*
X67138187Y-63151315D01*
G37*
X67138187Y-63151315D02*
X67202670Y-63152975D01*
X67249303Y-63155945D01*
X67269651Y-63159088D01*
X67299417Y-63167065D01*
X67299417Y-64087530D01*
X67089881Y-64080259D01*
X66880047Y-64080523D01*
X66685859Y-64097382D01*
X66501420Y-64132075D01*
X66320832Y-64185839D01*
X66138197Y-64259911D01*
X66062489Y-64295879D01*
X65881938Y-64394977D01*
X65719298Y-64506326D01*
X65566901Y-64635408D01*
X65507622Y-64692705D01*
X65350985Y-64867861D01*
X65215473Y-65058520D01*
X65101766Y-65263394D01*
X65010544Y-65481193D01*
X64942485Y-65710629D01*
X64922326Y-65803197D01*
X64910177Y-65887244D01*
X64902066Y-65990234D01*
X64897985Y-66104965D01*
X64897926Y-66224234D01*
X64901884Y-66340837D01*
X64909851Y-66447571D01*
X64921819Y-66537233D01*
X64923057Y-66544031D01*
X64978911Y-66772759D01*
X65058299Y-66990965D01*
X65159931Y-67197177D01*
X65282522Y-67389928D01*
X65424781Y-67567748D01*
X65585421Y-67729168D01*
X65763155Y-67872719D01*
X65956693Y-67996931D01*
X66164748Y-68100336D01*
X66348237Y-68169535D01*
X66451377Y-68201118D01*
X66546107Y-68225129D01*
X66638870Y-68242463D01*
X66736106Y-68254016D01*
X66844258Y-68260680D01*
X66969767Y-68263352D01*
X67024911Y-68263504D01*
X67299417Y-68263186D01*
X67299417Y-69180164D01*
X67269651Y-69188141D01*
X67244251Y-69191138D01*
X67197256Y-69193203D01*
X67133510Y-69194382D01*
X67057858Y-69194723D01*
X66975146Y-69194274D01*
X66890217Y-69193083D01*
X66807917Y-69191197D01*
X66733091Y-69188663D01*
X66670583Y-69185531D01*
X66625238Y-69181847D01*
X66624729Y-69181789D01*
X66511729Y-69165341D01*
X66384128Y-69140706D01*
X66251662Y-69110083D01*
X66124066Y-69075667D01*
X66042984Y-69050536D01*
X65778447Y-68949498D01*
X65527723Y-68826513D01*
X65291805Y-68682777D01*
X65071680Y-68519487D01*
X64868340Y-68337838D01*
X64682773Y-68139026D01*
X64515970Y-67924247D01*
X64368921Y-67694698D01*
X64242615Y-67451573D01*
X64138042Y-67196070D01*
X64056192Y-66929383D01*
X63998055Y-66652709D01*
X63984838Y-66563875D01*
X63976382Y-66479107D01*
X63970563Y-66375118D01*
X63967382Y-66259009D01*
X63966839Y-66137887D01*
X63968934Y-66018854D01*
X63973666Y-65909014D01*
X63981037Y-65815472D01*
X63984838Y-65783354D01*
X64035759Y-65500706D01*
X64111205Y-65227614D01*
X64210919Y-64964714D01*
X64334646Y-64712637D01*
X64482128Y-64472017D01*
X64560952Y-64361218D01*
X64739230Y-64143723D01*
X64935233Y-63945344D01*
X65147598Y-63766882D01*
X65374959Y-63609133D01*
X65615953Y-63472897D01*
X65869213Y-63358971D01*
X66133377Y-63268153D01*
X66407079Y-63201241D01*
X66597880Y-63169813D01*
X66650354Y-63164490D01*
X66719218Y-63159930D01*
X66799581Y-63156212D01*
X66886550Y-63153413D01*
X66975236Y-63151612D01*
X67060745Y-63150887D01*
X67138187Y-63151315D01*
G36*
X72432335Y-64083406D02*
X72137985Y-64083695D01*
X72036010Y-64084120D01*
X71955355Y-64085408D01*
X71890888Y-64087914D01*
X71837476Y-64091996D01*
X71789988Y-64098008D01*
X71743289Y-64106308D01*
X71709389Y-64113436D01*
X71479549Y-64176754D01*
X71260232Y-64263012D01*
X71053201Y-64371009D01*
X70860220Y-64499544D01*
X70683049Y-64647418D01*
X70523453Y-64813430D01*
X70383193Y-64996379D01*
X70358554Y-65033449D01*
X70306756Y-65120402D01*
X70253855Y-65221820D01*
X70202836Y-65330866D01*
X70156682Y-65440702D01*
X70118375Y-65544488D01*
X70090898Y-65635388D01*
X70084804Y-65660984D01*
X70075439Y-65703979D01*
X71837021Y-65703979D01*
X71837021Y-66643250D01*
X70075439Y-66643250D01*
X70084804Y-66686244D01*
X70109864Y-66777611D01*
X70147352Y-66883469D01*
X70194185Y-66996878D01*
X70247282Y-67110892D01*
X70303560Y-67218569D01*
X70359936Y-67312967D01*
X70369392Y-67327319D01*
X70513134Y-67518791D01*
X70674333Y-67690630D01*
X70851990Y-67842163D01*
X71045109Y-67972719D01*
X71252691Y-68081624D01*
X71473738Y-68168206D01*
X71707255Y-68231794D01*
X71712956Y-68233021D01*
X71765538Y-68243622D01*
X71813958Y-68251513D01*
X71863609Y-68257078D01*
X71919881Y-68260702D01*
X71988168Y-68262769D01*
X72073859Y-68263664D01*
X72144599Y-68263799D01*
X72432333Y-68263776D01*
X72432333Y-69196479D01*
X72144599Y-69194762D01*
X72052624Y-69193709D01*
X71962891Y-69191766D01*
X71881158Y-69189126D01*
X71813179Y-69185981D01*
X71764711Y-69182526D01*
X71757646Y-69181789D01*
X71532237Y-69145594D01*
X71300386Y-69088376D01*
X71068425Y-69012284D01*
X70842685Y-68919465D01*
X70629499Y-68812068D01*
X70573697Y-68780135D01*
X70410156Y-68674667D01*
X70244214Y-68550545D01*
X70082427Y-68413431D01*
X69931350Y-68268982D01*
X69797540Y-68122859D01*
X69760993Y-68078607D01*
X69599673Y-67857012D01*
X69458348Y-67619378D01*
X69338025Y-67368089D01*
X69239711Y-67105532D01*
X69164412Y-66834092D01*
X69113135Y-66556155D01*
X69110590Y-66537416D01*
X69103641Y-66465751D01*
X69098708Y-66375046D01*
X69095792Y-66271923D01*
X69094895Y-66163009D01*
X69096019Y-66054925D01*
X69099166Y-65954298D01*
X69104338Y-65867752D01*
X69110383Y-65809812D01*
X69162339Y-65524894D01*
X69237569Y-65249354D01*
X69335391Y-64984809D01*
X69455121Y-64732877D01*
X69596076Y-64495177D01*
X69757573Y-64273325D01*
X69760993Y-64269079D01*
X69941280Y-64066121D01*
X70140422Y-63879656D01*
X70355973Y-63711214D01*
X70585485Y-63562325D01*
X70826509Y-63434517D01*
X71076600Y-63329322D01*
X71333309Y-63248267D01*
X71433619Y-63223769D01*
X71557530Y-63197938D01*
X71672700Y-63178592D01*
X71786520Y-63164981D01*
X71906385Y-63156356D01*
X72039687Y-63151968D01*
X72151213Y-63151008D01*
X72432333Y-63150750D01*
X72432335Y-64083406D01*
X72432335Y-64083406D01*
G37*
X72432335Y-64083406D02*
X72137985Y-64083695D01*
X72036010Y-64084120D01*
X71955355Y-64085408D01*
X71890888Y-64087914D01*
X71837476Y-64091996D01*
X71789988Y-64098008D01*
X71743289Y-64106308D01*
X71709389Y-64113436D01*
X71479549Y-64176754D01*
X71260232Y-64263012D01*
X71053201Y-64371009D01*
X70860220Y-64499544D01*
X70683049Y-64647418D01*
X70523453Y-64813430D01*
X70383193Y-64996379D01*
X70358554Y-65033449D01*
X70306756Y-65120402D01*
X70253855Y-65221820D01*
X70202836Y-65330866D01*
X70156682Y-65440702D01*
X70118375Y-65544488D01*
X70090898Y-65635388D01*
X70084804Y-65660984D01*
X70075439Y-65703979D01*
X71837021Y-65703979D01*
X71837021Y-66643250D01*
X70075439Y-66643250D01*
X70084804Y-66686244D01*
X70109864Y-66777611D01*
X70147352Y-66883469D01*
X70194185Y-66996878D01*
X70247282Y-67110892D01*
X70303560Y-67218569D01*
X70359936Y-67312967D01*
X70369392Y-67327319D01*
X70513134Y-67518791D01*
X70674333Y-67690630D01*
X70851990Y-67842163D01*
X71045109Y-67972719D01*
X71252691Y-68081624D01*
X71473738Y-68168206D01*
X71707255Y-68231794D01*
X71712956Y-68233021D01*
X71765538Y-68243622D01*
X71813958Y-68251513D01*
X71863609Y-68257078D01*
X71919881Y-68260702D01*
X71988168Y-68262769D01*
X72073859Y-68263664D01*
X72144599Y-68263799D01*
X72432333Y-68263776D01*
X72432333Y-69196479D01*
X72144599Y-69194762D01*
X72052624Y-69193709D01*
X71962891Y-69191766D01*
X71881158Y-69189126D01*
X71813179Y-69185981D01*
X71764711Y-69182526D01*
X71757646Y-69181789D01*
X71532237Y-69145594D01*
X71300386Y-69088376D01*
X71068425Y-69012284D01*
X70842685Y-68919465D01*
X70629499Y-68812068D01*
X70573697Y-68780135D01*
X70410156Y-68674667D01*
X70244214Y-68550545D01*
X70082427Y-68413431D01*
X69931350Y-68268982D01*
X69797540Y-68122859D01*
X69760993Y-68078607D01*
X69599673Y-67857012D01*
X69458348Y-67619378D01*
X69338025Y-67368089D01*
X69239711Y-67105532D01*
X69164412Y-66834092D01*
X69113135Y-66556155D01*
X69110590Y-66537416D01*
X69103641Y-66465751D01*
X69098708Y-66375046D01*
X69095792Y-66271923D01*
X69094895Y-66163009D01*
X69096019Y-66054925D01*
X69099166Y-65954298D01*
X69104338Y-65867752D01*
X69110383Y-65809812D01*
X69162339Y-65524894D01*
X69237569Y-65249354D01*
X69335391Y-64984809D01*
X69455121Y-64732877D01*
X69596076Y-64495177D01*
X69757573Y-64273325D01*
X69760993Y-64269079D01*
X69941280Y-64066121D01*
X70140422Y-63879656D01*
X70355973Y-63711214D01*
X70585485Y-63562325D01*
X70826509Y-63434517D01*
X71076600Y-63329322D01*
X71333309Y-63248267D01*
X71433619Y-63223769D01*
X71557530Y-63197938D01*
X71672700Y-63178592D01*
X71786520Y-63164981D01*
X71906385Y-63156356D01*
X72039687Y-63151968D01*
X72151213Y-63151008D01*
X72432333Y-63150750D01*
X72432335Y-64083406D01*
D17*
X95037124Y-64629695D02*
X95037124Y-65287676D01*
X95075829Y-65365086D01*
X95114533Y-65403790D01*
X95191943Y-65442495D01*
X95346762Y-65442495D01*
X95424171Y-65403790D01*
X95462876Y-65365086D01*
X95501581Y-65287676D01*
X95501581Y-64629695D01*
X96275676Y-64629695D02*
X95888629Y-64629695D01*
X95849924Y-65016743D01*
X95888629Y-64978038D01*
X95966038Y-64939333D01*
X96159562Y-64939333D01*
X96236972Y-64978038D01*
X96275676Y-65016743D01*
X96314381Y-65094152D01*
X96314381Y-65287676D01*
X96275676Y-65365086D01*
X96236972Y-65403790D01*
X96159562Y-65442495D01*
X95966038Y-65442495D01*
X95888629Y-65403790D01*
X95849924Y-65365086D01*
D15*
X99658714Y-70285427D02*
X98896714Y-70285427D01*
X98896714Y-69995142D02*
X99658714Y-69487142D01*
X98896714Y-69487142D02*
X99658714Y-69995142D01*
X99150714Y-68870285D02*
X99658714Y-68870285D01*
X98860429Y-69051714D02*
X99404714Y-69233142D01*
X99404714Y-68761428D01*
X99150714Y-68144571D02*
X99658714Y-68144571D01*
X98860429Y-68326000D02*
X99404714Y-68507428D01*
X99404714Y-68035714D01*
X98969286Y-67781714D02*
X98933000Y-67745428D01*
X98896714Y-67672857D01*
X98896714Y-67491428D01*
X98933000Y-67418857D01*
X98969286Y-67382571D01*
X99041857Y-67346286D01*
X99114429Y-67346286D01*
X99223286Y-67382571D01*
X99658714Y-67818000D01*
X99658714Y-67346286D01*
X99223286Y-66910857D02*
X99187000Y-66983429D01*
X99150714Y-67019714D01*
X99078143Y-67056000D01*
X99041857Y-67056000D01*
X98969286Y-67019714D01*
X98933000Y-66983429D01*
X98896714Y-66910857D01*
X98896714Y-66765714D01*
X98933000Y-66693143D01*
X98969286Y-66656857D01*
X99041857Y-66620572D01*
X99078143Y-66620572D01*
X99150714Y-66656857D01*
X99187000Y-66693143D01*
X99223286Y-66765714D01*
X99223286Y-66910857D01*
X99259571Y-66983429D01*
X99295857Y-67019714D01*
X99368429Y-67056000D01*
X99513571Y-67056000D01*
X99586143Y-67019714D01*
X99622429Y-66983429D01*
X99658714Y-66910857D01*
X99658714Y-66765714D01*
X99622429Y-66693143D01*
X99586143Y-66656857D01*
X99513571Y-66620572D01*
X99368429Y-66620572D01*
X99295857Y-66656857D01*
X99259571Y-66693143D01*
X99223286Y-66765714D01*
X99658714Y-66294000D02*
X98896714Y-66294000D01*
X99658714Y-65858572D01*
X98896714Y-65858572D01*
D17*
X95443524Y-72224295D02*
X95443524Y-72882276D01*
X95482229Y-72959686D01*
X95520933Y-72998390D01*
X95598343Y-73037095D01*
X95753162Y-73037095D01*
X95830571Y-72998390D01*
X95869276Y-72959686D01*
X95907981Y-72882276D01*
X95907981Y-72224295D01*
X96643372Y-72224295D02*
X96488553Y-72224295D01*
X96411143Y-72263000D01*
X96372438Y-72301705D01*
X96295029Y-72417819D01*
X96256324Y-72572638D01*
X96256324Y-72882276D01*
X96295029Y-72959686D01*
X96333734Y-72998390D01*
X96411143Y-73037095D01*
X96565962Y-73037095D01*
X96643372Y-72998390D01*
X96682076Y-72959686D01*
X96720781Y-72882276D01*
X96720781Y-72688752D01*
X96682076Y-72611343D01*
X96643372Y-72572638D01*
X96565962Y-72533933D01*
X96411143Y-72533933D01*
X96333734Y-72572638D01*
X96295029Y-72611343D01*
X96256324Y-72688752D01*
D15*
X99658714Y-77905427D02*
X98896714Y-77905427D01*
X98896714Y-77615142D02*
X99658714Y-77107142D01*
X98896714Y-77107142D02*
X99658714Y-77615142D01*
X99150714Y-76490285D02*
X99658714Y-76490285D01*
X98860429Y-76671714D02*
X99404714Y-76853142D01*
X99404714Y-76381428D01*
X99150714Y-75764571D02*
X99658714Y-75764571D01*
X98860429Y-75946000D02*
X99404714Y-76127428D01*
X99404714Y-75655714D01*
X98969286Y-75401714D02*
X98933000Y-75365428D01*
X98896714Y-75292857D01*
X98896714Y-75111428D01*
X98933000Y-75038857D01*
X98969286Y-75002571D01*
X99041857Y-74966286D01*
X99114429Y-74966286D01*
X99223286Y-75002571D01*
X99658714Y-75438000D01*
X99658714Y-74966286D01*
X99223286Y-74530857D02*
X99187000Y-74603429D01*
X99150714Y-74639714D01*
X99078143Y-74676000D01*
X99041857Y-74676000D01*
X98969286Y-74639714D01*
X98933000Y-74603429D01*
X98896714Y-74530857D01*
X98896714Y-74385714D01*
X98933000Y-74313143D01*
X98969286Y-74276857D01*
X99041857Y-74240572D01*
X99078143Y-74240572D01*
X99150714Y-74276857D01*
X99187000Y-74313143D01*
X99223286Y-74385714D01*
X99223286Y-74530857D01*
X99259571Y-74603429D01*
X99295857Y-74639714D01*
X99368429Y-74676000D01*
X99513571Y-74676000D01*
X99586143Y-74639714D01*
X99622429Y-74603429D01*
X99658714Y-74530857D01*
X99658714Y-74385714D01*
X99622429Y-74313143D01*
X99586143Y-74276857D01*
X99513571Y-74240572D01*
X99368429Y-74240572D01*
X99295857Y-74276857D01*
X99259571Y-74313143D01*
X99223286Y-74385714D01*
X99658714Y-73914000D02*
X98896714Y-73914000D01*
X99658714Y-73478572D01*
X98896714Y-73478572D01*
D17*
X83581724Y-65518695D02*
X83581724Y-66176676D01*
X83620429Y-66254086D01*
X83659133Y-66292790D01*
X83736543Y-66331495D01*
X83891362Y-66331495D01*
X83968771Y-66292790D01*
X84007476Y-66254086D01*
X84046181Y-66176676D01*
X84046181Y-65518695D01*
X84781572Y-65789629D02*
X84781572Y-66331495D01*
X84588048Y-65479990D02*
X84394524Y-66060562D01*
X84897686Y-66060562D01*
X88500858Y-68039343D02*
X88464572Y-68075629D01*
X88355715Y-68111914D01*
X88283144Y-68111914D01*
X88174287Y-68075629D01*
X88101715Y-68003057D01*
X88065430Y-67930486D01*
X88029144Y-67785343D01*
X88029144Y-67676486D01*
X88065430Y-67531343D01*
X88101715Y-67458771D01*
X88174287Y-67386200D01*
X88283144Y-67349914D01*
X88355715Y-67349914D01*
X88464572Y-67386200D01*
X88500858Y-67422486D01*
X88827430Y-68111914D02*
X88827430Y-67349914D01*
X89008858Y-67349914D01*
X89117715Y-67386200D01*
X89190287Y-67458771D01*
X89226572Y-67531343D01*
X89262858Y-67676486D01*
X89262858Y-67785343D01*
X89226572Y-67930486D01*
X89190287Y-68003057D01*
X89117715Y-68075629D01*
X89008858Y-68111914D01*
X88827430Y-68111914D01*
X89516858Y-67349914D02*
X90024858Y-67349914D01*
X89698287Y-68111914D01*
X90641715Y-67603914D02*
X90641715Y-68111914D01*
X90460286Y-67313629D02*
X90278858Y-67857914D01*
X90750572Y-67857914D01*
X91004572Y-67894200D02*
X91367429Y-67894200D01*
X90932000Y-68111914D02*
X91186000Y-67349914D01*
X91440000Y-68111914D01*
X92129429Y-68039343D02*
X92093143Y-68075629D01*
X91984286Y-68111914D01*
X91911715Y-68111914D01*
X91802858Y-68075629D01*
X91730286Y-68003057D01*
X91694001Y-67930486D01*
X91657715Y-67785343D01*
X91657715Y-67676486D01*
X91694001Y-67531343D01*
X91730286Y-67458771D01*
X91802858Y-67386200D01*
X91911715Y-67349914D01*
X91984286Y-67349914D01*
X92093143Y-67386200D01*
X92129429Y-67422486D01*
X92601143Y-67349914D02*
X92673715Y-67349914D01*
X92746286Y-67386200D01*
X92782572Y-67422486D01*
X92818858Y-67495057D01*
X92855143Y-67640200D01*
X92855143Y-67821629D01*
X92818858Y-67966771D01*
X92782572Y-68039343D01*
X92746286Y-68075629D01*
X92673715Y-68111914D01*
X92601143Y-68111914D01*
X92528572Y-68075629D01*
X92492286Y-68039343D01*
X92456001Y-67966771D01*
X92419715Y-67821629D01*
X92419715Y-67640200D01*
X92456001Y-67495057D01*
X92492286Y-67422486D01*
X92528572Y-67386200D01*
X92601143Y-67349914D01*
X93326857Y-67349914D02*
X93399429Y-67349914D01*
X93472000Y-67386200D01*
X93508286Y-67422486D01*
X93544572Y-67495057D01*
X93580857Y-67640200D01*
X93580857Y-67821629D01*
X93544572Y-67966771D01*
X93508286Y-68039343D01*
X93472000Y-68075629D01*
X93399429Y-68111914D01*
X93326857Y-68111914D01*
X93254286Y-68075629D01*
X93218000Y-68039343D01*
X93181715Y-67966771D01*
X93145429Y-67821629D01*
X93145429Y-67640200D01*
X93181715Y-67495057D01*
X93218000Y-67422486D01*
X93254286Y-67386200D01*
X93326857Y-67349914D01*
D10*
X93465667Y-63734905D02*
X93199000Y-63353952D01*
X93008524Y-63734905D02*
X93008524Y-62934905D01*
X93313286Y-62934905D01*
X93389477Y-62973000D01*
X93427572Y-63011095D01*
X93465667Y-63087286D01*
X93465667Y-63201571D01*
X93427572Y-63277762D01*
X93389477Y-63315857D01*
X93313286Y-63353952D01*
X93008524Y-63353952D01*
X94227572Y-63734905D02*
X93770429Y-63734905D01*
X93999000Y-63734905D02*
X93999000Y-62934905D01*
X93922810Y-63049190D01*
X93846619Y-63125381D01*
X93770429Y-63163476D01*
D17*
X77486934Y-60921295D02*
X77216001Y-60534248D01*
X77022477Y-60921295D02*
X77022477Y-60108495D01*
X77332115Y-60108495D01*
X77409524Y-60147200D01*
X77448229Y-60185905D01*
X77486934Y-60263314D01*
X77486934Y-60379429D01*
X77448229Y-60456838D01*
X77409524Y-60495543D01*
X77332115Y-60534248D01*
X77022477Y-60534248D01*
X77757867Y-60108495D02*
X78261029Y-60108495D01*
X77990096Y-60418133D01*
X78106210Y-60418133D01*
X78183620Y-60456838D01*
X78222324Y-60495543D01*
X78261029Y-60572952D01*
X78261029Y-60766476D01*
X78222324Y-60843886D01*
X78183620Y-60882590D01*
X78106210Y-60921295D01*
X77873982Y-60921295D01*
X77796572Y-60882590D01*
X77757867Y-60843886D01*
X77355096Y-81358619D02*
X77355096Y-80342619D01*
X77742143Y-80342619D01*
X77838905Y-80391000D01*
X77887286Y-80439381D01*
X77935667Y-80536143D01*
X77935667Y-80681286D01*
X77887286Y-80778048D01*
X77838905Y-80826429D01*
X77742143Y-80874810D01*
X77355096Y-80874810D01*
X78806524Y-80342619D02*
X78613001Y-80342619D01*
X78516239Y-80391000D01*
X78467858Y-80439381D01*
X78371096Y-80584524D01*
X78322715Y-80778048D01*
X78322715Y-81165095D01*
X78371096Y-81261857D01*
X78419477Y-81310238D01*
X78516239Y-81358619D01*
X78709762Y-81358619D01*
X78806524Y-81310238D01*
X78854905Y-81261857D01*
X78903286Y-81165095D01*
X78903286Y-80923190D01*
X78854905Y-80826429D01*
X78806524Y-80778048D01*
X78709762Y-80729667D01*
X78516239Y-80729667D01*
X78419477Y-80778048D01*
X78371096Y-80826429D01*
X78322715Y-80923190D01*
X120341572Y-63590714D02*
X120341572Y-62828714D01*
X120631857Y-62828714D01*
X120704429Y-62865000D01*
X120740714Y-62901286D01*
X120777000Y-62973857D01*
X120777000Y-63082714D01*
X120740714Y-63155286D01*
X120704429Y-63191571D01*
X120631857Y-63227857D01*
X120341572Y-63227857D01*
X121067286Y-62901286D02*
X121103572Y-62865000D01*
X121176143Y-62828714D01*
X121357572Y-62828714D01*
X121430143Y-62865000D01*
X121466429Y-62901286D01*
X121502714Y-62973857D01*
X121502714Y-63046429D01*
X121466429Y-63155286D01*
X121031000Y-63590714D01*
X121502714Y-63590714D01*
X116569671Y-70319900D02*
X115426671Y-70319900D01*
X116243100Y-69938900D01*
X115426671Y-69557900D01*
X116569671Y-69557900D01*
X116569671Y-68850328D02*
X116515243Y-68959186D01*
X116460814Y-69013614D01*
X116351957Y-69068043D01*
X116025386Y-69068043D01*
X115916529Y-69013614D01*
X115862100Y-68959186D01*
X115807671Y-68850328D01*
X115807671Y-68687043D01*
X115862100Y-68578186D01*
X115916529Y-68523757D01*
X116025386Y-68469328D01*
X116351957Y-68469328D01*
X116460814Y-68523757D01*
X116515243Y-68578186D01*
X116569671Y-68687043D01*
X116569671Y-68850328D01*
X115807671Y-68142757D02*
X115807671Y-67707328D01*
X115426671Y-67979471D02*
X116406386Y-67979471D01*
X116515243Y-67925043D01*
X116569671Y-67816185D01*
X116569671Y-67707328D01*
X116569671Y-67163042D02*
X116515243Y-67271900D01*
X116460814Y-67326328D01*
X116351957Y-67380757D01*
X116025386Y-67380757D01*
X115916529Y-67326328D01*
X115862100Y-67271900D01*
X115807671Y-67163042D01*
X115807671Y-66999757D01*
X115862100Y-66890900D01*
X115916529Y-66836471D01*
X116025386Y-66782042D01*
X116351957Y-66782042D01*
X116460814Y-66836471D01*
X116515243Y-66890900D01*
X116569671Y-66999757D01*
X116569671Y-67163042D01*
X116569671Y-66292185D02*
X115807671Y-66292185D01*
X116025386Y-66292185D02*
X115916529Y-66237757D01*
X115862100Y-66183328D01*
X115807671Y-66074471D01*
X115807671Y-65965614D01*
X89653533Y-49660629D02*
X89314867Y-49660629D01*
X89314867Y-50192819D02*
X89314867Y-49176819D01*
X89798676Y-49176819D01*
X90717914Y-50192819D02*
X90137343Y-50192819D01*
X90427629Y-50192819D02*
X90427629Y-49176819D01*
X90330867Y-49321962D01*
X90234105Y-49418724D01*
X90137343Y-49467105D01*
D19*
X87102043Y-54948969D02*
X87102043Y-54199669D01*
X87387490Y-54199669D01*
X87458852Y-54235350D01*
X87494533Y-54271031D01*
X87530214Y-54342393D01*
X87530214Y-54449436D01*
X87494533Y-54520798D01*
X87458852Y-54556479D01*
X87387490Y-54592160D01*
X87102043Y-54592160D01*
X87744300Y-54199669D02*
X88172471Y-54199669D01*
X87958386Y-54948969D02*
X87958386Y-54199669D01*
X88850409Y-54877607D02*
X88814728Y-54913288D01*
X88707685Y-54948969D01*
X88636323Y-54948969D01*
X88529281Y-54913288D01*
X88457919Y-54841926D01*
X88422238Y-54770564D01*
X88386557Y-54627840D01*
X88386557Y-54520798D01*
X88422238Y-54378074D01*
X88457919Y-54306712D01*
X88529281Y-54235350D01*
X88636323Y-54199669D01*
X88707685Y-54199669D01*
X88814728Y-54235350D01*
X88850409Y-54271031D01*
X89171538Y-54663521D02*
X89742433Y-54663521D01*
X90491733Y-54948969D02*
X90063562Y-54948969D01*
X90277648Y-54948969D02*
X90277648Y-54199669D01*
X90206286Y-54306712D01*
X90134924Y-54378074D01*
X90063562Y-54413755D01*
X90812862Y-54877607D02*
X90848543Y-54913288D01*
X90812862Y-54948969D01*
X90777181Y-54913288D01*
X90812862Y-54877607D01*
X90812862Y-54948969D01*
X91133991Y-54271031D02*
X91169672Y-54235350D01*
X91241034Y-54199669D01*
X91419438Y-54199669D01*
X91490800Y-54235350D01*
X91526481Y-54271031D01*
X91562162Y-54342393D01*
X91562162Y-54413755D01*
X91526481Y-54520798D01*
X91098310Y-54948969D01*
X91562162Y-54948969D01*
X92240100Y-54199669D02*
X91883291Y-54199669D01*
X91847610Y-54556479D01*
X91883291Y-54520798D01*
X91954653Y-54485117D01*
X92133057Y-54485117D01*
X92204419Y-54520798D01*
X92240100Y-54556479D01*
X92275781Y-54627840D01*
X92275781Y-54806245D01*
X92240100Y-54877607D01*
X92204419Y-54913288D01*
X92133057Y-54948969D01*
X91954653Y-54948969D01*
X91883291Y-54913288D01*
X91847610Y-54877607D01*
X92561229Y-54734883D02*
X92918038Y-54734883D01*
X92489867Y-54948969D02*
X92739634Y-54199669D01*
X92989400Y-54948969D01*
D14*
X90991267Y-33634438D02*
X90991267Y-34323867D01*
X90945305Y-34461752D01*
X90853381Y-34553676D01*
X90715496Y-34599638D01*
X90623572Y-34599638D01*
X91404924Y-33726362D02*
X91450886Y-33680400D01*
X91542809Y-33634438D01*
X91772619Y-33634438D01*
X91864543Y-33680400D01*
X91910505Y-33726362D01*
X91956466Y-33818286D01*
X91956466Y-33910210D01*
X91910505Y-34048095D01*
X91358962Y-34599638D01*
X91956466Y-34599638D01*
X83142667Y-33733619D02*
X83142667Y-34459333D01*
X83094287Y-34604476D01*
X82997525Y-34701238D01*
X82852382Y-34749619D01*
X82755620Y-34749619D01*
X83578096Y-34459333D02*
X84061905Y-34459333D01*
X83481334Y-34749619D02*
X83820001Y-33733619D01*
X84158667Y-34749619D01*
X85077905Y-34652857D02*
X85029524Y-34701238D01*
X84884381Y-34749619D01*
X84787619Y-34749619D01*
X84642477Y-34701238D01*
X84545715Y-34604476D01*
X84497334Y-34507714D01*
X84448953Y-34314190D01*
X84448953Y-34169048D01*
X84497334Y-33975524D01*
X84545715Y-33878762D01*
X84642477Y-33782000D01*
X84787619Y-33733619D01*
X84884381Y-33733619D01*
X85029524Y-33782000D01*
X85077905Y-33830381D01*
X85513334Y-34749619D02*
X85513334Y-33733619D01*
X86093905Y-34749619D02*
X85658477Y-34169048D01*
X86093905Y-33733619D02*
X85513334Y-34314190D01*
X86287429Y-34846381D02*
X87061524Y-34846381D01*
X87303429Y-34749619D02*
X87303429Y-33733619D01*
X87545334Y-33733619D01*
X87690476Y-33782000D01*
X87787238Y-33878762D01*
X87835619Y-33975524D01*
X87884000Y-34169048D01*
X87884000Y-34314190D01*
X87835619Y-34507714D01*
X87787238Y-34604476D01*
X87690476Y-34701238D01*
X87545334Y-34749619D01*
X87303429Y-34749619D01*
X88900000Y-34652857D02*
X88851619Y-34701238D01*
X88706476Y-34749619D01*
X88609714Y-34749619D01*
X88464572Y-34701238D01*
X88367810Y-34604476D01*
X88319429Y-34507714D01*
X88271048Y-34314190D01*
X88271048Y-34169048D01*
X88319429Y-33975524D01*
X88367810Y-33878762D01*
X88464572Y-33782000D01*
X88609714Y-33733619D01*
X88706476Y-33733619D01*
X88851619Y-33782000D01*
X88900000Y-33830381D01*
X92879333Y-33733619D02*
X92879333Y-34459333D01*
X92830953Y-34604476D01*
X92734191Y-34701238D01*
X92589048Y-34749619D01*
X92492286Y-34749619D01*
X93895333Y-34749619D02*
X93314762Y-34749619D01*
X93605048Y-34749619D02*
X93605048Y-33733619D01*
X93508286Y-33878762D01*
X93411524Y-33975524D01*
X93314762Y-34023905D01*
X96259953Y-33606619D02*
X96259953Y-34332333D01*
X96211573Y-34477476D01*
X96114811Y-34574238D01*
X95969668Y-34622619D01*
X95872906Y-34622619D01*
X96695382Y-34332333D02*
X97179191Y-34332333D01*
X96598620Y-34622619D02*
X96937287Y-33606619D01*
X97275953Y-34622619D01*
X98195191Y-34525857D02*
X98146810Y-34574238D01*
X98001667Y-34622619D01*
X97904905Y-34622619D01*
X97759763Y-34574238D01*
X97663001Y-34477476D01*
X97614620Y-34380714D01*
X97566239Y-34187190D01*
X97566239Y-34042048D01*
X97614620Y-33848524D01*
X97663001Y-33751762D01*
X97759763Y-33655000D01*
X97904905Y-33606619D01*
X98001667Y-33606619D01*
X98146810Y-33655000D01*
X98195191Y-33703381D01*
X98630620Y-34622619D02*
X98630620Y-33606619D01*
X99211191Y-34622619D02*
X98775763Y-34042048D01*
X99211191Y-33606619D02*
X98630620Y-34187190D01*
X99404715Y-34719381D02*
X100178810Y-34719381D01*
X100372334Y-34574238D02*
X100517477Y-34622619D01*
X100759381Y-34622619D01*
X100856143Y-34574238D01*
X100904524Y-34525857D01*
X100952905Y-34429095D01*
X100952905Y-34332333D01*
X100904524Y-34235571D01*
X100856143Y-34187190D01*
X100759381Y-34138810D01*
X100565858Y-34090429D01*
X100469096Y-34042048D01*
X100420715Y-33993667D01*
X100372334Y-33896905D01*
X100372334Y-33800143D01*
X100420715Y-33703381D01*
X100469096Y-33655000D01*
X100565858Y-33606619D01*
X100807762Y-33606619D01*
X100952905Y-33655000D01*
X101243191Y-33606619D02*
X101823762Y-33606619D01*
X101533477Y-34622619D02*
X101533477Y-33606619D01*
X102162429Y-34090429D02*
X102501095Y-34090429D01*
X102646238Y-34622619D02*
X102162429Y-34622619D01*
X102162429Y-33606619D01*
X102646238Y-33606619D01*
X103662238Y-34622619D02*
X103323572Y-34138810D01*
X103081667Y-34622619D02*
X103081667Y-33606619D01*
X103468714Y-33606619D01*
X103565476Y-33655000D01*
X103613857Y-33703381D01*
X103662238Y-33800143D01*
X103662238Y-33945286D01*
X103613857Y-34042048D01*
X103565476Y-34090429D01*
X103468714Y-34138810D01*
X103081667Y-34138810D01*
X104097667Y-34090429D02*
X104436333Y-34090429D01*
X104581476Y-34622619D02*
X104097667Y-34622619D01*
X104097667Y-33606619D01*
X104581476Y-33606619D01*
X105210429Y-33606619D02*
X105403952Y-33606619D01*
X105500714Y-33655000D01*
X105597476Y-33751762D01*
X105645857Y-33945286D01*
X105645857Y-34283952D01*
X105597476Y-34477476D01*
X105500714Y-34574238D01*
X105403952Y-34622619D01*
X105210429Y-34622619D01*
X105113667Y-34574238D01*
X105016905Y-34477476D01*
X104968524Y-34283952D01*
X104968524Y-33945286D01*
X105016905Y-33751762D01*
X105113667Y-33655000D01*
X105210429Y-33606619D01*
X105839381Y-34719381D02*
X106613476Y-34719381D01*
X106807000Y-34574238D02*
X106952143Y-34622619D01*
X107194047Y-34622619D01*
X107290809Y-34574238D01*
X107339190Y-34525857D01*
X107387571Y-34429095D01*
X107387571Y-34332333D01*
X107339190Y-34235571D01*
X107290809Y-34187190D01*
X107194047Y-34138810D01*
X107000524Y-34090429D01*
X106903762Y-34042048D01*
X106855381Y-33993667D01*
X106807000Y-33896905D01*
X106807000Y-33800143D01*
X106855381Y-33703381D01*
X106903762Y-33655000D01*
X107000524Y-33606619D01*
X107242428Y-33606619D01*
X107387571Y-33655000D01*
X107726238Y-33606619D02*
X107968143Y-34622619D01*
X108161666Y-33896905D01*
X108355190Y-34622619D01*
X108597095Y-33606619D01*
D17*
X71643724Y-73087895D02*
X71643724Y-73745876D01*
X71682429Y-73823286D01*
X71721133Y-73861990D01*
X71798543Y-73900695D01*
X71953362Y-73900695D01*
X72030771Y-73861990D01*
X72069476Y-73823286D01*
X72108181Y-73745876D01*
X72108181Y-73087895D01*
X72920981Y-73900695D02*
X72456524Y-73900695D01*
X72688753Y-73900695D02*
X72688753Y-73087895D01*
X72611343Y-73204010D01*
X72533934Y-73281419D01*
X72456524Y-73320124D01*
X74951167Y-69744167D02*
X75374501Y-69744167D01*
X74866501Y-69998167D02*
X75162834Y-69109167D01*
X75459167Y-69998167D01*
X75628501Y-69109167D02*
X76136501Y-69109167D01*
X75882501Y-69998167D02*
X75882501Y-69109167D01*
X76305834Y-69109167D02*
X76813834Y-69109167D01*
X76559834Y-69998167D02*
X76559834Y-69109167D01*
X77110167Y-69998167D02*
X77110167Y-69109167D01*
X77533500Y-69998167D02*
X77533500Y-69109167D01*
X78041500Y-69998167D01*
X78041500Y-69109167D01*
X78634166Y-69574833D02*
X78634166Y-69998167D01*
X78337833Y-69109167D02*
X78634166Y-69574833D01*
X78930499Y-69109167D01*
X79607833Y-69405500D02*
X79607833Y-69998167D01*
X79396166Y-69066833D02*
X79184499Y-69701833D01*
X79734833Y-69701833D01*
X80496833Y-69109167D02*
X80073500Y-69109167D01*
X80031166Y-69532500D01*
X80073500Y-69490167D01*
X80158166Y-69447833D01*
X80369833Y-69447833D01*
X80454500Y-69490167D01*
X80496833Y-69532500D01*
X80539166Y-69617167D01*
X80539166Y-69828833D01*
X80496833Y-69913500D01*
X80454500Y-69955833D01*
X80369833Y-69998167D01*
X80158166Y-69998167D01*
X80073500Y-69955833D01*
X80031166Y-69913500D01*
X80920167Y-69659500D02*
X81597500Y-69659500D01*
X82020834Y-69998167D02*
X82020834Y-69109167D01*
X82359500Y-69109167D01*
X82444167Y-69151500D01*
X82486500Y-69193833D01*
X82528834Y-69278500D01*
X82528834Y-69405500D01*
X82486500Y-69490167D01*
X82444167Y-69532500D01*
X82359500Y-69574833D01*
X82020834Y-69574833D01*
X103617486Y-59980286D02*
X103578781Y-60018990D01*
X103462667Y-60057695D01*
X103385257Y-60057695D01*
X103269143Y-60018990D01*
X103191734Y-59941581D01*
X103153029Y-59864171D01*
X103114324Y-59709352D01*
X103114324Y-59593238D01*
X103153029Y-59438419D01*
X103191734Y-59361010D01*
X103269143Y-59283600D01*
X103385257Y-59244895D01*
X103462667Y-59244895D01*
X103578781Y-59283600D01*
X103617486Y-59322305D01*
X104391581Y-60057695D02*
X103927124Y-60057695D01*
X104159353Y-60057695D02*
X104159353Y-59244895D01*
X104081943Y-59361010D01*
X104004534Y-59438419D01*
X103927124Y-59477124D01*
X104894743Y-59244895D02*
X104972152Y-59244895D01*
X105049562Y-59283600D01*
X105088267Y-59322305D01*
X105126971Y-59399714D01*
X105165676Y-59554533D01*
X105165676Y-59748057D01*
X105126971Y-59902876D01*
X105088267Y-59980286D01*
X105049562Y-60018990D01*
X104972152Y-60057695D01*
X104894743Y-60057695D01*
X104817333Y-60018990D01*
X104778629Y-59980286D01*
X104739924Y-59902876D01*
X104701219Y-59748057D01*
X104701219Y-59554533D01*
X104739924Y-59399714D01*
X104778629Y-59322305D01*
X104817333Y-59283600D01*
X104894743Y-59244895D01*
D10*
X109073905Y-62452095D02*
X109073905Y-62909238D01*
X109073905Y-62680667D02*
X108273905Y-62680667D01*
X108388190Y-62756857D01*
X108464381Y-62833048D01*
X108502476Y-62909238D01*
X108273905Y-61956857D02*
X108273905Y-61880666D01*
X108312000Y-61804476D01*
X108350095Y-61766381D01*
X108426286Y-61728285D01*
X108578667Y-61690190D01*
X108769143Y-61690190D01*
X108921524Y-61728285D01*
X108997714Y-61766381D01*
X109035810Y-61804476D01*
X109073905Y-61880666D01*
X109073905Y-61956857D01*
X109035810Y-62033047D01*
X108997714Y-62071143D01*
X108921524Y-62109238D01*
X108769143Y-62147333D01*
X108578667Y-62147333D01*
X108426286Y-62109238D01*
X108350095Y-62071143D01*
X108312000Y-62033047D01*
X108273905Y-61956857D01*
X108273905Y-61194952D02*
X108273905Y-61118761D01*
X108312000Y-61042571D01*
X108350095Y-61004476D01*
X108426286Y-60966380D01*
X108578667Y-60928285D01*
X108769143Y-60928285D01*
X108921524Y-60966380D01*
X108997714Y-61004476D01*
X109035810Y-61042571D01*
X109073905Y-61118761D01*
X109073905Y-61194952D01*
X109035810Y-61271142D01*
X108997714Y-61309238D01*
X108921524Y-61347333D01*
X108769143Y-61385428D01*
X108578667Y-61385428D01*
X108426286Y-61347333D01*
X108350095Y-61309238D01*
X108312000Y-61271142D01*
X108273905Y-61194952D01*
X108540571Y-60242571D02*
X109073905Y-60242571D01*
X108540571Y-60585428D02*
X108959619Y-60585428D01*
X109035810Y-60547333D01*
X109073905Y-60471142D01*
X109073905Y-60356856D01*
X109035810Y-60280666D01*
X108997714Y-60242571D01*
X108654857Y-59594951D02*
X108654857Y-59861618D01*
X109073905Y-59861618D02*
X108273905Y-59861618D01*
X108273905Y-59480665D01*
D17*
X78604534Y-48677286D02*
X78565829Y-48715990D01*
X78449715Y-48754695D01*
X78372305Y-48754695D01*
X78256191Y-48715990D01*
X78178782Y-48638581D01*
X78140077Y-48561171D01*
X78101372Y-48406352D01*
X78101372Y-48290238D01*
X78140077Y-48135419D01*
X78178782Y-48058010D01*
X78256191Y-47980600D01*
X78372305Y-47941895D01*
X78449715Y-47941895D01*
X78565829Y-47980600D01*
X78604534Y-48019305D01*
X79378629Y-48754695D02*
X78914172Y-48754695D01*
X79146401Y-48754695D02*
X79146401Y-47941895D01*
X79068991Y-48058010D01*
X78991582Y-48135419D01*
X78914172Y-48174124D01*
D10*
X79762505Y-54438505D02*
X79305362Y-54438505D01*
X79533933Y-54438505D02*
X79533933Y-53638505D01*
X79457743Y-53752790D01*
X79381552Y-53828981D01*
X79305362Y-53867076D01*
X80257743Y-53638505D02*
X80333934Y-53638505D01*
X80410124Y-53676600D01*
X80448219Y-53714695D01*
X80486315Y-53790886D01*
X80524410Y-53943267D01*
X80524410Y-54133743D01*
X80486315Y-54286124D01*
X80448219Y-54362314D01*
X80410124Y-54400410D01*
X80333934Y-54438505D01*
X80257743Y-54438505D01*
X80181553Y-54400410D01*
X80143457Y-54362314D01*
X80105362Y-54286124D01*
X80067267Y-54133743D01*
X80067267Y-53943267D01*
X80105362Y-53790886D01*
X80143457Y-53714695D01*
X80181553Y-53676600D01*
X80257743Y-53638505D01*
X81019648Y-53638505D02*
X81095839Y-53638505D01*
X81172029Y-53676600D01*
X81210124Y-53714695D01*
X81248220Y-53790886D01*
X81286315Y-53943267D01*
X81286315Y-54133743D01*
X81248220Y-54286124D01*
X81210124Y-54362314D01*
X81172029Y-54400410D01*
X81095839Y-54438505D01*
X81019648Y-54438505D01*
X80943458Y-54400410D01*
X80905362Y-54362314D01*
X80867267Y-54286124D01*
X80829172Y-54133743D01*
X80829172Y-53943267D01*
X80867267Y-53790886D01*
X80905362Y-53714695D01*
X80943458Y-53676600D01*
X81019648Y-53638505D01*
X81972029Y-53905171D02*
X81972029Y-54438505D01*
X81629172Y-53905171D02*
X81629172Y-54324219D01*
X81667267Y-54400410D01*
X81743458Y-54438505D01*
X81857744Y-54438505D01*
X81933934Y-54400410D01*
X81972029Y-54362314D01*
X82619649Y-54019457D02*
X82352982Y-54019457D01*
X82352982Y-54438505D02*
X82352982Y-53638505D01*
X82733935Y-53638505D01*
D17*
X74870734Y-45375286D02*
X74832029Y-45413990D01*
X74715915Y-45452695D01*
X74638505Y-45452695D01*
X74522391Y-45413990D01*
X74444982Y-45336581D01*
X74406277Y-45259171D01*
X74367572Y-45104352D01*
X74367572Y-44988238D01*
X74406277Y-44833419D01*
X74444982Y-44756010D01*
X74522391Y-44678600D01*
X74638505Y-44639895D01*
X74715915Y-44639895D01*
X74832029Y-44678600D01*
X74870734Y-44717305D01*
X75567420Y-44910829D02*
X75567420Y-45452695D01*
X75373896Y-44601190D02*
X75180372Y-45181762D01*
X75683534Y-45181762D01*
D10*
X71151905Y-51288905D02*
X70694762Y-51288905D01*
X70923333Y-51288905D02*
X70923333Y-50488905D01*
X70847143Y-50603190D01*
X70770952Y-50679381D01*
X70694762Y-50717476D01*
X71647143Y-50488905D02*
X71723334Y-50488905D01*
X71799524Y-50527000D01*
X71837619Y-50565095D01*
X71875715Y-50641286D01*
X71913810Y-50793667D01*
X71913810Y-50984143D01*
X71875715Y-51136524D01*
X71837619Y-51212714D01*
X71799524Y-51250810D01*
X71723334Y-51288905D01*
X71647143Y-51288905D01*
X71570953Y-51250810D01*
X71532857Y-51212714D01*
X71494762Y-51136524D01*
X71456667Y-50984143D01*
X71456667Y-50793667D01*
X71494762Y-50641286D01*
X71532857Y-50565095D01*
X71570953Y-50527000D01*
X71647143Y-50488905D01*
X72409048Y-50488905D02*
X72485239Y-50488905D01*
X72561429Y-50527000D01*
X72599524Y-50565095D01*
X72637620Y-50641286D01*
X72675715Y-50793667D01*
X72675715Y-50984143D01*
X72637620Y-51136524D01*
X72599524Y-51212714D01*
X72561429Y-51250810D01*
X72485239Y-51288905D01*
X72409048Y-51288905D01*
X72332858Y-51250810D01*
X72294762Y-51212714D01*
X72256667Y-51136524D01*
X72218572Y-50984143D01*
X72218572Y-50793667D01*
X72256667Y-50641286D01*
X72294762Y-50565095D01*
X72332858Y-50527000D01*
X72409048Y-50488905D01*
X73361429Y-50755571D02*
X73361429Y-51288905D01*
X73018572Y-50755571D02*
X73018572Y-51174619D01*
X73056667Y-51250810D01*
X73132858Y-51288905D01*
X73247144Y-51288905D01*
X73323334Y-51250810D01*
X73361429Y-51212714D01*
X74009049Y-50869857D02*
X73742382Y-50869857D01*
X73742382Y-51288905D02*
X73742382Y-50488905D01*
X74123335Y-50488905D01*
X85058314Y-61677514D02*
X85020219Y-61715610D01*
X84905933Y-61753705D01*
X84829743Y-61753705D01*
X84715457Y-61715610D01*
X84639266Y-61639419D01*
X84601171Y-61563229D01*
X84563076Y-61410848D01*
X84563076Y-61296562D01*
X84601171Y-61144181D01*
X84639266Y-61067990D01*
X84715457Y-60991800D01*
X84829743Y-60953705D01*
X84905933Y-60953705D01*
X85020219Y-60991800D01*
X85058314Y-61029895D01*
X85820219Y-61753705D02*
X85363076Y-61753705D01*
X85591647Y-61753705D02*
X85591647Y-60953705D01*
X85515457Y-61067990D01*
X85439266Y-61144181D01*
X85363076Y-61182276D01*
X86505933Y-61220371D02*
X86505933Y-61753705D01*
X86315457Y-60915610D02*
X86124981Y-61487038D01*
X86620219Y-61487038D01*
D17*
X64786934Y-46848486D02*
X64748229Y-46887190D01*
X64632115Y-46925895D01*
X64554705Y-46925895D01*
X64438591Y-46887190D01*
X64361182Y-46809781D01*
X64322477Y-46732371D01*
X64283772Y-46577552D01*
X64283772Y-46461438D01*
X64322477Y-46306619D01*
X64361182Y-46229210D01*
X64438591Y-46151800D01*
X64554705Y-46113095D01*
X64632115Y-46113095D01*
X64748229Y-46151800D01*
X64786934Y-46190505D01*
X65096572Y-46190505D02*
X65135277Y-46151800D01*
X65212686Y-46113095D01*
X65406210Y-46113095D01*
X65483620Y-46151800D01*
X65522324Y-46190505D01*
X65561029Y-46267914D01*
X65561029Y-46345324D01*
X65522324Y-46461438D01*
X65057867Y-46925895D01*
X65561029Y-46925895D01*
X73778534Y-59548486D02*
X73739829Y-59587190D01*
X73623715Y-59625895D01*
X73546305Y-59625895D01*
X73430191Y-59587190D01*
X73352782Y-59509781D01*
X73314077Y-59432371D01*
X73275372Y-59277552D01*
X73275372Y-59161438D01*
X73314077Y-59006619D01*
X73352782Y-58929210D01*
X73430191Y-58851800D01*
X73546305Y-58813095D01*
X73623715Y-58813095D01*
X73739829Y-58851800D01*
X73778534Y-58890505D01*
X74242991Y-59161438D02*
X74165582Y-59122733D01*
X74126877Y-59084029D01*
X74088172Y-59006619D01*
X74088172Y-58967914D01*
X74126877Y-58890505D01*
X74165582Y-58851800D01*
X74242991Y-58813095D01*
X74397810Y-58813095D01*
X74475220Y-58851800D01*
X74513924Y-58890505D01*
X74552629Y-58967914D01*
X74552629Y-59006619D01*
X74513924Y-59084029D01*
X74475220Y-59122733D01*
X74397810Y-59161438D01*
X74242991Y-59161438D01*
X74165582Y-59200143D01*
X74126877Y-59238848D01*
X74088172Y-59316257D01*
X74088172Y-59471076D01*
X74126877Y-59548486D01*
X74165582Y-59587190D01*
X74242991Y-59625895D01*
X74397810Y-59625895D01*
X74475220Y-59587190D01*
X74513924Y-59548486D01*
X74552629Y-59471076D01*
X74552629Y-59316257D01*
X74513924Y-59238848D01*
X74475220Y-59200143D01*
X74397810Y-59161438D01*
X114113734Y-34275486D02*
X114075029Y-34314190D01*
X113958915Y-34352895D01*
X113881505Y-34352895D01*
X113765391Y-34314190D01*
X113687982Y-34236781D01*
X113649277Y-34159371D01*
X113610572Y-34004552D01*
X113610572Y-33888438D01*
X113649277Y-33733619D01*
X113687982Y-33656210D01*
X113765391Y-33578800D01*
X113881505Y-33540095D01*
X113958915Y-33540095D01*
X114075029Y-33578800D01*
X114113734Y-33617505D01*
X114849124Y-33540095D02*
X114462077Y-33540095D01*
X114423372Y-33927143D01*
X114462077Y-33888438D01*
X114539486Y-33849733D01*
X114733010Y-33849733D01*
X114810420Y-33888438D01*
X114849124Y-33927143D01*
X114887829Y-34004552D01*
X114887829Y-34198076D01*
X114849124Y-34275486D01*
X114810420Y-34314190D01*
X114733010Y-34352895D01*
X114539486Y-34352895D01*
X114462077Y-34314190D01*
X114423372Y-34275486D01*
D10*
X69361067Y-72091514D02*
X69322972Y-72129610D01*
X69208686Y-72167705D01*
X69132496Y-72167705D01*
X69018210Y-72129610D01*
X68942019Y-72053419D01*
X68903924Y-71977229D01*
X68865829Y-71824848D01*
X68865829Y-71710562D01*
X68903924Y-71558181D01*
X68942019Y-71481990D01*
X69018210Y-71405800D01*
X69132496Y-71367705D01*
X69208686Y-71367705D01*
X69322972Y-71405800D01*
X69361067Y-71443895D01*
X69742019Y-72167705D02*
X69894400Y-72167705D01*
X69970591Y-72129610D01*
X70008686Y-72091514D01*
X70084877Y-71977229D01*
X70122972Y-71824848D01*
X70122972Y-71520086D01*
X70084877Y-71443895D01*
X70046781Y-71405800D01*
X69970591Y-71367705D01*
X69818210Y-71367705D01*
X69742019Y-71405800D01*
X69703924Y-71443895D01*
X69665829Y-71520086D01*
X69665829Y-71710562D01*
X69703924Y-71786752D01*
X69742019Y-71824848D01*
X69818210Y-71862943D01*
X69970591Y-71862943D01*
X70046781Y-71824848D01*
X70084877Y-71786752D01*
X70122972Y-71710562D01*
D17*
X113148534Y-42327286D02*
X113109829Y-42365990D01*
X112993715Y-42404695D01*
X112916305Y-42404695D01*
X112800191Y-42365990D01*
X112722782Y-42288581D01*
X112684077Y-42211171D01*
X112645372Y-42056352D01*
X112645372Y-41940238D01*
X112684077Y-41785419D01*
X112722782Y-41708010D01*
X112800191Y-41630600D01*
X112916305Y-41591895D01*
X112993715Y-41591895D01*
X113109829Y-41630600D01*
X113148534Y-41669305D01*
X113845220Y-41591895D02*
X113690401Y-41591895D01*
X113612991Y-41630600D01*
X113574286Y-41669305D01*
X113496877Y-41785419D01*
X113458172Y-41940238D01*
X113458172Y-42249876D01*
X113496877Y-42327286D01*
X113535582Y-42365990D01*
X113612991Y-42404695D01*
X113767810Y-42404695D01*
X113845220Y-42365990D01*
X113883924Y-42327286D01*
X113922629Y-42249876D01*
X113922629Y-42056352D01*
X113883924Y-41978943D01*
X113845220Y-41940238D01*
X113767810Y-41901533D01*
X113612991Y-41901533D01*
X113535582Y-41940238D01*
X113496877Y-41978943D01*
X113458172Y-42056352D01*
X66929000Y-44416133D02*
X66962867Y-44449999D01*
X66996733Y-44551599D01*
X66996733Y-44619333D01*
X66962867Y-44720933D01*
X66895133Y-44788666D01*
X66827400Y-44822533D01*
X66691933Y-44856399D01*
X66590333Y-44856399D01*
X66454867Y-44822533D01*
X66387133Y-44788666D01*
X66319400Y-44720933D01*
X66285533Y-44619333D01*
X66285533Y-44551599D01*
X66319400Y-44449999D01*
X66353267Y-44416133D01*
X66285533Y-44179066D02*
X66285533Y-43738799D01*
X66556467Y-43975866D01*
X66556467Y-43874266D01*
X66590333Y-43806533D01*
X66624200Y-43772666D01*
X66691933Y-43738799D01*
X66861267Y-43738799D01*
X66929000Y-43772666D01*
X66962867Y-43806533D01*
X66996733Y-43874266D01*
X66996733Y-44077466D01*
X66962867Y-44145199D01*
X66929000Y-44179066D01*
X71677591Y-54665638D02*
X71677591Y-53700438D01*
X72045286Y-53700438D01*
X72137210Y-53746400D01*
X72183171Y-53792362D01*
X72229133Y-53884286D01*
X72229133Y-54022171D01*
X72183171Y-54114095D01*
X72137210Y-54160057D01*
X72045286Y-54206019D01*
X71677591Y-54206019D01*
X72550867Y-53700438D02*
X73148371Y-53700438D01*
X72826638Y-54068133D01*
X72964524Y-54068133D01*
X73056448Y-54114095D01*
X73102410Y-54160057D01*
X73148371Y-54251981D01*
X73148371Y-54481790D01*
X73102410Y-54573714D01*
X73056448Y-54619676D01*
X72964524Y-54665638D01*
X72688752Y-54665638D01*
X72596829Y-54619676D01*
X72550867Y-54573714D01*
X64340620Y-53243238D02*
X64485763Y-53291619D01*
X64727667Y-53291619D01*
X64824429Y-53243238D01*
X64872810Y-53194857D01*
X64921191Y-53098095D01*
X64921191Y-53001333D01*
X64872810Y-52904571D01*
X64824429Y-52856190D01*
X64727667Y-52807810D01*
X64534144Y-52759429D01*
X64437382Y-52711048D01*
X64389001Y-52662667D01*
X64340620Y-52565905D01*
X64340620Y-52469143D01*
X64389001Y-52372381D01*
X64437382Y-52324000D01*
X64534144Y-52275619D01*
X64776048Y-52275619D01*
X64921191Y-52324000D01*
X65356620Y-52614286D02*
X65356620Y-53630286D01*
X65356620Y-52662667D02*
X65453382Y-52614286D01*
X65646905Y-52614286D01*
X65743667Y-52662667D01*
X65792048Y-52711048D01*
X65840429Y-52807810D01*
X65840429Y-53098095D01*
X65792048Y-53194857D01*
X65743667Y-53243238D01*
X65646905Y-53291619D01*
X65453382Y-53291619D01*
X65356620Y-53243238D01*
X66662905Y-53243238D02*
X66566143Y-53291619D01*
X66372620Y-53291619D01*
X66275858Y-53243238D01*
X66227477Y-53146476D01*
X66227477Y-52759429D01*
X66275858Y-52662667D01*
X66372620Y-52614286D01*
X66566143Y-52614286D01*
X66662905Y-52662667D01*
X66711286Y-52759429D01*
X66711286Y-52856190D01*
X66227477Y-52952952D01*
X67533762Y-53243238D02*
X67437000Y-53291619D01*
X67243477Y-53291619D01*
X67146715Y-53243238D01*
X67098334Y-53146476D01*
X67098334Y-52759429D01*
X67146715Y-52662667D01*
X67243477Y-52614286D01*
X67437000Y-52614286D01*
X67533762Y-52662667D01*
X67582143Y-52759429D01*
X67582143Y-52856190D01*
X67098334Y-52952952D01*
X68453000Y-53291619D02*
X68453000Y-52275619D01*
X68453000Y-53243238D02*
X68356238Y-53291619D01*
X68162715Y-53291619D01*
X68065953Y-53243238D01*
X68017572Y-53194857D01*
X67969191Y-53098095D01*
X67969191Y-52807810D01*
X68017572Y-52711048D01*
X68065953Y-52662667D01*
X68162715Y-52614286D01*
X68356238Y-52614286D01*
X68453000Y-52662667D01*
X115363172Y-65013114D02*
X115363172Y-64251114D01*
X115653457Y-64251114D01*
X115726029Y-64287400D01*
X115762314Y-64323686D01*
X115798600Y-64396257D01*
X115798600Y-64505114D01*
X115762314Y-64577686D01*
X115726029Y-64613971D01*
X115653457Y-64650257D01*
X115363172Y-64650257D01*
X116524314Y-65013114D02*
X116088886Y-65013114D01*
X116306600Y-65013114D02*
X116306600Y-64251114D01*
X116234029Y-64359971D01*
X116161457Y-64432543D01*
X116088886Y-64468829D01*
X114857591Y-47426638D02*
X114857591Y-46461438D01*
X115225286Y-46461438D01*
X115317210Y-46507400D01*
X115363171Y-46553362D01*
X115409133Y-46645286D01*
X115409133Y-46783171D01*
X115363171Y-46875095D01*
X115317210Y-46921057D01*
X115225286Y-46967019D01*
X114857591Y-46967019D01*
X116236448Y-46783171D02*
X116236448Y-47426638D01*
X116006638Y-46415476D02*
X115776829Y-47104905D01*
X116374333Y-47104905D01*
X124396500Y-46971857D02*
X124396500Y-46427571D01*
X124723071Y-47080714D02*
X123580071Y-46699714D01*
X124723071Y-46318714D01*
X123961071Y-45447857D02*
X124723071Y-45447857D01*
X123961071Y-45937714D02*
X124559786Y-45937714D01*
X124668643Y-45883286D01*
X124723071Y-45774428D01*
X124723071Y-45611143D01*
X124668643Y-45502286D01*
X124614214Y-45447857D01*
X124723071Y-45012428D02*
X123961071Y-44413714D01*
X123961071Y-45012428D02*
X124723071Y-44413714D01*
X113148534Y-38721695D02*
X112877601Y-38334648D01*
X112684077Y-38721695D02*
X112684077Y-37908895D01*
X112993715Y-37908895D01*
X113071124Y-37947600D01*
X113109829Y-37986305D01*
X113148534Y-38063714D01*
X113148534Y-38179829D01*
X113109829Y-38257238D01*
X113071124Y-38295943D01*
X112993715Y-38334648D01*
X112684077Y-38334648D01*
X113845220Y-38179829D02*
X113845220Y-38721695D01*
X113651696Y-37870190D02*
X113458172Y-38450762D01*
X113961334Y-38450762D01*
X75150134Y-61478886D02*
X75111429Y-61517590D01*
X74995315Y-61556295D01*
X74917905Y-61556295D01*
X74801791Y-61517590D01*
X74724382Y-61440181D01*
X74685677Y-61362771D01*
X74646972Y-61207952D01*
X74646972Y-61091838D01*
X74685677Y-60937019D01*
X74724382Y-60859610D01*
X74801791Y-60782200D01*
X74917905Y-60743495D01*
X74995315Y-60743495D01*
X75111429Y-60782200D01*
X75150134Y-60820905D01*
X75421067Y-60743495D02*
X75962934Y-60743495D01*
X75614591Y-61556295D01*
X107046486Y-71892886D02*
X107007781Y-71931590D01*
X106891667Y-71970295D01*
X106814257Y-71970295D01*
X106698143Y-71931590D01*
X106620734Y-71854181D01*
X106582029Y-71776771D01*
X106543324Y-71621952D01*
X106543324Y-71505838D01*
X106582029Y-71351019D01*
X106620734Y-71273610D01*
X106698143Y-71196200D01*
X106814257Y-71157495D01*
X106891667Y-71157495D01*
X107007781Y-71196200D01*
X107046486Y-71234905D01*
X107820581Y-71970295D02*
X107356124Y-71970295D01*
X107588353Y-71970295D02*
X107588353Y-71157495D01*
X107510943Y-71273610D01*
X107433534Y-71351019D01*
X107356124Y-71389724D01*
X108594676Y-71970295D02*
X108130219Y-71970295D01*
X108362448Y-71970295D02*
X108362448Y-71157495D01*
X108285038Y-71273610D01*
X108207629Y-71351019D01*
X108130219Y-71389724D01*
X102093486Y-72172286D02*
X102054781Y-72210990D01*
X101938667Y-72249695D01*
X101861257Y-72249695D01*
X101745143Y-72210990D01*
X101667734Y-72133581D01*
X101629029Y-72056171D01*
X101590324Y-71901352D01*
X101590324Y-71785238D01*
X101629029Y-71630419D01*
X101667734Y-71553010D01*
X101745143Y-71475600D01*
X101861257Y-71436895D01*
X101938667Y-71436895D01*
X102054781Y-71475600D01*
X102093486Y-71514305D01*
X102867581Y-72249695D02*
X102403124Y-72249695D01*
X102635353Y-72249695D02*
X102635353Y-71436895D01*
X102557943Y-71553010D01*
X102480534Y-71630419D01*
X102403124Y-71669124D01*
X103177219Y-71514305D02*
X103215924Y-71475600D01*
X103293333Y-71436895D01*
X103486857Y-71436895D01*
X103564267Y-71475600D01*
X103602971Y-71514305D01*
X103641676Y-71591714D01*
X103641676Y-71669124D01*
X103602971Y-71785238D01*
X103138514Y-72249695D01*
X103641676Y-72249695D01*
X101966486Y-64552286D02*
X101927781Y-64590990D01*
X101811667Y-64629695D01*
X101734257Y-64629695D01*
X101618143Y-64590990D01*
X101540734Y-64513581D01*
X101502029Y-64436171D01*
X101463324Y-64281352D01*
X101463324Y-64165238D01*
X101502029Y-64010419D01*
X101540734Y-63933010D01*
X101618143Y-63855600D01*
X101734257Y-63816895D01*
X101811667Y-63816895D01*
X101927781Y-63855600D01*
X101966486Y-63894305D01*
X102740581Y-64629695D02*
X102276124Y-64629695D01*
X102508353Y-64629695D02*
X102508353Y-63816895D01*
X102430943Y-63933010D01*
X102353534Y-64010419D01*
X102276124Y-64049124D01*
X103011514Y-63816895D02*
X103514676Y-63816895D01*
X103243743Y-64126533D01*
X103359857Y-64126533D01*
X103437267Y-64165238D01*
X103475971Y-64203943D01*
X103514676Y-64281352D01*
X103514676Y-64474876D01*
X103475971Y-64552286D01*
X103437267Y-64590990D01*
X103359857Y-64629695D01*
X103127629Y-64629695D01*
X103050219Y-64590990D01*
X103011514Y-64552286D01*
D10*
X84575667Y-73894905D02*
X84309000Y-73513952D01*
X84118524Y-73894905D02*
X84118524Y-73094905D01*
X84423286Y-73094905D01*
X84499477Y-73133000D01*
X84537572Y-73171095D01*
X84575667Y-73247286D01*
X84575667Y-73361571D01*
X84537572Y-73437762D01*
X84499477Y-73475857D01*
X84423286Y-73513952D01*
X84118524Y-73513952D01*
X85032810Y-73437762D02*
X84956619Y-73399667D01*
X84918524Y-73361571D01*
X84880429Y-73285381D01*
X84880429Y-73247286D01*
X84918524Y-73171095D01*
X84956619Y-73133000D01*
X85032810Y-73094905D01*
X85185191Y-73094905D01*
X85261381Y-73133000D01*
X85299477Y-73171095D01*
X85337572Y-73247286D01*
X85337572Y-73285381D01*
X85299477Y-73361571D01*
X85261381Y-73399667D01*
X85185191Y-73437762D01*
X85032810Y-73437762D01*
X84956619Y-73475857D01*
X84918524Y-73513952D01*
X84880429Y-73590143D01*
X84880429Y-73742524D01*
X84918524Y-73818714D01*
X84956619Y-73856810D01*
X85032810Y-73894905D01*
X85185191Y-73894905D01*
X85261381Y-73856810D01*
X85299477Y-73818714D01*
X85337572Y-73742524D01*
X85337572Y-73590143D01*
X85299477Y-73513952D01*
X85261381Y-73475857D01*
X85185191Y-73437762D01*
X113665001Y-60339514D02*
X113461801Y-59976657D01*
X113316658Y-60339514D02*
X113316658Y-59577514D01*
X113548886Y-59577514D01*
X113606944Y-59613800D01*
X113635972Y-59650086D01*
X113665001Y-59722657D01*
X113665001Y-59831514D01*
X113635972Y-59904086D01*
X113606944Y-59940371D01*
X113548886Y-59976657D01*
X113316658Y-59976657D01*
X114187515Y-59577514D02*
X114071401Y-59577514D01*
X114013344Y-59613800D01*
X113984315Y-59650086D01*
X113926258Y-59758943D01*
X113897229Y-59904086D01*
X113897229Y-60194371D01*
X113926258Y-60266943D01*
X113955286Y-60303229D01*
X114013344Y-60339514D01*
X114129458Y-60339514D01*
X114187515Y-60303229D01*
X114216544Y-60266943D01*
X114245572Y-60194371D01*
X114245572Y-60012943D01*
X114216544Y-59940371D01*
X114187515Y-59904086D01*
X114129458Y-59867800D01*
X114013344Y-59867800D01*
X113955286Y-59904086D01*
X113926258Y-59940371D01*
X113897229Y-60012943D01*
X92957714Y-73894905D02*
X92691047Y-73513952D01*
X92500571Y-73894905D02*
X92500571Y-73094905D01*
X92805333Y-73094905D01*
X92881524Y-73133000D01*
X92919619Y-73171095D01*
X92957714Y-73247286D01*
X92957714Y-73361571D01*
X92919619Y-73437762D01*
X92881524Y-73475857D01*
X92805333Y-73513952D01*
X92500571Y-73513952D01*
X93719619Y-73894905D02*
X93262476Y-73894905D01*
X93491047Y-73894905D02*
X93491047Y-73094905D01*
X93414857Y-73209190D01*
X93338666Y-73285381D01*
X93262476Y-73323476D01*
X94214857Y-73094905D02*
X94291048Y-73094905D01*
X94367238Y-73133000D01*
X94405333Y-73171095D01*
X94443429Y-73247286D01*
X94481524Y-73399667D01*
X94481524Y-73590143D01*
X94443429Y-73742524D01*
X94405333Y-73818714D01*
X94367238Y-73856810D01*
X94291048Y-73894905D01*
X94214857Y-73894905D01*
X94138667Y-73856810D01*
X94100571Y-73818714D01*
X94062476Y-73742524D01*
X94024381Y-73590143D01*
X94024381Y-73399667D01*
X94062476Y-73247286D01*
X94100571Y-73171095D01*
X94138667Y-73133000D01*
X94214857Y-73094905D01*
X113404667Y-55225905D02*
X113138000Y-54844952D01*
X112947524Y-55225905D02*
X112947524Y-54425905D01*
X113252286Y-54425905D01*
X113328477Y-54464000D01*
X113366572Y-54502095D01*
X113404667Y-54578286D01*
X113404667Y-54692571D01*
X113366572Y-54768762D01*
X113328477Y-54806857D01*
X113252286Y-54844952D01*
X112947524Y-54844952D01*
X114128477Y-54425905D02*
X113747524Y-54425905D01*
X113709429Y-54806857D01*
X113747524Y-54768762D01*
X113823715Y-54730667D01*
X114014191Y-54730667D01*
X114090381Y-54768762D01*
X114128477Y-54806857D01*
X114166572Y-54883048D01*
X114166572Y-55073524D01*
X114128477Y-55149714D01*
X114090381Y-55187810D01*
X114014191Y-55225905D01*
X113823715Y-55225905D01*
X113747524Y-55187810D01*
X113709429Y-55149714D01*
X90544667Y-73894905D02*
X90278000Y-73513952D01*
X90087524Y-73894905D02*
X90087524Y-73094905D01*
X90392286Y-73094905D01*
X90468477Y-73133000D01*
X90506572Y-73171095D01*
X90544667Y-73247286D01*
X90544667Y-73361571D01*
X90506572Y-73437762D01*
X90468477Y-73475857D01*
X90392286Y-73513952D01*
X90087524Y-73513952D01*
X90925619Y-73894905D02*
X91078000Y-73894905D01*
X91154191Y-73856810D01*
X91192286Y-73818714D01*
X91268477Y-73704429D01*
X91306572Y-73552048D01*
X91306572Y-73247286D01*
X91268477Y-73171095D01*
X91230381Y-73133000D01*
X91154191Y-73094905D01*
X91001810Y-73094905D01*
X90925619Y-73133000D01*
X90887524Y-73171095D01*
X90849429Y-73247286D01*
X90849429Y-73437762D01*
X90887524Y-73513952D01*
X90925619Y-73552048D01*
X91001810Y-73590143D01*
X91154191Y-73590143D01*
X91230381Y-73552048D01*
X91268477Y-73513952D01*
X91306572Y-73437762D01*
X113461800Y-58383714D02*
X113207800Y-58020857D01*
X113026372Y-58383714D02*
X113026372Y-57621714D01*
X113316657Y-57621714D01*
X113389229Y-57658000D01*
X113425514Y-57694286D01*
X113461800Y-57766857D01*
X113461800Y-57875714D01*
X113425514Y-57948286D01*
X113389229Y-57984571D01*
X113316657Y-58020857D01*
X113026372Y-58020857D01*
X113715800Y-57621714D02*
X114223800Y-57621714D01*
X113897229Y-58383714D01*
X86785524Y-77704905D02*
X86785524Y-76904905D01*
X86976000Y-76904905D01*
X87090286Y-76943000D01*
X87166477Y-77019190D01*
X87204572Y-77095381D01*
X87242667Y-77247762D01*
X87242667Y-77362048D01*
X87204572Y-77514429D01*
X87166477Y-77590619D01*
X87090286Y-77666810D01*
X86976000Y-77704905D01*
X86785524Y-77704905D01*
X87509334Y-76904905D02*
X88004572Y-76904905D01*
X87737905Y-77209667D01*
X87852191Y-77209667D01*
X87928381Y-77247762D01*
X87966477Y-77285857D01*
X88004572Y-77362048D01*
X88004572Y-77552524D01*
X87966477Y-77628714D01*
X87928381Y-77666810D01*
X87852191Y-77704905D01*
X87623619Y-77704905D01*
X87547429Y-77666810D01*
X87509334Y-77628714D01*
D27*
X84609215Y-79023029D02*
X85189786Y-79023029D01*
X84656386Y-78952876D02*
X84946671Y-78527124D01*
X85236957Y-78952876D01*
D10*
X80181524Y-77146105D02*
X80181524Y-76346105D01*
X80372000Y-76346105D01*
X80486286Y-76384200D01*
X80562477Y-76460390D01*
X80600572Y-76536581D01*
X80638667Y-76688962D01*
X80638667Y-76803248D01*
X80600572Y-76955629D01*
X80562477Y-77031819D01*
X80486286Y-77108010D01*
X80372000Y-77146105D01*
X80181524Y-77146105D01*
X80943429Y-76422295D02*
X80981524Y-76384200D01*
X81057715Y-76346105D01*
X81248191Y-76346105D01*
X81324381Y-76384200D01*
X81362477Y-76422295D01*
X81400572Y-76498486D01*
X81400572Y-76574676D01*
X81362477Y-76688962D01*
X80905334Y-77146105D01*
X81400572Y-77146105D01*
D27*
X79529215Y-79023029D02*
X80109786Y-79023029D01*
X79576386Y-78952876D02*
X79866671Y-78527124D01*
X80156957Y-78952876D01*
D10*
X82721524Y-77196905D02*
X82721524Y-76396905D01*
X82912000Y-76396905D01*
X83026286Y-76435000D01*
X83102477Y-76511190D01*
X83140572Y-76587381D01*
X83178667Y-76739762D01*
X83178667Y-76854048D01*
X83140572Y-77006429D01*
X83102477Y-77082619D01*
X83026286Y-77158810D01*
X82912000Y-77196905D01*
X82721524Y-77196905D01*
X83902477Y-76396905D02*
X83521524Y-76396905D01*
X83483429Y-76777857D01*
X83521524Y-76739762D01*
X83597715Y-76701667D01*
X83788191Y-76701667D01*
X83864381Y-76739762D01*
X83902477Y-76777857D01*
X83940572Y-76854048D01*
X83940572Y-77044524D01*
X83902477Y-77120714D01*
X83864381Y-77158810D01*
X83788191Y-77196905D01*
X83597715Y-77196905D01*
X83521524Y-77158810D01*
X83483429Y-77120714D01*
D27*
X82069215Y-79023029D02*
X82649786Y-79023029D01*
X82116386Y-78952876D02*
X82406671Y-78527124D01*
X82696957Y-78952876D01*
D19*
X90378946Y-77605769D02*
X90378946Y-76856469D01*
X90557351Y-76856469D01*
X90664393Y-76892150D01*
X90735755Y-76963512D01*
X90771436Y-77034874D01*
X90807117Y-77177598D01*
X90807117Y-77284640D01*
X90771436Y-77427364D01*
X90735755Y-77498726D01*
X90664393Y-77570088D01*
X90557351Y-77605769D01*
X90378946Y-77605769D01*
X91449374Y-77106236D02*
X91449374Y-77605769D01*
X91270970Y-76820788D02*
X91092565Y-77356002D01*
X91556417Y-77356002D01*
D10*
X87851343Y-61663943D02*
X87815057Y-61700229D01*
X87706200Y-61736514D01*
X87633629Y-61736514D01*
X87524772Y-61700229D01*
X87452200Y-61627657D01*
X87415915Y-61555086D01*
X87379629Y-61409943D01*
X87379629Y-61301086D01*
X87415915Y-61155943D01*
X87452200Y-61083371D01*
X87524772Y-61010800D01*
X87633629Y-60974514D01*
X87706200Y-60974514D01*
X87815057Y-61010800D01*
X87851343Y-61047086D01*
X88577057Y-61736514D02*
X88141629Y-61736514D01*
X88359343Y-61736514D02*
X88359343Y-60974514D01*
X88286772Y-61083371D01*
X88214200Y-61155943D01*
X88141629Y-61192229D01*
X88831057Y-60974514D02*
X89339057Y-60974514D01*
X89012486Y-61736514D01*
X112769714Y-51339714D02*
X112731619Y-51377810D01*
X112617333Y-51415905D01*
X112541143Y-51415905D01*
X112426857Y-51377810D01*
X112350666Y-51301619D01*
X112312571Y-51225429D01*
X112274476Y-51073048D01*
X112274476Y-50958762D01*
X112312571Y-50806381D01*
X112350666Y-50730190D01*
X112426857Y-50654000D01*
X112541143Y-50615905D01*
X112617333Y-50615905D01*
X112731619Y-50654000D01*
X112769714Y-50692095D01*
X113531619Y-51415905D02*
X113074476Y-51415905D01*
X113303047Y-51415905D02*
X113303047Y-50615905D01*
X113226857Y-50730190D01*
X113150666Y-50806381D01*
X113074476Y-50844476D01*
X113988762Y-50958762D02*
X113912571Y-50920667D01*
X113874476Y-50882571D01*
X113836381Y-50806381D01*
X113836381Y-50768286D01*
X113874476Y-50692095D01*
X113912571Y-50654000D01*
X113988762Y-50615905D01*
X114141143Y-50615905D01*
X114217333Y-50654000D01*
X114255429Y-50692095D01*
X114293524Y-50768286D01*
X114293524Y-50806381D01*
X114255429Y-50882571D01*
X114217333Y-50920667D01*
X114141143Y-50958762D01*
X113988762Y-50958762D01*
X113912571Y-50996857D01*
X113874476Y-51034952D01*
X113836381Y-51111143D01*
X113836381Y-51263524D01*
X113874476Y-51339714D01*
X113912571Y-51377810D01*
X113988762Y-51415905D01*
X114141143Y-51415905D01*
X114217333Y-51377810D01*
X114255429Y-51339714D01*
X114293524Y-51263524D01*
X114293524Y-51111143D01*
X114255429Y-51034952D01*
X114217333Y-50996857D01*
X114141143Y-50958762D01*
X92322714Y-47428114D02*
X92284619Y-47466210D01*
X92170333Y-47504305D01*
X92094143Y-47504305D01*
X91979857Y-47466210D01*
X91903666Y-47390019D01*
X91865571Y-47313829D01*
X91827476Y-47161448D01*
X91827476Y-47047162D01*
X91865571Y-46894781D01*
X91903666Y-46818590D01*
X91979857Y-46742400D01*
X92094143Y-46704305D01*
X92170333Y-46704305D01*
X92284619Y-46742400D01*
X92322714Y-46780495D01*
X93084619Y-47504305D02*
X92627476Y-47504305D01*
X92856047Y-47504305D02*
X92856047Y-46704305D01*
X92779857Y-46818590D01*
X92703666Y-46894781D01*
X92627476Y-46932876D01*
X93808429Y-46704305D02*
X93427476Y-46704305D01*
X93389381Y-47085257D01*
X93427476Y-47047162D01*
X93503667Y-47009067D01*
X93694143Y-47009067D01*
X93770333Y-47047162D01*
X93808429Y-47085257D01*
X93846524Y-47161448D01*
X93846524Y-47351924D01*
X93808429Y-47428114D01*
X93770333Y-47466210D01*
X93694143Y-47504305D01*
X93503667Y-47504305D01*
X93427476Y-47466210D01*
X93389381Y-47428114D01*
X81654714Y-62261714D02*
X81616619Y-62299810D01*
X81502333Y-62337905D01*
X81426143Y-62337905D01*
X81311857Y-62299810D01*
X81235666Y-62223619D01*
X81197571Y-62147429D01*
X81159476Y-61995048D01*
X81159476Y-61880762D01*
X81197571Y-61728381D01*
X81235666Y-61652190D01*
X81311857Y-61576000D01*
X81426143Y-61537905D01*
X81502333Y-61537905D01*
X81616619Y-61576000D01*
X81654714Y-61614095D01*
X82416619Y-62337905D02*
X81959476Y-62337905D01*
X82188047Y-62337905D02*
X82188047Y-61537905D01*
X82111857Y-61652190D01*
X82035666Y-61728381D01*
X81959476Y-61766476D01*
X83102333Y-61537905D02*
X82949952Y-61537905D01*
X82873762Y-61576000D01*
X82835667Y-61614095D01*
X82759476Y-61728381D01*
X82721381Y-61880762D01*
X82721381Y-62185524D01*
X82759476Y-62261714D01*
X82797571Y-62299810D01*
X82873762Y-62337905D01*
X83026143Y-62337905D01*
X83102333Y-62299810D01*
X83140429Y-62261714D01*
X83178524Y-62185524D01*
X83178524Y-61995048D01*
X83140429Y-61918857D01*
X83102333Y-61880762D01*
X83026143Y-61842667D01*
X82873762Y-61842667D01*
X82797571Y-61880762D01*
X82759476Y-61918857D01*
X82721381Y-61995048D01*
X87369714Y-73894905D02*
X87103047Y-73513952D01*
X86912571Y-73894905D02*
X86912571Y-73094905D01*
X87217333Y-73094905D01*
X87293524Y-73133000D01*
X87331619Y-73171095D01*
X87369714Y-73247286D01*
X87369714Y-73361571D01*
X87331619Y-73437762D01*
X87293524Y-73475857D01*
X87217333Y-73513952D01*
X86912571Y-73513952D01*
X88131619Y-73894905D02*
X87674476Y-73894905D01*
X87903047Y-73894905D02*
X87903047Y-73094905D01*
X87826857Y-73209190D01*
X87750666Y-73285381D01*
X87674476Y-73323476D01*
X88893524Y-73894905D02*
X88436381Y-73894905D01*
X88664952Y-73894905D02*
X88664952Y-73094905D01*
X88588762Y-73209190D01*
X88512571Y-73285381D01*
X88436381Y-73323476D01*
D28*
X115261572Y-53379914D02*
X115261572Y-52617914D01*
X115551857Y-52617914D01*
X115624429Y-52654200D01*
X115660714Y-52690486D01*
X115697000Y-52763057D01*
X115697000Y-52871914D01*
X115660714Y-52944486D01*
X115624429Y-52980771D01*
X115551857Y-53017057D01*
X115261572Y-53017057D01*
X116386429Y-52617914D02*
X116023572Y-52617914D01*
X115987286Y-52980771D01*
X116023572Y-52944486D01*
X116096143Y-52908200D01*
X116277572Y-52908200D01*
X116350143Y-52944486D01*
X116386429Y-52980771D01*
X116422714Y-53053343D01*
X116422714Y-53234771D01*
X116386429Y-53307343D01*
X116350143Y-53343629D01*
X116277572Y-53379914D01*
X116096143Y-53379914D01*
X116023572Y-53343629D01*
X115987286Y-53307343D01*
D17*
X124770243Y-60388501D02*
X124824671Y-60225215D01*
X124824671Y-59953072D01*
X124770243Y-59844215D01*
X124715814Y-59789786D01*
X124606957Y-59735358D01*
X124498100Y-59735358D01*
X124389243Y-59789786D01*
X124334814Y-59844215D01*
X124280386Y-59953072D01*
X124225957Y-60170786D01*
X124171529Y-60279644D01*
X124117100Y-60334072D01*
X124008243Y-60388501D01*
X123899386Y-60388501D01*
X123790529Y-60334072D01*
X123736100Y-60279644D01*
X123681671Y-60170786D01*
X123681671Y-59898644D01*
X123736100Y-59735358D01*
X124062671Y-59408787D02*
X124062671Y-58973358D01*
X123681671Y-59245501D02*
X124661386Y-59245501D01*
X124770243Y-59191073D01*
X124824671Y-59082215D01*
X124824671Y-58973358D01*
X124824671Y-58102501D02*
X124225957Y-58102501D01*
X124117100Y-58156930D01*
X124062671Y-58265787D01*
X124062671Y-58483501D01*
X124117100Y-58592358D01*
X124770243Y-58102501D02*
X124824671Y-58211358D01*
X124824671Y-58483501D01*
X124770243Y-58592358D01*
X124661386Y-58646787D01*
X124552529Y-58646787D01*
X124443671Y-58592358D01*
X124389243Y-58483501D01*
X124389243Y-58211358D01*
X124334814Y-58102501D01*
X124062671Y-57721501D02*
X124062671Y-57286072D01*
X123681671Y-57558215D02*
X124661386Y-57558215D01*
X124770243Y-57503787D01*
X124824671Y-57394929D01*
X124824671Y-57286072D01*
X124062671Y-56415215D02*
X124824671Y-56415215D01*
X124062671Y-56905072D02*
X124661386Y-56905072D01*
X124770243Y-56850644D01*
X124824671Y-56741786D01*
X124824671Y-56578501D01*
X124770243Y-56469644D01*
X124715814Y-56415215D01*
X124770243Y-55925358D02*
X124824671Y-55816501D01*
X124824671Y-55598786D01*
X124770243Y-55489929D01*
X124661386Y-55435501D01*
X124606957Y-55435501D01*
X124498100Y-55489929D01*
X124443671Y-55598786D01*
X124443671Y-55762072D01*
X124389243Y-55870929D01*
X124280386Y-55925358D01*
X124225957Y-55925358D01*
X124117100Y-55870929D01*
X124062671Y-55762072D01*
X124062671Y-55598786D01*
X124117100Y-55489929D01*
X124824671Y-54074786D02*
X123681671Y-54074786D01*
X123627243Y-52714072D02*
X125096814Y-53693786D01*
X123681671Y-52115357D02*
X123681671Y-51897643D01*
X123736100Y-51788785D01*
X123844957Y-51679928D01*
X124062671Y-51625500D01*
X124443671Y-51625500D01*
X124661386Y-51679928D01*
X124770243Y-51788785D01*
X124824671Y-51897643D01*
X124824671Y-52115357D01*
X124770243Y-52224214D01*
X124661386Y-52333071D01*
X124443671Y-52387500D01*
X124062671Y-52387500D01*
X123844957Y-52333071D01*
X123736100Y-52224214D01*
X123681671Y-52115357D01*
D15*
X104424238Y-67100752D02*
X104424238Y-67635362D01*
X104455686Y-67698257D01*
X104487133Y-67729705D01*
X104550029Y-67761152D01*
X104675819Y-67761152D01*
X104738714Y-67729705D01*
X104770162Y-67698257D01*
X104801610Y-67635362D01*
X104801610Y-67100752D01*
X105210429Y-67383781D02*
X105147534Y-67352333D01*
X105116086Y-67320886D01*
X105084638Y-67257990D01*
X105084638Y-67226543D01*
X105116086Y-67163648D01*
X105147534Y-67132200D01*
X105210429Y-67100752D01*
X105336219Y-67100752D01*
X105399115Y-67132200D01*
X105430562Y-67163648D01*
X105462010Y-67226543D01*
X105462010Y-67257990D01*
X105430562Y-67320886D01*
X105399115Y-67352333D01*
X105336219Y-67383781D01*
X105210429Y-67383781D01*
X105147534Y-67415229D01*
X105116086Y-67446676D01*
X105084638Y-67509571D01*
X105084638Y-67635362D01*
X105116086Y-67698257D01*
X105147534Y-67729705D01*
X105210429Y-67761152D01*
X105336219Y-67761152D01*
X105399115Y-67729705D01*
X105430562Y-67698257D01*
X105462010Y-67635362D01*
X105462010Y-67509571D01*
X105430562Y-67446676D01*
X105399115Y-67415229D01*
X105336219Y-67383781D01*
X110874024Y-70254586D02*
X110904262Y-70163871D01*
X110904262Y-70012681D01*
X110874024Y-69952205D01*
X110843786Y-69921967D01*
X110783310Y-69891728D01*
X110722833Y-69891728D01*
X110662357Y-69921967D01*
X110632119Y-69952205D01*
X110601881Y-70012681D01*
X110571643Y-70133633D01*
X110541405Y-70194109D01*
X110511167Y-70224348D01*
X110450690Y-70254586D01*
X110390214Y-70254586D01*
X110329738Y-70224348D01*
X110299500Y-70194109D01*
X110269262Y-70133633D01*
X110269262Y-69982443D01*
X110299500Y-69891728D01*
X110904262Y-69619586D02*
X110269262Y-69619586D01*
X110480929Y-69045062D02*
X110904262Y-69045062D01*
X110239024Y-69196252D02*
X110692595Y-69347443D01*
X110692595Y-68954347D01*
X110269262Y-68410062D02*
X110269262Y-68712443D01*
X110571643Y-68742681D01*
X110541405Y-68712443D01*
X110511167Y-68651966D01*
X110511167Y-68500776D01*
X110541405Y-68440300D01*
X110571643Y-68410062D01*
X110632119Y-68379823D01*
X110783310Y-68379823D01*
X110843786Y-68410062D01*
X110874024Y-68440300D01*
X110904262Y-68500776D01*
X110904262Y-68651966D01*
X110874024Y-68712443D01*
X110843786Y-68742681D01*
X110269262Y-67805300D02*
X110269262Y-68107681D01*
X110571643Y-68137919D01*
X110541405Y-68107681D01*
X110511167Y-68047204D01*
X110511167Y-67896014D01*
X110541405Y-67835538D01*
X110571643Y-67805300D01*
X110632119Y-67775061D01*
X110783310Y-67775061D01*
X110843786Y-67805300D01*
X110874024Y-67835538D01*
X110904262Y-67896014D01*
X110904262Y-68047204D01*
X110874024Y-68107681D01*
X110843786Y-68137919D01*
X110480929Y-67230776D02*
X110904262Y-67230776D01*
X110239024Y-67381966D02*
X110692595Y-67533157D01*
X110692595Y-67140061D01*
X110904262Y-66898157D02*
X110269262Y-66898157D01*
X110269262Y-66746966D01*
X110299500Y-66656252D01*
X110359976Y-66595776D01*
X110420452Y-66565537D01*
X110541405Y-66535299D01*
X110632119Y-66535299D01*
X110753071Y-66565537D01*
X110813548Y-66595776D01*
X110874024Y-66656252D01*
X110904262Y-66746966D01*
X110904262Y-66898157D01*
X110601881Y-66142204D02*
X110904262Y-66142204D01*
X110269262Y-66353871D02*
X110601881Y-66142204D01*
X110269262Y-65930537D01*
X104424238Y-74720752D02*
X104424238Y-75255362D01*
X104455686Y-75318257D01*
X104487133Y-75349705D01*
X104550029Y-75381152D01*
X104675819Y-75381152D01*
X104738714Y-75349705D01*
X104770162Y-75318257D01*
X104801610Y-75255362D01*
X104801610Y-74720752D01*
X105053191Y-74720752D02*
X105493458Y-74720752D01*
X105210429Y-75381152D01*
X110874024Y-77849186D02*
X110904262Y-77758471D01*
X110904262Y-77607281D01*
X110874024Y-77546805D01*
X110843786Y-77516567D01*
X110783310Y-77486328D01*
X110722833Y-77486328D01*
X110662357Y-77516567D01*
X110632119Y-77546805D01*
X110601881Y-77607281D01*
X110571643Y-77728233D01*
X110541405Y-77788709D01*
X110511167Y-77818948D01*
X110450690Y-77849186D01*
X110390214Y-77849186D01*
X110329738Y-77818948D01*
X110299500Y-77788709D01*
X110269262Y-77728233D01*
X110269262Y-77577043D01*
X110299500Y-77486328D01*
X110904262Y-77214186D02*
X110269262Y-77214186D01*
X110480929Y-76639662D02*
X110904262Y-76639662D01*
X110239024Y-76790852D02*
X110692595Y-76942043D01*
X110692595Y-76548947D01*
X110269262Y-76004662D02*
X110269262Y-76307043D01*
X110571643Y-76337281D01*
X110541405Y-76307043D01*
X110511167Y-76246566D01*
X110511167Y-76095376D01*
X110541405Y-76034900D01*
X110571643Y-76004662D01*
X110632119Y-75974423D01*
X110783310Y-75974423D01*
X110843786Y-76004662D01*
X110874024Y-76034900D01*
X110904262Y-76095376D01*
X110904262Y-76246566D01*
X110874024Y-76307043D01*
X110843786Y-76337281D01*
X110269262Y-75399900D02*
X110269262Y-75702281D01*
X110571643Y-75732519D01*
X110541405Y-75702281D01*
X110511167Y-75641804D01*
X110511167Y-75490614D01*
X110541405Y-75430138D01*
X110571643Y-75399900D01*
X110632119Y-75369661D01*
X110783310Y-75369661D01*
X110843786Y-75399900D01*
X110874024Y-75430138D01*
X110904262Y-75490614D01*
X110904262Y-75641804D01*
X110874024Y-75702281D01*
X110843786Y-75732519D01*
X110480929Y-74825376D02*
X110904262Y-74825376D01*
X110239024Y-74976566D02*
X110692595Y-75127757D01*
X110692595Y-74734661D01*
X110904262Y-74492757D02*
X110269262Y-74492757D01*
X110269262Y-74341566D01*
X110299500Y-74250852D01*
X110359976Y-74190376D01*
X110420452Y-74160137D01*
X110541405Y-74129899D01*
X110632119Y-74129899D01*
X110753071Y-74160137D01*
X110813548Y-74190376D01*
X110874024Y-74250852D01*
X110904262Y-74341566D01*
X110904262Y-74492757D01*
X110601881Y-73736804D02*
X110904262Y-73736804D01*
X110269262Y-73948471D02*
X110601881Y-73736804D01*
X110269262Y-73525137D01*
D10*
X112693514Y-45269114D02*
X112655419Y-45307210D01*
X112541133Y-45345305D01*
X112464943Y-45345305D01*
X112350657Y-45307210D01*
X112274466Y-45231019D01*
X112236371Y-45154829D01*
X112198276Y-45002448D01*
X112198276Y-44888162D01*
X112236371Y-44735781D01*
X112274466Y-44659590D01*
X112350657Y-44583400D01*
X112464943Y-44545305D01*
X112541133Y-44545305D01*
X112655419Y-44583400D01*
X112693514Y-44621495D01*
X113455419Y-45345305D02*
X112998276Y-45345305D01*
X113226847Y-45345305D02*
X113226847Y-44545305D01*
X113150657Y-44659590D01*
X113074466Y-44735781D01*
X112998276Y-44773876D01*
X113836371Y-45345305D02*
X113988752Y-45345305D01*
X114064943Y-45307210D01*
X114103038Y-45269114D01*
X114179229Y-45154829D01*
X114217324Y-45002448D01*
X114217324Y-44697686D01*
X114179229Y-44621495D01*
X114141133Y-44583400D01*
X114064943Y-44545305D01*
X113912562Y-44545305D01*
X113836371Y-44583400D01*
X113798276Y-44621495D01*
X113760181Y-44697686D01*
X113760181Y-44888162D01*
X113798276Y-44964352D01*
X113836371Y-45002448D01*
X113912562Y-45040543D01*
X114064943Y-45040543D01*
X114141133Y-45002448D01*
X114179229Y-44964352D01*
X114217324Y-44888162D01*
X88690514Y-78263714D02*
X88652419Y-78301810D01*
X88538133Y-78339905D01*
X88461943Y-78339905D01*
X88347657Y-78301810D01*
X88271466Y-78225619D01*
X88233371Y-78149429D01*
X88195276Y-77997048D01*
X88195276Y-77882762D01*
X88233371Y-77730381D01*
X88271466Y-77654190D01*
X88347657Y-77578000D01*
X88461943Y-77539905D01*
X88538133Y-77539905D01*
X88652419Y-77578000D01*
X88690514Y-77616095D01*
X88995276Y-77616095D02*
X89033371Y-77578000D01*
X89109562Y-77539905D01*
X89300038Y-77539905D01*
X89376228Y-77578000D01*
X89414324Y-77616095D01*
X89452419Y-77692286D01*
X89452419Y-77768476D01*
X89414324Y-77882762D01*
X88957181Y-78339905D01*
X89452419Y-78339905D01*
X89947657Y-77539905D02*
X90023848Y-77539905D01*
X90100038Y-77578000D01*
X90138133Y-77616095D01*
X90176229Y-77692286D01*
X90214324Y-77844667D01*
X90214324Y-78035143D01*
X90176229Y-78187524D01*
X90138133Y-78263714D01*
X90100038Y-78301810D01*
X90023848Y-78339905D01*
X89947657Y-78339905D01*
X89871467Y-78301810D01*
X89833371Y-78263714D01*
X89795276Y-78187524D01*
X89757181Y-78035143D01*
X89757181Y-77844667D01*
X89795276Y-77692286D01*
X89833371Y-77616095D01*
X89871467Y-77578000D01*
X89947657Y-77539905D01*
D17*
X74503946Y-43328469D02*
X74503946Y-42579169D01*
X74682351Y-42579169D01*
X74789393Y-42614850D01*
X74860755Y-42686212D01*
X74896436Y-42757574D01*
X74932117Y-42900298D01*
X74932117Y-43007340D01*
X74896436Y-43150064D01*
X74860755Y-43221426D01*
X74789393Y-43292788D01*
X74682351Y-43328469D01*
X74503946Y-43328469D01*
X75645736Y-43328469D02*
X75217565Y-43328469D01*
X75431651Y-43328469D02*
X75431651Y-42579169D01*
X75360289Y-42686212D01*
X75288927Y-42757574D01*
X75217565Y-42793255D01*
D15*
X73629762Y-41203033D02*
X73272953Y-41203033D01*
X73272953Y-40491833D01*
X73879529Y-40830500D02*
X74129295Y-40830500D01*
X74236338Y-41203033D02*
X73879529Y-41203033D01*
X73879529Y-40491833D01*
X74236338Y-40491833D01*
X74557467Y-41203033D02*
X74557467Y-40491833D01*
X74735872Y-40491833D01*
X74842914Y-40525700D01*
X74914276Y-40593433D01*
X74949957Y-40661167D01*
X74985638Y-40796633D01*
X74985638Y-40898233D01*
X74949957Y-41033700D01*
X74914276Y-41101433D01*
X74842914Y-41169167D01*
X74735872Y-41203033D01*
X74557467Y-41203033D01*
X75128362Y-41270767D02*
X75699257Y-41270767D01*
X76305833Y-41203033D02*
X76056067Y-40864367D01*
X75877662Y-41203033D02*
X75877662Y-40491833D01*
X76163109Y-40491833D01*
X76234471Y-40525700D01*
X76270152Y-40559567D01*
X76305833Y-40627300D01*
X76305833Y-40728900D01*
X76270152Y-40796633D01*
X76234471Y-40830500D01*
X76163109Y-40864367D01*
X75877662Y-40864367D01*
X76519919Y-40491833D02*
X76948090Y-40491833D01*
X76734005Y-41203033D02*
X76734005Y-40491833D01*
D10*
X81680114Y-58908905D02*
X81413447Y-58527952D01*
X81222971Y-58908905D02*
X81222971Y-58108905D01*
X81527733Y-58108905D01*
X81603924Y-58147000D01*
X81642019Y-58185095D01*
X81680114Y-58261286D01*
X81680114Y-58375571D01*
X81642019Y-58451762D01*
X81603924Y-58489857D01*
X81527733Y-58527952D01*
X81222971Y-58527952D01*
X82442019Y-58908905D02*
X81984876Y-58908905D01*
X82213447Y-58908905D02*
X82213447Y-58108905D01*
X82137257Y-58223190D01*
X82061066Y-58299381D01*
X81984876Y-58337476D01*
X82708686Y-58108905D02*
X83203924Y-58108905D01*
X82937257Y-58413667D01*
X83051543Y-58413667D01*
X83127733Y-58451762D01*
X83165829Y-58489857D01*
X83203924Y-58566048D01*
X83203924Y-58756524D01*
X83165829Y-58832714D01*
X83127733Y-58870810D01*
X83051543Y-58908905D01*
X82822971Y-58908905D01*
X82746781Y-58870810D01*
X82708686Y-58832714D01*
X77844714Y-76460305D02*
X77578047Y-76079352D01*
X77387571Y-76460305D02*
X77387571Y-75660305D01*
X77692333Y-75660305D01*
X77768524Y-75698400D01*
X77806619Y-75736495D01*
X77844714Y-75812686D01*
X77844714Y-75926971D01*
X77806619Y-76003162D01*
X77768524Y-76041257D01*
X77692333Y-76079352D01*
X77387571Y-76079352D01*
X78606619Y-76460305D02*
X78149476Y-76460305D01*
X78378047Y-76460305D02*
X78378047Y-75660305D01*
X78301857Y-75774590D01*
X78225666Y-75850781D01*
X78149476Y-75888876D01*
X78911381Y-75736495D02*
X78949476Y-75698400D01*
X79025667Y-75660305D01*
X79216143Y-75660305D01*
X79292333Y-75698400D01*
X79330429Y-75736495D01*
X79368524Y-75812686D01*
X79368524Y-75888876D01*
X79330429Y-76003162D01*
X78873286Y-76460305D01*
X79368524Y-76460305D01*
D17*
X79620534Y-39496395D02*
X79349601Y-39109348D01*
X79156077Y-39496395D02*
X79156077Y-38683595D01*
X79465715Y-38683595D01*
X79543124Y-38722300D01*
X79581829Y-38761005D01*
X79620534Y-38838414D01*
X79620534Y-38954529D01*
X79581829Y-39031938D01*
X79543124Y-39070643D01*
X79465715Y-39109348D01*
X79156077Y-39109348D01*
X79930172Y-38761005D02*
X79968877Y-38722300D01*
X80046286Y-38683595D01*
X80239810Y-38683595D01*
X80317220Y-38722300D01*
X80355924Y-38761005D01*
X80394629Y-38838414D01*
X80394629Y-38915824D01*
X80355924Y-39031938D01*
X79891467Y-39496395D01*
X80394629Y-39496395D01*
D11*
G36*
X127889000Y-32639000D02*
X126111000Y-32639000D01*
X126111000Y-30861000D01*
X127889000Y-30861000D01*
X127889000Y-32639000D01*
X127889000Y-32639000D01*
G37*
X127889000Y-32639000D02*
X126111000Y-32639000D01*
X126111000Y-30861000D01*
X127889000Y-30861000D01*
X127889000Y-32639000D01*
G36*
X127889000Y-84074000D02*
X126111000Y-84074000D01*
X126111000Y-82296000D01*
X127889000Y-82296000D01*
X127889000Y-84074000D01*
X127889000Y-84074000D01*
G37*
X127889000Y-84074000D02*
X126111000Y-84074000D01*
X126111000Y-82296000D01*
X127889000Y-82296000D01*
X127889000Y-84074000D01*
G36*
X63373000Y-84074000D02*
X61595000Y-84074000D01*
X61595000Y-82296000D01*
X63373000Y-82296000D01*
X63373000Y-84074000D01*
X63373000Y-84074000D01*
G37*
X63373000Y-84074000D02*
X61595000Y-84074000D01*
X61595000Y-82296000D01*
X63373000Y-82296000D01*
X63373000Y-84074000D01*
%LPC*%
X62484000Y-83439000D02*
X62484000Y-84074000D01*
X62230000Y-83185000D02*
X61595000Y-83185000D01*
X62484000Y-82931000D02*
X62484000Y-82296000D01*
X62738000Y-83185000D02*
X63373000Y-83185000D01*
X127000000Y-82931000D02*
X127000000Y-82296000D01*
X126746000Y-83185000D02*
X126111000Y-83185000D01*
X127000000Y-83439000D02*
X127000000Y-84074000D01*
X127254000Y-83185000D02*
X127889000Y-83185000D01*
X127000000Y-32004000D02*
X127000000Y-32639000D01*
X126746000Y-31750000D02*
X126111000Y-31750000D01*
X127000000Y-31496000D02*
X127000000Y-30861000D01*
X127254000Y-31750000D02*
X127889000Y-31750000D01*
D12*
X89162715Y-98317857D02*
X88662715Y-98317857D01*
X88662715Y-99103571D02*
X88662715Y-97603571D01*
X89377001Y-97603571D01*
X90805572Y-99103571D02*
X90305572Y-98389286D01*
X89948429Y-99103571D02*
X89948429Y-97603571D01*
X90519857Y-97603571D01*
X90662715Y-97675000D01*
X90734143Y-97746429D01*
X90805572Y-97889286D01*
X90805572Y-98103571D01*
X90734143Y-98246429D01*
X90662715Y-98317857D01*
X90519857Y-98389286D01*
X89948429Y-98389286D01*
X91734143Y-97603571D02*
X92019857Y-97603571D01*
X92162715Y-97675000D01*
X92305572Y-97817857D01*
X92377000Y-98103571D01*
X92377000Y-98603571D01*
X92305572Y-98889286D01*
X92162715Y-99032143D01*
X92019857Y-99103571D01*
X91734143Y-99103571D01*
X91591286Y-99032143D01*
X91448429Y-98889286D01*
X91377000Y-98603571D01*
X91377000Y-98103571D01*
X91448429Y-97817857D01*
X91591286Y-97675000D01*
X91734143Y-97603571D01*
X93019858Y-99103571D02*
X93019858Y-97603571D01*
X93877001Y-99103571D01*
X93877001Y-97603571D01*
X94377001Y-97603571D02*
X95234144Y-97603571D01*
X94805573Y-99103571D02*
X94805573Y-97603571D01*
X96877001Y-99103571D02*
X96877001Y-97603571D01*
X97377001Y-98675000D01*
X97877001Y-97603571D01*
X97877001Y-99103571D01*
X98519858Y-98675000D02*
X99234144Y-98675000D01*
X98377001Y-99103571D02*
X98877001Y-97603571D01*
X99377001Y-99103571D01*
X99805572Y-99032143D02*
X100019858Y-99103571D01*
X100377001Y-99103571D01*
X100519858Y-99032143D01*
X100591287Y-98960714D01*
X100662715Y-98817857D01*
X100662715Y-98675000D01*
X100591287Y-98532143D01*
X100519858Y-98460714D01*
X100377001Y-98389286D01*
X100091287Y-98317857D01*
X99948429Y-98246429D01*
X99877001Y-98175000D01*
X99805572Y-98032143D01*
X99805572Y-97889286D01*
X99877001Y-97746429D01*
X99948429Y-97675000D01*
X100091287Y-97603571D01*
X100448429Y-97603571D01*
X100662715Y-97675000D01*
X101305572Y-99103571D02*
X101305572Y-97603571D01*
X102162715Y-99103571D02*
X101519858Y-98246429D01*
X102162715Y-97603571D02*
X101305572Y-98460714D01*
D29*
X96012000Y-66167000D03*
X96012000Y-67437000D03*
X96012000Y-68707000D03*
X96012000Y-69977000D03*
X101600000Y-69977000D03*
X101600000Y-68707000D03*
X101600000Y-67437000D03*
X101600000Y-66167000D03*
X96012000Y-73787000D03*
X96012000Y-75057000D03*
X96012000Y-76327000D03*
X96012000Y-77597000D03*
X101600000Y-77597000D03*
X101600000Y-76327000D03*
X101600000Y-75057000D03*
X101600000Y-73787000D03*
D30*
X85598000Y-71628000D03*
X86868000Y-71628000D03*
X88138000Y-71628000D03*
X89408000Y-71628000D03*
X90678000Y-71628000D03*
X91948000Y-71628000D03*
X93218000Y-71628000D03*
X93218000Y-66040000D03*
X91948000Y-66040000D03*
X90678000Y-66040000D03*
X89408000Y-66040000D03*
X88138000Y-66040000D03*
X86868000Y-66040000D03*
X85598000Y-66040000D03*
D31*
X91948000Y-64135000D03*
X91948000Y-62611000D03*
X77597000Y-59309000D03*
X77597000Y-57785000D03*
D32*
X75692000Y-79756000D03*
D33*
X75692000Y-77216000D03*
D34*
X120904000Y-69060000D03*
D35*
X120904000Y-65560000D03*
D36*
X89992200Y-57185560D03*
X89992200Y-52034440D03*
D37*
X81026000Y-43688000D03*
X85852000Y-40640000D03*
D38*
X85852000Y-46736000D03*
D39*
X96393000Y-49961800D03*
X96393000Y-43611800D03*
X96393000Y-37261800D03*
X107823000Y-49961800D03*
X107823000Y-43611800D03*
X107823000Y-37261800D03*
D40*
X96393000Y-40462200D03*
X107823000Y-40462200D03*
D41*
X98526600Y-46812200D03*
D42*
X68834000Y-77851000D03*
X120650000Y-77851000D03*
D32*
X74422000Y-73406000D03*
D33*
X76962000Y-73406000D03*
X79502000Y-73406000D03*
X82042000Y-73406000D03*
X82042000Y-65786000D03*
X79502000Y-65786000D03*
X76962000Y-65786000D03*
X74422000Y-65786000D03*
D43*
X105961200Y-61468000D03*
X111462800Y-61468000D03*
X83903800Y-52324000D03*
X78402200Y-52324000D03*
X69512200Y-49022000D03*
X75013800Y-49022000D03*
D44*
X85598000Y-64124800D03*
X85598000Y-62621200D03*
X65405000Y-47762200D03*
X65405000Y-49265800D03*
X73914000Y-57901800D03*
X73914000Y-56398200D03*
X111633000Y-35803800D03*
X111633000Y-34300200D03*
X71120000Y-71744800D03*
X71120000Y-70241200D03*
X111633000Y-41158200D03*
X111633000Y-42661800D03*
X67818000Y-44206200D03*
X67818000Y-45709800D03*
D45*
X113972300Y-35720000D03*
X113972300Y-40276800D03*
D46*
X121269800Y-37998400D03*
D32*
X71374000Y-61468000D03*
D33*
X71374000Y-58928000D03*
X71374000Y-56388000D03*
D32*
X118110000Y-63500000D03*
D33*
X118110000Y-66040000D03*
X118110000Y-68580000D03*
X118110000Y-71120000D03*
D32*
X118110000Y-43180000D03*
D33*
X118110000Y-45720000D03*
X118110000Y-48260000D03*
D31*
X111633000Y-37592000D03*
X111633000Y-39116000D03*
D47*
X75501500Y-62738000D03*
X77406500Y-62738000D03*
X110426500Y-71882000D03*
X112331500Y-71882000D03*
X98488500Y-71882000D03*
X100393500Y-71882000D03*
X98361500Y-64262000D03*
X100266500Y-64262000D03*
D31*
X85852000Y-74549000D03*
X85852000Y-76073000D03*
X115189000Y-61976000D03*
X115189000Y-60452000D03*
X93091000Y-74549000D03*
X93091000Y-76073000D03*
X115189000Y-55626000D03*
X115189000Y-54102000D03*
X90932000Y-74549000D03*
X90932000Y-76073000D03*
X115189000Y-58801000D03*
X115189000Y-57277000D03*
X85852000Y-79502000D03*
X85852000Y-77978000D03*
X80772000Y-79502000D03*
X80772000Y-77978000D03*
X83312000Y-79502000D03*
X83312000Y-77978000D03*
D32*
X91694000Y-78740000D03*
D33*
X94234000Y-78740000D03*
D44*
X88138000Y-64124800D03*
X88138000Y-62621200D03*
X115189000Y-51678800D03*
X115189000Y-50175200D03*
X92964000Y-45709800D03*
X92964000Y-44206200D03*
X80264000Y-62727800D03*
X80264000Y-61224200D03*
D31*
X88011000Y-74549000D03*
X88011000Y-76073000D03*
D32*
X118110000Y-50800000D03*
D33*
X118110000Y-53340000D03*
X118110000Y-55880000D03*
X118110000Y-58420000D03*
X118110000Y-60960000D03*
D48*
X65412600Y-44168100D03*
X69969400Y-44168100D03*
D49*
X67691000Y-36870600D03*
D29*
X106680000Y-66167000D03*
X106680000Y-67437000D03*
X106680000Y-68707000D03*
X106680000Y-69977000D03*
X112268000Y-69977000D03*
X112268000Y-68707000D03*
X112268000Y-67437000D03*
X112268000Y-66167000D03*
X106680000Y-73787000D03*
X106680000Y-75057000D03*
X106680000Y-76327000D03*
X106680000Y-77597000D03*
X112268000Y-77597000D03*
X112268000Y-76327000D03*
X112268000Y-75057000D03*
X112268000Y-73787000D03*
D44*
X115189000Y-44693800D03*
X115189000Y-43190200D03*
X88265000Y-80634800D03*
X88265000Y-79131200D03*
D32*
X76327000Y-38544500D03*
D33*
X73787000Y-38544500D03*
D32*
X73787000Y-34480500D03*
X76327000Y-34480500D03*
D31*
X80264000Y-57785000D03*
X80264000Y-59309000D03*
X78359000Y-77216000D03*
X78359000Y-78740000D03*
D50*
X79756000Y-34607500D03*
X79756000Y-37401500D03*
M02*
