G04 #@! TF.FileFunction,Copper,L2,Bot,Signal*
%FSLAX46Y46*%
G04 Gerber Fmt 4.6, Leading zero omitted, Abs format (unit mm)*
G04 Created by KiCad (PCBNEW 4.0.5) date 05/03/17 10:24:09*
%MOMM*%
%LPD*%
G01*
G04 APERTURE LIST*
%ADD10C,0.150000*%
%ADD11C,0.300000*%
%ADD12R,1.397000X1.397000*%
%ADD13C,1.397000*%
%ADD14O,3.048000X1.574800*%
%ADD15O,3.048000X1.600200*%
%ADD16C,4.826000*%
%ADD17C,5.080000*%
%ADD18C,2.514600*%
%ADD19C,7.620000*%
%ADD20C,1.016000*%
%ADD21C,0.889000*%
%ADD22C,0.254000*%
%ADD23C,1.016000*%
%ADD24C,0.762000*%
G04 APERTURE END LIST*
D10*
D11*
X102448428Y-92602857D02*
X102234142Y-92674286D01*
X102162714Y-92745714D01*
X102091285Y-92888571D01*
X102091285Y-93102857D01*
X102162714Y-93245714D01*
X102234142Y-93317143D01*
X102377000Y-93388571D01*
X102948428Y-93388571D01*
X102948428Y-91888571D01*
X102448428Y-91888571D01*
X102305571Y-91960000D01*
X102234142Y-92031429D01*
X102162714Y-92174286D01*
X102162714Y-92317143D01*
X102234142Y-92460000D01*
X102305571Y-92531429D01*
X102448428Y-92602857D01*
X102948428Y-92602857D01*
X101519857Y-92960000D02*
X100805571Y-92960000D01*
X101662714Y-93388571D02*
X101162714Y-91888571D01*
X100662714Y-93388571D01*
X99305571Y-93245714D02*
X99377000Y-93317143D01*
X99591286Y-93388571D01*
X99734143Y-93388571D01*
X99948428Y-93317143D01*
X100091286Y-93174286D01*
X100162714Y-93031429D01*
X100234143Y-92745714D01*
X100234143Y-92531429D01*
X100162714Y-92245714D01*
X100091286Y-92102857D01*
X99948428Y-91960000D01*
X99734143Y-91888571D01*
X99591286Y-91888571D01*
X99377000Y-91960000D01*
X99305571Y-92031429D01*
X98662714Y-93388571D02*
X98662714Y-91888571D01*
X97805571Y-93388571D02*
X98448428Y-92531429D01*
X97805571Y-91888571D02*
X98662714Y-92745714D01*
X95162714Y-93245714D02*
X95234143Y-93317143D01*
X95448429Y-93388571D01*
X95591286Y-93388571D01*
X95805571Y-93317143D01*
X95948429Y-93174286D01*
X96019857Y-93031429D01*
X96091286Y-92745714D01*
X96091286Y-92531429D01*
X96019857Y-92245714D01*
X95948429Y-92102857D01*
X95805571Y-91960000D01*
X95591286Y-91888571D01*
X95448429Y-91888571D01*
X95234143Y-91960000D01*
X95162714Y-92031429D01*
X94234143Y-91888571D02*
X93948429Y-91888571D01*
X93805571Y-91960000D01*
X93662714Y-92102857D01*
X93591286Y-92388571D01*
X93591286Y-92888571D01*
X93662714Y-93174286D01*
X93805571Y-93317143D01*
X93948429Y-93388571D01*
X94234143Y-93388571D01*
X94377000Y-93317143D01*
X94519857Y-93174286D01*
X94591286Y-92888571D01*
X94591286Y-92388571D01*
X94519857Y-92102857D01*
X94377000Y-91960000D01*
X94234143Y-91888571D01*
X92948428Y-93388571D02*
X92948428Y-91888571D01*
X92377000Y-91888571D01*
X92234142Y-91960000D01*
X92162714Y-92031429D01*
X92091285Y-92174286D01*
X92091285Y-92388571D01*
X92162714Y-92531429D01*
X92234142Y-92602857D01*
X92377000Y-92674286D01*
X92948428Y-92674286D01*
X91448428Y-93388571D02*
X91448428Y-91888571D01*
X90877000Y-91888571D01*
X90734142Y-91960000D01*
X90662714Y-92031429D01*
X90591285Y-92174286D01*
X90591285Y-92388571D01*
X90662714Y-92531429D01*
X90734142Y-92602857D01*
X90877000Y-92674286D01*
X91448428Y-92674286D01*
X89948428Y-92602857D02*
X89448428Y-92602857D01*
X89234142Y-93388571D02*
X89948428Y-93388571D01*
X89948428Y-91888571D01*
X89234142Y-91888571D01*
X87734142Y-93388571D02*
X88234142Y-92674286D01*
X88591285Y-93388571D02*
X88591285Y-91888571D01*
X88019857Y-91888571D01*
X87876999Y-91960000D01*
X87805571Y-92031429D01*
X87734142Y-92174286D01*
X87734142Y-92388571D01*
X87805571Y-92531429D01*
X87876999Y-92602857D01*
X88019857Y-92674286D01*
X88591285Y-92674286D01*
D12*
X75692000Y-79756000D03*
D13*
X75692000Y-77216000D03*
D14*
X120904000Y-69060000D03*
D15*
X120904000Y-65560000D03*
D16*
X81026000Y-43688000D03*
X85852000Y-40640000D03*
D17*
X85852000Y-46736000D03*
D18*
X96393000Y-49961800D03*
X96393000Y-43611800D03*
X96393000Y-37261800D03*
X107823000Y-49961800D03*
X107823000Y-43611800D03*
X107823000Y-37261800D03*
D19*
X68834000Y-77851000D03*
X120650000Y-77851000D03*
D12*
X74422000Y-73406000D03*
D13*
X76962000Y-73406000D03*
X79502000Y-73406000D03*
X82042000Y-73406000D03*
X82042000Y-65786000D03*
X79502000Y-65786000D03*
X76962000Y-65786000D03*
X74422000Y-65786000D03*
D12*
X71374000Y-61468000D03*
D13*
X71374000Y-58928000D03*
X71374000Y-56388000D03*
D12*
X118110000Y-63500000D03*
D13*
X118110000Y-66040000D03*
X118110000Y-68580000D03*
X118110000Y-71120000D03*
D12*
X118110000Y-43180000D03*
D13*
X118110000Y-45720000D03*
X118110000Y-48260000D03*
D12*
X91694000Y-78740000D03*
D13*
X94234000Y-78740000D03*
D12*
X118110000Y-50800000D03*
D13*
X118110000Y-53340000D03*
X118110000Y-55880000D03*
X118110000Y-58420000D03*
X118110000Y-60960000D03*
D12*
X76327000Y-38544500D03*
D13*
X73787000Y-38544500D03*
D12*
X73787000Y-34480500D03*
X76327000Y-34480500D03*
D20*
X87376000Y-49784000D03*
X86131400Y-50063400D03*
X81407000Y-35306000D03*
X81407000Y-34099500D03*
X66294000Y-46228000D03*
X72009000Y-44831000D03*
X107442000Y-63627000D03*
X108966000Y-71348600D03*
X104902000Y-77089000D03*
X104902000Y-71323200D03*
X105918000Y-71323200D03*
X104902000Y-68376800D03*
X104902000Y-69443600D03*
X108585000Y-63627000D03*
X109728000Y-63627000D03*
X104902000Y-76047600D03*
X108966000Y-72415400D03*
X116078000Y-71501000D03*
X121031000Y-71501000D03*
X120015000Y-71501000D03*
X119761000Y-63119000D03*
X115697000Y-63119000D03*
X116078000Y-72517000D03*
X119761000Y-67310000D03*
D21*
X83947000Y-74422000D03*
X83947000Y-70612000D03*
X76149200Y-53924200D03*
X77597000Y-56642000D03*
X90043000Y-36576000D03*
X85852000Y-73634600D03*
X85725000Y-69723000D03*
X89408000Y-73660000D03*
X89408000Y-69342000D03*
X91948000Y-73279000D03*
X91186000Y-68580000D03*
X89408000Y-80645000D03*
X87630000Y-68199000D03*
X75819000Y-57658000D03*
X75819000Y-55753000D03*
X89281000Y-35306000D03*
X92837000Y-35306000D03*
X83185000Y-56769000D03*
X83185000Y-54229000D03*
X73914000Y-55245000D03*
D20*
X122682000Y-34036000D03*
X121158000Y-34036000D03*
X124206000Y-34036000D03*
X89217500Y-39878000D03*
X89217500Y-41275000D03*
X82194400Y-46837600D03*
X82565933Y-40783832D03*
X80543400Y-46837600D03*
X87376000Y-43370500D03*
X89154000Y-37846000D03*
X119507000Y-41529000D03*
X121285000Y-41529000D03*
X123063000Y-41529000D03*
X78867000Y-61214000D03*
X112649000Y-59563000D03*
X112522000Y-64135000D03*
X77825600Y-43688000D03*
X89535000Y-79121000D03*
X115189000Y-41910000D03*
X111379000Y-58801000D03*
X71501000Y-35179000D03*
X71501000Y-39878000D03*
X71501000Y-36830000D03*
X71501000Y-38481000D03*
X93218000Y-42926000D03*
X115316000Y-48260000D03*
X98450400Y-70358000D03*
X104902000Y-65278000D03*
X104902000Y-72898000D03*
X104902000Y-73990200D03*
X113792000Y-71374000D03*
X113792000Y-72440800D03*
X73660000Y-47117000D03*
X74930000Y-46482000D03*
X78486000Y-49657000D03*
X78867000Y-62738000D03*
X72390000Y-71755000D03*
X91948000Y-61468000D03*
X89408000Y-62611000D03*
X84437724Y-62628276D03*
X113919000Y-64135000D03*
X96774000Y-64262000D03*
X111633000Y-44196000D03*
X81026000Y-50292000D03*
X79883000Y-50292000D03*
X76454000Y-46863000D03*
X67818000Y-46990000D03*
X65405000Y-50546000D03*
X112903000Y-34036000D03*
X118110000Y-34036000D03*
X119634000Y-34036000D03*
X94361000Y-71628000D03*
X94615000Y-76327000D03*
X110109000Y-59563000D03*
X104902000Y-66395600D03*
X111379000Y-64135000D03*
X94488000Y-68707000D03*
D21*
X81343500Y-36639500D03*
X81343500Y-37528500D03*
D22*
X127000000Y-32004000D02*
X127000000Y-32639000D01*
X126746000Y-31750000D02*
X126111000Y-31750000D01*
X126746000Y-83185000D02*
X126111000Y-83185000D01*
X127000000Y-82931000D02*
X127000000Y-82296000D01*
X62230000Y-83185000D02*
X61595000Y-83185000D01*
X62230000Y-83185000D02*
X61595000Y-83185000D01*
X62484000Y-83439000D02*
X62484000Y-84074000D01*
X62484000Y-83439000D02*
X62484000Y-84074000D01*
X62738000Y-83185000D02*
X63373000Y-83185000D01*
X62484000Y-82931000D02*
X62484000Y-82296000D01*
X127254000Y-31750000D02*
X127889000Y-31750000D01*
X127000000Y-31496000D02*
X127000000Y-30861000D01*
X127000000Y-83439000D02*
X127000000Y-84074000D01*
X127254000Y-83185000D02*
X127889000Y-83185000D01*
D23*
X87376000Y-49784000D02*
X87350600Y-48082200D01*
X87350600Y-48082200D02*
X87579200Y-47879000D01*
X86131400Y-50063400D02*
X87096600Y-50063400D01*
X87096600Y-50063400D02*
X87376000Y-49784000D01*
X85852000Y-46736000D02*
X85852000Y-49784000D01*
X85852000Y-49784000D02*
X86131400Y-50063400D01*
X66294000Y-46101000D02*
X66294000Y-46228000D01*
X67437000Y-44831000D02*
X72009000Y-44831000D01*
X66294000Y-45974000D02*
X67437000Y-44831000D01*
X108966000Y-64643000D02*
X108966000Y-68961000D01*
X108966000Y-68961000D02*
X108966000Y-70383400D01*
X110871000Y-67564000D02*
X110871000Y-73787000D01*
X107696000Y-77089000D02*
X110363000Y-74549000D01*
X107188000Y-77089000D02*
X107696000Y-77089000D01*
X110871000Y-67564000D02*
X110363000Y-65405000D01*
X110871000Y-73787000D02*
X110363000Y-74549000D01*
X107442000Y-63627000D02*
X108898765Y-66054941D01*
X109728000Y-63627000D02*
X109982000Y-64389000D01*
X109982000Y-64389000D02*
X110363000Y-65405000D01*
X110363000Y-74041000D02*
X109728000Y-74549000D01*
X110363000Y-65405000D02*
X110363000Y-74041000D01*
X107442000Y-63627000D02*
X109728000Y-63627000D01*
X108585000Y-63627000D02*
X108432600Y-63779400D01*
X109093000Y-73660000D02*
X106984800Y-75692000D01*
X108966000Y-64643000D02*
X107442000Y-63627000D01*
X106984800Y-75692000D02*
X107581700Y-75692000D01*
X107581700Y-75692000D02*
X108966000Y-74307700D01*
X104902000Y-68453000D02*
X105435400Y-68986400D01*
X104902000Y-68376800D02*
X104902000Y-68453000D01*
X105918000Y-69469000D02*
X105435400Y-68986400D01*
X105918000Y-69469000D02*
X105918000Y-71323200D01*
X104902000Y-76047600D02*
X104902000Y-76555600D01*
X104902000Y-76555600D02*
X104876600Y-76581000D01*
X104902000Y-77089000D02*
X105486200Y-77089000D01*
X105486200Y-77089000D02*
X105308400Y-77089000D01*
X108204000Y-75438000D02*
X108204000Y-75234800D01*
X108204000Y-75234800D02*
X109131100Y-74307700D01*
X109131100Y-74307700D02*
X108966000Y-74307700D01*
X108966000Y-70383400D02*
X108966000Y-73406000D01*
X108966000Y-73406000D02*
X108966000Y-74307700D01*
X108966000Y-74307700D02*
X108966000Y-74142600D01*
X108966000Y-74142600D02*
X109169200Y-74345800D01*
X104902000Y-70383400D02*
X104902000Y-71323200D01*
X104902000Y-71323200D02*
X105918000Y-71323200D01*
X109728000Y-70358000D02*
X109728000Y-74549000D01*
X109728000Y-74549000D02*
X107188000Y-77089000D01*
X104902000Y-68376800D02*
X104902000Y-69443600D01*
X104902000Y-69443600D02*
X104902000Y-70383400D01*
X105486200Y-77089000D02*
X107188000Y-77089000D01*
X108204000Y-76073000D02*
X108204000Y-75438000D01*
X107188000Y-77089000D02*
X108204000Y-76073000D01*
X104902000Y-76047600D02*
X105283000Y-76047600D01*
X105283000Y-76047600D02*
X105918000Y-75692000D01*
X105918000Y-75692000D02*
X106984800Y-75692000D01*
X106984800Y-75692000D02*
X108204000Y-75692000D01*
X108839000Y-63881000D02*
X108966000Y-64643000D01*
X108585000Y-63627000D02*
X108839000Y-63881000D01*
X108966000Y-70383400D02*
X108966000Y-70485000D01*
X108966000Y-70485000D02*
X109220000Y-71348600D01*
X107442000Y-75819000D02*
X107442000Y-76200000D01*
X107569000Y-75692000D02*
X107442000Y-75819000D01*
X108204000Y-75438000D02*
X107442000Y-76200000D01*
X107442000Y-76200000D02*
X107315000Y-76327000D01*
X107315000Y-76327000D02*
X104902000Y-76047600D01*
X109728000Y-63627000D02*
X109728000Y-64135000D01*
X109728000Y-64135000D02*
X109728000Y-70358000D01*
X109728000Y-63627000D02*
X109728000Y-63627000D01*
X109728000Y-70358000D02*
X109728000Y-70358000D01*
X109728000Y-70358000D02*
X108966000Y-72415400D01*
X108966000Y-72415400D02*
X108966000Y-72415400D01*
X108966000Y-72415400D02*
X108966000Y-72415400D01*
X108966000Y-72415400D02*
X108966000Y-72415400D01*
X119761000Y-63119000D02*
X117348000Y-63119000D01*
X117348000Y-63119000D02*
X117094000Y-62865000D01*
X115697000Y-63119000D02*
X117094000Y-63119000D01*
X117094000Y-63119000D02*
X117348000Y-62865000D01*
X118110000Y-71120000D02*
X117348000Y-71120000D01*
X117094000Y-63500000D02*
X118110000Y-63500000D01*
X115824000Y-64770000D02*
X117094000Y-63500000D01*
X115824000Y-69596000D02*
X115824000Y-64770000D01*
X117348000Y-71120000D02*
X115824000Y-69596000D01*
X118110000Y-71120000D02*
X119380000Y-69596000D01*
X119380000Y-69596000D02*
X120170000Y-69060000D01*
X120170000Y-69060000D02*
X121539000Y-69060000D01*
X121539000Y-65560000D02*
X121130000Y-65560000D01*
X121130000Y-65560000D02*
X119761000Y-67310000D01*
X118110000Y-68580000D02*
X119761000Y-67310000D01*
X119761000Y-67030600D02*
X119735600Y-67005200D01*
X119761000Y-67310000D02*
X119761000Y-67030600D01*
X121539000Y-65560000D02*
X121059000Y-66040000D01*
X121059000Y-66040000D02*
X118821200Y-66040000D01*
D22*
X83947000Y-74041000D02*
X83947000Y-74422000D01*
X83947000Y-74422000D02*
X83947000Y-74041000D01*
X83947000Y-70612000D02*
X83947000Y-74422000D01*
X77597000Y-56642000D02*
X77597000Y-55372000D01*
X77597000Y-55372000D02*
X77089000Y-54864000D01*
X77089000Y-54864000D02*
X76149200Y-53924200D01*
X90043000Y-36576000D02*
X92964000Y-36576000D01*
X76149200Y-53924200D02*
X76149200Y-53924200D01*
X92964000Y-36576000D02*
X94488000Y-35052000D01*
X107823000Y-37211000D02*
X105664000Y-35052000D01*
X105664000Y-35052000D02*
X99187000Y-35052000D01*
X107823000Y-37211000D02*
X107823000Y-37261800D01*
X94488000Y-35052000D02*
X99187000Y-35052000D01*
X85852000Y-73634600D02*
X85852000Y-70561200D01*
X85725000Y-70434200D02*
X85725000Y-69723000D01*
X85852000Y-70561200D02*
X85725000Y-70434200D01*
X89408000Y-73660000D02*
X89408000Y-69723000D01*
X89408000Y-69723000D02*
X89408000Y-69342000D01*
X89408000Y-69316600D02*
X89408000Y-69316600D01*
X89408000Y-69316600D02*
X89408000Y-69342000D01*
X91186000Y-68580000D02*
X91186000Y-70612000D01*
X91186000Y-70612000D02*
X91948000Y-71374000D01*
X91948000Y-71374000D02*
X91948000Y-73279000D01*
X91186000Y-68580000D02*
X91186000Y-68580000D01*
D24*
X73914000Y-64643000D02*
X73914000Y-58674000D01*
X73914000Y-58674000D02*
X73914000Y-55245000D01*
X87630000Y-68580000D02*
X87630000Y-68199000D01*
X89408000Y-80645000D02*
X88279112Y-80645000D01*
X87630000Y-79810428D02*
X88279112Y-80645000D01*
X87630000Y-68580000D02*
X87630000Y-79810428D01*
X75819000Y-57658000D02*
X75819000Y-57658000D01*
X75819000Y-56642000D02*
X75819000Y-55753000D01*
X75819000Y-57277000D02*
X75819000Y-56642000D01*
X75819000Y-57658000D02*
X75819000Y-57277000D01*
X89281000Y-35306000D02*
X92837000Y-35306000D01*
X83185000Y-56769000D02*
X83185000Y-54229000D01*
X74422000Y-65786000D02*
X74422000Y-65151000D01*
X74422000Y-65151000D02*
X73914000Y-64643000D01*
X73914000Y-55245000D02*
X73914000Y-55245000D01*
X73914000Y-55245000D02*
X73914000Y-55245000D01*
X73914000Y-55245000D02*
X73914000Y-55245000D01*
D23*
X118110000Y-43180000D02*
X119634000Y-43180000D01*
X118110000Y-50800000D02*
X119634000Y-50800000D01*
X118110000Y-48260000D02*
X119634000Y-48260000D01*
X89217500Y-39878000D02*
X88468200Y-39878000D01*
X88468200Y-39878000D02*
X88239600Y-40106600D01*
X88582500Y-40640000D02*
X89217500Y-41275000D01*
X85852000Y-40640000D02*
X88582500Y-40640000D01*
X82575400Y-40792400D02*
X82574501Y-40792400D01*
X82574501Y-40792400D02*
X82565933Y-40783832D01*
X80543400Y-46837600D02*
X80534373Y-46846627D01*
X86868000Y-42862500D02*
X87376000Y-43370500D01*
X91694000Y-39370000D02*
X92900500Y-39370000D01*
X96393000Y-43561000D02*
X92900500Y-39370000D01*
X96393000Y-43561000D02*
X96393000Y-43611800D01*
X96393000Y-37261800D02*
X96458252Y-37261800D01*
X94869000Y-37846000D02*
X89154000Y-37846000D01*
X96458252Y-37261800D02*
X94869000Y-37846000D01*
X83566000Y-42926000D02*
X85699600Y-42926000D01*
X85699600Y-42926000D02*
X85852000Y-43078400D01*
X85852000Y-40640000D02*
X83820000Y-40640000D01*
X83820000Y-40640000D02*
X83185000Y-40005000D01*
X81026000Y-43688000D02*
X81026000Y-43662600D01*
X81026000Y-43662600D02*
X83489800Y-41198800D01*
X85852000Y-40640000D02*
X85852000Y-43078400D01*
X85852000Y-43078400D02*
X85902800Y-43129200D01*
X90424000Y-44831000D02*
X90424000Y-44577000D01*
X90424000Y-55626000D02*
X92430600Y-58216800D01*
X90424000Y-53594000D02*
X90424000Y-55626000D01*
X90424000Y-53594000D02*
X90424000Y-44831000D01*
X111379000Y-58801000D02*
X110744000Y-58166000D01*
X92430600Y-58216800D02*
X110744000Y-58166000D01*
X86487000Y-40640000D02*
X85852000Y-40640000D01*
X90424000Y-44577000D02*
X86487000Y-40640000D01*
X81026000Y-43688000D02*
X81026000Y-41021000D01*
X81026000Y-43688000D02*
X78333600Y-43688000D01*
X81026000Y-43688000D02*
X81026000Y-46355000D01*
X85852000Y-40640000D02*
X85852000Y-40513000D01*
X112903000Y-34036000D02*
X109982000Y-34036000D01*
X109982000Y-34036000D02*
X103251000Y-34036000D01*
X103251000Y-34036000D02*
X93980000Y-34036000D01*
X93980000Y-34036000D02*
X87249000Y-34036000D01*
X86233000Y-40259000D02*
X85852000Y-40640000D01*
X86233000Y-35052000D02*
X86233000Y-40259000D01*
X87249000Y-34036000D02*
X86233000Y-35052000D01*
X85852000Y-40640000D02*
X86233000Y-40640000D01*
X81026000Y-43688000D02*
X82804000Y-43688000D01*
X82804000Y-43688000D02*
X83566000Y-42926000D01*
X83566000Y-42926000D02*
X85852000Y-40640000D01*
X85852000Y-40640000D02*
X83058000Y-40640000D01*
D22*
X84455000Y-42545000D02*
X85852000Y-40640000D01*
X76327000Y-36639500D02*
X76327000Y-36576000D01*
X76327000Y-34480500D02*
X76327000Y-36576000D01*
X76327000Y-36576000D02*
X76327000Y-38544500D01*
G36*
X125095000Y-81280000D02*
X123147157Y-81280000D01*
X124200885Y-80228110D01*
X124840270Y-78688299D01*
X124841725Y-77021016D01*
X124205028Y-75480091D01*
X123027110Y-74300115D01*
X121487299Y-73660730D01*
X119820016Y-73659275D01*
X118279091Y-74295972D01*
X117099115Y-75473890D01*
X116459730Y-77013701D01*
X116458275Y-78680984D01*
X117094972Y-80221909D01*
X118151217Y-81280000D01*
X111760000Y-81280000D01*
X111760000Y-73787000D01*
X111760000Y-67564000D01*
X111738143Y-67454118D01*
X111734985Y-67361354D01*
X111228512Y-65201996D01*
X111205855Y-65152166D01*
X111195936Y-65091920D01*
X110815675Y-64080252D01*
X110617125Y-63483390D01*
X110617154Y-63450943D01*
X110549329Y-63286794D01*
X110482097Y-63124080D01*
X110356618Y-62998382D01*
X110232236Y-62873782D01*
X109905609Y-62738154D01*
X109551943Y-62737846D01*
X109551570Y-62738000D01*
X108585776Y-62738000D01*
X108408943Y-62737846D01*
X108408570Y-62738000D01*
X107442776Y-62738000D01*
X107265943Y-62737846D01*
X106939080Y-62872903D01*
X106688782Y-63122764D01*
X106553154Y-63449391D01*
X106552846Y-63803057D01*
X106620671Y-63967206D01*
X106687903Y-64129920D01*
X106735993Y-64178094D01*
X108077000Y-66409903D01*
X108077000Y-68961000D01*
X108077000Y-70383400D01*
X108077000Y-70485000D01*
X108077000Y-71347824D01*
X108076846Y-71524657D01*
X108077000Y-71525029D01*
X108077000Y-72414624D01*
X108076846Y-72591457D01*
X108077000Y-72591829D01*
X108077000Y-73406000D01*
X108077000Y-73407175D01*
X106807154Y-74629174D01*
X106807154Y-71147143D01*
X106807000Y-71146770D01*
X106807000Y-69469000D01*
X106739329Y-69128794D01*
X106546618Y-68840382D01*
X106064018Y-68357782D01*
X105709597Y-68003361D01*
X105656097Y-67873880D01*
X105530618Y-67748182D01*
X105406236Y-67623582D01*
X105079609Y-67487954D01*
X104725943Y-67487646D01*
X104399080Y-67622703D01*
X104148782Y-67872564D01*
X104013154Y-68199191D01*
X104012846Y-68552857D01*
X104013000Y-68553229D01*
X104013000Y-69442824D01*
X104012846Y-69619657D01*
X104013000Y-69620029D01*
X104013000Y-70383400D01*
X104013000Y-71322424D01*
X104012846Y-71499257D01*
X104080671Y-71663406D01*
X104147903Y-71826120D01*
X104273382Y-71951818D01*
X104397764Y-72076418D01*
X104561794Y-72144529D01*
X104724391Y-72212046D01*
X104902000Y-72212200D01*
X105078057Y-72212354D01*
X105078429Y-72212200D01*
X105917224Y-72212200D01*
X105918000Y-72212200D01*
X106094057Y-72212354D01*
X106258206Y-72144529D01*
X106420920Y-72077297D01*
X106546618Y-71951818D01*
X106671218Y-71827436D01*
X106739329Y-71663406D01*
X106806846Y-71500809D01*
X106807000Y-71323200D01*
X106807154Y-71147143D01*
X106807154Y-74629174D01*
X106626523Y-74803000D01*
X105918000Y-74803000D01*
X105864702Y-74813601D01*
X105814582Y-74809613D01*
X105702956Y-74845774D01*
X105577794Y-74870671D01*
X105532327Y-74901050D01*
X105484595Y-74916514D01*
X105051432Y-75158600D01*
X104902776Y-75158600D01*
X104725943Y-75158446D01*
X104399080Y-75293503D01*
X104148782Y-75543364D01*
X104013154Y-75869991D01*
X104012846Y-76223657D01*
X104013000Y-76224029D01*
X104013000Y-76453305D01*
X103987600Y-76581000D01*
X104040310Y-76845991D01*
X104013154Y-76911391D01*
X104012846Y-77265057D01*
X104080671Y-77429206D01*
X104147903Y-77591920D01*
X104273382Y-77717618D01*
X104397764Y-77842218D01*
X104561794Y-77910329D01*
X104724391Y-77977846D01*
X104902000Y-77978000D01*
X105078057Y-77978154D01*
X105078429Y-77978000D01*
X105308400Y-77978000D01*
X105486200Y-77978000D01*
X107188000Y-77978000D01*
X107696000Y-77978000D01*
X107855644Y-77946244D01*
X108016037Y-77918396D01*
X108025370Y-77912484D01*
X108036206Y-77910329D01*
X108171553Y-77819892D01*
X108309072Y-77732789D01*
X110976197Y-75192920D01*
X111033624Y-75111360D01*
X111102607Y-75042257D01*
X111610739Y-74280345D01*
X111644338Y-74199029D01*
X111692329Y-74127206D01*
X111709329Y-74041739D01*
X111743202Y-73959762D01*
X111743125Y-73871835D01*
X111760000Y-73787000D01*
X111760000Y-81280000D01*
X103124000Y-81280000D01*
X103124000Y-64332096D01*
X98346407Y-60071000D01*
X88900969Y-60071000D01*
X88900969Y-41241384D01*
X88899019Y-40028816D01*
X88438741Y-38917604D01*
X88025100Y-38646505D01*
X86031605Y-40640000D01*
X88025100Y-42633495D01*
X88438741Y-42362396D01*
X88900969Y-41241384D01*
X88900969Y-60071000D01*
X87047605Y-60071000D01*
X85725000Y-58748395D01*
X85725000Y-50857243D01*
X85791194Y-50884729D01*
X85953791Y-50952246D01*
X86131400Y-50952400D01*
X86307457Y-50952554D01*
X86307829Y-50952400D01*
X87096600Y-50952400D01*
X87436805Y-50884729D01*
X87436806Y-50884729D01*
X87725218Y-50692018D01*
X88004355Y-50412880D01*
X88004618Y-50412618D01*
X88012042Y-50405207D01*
X88015748Y-50402646D01*
X88017815Y-50399443D01*
X88129218Y-50288236D01*
X88197329Y-50124206D01*
X88200564Y-50116415D01*
X88203905Y-50111242D01*
X88204841Y-50106116D01*
X88264846Y-49961609D01*
X88265000Y-49784000D01*
X88265007Y-49776678D01*
X88266224Y-49770015D01*
X88265076Y-49696967D01*
X88265154Y-49607943D01*
X88263619Y-49604229D01*
X88245858Y-48473633D01*
X88326859Y-48392774D01*
X88378741Y-48267825D01*
X88379026Y-48267451D01*
X88379244Y-48266616D01*
X88772491Y-47319572D01*
X88773505Y-46157526D01*
X88329747Y-45083548D01*
X87508774Y-44261141D01*
X86435572Y-43815509D01*
X85725000Y-43814888D01*
X85725000Y-43688206D01*
X86463184Y-43687019D01*
X87574396Y-43226741D01*
X87845495Y-42813100D01*
X85852000Y-40819605D01*
X85837857Y-40833747D01*
X85725000Y-40720890D01*
X85725000Y-40559110D01*
X85837857Y-40446252D01*
X85852000Y-40460395D01*
X87845495Y-38466900D01*
X87574396Y-38053259D01*
X86453384Y-37591031D01*
X85725000Y-37592202D01*
X85725000Y-33655000D01*
X92075000Y-33655000D01*
X92075000Y-34544000D01*
X89598502Y-34544000D01*
X89445923Y-34480643D01*
X89117518Y-34480357D01*
X88814002Y-34605767D01*
X88581583Y-34837781D01*
X88455643Y-35141077D01*
X88455357Y-35469482D01*
X88580767Y-35772998D01*
X88812781Y-36005417D01*
X89116077Y-36131357D01*
X89333714Y-36131546D01*
X89217643Y-36411077D01*
X89217357Y-36739482D01*
X89342767Y-37042998D01*
X89574781Y-37275417D01*
X89878077Y-37401357D01*
X90206482Y-37401643D01*
X90509998Y-37276233D01*
X90702566Y-37084000D01*
X92075000Y-37084000D01*
X92075000Y-49201605D01*
X97102395Y-54229000D01*
X109166314Y-54229000D01*
X113411000Y-58598530D01*
X113411000Y-62155605D01*
X113739395Y-62484000D01*
X114554000Y-62484000D01*
X114554000Y-73533000D01*
X125095000Y-73533000D01*
X125095000Y-81280000D01*
X125095000Y-81280000D01*
G37*
X125095000Y-81280000D02*
X123147157Y-81280000D01*
X124200885Y-80228110D01*
X124840270Y-78688299D01*
X124841725Y-77021016D01*
X124205028Y-75480091D01*
X123027110Y-74300115D01*
X121487299Y-73660730D01*
X119820016Y-73659275D01*
X118279091Y-74295972D01*
X117099115Y-75473890D01*
X116459730Y-77013701D01*
X116458275Y-78680984D01*
X117094972Y-80221909D01*
X118151217Y-81280000D01*
X111760000Y-81280000D01*
X111760000Y-73787000D01*
X111760000Y-67564000D01*
X111738143Y-67454118D01*
X111734985Y-67361354D01*
X111228512Y-65201996D01*
X111205855Y-65152166D01*
X111195936Y-65091920D01*
X110815675Y-64080252D01*
X110617125Y-63483390D01*
X110617154Y-63450943D01*
X110549329Y-63286794D01*
X110482097Y-63124080D01*
X110356618Y-62998382D01*
X110232236Y-62873782D01*
X109905609Y-62738154D01*
X109551943Y-62737846D01*
X109551570Y-62738000D01*
X108585776Y-62738000D01*
X108408943Y-62737846D01*
X108408570Y-62738000D01*
X107442776Y-62738000D01*
X107265943Y-62737846D01*
X106939080Y-62872903D01*
X106688782Y-63122764D01*
X106553154Y-63449391D01*
X106552846Y-63803057D01*
X106620671Y-63967206D01*
X106687903Y-64129920D01*
X106735993Y-64178094D01*
X108077000Y-66409903D01*
X108077000Y-68961000D01*
X108077000Y-70383400D01*
X108077000Y-70485000D01*
X108077000Y-71347824D01*
X108076846Y-71524657D01*
X108077000Y-71525029D01*
X108077000Y-72414624D01*
X108076846Y-72591457D01*
X108077000Y-72591829D01*
X108077000Y-73406000D01*
X108077000Y-73407175D01*
X106807154Y-74629174D01*
X106807154Y-71147143D01*
X106807000Y-71146770D01*
X106807000Y-69469000D01*
X106739329Y-69128794D01*
X106546618Y-68840382D01*
X106064018Y-68357782D01*
X105709597Y-68003361D01*
X105656097Y-67873880D01*
X105530618Y-67748182D01*
X105406236Y-67623582D01*
X105079609Y-67487954D01*
X104725943Y-67487646D01*
X104399080Y-67622703D01*
X104148782Y-67872564D01*
X104013154Y-68199191D01*
X104012846Y-68552857D01*
X104013000Y-68553229D01*
X104013000Y-69442824D01*
X104012846Y-69619657D01*
X104013000Y-69620029D01*
X104013000Y-70383400D01*
X104013000Y-71322424D01*
X104012846Y-71499257D01*
X104080671Y-71663406D01*
X104147903Y-71826120D01*
X104273382Y-71951818D01*
X104397764Y-72076418D01*
X104561794Y-72144529D01*
X104724391Y-72212046D01*
X104902000Y-72212200D01*
X105078057Y-72212354D01*
X105078429Y-72212200D01*
X105917224Y-72212200D01*
X105918000Y-72212200D01*
X106094057Y-72212354D01*
X106258206Y-72144529D01*
X106420920Y-72077297D01*
X106546618Y-71951818D01*
X106671218Y-71827436D01*
X106739329Y-71663406D01*
X106806846Y-71500809D01*
X106807000Y-71323200D01*
X106807154Y-71147143D01*
X106807154Y-74629174D01*
X106626523Y-74803000D01*
X105918000Y-74803000D01*
X105864702Y-74813601D01*
X105814582Y-74809613D01*
X105702956Y-74845774D01*
X105577794Y-74870671D01*
X105532327Y-74901050D01*
X105484595Y-74916514D01*
X105051432Y-75158600D01*
X104902776Y-75158600D01*
X104725943Y-75158446D01*
X104399080Y-75293503D01*
X104148782Y-75543364D01*
X104013154Y-75869991D01*
X104012846Y-76223657D01*
X104013000Y-76224029D01*
X104013000Y-76453305D01*
X103987600Y-76581000D01*
X104040310Y-76845991D01*
X104013154Y-76911391D01*
X104012846Y-77265057D01*
X104080671Y-77429206D01*
X104147903Y-77591920D01*
X104273382Y-77717618D01*
X104397764Y-77842218D01*
X104561794Y-77910329D01*
X104724391Y-77977846D01*
X104902000Y-77978000D01*
X105078057Y-77978154D01*
X105078429Y-77978000D01*
X105308400Y-77978000D01*
X105486200Y-77978000D01*
X107188000Y-77978000D01*
X107696000Y-77978000D01*
X107855644Y-77946244D01*
X108016037Y-77918396D01*
X108025370Y-77912484D01*
X108036206Y-77910329D01*
X108171553Y-77819892D01*
X108309072Y-77732789D01*
X110976197Y-75192920D01*
X111033624Y-75111360D01*
X111102607Y-75042257D01*
X111610739Y-74280345D01*
X111644338Y-74199029D01*
X111692329Y-74127206D01*
X111709329Y-74041739D01*
X111743202Y-73959762D01*
X111743125Y-73871835D01*
X111760000Y-73787000D01*
X111760000Y-81280000D01*
X103124000Y-81280000D01*
X103124000Y-64332096D01*
X98346407Y-60071000D01*
X88900969Y-60071000D01*
X88900969Y-41241384D01*
X88899019Y-40028816D01*
X88438741Y-38917604D01*
X88025100Y-38646505D01*
X86031605Y-40640000D01*
X88025100Y-42633495D01*
X88438741Y-42362396D01*
X88900969Y-41241384D01*
X88900969Y-60071000D01*
X87047605Y-60071000D01*
X85725000Y-58748395D01*
X85725000Y-50857243D01*
X85791194Y-50884729D01*
X85953791Y-50952246D01*
X86131400Y-50952400D01*
X86307457Y-50952554D01*
X86307829Y-50952400D01*
X87096600Y-50952400D01*
X87436805Y-50884729D01*
X87436806Y-50884729D01*
X87725218Y-50692018D01*
X88004355Y-50412880D01*
X88004618Y-50412618D01*
X88012042Y-50405207D01*
X88015748Y-50402646D01*
X88017815Y-50399443D01*
X88129218Y-50288236D01*
X88197329Y-50124206D01*
X88200564Y-50116415D01*
X88203905Y-50111242D01*
X88204841Y-50106116D01*
X88264846Y-49961609D01*
X88265000Y-49784000D01*
X88265007Y-49776678D01*
X88266224Y-49770015D01*
X88265076Y-49696967D01*
X88265154Y-49607943D01*
X88263619Y-49604229D01*
X88245858Y-48473633D01*
X88326859Y-48392774D01*
X88378741Y-48267825D01*
X88379026Y-48267451D01*
X88379244Y-48266616D01*
X88772491Y-47319572D01*
X88773505Y-46157526D01*
X88329747Y-45083548D01*
X87508774Y-44261141D01*
X86435572Y-43815509D01*
X85725000Y-43814888D01*
X85725000Y-43688206D01*
X86463184Y-43687019D01*
X87574396Y-43226741D01*
X87845495Y-42813100D01*
X85852000Y-40819605D01*
X85837857Y-40833747D01*
X85725000Y-40720890D01*
X85725000Y-40559110D01*
X85837857Y-40446252D01*
X85852000Y-40460395D01*
X87845495Y-38466900D01*
X87574396Y-38053259D01*
X86453384Y-37591031D01*
X85725000Y-37592202D01*
X85725000Y-33655000D01*
X92075000Y-33655000D01*
X92075000Y-34544000D01*
X89598502Y-34544000D01*
X89445923Y-34480643D01*
X89117518Y-34480357D01*
X88814002Y-34605767D01*
X88581583Y-34837781D01*
X88455643Y-35141077D01*
X88455357Y-35469482D01*
X88580767Y-35772998D01*
X88812781Y-36005417D01*
X89116077Y-36131357D01*
X89333714Y-36131546D01*
X89217643Y-36411077D01*
X89217357Y-36739482D01*
X89342767Y-37042998D01*
X89574781Y-37275417D01*
X89878077Y-37401357D01*
X90206482Y-37401643D01*
X90509998Y-37276233D01*
X90702566Y-37084000D01*
X92075000Y-37084000D01*
X92075000Y-49201605D01*
X97102395Y-54229000D01*
X109166314Y-54229000D01*
X113411000Y-58598530D01*
X113411000Y-62155605D01*
X113739395Y-62484000D01*
X114554000Y-62484000D01*
X114554000Y-73533000D01*
X125095000Y-73533000D01*
X125095000Y-81280000D01*
G36*
X102362000Y-81280000D02*
X95313686Y-81280000D01*
X95313686Y-78526216D01*
X95149689Y-78129312D01*
X94846286Y-77825379D01*
X94449668Y-77660688D01*
X94020216Y-77660314D01*
X93623312Y-77824311D01*
X93319379Y-78127714D01*
X93154688Y-78524332D01*
X93154314Y-78953784D01*
X93318311Y-79350688D01*
X93621714Y-79654621D01*
X94018332Y-79819312D01*
X94447784Y-79819686D01*
X94844688Y-79655689D01*
X95148621Y-79352286D01*
X95313312Y-78955668D01*
X95313686Y-78526216D01*
X95313686Y-81280000D01*
X92773643Y-81280000D01*
X92773643Y-73115518D01*
X92648233Y-72812002D01*
X92456000Y-72619433D01*
X92456000Y-71374000D01*
X92455999Y-71373999D01*
X92417331Y-71179597D01*
X92417330Y-71179596D01*
X92380790Y-71124910D01*
X92307210Y-71014790D01*
X92307210Y-71014789D01*
X91694000Y-70401579D01*
X91694000Y-69239302D01*
X91885417Y-69048219D01*
X92011357Y-68744923D01*
X92011643Y-68416518D01*
X91886233Y-68113002D01*
X91654219Y-67880583D01*
X91350923Y-67754643D01*
X91022518Y-67754357D01*
X90719002Y-67879767D01*
X90486583Y-68111781D01*
X90360643Y-68415077D01*
X90360357Y-68743482D01*
X90485767Y-69046998D01*
X90678000Y-69239566D01*
X90678000Y-70612000D01*
X90716669Y-70806403D01*
X90826790Y-70971210D01*
X91440000Y-71584420D01*
X91440000Y-72619697D01*
X91248583Y-72810781D01*
X91122643Y-73114077D01*
X91122357Y-73442482D01*
X91247767Y-73745998D01*
X91479781Y-73978417D01*
X91783077Y-74104357D01*
X92111482Y-74104643D01*
X92414998Y-73979233D01*
X92647417Y-73747219D01*
X92773357Y-73443923D01*
X92773643Y-73115518D01*
X92773643Y-81280000D01*
X92773566Y-81280000D01*
X92773566Y-79363047D01*
X92773566Y-77966047D01*
X92715684Y-77825963D01*
X92608601Y-77718692D01*
X92468618Y-77660566D01*
X92317047Y-77660434D01*
X90920047Y-77660434D01*
X90779963Y-77718316D01*
X90672692Y-77825399D01*
X90614566Y-77965382D01*
X90614434Y-78116953D01*
X90614434Y-79513953D01*
X90672316Y-79654037D01*
X90779399Y-79761308D01*
X90919382Y-79819434D01*
X91070953Y-79819566D01*
X92467953Y-79819566D01*
X92608037Y-79761684D01*
X92715308Y-79654601D01*
X92773434Y-79514618D01*
X92773566Y-79363047D01*
X92773566Y-81280000D01*
X89940344Y-81280000D01*
X90107417Y-81113219D01*
X90233357Y-80809923D01*
X90233643Y-80481518D01*
X90233643Y-73496518D01*
X90108233Y-73193002D01*
X89916000Y-73000433D01*
X89916000Y-70001302D01*
X90107417Y-69810219D01*
X90233357Y-69506923D01*
X90233643Y-69178518D01*
X90108233Y-68875002D01*
X89876219Y-68642583D01*
X89572923Y-68516643D01*
X89244518Y-68516357D01*
X88941002Y-68641767D01*
X88708583Y-68873781D01*
X88582643Y-69177077D01*
X88582357Y-69505482D01*
X88707767Y-69808998D01*
X88900000Y-70001566D01*
X88900000Y-73000697D01*
X88708583Y-73191781D01*
X88582643Y-73495077D01*
X88582357Y-73823482D01*
X88707767Y-74126998D01*
X88939781Y-74359417D01*
X89243077Y-74485357D01*
X89571482Y-74485643D01*
X89874998Y-74360233D01*
X90107417Y-74128219D01*
X90233357Y-73824923D01*
X90233643Y-73496518D01*
X90233643Y-80481518D01*
X90108233Y-80178002D01*
X89876219Y-79945583D01*
X89572923Y-79819643D01*
X89244518Y-79819357D01*
X89090489Y-79883000D01*
X88652172Y-79883000D01*
X88392000Y-79548794D01*
X88392000Y-68580000D01*
X88392000Y-68516502D01*
X88455357Y-68363923D01*
X88455643Y-68035518D01*
X88330233Y-67732002D01*
X88098219Y-67499583D01*
X87794923Y-67373643D01*
X87466518Y-67373357D01*
X87163002Y-67498767D01*
X86930583Y-67730781D01*
X86804643Y-68034077D01*
X86804357Y-68362482D01*
X86868000Y-68516510D01*
X86868000Y-68580000D01*
X86868000Y-79810428D01*
X86887956Y-79910756D01*
X86895359Y-80012781D01*
X86916715Y-80055335D01*
X86926004Y-80102033D01*
X86982835Y-80187086D01*
X87028718Y-80278513D01*
X87678194Y-81112802D01*
X87712899Y-81142812D01*
X87740297Y-81183815D01*
X87828390Y-81242677D01*
X87871552Y-81280000D01*
X86677643Y-81280000D01*
X86677643Y-73471118D01*
X86552233Y-73167602D01*
X86360000Y-72975033D01*
X86360000Y-70561200D01*
X86321331Y-70366797D01*
X86321331Y-70366796D01*
X86292202Y-70323203D01*
X86292202Y-70323202D01*
X86424417Y-70191219D01*
X86550357Y-69887923D01*
X86550643Y-69559518D01*
X86425233Y-69256002D01*
X86193219Y-69023583D01*
X85889923Y-68897643D01*
X85561518Y-68897357D01*
X85258002Y-69022767D01*
X85025583Y-69254781D01*
X84899643Y-69558077D01*
X84899357Y-69886482D01*
X85024767Y-70189998D01*
X85217000Y-70382566D01*
X85217000Y-70434200D01*
X85255669Y-70628603D01*
X85344000Y-70760799D01*
X85344000Y-72975297D01*
X85152583Y-73166381D01*
X85026643Y-73469677D01*
X85026357Y-73798082D01*
X85151767Y-74101598D01*
X85383781Y-74334017D01*
X85687077Y-74459957D01*
X86015482Y-74460243D01*
X86318998Y-74334833D01*
X86551417Y-74102819D01*
X86677357Y-73799523D01*
X86677643Y-73471118D01*
X86677643Y-81280000D01*
X84772643Y-81280000D01*
X84772643Y-74258518D01*
X84647233Y-73955002D01*
X84455000Y-73762433D01*
X84455000Y-71271302D01*
X84646417Y-71080219D01*
X84772357Y-70776923D01*
X84772643Y-70448518D01*
X84647233Y-70145002D01*
X84415219Y-69912583D01*
X84111923Y-69786643D01*
X84010643Y-69786554D01*
X84010643Y-56605518D01*
X83947000Y-56451489D01*
X83947000Y-54546502D01*
X84010357Y-54393923D01*
X84010643Y-54065518D01*
X83885233Y-53762002D01*
X83653219Y-53529583D01*
X83349923Y-53403643D01*
X83021518Y-53403357D01*
X82718002Y-53528767D01*
X82485583Y-53760781D01*
X82359643Y-54064077D01*
X82359357Y-54392482D01*
X82423000Y-54546510D01*
X82423000Y-56451497D01*
X82359643Y-56604077D01*
X82359357Y-56932482D01*
X82484767Y-57235998D01*
X82716781Y-57468417D01*
X83020077Y-57594357D01*
X83348482Y-57594643D01*
X83651998Y-57469233D01*
X83884417Y-57237219D01*
X84010357Y-56933923D01*
X84010643Y-56605518D01*
X84010643Y-69786554D01*
X83783518Y-69786357D01*
X83480002Y-69911767D01*
X83247583Y-70143781D01*
X83121686Y-70446973D01*
X83121686Y-65572216D01*
X82957689Y-65175312D01*
X82654286Y-64871379D01*
X82257668Y-64706688D01*
X81828216Y-64706314D01*
X81431312Y-64870311D01*
X81127379Y-65173714D01*
X80962688Y-65570332D01*
X80962314Y-65999784D01*
X81126311Y-66396688D01*
X81429714Y-66700621D01*
X81826332Y-66865312D01*
X82255784Y-66865686D01*
X82652688Y-66701689D01*
X82956621Y-66398286D01*
X83121312Y-66001668D01*
X83121686Y-65572216D01*
X83121686Y-70446973D01*
X83121643Y-70447077D01*
X83121357Y-70775482D01*
X83246767Y-71078998D01*
X83439000Y-71271566D01*
X83439000Y-73762697D01*
X83271173Y-73930232D01*
X83387924Y-73598520D01*
X83359146Y-73068802D01*
X83211798Y-72713072D01*
X82976186Y-72651419D01*
X82796581Y-72831024D01*
X82796581Y-72471814D01*
X82734928Y-72236202D01*
X82234520Y-72060076D01*
X81704802Y-72088854D01*
X81349072Y-72236202D01*
X81287419Y-72471814D01*
X82042000Y-73226395D01*
X82796581Y-72471814D01*
X82796581Y-72831024D01*
X82221605Y-73406000D01*
X82976186Y-74160581D01*
X83184327Y-74106116D01*
X83121643Y-74257077D01*
X83121357Y-74585482D01*
X83246767Y-74888998D01*
X83478781Y-75121417D01*
X83782077Y-75247357D01*
X84110482Y-75247643D01*
X84413998Y-75122233D01*
X84646417Y-74890219D01*
X84772357Y-74586923D01*
X84772643Y-74258518D01*
X84772643Y-81280000D01*
X82796581Y-81280000D01*
X82796581Y-74340186D01*
X82042000Y-73585605D01*
X81862395Y-73765210D01*
X81862395Y-73406000D01*
X81107814Y-72651419D01*
X80872202Y-72713072D01*
X80696076Y-73213480D01*
X80724854Y-73743198D01*
X80872202Y-74098928D01*
X81107814Y-74160581D01*
X81862395Y-73406000D01*
X81862395Y-73765210D01*
X81287419Y-74340186D01*
X81349072Y-74575798D01*
X81849480Y-74751924D01*
X82379198Y-74723146D01*
X82734928Y-74575798D01*
X82796581Y-74340186D01*
X82796581Y-81280000D01*
X76771686Y-81280000D01*
X76771686Y-77002216D01*
X76607689Y-76605312D01*
X76304286Y-76301379D01*
X75907668Y-76136688D01*
X75478216Y-76136314D01*
X75081312Y-76300311D01*
X74777379Y-76603714D01*
X74612688Y-77000332D01*
X74612314Y-77429784D01*
X74776311Y-77826688D01*
X75079714Y-78130621D01*
X75476332Y-78295312D01*
X75905784Y-78295686D01*
X76302688Y-78131689D01*
X76606621Y-77828286D01*
X76771312Y-77431668D01*
X76771686Y-77002216D01*
X76771686Y-81280000D01*
X76771566Y-81280000D01*
X76771566Y-80379047D01*
X76771566Y-78982047D01*
X76713684Y-78841963D01*
X76606601Y-78734692D01*
X76466618Y-78676566D01*
X76315047Y-78676434D01*
X74918047Y-78676434D01*
X74777963Y-78734316D01*
X74670692Y-78841399D01*
X74612566Y-78981382D01*
X74612434Y-79132953D01*
X74612434Y-80529953D01*
X74670316Y-80670037D01*
X74777399Y-80777308D01*
X74917382Y-80835434D01*
X75068953Y-80835566D01*
X76465953Y-80835566D01*
X76606037Y-80777684D01*
X76713308Y-80670601D01*
X76771434Y-80530618D01*
X76771566Y-80379047D01*
X76771566Y-81280000D01*
X71331157Y-81280000D01*
X72384885Y-80228110D01*
X73024270Y-78688299D01*
X73025725Y-77021016D01*
X72389028Y-75480091D01*
X71211110Y-74300115D01*
X69671299Y-73660730D01*
X68004016Y-73659275D01*
X66463091Y-74295972D01*
X65283115Y-75473890D01*
X64643730Y-77013701D01*
X64642275Y-78680984D01*
X65278972Y-80221909D01*
X66335217Y-81280000D01*
X64389000Y-81280000D01*
X64389000Y-66802000D01*
X64461257Y-66802000D01*
X68779257Y-71374000D01*
X74877395Y-71374000D01*
X75057000Y-71553605D01*
X75057000Y-72326444D01*
X75045047Y-72326434D01*
X73648047Y-72326434D01*
X73507963Y-72384316D01*
X73400692Y-72491399D01*
X73342566Y-72631382D01*
X73342434Y-72782953D01*
X73342434Y-74179953D01*
X73400316Y-74320037D01*
X73507399Y-74427308D01*
X73647382Y-74485434D01*
X73798953Y-74485566D01*
X75057000Y-74485566D01*
X75057000Y-75565000D01*
X78867000Y-75565000D01*
X78867000Y-74297867D01*
X78889714Y-74320621D01*
X79286332Y-74485312D01*
X79715784Y-74485686D01*
X80112688Y-74321689D01*
X80416621Y-74018286D01*
X80581312Y-73621668D01*
X80581686Y-73192216D01*
X80581686Y-65572216D01*
X80417689Y-65175312D01*
X80114286Y-64871379D01*
X79717668Y-64706688D01*
X79288216Y-64706314D01*
X78891312Y-64870311D01*
X78587379Y-65173714D01*
X78422688Y-65570332D01*
X78422643Y-65622004D01*
X78422643Y-56478518D01*
X78297233Y-56175002D01*
X78105000Y-55982433D01*
X78105000Y-55372000D01*
X78066331Y-55177597D01*
X78066330Y-55177596D01*
X78029790Y-55122910D01*
X77956210Y-55012790D01*
X77956210Y-55012789D01*
X77448212Y-54504792D01*
X77448210Y-54504790D01*
X77448210Y-54504789D01*
X76974607Y-54031186D01*
X76974843Y-53760718D01*
X76849433Y-53457202D01*
X76617419Y-53224783D01*
X76314123Y-53098843D01*
X75985718Y-53098557D01*
X75682202Y-53223967D01*
X75449783Y-53455981D01*
X75323843Y-53759277D01*
X75323557Y-54087682D01*
X75448967Y-54391198D01*
X75680981Y-54623617D01*
X75984277Y-54749557D01*
X76256373Y-54749793D01*
X76729789Y-55223210D01*
X76729790Y-55223210D01*
X76729792Y-55223212D01*
X77089000Y-55582420D01*
X77089000Y-55982697D01*
X76897583Y-56173781D01*
X76771643Y-56477077D01*
X76771357Y-56805482D01*
X76896767Y-57108998D01*
X77128781Y-57341417D01*
X77432077Y-57467357D01*
X77760482Y-57467643D01*
X78063998Y-57342233D01*
X78296417Y-57110219D01*
X78422357Y-56806923D01*
X78422643Y-56478518D01*
X78422643Y-65622004D01*
X78422314Y-65999784D01*
X78586311Y-66396688D01*
X78889714Y-66700621D01*
X79286332Y-66865312D01*
X79715784Y-66865686D01*
X80112688Y-66701689D01*
X80416621Y-66398286D01*
X80581312Y-66001668D01*
X80581686Y-65572216D01*
X80581686Y-73192216D01*
X80417689Y-72795312D01*
X80114286Y-72491379D01*
X79717668Y-72326688D01*
X79288216Y-72326314D01*
X78891312Y-72490311D01*
X78867000Y-72514580D01*
X78867000Y-71196292D01*
X78041686Y-70327540D01*
X78041686Y-65572216D01*
X77877689Y-65175312D01*
X77574286Y-64871379D01*
X77177668Y-64706688D01*
X76748216Y-64706314D01*
X76644643Y-64749109D01*
X76644643Y-57494518D01*
X76581000Y-57340489D01*
X76581000Y-57277000D01*
X76581000Y-56642000D01*
X76581000Y-56070502D01*
X76644357Y-55917923D01*
X76644643Y-55589518D01*
X76519233Y-55286002D01*
X76287219Y-55053583D01*
X75983923Y-54927643D01*
X75655518Y-54927357D01*
X75352002Y-55052767D01*
X75132924Y-55271463D01*
X75132924Y-38737020D01*
X75120610Y-38510355D01*
X75120610Y-35053245D01*
X75120500Y-34766250D01*
X74961750Y-34607500D01*
X73914000Y-34607500D01*
X73914000Y-35655250D01*
X74072750Y-35814000D01*
X74611255Y-35814110D01*
X74844729Y-35717641D01*
X75023513Y-35539168D01*
X75120389Y-35305864D01*
X75120610Y-35053245D01*
X75120610Y-38510355D01*
X75104146Y-38207302D01*
X74956798Y-37851572D01*
X74721186Y-37789919D01*
X74541581Y-37969524D01*
X74541581Y-37610314D01*
X74479928Y-37374702D01*
X73979520Y-37198576D01*
X73660000Y-37215934D01*
X73660000Y-35655250D01*
X73660000Y-34607500D01*
X72612250Y-34607500D01*
X72453500Y-34766250D01*
X72453390Y-35053245D01*
X72453611Y-35305864D01*
X72550487Y-35539168D01*
X72729271Y-35717641D01*
X72962745Y-35814110D01*
X73501250Y-35814000D01*
X73660000Y-35655250D01*
X73660000Y-37215934D01*
X73449802Y-37227354D01*
X73094072Y-37374702D01*
X73032419Y-37610314D01*
X73787000Y-38364895D01*
X74541581Y-37610314D01*
X74541581Y-37969524D01*
X73966605Y-38544500D01*
X74721186Y-39299081D01*
X74956798Y-39237428D01*
X75132924Y-38737020D01*
X75132924Y-55271463D01*
X75119583Y-55284781D01*
X74993643Y-55588077D01*
X74993357Y-55916482D01*
X75057000Y-56070510D01*
X75057000Y-56642000D01*
X75057000Y-57277000D01*
X75057000Y-57340497D01*
X74993643Y-57493077D01*
X74993357Y-57821482D01*
X75118767Y-58124998D01*
X75350781Y-58357417D01*
X75654077Y-58483357D01*
X75982482Y-58483643D01*
X76285998Y-58358233D01*
X76518417Y-58126219D01*
X76644357Y-57822923D01*
X76644643Y-57494518D01*
X76644643Y-64749109D01*
X76351312Y-64870311D01*
X76047379Y-65173714D01*
X75882688Y-65570332D01*
X75882314Y-65999784D01*
X76046311Y-66396688D01*
X76349714Y-66700621D01*
X76746332Y-66865312D01*
X77175784Y-66865686D01*
X77572688Y-66701689D01*
X77876621Y-66398286D01*
X78041312Y-66001668D01*
X78041686Y-65572216D01*
X78041686Y-70327540D01*
X76381523Y-68580000D01*
X70412627Y-68580000D01*
X68199000Y-66243394D01*
X68199000Y-63627000D01*
X73152000Y-63627000D01*
X73152000Y-64643000D01*
X73210004Y-64934605D01*
X73375185Y-65181815D01*
X73466215Y-65272845D01*
X73342688Y-65570332D01*
X73342314Y-65999784D01*
X73506311Y-66396688D01*
X73809714Y-66700621D01*
X74206332Y-66865312D01*
X74635784Y-66865686D01*
X75032688Y-66701689D01*
X75336621Y-66398286D01*
X75501312Y-66001668D01*
X75501686Y-65572216D01*
X75337689Y-65175312D01*
X75151794Y-64989092D01*
X75125996Y-64859395D01*
X74960815Y-64612185D01*
X74960815Y-64612184D01*
X74676000Y-64327369D01*
X74676000Y-63627000D01*
X74676000Y-58674000D01*
X74676000Y-55562502D01*
X74739357Y-55409923D01*
X74739643Y-55081518D01*
X74676000Y-54927489D01*
X74676000Y-53594000D01*
X74541581Y-53594000D01*
X74541581Y-39478686D01*
X73787000Y-38724105D01*
X73607395Y-38903710D01*
X73607395Y-38544500D01*
X72852814Y-37789919D01*
X72617202Y-37851572D01*
X72441076Y-38351980D01*
X72469854Y-38881698D01*
X72617202Y-39237428D01*
X72852814Y-39299081D01*
X73607395Y-38544500D01*
X73607395Y-38903710D01*
X73032419Y-39478686D01*
X73094072Y-39714298D01*
X73594480Y-39890424D01*
X74124198Y-39861646D01*
X74479928Y-39714298D01*
X74541581Y-39478686D01*
X74541581Y-53594000D01*
X72898154Y-53594000D01*
X72898154Y-44654943D01*
X72830329Y-44490794D01*
X72763097Y-44328080D01*
X72637618Y-44202382D01*
X72513236Y-44077782D01*
X72186609Y-43942154D01*
X71832943Y-43941846D01*
X71832570Y-43942000D01*
X67437000Y-43942000D01*
X67096794Y-44009671D01*
X66808382Y-44202382D01*
X65665382Y-45345382D01*
X65472671Y-45633795D01*
X65405000Y-45974000D01*
X65415323Y-46025900D01*
X65405154Y-46050391D01*
X65405110Y-46100444D01*
X65405000Y-46101000D01*
X65405000Y-46227224D01*
X65404846Y-46404057D01*
X65472671Y-46568206D01*
X65539903Y-46730920D01*
X65665382Y-46856618D01*
X65789764Y-46981218D01*
X65953794Y-47049329D01*
X66116391Y-47116846D01*
X66294000Y-47117000D01*
X66470057Y-47117154D01*
X66634206Y-47049329D01*
X66796920Y-46982097D01*
X66922618Y-46856618D01*
X67047218Y-46732236D01*
X67115329Y-46568206D01*
X67182846Y-46405609D01*
X67182901Y-46342334D01*
X67805236Y-45720000D01*
X72008224Y-45720000D01*
X72009000Y-45720000D01*
X72185057Y-45720154D01*
X72349206Y-45652329D01*
X72511920Y-45585097D01*
X72637618Y-45459618D01*
X72762218Y-45335236D01*
X72830329Y-45171206D01*
X72897846Y-45008609D01*
X72898000Y-44831000D01*
X72898154Y-44654943D01*
X72898154Y-53594000D01*
X64389000Y-53594000D01*
X64389000Y-33655000D01*
X72453667Y-33655000D01*
X72453611Y-33655136D01*
X72453390Y-33907755D01*
X72453500Y-34194750D01*
X72612250Y-34353500D01*
X73660000Y-34353500D01*
X73660000Y-34333500D01*
X73914000Y-34333500D01*
X73914000Y-34353500D01*
X74961750Y-34353500D01*
X75120500Y-34194750D01*
X75120610Y-33907755D01*
X75120389Y-33655136D01*
X75120332Y-33655000D01*
X75268694Y-33655000D01*
X75247566Y-33705882D01*
X75247434Y-33857453D01*
X75247434Y-35254453D01*
X75305316Y-35394537D01*
X75412399Y-35501808D01*
X75552382Y-35559934D01*
X75703953Y-35560066D01*
X75819000Y-35560066D01*
X75819000Y-36576000D01*
X75819000Y-36639500D01*
X75819000Y-37464934D01*
X75553047Y-37464934D01*
X75412963Y-37522816D01*
X75305692Y-37629899D01*
X75247566Y-37769882D01*
X75247434Y-37921453D01*
X75247434Y-39318453D01*
X75305316Y-39458537D01*
X75412399Y-39565808D01*
X75552382Y-39623934D01*
X75703953Y-39624066D01*
X77100953Y-39624066D01*
X77241037Y-39566184D01*
X77348308Y-39459101D01*
X77406434Y-39319118D01*
X77406566Y-39167547D01*
X77406566Y-37770547D01*
X77348684Y-37630463D01*
X77241601Y-37523192D01*
X77101618Y-37465066D01*
X76950047Y-37464934D01*
X76835000Y-37464934D01*
X76835000Y-36639500D01*
X76835000Y-36576000D01*
X76835000Y-35560066D01*
X77100953Y-35560066D01*
X77241037Y-35502184D01*
X77348308Y-35395101D01*
X77406434Y-35255118D01*
X77406566Y-35103547D01*
X77406566Y-33706547D01*
X77385267Y-33655000D01*
X77851000Y-33655000D01*
X77851000Y-39624000D01*
X82973990Y-39624000D01*
X82803031Y-40038616D01*
X82804878Y-41187439D01*
X82748396Y-41101259D01*
X81627384Y-40639031D01*
X80414816Y-40640981D01*
X79303604Y-41101259D01*
X79032505Y-41514900D01*
X81026000Y-43508395D01*
X81040142Y-43494252D01*
X81219747Y-43673857D01*
X81205605Y-43688000D01*
X81219747Y-43702142D01*
X81040142Y-43881747D01*
X81026000Y-43867605D01*
X80846395Y-44047210D01*
X80846395Y-43688000D01*
X78852900Y-41694505D01*
X78439259Y-41965604D01*
X77977031Y-43086616D01*
X77978981Y-44299184D01*
X78439259Y-45410396D01*
X78852900Y-45681495D01*
X80846395Y-43688000D01*
X80846395Y-44047210D01*
X79032505Y-45861100D01*
X79303604Y-46274741D01*
X80424616Y-46736969D01*
X81637184Y-46735019D01*
X82748396Y-46274741D01*
X83019493Y-45861101D01*
X83019495Y-45861103D01*
X83042799Y-45884407D01*
X83019495Y-45940532D01*
X82931509Y-46152428D01*
X82930495Y-47314474D01*
X83374253Y-48388452D01*
X84195226Y-49210859D01*
X84963000Y-49529666D01*
X84963000Y-49784000D01*
X84963000Y-59107605D01*
X86688395Y-60833000D01*
X98122981Y-60833000D01*
X102362000Y-64573311D01*
X102362000Y-81280000D01*
X102362000Y-81280000D01*
G37*
X102362000Y-81280000D02*
X95313686Y-81280000D01*
X95313686Y-78526216D01*
X95149689Y-78129312D01*
X94846286Y-77825379D01*
X94449668Y-77660688D01*
X94020216Y-77660314D01*
X93623312Y-77824311D01*
X93319379Y-78127714D01*
X93154688Y-78524332D01*
X93154314Y-78953784D01*
X93318311Y-79350688D01*
X93621714Y-79654621D01*
X94018332Y-79819312D01*
X94447784Y-79819686D01*
X94844688Y-79655689D01*
X95148621Y-79352286D01*
X95313312Y-78955668D01*
X95313686Y-78526216D01*
X95313686Y-81280000D01*
X92773643Y-81280000D01*
X92773643Y-73115518D01*
X92648233Y-72812002D01*
X92456000Y-72619433D01*
X92456000Y-71374000D01*
X92455999Y-71373999D01*
X92417331Y-71179597D01*
X92417330Y-71179596D01*
X92380790Y-71124910D01*
X92307210Y-71014790D01*
X92307210Y-71014789D01*
X91694000Y-70401579D01*
X91694000Y-69239302D01*
X91885417Y-69048219D01*
X92011357Y-68744923D01*
X92011643Y-68416518D01*
X91886233Y-68113002D01*
X91654219Y-67880583D01*
X91350923Y-67754643D01*
X91022518Y-67754357D01*
X90719002Y-67879767D01*
X90486583Y-68111781D01*
X90360643Y-68415077D01*
X90360357Y-68743482D01*
X90485767Y-69046998D01*
X90678000Y-69239566D01*
X90678000Y-70612000D01*
X90716669Y-70806403D01*
X90826790Y-70971210D01*
X91440000Y-71584420D01*
X91440000Y-72619697D01*
X91248583Y-72810781D01*
X91122643Y-73114077D01*
X91122357Y-73442482D01*
X91247767Y-73745998D01*
X91479781Y-73978417D01*
X91783077Y-74104357D01*
X92111482Y-74104643D01*
X92414998Y-73979233D01*
X92647417Y-73747219D01*
X92773357Y-73443923D01*
X92773643Y-73115518D01*
X92773643Y-81280000D01*
X92773566Y-81280000D01*
X92773566Y-79363047D01*
X92773566Y-77966047D01*
X92715684Y-77825963D01*
X92608601Y-77718692D01*
X92468618Y-77660566D01*
X92317047Y-77660434D01*
X90920047Y-77660434D01*
X90779963Y-77718316D01*
X90672692Y-77825399D01*
X90614566Y-77965382D01*
X90614434Y-78116953D01*
X90614434Y-79513953D01*
X90672316Y-79654037D01*
X90779399Y-79761308D01*
X90919382Y-79819434D01*
X91070953Y-79819566D01*
X92467953Y-79819566D01*
X92608037Y-79761684D01*
X92715308Y-79654601D01*
X92773434Y-79514618D01*
X92773566Y-79363047D01*
X92773566Y-81280000D01*
X89940344Y-81280000D01*
X90107417Y-81113219D01*
X90233357Y-80809923D01*
X90233643Y-80481518D01*
X90233643Y-73496518D01*
X90108233Y-73193002D01*
X89916000Y-73000433D01*
X89916000Y-70001302D01*
X90107417Y-69810219D01*
X90233357Y-69506923D01*
X90233643Y-69178518D01*
X90108233Y-68875002D01*
X89876219Y-68642583D01*
X89572923Y-68516643D01*
X89244518Y-68516357D01*
X88941002Y-68641767D01*
X88708583Y-68873781D01*
X88582643Y-69177077D01*
X88582357Y-69505482D01*
X88707767Y-69808998D01*
X88900000Y-70001566D01*
X88900000Y-73000697D01*
X88708583Y-73191781D01*
X88582643Y-73495077D01*
X88582357Y-73823482D01*
X88707767Y-74126998D01*
X88939781Y-74359417D01*
X89243077Y-74485357D01*
X89571482Y-74485643D01*
X89874998Y-74360233D01*
X90107417Y-74128219D01*
X90233357Y-73824923D01*
X90233643Y-73496518D01*
X90233643Y-80481518D01*
X90108233Y-80178002D01*
X89876219Y-79945583D01*
X89572923Y-79819643D01*
X89244518Y-79819357D01*
X89090489Y-79883000D01*
X88652172Y-79883000D01*
X88392000Y-79548794D01*
X88392000Y-68580000D01*
X88392000Y-68516502D01*
X88455357Y-68363923D01*
X88455643Y-68035518D01*
X88330233Y-67732002D01*
X88098219Y-67499583D01*
X87794923Y-67373643D01*
X87466518Y-67373357D01*
X87163002Y-67498767D01*
X86930583Y-67730781D01*
X86804643Y-68034077D01*
X86804357Y-68362482D01*
X86868000Y-68516510D01*
X86868000Y-68580000D01*
X86868000Y-79810428D01*
X86887956Y-79910756D01*
X86895359Y-80012781D01*
X86916715Y-80055335D01*
X86926004Y-80102033D01*
X86982835Y-80187086D01*
X87028718Y-80278513D01*
X87678194Y-81112802D01*
X87712899Y-81142812D01*
X87740297Y-81183815D01*
X87828390Y-81242677D01*
X87871552Y-81280000D01*
X86677643Y-81280000D01*
X86677643Y-73471118D01*
X86552233Y-73167602D01*
X86360000Y-72975033D01*
X86360000Y-70561200D01*
X86321331Y-70366797D01*
X86321331Y-70366796D01*
X86292202Y-70323203D01*
X86292202Y-70323202D01*
X86424417Y-70191219D01*
X86550357Y-69887923D01*
X86550643Y-69559518D01*
X86425233Y-69256002D01*
X86193219Y-69023583D01*
X85889923Y-68897643D01*
X85561518Y-68897357D01*
X85258002Y-69022767D01*
X85025583Y-69254781D01*
X84899643Y-69558077D01*
X84899357Y-69886482D01*
X85024767Y-70189998D01*
X85217000Y-70382566D01*
X85217000Y-70434200D01*
X85255669Y-70628603D01*
X85344000Y-70760799D01*
X85344000Y-72975297D01*
X85152583Y-73166381D01*
X85026643Y-73469677D01*
X85026357Y-73798082D01*
X85151767Y-74101598D01*
X85383781Y-74334017D01*
X85687077Y-74459957D01*
X86015482Y-74460243D01*
X86318998Y-74334833D01*
X86551417Y-74102819D01*
X86677357Y-73799523D01*
X86677643Y-73471118D01*
X86677643Y-81280000D01*
X84772643Y-81280000D01*
X84772643Y-74258518D01*
X84647233Y-73955002D01*
X84455000Y-73762433D01*
X84455000Y-71271302D01*
X84646417Y-71080219D01*
X84772357Y-70776923D01*
X84772643Y-70448518D01*
X84647233Y-70145002D01*
X84415219Y-69912583D01*
X84111923Y-69786643D01*
X84010643Y-69786554D01*
X84010643Y-56605518D01*
X83947000Y-56451489D01*
X83947000Y-54546502D01*
X84010357Y-54393923D01*
X84010643Y-54065518D01*
X83885233Y-53762002D01*
X83653219Y-53529583D01*
X83349923Y-53403643D01*
X83021518Y-53403357D01*
X82718002Y-53528767D01*
X82485583Y-53760781D01*
X82359643Y-54064077D01*
X82359357Y-54392482D01*
X82423000Y-54546510D01*
X82423000Y-56451497D01*
X82359643Y-56604077D01*
X82359357Y-56932482D01*
X82484767Y-57235998D01*
X82716781Y-57468417D01*
X83020077Y-57594357D01*
X83348482Y-57594643D01*
X83651998Y-57469233D01*
X83884417Y-57237219D01*
X84010357Y-56933923D01*
X84010643Y-56605518D01*
X84010643Y-69786554D01*
X83783518Y-69786357D01*
X83480002Y-69911767D01*
X83247583Y-70143781D01*
X83121686Y-70446973D01*
X83121686Y-65572216D01*
X82957689Y-65175312D01*
X82654286Y-64871379D01*
X82257668Y-64706688D01*
X81828216Y-64706314D01*
X81431312Y-64870311D01*
X81127379Y-65173714D01*
X80962688Y-65570332D01*
X80962314Y-65999784D01*
X81126311Y-66396688D01*
X81429714Y-66700621D01*
X81826332Y-66865312D01*
X82255784Y-66865686D01*
X82652688Y-66701689D01*
X82956621Y-66398286D01*
X83121312Y-66001668D01*
X83121686Y-65572216D01*
X83121686Y-70446973D01*
X83121643Y-70447077D01*
X83121357Y-70775482D01*
X83246767Y-71078998D01*
X83439000Y-71271566D01*
X83439000Y-73762697D01*
X83271173Y-73930232D01*
X83387924Y-73598520D01*
X83359146Y-73068802D01*
X83211798Y-72713072D01*
X82976186Y-72651419D01*
X82796581Y-72831024D01*
X82796581Y-72471814D01*
X82734928Y-72236202D01*
X82234520Y-72060076D01*
X81704802Y-72088854D01*
X81349072Y-72236202D01*
X81287419Y-72471814D01*
X82042000Y-73226395D01*
X82796581Y-72471814D01*
X82796581Y-72831024D01*
X82221605Y-73406000D01*
X82976186Y-74160581D01*
X83184327Y-74106116D01*
X83121643Y-74257077D01*
X83121357Y-74585482D01*
X83246767Y-74888998D01*
X83478781Y-75121417D01*
X83782077Y-75247357D01*
X84110482Y-75247643D01*
X84413998Y-75122233D01*
X84646417Y-74890219D01*
X84772357Y-74586923D01*
X84772643Y-74258518D01*
X84772643Y-81280000D01*
X82796581Y-81280000D01*
X82796581Y-74340186D01*
X82042000Y-73585605D01*
X81862395Y-73765210D01*
X81862395Y-73406000D01*
X81107814Y-72651419D01*
X80872202Y-72713072D01*
X80696076Y-73213480D01*
X80724854Y-73743198D01*
X80872202Y-74098928D01*
X81107814Y-74160581D01*
X81862395Y-73406000D01*
X81862395Y-73765210D01*
X81287419Y-74340186D01*
X81349072Y-74575798D01*
X81849480Y-74751924D01*
X82379198Y-74723146D01*
X82734928Y-74575798D01*
X82796581Y-74340186D01*
X82796581Y-81280000D01*
X76771686Y-81280000D01*
X76771686Y-77002216D01*
X76607689Y-76605312D01*
X76304286Y-76301379D01*
X75907668Y-76136688D01*
X75478216Y-76136314D01*
X75081312Y-76300311D01*
X74777379Y-76603714D01*
X74612688Y-77000332D01*
X74612314Y-77429784D01*
X74776311Y-77826688D01*
X75079714Y-78130621D01*
X75476332Y-78295312D01*
X75905784Y-78295686D01*
X76302688Y-78131689D01*
X76606621Y-77828286D01*
X76771312Y-77431668D01*
X76771686Y-77002216D01*
X76771686Y-81280000D01*
X76771566Y-81280000D01*
X76771566Y-80379047D01*
X76771566Y-78982047D01*
X76713684Y-78841963D01*
X76606601Y-78734692D01*
X76466618Y-78676566D01*
X76315047Y-78676434D01*
X74918047Y-78676434D01*
X74777963Y-78734316D01*
X74670692Y-78841399D01*
X74612566Y-78981382D01*
X74612434Y-79132953D01*
X74612434Y-80529953D01*
X74670316Y-80670037D01*
X74777399Y-80777308D01*
X74917382Y-80835434D01*
X75068953Y-80835566D01*
X76465953Y-80835566D01*
X76606037Y-80777684D01*
X76713308Y-80670601D01*
X76771434Y-80530618D01*
X76771566Y-80379047D01*
X76771566Y-81280000D01*
X71331157Y-81280000D01*
X72384885Y-80228110D01*
X73024270Y-78688299D01*
X73025725Y-77021016D01*
X72389028Y-75480091D01*
X71211110Y-74300115D01*
X69671299Y-73660730D01*
X68004016Y-73659275D01*
X66463091Y-74295972D01*
X65283115Y-75473890D01*
X64643730Y-77013701D01*
X64642275Y-78680984D01*
X65278972Y-80221909D01*
X66335217Y-81280000D01*
X64389000Y-81280000D01*
X64389000Y-66802000D01*
X64461257Y-66802000D01*
X68779257Y-71374000D01*
X74877395Y-71374000D01*
X75057000Y-71553605D01*
X75057000Y-72326444D01*
X75045047Y-72326434D01*
X73648047Y-72326434D01*
X73507963Y-72384316D01*
X73400692Y-72491399D01*
X73342566Y-72631382D01*
X73342434Y-72782953D01*
X73342434Y-74179953D01*
X73400316Y-74320037D01*
X73507399Y-74427308D01*
X73647382Y-74485434D01*
X73798953Y-74485566D01*
X75057000Y-74485566D01*
X75057000Y-75565000D01*
X78867000Y-75565000D01*
X78867000Y-74297867D01*
X78889714Y-74320621D01*
X79286332Y-74485312D01*
X79715784Y-74485686D01*
X80112688Y-74321689D01*
X80416621Y-74018286D01*
X80581312Y-73621668D01*
X80581686Y-73192216D01*
X80581686Y-65572216D01*
X80417689Y-65175312D01*
X80114286Y-64871379D01*
X79717668Y-64706688D01*
X79288216Y-64706314D01*
X78891312Y-64870311D01*
X78587379Y-65173714D01*
X78422688Y-65570332D01*
X78422643Y-65622004D01*
X78422643Y-56478518D01*
X78297233Y-56175002D01*
X78105000Y-55982433D01*
X78105000Y-55372000D01*
X78066331Y-55177597D01*
X78066330Y-55177596D01*
X78029790Y-55122910D01*
X77956210Y-55012790D01*
X77956210Y-55012789D01*
X77448212Y-54504792D01*
X77448210Y-54504790D01*
X77448210Y-54504789D01*
X76974607Y-54031186D01*
X76974843Y-53760718D01*
X76849433Y-53457202D01*
X76617419Y-53224783D01*
X76314123Y-53098843D01*
X75985718Y-53098557D01*
X75682202Y-53223967D01*
X75449783Y-53455981D01*
X75323843Y-53759277D01*
X75323557Y-54087682D01*
X75448967Y-54391198D01*
X75680981Y-54623617D01*
X75984277Y-54749557D01*
X76256373Y-54749793D01*
X76729789Y-55223210D01*
X76729790Y-55223210D01*
X76729792Y-55223212D01*
X77089000Y-55582420D01*
X77089000Y-55982697D01*
X76897583Y-56173781D01*
X76771643Y-56477077D01*
X76771357Y-56805482D01*
X76896767Y-57108998D01*
X77128781Y-57341417D01*
X77432077Y-57467357D01*
X77760482Y-57467643D01*
X78063998Y-57342233D01*
X78296417Y-57110219D01*
X78422357Y-56806923D01*
X78422643Y-56478518D01*
X78422643Y-65622004D01*
X78422314Y-65999784D01*
X78586311Y-66396688D01*
X78889714Y-66700621D01*
X79286332Y-66865312D01*
X79715784Y-66865686D01*
X80112688Y-66701689D01*
X80416621Y-66398286D01*
X80581312Y-66001668D01*
X80581686Y-65572216D01*
X80581686Y-73192216D01*
X80417689Y-72795312D01*
X80114286Y-72491379D01*
X79717668Y-72326688D01*
X79288216Y-72326314D01*
X78891312Y-72490311D01*
X78867000Y-72514580D01*
X78867000Y-71196292D01*
X78041686Y-70327540D01*
X78041686Y-65572216D01*
X77877689Y-65175312D01*
X77574286Y-64871379D01*
X77177668Y-64706688D01*
X76748216Y-64706314D01*
X76644643Y-64749109D01*
X76644643Y-57494518D01*
X76581000Y-57340489D01*
X76581000Y-57277000D01*
X76581000Y-56642000D01*
X76581000Y-56070502D01*
X76644357Y-55917923D01*
X76644643Y-55589518D01*
X76519233Y-55286002D01*
X76287219Y-55053583D01*
X75983923Y-54927643D01*
X75655518Y-54927357D01*
X75352002Y-55052767D01*
X75132924Y-55271463D01*
X75132924Y-38737020D01*
X75120610Y-38510355D01*
X75120610Y-35053245D01*
X75120500Y-34766250D01*
X74961750Y-34607500D01*
X73914000Y-34607500D01*
X73914000Y-35655250D01*
X74072750Y-35814000D01*
X74611255Y-35814110D01*
X74844729Y-35717641D01*
X75023513Y-35539168D01*
X75120389Y-35305864D01*
X75120610Y-35053245D01*
X75120610Y-38510355D01*
X75104146Y-38207302D01*
X74956798Y-37851572D01*
X74721186Y-37789919D01*
X74541581Y-37969524D01*
X74541581Y-37610314D01*
X74479928Y-37374702D01*
X73979520Y-37198576D01*
X73660000Y-37215934D01*
X73660000Y-35655250D01*
X73660000Y-34607500D01*
X72612250Y-34607500D01*
X72453500Y-34766250D01*
X72453390Y-35053245D01*
X72453611Y-35305864D01*
X72550487Y-35539168D01*
X72729271Y-35717641D01*
X72962745Y-35814110D01*
X73501250Y-35814000D01*
X73660000Y-35655250D01*
X73660000Y-37215934D01*
X73449802Y-37227354D01*
X73094072Y-37374702D01*
X73032419Y-37610314D01*
X73787000Y-38364895D01*
X74541581Y-37610314D01*
X74541581Y-37969524D01*
X73966605Y-38544500D01*
X74721186Y-39299081D01*
X74956798Y-39237428D01*
X75132924Y-38737020D01*
X75132924Y-55271463D01*
X75119583Y-55284781D01*
X74993643Y-55588077D01*
X74993357Y-55916482D01*
X75057000Y-56070510D01*
X75057000Y-56642000D01*
X75057000Y-57277000D01*
X75057000Y-57340497D01*
X74993643Y-57493077D01*
X74993357Y-57821482D01*
X75118767Y-58124998D01*
X75350781Y-58357417D01*
X75654077Y-58483357D01*
X75982482Y-58483643D01*
X76285998Y-58358233D01*
X76518417Y-58126219D01*
X76644357Y-57822923D01*
X76644643Y-57494518D01*
X76644643Y-64749109D01*
X76351312Y-64870311D01*
X76047379Y-65173714D01*
X75882688Y-65570332D01*
X75882314Y-65999784D01*
X76046311Y-66396688D01*
X76349714Y-66700621D01*
X76746332Y-66865312D01*
X77175784Y-66865686D01*
X77572688Y-66701689D01*
X77876621Y-66398286D01*
X78041312Y-66001668D01*
X78041686Y-65572216D01*
X78041686Y-70327540D01*
X76381523Y-68580000D01*
X70412627Y-68580000D01*
X68199000Y-66243394D01*
X68199000Y-63627000D01*
X73152000Y-63627000D01*
X73152000Y-64643000D01*
X73210004Y-64934605D01*
X73375185Y-65181815D01*
X73466215Y-65272845D01*
X73342688Y-65570332D01*
X73342314Y-65999784D01*
X73506311Y-66396688D01*
X73809714Y-66700621D01*
X74206332Y-66865312D01*
X74635784Y-66865686D01*
X75032688Y-66701689D01*
X75336621Y-66398286D01*
X75501312Y-66001668D01*
X75501686Y-65572216D01*
X75337689Y-65175312D01*
X75151794Y-64989092D01*
X75125996Y-64859395D01*
X74960815Y-64612185D01*
X74960815Y-64612184D01*
X74676000Y-64327369D01*
X74676000Y-63627000D01*
X74676000Y-58674000D01*
X74676000Y-55562502D01*
X74739357Y-55409923D01*
X74739643Y-55081518D01*
X74676000Y-54927489D01*
X74676000Y-53594000D01*
X74541581Y-53594000D01*
X74541581Y-39478686D01*
X73787000Y-38724105D01*
X73607395Y-38903710D01*
X73607395Y-38544500D01*
X72852814Y-37789919D01*
X72617202Y-37851572D01*
X72441076Y-38351980D01*
X72469854Y-38881698D01*
X72617202Y-39237428D01*
X72852814Y-39299081D01*
X73607395Y-38544500D01*
X73607395Y-38903710D01*
X73032419Y-39478686D01*
X73094072Y-39714298D01*
X73594480Y-39890424D01*
X74124198Y-39861646D01*
X74479928Y-39714298D01*
X74541581Y-39478686D01*
X74541581Y-53594000D01*
X72898154Y-53594000D01*
X72898154Y-44654943D01*
X72830329Y-44490794D01*
X72763097Y-44328080D01*
X72637618Y-44202382D01*
X72513236Y-44077782D01*
X72186609Y-43942154D01*
X71832943Y-43941846D01*
X71832570Y-43942000D01*
X67437000Y-43942000D01*
X67096794Y-44009671D01*
X66808382Y-44202382D01*
X65665382Y-45345382D01*
X65472671Y-45633795D01*
X65405000Y-45974000D01*
X65415323Y-46025900D01*
X65405154Y-46050391D01*
X65405110Y-46100444D01*
X65405000Y-46101000D01*
X65405000Y-46227224D01*
X65404846Y-46404057D01*
X65472671Y-46568206D01*
X65539903Y-46730920D01*
X65665382Y-46856618D01*
X65789764Y-46981218D01*
X65953794Y-47049329D01*
X66116391Y-47116846D01*
X66294000Y-47117000D01*
X66470057Y-47117154D01*
X66634206Y-47049329D01*
X66796920Y-46982097D01*
X66922618Y-46856618D01*
X67047218Y-46732236D01*
X67115329Y-46568206D01*
X67182846Y-46405609D01*
X67182901Y-46342334D01*
X67805236Y-45720000D01*
X72008224Y-45720000D01*
X72009000Y-45720000D01*
X72185057Y-45720154D01*
X72349206Y-45652329D01*
X72511920Y-45585097D01*
X72637618Y-45459618D01*
X72762218Y-45335236D01*
X72830329Y-45171206D01*
X72897846Y-45008609D01*
X72898000Y-44831000D01*
X72898154Y-44654943D01*
X72898154Y-53594000D01*
X64389000Y-53594000D01*
X64389000Y-33655000D01*
X72453667Y-33655000D01*
X72453611Y-33655136D01*
X72453390Y-33907755D01*
X72453500Y-34194750D01*
X72612250Y-34353500D01*
X73660000Y-34353500D01*
X73660000Y-34333500D01*
X73914000Y-34333500D01*
X73914000Y-34353500D01*
X74961750Y-34353500D01*
X75120500Y-34194750D01*
X75120610Y-33907755D01*
X75120389Y-33655136D01*
X75120332Y-33655000D01*
X75268694Y-33655000D01*
X75247566Y-33705882D01*
X75247434Y-33857453D01*
X75247434Y-35254453D01*
X75305316Y-35394537D01*
X75412399Y-35501808D01*
X75552382Y-35559934D01*
X75703953Y-35560066D01*
X75819000Y-35560066D01*
X75819000Y-36576000D01*
X75819000Y-36639500D01*
X75819000Y-37464934D01*
X75553047Y-37464934D01*
X75412963Y-37522816D01*
X75305692Y-37629899D01*
X75247566Y-37769882D01*
X75247434Y-37921453D01*
X75247434Y-39318453D01*
X75305316Y-39458537D01*
X75412399Y-39565808D01*
X75552382Y-39623934D01*
X75703953Y-39624066D01*
X77100953Y-39624066D01*
X77241037Y-39566184D01*
X77348308Y-39459101D01*
X77406434Y-39319118D01*
X77406566Y-39167547D01*
X77406566Y-37770547D01*
X77348684Y-37630463D01*
X77241601Y-37523192D01*
X77101618Y-37465066D01*
X76950047Y-37464934D01*
X76835000Y-37464934D01*
X76835000Y-36639500D01*
X76835000Y-36576000D01*
X76835000Y-35560066D01*
X77100953Y-35560066D01*
X77241037Y-35502184D01*
X77348308Y-35395101D01*
X77406434Y-35255118D01*
X77406566Y-35103547D01*
X77406566Y-33706547D01*
X77385267Y-33655000D01*
X77851000Y-33655000D01*
X77851000Y-39624000D01*
X82973990Y-39624000D01*
X82803031Y-40038616D01*
X82804878Y-41187439D01*
X82748396Y-41101259D01*
X81627384Y-40639031D01*
X80414816Y-40640981D01*
X79303604Y-41101259D01*
X79032505Y-41514900D01*
X81026000Y-43508395D01*
X81040142Y-43494252D01*
X81219747Y-43673857D01*
X81205605Y-43688000D01*
X81219747Y-43702142D01*
X81040142Y-43881747D01*
X81026000Y-43867605D01*
X80846395Y-44047210D01*
X80846395Y-43688000D01*
X78852900Y-41694505D01*
X78439259Y-41965604D01*
X77977031Y-43086616D01*
X77978981Y-44299184D01*
X78439259Y-45410396D01*
X78852900Y-45681495D01*
X80846395Y-43688000D01*
X80846395Y-44047210D01*
X79032505Y-45861100D01*
X79303604Y-46274741D01*
X80424616Y-46736969D01*
X81637184Y-46735019D01*
X82748396Y-46274741D01*
X83019493Y-45861101D01*
X83019495Y-45861103D01*
X83042799Y-45884407D01*
X83019495Y-45940532D01*
X82931509Y-46152428D01*
X82930495Y-47314474D01*
X83374253Y-48388452D01*
X84195226Y-49210859D01*
X84963000Y-49529666D01*
X84963000Y-49784000D01*
X84963000Y-59107605D01*
X86688395Y-60833000D01*
X98122981Y-60833000D01*
X102362000Y-64573311D01*
X102362000Y-81280000D01*
G36*
X125095000Y-49149000D02*
X119455924Y-49149000D01*
X119140280Y-49149000D01*
X119159444Y-49129836D01*
X119044188Y-49014580D01*
X119279798Y-48952928D01*
X119455924Y-48452520D01*
X119443610Y-48225855D01*
X119443610Y-44004255D01*
X119443610Y-42355745D01*
X119347141Y-42122271D01*
X119168668Y-41943487D01*
X118935364Y-41846611D01*
X118682745Y-41846390D01*
X118395750Y-41846500D01*
X118237000Y-42005250D01*
X118237000Y-43053000D01*
X119284750Y-43053000D01*
X119443500Y-42894250D01*
X119443610Y-42355745D01*
X119443610Y-44004255D01*
X119443500Y-43465750D01*
X119284750Y-43307000D01*
X118237000Y-43307000D01*
X118237000Y-44354750D01*
X118395750Y-44513500D01*
X118682745Y-44513610D01*
X118935364Y-44513389D01*
X119168668Y-44416513D01*
X119347141Y-44237729D01*
X119443610Y-44004255D01*
X119443610Y-48225855D01*
X119427146Y-47922802D01*
X119279798Y-47567072D01*
X119189686Y-47543492D01*
X119189686Y-45506216D01*
X119025689Y-45109312D01*
X118722286Y-44805379D01*
X118325668Y-44640688D01*
X117983000Y-44640389D01*
X117983000Y-44354750D01*
X117983000Y-43307000D01*
X117983000Y-43053000D01*
X117983000Y-42005250D01*
X117824250Y-41846500D01*
X117537255Y-41846390D01*
X117284636Y-41846611D01*
X117051332Y-41943487D01*
X116872859Y-42122271D01*
X116776390Y-42355745D01*
X116776500Y-42894250D01*
X116935250Y-43053000D01*
X117983000Y-43053000D01*
X117983000Y-43307000D01*
X116935250Y-43307000D01*
X116776500Y-43465750D01*
X116776390Y-44004255D01*
X116872859Y-44237729D01*
X117051332Y-44416513D01*
X117284636Y-44513389D01*
X117537255Y-44513610D01*
X117824250Y-44513500D01*
X117983000Y-44354750D01*
X117983000Y-44640389D01*
X117896216Y-44640314D01*
X117499312Y-44804311D01*
X117195379Y-45107714D01*
X117030688Y-45504332D01*
X117030314Y-45933784D01*
X117194311Y-46330688D01*
X117497714Y-46634621D01*
X117894332Y-46799312D01*
X118323784Y-46799686D01*
X118720688Y-46635689D01*
X119024621Y-46332286D01*
X119189312Y-45935668D01*
X119189686Y-45506216D01*
X119189686Y-47543492D01*
X119044186Y-47505419D01*
X118864581Y-47685024D01*
X118864581Y-47325814D01*
X118802928Y-47090202D01*
X118302520Y-46914076D01*
X117772802Y-46942854D01*
X117417072Y-47090202D01*
X117355419Y-47325814D01*
X118110000Y-48080395D01*
X118864581Y-47325814D01*
X118864581Y-47685024D01*
X118289605Y-48260000D01*
X118303747Y-48274142D01*
X118124142Y-48453747D01*
X118110000Y-48439605D01*
X118095857Y-48453747D01*
X117930395Y-48288285D01*
X117916252Y-48274142D01*
X117930395Y-48260000D01*
X117175814Y-47505419D01*
X116940202Y-47567072D01*
X116764076Y-48067480D01*
X116792854Y-48597198D01*
X116940202Y-48952928D01*
X117175811Y-49014580D01*
X117060556Y-49129836D01*
X117079720Y-49149000D01*
X114098605Y-49149000D01*
X111125000Y-46175395D01*
X111125000Y-33655000D01*
X125095000Y-33655000D01*
X125095000Y-49149000D01*
X125095000Y-49149000D01*
G37*
X125095000Y-49149000D02*
X119455924Y-49149000D01*
X119140280Y-49149000D01*
X119159444Y-49129836D01*
X119044188Y-49014580D01*
X119279798Y-48952928D01*
X119455924Y-48452520D01*
X119443610Y-48225855D01*
X119443610Y-44004255D01*
X119443610Y-42355745D01*
X119347141Y-42122271D01*
X119168668Y-41943487D01*
X118935364Y-41846611D01*
X118682745Y-41846390D01*
X118395750Y-41846500D01*
X118237000Y-42005250D01*
X118237000Y-43053000D01*
X119284750Y-43053000D01*
X119443500Y-42894250D01*
X119443610Y-42355745D01*
X119443610Y-44004255D01*
X119443500Y-43465750D01*
X119284750Y-43307000D01*
X118237000Y-43307000D01*
X118237000Y-44354750D01*
X118395750Y-44513500D01*
X118682745Y-44513610D01*
X118935364Y-44513389D01*
X119168668Y-44416513D01*
X119347141Y-44237729D01*
X119443610Y-44004255D01*
X119443610Y-48225855D01*
X119427146Y-47922802D01*
X119279798Y-47567072D01*
X119189686Y-47543492D01*
X119189686Y-45506216D01*
X119025689Y-45109312D01*
X118722286Y-44805379D01*
X118325668Y-44640688D01*
X117983000Y-44640389D01*
X117983000Y-44354750D01*
X117983000Y-43307000D01*
X117983000Y-43053000D01*
X117983000Y-42005250D01*
X117824250Y-41846500D01*
X117537255Y-41846390D01*
X117284636Y-41846611D01*
X117051332Y-41943487D01*
X116872859Y-42122271D01*
X116776390Y-42355745D01*
X116776500Y-42894250D01*
X116935250Y-43053000D01*
X117983000Y-43053000D01*
X117983000Y-43307000D01*
X116935250Y-43307000D01*
X116776500Y-43465750D01*
X116776390Y-44004255D01*
X116872859Y-44237729D01*
X117051332Y-44416513D01*
X117284636Y-44513389D01*
X117537255Y-44513610D01*
X117824250Y-44513500D01*
X117983000Y-44354750D01*
X117983000Y-44640389D01*
X117896216Y-44640314D01*
X117499312Y-44804311D01*
X117195379Y-45107714D01*
X117030688Y-45504332D01*
X117030314Y-45933784D01*
X117194311Y-46330688D01*
X117497714Y-46634621D01*
X117894332Y-46799312D01*
X118323784Y-46799686D01*
X118720688Y-46635689D01*
X119024621Y-46332286D01*
X119189312Y-45935668D01*
X119189686Y-45506216D01*
X119189686Y-47543492D01*
X119044186Y-47505419D01*
X118864581Y-47685024D01*
X118864581Y-47325814D01*
X118802928Y-47090202D01*
X118302520Y-46914076D01*
X117772802Y-46942854D01*
X117417072Y-47090202D01*
X117355419Y-47325814D01*
X118110000Y-48080395D01*
X118864581Y-47325814D01*
X118864581Y-47685024D01*
X118289605Y-48260000D01*
X118303747Y-48274142D01*
X118124142Y-48453747D01*
X118110000Y-48439605D01*
X118095857Y-48453747D01*
X117930395Y-48288285D01*
X117916252Y-48274142D01*
X117930395Y-48260000D01*
X117175814Y-47505419D01*
X116940202Y-47567072D01*
X116764076Y-48067480D01*
X116792854Y-48597198D01*
X116940202Y-48952928D01*
X117175811Y-49014580D01*
X117060556Y-49129836D01*
X117079720Y-49149000D01*
X114098605Y-49149000D01*
X111125000Y-46175395D01*
X111125000Y-33655000D01*
X125095000Y-33655000D01*
X125095000Y-49149000D01*
G36*
X125095000Y-61849000D02*
X119443610Y-61849000D01*
X119443610Y-51624255D01*
X119443500Y-51085750D01*
X119284750Y-50927000D01*
X118237000Y-50927000D01*
X118237000Y-51974750D01*
X118395750Y-52133500D01*
X118682745Y-52133610D01*
X118935364Y-52133389D01*
X119168668Y-52036513D01*
X119347141Y-51857729D01*
X119443610Y-51624255D01*
X119443610Y-61849000D01*
X118747423Y-61849000D01*
X119024621Y-61572286D01*
X119189312Y-61175668D01*
X119189686Y-60746216D01*
X119189686Y-58206216D01*
X119189686Y-55666216D01*
X119189686Y-53126216D01*
X119025689Y-52729312D01*
X118722286Y-52425379D01*
X118325668Y-52260688D01*
X117983000Y-52260389D01*
X117983000Y-51974750D01*
X117983000Y-50927000D01*
X116935250Y-50927000D01*
X116776500Y-51085750D01*
X116776390Y-51624255D01*
X116872859Y-51857729D01*
X117051332Y-52036513D01*
X117284636Y-52133389D01*
X117537255Y-52133610D01*
X117824250Y-52133500D01*
X117983000Y-51974750D01*
X117983000Y-52260389D01*
X117896216Y-52260314D01*
X117499312Y-52424311D01*
X117195379Y-52727714D01*
X117030688Y-53124332D01*
X117030314Y-53553784D01*
X117194311Y-53950688D01*
X117497714Y-54254621D01*
X117894332Y-54419312D01*
X118323784Y-54419686D01*
X118720688Y-54255689D01*
X119024621Y-53952286D01*
X119189312Y-53555668D01*
X119189686Y-53126216D01*
X119189686Y-55666216D01*
X119025689Y-55269312D01*
X118722286Y-54965379D01*
X118325668Y-54800688D01*
X117896216Y-54800314D01*
X117499312Y-54964311D01*
X117195379Y-55267714D01*
X117030688Y-55664332D01*
X117030314Y-56093784D01*
X117194311Y-56490688D01*
X117497714Y-56794621D01*
X117894332Y-56959312D01*
X118323784Y-56959686D01*
X118720688Y-56795689D01*
X119024621Y-56492286D01*
X119189312Y-56095668D01*
X119189686Y-55666216D01*
X119189686Y-58206216D01*
X119025689Y-57809312D01*
X118722286Y-57505379D01*
X118325668Y-57340688D01*
X117896216Y-57340314D01*
X117499312Y-57504311D01*
X117195379Y-57807714D01*
X117030688Y-58204332D01*
X117030314Y-58633784D01*
X117194311Y-59030688D01*
X117497714Y-59334621D01*
X117894332Y-59499312D01*
X118323784Y-59499686D01*
X118720688Y-59335689D01*
X119024621Y-59032286D01*
X119189312Y-58635668D01*
X119189686Y-58206216D01*
X119189686Y-60746216D01*
X119025689Y-60349312D01*
X118722286Y-60045379D01*
X118325668Y-59880688D01*
X117896216Y-59880314D01*
X117499312Y-60044311D01*
X117195379Y-60347714D01*
X117030688Y-60744332D01*
X117030314Y-61173784D01*
X117194311Y-61570688D01*
X117472137Y-61849000D01*
X114352605Y-61849000D01*
X114173000Y-61669395D01*
X114173000Y-58240395D01*
X109461584Y-53528979D01*
X109461584Y-49637352D01*
X109461584Y-43287352D01*
X109212693Y-42684990D01*
X109207540Y-42679828D01*
X109207540Y-40188054D01*
X108997237Y-39679081D01*
X108608167Y-39289332D01*
X108099562Y-39078141D01*
X107548854Y-39077660D01*
X107039881Y-39287963D01*
X106650132Y-39677033D01*
X106438941Y-40185638D01*
X106438460Y-40736346D01*
X106648763Y-41245319D01*
X107037833Y-41635068D01*
X107546438Y-41846259D01*
X108097146Y-41846740D01*
X108606119Y-41636437D01*
X108995868Y-41247367D01*
X109207059Y-40738762D01*
X109207540Y-40188054D01*
X109207540Y-42679828D01*
X108752234Y-42223727D01*
X108150308Y-41973785D01*
X107498552Y-41973216D01*
X106896190Y-42222107D01*
X106434927Y-42682566D01*
X106184985Y-43284492D01*
X106184416Y-43936248D01*
X106433307Y-44538610D01*
X106893766Y-44999873D01*
X107495692Y-45249815D01*
X108147448Y-45250384D01*
X108749810Y-45001493D01*
X109211073Y-44541034D01*
X109461015Y-43939108D01*
X109461584Y-43287352D01*
X109461584Y-49637352D01*
X109212693Y-49034990D01*
X108752234Y-48573727D01*
X108150308Y-48323785D01*
X107498552Y-48323216D01*
X106896190Y-48572107D01*
X106434927Y-49032566D01*
X106184985Y-49634492D01*
X106184416Y-50286248D01*
X106433307Y-50888610D01*
X106893766Y-51349873D01*
X107495692Y-51599815D01*
X108147448Y-51600384D01*
X108749810Y-51351493D01*
X109211073Y-50891034D01*
X109461015Y-50289108D01*
X109461584Y-49637352D01*
X109461584Y-53528979D01*
X109399605Y-53467000D01*
X100406525Y-53467000D01*
X100406525Y-46439965D01*
X100120976Y-45748883D01*
X99592698Y-45219682D01*
X98902116Y-44932928D01*
X98294642Y-44932397D01*
X98294642Y-43937735D01*
X98294642Y-37587735D01*
X98274618Y-36835198D01*
X98025158Y-36232948D01*
X97731596Y-36102809D01*
X96572605Y-37261800D01*
X97731596Y-38420791D01*
X98025158Y-38290652D01*
X98294642Y-37587735D01*
X98294642Y-43937735D01*
X98274618Y-43185198D01*
X98025158Y-42582948D01*
X97777540Y-42473176D01*
X97777540Y-40188054D01*
X97567237Y-39679081D01*
X97178167Y-39289332D01*
X96823188Y-39141932D01*
X97421852Y-38893958D01*
X97551991Y-38600396D01*
X96393000Y-37441405D01*
X96213395Y-37621010D01*
X96213395Y-37261800D01*
X95054404Y-36102809D01*
X94760842Y-36232948D01*
X94491358Y-36935865D01*
X94511382Y-37688402D01*
X94760842Y-38290652D01*
X95054404Y-38420791D01*
X96213395Y-37261800D01*
X96213395Y-37621010D01*
X95234009Y-38600396D01*
X95364148Y-38893958D01*
X95986239Y-39132455D01*
X95609881Y-39287963D01*
X95220132Y-39677033D01*
X95008941Y-40185638D01*
X95008460Y-40736346D01*
X95218763Y-41245319D01*
X95607833Y-41635068D01*
X95901565Y-41757036D01*
X95364148Y-41979642D01*
X95234009Y-42273204D01*
X96393000Y-43432195D01*
X97551991Y-42273204D01*
X97421852Y-41979642D01*
X96863533Y-41765594D01*
X97176119Y-41636437D01*
X97565868Y-41247367D01*
X97777059Y-40738762D01*
X97777540Y-40188054D01*
X97777540Y-42473176D01*
X97731596Y-42452809D01*
X96572605Y-43611800D01*
X97731596Y-44770791D01*
X98025158Y-44640652D01*
X98294642Y-43937735D01*
X98294642Y-44932397D01*
X98154365Y-44932275D01*
X97551991Y-45181170D01*
X97551991Y-44950396D01*
X96393000Y-43791405D01*
X96213395Y-43971010D01*
X96213395Y-43611800D01*
X95054404Y-42452809D01*
X94760842Y-42582948D01*
X94491358Y-43285865D01*
X94511382Y-44038402D01*
X94760842Y-44640652D01*
X95054404Y-44770791D01*
X96213395Y-43611800D01*
X96213395Y-43971010D01*
X95234009Y-44950396D01*
X95364148Y-45243958D01*
X96067065Y-45513442D01*
X96819602Y-45493418D01*
X97421852Y-45243958D01*
X97551991Y-44950396D01*
X97551991Y-45181170D01*
X97463283Y-45217824D01*
X96934082Y-45746102D01*
X96647328Y-46436684D01*
X96646675Y-47184435D01*
X96932224Y-47875517D01*
X97460502Y-48404718D01*
X98151084Y-48691472D01*
X98898835Y-48692125D01*
X99589917Y-48406576D01*
X100119118Y-47878298D01*
X100405872Y-47187716D01*
X100406525Y-46439965D01*
X100406525Y-53467000D01*
X98031584Y-53467000D01*
X98031584Y-49637352D01*
X97782693Y-49034990D01*
X97322234Y-48573727D01*
X96720308Y-48323785D01*
X96068552Y-48323216D01*
X95466190Y-48572107D01*
X95004927Y-49032566D01*
X94754985Y-49634492D01*
X94754416Y-50286248D01*
X95003307Y-50888610D01*
X95463766Y-51349873D01*
X96065692Y-51599815D01*
X96717448Y-51600384D01*
X97319810Y-51351493D01*
X97781073Y-50891034D01*
X98031015Y-50289108D01*
X98031584Y-49637352D01*
X98031584Y-53467000D01*
X97461605Y-53467000D01*
X92837000Y-48842395D01*
X92837000Y-37084000D01*
X92964000Y-37084000D01*
X93158403Y-37045331D01*
X93323210Y-36935210D01*
X94698420Y-35560000D01*
X95532278Y-35560000D01*
X95364148Y-35629642D01*
X95234009Y-35923204D01*
X96393000Y-37082195D01*
X97551991Y-35923204D01*
X97421852Y-35629642D01*
X97240199Y-35560000D01*
X99187000Y-35560000D01*
X105453580Y-35560000D01*
X106373669Y-36480089D01*
X106184985Y-36934492D01*
X106184416Y-37586248D01*
X106433307Y-38188610D01*
X106893766Y-38649873D01*
X107495692Y-38899815D01*
X108147448Y-38900384D01*
X108749810Y-38651493D01*
X109211073Y-38191034D01*
X109461015Y-37589108D01*
X109461584Y-36937352D01*
X109212693Y-36334990D01*
X108752234Y-35873727D01*
X108150308Y-35623785D01*
X107498552Y-35623216D01*
X107112959Y-35782539D01*
X106509420Y-35179000D01*
X110363000Y-35179000D01*
X110363000Y-46534605D01*
X113739395Y-49911000D01*
X116803141Y-49911000D01*
X116776390Y-49975745D01*
X116776500Y-50514250D01*
X116935250Y-50673000D01*
X117983000Y-50673000D01*
X117983000Y-50653000D01*
X118237000Y-50653000D01*
X118237000Y-50673000D01*
X119284750Y-50673000D01*
X119443500Y-50514250D01*
X119443610Y-49975745D01*
X119416858Y-49911000D01*
X125095000Y-49911000D01*
X125095000Y-61849000D01*
X125095000Y-61849000D01*
G37*
X125095000Y-61849000D02*
X119443610Y-61849000D01*
X119443610Y-51624255D01*
X119443500Y-51085750D01*
X119284750Y-50927000D01*
X118237000Y-50927000D01*
X118237000Y-51974750D01*
X118395750Y-52133500D01*
X118682745Y-52133610D01*
X118935364Y-52133389D01*
X119168668Y-52036513D01*
X119347141Y-51857729D01*
X119443610Y-51624255D01*
X119443610Y-61849000D01*
X118747423Y-61849000D01*
X119024621Y-61572286D01*
X119189312Y-61175668D01*
X119189686Y-60746216D01*
X119189686Y-58206216D01*
X119189686Y-55666216D01*
X119189686Y-53126216D01*
X119025689Y-52729312D01*
X118722286Y-52425379D01*
X118325668Y-52260688D01*
X117983000Y-52260389D01*
X117983000Y-51974750D01*
X117983000Y-50927000D01*
X116935250Y-50927000D01*
X116776500Y-51085750D01*
X116776390Y-51624255D01*
X116872859Y-51857729D01*
X117051332Y-52036513D01*
X117284636Y-52133389D01*
X117537255Y-52133610D01*
X117824250Y-52133500D01*
X117983000Y-51974750D01*
X117983000Y-52260389D01*
X117896216Y-52260314D01*
X117499312Y-52424311D01*
X117195379Y-52727714D01*
X117030688Y-53124332D01*
X117030314Y-53553784D01*
X117194311Y-53950688D01*
X117497714Y-54254621D01*
X117894332Y-54419312D01*
X118323784Y-54419686D01*
X118720688Y-54255689D01*
X119024621Y-53952286D01*
X119189312Y-53555668D01*
X119189686Y-53126216D01*
X119189686Y-55666216D01*
X119025689Y-55269312D01*
X118722286Y-54965379D01*
X118325668Y-54800688D01*
X117896216Y-54800314D01*
X117499312Y-54964311D01*
X117195379Y-55267714D01*
X117030688Y-55664332D01*
X117030314Y-56093784D01*
X117194311Y-56490688D01*
X117497714Y-56794621D01*
X117894332Y-56959312D01*
X118323784Y-56959686D01*
X118720688Y-56795689D01*
X119024621Y-56492286D01*
X119189312Y-56095668D01*
X119189686Y-55666216D01*
X119189686Y-58206216D01*
X119025689Y-57809312D01*
X118722286Y-57505379D01*
X118325668Y-57340688D01*
X117896216Y-57340314D01*
X117499312Y-57504311D01*
X117195379Y-57807714D01*
X117030688Y-58204332D01*
X117030314Y-58633784D01*
X117194311Y-59030688D01*
X117497714Y-59334621D01*
X117894332Y-59499312D01*
X118323784Y-59499686D01*
X118720688Y-59335689D01*
X119024621Y-59032286D01*
X119189312Y-58635668D01*
X119189686Y-58206216D01*
X119189686Y-60746216D01*
X119025689Y-60349312D01*
X118722286Y-60045379D01*
X118325668Y-59880688D01*
X117896216Y-59880314D01*
X117499312Y-60044311D01*
X117195379Y-60347714D01*
X117030688Y-60744332D01*
X117030314Y-61173784D01*
X117194311Y-61570688D01*
X117472137Y-61849000D01*
X114352605Y-61849000D01*
X114173000Y-61669395D01*
X114173000Y-58240395D01*
X109461584Y-53528979D01*
X109461584Y-49637352D01*
X109461584Y-43287352D01*
X109212693Y-42684990D01*
X109207540Y-42679828D01*
X109207540Y-40188054D01*
X108997237Y-39679081D01*
X108608167Y-39289332D01*
X108099562Y-39078141D01*
X107548854Y-39077660D01*
X107039881Y-39287963D01*
X106650132Y-39677033D01*
X106438941Y-40185638D01*
X106438460Y-40736346D01*
X106648763Y-41245319D01*
X107037833Y-41635068D01*
X107546438Y-41846259D01*
X108097146Y-41846740D01*
X108606119Y-41636437D01*
X108995868Y-41247367D01*
X109207059Y-40738762D01*
X109207540Y-40188054D01*
X109207540Y-42679828D01*
X108752234Y-42223727D01*
X108150308Y-41973785D01*
X107498552Y-41973216D01*
X106896190Y-42222107D01*
X106434927Y-42682566D01*
X106184985Y-43284492D01*
X106184416Y-43936248D01*
X106433307Y-44538610D01*
X106893766Y-44999873D01*
X107495692Y-45249815D01*
X108147448Y-45250384D01*
X108749810Y-45001493D01*
X109211073Y-44541034D01*
X109461015Y-43939108D01*
X109461584Y-43287352D01*
X109461584Y-49637352D01*
X109212693Y-49034990D01*
X108752234Y-48573727D01*
X108150308Y-48323785D01*
X107498552Y-48323216D01*
X106896190Y-48572107D01*
X106434927Y-49032566D01*
X106184985Y-49634492D01*
X106184416Y-50286248D01*
X106433307Y-50888610D01*
X106893766Y-51349873D01*
X107495692Y-51599815D01*
X108147448Y-51600384D01*
X108749810Y-51351493D01*
X109211073Y-50891034D01*
X109461015Y-50289108D01*
X109461584Y-49637352D01*
X109461584Y-53528979D01*
X109399605Y-53467000D01*
X100406525Y-53467000D01*
X100406525Y-46439965D01*
X100120976Y-45748883D01*
X99592698Y-45219682D01*
X98902116Y-44932928D01*
X98294642Y-44932397D01*
X98294642Y-43937735D01*
X98294642Y-37587735D01*
X98274618Y-36835198D01*
X98025158Y-36232948D01*
X97731596Y-36102809D01*
X96572605Y-37261800D01*
X97731596Y-38420791D01*
X98025158Y-38290652D01*
X98294642Y-37587735D01*
X98294642Y-43937735D01*
X98274618Y-43185198D01*
X98025158Y-42582948D01*
X97777540Y-42473176D01*
X97777540Y-40188054D01*
X97567237Y-39679081D01*
X97178167Y-39289332D01*
X96823188Y-39141932D01*
X97421852Y-38893958D01*
X97551991Y-38600396D01*
X96393000Y-37441405D01*
X96213395Y-37621010D01*
X96213395Y-37261800D01*
X95054404Y-36102809D01*
X94760842Y-36232948D01*
X94491358Y-36935865D01*
X94511382Y-37688402D01*
X94760842Y-38290652D01*
X95054404Y-38420791D01*
X96213395Y-37261800D01*
X96213395Y-37621010D01*
X95234009Y-38600396D01*
X95364148Y-38893958D01*
X95986239Y-39132455D01*
X95609881Y-39287963D01*
X95220132Y-39677033D01*
X95008941Y-40185638D01*
X95008460Y-40736346D01*
X95218763Y-41245319D01*
X95607833Y-41635068D01*
X95901565Y-41757036D01*
X95364148Y-41979642D01*
X95234009Y-42273204D01*
X96393000Y-43432195D01*
X97551991Y-42273204D01*
X97421852Y-41979642D01*
X96863533Y-41765594D01*
X97176119Y-41636437D01*
X97565868Y-41247367D01*
X97777059Y-40738762D01*
X97777540Y-40188054D01*
X97777540Y-42473176D01*
X97731596Y-42452809D01*
X96572605Y-43611800D01*
X97731596Y-44770791D01*
X98025158Y-44640652D01*
X98294642Y-43937735D01*
X98294642Y-44932397D01*
X98154365Y-44932275D01*
X97551991Y-45181170D01*
X97551991Y-44950396D01*
X96393000Y-43791405D01*
X96213395Y-43971010D01*
X96213395Y-43611800D01*
X95054404Y-42452809D01*
X94760842Y-42582948D01*
X94491358Y-43285865D01*
X94511382Y-44038402D01*
X94760842Y-44640652D01*
X95054404Y-44770791D01*
X96213395Y-43611800D01*
X96213395Y-43971010D01*
X95234009Y-44950396D01*
X95364148Y-45243958D01*
X96067065Y-45513442D01*
X96819602Y-45493418D01*
X97421852Y-45243958D01*
X97551991Y-44950396D01*
X97551991Y-45181170D01*
X97463283Y-45217824D01*
X96934082Y-45746102D01*
X96647328Y-46436684D01*
X96646675Y-47184435D01*
X96932224Y-47875517D01*
X97460502Y-48404718D01*
X98151084Y-48691472D01*
X98898835Y-48692125D01*
X99589917Y-48406576D01*
X100119118Y-47878298D01*
X100405872Y-47187716D01*
X100406525Y-46439965D01*
X100406525Y-53467000D01*
X98031584Y-53467000D01*
X98031584Y-49637352D01*
X97782693Y-49034990D01*
X97322234Y-48573727D01*
X96720308Y-48323785D01*
X96068552Y-48323216D01*
X95466190Y-48572107D01*
X95004927Y-49032566D01*
X94754985Y-49634492D01*
X94754416Y-50286248D01*
X95003307Y-50888610D01*
X95463766Y-51349873D01*
X96065692Y-51599815D01*
X96717448Y-51600384D01*
X97319810Y-51351493D01*
X97781073Y-50891034D01*
X98031015Y-50289108D01*
X98031584Y-49637352D01*
X98031584Y-53467000D01*
X97461605Y-53467000D01*
X92837000Y-48842395D01*
X92837000Y-37084000D01*
X92964000Y-37084000D01*
X93158403Y-37045331D01*
X93323210Y-36935210D01*
X94698420Y-35560000D01*
X95532278Y-35560000D01*
X95364148Y-35629642D01*
X95234009Y-35923204D01*
X96393000Y-37082195D01*
X97551991Y-35923204D01*
X97421852Y-35629642D01*
X97240199Y-35560000D01*
X99187000Y-35560000D01*
X105453580Y-35560000D01*
X106373669Y-36480089D01*
X106184985Y-36934492D01*
X106184416Y-37586248D01*
X106433307Y-38188610D01*
X106893766Y-38649873D01*
X107495692Y-38899815D01*
X108147448Y-38900384D01*
X108749810Y-38651493D01*
X109211073Y-38191034D01*
X109461015Y-37589108D01*
X109461584Y-36937352D01*
X109212693Y-36334990D01*
X108752234Y-35873727D01*
X108150308Y-35623785D01*
X107498552Y-35623216D01*
X107112959Y-35782539D01*
X106509420Y-35179000D01*
X110363000Y-35179000D01*
X110363000Y-46534605D01*
X113739395Y-49911000D01*
X116803141Y-49911000D01*
X116776390Y-49975745D01*
X116776500Y-50514250D01*
X116935250Y-50673000D01*
X117983000Y-50673000D01*
X117983000Y-50653000D01*
X118237000Y-50653000D01*
X118237000Y-50673000D01*
X119284750Y-50673000D01*
X119443500Y-50514250D01*
X119443610Y-49975745D01*
X119416858Y-49911000D01*
X125095000Y-49911000D01*
X125095000Y-61849000D01*
G36*
X78105000Y-74803000D02*
X78041686Y-74803000D01*
X78041686Y-73192216D01*
X77877689Y-72795312D01*
X77574286Y-72491379D01*
X77177668Y-72326688D01*
X76748216Y-72326314D01*
X76351312Y-72490311D01*
X76047379Y-72793714D01*
X75882688Y-73190332D01*
X75882314Y-73619784D01*
X76046311Y-74016688D01*
X76349714Y-74320621D01*
X76746332Y-74485312D01*
X77175784Y-74485686D01*
X77572688Y-74321689D01*
X77876621Y-74018286D01*
X78041312Y-73621668D01*
X78041686Y-73192216D01*
X78041686Y-74803000D01*
X75819000Y-74803000D01*
X75819000Y-71321395D01*
X75236605Y-70739000D01*
X69269474Y-70739000D01*
X64389000Y-65608245D01*
X64389000Y-54356000D01*
X73914000Y-54356000D01*
X73914000Y-54419499D01*
X73750518Y-54419357D01*
X73447002Y-54544767D01*
X73214583Y-54776781D01*
X73088643Y-55080077D01*
X73088357Y-55408482D01*
X73152000Y-55562510D01*
X73152000Y-58674000D01*
X73152000Y-62865000D01*
X72707610Y-62865000D01*
X72707610Y-62292255D01*
X72707610Y-60643745D01*
X72611141Y-60410271D01*
X72453686Y-60252541D01*
X72453686Y-58714216D01*
X72453686Y-56174216D01*
X72289689Y-55777312D01*
X71986286Y-55473379D01*
X71589668Y-55308688D01*
X71160216Y-55308314D01*
X70763312Y-55472311D01*
X70459379Y-55775714D01*
X70294688Y-56172332D01*
X70294314Y-56601784D01*
X70458311Y-56998688D01*
X70761714Y-57302621D01*
X71158332Y-57467312D01*
X71587784Y-57467686D01*
X71984688Y-57303689D01*
X72288621Y-57000286D01*
X72453312Y-56603668D01*
X72453686Y-56174216D01*
X72453686Y-58714216D01*
X72289689Y-58317312D01*
X71986286Y-58013379D01*
X71589668Y-57848688D01*
X71160216Y-57848314D01*
X70763312Y-58012311D01*
X70459379Y-58315714D01*
X70294688Y-58712332D01*
X70294314Y-59141784D01*
X70458311Y-59538688D01*
X70761714Y-59842621D01*
X71158332Y-60007312D01*
X71587784Y-60007686D01*
X71984688Y-59843689D01*
X72288621Y-59540286D01*
X72453312Y-59143668D01*
X72453686Y-58714216D01*
X72453686Y-60252541D01*
X72432668Y-60231487D01*
X72199364Y-60134611D01*
X71946745Y-60134390D01*
X71659750Y-60134500D01*
X71501000Y-60293250D01*
X71501000Y-61341000D01*
X72548750Y-61341000D01*
X72707500Y-61182250D01*
X72707610Y-60643745D01*
X72707610Y-62292255D01*
X72707500Y-61753750D01*
X72548750Y-61595000D01*
X71501000Y-61595000D01*
X71501000Y-62642750D01*
X71659750Y-62801500D01*
X71946745Y-62801610D01*
X72199364Y-62801389D01*
X72432668Y-62704513D01*
X72611141Y-62525729D01*
X72707610Y-62292255D01*
X72707610Y-62865000D01*
X71247000Y-62865000D01*
X71247000Y-62642750D01*
X71247000Y-61595000D01*
X71247000Y-61341000D01*
X71247000Y-60293250D01*
X71088250Y-60134500D01*
X70801255Y-60134390D01*
X70548636Y-60134611D01*
X70315332Y-60231487D01*
X70136859Y-60410271D01*
X70040390Y-60643745D01*
X70040500Y-61182250D01*
X70199250Y-61341000D01*
X71247000Y-61341000D01*
X71247000Y-61595000D01*
X70199250Y-61595000D01*
X70040500Y-61753750D01*
X70040390Y-62292255D01*
X70136859Y-62525729D01*
X70315332Y-62704513D01*
X70548636Y-62801389D01*
X70801255Y-62801610D01*
X71088250Y-62801500D01*
X71247000Y-62642750D01*
X71247000Y-62865000D01*
X67437000Y-62865000D01*
X67437000Y-66471800D01*
X70049571Y-69215000D01*
X76018257Y-69215000D01*
X78105000Y-71424492D01*
X78105000Y-74803000D01*
X78105000Y-74803000D01*
G37*
X78105000Y-74803000D02*
X78041686Y-74803000D01*
X78041686Y-73192216D01*
X77877689Y-72795312D01*
X77574286Y-72491379D01*
X77177668Y-72326688D01*
X76748216Y-72326314D01*
X76351312Y-72490311D01*
X76047379Y-72793714D01*
X75882688Y-73190332D01*
X75882314Y-73619784D01*
X76046311Y-74016688D01*
X76349714Y-74320621D01*
X76746332Y-74485312D01*
X77175784Y-74485686D01*
X77572688Y-74321689D01*
X77876621Y-74018286D01*
X78041312Y-73621668D01*
X78041686Y-73192216D01*
X78041686Y-74803000D01*
X75819000Y-74803000D01*
X75819000Y-71321395D01*
X75236605Y-70739000D01*
X69269474Y-70739000D01*
X64389000Y-65608245D01*
X64389000Y-54356000D01*
X73914000Y-54356000D01*
X73914000Y-54419499D01*
X73750518Y-54419357D01*
X73447002Y-54544767D01*
X73214583Y-54776781D01*
X73088643Y-55080077D01*
X73088357Y-55408482D01*
X73152000Y-55562510D01*
X73152000Y-58674000D01*
X73152000Y-62865000D01*
X72707610Y-62865000D01*
X72707610Y-62292255D01*
X72707610Y-60643745D01*
X72611141Y-60410271D01*
X72453686Y-60252541D01*
X72453686Y-58714216D01*
X72453686Y-56174216D01*
X72289689Y-55777312D01*
X71986286Y-55473379D01*
X71589668Y-55308688D01*
X71160216Y-55308314D01*
X70763312Y-55472311D01*
X70459379Y-55775714D01*
X70294688Y-56172332D01*
X70294314Y-56601784D01*
X70458311Y-56998688D01*
X70761714Y-57302621D01*
X71158332Y-57467312D01*
X71587784Y-57467686D01*
X71984688Y-57303689D01*
X72288621Y-57000286D01*
X72453312Y-56603668D01*
X72453686Y-56174216D01*
X72453686Y-58714216D01*
X72289689Y-58317312D01*
X71986286Y-58013379D01*
X71589668Y-57848688D01*
X71160216Y-57848314D01*
X70763312Y-58012311D01*
X70459379Y-58315714D01*
X70294688Y-58712332D01*
X70294314Y-59141784D01*
X70458311Y-59538688D01*
X70761714Y-59842621D01*
X71158332Y-60007312D01*
X71587784Y-60007686D01*
X71984688Y-59843689D01*
X72288621Y-59540286D01*
X72453312Y-59143668D01*
X72453686Y-58714216D01*
X72453686Y-60252541D01*
X72432668Y-60231487D01*
X72199364Y-60134611D01*
X71946745Y-60134390D01*
X71659750Y-60134500D01*
X71501000Y-60293250D01*
X71501000Y-61341000D01*
X72548750Y-61341000D01*
X72707500Y-61182250D01*
X72707610Y-60643745D01*
X72707610Y-62292255D01*
X72707500Y-61753750D01*
X72548750Y-61595000D01*
X71501000Y-61595000D01*
X71501000Y-62642750D01*
X71659750Y-62801500D01*
X71946745Y-62801610D01*
X72199364Y-62801389D01*
X72432668Y-62704513D01*
X72611141Y-62525729D01*
X72707610Y-62292255D01*
X72707610Y-62865000D01*
X71247000Y-62865000D01*
X71247000Y-62642750D01*
X71247000Y-61595000D01*
X71247000Y-61341000D01*
X71247000Y-60293250D01*
X71088250Y-60134500D01*
X70801255Y-60134390D01*
X70548636Y-60134611D01*
X70315332Y-60231487D01*
X70136859Y-60410271D01*
X70040390Y-60643745D01*
X70040500Y-61182250D01*
X70199250Y-61341000D01*
X71247000Y-61341000D01*
X71247000Y-61595000D01*
X70199250Y-61595000D01*
X70040500Y-61753750D01*
X70040390Y-62292255D01*
X70136859Y-62525729D01*
X70315332Y-62704513D01*
X70548636Y-62801389D01*
X70801255Y-62801610D01*
X71088250Y-62801500D01*
X71247000Y-62642750D01*
X71247000Y-62865000D01*
X67437000Y-62865000D01*
X67437000Y-66471800D01*
X70049571Y-69215000D01*
X76018257Y-69215000D01*
X78105000Y-71424492D01*
X78105000Y-74803000D01*
G36*
X124841000Y-72758491D02*
X124829034Y-72818649D01*
X124802043Y-72859043D01*
X124761649Y-72886034D01*
X124701491Y-72898000D01*
X122983172Y-72898000D01*
X122983172Y-69529809D01*
X122983172Y-68590191D01*
X122898116Y-68397340D01*
X122898116Y-65560000D01*
X122804343Y-65088572D01*
X122537301Y-64688915D01*
X122137644Y-64421873D01*
X121666216Y-64328100D01*
X120141784Y-64328100D01*
X119670356Y-64421873D01*
X119443610Y-64573379D01*
X119443610Y-64324255D01*
X119443500Y-63912750D01*
X119284750Y-63754000D01*
X118364000Y-63754000D01*
X118364000Y-64674750D01*
X118522750Y-64833500D01*
X118682745Y-64833610D01*
X118935364Y-64833389D01*
X119168668Y-64736513D01*
X119347141Y-64557729D01*
X119443610Y-64324255D01*
X119443610Y-64573379D01*
X119270699Y-64688915D01*
X119003657Y-65088572D01*
X119001344Y-65100200D01*
X118821200Y-65100200D01*
X118777589Y-65108874D01*
X118751099Y-65082338D01*
X118335817Y-64909898D01*
X117886156Y-64909505D01*
X117856000Y-64921965D01*
X117856000Y-64674750D01*
X117856000Y-63754000D01*
X116935250Y-63754000D01*
X116776500Y-63912750D01*
X116776390Y-64324255D01*
X116872859Y-64557729D01*
X117051332Y-64736513D01*
X117284636Y-64833389D01*
X117537255Y-64833610D01*
X117697250Y-64833500D01*
X117856000Y-64674750D01*
X117856000Y-64921965D01*
X117470573Y-65081220D01*
X117152338Y-65398901D01*
X116979898Y-65814183D01*
X116979505Y-66263844D01*
X117151220Y-66679427D01*
X117468901Y-66997662D01*
X117884183Y-67170102D01*
X118333844Y-67170495D01*
X118476566Y-67111523D01*
X118037516Y-67449637D01*
X117886156Y-67449505D01*
X117470573Y-67621220D01*
X117152338Y-67938901D01*
X116979898Y-68354183D01*
X116979505Y-68803844D01*
X117151220Y-69219427D01*
X117468901Y-69537662D01*
X117884183Y-69710102D01*
X118333844Y-69710495D01*
X118749427Y-69538780D01*
X118887215Y-69401231D01*
X118824828Y-69529809D01*
X118982006Y-69886184D01*
X119388406Y-70276925D01*
X119913400Y-70482400D01*
X120650000Y-70482400D01*
X120650000Y-69314000D01*
X120630000Y-69314000D01*
X120630000Y-68806000D01*
X120650000Y-68806000D01*
X120650000Y-67698620D01*
X121239683Y-66943859D01*
X121418646Y-66908262D01*
X121592794Y-66791900D01*
X121666216Y-66791900D01*
X122137644Y-66698127D01*
X122537301Y-66431085D01*
X122804343Y-66031428D01*
X122898116Y-65560000D01*
X122898116Y-68397340D01*
X122825994Y-68233816D01*
X122419594Y-67843075D01*
X121894600Y-67637600D01*
X121158000Y-67637600D01*
X121158000Y-68806000D01*
X122878459Y-68806000D01*
X122983172Y-68590191D01*
X122983172Y-69529809D01*
X122878459Y-69314000D01*
X121158000Y-69314000D01*
X121158000Y-70482400D01*
X121894600Y-70482400D01*
X122419594Y-70276925D01*
X122825994Y-69886184D01*
X122983172Y-69529809D01*
X122983172Y-72898000D01*
X119468077Y-72898000D01*
X119468077Y-71184828D01*
X119389508Y-70660180D01*
X119339891Y-70540393D01*
X119119539Y-70469671D01*
X118760329Y-70828881D01*
X118760329Y-70110461D01*
X118689607Y-69890109D01*
X118174828Y-69761923D01*
X117650180Y-69840492D01*
X117530393Y-69890109D01*
X117459671Y-70110461D01*
X118110000Y-70760790D01*
X118760329Y-70110461D01*
X118760329Y-70828881D01*
X118469210Y-71120000D01*
X119119539Y-71770329D01*
X119339891Y-71699607D01*
X119468077Y-71184828D01*
X119468077Y-72898000D01*
X118760329Y-72898000D01*
X118760329Y-72129539D01*
X118110000Y-71479210D01*
X117750790Y-71838420D01*
X117750790Y-71120000D01*
X117100461Y-70469671D01*
X116880109Y-70540393D01*
X116751923Y-71055172D01*
X116830492Y-71579820D01*
X116880109Y-71699607D01*
X117100461Y-71770329D01*
X117750790Y-71120000D01*
X117750790Y-71838420D01*
X117459671Y-72129539D01*
X117530393Y-72349891D01*
X118045172Y-72478077D01*
X118569820Y-72399508D01*
X118689607Y-72349891D01*
X118760329Y-72129539D01*
X118760329Y-72898000D01*
X115455509Y-72898000D01*
X115395351Y-72886034D01*
X115354957Y-72859043D01*
X115327966Y-72818649D01*
X115316000Y-72758491D01*
X115316000Y-62623509D01*
X115327966Y-62563351D01*
X115354957Y-62522957D01*
X115395351Y-62495966D01*
X115455509Y-62484000D01*
X116855617Y-62484000D01*
X116776390Y-62675745D01*
X116776500Y-63087250D01*
X116935250Y-63246000D01*
X117856000Y-63246000D01*
X117856000Y-63226000D01*
X118364000Y-63226000D01*
X118364000Y-63246000D01*
X119284750Y-63246000D01*
X119443500Y-63087250D01*
X119443610Y-62675745D01*
X119364382Y-62484000D01*
X124701491Y-62484000D01*
X124761649Y-62495966D01*
X124802043Y-62522957D01*
X124829034Y-62563351D01*
X124841000Y-62623509D01*
X124841000Y-72758491D01*
X124841000Y-72758491D01*
G37*
X124841000Y-72758491D02*
X124829034Y-72818649D01*
X124802043Y-72859043D01*
X124761649Y-72886034D01*
X124701491Y-72898000D01*
X122983172Y-72898000D01*
X122983172Y-69529809D01*
X122983172Y-68590191D01*
X122898116Y-68397340D01*
X122898116Y-65560000D01*
X122804343Y-65088572D01*
X122537301Y-64688915D01*
X122137644Y-64421873D01*
X121666216Y-64328100D01*
X120141784Y-64328100D01*
X119670356Y-64421873D01*
X119443610Y-64573379D01*
X119443610Y-64324255D01*
X119443500Y-63912750D01*
X119284750Y-63754000D01*
X118364000Y-63754000D01*
X118364000Y-64674750D01*
X118522750Y-64833500D01*
X118682745Y-64833610D01*
X118935364Y-64833389D01*
X119168668Y-64736513D01*
X119347141Y-64557729D01*
X119443610Y-64324255D01*
X119443610Y-64573379D01*
X119270699Y-64688915D01*
X119003657Y-65088572D01*
X119001344Y-65100200D01*
X118821200Y-65100200D01*
X118777589Y-65108874D01*
X118751099Y-65082338D01*
X118335817Y-64909898D01*
X117886156Y-64909505D01*
X117856000Y-64921965D01*
X117856000Y-64674750D01*
X117856000Y-63754000D01*
X116935250Y-63754000D01*
X116776500Y-63912750D01*
X116776390Y-64324255D01*
X116872859Y-64557729D01*
X117051332Y-64736513D01*
X117284636Y-64833389D01*
X117537255Y-64833610D01*
X117697250Y-64833500D01*
X117856000Y-64674750D01*
X117856000Y-64921965D01*
X117470573Y-65081220D01*
X117152338Y-65398901D01*
X116979898Y-65814183D01*
X116979505Y-66263844D01*
X117151220Y-66679427D01*
X117468901Y-66997662D01*
X117884183Y-67170102D01*
X118333844Y-67170495D01*
X118476566Y-67111523D01*
X118037516Y-67449637D01*
X117886156Y-67449505D01*
X117470573Y-67621220D01*
X117152338Y-67938901D01*
X116979898Y-68354183D01*
X116979505Y-68803844D01*
X117151220Y-69219427D01*
X117468901Y-69537662D01*
X117884183Y-69710102D01*
X118333844Y-69710495D01*
X118749427Y-69538780D01*
X118887215Y-69401231D01*
X118824828Y-69529809D01*
X118982006Y-69886184D01*
X119388406Y-70276925D01*
X119913400Y-70482400D01*
X120650000Y-70482400D01*
X120650000Y-69314000D01*
X120630000Y-69314000D01*
X120630000Y-68806000D01*
X120650000Y-68806000D01*
X120650000Y-67698620D01*
X121239683Y-66943859D01*
X121418646Y-66908262D01*
X121592794Y-66791900D01*
X121666216Y-66791900D01*
X122137644Y-66698127D01*
X122537301Y-66431085D01*
X122804343Y-66031428D01*
X122898116Y-65560000D01*
X122898116Y-68397340D01*
X122825994Y-68233816D01*
X122419594Y-67843075D01*
X121894600Y-67637600D01*
X121158000Y-67637600D01*
X121158000Y-68806000D01*
X122878459Y-68806000D01*
X122983172Y-68590191D01*
X122983172Y-69529809D01*
X122878459Y-69314000D01*
X121158000Y-69314000D01*
X121158000Y-70482400D01*
X121894600Y-70482400D01*
X122419594Y-70276925D01*
X122825994Y-69886184D01*
X122983172Y-69529809D01*
X122983172Y-72898000D01*
X119468077Y-72898000D01*
X119468077Y-71184828D01*
X119389508Y-70660180D01*
X119339891Y-70540393D01*
X119119539Y-70469671D01*
X118760329Y-70828881D01*
X118760329Y-70110461D01*
X118689607Y-69890109D01*
X118174828Y-69761923D01*
X117650180Y-69840492D01*
X117530393Y-69890109D01*
X117459671Y-70110461D01*
X118110000Y-70760790D01*
X118760329Y-70110461D01*
X118760329Y-70828881D01*
X118469210Y-71120000D01*
X119119539Y-71770329D01*
X119339891Y-71699607D01*
X119468077Y-71184828D01*
X119468077Y-72898000D01*
X118760329Y-72898000D01*
X118760329Y-72129539D01*
X118110000Y-71479210D01*
X117750790Y-71838420D01*
X117750790Y-71120000D01*
X117100461Y-70469671D01*
X116880109Y-70540393D01*
X116751923Y-71055172D01*
X116830492Y-71579820D01*
X116880109Y-71699607D01*
X117100461Y-71770329D01*
X117750790Y-71120000D01*
X117750790Y-71838420D01*
X117459671Y-72129539D01*
X117530393Y-72349891D01*
X118045172Y-72478077D01*
X118569820Y-72399508D01*
X118689607Y-72349891D01*
X118760329Y-72129539D01*
X118760329Y-72898000D01*
X115455509Y-72898000D01*
X115395351Y-72886034D01*
X115354957Y-72859043D01*
X115327966Y-72818649D01*
X115316000Y-72758491D01*
X115316000Y-62623509D01*
X115327966Y-62563351D01*
X115354957Y-62522957D01*
X115395351Y-62495966D01*
X115455509Y-62484000D01*
X116855617Y-62484000D01*
X116776390Y-62675745D01*
X116776500Y-63087250D01*
X116935250Y-63246000D01*
X117856000Y-63246000D01*
X117856000Y-63226000D01*
X118364000Y-63226000D01*
X118364000Y-63246000D01*
X119284750Y-63246000D01*
X119443500Y-63087250D01*
X119443610Y-62675745D01*
X119364382Y-62484000D01*
X124701491Y-62484000D01*
X124761649Y-62495966D01*
X124802043Y-62522957D01*
X124829034Y-62563351D01*
X124841000Y-62623509D01*
X124841000Y-72758491D01*
G36*
X84963000Y-35687000D02*
X78486000Y-35687000D01*
X78486000Y-33655000D01*
X84963000Y-33655000D01*
X84963000Y-35687000D01*
X84963000Y-35687000D01*
G37*
X84963000Y-35687000D02*
X78486000Y-35687000D01*
X78486000Y-33655000D01*
X84963000Y-33655000D01*
X84963000Y-35687000D01*
G36*
X84963000Y-37984216D02*
X84271394Y-38269982D01*
X83678341Y-38862000D01*
X78486000Y-38862000D01*
X78486000Y-36322000D01*
X84963000Y-36322000D01*
X84963000Y-37984216D01*
X84963000Y-37984216D01*
G37*
X84963000Y-37984216D02*
X84271394Y-38269982D01*
X83678341Y-38862000D01*
X78486000Y-38862000D01*
X78486000Y-36322000D01*
X84963000Y-36322000D01*
X84963000Y-37984216D01*
M02*
