G04 #@! TF.FileFunction,Paste,Top*
%FSLAX46Y46*%
G04 Gerber Fmt 4.6, Leading zero omitted, Abs format (unit mm)*
G04 Created by KiCad (PCBNEW 4.0.5) date 05/03/17 10:24:09*
%MOMM*%
%LPD*%
G01*
G04 APERTURE LIST*
%ADD10C,0.150000*%
%ADD11C,0.254000*%
%ADD12C,0.300000*%
%ADD13O,1.651000X0.635000*%
%ADD14R,0.635000X1.270000*%
%ADD15R,1.143000X0.635000*%
%ADD16R,5.613400X2.311400*%
%ADD17R,3.599200X1.600200*%
%ADD18R,1.000800X0.899200*%
%ADD19R,1.597700X0.998200*%
%ADD20R,6.197600X5.397500*%
%ADD21R,1.300480X1.498600*%
%ADD22R,0.998200X1.597700*%
%ADD23R,5.397500X6.197600*%
%ADD24R,1.803400X1.600200*%
G04 APERTURE END LIST*
D10*
D11*
X62484000Y-82931000D02*
X62484000Y-82296000D01*
X62230000Y-83185000D02*
X61595000Y-83185000D01*
X62484000Y-83439000D02*
X62484000Y-84074000D01*
X62738000Y-83185000D02*
X63373000Y-83185000D01*
X127000000Y-83439000D02*
X127000000Y-84074000D01*
X126746000Y-83185000D02*
X126111000Y-83185000D01*
X127000000Y-82931000D02*
X127000000Y-82296000D01*
X127254000Y-83185000D02*
X127889000Y-83185000D01*
X127000000Y-32004000D02*
X127000000Y-32639000D01*
X126746000Y-31750000D02*
X126111000Y-31750000D01*
X127000000Y-31496000D02*
X127000000Y-30861000D01*
X127254000Y-31750000D02*
X127889000Y-31750000D01*
D12*
X88769858Y-94507857D02*
X88269858Y-94507857D01*
X88269858Y-95293571D02*
X88269858Y-93793571D01*
X88984144Y-93793571D01*
X90412715Y-95293571D02*
X89912715Y-94579286D01*
X89555572Y-95293571D02*
X89555572Y-93793571D01*
X90127000Y-93793571D01*
X90269858Y-93865000D01*
X90341286Y-93936429D01*
X90412715Y-94079286D01*
X90412715Y-94293571D01*
X90341286Y-94436429D01*
X90269858Y-94507857D01*
X90127000Y-94579286D01*
X89555572Y-94579286D01*
X91341286Y-93793571D02*
X91627000Y-93793571D01*
X91769858Y-93865000D01*
X91912715Y-94007857D01*
X91984143Y-94293571D01*
X91984143Y-94793571D01*
X91912715Y-95079286D01*
X91769858Y-95222143D01*
X91627000Y-95293571D01*
X91341286Y-95293571D01*
X91198429Y-95222143D01*
X91055572Y-95079286D01*
X90984143Y-94793571D01*
X90984143Y-94293571D01*
X91055572Y-94007857D01*
X91198429Y-93865000D01*
X91341286Y-93793571D01*
X92627001Y-95293571D02*
X92627001Y-93793571D01*
X93484144Y-95293571D01*
X93484144Y-93793571D01*
X93984144Y-93793571D02*
X94841287Y-93793571D01*
X94412716Y-95293571D02*
X94412716Y-93793571D01*
X96484144Y-95293571D02*
X96484144Y-93793571D01*
X97055572Y-93793571D01*
X97198430Y-93865000D01*
X97269858Y-93936429D01*
X97341287Y-94079286D01*
X97341287Y-94293571D01*
X97269858Y-94436429D01*
X97198430Y-94507857D01*
X97055572Y-94579286D01*
X96484144Y-94579286D01*
X97912715Y-94865000D02*
X98627001Y-94865000D01*
X97769858Y-95293571D02*
X98269858Y-93793571D01*
X98769858Y-95293571D01*
X99198429Y-95222143D02*
X99412715Y-95293571D01*
X99769858Y-95293571D01*
X99912715Y-95222143D01*
X99984144Y-95150714D01*
X100055572Y-95007857D01*
X100055572Y-94865000D01*
X99984144Y-94722143D01*
X99912715Y-94650714D01*
X99769858Y-94579286D01*
X99484144Y-94507857D01*
X99341286Y-94436429D01*
X99269858Y-94365000D01*
X99198429Y-94222143D01*
X99198429Y-94079286D01*
X99269858Y-93936429D01*
X99341286Y-93865000D01*
X99484144Y-93793571D01*
X99841286Y-93793571D01*
X100055572Y-93865000D01*
X100484143Y-93793571D02*
X101341286Y-93793571D01*
X100912715Y-95293571D02*
X100912715Y-93793571D01*
X101841286Y-94507857D02*
X102341286Y-94507857D01*
X102555572Y-95293571D02*
X101841286Y-95293571D01*
X101841286Y-93793571D01*
X102555572Y-93793571D01*
D13*
X96012000Y-66167000D03*
X96012000Y-67437000D03*
X96012000Y-68707000D03*
X96012000Y-69977000D03*
X101600000Y-69977000D03*
X101600000Y-68707000D03*
X101600000Y-67437000D03*
X101600000Y-66167000D03*
X96012000Y-73787000D03*
X96012000Y-75057000D03*
X96012000Y-76327000D03*
X96012000Y-77597000D03*
X101600000Y-77597000D03*
X101600000Y-76327000D03*
X101600000Y-75057000D03*
X101600000Y-73787000D03*
D14*
X85598000Y-71628000D03*
X86868000Y-71628000D03*
X88138000Y-71628000D03*
X89408000Y-71628000D03*
X90678000Y-71628000D03*
X91948000Y-71628000D03*
X93218000Y-71628000D03*
X93218000Y-66040000D03*
X91948000Y-66040000D03*
X90678000Y-66040000D03*
X89408000Y-66040000D03*
X88138000Y-66040000D03*
X86868000Y-66040000D03*
X85598000Y-66040000D03*
D15*
X91948000Y-64135000D03*
X91948000Y-62611000D03*
X77597000Y-59309000D03*
X77597000Y-57785000D03*
D16*
X89992200Y-57185560D03*
X89992200Y-52034440D03*
D17*
X105961200Y-61468000D03*
X111462800Y-61468000D03*
X83903800Y-52324000D03*
X78402200Y-52324000D03*
X69512200Y-49022000D03*
X75013800Y-49022000D03*
D18*
X85598000Y-64124800D03*
X85598000Y-62621200D03*
X65405000Y-47762200D03*
X65405000Y-49265800D03*
X73914000Y-57901800D03*
X73914000Y-56398200D03*
X111633000Y-35803800D03*
X111633000Y-34300200D03*
X71120000Y-71744800D03*
X71120000Y-70241200D03*
X111633000Y-41158200D03*
X111633000Y-42661800D03*
X67818000Y-44206200D03*
X67818000Y-45709800D03*
D19*
X113972300Y-35720000D03*
X113972300Y-40276800D03*
D20*
X121269800Y-37998400D03*
D15*
X111633000Y-37592000D03*
X111633000Y-39116000D03*
D21*
X75501500Y-62738000D03*
X77406500Y-62738000D03*
X110426500Y-71882000D03*
X112331500Y-71882000D03*
X98488500Y-71882000D03*
X100393500Y-71882000D03*
X98361500Y-64262000D03*
X100266500Y-64262000D03*
D15*
X85852000Y-74549000D03*
X85852000Y-76073000D03*
X115189000Y-61976000D03*
X115189000Y-60452000D03*
X93091000Y-74549000D03*
X93091000Y-76073000D03*
X115189000Y-55626000D03*
X115189000Y-54102000D03*
X90932000Y-74549000D03*
X90932000Y-76073000D03*
X115189000Y-58801000D03*
X115189000Y-57277000D03*
X85852000Y-79502000D03*
X85852000Y-77978000D03*
X80772000Y-79502000D03*
X80772000Y-77978000D03*
X83312000Y-79502000D03*
X83312000Y-77978000D03*
D18*
X88138000Y-64124800D03*
X88138000Y-62621200D03*
X115189000Y-51678800D03*
X115189000Y-50175200D03*
X92964000Y-45709800D03*
X92964000Y-44206200D03*
X80264000Y-62727800D03*
X80264000Y-61224200D03*
D15*
X88011000Y-74549000D03*
X88011000Y-76073000D03*
D22*
X65412600Y-44168100D03*
X69969400Y-44168100D03*
D23*
X67691000Y-36870600D03*
D13*
X106680000Y-66167000D03*
X106680000Y-67437000D03*
X106680000Y-68707000D03*
X106680000Y-69977000D03*
X112268000Y-69977000D03*
X112268000Y-68707000D03*
X112268000Y-67437000D03*
X112268000Y-66167000D03*
X106680000Y-73787000D03*
X106680000Y-75057000D03*
X106680000Y-76327000D03*
X106680000Y-77597000D03*
X112268000Y-77597000D03*
X112268000Y-76327000D03*
X112268000Y-75057000D03*
X112268000Y-73787000D03*
D18*
X115189000Y-44693800D03*
X115189000Y-43190200D03*
X88265000Y-80634800D03*
X88265000Y-79131200D03*
D15*
X80264000Y-57785000D03*
X80264000Y-59309000D03*
X78359000Y-77216000D03*
X78359000Y-78740000D03*
D24*
X79756000Y-34607500D03*
X79756000Y-37401500D03*
M02*
