M48
;DRILL file {KiCad 4.0.5} date 05/03/17 10:24:15
;FORMAT={-:-/ absolute / inch / decimal}
FMAT,2
INCH,TZ
T1C0.025
T2C0.030
T3C0.032
T4C0.047
T5C0.059
T6C0.120
T7C0.140
%
G90
G05
M72
T1
X2.91Y-2.175
X2.985Y-2.195
X2.985Y-2.27
X2.998Y-2.123
X3.055Y-2.23
X3.2025Y-1.4425
X3.2025Y-1.4775
X3.275Y-2.135
X3.275Y-2.235
X3.305Y-2.78
X3.305Y-2.93
X3.375Y-2.745
X3.38Y-2.899
X3.45Y-2.685
X3.515Y-1.39
X3.52Y-2.73
X3.52Y-2.9
X3.52Y-3.175
X3.545Y-1.44
X3.59Y-2.7
X3.62Y-2.885
X3.655Y-1.39
T2
X2.575Y-1.99
X2.61Y-1.82
X2.67Y-1.85
X2.815Y-1.385
X2.815Y-1.45
X2.815Y-1.515
X2.815Y-1.57
X2.835Y-1.765
X2.85Y-2.825
X2.9Y-1.855
X2.95Y-1.83
X3.01Y-1.845
X3.064Y-1.72
X3.09Y-1.955
X3.105Y-2.41
X3.105Y-2.47
X3.145Y-1.98
X3.171Y-1.844
X3.19Y-1.98
X3.205Y-1.3425
X3.205Y-1.39
X3.236Y-1.844
X3.2506Y-1.6057
X3.3243Y-2.4657
X3.391Y-1.971
X3.44Y-1.7075
X3.44Y-1.96
X3.51Y-1.49
X3.5125Y-1.57
X3.5125Y-1.625
X3.52Y-2.465
X3.525Y-3.115
X3.62Y-2.42
X3.67Y-1.69
X3.715Y-2.82
X3.72Y-2.705
X3.725Y-3.005
X3.81Y-2.53
X3.876Y-2.77
X4.13Y-2.57
X4.13Y-2.614
X4.13Y-2.692
X4.13Y-2.734
X4.13Y-2.808
X4.13Y-2.87
X4.13Y-2.913
X4.13Y-2.994
X4.13Y-3.035
X4.17Y-2.808
X4.23Y-2.505
X4.275Y-2.505
X4.29Y-2.809
X4.29Y-2.851
X4.32Y-2.505
X4.335Y-2.345
X4.385Y-2.315
X4.385Y-2.525
X4.395Y-1.74
X4.43Y-2.525
X4.435Y-2.345
X4.445Y-1.34
X4.48Y-2.81
X4.48Y-2.852
X4.485Y-2.525
X4.535Y-1.65
X4.54Y-1.9
X4.555Y-2.485
X4.57Y-2.815
X4.57Y-2.855
X4.65Y-1.34
X4.705Y-1.635
X4.71Y-1.34
X4.715Y-2.485
X4.715Y-2.65
X4.725Y-2.815
X4.765Y-2.815
X4.77Y-1.34
X4.775Y-1.635
X4.83Y-1.34
X4.845Y-1.635
X4.89Y-1.34
T3
X2.81Y-2.22
X2.81Y-2.32
X2.81Y-2.42
X2.905Y-1.3575
X2.905Y-1.5175
X2.93Y-2.59
X2.93Y-2.89
X2.98Y-3.04
X2.98Y-3.14
X3.005Y-1.3575
X3.005Y-1.5175
X3.03Y-2.59
X3.03Y-2.89
X3.13Y-2.59
X3.13Y-2.89
X3.23Y-2.59
X3.23Y-2.89
X3.61Y-3.1
X3.71Y-3.1
X4.65Y-1.7
X4.65Y-1.8
X4.65Y-1.9
X4.65Y-2.
X4.65Y-2.1
X4.65Y-2.2
X4.65Y-2.3
X4.65Y-2.4
X4.65Y-2.5
X4.65Y-2.6
X4.65Y-2.7
X4.65Y-2.8
T4
X4.785Y-2.5811
X4.785Y-2.7189
T5
X3.795Y-1.467
X3.795Y-1.717
X3.795Y-1.967
X4.245Y-1.467
X4.245Y-1.717
X4.245Y-1.967
T6
X3.19Y-1.72
X3.38Y-1.6
T7
X3.38Y-1.84
T0
M30
