M48
INCH,TZ
T1C0.025
T2C0.030
T3C0.032
T4C0.047
T5C0.059
T6C0.120
T7C0.140
%
G90
G05
T1
X29100Y-21750
X29850Y-21950
X29850Y-22700
X29980Y-21230
X30550Y-22300
X32025Y-14425
X32025Y-14775
X32750Y-21350
X32750Y-22350
X33050Y-27800
X33050Y-29300
X33750Y-27450
X33800Y-28990
X34500Y-26850
X35150Y-13900
X35200Y-27300
X35200Y-29000
X35200Y-31750
X35450Y-14400
X35900Y-27000
X36200Y-28850
X36550Y-13900
T2
X25750Y-19900
X26100Y-18200
X26700Y-18500
X28150Y-13850
X28150Y-14500
X28150Y-15150
X28150Y-15700
X28350Y-17650
X28500Y-28250
X29000Y-18550
X29500Y-18300
X30100Y-18450
X30640Y-17200
X30900Y-19550
X31050Y-24100
X31050Y-24700
X31450Y-19800
X31710Y-18440
X31900Y-19800
X32050Y-13425
X32050Y-13900
X32360Y-18440
X32506Y-16057
X33243Y-24657
X33910Y-19710
X34400Y-17075
X34400Y-19600
X35100Y-14900
X35125Y-15700
X35125Y-16250
X35200Y-24650
X35250Y-31150
X36200Y-24200
X36700Y-16900
X37150Y-28200
X37200Y-27050
X37250Y-30050
X38100Y-25300
X38760Y-27700
X41300Y-25700
X41300Y-26140
X41300Y-26920
X41300Y-27340
X41300Y-28080
X41300Y-28700
X41300Y-29130
X41300Y-29940
X41300Y-30350
X41700Y-28080
X42300Y-25050
X42750Y-25050
X42900Y-28090
X42900Y-28510
X43200Y-25050
X43350Y-23450
X43850Y-23150
X43850Y-25250
X43950Y-17400
X44300Y-25250
X44350Y-23450
X44450Y-13400
X44800Y-28100
X44800Y-28520
X44850Y-25250
X45350Y-16500
X45400Y-19000
X45550Y-24850
X45700Y-28150
X45700Y-28550
X46500Y-13400
X47050Y-16350
X47100Y-13400
X47150Y-24850
X47150Y-26500
X47250Y-28150
X47650Y-28150
X47700Y-13400
X47750Y-16350
X48300Y-13400
X48450Y-16350
X48900Y-13400
T3
X28100Y-22200
X28100Y-23200
X28100Y-24200
X29050Y-13575
X29050Y-15175
X29300Y-25900
X29300Y-28900
X29800Y-30400
X29800Y-31400
X30050Y-13575
X30050Y-15175
X30300Y-25900
X30300Y-28900
X31300Y-25900
X31300Y-28900
X32300Y-25900
X32300Y-28900
X36100Y-31000
X37100Y-31000
X46500Y-17000
X46500Y-18000
X46500Y-19000
X46500Y-20000
X46500Y-21000
X46500Y-22000
X46500Y-23000
X46500Y-24000
X46500Y-25000
X46500Y-26000
X46500Y-27000
X46500Y-28000
T4
X47850Y-25811
X47850Y-27189
T5
X37950Y-14670
X37950Y-17170
X37950Y-19670
X42450Y-14670
X42450Y-17170
X42450Y-19670
T6
X31900Y-17200
X33800Y-16000
T7
X33800Y-18400
T0
M30
