G04 #@! TF.FileFunction,Soldermask,Top*
%FSLAX46Y46*%
G04 Gerber Fmt 4.6, Leading zero omitted, Abs format (unit mm)*
G04 Created by KiCad (PCBNEW 4.0.7) date 08/01/18 14:34:15*
%MOMM*%
%LPD*%
G01*
G04 APERTURE LIST*
%ADD10C,0.150000*%
%ADD11R,1.600000X1.600000*%
%ADD12O,1.600000X1.600000*%
%ADD13R,1.143000X0.508000*%
%ADD14R,3.600000X1.800000*%
%ADD15O,3.600000X1.800000*%
%ADD16R,0.508000X1.143000*%
%ADD17R,3.500000X1.600000*%
%ADD18R,0.800000X0.750000*%
%ADD19R,1.600000X3.500000*%
%ADD20R,0.750000X0.800000*%
%ADD21R,1.800000X1.800000*%
%ADD22C,1.800000*%
%ADD23C,2.500000*%
%ADD24C,2.000000*%
%ADD25C,3.100000*%
%ADD26R,3.500000X3.500000*%
%ADD27R,1.850000X1.850000*%
%ADD28C,1.850000*%
%ADD29R,0.500000X0.900000*%
%ADD30R,1.200000X2.200000*%
%ADD31R,5.800000X6.400000*%
%ADD32C,7.000000*%
G04 APERTURE END LIST*
D10*
D11*
X66548000Y-83820000D03*
D12*
X74168000Y-76200000D03*
X69088000Y-83820000D03*
X71628000Y-76200000D03*
X71628000Y-83820000D03*
X69088000Y-76200000D03*
X74168000Y-83820000D03*
X66548000Y-76200000D03*
D13*
X71374000Y-89154000D03*
X71374000Y-90424000D03*
X71374000Y-91694000D03*
X71374000Y-92964000D03*
X71374000Y-94234000D03*
X71374000Y-95504000D03*
X71374000Y-96774000D03*
X77724000Y-96774000D03*
X77724000Y-95504000D03*
X77724000Y-92964000D03*
X77724000Y-91694000D03*
X77724000Y-90424000D03*
X77724000Y-89154000D03*
X77724000Y-94234000D03*
D14*
X104140000Y-86360000D03*
D15*
X104140000Y-82860000D03*
D16*
X80645000Y-88265000D03*
X81915000Y-88265000D03*
X83185000Y-88265000D03*
X84455000Y-88265000D03*
X84455000Y-94615000D03*
X83185000Y-94615000D03*
X81915000Y-94615000D03*
X80645000Y-94615000D03*
X93345000Y-88265000D03*
X94615000Y-88265000D03*
X95885000Y-88265000D03*
X97155000Y-88265000D03*
X97155000Y-94615000D03*
X95885000Y-94615000D03*
X94615000Y-94615000D03*
X93345000Y-94615000D03*
D17*
X72992000Y-70104000D03*
X78392000Y-70104000D03*
D18*
X67576000Y-68072000D03*
X69076000Y-68072000D03*
X83324000Y-86360000D03*
X84824000Y-86360000D03*
D19*
X54610000Y-63340000D03*
X54610000Y-68740000D03*
D18*
X55892000Y-59944000D03*
X57392000Y-59944000D03*
D19*
X88138000Y-82456000D03*
X88138000Y-77056000D03*
D18*
X68060000Y-74168000D03*
X66560000Y-74168000D03*
X86372000Y-86360000D03*
X87872000Y-86360000D03*
X94500000Y-86614000D03*
X96000000Y-86614000D03*
D20*
X61468000Y-84316000D03*
X61468000Y-82816000D03*
X80264000Y-66179000D03*
X80264000Y-67679000D03*
D18*
X79236000Y-86614000D03*
X77736000Y-86614000D03*
D21*
X63246000Y-57150000D03*
D22*
X60706000Y-57150000D03*
D23*
X83448000Y-55050000D03*
X83448000Y-61400000D03*
X83448000Y-67750000D03*
X94878000Y-55050000D03*
X94878000Y-61400000D03*
X94878000Y-67750000D03*
D24*
X83448000Y-58250000D03*
X94878000Y-58250000D03*
D25*
X85578000Y-64600000D03*
D26*
X72898000Y-64643000D03*
X72898000Y-58643000D03*
X68198000Y-61643000D03*
D27*
X58420000Y-85090000D03*
D28*
X58420000Y-82590000D03*
X58420000Y-80090000D03*
D29*
X56146000Y-56388000D03*
X57646000Y-56388000D03*
D30*
X64510000Y-63110000D03*
X59950000Y-63110000D03*
D31*
X62230000Y-69410000D03*
D16*
X86995000Y-88265000D03*
X88265000Y-88265000D03*
X89535000Y-88265000D03*
X90805000Y-88265000D03*
X90805000Y-94615000D03*
X89535000Y-94615000D03*
X88265000Y-94615000D03*
X86995000Y-94615000D03*
D32*
X55118000Y-96012000D03*
X108458000Y-96012000D03*
D20*
X61722000Y-76466000D03*
X61722000Y-77966000D03*
D29*
X64504000Y-86614000D03*
X63004000Y-86614000D03*
D18*
X70092000Y-87122000D03*
X68592000Y-87122000D03*
D13*
X61976000Y-89154000D03*
X61976000Y-90424000D03*
X61976000Y-91694000D03*
X61976000Y-92964000D03*
X61976000Y-94234000D03*
X61976000Y-95504000D03*
X61976000Y-96774000D03*
X68326000Y-96774000D03*
X68326000Y-95504000D03*
X68326000Y-92964000D03*
X68326000Y-91694000D03*
X68326000Y-90424000D03*
X68326000Y-89154000D03*
X68326000Y-94234000D03*
M02*
