G04 #@! TF.FileFunction,Legend,Top*
%FSLAX46Y46*%
G04 Gerber Fmt 4.6, Leading zero omitted, Abs format (unit mm)*
G04 Created by KiCad (PCBNEW 4.0.7) date 08/01/18 14:34:15*
%MOMM*%
%LPD*%
G01*
G04 APERTURE LIST*
%ADD10C,0.150000*%
%ADD11C,0.254000*%
%ADD12C,0.300000*%
%ADD13C,0.120000*%
%ADD14C,0.010000*%
%ADD15C,0.050000*%
%ADD16R,1.600000X1.600000*%
%ADD17O,1.600000X1.600000*%
%ADD18R,1.143000X0.508000*%
%ADD19R,3.600000X1.800000*%
%ADD20O,3.600000X1.800000*%
%ADD21R,0.508000X1.143000*%
%ADD22R,3.500000X1.600000*%
%ADD23R,0.800000X0.750000*%
%ADD24R,1.600000X3.500000*%
%ADD25R,0.750000X0.800000*%
%ADD26R,1.800000X1.800000*%
%ADD27C,1.800000*%
%ADD28C,2.500000*%
%ADD29C,2.000000*%
%ADD30C,3.100000*%
%ADD31R,3.500000X3.500000*%
%ADD32R,1.850000X1.850000*%
%ADD33C,1.850000*%
%ADD34R,0.500000X0.900000*%
%ADD35R,1.200000X2.200000*%
%ADD36R,5.800000X6.400000*%
%ADD37C,7.000000*%
G04 APERTURE END LIST*
D10*
D11*
X101019429Y-86868000D02*
X99495429Y-86868000D01*
X100584000Y-86360000D01*
X99495429Y-85852000D01*
X101019429Y-85852000D01*
X101019429Y-84908572D02*
X100946857Y-85053714D01*
X100874286Y-85126286D01*
X100729143Y-85198857D01*
X100293714Y-85198857D01*
X100148571Y-85126286D01*
X100076000Y-85053714D01*
X100003429Y-84908572D01*
X100003429Y-84690857D01*
X100076000Y-84545714D01*
X100148571Y-84473143D01*
X100293714Y-84400572D01*
X100729143Y-84400572D01*
X100874286Y-84473143D01*
X100946857Y-84545714D01*
X101019429Y-84690857D01*
X101019429Y-84908572D01*
X100003429Y-83965143D02*
X100003429Y-83384572D01*
X99495429Y-83747429D02*
X100801714Y-83747429D01*
X100946857Y-83674857D01*
X101019429Y-83529715D01*
X101019429Y-83384572D01*
X101019429Y-82658858D02*
X100946857Y-82804000D01*
X100874286Y-82876572D01*
X100729143Y-82949143D01*
X100293714Y-82949143D01*
X100148571Y-82876572D01*
X100076000Y-82804000D01*
X100003429Y-82658858D01*
X100003429Y-82441143D01*
X100076000Y-82296000D01*
X100148571Y-82223429D01*
X100293714Y-82150858D01*
X100729143Y-82150858D01*
X100874286Y-82223429D01*
X100946857Y-82296000D01*
X101019429Y-82441143D01*
X101019429Y-82658858D01*
X101019429Y-81497715D02*
X100003429Y-81497715D01*
X100293714Y-81497715D02*
X100148571Y-81425143D01*
X100076000Y-81352572D01*
X100003429Y-81207429D01*
X100003429Y-81062286D01*
X54029429Y-89516857D02*
X54247143Y-89589429D01*
X54610000Y-89589429D01*
X54755143Y-89516857D01*
X54827714Y-89444286D01*
X54900286Y-89299143D01*
X54900286Y-89154000D01*
X54827714Y-89008857D01*
X54755143Y-88936286D01*
X54610000Y-88863714D01*
X54319714Y-88791143D01*
X54174572Y-88718571D01*
X54102000Y-88646000D01*
X54029429Y-88500857D01*
X54029429Y-88355714D01*
X54102000Y-88210571D01*
X54174572Y-88138000D01*
X54319714Y-88065429D01*
X54682572Y-88065429D01*
X54900286Y-88138000D01*
X55553429Y-88573429D02*
X55553429Y-90097429D01*
X55553429Y-88646000D02*
X55698572Y-88573429D01*
X55988858Y-88573429D01*
X56134001Y-88646000D01*
X56206572Y-88718571D01*
X56279143Y-88863714D01*
X56279143Y-89299143D01*
X56206572Y-89444286D01*
X56134001Y-89516857D01*
X55988858Y-89589429D01*
X55698572Y-89589429D01*
X55553429Y-89516857D01*
X57512858Y-89516857D02*
X57367715Y-89589429D01*
X57077429Y-89589429D01*
X56932286Y-89516857D01*
X56859715Y-89371714D01*
X56859715Y-88791143D01*
X56932286Y-88646000D01*
X57077429Y-88573429D01*
X57367715Y-88573429D01*
X57512858Y-88646000D01*
X57585429Y-88791143D01*
X57585429Y-88936286D01*
X56859715Y-89081429D01*
X58819144Y-89516857D02*
X58674001Y-89589429D01*
X58383715Y-89589429D01*
X58238572Y-89516857D01*
X58166001Y-89371714D01*
X58166001Y-88791143D01*
X58238572Y-88646000D01*
X58383715Y-88573429D01*
X58674001Y-88573429D01*
X58819144Y-88646000D01*
X58891715Y-88791143D01*
X58891715Y-88936286D01*
X58166001Y-89081429D01*
X60198001Y-89589429D02*
X60198001Y-88065429D01*
X60198001Y-89516857D02*
X60052858Y-89589429D01*
X59762572Y-89589429D01*
X59617430Y-89516857D01*
X59544858Y-89444286D01*
X59472287Y-89299143D01*
X59472287Y-88863714D01*
X59544858Y-88718571D01*
X59617430Y-88646000D01*
X59762572Y-88573429D01*
X60052858Y-88573429D01*
X60198001Y-88646000D01*
X108603143Y-76980143D02*
X108603143Y-76472143D01*
X109401429Y-76254429D02*
X109401429Y-76980143D01*
X107877429Y-76980143D01*
X107877429Y-76254429D01*
X109401429Y-75383572D02*
X109328857Y-75528714D01*
X109183714Y-75601286D01*
X107877429Y-75601286D01*
X109328857Y-74222428D02*
X109401429Y-74367571D01*
X109401429Y-74657857D01*
X109328857Y-74803000D01*
X109183714Y-74875571D01*
X108603143Y-74875571D01*
X108458000Y-74803000D01*
X108385429Y-74657857D01*
X108385429Y-74367571D01*
X108458000Y-74222428D01*
X108603143Y-74149857D01*
X108748286Y-74149857D01*
X108893429Y-74875571D01*
X109328857Y-72843571D02*
X109401429Y-72988714D01*
X109401429Y-73279000D01*
X109328857Y-73424142D01*
X109256286Y-73496714D01*
X109111143Y-73569285D01*
X108675714Y-73569285D01*
X108530571Y-73496714D01*
X108458000Y-73424142D01*
X108385429Y-73279000D01*
X108385429Y-72988714D01*
X108458000Y-72843571D01*
X108385429Y-72408142D02*
X108385429Y-71827571D01*
X107877429Y-72190428D02*
X109183714Y-72190428D01*
X109328857Y-72117856D01*
X109401429Y-71972714D01*
X109401429Y-71827571D01*
X109401429Y-71319571D02*
X108385429Y-71319571D01*
X108675714Y-71319571D02*
X108530571Y-71246999D01*
X108458000Y-71174428D01*
X108385429Y-71029285D01*
X108385429Y-70884142D01*
X109401429Y-70376142D02*
X108385429Y-70376142D01*
X107877429Y-70376142D02*
X107950000Y-70448713D01*
X108022571Y-70376142D01*
X107950000Y-70303570D01*
X107877429Y-70376142D01*
X108022571Y-70376142D01*
X109328857Y-68997285D02*
X109401429Y-69142428D01*
X109401429Y-69432714D01*
X109328857Y-69577856D01*
X109256286Y-69650428D01*
X109111143Y-69722999D01*
X108675714Y-69722999D01*
X108530571Y-69650428D01*
X108458000Y-69577856D01*
X108385429Y-69432714D01*
X108385429Y-69142428D01*
X108458000Y-68997285D01*
X108603143Y-67182999D02*
X108603143Y-66674999D01*
X109401429Y-66457285D02*
X109401429Y-67182999D01*
X107877429Y-67182999D01*
X107877429Y-66457285D01*
X109328857Y-65223570D02*
X109401429Y-65368713D01*
X109401429Y-65658999D01*
X109328857Y-65804142D01*
X109183714Y-65876713D01*
X108603143Y-65876713D01*
X108458000Y-65804142D01*
X108385429Y-65658999D01*
X108385429Y-65368713D01*
X108458000Y-65223570D01*
X108603143Y-65150999D01*
X108748286Y-65150999D01*
X108893429Y-65876713D01*
X109401429Y-64280142D02*
X109328857Y-64425284D01*
X109183714Y-64497856D01*
X107877429Y-64497856D01*
X107877429Y-62683570D02*
X109401429Y-62320713D01*
X108312857Y-62030427D01*
X109401429Y-61740141D01*
X107877429Y-61377284D01*
X109401429Y-60796713D02*
X107877429Y-60796713D01*
X109401429Y-60143570D02*
X108603143Y-60143570D01*
X108458000Y-60216141D01*
X108385429Y-60361284D01*
X108385429Y-60578999D01*
X108458000Y-60724141D01*
X108530571Y-60796713D01*
X109328857Y-58837284D02*
X109401429Y-58982427D01*
X109401429Y-59272713D01*
X109328857Y-59417856D01*
X109183714Y-59490427D01*
X108603143Y-59490427D01*
X108458000Y-59417856D01*
X108385429Y-59272713D01*
X108385429Y-58982427D01*
X108458000Y-58837284D01*
X108603143Y-58764713D01*
X108748286Y-58764713D01*
X108893429Y-59490427D01*
X109328857Y-57530998D02*
X109401429Y-57676141D01*
X109401429Y-57966427D01*
X109328857Y-58111570D01*
X109183714Y-58184141D01*
X108603143Y-58184141D01*
X108458000Y-58111570D01*
X108385429Y-57966427D01*
X108385429Y-57676141D01*
X108458000Y-57530998D01*
X108603143Y-57458427D01*
X108748286Y-57458427D01*
X108893429Y-58184141D01*
X109401429Y-56587570D02*
X109328857Y-56732712D01*
X109183714Y-56805284D01*
X107877429Y-56805284D01*
X107877429Y-54120141D02*
X107877429Y-54845855D01*
X108603143Y-54918426D01*
X108530571Y-54845855D01*
X108458000Y-54700712D01*
X108458000Y-54337855D01*
X108530571Y-54192712D01*
X108603143Y-54120141D01*
X108748286Y-54047569D01*
X109111143Y-54047569D01*
X109256286Y-54120141D01*
X109328857Y-54192712D01*
X109401429Y-54337855D01*
X109401429Y-54700712D01*
X109328857Y-54845855D01*
X109256286Y-54918426D01*
X109256286Y-53394426D02*
X109328857Y-53321854D01*
X109401429Y-53394426D01*
X109328857Y-53466997D01*
X109256286Y-53394426D01*
X109401429Y-53394426D01*
X108022571Y-52741283D02*
X107950000Y-52668712D01*
X107877429Y-52523569D01*
X107877429Y-52160712D01*
X107950000Y-52015569D01*
X108022571Y-51942998D01*
X108167714Y-51870426D01*
X108312857Y-51870426D01*
X108530571Y-51942998D01*
X109401429Y-52813855D01*
X109401429Y-51870426D01*
X110562571Y-77052714D02*
X110490000Y-76980143D01*
X110417429Y-76835000D01*
X110417429Y-76472143D01*
X110490000Y-76327000D01*
X110562571Y-76254429D01*
X110707714Y-76181857D01*
X110852857Y-76181857D01*
X111070571Y-76254429D01*
X111941429Y-77125286D01*
X111941429Y-76181857D01*
X110417429Y-75238428D02*
X110417429Y-75093285D01*
X110490000Y-74948142D01*
X110562571Y-74875571D01*
X110707714Y-74803000D01*
X110998000Y-74730428D01*
X111360857Y-74730428D01*
X111651143Y-74803000D01*
X111796286Y-74875571D01*
X111868857Y-74948142D01*
X111941429Y-75093285D01*
X111941429Y-75238428D01*
X111868857Y-75383571D01*
X111796286Y-75456142D01*
X111651143Y-75528714D01*
X111360857Y-75601285D01*
X110998000Y-75601285D01*
X110707714Y-75528714D01*
X110562571Y-75456142D01*
X110490000Y-75383571D01*
X110417429Y-75238428D01*
X111941429Y-73278999D02*
X111941429Y-74149856D01*
X111941429Y-73714428D02*
X110417429Y-73714428D01*
X110635143Y-73859571D01*
X110780286Y-74004713D01*
X110852857Y-74149856D01*
X111070571Y-72408142D02*
X110998000Y-72553284D01*
X110925429Y-72625856D01*
X110780286Y-72698427D01*
X110707714Y-72698427D01*
X110562571Y-72625856D01*
X110490000Y-72553284D01*
X110417429Y-72408142D01*
X110417429Y-72117856D01*
X110490000Y-71972713D01*
X110562571Y-71900142D01*
X110707714Y-71827570D01*
X110780286Y-71827570D01*
X110925429Y-71900142D01*
X110998000Y-71972713D01*
X111070571Y-72117856D01*
X111070571Y-72408142D01*
X111143143Y-72553284D01*
X111215714Y-72625856D01*
X111360857Y-72698427D01*
X111651143Y-72698427D01*
X111796286Y-72625856D01*
X111868857Y-72553284D01*
X111941429Y-72408142D01*
X111941429Y-72117856D01*
X111868857Y-71972713D01*
X111796286Y-71900142D01*
X111651143Y-71827570D01*
X111360857Y-71827570D01*
X111215714Y-71900142D01*
X111143143Y-71972713D01*
X111070571Y-72117856D01*
X111796286Y-71174427D02*
X111868857Y-71101855D01*
X111941429Y-71174427D01*
X111868857Y-71246998D01*
X111796286Y-71174427D01*
X111941429Y-71174427D01*
X111070571Y-70230999D02*
X110998000Y-70376141D01*
X110925429Y-70448713D01*
X110780286Y-70521284D01*
X110707714Y-70521284D01*
X110562571Y-70448713D01*
X110490000Y-70376141D01*
X110417429Y-70230999D01*
X110417429Y-69940713D01*
X110490000Y-69795570D01*
X110562571Y-69722999D01*
X110707714Y-69650427D01*
X110780286Y-69650427D01*
X110925429Y-69722999D01*
X110998000Y-69795570D01*
X111070571Y-69940713D01*
X111070571Y-70230999D01*
X111143143Y-70376141D01*
X111215714Y-70448713D01*
X111360857Y-70521284D01*
X111651143Y-70521284D01*
X111796286Y-70448713D01*
X111868857Y-70376141D01*
X111941429Y-70230999D01*
X111941429Y-69940713D01*
X111868857Y-69795570D01*
X111796286Y-69722999D01*
X111651143Y-69650427D01*
X111360857Y-69650427D01*
X111215714Y-69722999D01*
X111143143Y-69795570D01*
X111070571Y-69940713D01*
X111796286Y-68997284D02*
X111868857Y-68924712D01*
X111941429Y-68997284D01*
X111868857Y-69069855D01*
X111796286Y-68997284D01*
X111941429Y-68997284D01*
X111941429Y-67473284D02*
X111941429Y-68344141D01*
X111941429Y-67908713D02*
X110417429Y-67908713D01*
X110635143Y-68053856D01*
X110780286Y-68198998D01*
X110852857Y-68344141D01*
D12*
X51498572Y-89007143D02*
X52641429Y-89007143D01*
X51498572Y-76307143D02*
X52641429Y-76307143D01*
X52070000Y-76878571D02*
X52070000Y-75735714D01*
D11*
X99241429Y-65495714D02*
X97717429Y-65495714D01*
X97717429Y-64915142D01*
X97790000Y-64770000D01*
X97862571Y-64697428D01*
X98007714Y-64624857D01*
X98225429Y-64624857D01*
X98370571Y-64697428D01*
X98443143Y-64770000D01*
X98515714Y-64915142D01*
X98515714Y-65495714D01*
X99168857Y-63391142D02*
X99241429Y-63536285D01*
X99241429Y-63826571D01*
X99168857Y-63971714D01*
X99023714Y-64044285D01*
X98443143Y-64044285D01*
X98298000Y-63971714D01*
X98225429Y-63826571D01*
X98225429Y-63536285D01*
X98298000Y-63391142D01*
X98443143Y-63318571D01*
X98588286Y-63318571D01*
X98733429Y-64044285D01*
X99241429Y-62012285D02*
X97717429Y-62012285D01*
X99168857Y-62012285D02*
X99241429Y-62157428D01*
X99241429Y-62447714D01*
X99168857Y-62592856D01*
X99096286Y-62665428D01*
X98951143Y-62737999D01*
X98515714Y-62737999D01*
X98370571Y-62665428D01*
X98298000Y-62592856D01*
X98225429Y-62447714D01*
X98225429Y-62157428D01*
X98298000Y-62012285D01*
X99241429Y-60633428D02*
X98443143Y-60633428D01*
X98298000Y-60705999D01*
X98225429Y-60851142D01*
X98225429Y-61141428D01*
X98298000Y-61286571D01*
X99168857Y-60633428D02*
X99241429Y-60778571D01*
X99241429Y-61141428D01*
X99168857Y-61286571D01*
X99023714Y-61359142D01*
X98878571Y-61359142D01*
X98733429Y-61286571D01*
X98660857Y-61141428D01*
X98660857Y-60778571D01*
X98588286Y-60633428D01*
X99241429Y-59690000D02*
X99168857Y-59835142D01*
X99023714Y-59907714D01*
X97717429Y-59907714D01*
X99168857Y-58020856D02*
X99241429Y-57803142D01*
X99241429Y-57440285D01*
X99168857Y-57295142D01*
X99096286Y-57222571D01*
X98951143Y-57149999D01*
X98806000Y-57149999D01*
X98660857Y-57222571D01*
X98588286Y-57295142D01*
X98515714Y-57440285D01*
X98443143Y-57730571D01*
X98370571Y-57875713D01*
X98298000Y-57948285D01*
X98152857Y-58020856D01*
X98007714Y-58020856D01*
X97862571Y-57948285D01*
X97790000Y-57875713D01*
X97717429Y-57730571D01*
X97717429Y-57367713D01*
X97790000Y-57149999D01*
X98225429Y-56641999D02*
X99241429Y-56351713D01*
X98515714Y-56061427D01*
X99241429Y-55771142D01*
X98225429Y-55480856D01*
X99241429Y-54900285D02*
X98225429Y-54900285D01*
X97717429Y-54900285D02*
X97790000Y-54972856D01*
X97862571Y-54900285D01*
X97790000Y-54827713D01*
X97717429Y-54900285D01*
X97862571Y-54900285D01*
X98225429Y-54392285D02*
X98225429Y-53811714D01*
X97717429Y-54174571D02*
X99023714Y-54174571D01*
X99168857Y-54101999D01*
X99241429Y-53956857D01*
X99241429Y-53811714D01*
X99168857Y-52650571D02*
X99241429Y-52795714D01*
X99241429Y-53086000D01*
X99168857Y-53231142D01*
X99096286Y-53303714D01*
X98951143Y-53376285D01*
X98515714Y-53376285D01*
X98370571Y-53303714D01*
X98298000Y-53231142D01*
X98225429Y-53086000D01*
X98225429Y-52795714D01*
X98298000Y-52650571D01*
X99241429Y-51997428D02*
X97717429Y-51997428D01*
X99241429Y-51344285D02*
X98443143Y-51344285D01*
X98298000Y-51416856D01*
X98225429Y-51561999D01*
X98225429Y-51779714D01*
X98298000Y-51924856D01*
X98370571Y-51997428D01*
X79429429Y-61758286D02*
X77905429Y-61758286D01*
X77905429Y-61395429D01*
X77978000Y-61177714D01*
X78123143Y-61032572D01*
X78268286Y-60960000D01*
X78558571Y-60887429D01*
X78776286Y-60887429D01*
X79066571Y-60960000D01*
X79211714Y-61032572D01*
X79356857Y-61177714D01*
X79429429Y-61395429D01*
X79429429Y-61758286D01*
X79284286Y-59363429D02*
X79356857Y-59436000D01*
X79429429Y-59653714D01*
X79429429Y-59798857D01*
X79356857Y-60016572D01*
X79211714Y-60161714D01*
X79066571Y-60234286D01*
X78776286Y-60306857D01*
X78558571Y-60306857D01*
X78268286Y-60234286D01*
X78123143Y-60161714D01*
X77978000Y-60016572D01*
X77905429Y-59798857D01*
X77905429Y-59653714D01*
X77978000Y-59436000D01*
X78050571Y-59363429D01*
X79429429Y-57549143D02*
X77905429Y-57549143D01*
X77905429Y-56968571D01*
X77978000Y-56823429D01*
X78050571Y-56750857D01*
X78195714Y-56678286D01*
X78413429Y-56678286D01*
X78558571Y-56750857D01*
X78631143Y-56823429D01*
X78703714Y-56968571D01*
X78703714Y-57549143D01*
X79429429Y-55807429D02*
X79356857Y-55952571D01*
X79284286Y-56025143D01*
X79139143Y-56097714D01*
X78703714Y-56097714D01*
X78558571Y-56025143D01*
X78486000Y-55952571D01*
X78413429Y-55807429D01*
X78413429Y-55589714D01*
X78486000Y-55444571D01*
X78558571Y-55372000D01*
X78703714Y-55299429D01*
X79139143Y-55299429D01*
X79284286Y-55372000D01*
X79356857Y-55444571D01*
X79429429Y-55589714D01*
X79429429Y-55807429D01*
X78413429Y-54791429D02*
X79429429Y-54501143D01*
X78703714Y-54210857D01*
X79429429Y-53920572D01*
X78413429Y-53630286D01*
X79356857Y-52469143D02*
X79429429Y-52614286D01*
X79429429Y-52904572D01*
X79356857Y-53049715D01*
X79211714Y-53122286D01*
X78631143Y-53122286D01*
X78486000Y-53049715D01*
X78413429Y-52904572D01*
X78413429Y-52614286D01*
X78486000Y-52469143D01*
X78631143Y-52396572D01*
X78776286Y-52396572D01*
X78921429Y-53122286D01*
X79429429Y-51743429D02*
X78413429Y-51743429D01*
X78703714Y-51743429D02*
X78558571Y-51670857D01*
X78486000Y-51598286D01*
X78413429Y-51453143D01*
X78413429Y-51308000D01*
X107550857Y-90859429D02*
X107042857Y-90133714D01*
X106680000Y-90859429D02*
X106680000Y-89335429D01*
X107260572Y-89335429D01*
X107405714Y-89408000D01*
X107478286Y-89480571D01*
X107550857Y-89625714D01*
X107550857Y-89843429D01*
X107478286Y-89988571D01*
X107405714Y-90061143D01*
X107260572Y-90133714D01*
X106680000Y-90133714D01*
X108204000Y-90061143D02*
X108712000Y-90061143D01*
X108929714Y-90859429D02*
X108204000Y-90859429D01*
X108204000Y-89335429D01*
X108929714Y-89335429D01*
X109582857Y-90859429D02*
X109582857Y-89335429D01*
X109945714Y-89335429D01*
X110163429Y-89408000D01*
X110308571Y-89553143D01*
X110381143Y-89698286D01*
X110453714Y-89988571D01*
X110453714Y-90206286D01*
X110381143Y-90496571D01*
X110308571Y-90641714D01*
X110163429Y-90786857D01*
X109945714Y-90859429D01*
X109582857Y-90859429D01*
X111106857Y-90278857D02*
X112268000Y-90278857D01*
X111687429Y-90859429D02*
X111687429Y-89698286D01*
X107260572Y-78885143D02*
X107478286Y-78957714D01*
X107550858Y-79030286D01*
X107623429Y-79175429D01*
X107623429Y-79393143D01*
X107550858Y-79538286D01*
X107478286Y-79610857D01*
X107333144Y-79683429D01*
X106752572Y-79683429D01*
X106752572Y-78159429D01*
X107260572Y-78159429D01*
X107405715Y-78232000D01*
X107478286Y-78304571D01*
X107550858Y-78449714D01*
X107550858Y-78594857D01*
X107478286Y-78740000D01*
X107405715Y-78812571D01*
X107260572Y-78885143D01*
X106752572Y-78885143D01*
X109002286Y-79683429D02*
X108276572Y-79683429D01*
X108276572Y-78159429D01*
X109510286Y-79683429D02*
X109510286Y-78159429D01*
X110381143Y-79683429D02*
X109728000Y-78812571D01*
X110381143Y-78159429D02*
X109510286Y-79030286D01*
X111034286Y-79102857D02*
X112195429Y-79102857D01*
D13*
X65218000Y-79010000D02*
G75*
G02X65218000Y-81010000I0J-1000000D01*
G01*
X65218000Y-81010000D02*
X65218000Y-82660000D01*
X65218000Y-82660000D02*
X75498000Y-82660000D01*
X75498000Y-82660000D02*
X75498000Y-77360000D01*
X75498000Y-77360000D02*
X65218000Y-77360000D01*
X65218000Y-77360000D02*
X65218000Y-79010000D01*
X65158000Y-85150000D02*
X75558000Y-85150000D01*
X75558000Y-85150000D02*
X75558000Y-74870000D01*
X75558000Y-74870000D02*
X65158000Y-74870000D01*
X65158000Y-74870000D02*
X65158000Y-85150000D01*
D10*
X76962000Y-98044000D02*
X72136000Y-98044000D01*
X72136000Y-98044000D02*
X72136000Y-87884000D01*
X72136000Y-87884000D02*
X76962000Y-87884000D01*
X76962000Y-87884000D02*
X76962000Y-98044000D01*
X75184000Y-87884000D02*
X75184000Y-88519000D01*
X75184000Y-88519000D02*
X73914000Y-88519000D01*
X73914000Y-88519000D02*
X73914000Y-87884000D01*
D13*
X102860000Y-88890000D02*
X112220000Y-88890000D01*
X112220000Y-88890000D02*
X112220000Y-80330000D01*
X112220000Y-80330000D02*
X102860000Y-80330000D01*
X102860000Y-88890000D02*
X102860000Y-87410000D01*
X102860000Y-80330000D02*
X102860000Y-81810000D01*
X102860000Y-85310000D02*
X102860000Y-83910000D01*
X108940000Y-88890000D02*
X108940000Y-80330000D01*
X101540000Y-86060000D02*
X102140000Y-86360000D01*
X102140000Y-86360000D02*
X101540000Y-86660000D01*
X101540000Y-86660000D02*
X101540000Y-86060000D01*
D14*
G36*
X102196407Y-66258267D02*
X102199762Y-66229509D01*
X102211675Y-66150067D01*
X102468871Y-66150121D01*
X102726067Y-66150176D01*
X102727353Y-66349088D01*
X102729130Y-66443848D01*
X102734113Y-66516089D01*
X102743909Y-66577119D01*
X102760126Y-66638248D01*
X102774898Y-66683466D01*
X102856180Y-66872813D01*
X102962485Y-67040539D01*
X103091995Y-67185046D01*
X103242893Y-67304731D01*
X103413363Y-67397995D01*
X103601586Y-67463236D01*
X103680056Y-67480862D01*
X103824354Y-67500852D01*
X103959207Y-67501238D01*
X104102789Y-67482021D01*
X104108877Y-67480862D01*
X104303499Y-67427077D01*
X104481174Y-67344623D01*
X104640006Y-67235172D01*
X104778102Y-67100395D01*
X104893565Y-66941961D01*
X104984499Y-66761541D01*
X105013623Y-66683466D01*
X105034856Y-66615408D01*
X105048631Y-66554335D01*
X105056571Y-66488831D01*
X105060300Y-66407479D01*
X105061168Y-66349106D01*
X105062867Y-66150212D01*
X105318983Y-66150139D01*
X105575100Y-66150067D01*
X105585683Y-66202983D01*
X105593444Y-66281259D01*
X105591715Y-66387978D01*
X105580604Y-66519102D01*
X105576219Y-66556466D01*
X105558505Y-66654023D01*
X105528874Y-66768756D01*
X105491073Y-66889112D01*
X105448851Y-67003541D01*
X105405954Y-67100490D01*
X105389766Y-67131220D01*
X105258207Y-67333251D01*
X105103599Y-67513491D01*
X104928772Y-67669207D01*
X104736556Y-67797667D01*
X104654206Y-67841414D01*
X104469419Y-67922111D01*
X104290766Y-67976742D01*
X104106836Y-68007968D01*
X103906221Y-68018447D01*
X103894466Y-68018474D01*
X103692898Y-68009097D01*
X103508645Y-67979184D01*
X103330250Y-67926064D01*
X103146258Y-67847063D01*
X103134119Y-67841110D01*
X102959408Y-67739181D01*
X102793101Y-67612029D01*
X102640807Y-67465391D01*
X102508137Y-67305003D01*
X102400701Y-67136601D01*
X102355379Y-67044863D01*
X102306236Y-66918071D01*
X102264107Y-66778837D01*
X102230525Y-66635199D01*
X102207025Y-66495198D01*
X102195140Y-66366874D01*
X102196407Y-66258267D01*
X102196407Y-66258267D01*
G37*
X102196407Y-66258267D02*
X102199762Y-66229509D01*
X102211675Y-66150067D01*
X102468871Y-66150121D01*
X102726067Y-66150176D01*
X102727353Y-66349088D01*
X102729130Y-66443848D01*
X102734113Y-66516089D01*
X102743909Y-66577119D01*
X102760126Y-66638248D01*
X102774898Y-66683466D01*
X102856180Y-66872813D01*
X102962485Y-67040539D01*
X103091995Y-67185046D01*
X103242893Y-67304731D01*
X103413363Y-67397995D01*
X103601586Y-67463236D01*
X103680056Y-67480862D01*
X103824354Y-67500852D01*
X103959207Y-67501238D01*
X104102789Y-67482021D01*
X104108877Y-67480862D01*
X104303499Y-67427077D01*
X104481174Y-67344623D01*
X104640006Y-67235172D01*
X104778102Y-67100395D01*
X104893565Y-66941961D01*
X104984499Y-66761541D01*
X105013623Y-66683466D01*
X105034856Y-66615408D01*
X105048631Y-66554335D01*
X105056571Y-66488831D01*
X105060300Y-66407479D01*
X105061168Y-66349106D01*
X105062867Y-66150212D01*
X105318983Y-66150139D01*
X105575100Y-66150067D01*
X105585683Y-66202983D01*
X105593444Y-66281259D01*
X105591715Y-66387978D01*
X105580604Y-66519102D01*
X105576219Y-66556466D01*
X105558505Y-66654023D01*
X105528874Y-66768756D01*
X105491073Y-66889112D01*
X105448851Y-67003541D01*
X105405954Y-67100490D01*
X105389766Y-67131220D01*
X105258207Y-67333251D01*
X105103599Y-67513491D01*
X104928772Y-67669207D01*
X104736556Y-67797667D01*
X104654206Y-67841414D01*
X104469419Y-67922111D01*
X104290766Y-67976742D01*
X104106836Y-68007968D01*
X103906221Y-68018447D01*
X103894466Y-68018474D01*
X103692898Y-68009097D01*
X103508645Y-67979184D01*
X103330250Y-67926064D01*
X103146258Y-67847063D01*
X103134119Y-67841110D01*
X102959408Y-67739181D01*
X102793101Y-67612029D01*
X102640807Y-67465391D01*
X102508137Y-67305003D01*
X102400701Y-67136601D01*
X102355379Y-67044863D01*
X102306236Y-66918071D01*
X102264107Y-66778837D01*
X102230525Y-66635199D01*
X102207025Y-66495198D01*
X102195140Y-66366874D01*
X102196407Y-66258267D01*
G36*
X102200087Y-63345619D02*
X102200862Y-63340740D01*
X102212723Y-63270535D01*
X102466109Y-63275201D01*
X102719494Y-63279866D01*
X102724550Y-63474600D01*
X102742693Y-63670731D01*
X102787620Y-63848668D01*
X102861175Y-64012708D01*
X102965201Y-64167148D01*
X103073932Y-64289035D01*
X103149007Y-64360611D01*
X103217833Y-64414883D01*
X103294232Y-64461823D01*
X103361798Y-64496733D01*
X103434737Y-64531061D01*
X103502289Y-64560075D01*
X103555114Y-64579899D01*
X103576967Y-64585992D01*
X103632000Y-64596433D01*
X103632000Y-63610066D01*
X104156933Y-63610066D01*
X104156933Y-64596433D01*
X104211967Y-64585992D01*
X104250372Y-64574130D01*
X104309518Y-64550586D01*
X104380062Y-64519233D01*
X104427135Y-64496733D01*
X104517571Y-64448891D01*
X104590468Y-64400909D01*
X104659647Y-64342813D01*
X104715001Y-64289035D01*
X104845255Y-64139243D01*
X104943533Y-63983358D01*
X105011679Y-63817083D01*
X105051537Y-63636119D01*
X105064383Y-63474600D01*
X105069439Y-63279866D01*
X105322183Y-63275204D01*
X105574928Y-63270541D01*
X105585597Y-63323887D01*
X105593391Y-63401342D01*
X105592005Y-63505448D01*
X105581588Y-63630297D01*
X105576926Y-63669333D01*
X105531535Y-63896632D01*
X105455945Y-64112727D01*
X105352594Y-64315147D01*
X105223920Y-64501419D01*
X105072360Y-64669073D01*
X104900352Y-64815635D01*
X104710334Y-64938635D01*
X104504744Y-65035599D01*
X104286019Y-65104056D01*
X104133843Y-65132674D01*
X103900186Y-65148883D01*
X103671115Y-65133310D01*
X103449247Y-65087739D01*
X103237201Y-65013956D01*
X103037594Y-64913746D01*
X102853043Y-64788897D01*
X102686166Y-64641192D01*
X102539580Y-64472418D01*
X102415904Y-64284360D01*
X102317755Y-64078804D01*
X102247750Y-63857535D01*
X102244518Y-63843865D01*
X102223626Y-63737573D01*
X102207909Y-63625054D01*
X102198195Y-63515857D01*
X102195311Y-63419529D01*
X102200087Y-63345619D01*
X102200087Y-63345619D01*
G37*
X102200087Y-63345619D02*
X102200862Y-63340740D01*
X102212723Y-63270535D01*
X102466109Y-63275201D01*
X102719494Y-63279866D01*
X102724550Y-63474600D01*
X102742693Y-63670731D01*
X102787620Y-63848668D01*
X102861175Y-64012708D01*
X102965201Y-64167148D01*
X103073932Y-64289035D01*
X103149007Y-64360611D01*
X103217833Y-64414883D01*
X103294232Y-64461823D01*
X103361798Y-64496733D01*
X103434737Y-64531061D01*
X103502289Y-64560075D01*
X103555114Y-64579899D01*
X103576967Y-64585992D01*
X103632000Y-64596433D01*
X103632000Y-63610066D01*
X104156933Y-63610066D01*
X104156933Y-64596433D01*
X104211967Y-64585992D01*
X104250372Y-64574130D01*
X104309518Y-64550586D01*
X104380062Y-64519233D01*
X104427135Y-64496733D01*
X104517571Y-64448891D01*
X104590468Y-64400909D01*
X104659647Y-64342813D01*
X104715001Y-64289035D01*
X104845255Y-64139243D01*
X104943533Y-63983358D01*
X105011679Y-63817083D01*
X105051537Y-63636119D01*
X105064383Y-63474600D01*
X105069439Y-63279866D01*
X105322183Y-63275204D01*
X105574928Y-63270541D01*
X105585597Y-63323887D01*
X105593391Y-63401342D01*
X105592005Y-63505448D01*
X105581588Y-63630297D01*
X105576926Y-63669333D01*
X105531535Y-63896632D01*
X105455945Y-64112727D01*
X105352594Y-64315147D01*
X105223920Y-64501419D01*
X105072360Y-64669073D01*
X104900352Y-64815635D01*
X104710334Y-64938635D01*
X104504744Y-65035599D01*
X104286019Y-65104056D01*
X104133843Y-65132674D01*
X103900186Y-65148883D01*
X103671115Y-65133310D01*
X103449247Y-65087739D01*
X103237201Y-65013956D01*
X103037594Y-64913746D01*
X102853043Y-64788897D01*
X102686166Y-64641192D01*
X102539580Y-64472418D01*
X102415904Y-64284360D01*
X102317755Y-64078804D01*
X102247750Y-63857535D01*
X102244518Y-63843865D01*
X102223626Y-63737573D01*
X102207909Y-63625054D01*
X102198195Y-63515857D01*
X102195311Y-63419529D01*
X102200087Y-63345619D01*
D10*
X80010000Y-89154000D02*
X85090000Y-89154000D01*
X85090000Y-89154000D02*
X85090000Y-93726000D01*
X85090000Y-93726000D02*
X80010000Y-93726000D01*
X80010000Y-93726000D02*
X80010000Y-89154000D01*
X80010000Y-90678000D02*
X80518000Y-90678000D01*
X80518000Y-90678000D02*
X80518000Y-91948000D01*
X80518000Y-91948000D02*
X80010000Y-91948000D01*
X92710000Y-89154000D02*
X97790000Y-89154000D01*
X97790000Y-89154000D02*
X97790000Y-93726000D01*
X97790000Y-93726000D02*
X92710000Y-93726000D01*
X92710000Y-93726000D02*
X92710000Y-89154000D01*
X92710000Y-90678000D02*
X93218000Y-90678000D01*
X93218000Y-90678000D02*
X93218000Y-91948000D01*
X93218000Y-91948000D02*
X92710000Y-91948000D01*
D13*
X78992000Y-66804000D02*
X78992000Y-68984000D01*
X78992000Y-73404000D02*
X78992000Y-71224000D01*
X72392000Y-72644000D02*
X72392000Y-71224000D01*
X72392000Y-67564000D02*
X72392000Y-68984000D01*
X78992000Y-73404000D02*
X73152000Y-73404000D01*
X73152000Y-73404000D02*
X72392000Y-72644000D01*
X72392000Y-67564000D02*
X73152000Y-66804000D01*
X73152000Y-66804000D02*
X78992000Y-66804000D01*
X67976000Y-67472000D02*
X68676000Y-67472000D01*
X68676000Y-68672000D02*
X67976000Y-68672000D01*
X83724000Y-85760000D02*
X84424000Y-85760000D01*
X84424000Y-86960000D02*
X83724000Y-86960000D01*
X57910000Y-69340000D02*
X55730000Y-69340000D01*
X51310000Y-69340000D02*
X53490000Y-69340000D01*
X52070000Y-62740000D02*
X53490000Y-62740000D01*
X57150000Y-62740000D02*
X55730000Y-62740000D01*
X51310000Y-69340000D02*
X51310000Y-63500000D01*
X51310000Y-63500000D02*
X52070000Y-62740000D01*
X57150000Y-62740000D02*
X57910000Y-63500000D01*
X57910000Y-63500000D02*
X57910000Y-69340000D01*
X56292000Y-59344000D02*
X56992000Y-59344000D01*
X56992000Y-60544000D02*
X56292000Y-60544000D01*
X84838000Y-76456000D02*
X87018000Y-76456000D01*
X91438000Y-76456000D02*
X89258000Y-76456000D01*
X90678000Y-83056000D02*
X89258000Y-83056000D01*
X85598000Y-83056000D02*
X87018000Y-83056000D01*
X91438000Y-76456000D02*
X91438000Y-82296000D01*
X91438000Y-82296000D02*
X90678000Y-83056000D01*
X85598000Y-83056000D02*
X84838000Y-82296000D01*
X84838000Y-82296000D02*
X84838000Y-76456000D01*
X67660000Y-74768000D02*
X66960000Y-74768000D01*
X66960000Y-73568000D02*
X67660000Y-73568000D01*
X86772000Y-85760000D02*
X87472000Y-85760000D01*
X87472000Y-86960000D02*
X86772000Y-86960000D01*
X94900000Y-86014000D02*
X95600000Y-86014000D01*
X95600000Y-87214000D02*
X94900000Y-87214000D01*
X60868000Y-83916000D02*
X60868000Y-83216000D01*
X62068000Y-83216000D02*
X62068000Y-83916000D01*
X80864000Y-66579000D02*
X80864000Y-67279000D01*
X79664000Y-67279000D02*
X79664000Y-66579000D01*
X78836000Y-87214000D02*
X78136000Y-87214000D01*
X78136000Y-86014000D02*
X78836000Y-86014000D01*
X59416000Y-49780000D02*
G75*
G02X64536000Y-49780000I2560000J0D01*
G01*
X64536000Y-55940000D02*
X64536000Y-49780000D01*
X59416000Y-55940000D02*
X59416000Y-49780000D01*
X64536000Y-55940000D02*
X59416000Y-55940000D01*
X59016000Y-55940000D02*
X59016000Y-54820000D01*
X59016000Y-54820000D02*
X59416000Y-54820000D01*
X59416000Y-54820000D02*
X59416000Y-55940000D01*
X59416000Y-55940000D02*
X59016000Y-55940000D01*
X63246000Y-56070000D02*
X63246000Y-55940000D01*
X63246000Y-55940000D02*
X63246000Y-55940000D01*
X63246000Y-55940000D02*
X63246000Y-56070000D01*
X63246000Y-56070000D02*
X63246000Y-56070000D01*
X60706000Y-56070000D02*
X60706000Y-55940000D01*
X60706000Y-55940000D02*
X60706000Y-55940000D01*
X60706000Y-55940000D02*
X60706000Y-56070000D01*
X60706000Y-56070000D02*
X60706000Y-56070000D01*
D15*
X81278000Y-75100000D02*
X97178000Y-75100000D01*
X81278000Y-50800000D02*
X90678000Y-50800000D01*
X81278000Y-50800000D02*
X81278000Y-75100000D01*
X85078000Y-50800000D02*
X85078000Y-41900000D01*
X85078000Y-41900000D02*
X96278000Y-41900000D01*
X96278000Y-41900000D02*
X96278000Y-50800000D01*
X90678000Y-50800000D02*
X90678000Y-51800000D01*
X97178000Y-75100000D02*
X97178000Y-50800000D01*
X90678000Y-50800000D02*
X97178000Y-50800000D01*
D13*
X68298000Y-59643000D02*
X68298000Y-50843000D01*
X68298000Y-50843000D02*
X77498000Y-50843000D01*
X70998000Y-65543000D02*
X68298000Y-65543000D01*
X68298000Y-65543000D02*
X68298000Y-63643000D01*
X77498000Y-50843000D02*
X77498000Y-65543000D01*
X77498000Y-65543000D02*
X74898000Y-65543000D01*
X57870000Y-86240000D02*
X60070000Y-86240000D01*
X60070000Y-86240000D02*
X60070000Y-87740000D01*
X60070000Y-87740000D02*
X51570000Y-87740000D01*
X51570000Y-87740000D02*
X51570000Y-77440000D01*
X51570000Y-77440000D02*
X60070000Y-77440000D01*
X60070000Y-77440000D02*
X60070000Y-78940000D01*
X60070000Y-78940000D02*
X57870000Y-78940000D01*
X53070000Y-87740000D02*
X53070000Y-86240000D01*
X53070000Y-86240000D02*
X57870000Y-86240000D01*
X57870000Y-86240000D02*
X57870000Y-87740000D01*
X53070000Y-77440000D02*
X53070000Y-78940000D01*
X53070000Y-78940000D02*
X57870000Y-78940000D01*
X57870000Y-78940000D02*
X57870000Y-77440000D01*
X55920000Y-86240000D02*
X55920000Y-78940000D01*
X56920000Y-86240000D02*
X56920000Y-78940000D01*
X55920000Y-85090000D02*
X55920000Y-85410000D01*
X55920000Y-85410000D02*
X52500000Y-85410000D01*
X52500000Y-85410000D02*
X52420000Y-85090000D01*
X52420000Y-85090000D02*
X52500000Y-84770000D01*
X52500000Y-84770000D02*
X55920000Y-84770000D01*
X55920000Y-84770000D02*
X55920000Y-85090000D01*
X55920000Y-82590000D02*
X55920000Y-82910000D01*
X55920000Y-82910000D02*
X52500000Y-82910000D01*
X52500000Y-82910000D02*
X52420000Y-82590000D01*
X52420000Y-82590000D02*
X52500000Y-82270000D01*
X52500000Y-82270000D02*
X55920000Y-82270000D01*
X55920000Y-82270000D02*
X55920000Y-82590000D01*
X55920000Y-80090000D02*
X55920000Y-80410000D01*
X55920000Y-80410000D02*
X52500000Y-80410000D01*
X52500000Y-80410000D02*
X52420000Y-80090000D01*
X52420000Y-80090000D02*
X52500000Y-79770000D01*
X52500000Y-79770000D02*
X55920000Y-79770000D01*
X55920000Y-79770000D02*
X55920000Y-80090000D01*
X59920000Y-85090000D02*
X60520000Y-85390000D01*
X60520000Y-85390000D02*
X60520000Y-84790000D01*
X60520000Y-84790000D02*
X59920000Y-85090000D01*
X57396000Y-57068000D02*
X56396000Y-57068000D01*
X56396000Y-55708000D02*
X57396000Y-55708000D01*
X65680000Y-66340000D02*
X65680000Y-64840000D01*
X65680000Y-64840000D02*
X65410000Y-64840000D01*
X65410000Y-64840000D02*
X65410000Y-62010000D01*
X58780000Y-66340000D02*
X58780000Y-64840000D01*
X58780000Y-64840000D02*
X59050000Y-64840000D01*
X59050000Y-64840000D02*
X59050000Y-63740000D01*
D10*
X86360000Y-89154000D02*
X91440000Y-89154000D01*
X91440000Y-89154000D02*
X91440000Y-93726000D01*
X91440000Y-93726000D02*
X86360000Y-93726000D01*
X86360000Y-93726000D02*
X86360000Y-89154000D01*
X86360000Y-90678000D02*
X86868000Y-90678000D01*
X86868000Y-90678000D02*
X86868000Y-91948000D01*
X86868000Y-91948000D02*
X86360000Y-91948000D01*
D13*
X62322000Y-76866000D02*
X62322000Y-77566000D01*
X61122000Y-77566000D02*
X61122000Y-76866000D01*
X63254000Y-85934000D02*
X64254000Y-85934000D01*
X64254000Y-87294000D02*
X63254000Y-87294000D01*
X69692000Y-87722000D02*
X68992000Y-87722000D01*
X68992000Y-86522000D02*
X69692000Y-86522000D01*
D10*
X67564000Y-98044000D02*
X62738000Y-98044000D01*
X62738000Y-98044000D02*
X62738000Y-87884000D01*
X62738000Y-87884000D02*
X67564000Y-87884000D01*
X67564000Y-87884000D02*
X67564000Y-98044000D01*
X65786000Y-87884000D02*
X65786000Y-88519000D01*
X65786000Y-88519000D02*
X64516000Y-88519000D01*
X64516000Y-88519000D02*
X64516000Y-87884000D01*
X64670381Y-80986190D02*
X63670381Y-80986190D01*
X64575143Y-79938571D02*
X64622762Y-79986190D01*
X64670381Y-80129047D01*
X64670381Y-80224285D01*
X64622762Y-80367143D01*
X64527524Y-80462381D01*
X64432286Y-80510000D01*
X64241810Y-80557619D01*
X64098952Y-80557619D01*
X63908476Y-80510000D01*
X63813238Y-80462381D01*
X63718000Y-80367143D01*
X63670381Y-80224285D01*
X63670381Y-80129047D01*
X63718000Y-79986190D01*
X63765619Y-79938571D01*
X63670381Y-79605238D02*
X63670381Y-78986190D01*
X64051333Y-79319524D01*
X64051333Y-79176666D01*
X64098952Y-79081428D01*
X64146571Y-79033809D01*
X64241810Y-78986190D01*
X64479905Y-78986190D01*
X64575143Y-79033809D01*
X64622762Y-79081428D01*
X64670381Y-79176666D01*
X64670381Y-79462381D01*
X64622762Y-79557619D01*
X64575143Y-79605238D01*
X75398381Y-93725905D02*
X76207905Y-93725905D01*
X76303143Y-93678286D01*
X76350762Y-93630667D01*
X76398381Y-93535429D01*
X76398381Y-93344952D01*
X76350762Y-93249714D01*
X76303143Y-93202095D01*
X76207905Y-93154476D01*
X75398381Y-93154476D01*
X75398381Y-92773524D02*
X75398381Y-92154476D01*
X75779333Y-92487810D01*
X75779333Y-92344952D01*
X75826952Y-92249714D01*
X75874571Y-92202095D01*
X75969810Y-92154476D01*
X76207905Y-92154476D01*
X76303143Y-92202095D01*
X76350762Y-92249714D01*
X76398381Y-92344952D01*
X76398381Y-92630667D01*
X76350762Y-92725905D01*
X76303143Y-92773524D01*
X106957905Y-84780381D02*
X106957905Y-83780381D01*
X107338858Y-83780381D01*
X107434096Y-83828000D01*
X107481715Y-83875619D01*
X107529334Y-83970857D01*
X107529334Y-84113714D01*
X107481715Y-84208952D01*
X107434096Y-84256571D01*
X107338858Y-84304190D01*
X106957905Y-84304190D01*
X107910286Y-83875619D02*
X107957905Y-83828000D01*
X108053143Y-83780381D01*
X108291239Y-83780381D01*
X108386477Y-83828000D01*
X108434096Y-83875619D01*
X108481715Y-83970857D01*
X108481715Y-84066095D01*
X108434096Y-84208952D01*
X107862667Y-84780381D01*
X108481715Y-84780381D01*
X81573810Y-90622381D02*
X81573810Y-89622381D01*
X82621429Y-90527143D02*
X82573810Y-90574762D01*
X82430953Y-90622381D01*
X82335715Y-90622381D01*
X82192857Y-90574762D01*
X82097619Y-90479524D01*
X82050000Y-90384286D01*
X82002381Y-90193810D01*
X82002381Y-90050952D01*
X82050000Y-89860476D01*
X82097619Y-89765238D01*
X82192857Y-89670000D01*
X82335715Y-89622381D01*
X82430953Y-89622381D01*
X82573810Y-89670000D01*
X82621429Y-89717619D01*
X83573810Y-90622381D02*
X83002381Y-90622381D01*
X83288095Y-90622381D02*
X83288095Y-89622381D01*
X83192857Y-89765238D01*
X83097619Y-89860476D01*
X83002381Y-89908095D01*
X94273810Y-90622381D02*
X94273810Y-89622381D01*
X95321429Y-90527143D02*
X95273810Y-90574762D01*
X95130953Y-90622381D01*
X95035715Y-90622381D01*
X94892857Y-90574762D01*
X94797619Y-90479524D01*
X94750000Y-90384286D01*
X94702381Y-90193810D01*
X94702381Y-90050952D01*
X94750000Y-89860476D01*
X94797619Y-89765238D01*
X94892857Y-89670000D01*
X95035715Y-89622381D01*
X95130953Y-89622381D01*
X95273810Y-89670000D01*
X95321429Y-89717619D01*
X95702381Y-89717619D02*
X95750000Y-89670000D01*
X95845238Y-89622381D01*
X96083334Y-89622381D01*
X96178572Y-89670000D01*
X96226191Y-89717619D01*
X96273810Y-89812857D01*
X96273810Y-89908095D01*
X96226191Y-90050952D01*
X95654762Y-90622381D01*
X96273810Y-90622381D01*
X77049334Y-73001143D02*
X77001715Y-73048762D01*
X76858858Y-73096381D01*
X76763620Y-73096381D01*
X76620762Y-73048762D01*
X76525524Y-72953524D01*
X76477905Y-72858286D01*
X76430286Y-72667810D01*
X76430286Y-72524952D01*
X76477905Y-72334476D01*
X76525524Y-72239238D01*
X76620762Y-72144000D01*
X76763620Y-72096381D01*
X76858858Y-72096381D01*
X77001715Y-72144000D01*
X77049334Y-72191619D01*
X78001715Y-73096381D02*
X77430286Y-73096381D01*
X77716000Y-73096381D02*
X77716000Y-72096381D01*
X77620762Y-72239238D01*
X77525524Y-72334476D01*
X77430286Y-72382095D01*
X71031048Y-73185429D02*
X71792953Y-73185429D01*
X71412001Y-73566381D02*
X71412001Y-72804476D01*
X68159334Y-67159143D02*
X68111715Y-67206762D01*
X67968858Y-67254381D01*
X67873620Y-67254381D01*
X67730762Y-67206762D01*
X67635524Y-67111524D01*
X67587905Y-67016286D01*
X67540286Y-66825810D01*
X67540286Y-66682952D01*
X67587905Y-66492476D01*
X67635524Y-66397238D01*
X67730762Y-66302000D01*
X67873620Y-66254381D01*
X67968858Y-66254381D01*
X68111715Y-66302000D01*
X68159334Y-66349619D01*
X68540286Y-66349619D02*
X68587905Y-66302000D01*
X68683143Y-66254381D01*
X68921239Y-66254381D01*
X69016477Y-66302000D01*
X69064096Y-66349619D01*
X69111715Y-66444857D01*
X69111715Y-66540095D01*
X69064096Y-66682952D01*
X68492667Y-67254381D01*
X69111715Y-67254381D01*
X83907334Y-85447143D02*
X83859715Y-85494762D01*
X83716858Y-85542381D01*
X83621620Y-85542381D01*
X83478762Y-85494762D01*
X83383524Y-85399524D01*
X83335905Y-85304286D01*
X83288286Y-85113810D01*
X83288286Y-84970952D01*
X83335905Y-84780476D01*
X83383524Y-84685238D01*
X83478762Y-84590000D01*
X83621620Y-84542381D01*
X83716858Y-84542381D01*
X83859715Y-84590000D01*
X83907334Y-84637619D01*
X84240667Y-84542381D02*
X84859715Y-84542381D01*
X84526381Y-84923333D01*
X84669239Y-84923333D01*
X84764477Y-84970952D01*
X84812096Y-85018571D01*
X84859715Y-85113810D01*
X84859715Y-85351905D01*
X84812096Y-85447143D01*
X84764477Y-85494762D01*
X84669239Y-85542381D01*
X84383524Y-85542381D01*
X84288286Y-85494762D01*
X84240667Y-85447143D01*
X52157334Y-67921143D02*
X52109715Y-67968762D01*
X51966858Y-68016381D01*
X51871620Y-68016381D01*
X51728762Y-67968762D01*
X51633524Y-67873524D01*
X51585905Y-67778286D01*
X51538286Y-67587810D01*
X51538286Y-67444952D01*
X51585905Y-67254476D01*
X51633524Y-67159238D01*
X51728762Y-67064000D01*
X51871620Y-67016381D01*
X51966858Y-67016381D01*
X52109715Y-67064000D01*
X52157334Y-67111619D01*
X53014477Y-67349714D02*
X53014477Y-68016381D01*
X52776381Y-66968762D02*
X52538286Y-67683048D01*
X53157334Y-67683048D01*
X51671429Y-62140952D02*
X51671429Y-61379047D01*
X52052381Y-61759999D02*
X51290476Y-61759999D01*
X56475334Y-59031143D02*
X56427715Y-59078762D01*
X56284858Y-59126381D01*
X56189620Y-59126381D01*
X56046762Y-59078762D01*
X55951524Y-58983524D01*
X55903905Y-58888286D01*
X55856286Y-58697810D01*
X55856286Y-58554952D01*
X55903905Y-58364476D01*
X55951524Y-58269238D01*
X56046762Y-58174000D01*
X56189620Y-58126381D01*
X56284858Y-58126381D01*
X56427715Y-58174000D01*
X56475334Y-58221619D01*
X57380096Y-58126381D02*
X56903905Y-58126381D01*
X56856286Y-58602571D01*
X56903905Y-58554952D01*
X56999143Y-58507333D01*
X57237239Y-58507333D01*
X57332477Y-58554952D01*
X57380096Y-58602571D01*
X57427715Y-58697810D01*
X57427715Y-58935905D01*
X57380096Y-59031143D01*
X57332477Y-59078762D01*
X57237239Y-59126381D01*
X56999143Y-59126381D01*
X56903905Y-59078762D01*
X56856286Y-59031143D01*
X90257334Y-78589143D02*
X90209715Y-78636762D01*
X90066858Y-78684381D01*
X89971620Y-78684381D01*
X89828762Y-78636762D01*
X89733524Y-78541524D01*
X89685905Y-78446286D01*
X89638286Y-78255810D01*
X89638286Y-78112952D01*
X89685905Y-77922476D01*
X89733524Y-77827238D01*
X89828762Y-77732000D01*
X89971620Y-77684381D01*
X90066858Y-77684381D01*
X90209715Y-77732000D01*
X90257334Y-77779619D01*
X91114477Y-77684381D02*
X90924000Y-77684381D01*
X90828762Y-77732000D01*
X90781143Y-77779619D01*
X90685905Y-77922476D01*
X90638286Y-78112952D01*
X90638286Y-78493905D01*
X90685905Y-78589143D01*
X90733524Y-78636762D01*
X90828762Y-78684381D01*
X91019239Y-78684381D01*
X91114477Y-78636762D01*
X91162096Y-78589143D01*
X91209715Y-78493905D01*
X91209715Y-78255810D01*
X91162096Y-78160571D01*
X91114477Y-78112952D01*
X91019239Y-78065333D01*
X90828762Y-78065333D01*
X90733524Y-78112952D01*
X90685905Y-78160571D01*
X90638286Y-78255810D01*
X91219429Y-84416952D02*
X91219429Y-83655047D01*
X91600381Y-84035999D02*
X90838476Y-84035999D01*
X67143334Y-73255143D02*
X67095715Y-73302762D01*
X66952858Y-73350381D01*
X66857620Y-73350381D01*
X66714762Y-73302762D01*
X66619524Y-73207524D01*
X66571905Y-73112286D01*
X66524286Y-72921810D01*
X66524286Y-72778952D01*
X66571905Y-72588476D01*
X66619524Y-72493238D01*
X66714762Y-72398000D01*
X66857620Y-72350381D01*
X66952858Y-72350381D01*
X67095715Y-72398000D01*
X67143334Y-72445619D01*
X67476667Y-72350381D02*
X68143334Y-72350381D01*
X67714762Y-73350381D01*
X86955334Y-85447143D02*
X86907715Y-85494762D01*
X86764858Y-85542381D01*
X86669620Y-85542381D01*
X86526762Y-85494762D01*
X86431524Y-85399524D01*
X86383905Y-85304286D01*
X86336286Y-85113810D01*
X86336286Y-84970952D01*
X86383905Y-84780476D01*
X86431524Y-84685238D01*
X86526762Y-84590000D01*
X86669620Y-84542381D01*
X86764858Y-84542381D01*
X86907715Y-84590000D01*
X86955334Y-84637619D01*
X87526762Y-84970952D02*
X87431524Y-84923333D01*
X87383905Y-84875714D01*
X87336286Y-84780476D01*
X87336286Y-84732857D01*
X87383905Y-84637619D01*
X87431524Y-84590000D01*
X87526762Y-84542381D01*
X87717239Y-84542381D01*
X87812477Y-84590000D01*
X87860096Y-84637619D01*
X87907715Y-84732857D01*
X87907715Y-84780476D01*
X87860096Y-84875714D01*
X87812477Y-84923333D01*
X87717239Y-84970952D01*
X87526762Y-84970952D01*
X87431524Y-85018571D01*
X87383905Y-85066190D01*
X87336286Y-85161429D01*
X87336286Y-85351905D01*
X87383905Y-85447143D01*
X87431524Y-85494762D01*
X87526762Y-85542381D01*
X87717239Y-85542381D01*
X87812477Y-85494762D01*
X87860096Y-85447143D01*
X87907715Y-85351905D01*
X87907715Y-85161429D01*
X87860096Y-85066190D01*
X87812477Y-85018571D01*
X87717239Y-84970952D01*
X94575334Y-85701143D02*
X94527715Y-85748762D01*
X94384858Y-85796381D01*
X94289620Y-85796381D01*
X94146762Y-85748762D01*
X94051524Y-85653524D01*
X94003905Y-85558286D01*
X93956286Y-85367810D01*
X93956286Y-85224952D01*
X94003905Y-85034476D01*
X94051524Y-84939238D01*
X94146762Y-84844000D01*
X94289620Y-84796381D01*
X94384858Y-84796381D01*
X94527715Y-84844000D01*
X94575334Y-84891619D01*
X95051524Y-85796381D02*
X95242000Y-85796381D01*
X95337239Y-85748762D01*
X95384858Y-85701143D01*
X95480096Y-85558286D01*
X95527715Y-85367810D01*
X95527715Y-84986857D01*
X95480096Y-84891619D01*
X95432477Y-84844000D01*
X95337239Y-84796381D01*
X95146762Y-84796381D01*
X95051524Y-84844000D01*
X95003905Y-84891619D01*
X94956286Y-84986857D01*
X94956286Y-85224952D01*
X95003905Y-85320190D01*
X95051524Y-85367810D01*
X95146762Y-85415429D01*
X95337239Y-85415429D01*
X95432477Y-85367810D01*
X95480096Y-85320190D01*
X95527715Y-85224952D01*
X60825143Y-81891143D02*
X60777524Y-81938762D01*
X60634667Y-81986381D01*
X60539429Y-81986381D01*
X60396571Y-81938762D01*
X60301333Y-81843524D01*
X60253714Y-81748286D01*
X60206095Y-81557810D01*
X60206095Y-81414952D01*
X60253714Y-81224476D01*
X60301333Y-81129238D01*
X60396571Y-81034000D01*
X60539429Y-80986381D01*
X60634667Y-80986381D01*
X60777524Y-81034000D01*
X60825143Y-81081619D01*
X61777524Y-81986381D02*
X61206095Y-81986381D01*
X61491809Y-81986381D02*
X61491809Y-80986381D01*
X61396571Y-81129238D01*
X61301333Y-81224476D01*
X61206095Y-81272095D01*
X62396571Y-80986381D02*
X62491810Y-80986381D01*
X62587048Y-81034000D01*
X62634667Y-81081619D01*
X62682286Y-81176857D01*
X62729905Y-81367333D01*
X62729905Y-81605429D01*
X62682286Y-81795905D01*
X62634667Y-81891143D01*
X62587048Y-81938762D01*
X62491810Y-81986381D01*
X62396571Y-81986381D01*
X62301333Y-81938762D01*
X62253714Y-81891143D01*
X62206095Y-81795905D01*
X62158476Y-81605429D01*
X62158476Y-81367333D01*
X62206095Y-81176857D01*
X62253714Y-81081619D01*
X62301333Y-81034000D01*
X62396571Y-80986381D01*
X79113143Y-65127143D02*
X79065524Y-65174762D01*
X78922667Y-65222381D01*
X78827429Y-65222381D01*
X78684571Y-65174762D01*
X78589333Y-65079524D01*
X78541714Y-64984286D01*
X78494095Y-64793810D01*
X78494095Y-64650952D01*
X78541714Y-64460476D01*
X78589333Y-64365238D01*
X78684571Y-64270000D01*
X78827429Y-64222381D01*
X78922667Y-64222381D01*
X79065524Y-64270000D01*
X79113143Y-64317619D01*
X80065524Y-65222381D02*
X79494095Y-65222381D01*
X79779809Y-65222381D02*
X79779809Y-64222381D01*
X79684571Y-64365238D01*
X79589333Y-64460476D01*
X79494095Y-64508095D01*
X81017905Y-65222381D02*
X80446476Y-65222381D01*
X80732190Y-65222381D02*
X80732190Y-64222381D01*
X80636952Y-64365238D01*
X80541714Y-64460476D01*
X80446476Y-64508095D01*
X77843143Y-85701143D02*
X77795524Y-85748762D01*
X77652667Y-85796381D01*
X77557429Y-85796381D01*
X77414571Y-85748762D01*
X77319333Y-85653524D01*
X77271714Y-85558286D01*
X77224095Y-85367810D01*
X77224095Y-85224952D01*
X77271714Y-85034476D01*
X77319333Y-84939238D01*
X77414571Y-84844000D01*
X77557429Y-84796381D01*
X77652667Y-84796381D01*
X77795524Y-84844000D01*
X77843143Y-84891619D01*
X78795524Y-85796381D02*
X78224095Y-85796381D01*
X78509809Y-85796381D02*
X78509809Y-84796381D01*
X78414571Y-84939238D01*
X78319333Y-85034476D01*
X78224095Y-85082095D01*
X79176476Y-84891619D02*
X79224095Y-84844000D01*
X79319333Y-84796381D01*
X79557429Y-84796381D01*
X79652667Y-84844000D01*
X79700286Y-84891619D01*
X79747905Y-84986857D01*
X79747905Y-85082095D01*
X79700286Y-85224952D01*
X79128857Y-85796381D01*
X79747905Y-85796381D01*
X59967905Y-52268381D02*
X59967905Y-51268381D01*
X60206000Y-51268381D01*
X60348858Y-51316000D01*
X60444096Y-51411238D01*
X60491715Y-51506476D01*
X60539334Y-51696952D01*
X60539334Y-51839810D01*
X60491715Y-52030286D01*
X60444096Y-52125524D01*
X60348858Y-52220762D01*
X60206000Y-52268381D01*
X59967905Y-52268381D01*
X61491715Y-52268381D02*
X60920286Y-52268381D01*
X61206000Y-52268381D02*
X61206000Y-51268381D01*
X61110762Y-51411238D01*
X61015524Y-51506476D01*
X60920286Y-51554095D01*
X95424667Y-73366381D02*
X95424667Y-74080667D01*
X95377047Y-74223524D01*
X95281809Y-74318762D01*
X95138952Y-74366381D01*
X95043714Y-74366381D01*
X96424667Y-74366381D02*
X95853238Y-74366381D01*
X96138952Y-74366381D02*
X96138952Y-73366381D01*
X96043714Y-73509238D01*
X95948476Y-73604476D01*
X95853238Y-73652095D01*
X69008667Y-54697381D02*
X69008667Y-55411667D01*
X68961047Y-55554524D01*
X68865809Y-55649762D01*
X68722952Y-55697381D01*
X68627714Y-55697381D01*
X69437238Y-54792619D02*
X69484857Y-54745000D01*
X69580095Y-54697381D01*
X69818191Y-54697381D01*
X69913429Y-54745000D01*
X69961048Y-54792619D01*
X70008667Y-54887857D01*
X70008667Y-54983095D01*
X69961048Y-55125952D01*
X69389619Y-55697381D01*
X70008667Y-55697381D01*
X57427905Y-77160381D02*
X57427905Y-76160381D01*
X57808858Y-76160381D01*
X57904096Y-76208000D01*
X57951715Y-76255619D01*
X57999334Y-76350857D01*
X57999334Y-76493714D01*
X57951715Y-76588952D01*
X57904096Y-76636571D01*
X57808858Y-76684190D01*
X57427905Y-76684190D01*
X58332667Y-76160381D02*
X58951715Y-76160381D01*
X58618381Y-76541333D01*
X58761239Y-76541333D01*
X58856477Y-76588952D01*
X58904096Y-76636571D01*
X58951715Y-76731810D01*
X58951715Y-76969905D01*
X58904096Y-77065143D01*
X58856477Y-77112762D01*
X58761239Y-77160381D01*
X58475524Y-77160381D01*
X58380286Y-77112762D01*
X58332667Y-77065143D01*
X56729334Y-55390381D02*
X56396000Y-54914190D01*
X56157905Y-55390381D02*
X56157905Y-54390381D01*
X56538858Y-54390381D01*
X56634096Y-54438000D01*
X56681715Y-54485619D01*
X56729334Y-54580857D01*
X56729334Y-54723714D01*
X56681715Y-54818952D01*
X56634096Y-54866571D01*
X56538858Y-54914190D01*
X56157905Y-54914190D01*
X57681715Y-55390381D02*
X57110286Y-55390381D01*
X57396000Y-55390381D02*
X57396000Y-54390381D01*
X57300762Y-54533238D01*
X57205524Y-54628476D01*
X57110286Y-54676095D01*
X61468095Y-64730381D02*
X61468095Y-65539905D01*
X61515714Y-65635143D01*
X61563333Y-65682762D01*
X61658571Y-65730381D01*
X61849048Y-65730381D01*
X61944286Y-65682762D01*
X61991905Y-65635143D01*
X62039524Y-65539905D01*
X62039524Y-64730381D01*
X63039524Y-65730381D02*
X62468095Y-65730381D01*
X62753809Y-65730381D02*
X62753809Y-64730381D01*
X62658571Y-64873238D01*
X62563333Y-64968476D01*
X62468095Y-65016095D01*
X88138095Y-89622381D02*
X88138095Y-90431905D01*
X88185714Y-90527143D01*
X88233333Y-90574762D01*
X88328571Y-90622381D01*
X88519048Y-90622381D01*
X88614286Y-90574762D01*
X88661905Y-90527143D01*
X88709524Y-90431905D01*
X88709524Y-89622381D01*
X89138095Y-89717619D02*
X89185714Y-89670000D01*
X89280952Y-89622381D01*
X89519048Y-89622381D01*
X89614286Y-89670000D01*
X89661905Y-89717619D01*
X89709524Y-89812857D01*
X89709524Y-89908095D01*
X89661905Y-90050952D01*
X89090476Y-90622381D01*
X89709524Y-90622381D01*
X61079143Y-75541143D02*
X61031524Y-75588762D01*
X60888667Y-75636381D01*
X60793429Y-75636381D01*
X60650571Y-75588762D01*
X60555333Y-75493524D01*
X60507714Y-75398286D01*
X60460095Y-75207810D01*
X60460095Y-75064952D01*
X60507714Y-74874476D01*
X60555333Y-74779238D01*
X60650571Y-74684000D01*
X60793429Y-74636381D01*
X60888667Y-74636381D01*
X61031524Y-74684000D01*
X61079143Y-74731619D01*
X62031524Y-75636381D02*
X61460095Y-75636381D01*
X61745809Y-75636381D02*
X61745809Y-74636381D01*
X61650571Y-74779238D01*
X61555333Y-74874476D01*
X61460095Y-74922095D01*
X62364857Y-74636381D02*
X62983905Y-74636381D01*
X62650571Y-75017333D01*
X62793429Y-75017333D01*
X62888667Y-75064952D01*
X62936286Y-75112571D01*
X62983905Y-75207810D01*
X62983905Y-75445905D01*
X62936286Y-75541143D01*
X62888667Y-75588762D01*
X62793429Y-75636381D01*
X62507714Y-75636381D01*
X62412476Y-75588762D01*
X62364857Y-75541143D01*
X63587334Y-85796381D02*
X63254000Y-85320190D01*
X63015905Y-85796381D02*
X63015905Y-84796381D01*
X63396858Y-84796381D01*
X63492096Y-84844000D01*
X63539715Y-84891619D01*
X63587334Y-84986857D01*
X63587334Y-85129714D01*
X63539715Y-85224952D01*
X63492096Y-85272571D01*
X63396858Y-85320190D01*
X63015905Y-85320190D01*
X63968286Y-84891619D02*
X64015905Y-84844000D01*
X64111143Y-84796381D01*
X64349239Y-84796381D01*
X64444477Y-84844000D01*
X64492096Y-84891619D01*
X64539715Y-84986857D01*
X64539715Y-85082095D01*
X64492096Y-85224952D01*
X63920667Y-85796381D01*
X64539715Y-85796381D01*
X71493143Y-87479143D02*
X71445524Y-87526762D01*
X71302667Y-87574381D01*
X71207429Y-87574381D01*
X71064571Y-87526762D01*
X70969333Y-87431524D01*
X70921714Y-87336286D01*
X70874095Y-87145810D01*
X70874095Y-87002952D01*
X70921714Y-86812476D01*
X70969333Y-86717238D01*
X71064571Y-86622000D01*
X71207429Y-86574381D01*
X71302667Y-86574381D01*
X71445524Y-86622000D01*
X71493143Y-86669619D01*
X72445524Y-87574381D02*
X71874095Y-87574381D01*
X72159809Y-87574381D02*
X72159809Y-86574381D01*
X72064571Y-86717238D01*
X71969333Y-86812476D01*
X71874095Y-86860095D01*
X73302667Y-86907714D02*
X73302667Y-87574381D01*
X73064571Y-86526762D02*
X72826476Y-87241048D01*
X73445524Y-87241048D01*
X66000381Y-93725905D02*
X66809905Y-93725905D01*
X66905143Y-93678286D01*
X66952762Y-93630667D01*
X67000381Y-93535429D01*
X67000381Y-93344952D01*
X66952762Y-93249714D01*
X66905143Y-93202095D01*
X66809905Y-93154476D01*
X66000381Y-93154476D01*
X66333714Y-92249714D02*
X67000381Y-92249714D01*
X65952762Y-92487810D02*
X66667048Y-92725905D01*
X66667048Y-92106857D01*
%LPC*%
D16*
X66548000Y-83820000D03*
D17*
X74168000Y-76200000D03*
X69088000Y-83820000D03*
X71628000Y-76200000D03*
X71628000Y-83820000D03*
X69088000Y-76200000D03*
X74168000Y-83820000D03*
X66548000Y-76200000D03*
D18*
X71374000Y-89154000D03*
X71374000Y-90424000D03*
X71374000Y-91694000D03*
X71374000Y-92964000D03*
X71374000Y-94234000D03*
X71374000Y-95504000D03*
X71374000Y-96774000D03*
X77724000Y-96774000D03*
X77724000Y-95504000D03*
X77724000Y-92964000D03*
X77724000Y-91694000D03*
X77724000Y-90424000D03*
X77724000Y-89154000D03*
X77724000Y-94234000D03*
D19*
X104140000Y-86360000D03*
D20*
X104140000Y-82860000D03*
D21*
X80645000Y-88265000D03*
X81915000Y-88265000D03*
X83185000Y-88265000D03*
X84455000Y-88265000D03*
X84455000Y-94615000D03*
X83185000Y-94615000D03*
X81915000Y-94615000D03*
X80645000Y-94615000D03*
X93345000Y-88265000D03*
X94615000Y-88265000D03*
X95885000Y-88265000D03*
X97155000Y-88265000D03*
X97155000Y-94615000D03*
X95885000Y-94615000D03*
X94615000Y-94615000D03*
X93345000Y-94615000D03*
D22*
X72992000Y-70104000D03*
X78392000Y-70104000D03*
D23*
X67576000Y-68072000D03*
X69076000Y-68072000D03*
X83324000Y-86360000D03*
X84824000Y-86360000D03*
D24*
X54610000Y-63340000D03*
X54610000Y-68740000D03*
D23*
X55892000Y-59944000D03*
X57392000Y-59944000D03*
D24*
X88138000Y-82456000D03*
X88138000Y-77056000D03*
D23*
X68060000Y-74168000D03*
X66560000Y-74168000D03*
X86372000Y-86360000D03*
X87872000Y-86360000D03*
X94500000Y-86614000D03*
X96000000Y-86614000D03*
D25*
X61468000Y-84316000D03*
X61468000Y-82816000D03*
X80264000Y-66179000D03*
X80264000Y-67679000D03*
D23*
X79236000Y-86614000D03*
X77736000Y-86614000D03*
D26*
X63246000Y-57150000D03*
D27*
X60706000Y-57150000D03*
D28*
X83448000Y-55050000D03*
X83448000Y-61400000D03*
X83448000Y-67750000D03*
X94878000Y-55050000D03*
X94878000Y-61400000D03*
X94878000Y-67750000D03*
D29*
X83448000Y-58250000D03*
X94878000Y-58250000D03*
D30*
X85578000Y-64600000D03*
D31*
X72898000Y-64643000D03*
X72898000Y-58643000D03*
X68198000Y-61643000D03*
D32*
X58420000Y-85090000D03*
D33*
X58420000Y-82590000D03*
X58420000Y-80090000D03*
D34*
X56146000Y-56388000D03*
X57646000Y-56388000D03*
D35*
X64510000Y-63110000D03*
X59950000Y-63110000D03*
D36*
X62230000Y-69410000D03*
D21*
X86995000Y-88265000D03*
X88265000Y-88265000D03*
X89535000Y-88265000D03*
X90805000Y-88265000D03*
X90805000Y-94615000D03*
X89535000Y-94615000D03*
X88265000Y-94615000D03*
X86995000Y-94615000D03*
D37*
X55118000Y-96012000D03*
X108458000Y-96012000D03*
D25*
X61722000Y-76466000D03*
X61722000Y-77966000D03*
D34*
X64504000Y-86614000D03*
X63004000Y-86614000D03*
D23*
X70092000Y-87122000D03*
X68592000Y-87122000D03*
D18*
X61976000Y-89154000D03*
X61976000Y-90424000D03*
X61976000Y-91694000D03*
X61976000Y-92964000D03*
X61976000Y-94234000D03*
X61976000Y-95504000D03*
X61976000Y-96774000D03*
X68326000Y-96774000D03*
X68326000Y-95504000D03*
X68326000Y-92964000D03*
X68326000Y-91694000D03*
X68326000Y-90424000D03*
X68326000Y-89154000D03*
X68326000Y-94234000D03*
M02*
