M48
;DRILL file {KiCad 4.0.7} date 08/01/18 14:34:21
;FORMAT={-:-/ absolute / inch / decimal}
FMAT,2
INCH,TZ
T1C0.025
T2C0.030
T3C0.031
T4C0.035
T5C0.039
T6C0.047
T7C0.059
%
G90
G05
M72
T1
X2.1Y-2.7
X2.15Y-2.62
X2.15Y-2.8
X2.16Y-2.36
X2.18Y-2.22
X2.2Y-2.7
X2.33Y-2.62
X2.33Y-2.66
X2.33Y-2.7
X2.33Y-2.74
X2.33Y-2.78
X2.33Y-2.82
X2.33Y-2.86
X2.34Y-3.45
X2.37Y-2.6
X2.37Y-2.86
X2.39Y-3.81
X2.41Y-2.6
X2.41Y-2.86
X2.42Y-3.36
X2.44Y-3.41
X2.45Y-2.6
X2.45Y-2.86
X2.47Y-3.01
X2.49Y-2.6
X2.49Y-2.86
X2.5Y-3.23
X2.53Y-2.6
X2.53Y-2.86
X2.57Y-2.62
X2.57Y-2.66
X2.57Y-2.7
X2.57Y-2.74
X2.57Y-2.78
X2.57Y-2.82
X2.57Y-2.86
X2.59Y-3.43
X2.64Y-3.23
X2.64Y-3.43
X2.64Y-3.71
X2.64Y-3.76
X2.66Y-2.72
X2.69Y-2.47
X2.695Y-2.865
X2.76Y-3.39
X2.82Y-2.835
X2.85Y-3.51
X2.85Y-3.56
X2.85Y-3.81
X2.91Y-3.44
X2.93Y-3.78
X2.99Y-2.665
X3.01Y-3.56
X3.01Y-3.61
X3.075Y-2.6
X3.085Y-2.71
X3.09Y-2.815
X3.12Y-2.605
X3.17Y-3.41
X3.175Y-2.76
X3.22Y-3.82
X3.23Y-3.54
X3.27Y-3.69
X3.27Y-3.78
X3.37Y-3.37
X3.41Y-3.03
X3.42Y-3.54
X3.42Y-3.78
X3.47Y-2.95
X3.47Y-3.12
X3.53Y-3.03
X3.53Y-3.78
X3.56Y-3.25
X3.68Y-3.41
X3.77Y-3.69
X3.78Y-3.36
X3.82Y-3.78
T2
X3.52Y-3.63
X3.52Y-3.68
T3
X2.62Y-3.
X2.62Y-3.3
X2.72Y-3.
X2.72Y-3.3
X2.82Y-3.
X2.82Y-3.3
X2.92Y-3.
X2.92Y-3.3
T4
X2.3Y-3.1531
X2.3Y-3.2516
X2.3Y-3.35
X2.39Y-2.25
X2.49Y-2.25
T6
X4.1Y-3.2622
X4.1Y-3.4
T7
X3.2854Y-2.1673
X3.2854Y-2.4173
X3.2854Y-2.6673
X3.7354Y-2.1673
X3.7354Y-2.4173
X3.7354Y-2.6673
T5
X2.685Y-2.3875G85X2.685Y-2.4663
G05
X2.9094Y-2.3088G85X2.8306Y-2.3088
G05
X2.9094Y-2.545G85X2.8306Y-2.545
G05
T0
M30
