G04 #@! TF.FileFunction,Copper,L1,Top,Signal*
%FSLAX46Y46*%
G04 Gerber Fmt 4.6, Leading zero omitted, Abs format (unit mm)*
G04 Created by KiCad (PCBNEW 4.0.7) date 08/01/18 14:34:15*
%MOMM*%
%LPD*%
G01*
G04 APERTURE LIST*
%ADD10C,0.150000*%
%ADD11R,1.600000X1.600000*%
%ADD12O,1.600000X1.600000*%
%ADD13R,1.143000X0.508000*%
%ADD14R,3.600000X1.800000*%
%ADD15O,3.600000X1.800000*%
%ADD16R,0.508000X1.143000*%
%ADD17R,3.500000X1.600000*%
%ADD18R,0.800000X0.750000*%
%ADD19R,1.600000X3.500000*%
%ADD20R,0.750000X0.800000*%
%ADD21R,1.800000X1.800000*%
%ADD22C,1.800000*%
%ADD23C,2.500000*%
%ADD24R,3.500000X3.500000*%
%ADD25R,1.850000X1.850000*%
%ADD26C,1.850000*%
%ADD27R,0.500000X0.900000*%
%ADD28R,1.200000X2.200000*%
%ADD29R,5.800000X6.400000*%
%ADD30R,2.750000X3.050000*%
%ADD31C,7.000000*%
%ADD32C,0.889000*%
%ADD33C,1.270000*%
%ADD34C,0.508000*%
%ADD35C,1.016000*%
%ADD36C,1.524000*%
%ADD37C,0.762000*%
%ADD38C,0.304800*%
G04 APERTURE END LIST*
D10*
D11*
X66548000Y-83820000D03*
D12*
X74168000Y-76200000D03*
X69088000Y-83820000D03*
X71628000Y-76200000D03*
X71628000Y-83820000D03*
X69088000Y-76200000D03*
X74168000Y-83820000D03*
X66548000Y-76200000D03*
D13*
X71374000Y-89154000D03*
X71374000Y-90424000D03*
X71374000Y-91694000D03*
X71374000Y-92964000D03*
X71374000Y-94234000D03*
X71374000Y-95504000D03*
X71374000Y-96774000D03*
X77724000Y-96774000D03*
X77724000Y-95504000D03*
X77724000Y-92964000D03*
X77724000Y-91694000D03*
X77724000Y-90424000D03*
X77724000Y-89154000D03*
X77724000Y-94234000D03*
D14*
X104140000Y-86360000D03*
D15*
X104140000Y-82860000D03*
D16*
X80645000Y-88265000D03*
X81915000Y-88265000D03*
X83185000Y-88265000D03*
X84455000Y-88265000D03*
X84455000Y-94615000D03*
X83185000Y-94615000D03*
X81915000Y-94615000D03*
X80645000Y-94615000D03*
X93345000Y-88265000D03*
X94615000Y-88265000D03*
X95885000Y-88265000D03*
X97155000Y-88265000D03*
X97155000Y-94615000D03*
X95885000Y-94615000D03*
X94615000Y-94615000D03*
X93345000Y-94615000D03*
D17*
X72992000Y-70104000D03*
X78392000Y-70104000D03*
D18*
X67576000Y-68072000D03*
X69076000Y-68072000D03*
X83324000Y-86360000D03*
X84824000Y-86360000D03*
D19*
X54610000Y-63340000D03*
X54610000Y-68740000D03*
D18*
X55892000Y-59944000D03*
X57392000Y-59944000D03*
D19*
X88138000Y-82456000D03*
X88138000Y-77056000D03*
D18*
X68060000Y-74168000D03*
X66560000Y-74168000D03*
X86372000Y-86360000D03*
X87872000Y-86360000D03*
X94500000Y-86614000D03*
X96000000Y-86614000D03*
D20*
X61468000Y-84316000D03*
X61468000Y-82816000D03*
X80264000Y-66179000D03*
X80264000Y-67679000D03*
D18*
X79236000Y-86614000D03*
X77736000Y-86614000D03*
D21*
X63246000Y-57150000D03*
D22*
X60706000Y-57150000D03*
D23*
X83448000Y-55050000D03*
X83448000Y-61400000D03*
X83448000Y-67750000D03*
X94878000Y-55050000D03*
X94878000Y-61400000D03*
X94878000Y-67750000D03*
D24*
X72898000Y-64643000D03*
X72898000Y-58643000D03*
X68198000Y-61643000D03*
D25*
X58420000Y-85090000D03*
D26*
X58420000Y-82590000D03*
X58420000Y-80090000D03*
D27*
X56146000Y-56388000D03*
X57646000Y-56388000D03*
D28*
X64510000Y-63110000D03*
X59950000Y-63110000D03*
D29*
X62230000Y-69410000D03*
D30*
X60705000Y-71085000D03*
X63755000Y-67735000D03*
X63755000Y-71085000D03*
X60705000Y-67735000D03*
D16*
X86995000Y-88265000D03*
X88265000Y-88265000D03*
X89535000Y-88265000D03*
X90805000Y-88265000D03*
X90805000Y-94615000D03*
X89535000Y-94615000D03*
X88265000Y-94615000D03*
X86995000Y-94615000D03*
D31*
X55118000Y-96012000D03*
X108458000Y-96012000D03*
D20*
X61722000Y-76466000D03*
X61722000Y-77966000D03*
D27*
X64504000Y-86614000D03*
X63004000Y-86614000D03*
D18*
X70092000Y-87122000D03*
X68592000Y-87122000D03*
D13*
X61976000Y-89154000D03*
X61976000Y-90424000D03*
X61976000Y-91694000D03*
X61976000Y-92964000D03*
X61976000Y-94234000D03*
X61976000Y-95504000D03*
X61976000Y-96774000D03*
X68326000Y-96774000D03*
X68326000Y-95504000D03*
X68326000Y-92964000D03*
X68326000Y-91694000D03*
X68326000Y-90424000D03*
X68326000Y-89154000D03*
X68326000Y-94234000D03*
D32*
X67056000Y-82042000D03*
X63500000Y-82042000D03*
X59436000Y-87630000D03*
X65786000Y-87122000D03*
X67056000Y-87122000D03*
X73914000Y-87376000D03*
X67564000Y-69088000D03*
X68453000Y-72771000D03*
X78486000Y-71501000D03*
X78359000Y-68834000D03*
X80645000Y-70104000D03*
X79248000Y-66167000D03*
X85598000Y-85598000D03*
X80518000Y-86614000D03*
X76454000Y-90424000D03*
X76454000Y-91694000D03*
X72390000Y-90424000D03*
X72390000Y-89154000D03*
X70104000Y-86106000D03*
X72390000Y-96774000D03*
X67056000Y-95504000D03*
X67056000Y-94234000D03*
X60706000Y-96774000D03*
X61976000Y-86614000D03*
X61214000Y-66040000D03*
X60198000Y-66040000D03*
X59182000Y-66548000D03*
X59182000Y-67564000D03*
X59182000Y-68580000D03*
X59182000Y-69596000D03*
X59182000Y-70612000D03*
X59182000Y-71628000D03*
X59182000Y-72644000D03*
X60198000Y-72644000D03*
X61214000Y-72644000D03*
X62230000Y-72644000D03*
X63246000Y-72644000D03*
X64262000Y-72644000D03*
X65278000Y-72644000D03*
X65278000Y-71628000D03*
X65278000Y-70612000D03*
X65278000Y-69596000D03*
X65278000Y-68580000D03*
X65278000Y-67564000D03*
X65278000Y-66548000D03*
X64262000Y-66040000D03*
X63246000Y-66040000D03*
X62230000Y-66040000D03*
X62738000Y-76454000D03*
X61468000Y-85344000D03*
X53340000Y-68580000D03*
X55880000Y-68580000D03*
X54610000Y-71120000D03*
X54610000Y-66548000D03*
X88138000Y-74930000D03*
X88138000Y-79248000D03*
X89662000Y-76962000D03*
X86614000Y-76962000D03*
X83058000Y-93726000D03*
D33*
X89408000Y-93472000D03*
X89408000Y-92202000D03*
D32*
X95758000Y-93726000D03*
X93472000Y-86614000D03*
X55372000Y-56388000D03*
X54864000Y-59944000D03*
X68326000Y-62738000D03*
X90424000Y-82550000D03*
X96012000Y-85344000D03*
X75946000Y-67691000D03*
X71628000Y-72009000D03*
X78105000Y-66040000D03*
X82042000Y-89916000D03*
X86868000Y-89916000D03*
X74422000Y-96012000D03*
X83058000Y-96012000D03*
X86868000Y-96012000D03*
X89662000Y-96012000D03*
X81788000Y-97028000D03*
X97028000Y-96012000D03*
D34*
X69088000Y-83820000D02*
X69088000Y-83058000D01*
X69088000Y-83058000D02*
X68072000Y-82042000D01*
X68072000Y-82042000D02*
X67056000Y-82042000D01*
X63500000Y-82042000D02*
X62726000Y-82816000D01*
X62726000Y-82816000D02*
X61468000Y-82816000D01*
X58646000Y-82816000D02*
X58420000Y-82590000D01*
X61468000Y-82816000D02*
X58646000Y-82816000D01*
X67056000Y-87122000D02*
X65786000Y-87122000D01*
X58674000Y-88392000D02*
X55118000Y-88392000D01*
X59436000Y-87630000D02*
X58674000Y-88392000D01*
X77736000Y-86614000D02*
X74676000Y-86614000D01*
X67056000Y-87122000D02*
X68592000Y-87122000D01*
X74676000Y-86614000D02*
X73914000Y-87376000D01*
X77736000Y-86614000D02*
X77736000Y-89142000D01*
X77736000Y-89142000D02*
X77724000Y-89154000D01*
X68592000Y-87122000D02*
X68592000Y-88888000D01*
X68592000Y-88888000D02*
X68326000Y-89154000D01*
X66548000Y-76200000D02*
X66548000Y-74180000D01*
X66548000Y-74180000D02*
X66560000Y-74168000D01*
X66560000Y-74168000D02*
X52070000Y-74168000D01*
X66548000Y-76200000D02*
X66294000Y-76200000D01*
X61722000Y-77966000D02*
X61722000Y-79248000D01*
X60880000Y-80090000D02*
X58420000Y-80090000D01*
X61722000Y-79248000D02*
X60880000Y-80090000D01*
X61722000Y-77966000D02*
X52082000Y-77966000D01*
X52082000Y-77966000D02*
X52070000Y-77978000D01*
X58848000Y-80518000D02*
X58420000Y-80090000D01*
X67576000Y-68072000D02*
X67576000Y-69076000D01*
X67576000Y-69076000D02*
X67564000Y-69088000D01*
X68060000Y-74168000D02*
X68060000Y-73164000D01*
X68060000Y-73164000D02*
X68453000Y-72771000D01*
X78392000Y-70104000D02*
X78392000Y-71407000D01*
X78392000Y-71407000D02*
X78486000Y-71501000D01*
X78392000Y-70104000D02*
X78392000Y-68867000D01*
X78392000Y-68867000D02*
X78359000Y-68834000D01*
X78392000Y-70104000D02*
X80645000Y-70104000D01*
X80264000Y-66179000D02*
X79260000Y-66179000D01*
X79260000Y-66179000D02*
X79248000Y-66167000D01*
D35*
X86372000Y-86360000D02*
X86360000Y-86360000D01*
X86360000Y-86360000D02*
X85598000Y-85598000D01*
X84824000Y-86360000D02*
X84836000Y-86360000D01*
X84836000Y-86360000D02*
X85598000Y-85598000D01*
D34*
X79236000Y-86614000D02*
X80518000Y-86614000D01*
X77724000Y-90424000D02*
X76454000Y-90424000D01*
X77724000Y-91694000D02*
X76454000Y-91694000D01*
X71374000Y-90424000D02*
X72390000Y-90424000D01*
X71374000Y-89154000D02*
X72390000Y-89154000D01*
X70092000Y-87122000D02*
X70092000Y-86118000D01*
X70092000Y-86118000D02*
X70104000Y-86106000D01*
X71374000Y-96774000D02*
X72390000Y-96774000D01*
X68326000Y-95504000D02*
X67056000Y-95504000D01*
X68326000Y-94234000D02*
X67056000Y-94234000D01*
X61976000Y-96774000D02*
X60706000Y-96774000D01*
X63004000Y-86614000D02*
X61976000Y-86614000D01*
X68060000Y-74168000D02*
X68072000Y-74168000D01*
X62230000Y-69410000D02*
X62230000Y-66040000D01*
X59690000Y-66040000D02*
X60198000Y-66040000D01*
X59182000Y-66548000D02*
X59690000Y-66040000D01*
X59182000Y-68580000D02*
X59182000Y-67564000D01*
X59182000Y-70612000D02*
X59182000Y-69596000D01*
X59182000Y-72644000D02*
X59182000Y-71628000D01*
X61214000Y-72644000D02*
X60198000Y-72644000D01*
X63246000Y-72644000D02*
X62230000Y-72644000D01*
X65278000Y-72644000D02*
X64262000Y-72644000D01*
X65278000Y-70612000D02*
X65278000Y-71628000D01*
X65278000Y-68580000D02*
X65278000Y-69596000D01*
X65278000Y-66548000D02*
X65278000Y-67564000D01*
X63246000Y-66040000D02*
X64262000Y-66040000D01*
X62726000Y-76466000D02*
X62738000Y-76454000D01*
X61722000Y-76466000D02*
X62726000Y-76466000D01*
X61468000Y-84316000D02*
X61468000Y-85344000D01*
X54610000Y-68740000D02*
X53500000Y-68740000D01*
X53500000Y-68740000D02*
X53340000Y-68580000D01*
X54610000Y-68740000D02*
X55720000Y-68740000D01*
X55720000Y-68740000D02*
X55880000Y-68580000D01*
X54610000Y-68740000D02*
X54610000Y-71120000D01*
X54610000Y-68740000D02*
X54610000Y-66548000D01*
X88138000Y-77056000D02*
X88138000Y-74930000D01*
X88138000Y-77056000D02*
X88138000Y-79248000D01*
X88138000Y-77056000D02*
X89568000Y-77056000D01*
X89568000Y-77056000D02*
X89662000Y-76962000D01*
X88138000Y-77056000D02*
X86708000Y-77056000D01*
X86708000Y-77056000D02*
X86614000Y-76962000D01*
X83185000Y-94615000D02*
X83185000Y-93853000D01*
X83185000Y-93853000D02*
X83058000Y-93726000D01*
D35*
X89408000Y-92202000D02*
X89408000Y-93472000D01*
X89535000Y-93599000D02*
X89408000Y-93472000D01*
X89535000Y-93599000D02*
X89535000Y-94615000D01*
D34*
X95885000Y-94615000D02*
X95885000Y-93853000D01*
X95885000Y-93853000D02*
X95758000Y-93726000D01*
X94500000Y-86614000D02*
X93472000Y-86614000D01*
X56146000Y-56388000D02*
X55372000Y-56388000D01*
X55892000Y-59944000D02*
X54864000Y-59944000D01*
X69076000Y-68072000D02*
X69076000Y-66663000D01*
X69076000Y-66663000D02*
X68961000Y-66548000D01*
X64510000Y-63110000D02*
X64510000Y-63240000D01*
X64510000Y-63240000D02*
X65532000Y-64262000D01*
D35*
X64510000Y-63240000D02*
X65532000Y-64262000D01*
X65532000Y-64262000D02*
X67818000Y-66548000D01*
X67818000Y-66548000D02*
X68961000Y-66548000D01*
X68961000Y-66548000D02*
X69076000Y-66663000D01*
X69076000Y-66663000D02*
X69076000Y-69838000D01*
X69076000Y-69838000D02*
X69342000Y-70104000D01*
X69342000Y-70104000D02*
X72992000Y-70104000D01*
D36*
X87872000Y-86360000D02*
X87872000Y-82722000D01*
X87872000Y-82722000D02*
X88138000Y-82456000D01*
D35*
X88265000Y-88265000D02*
X88265000Y-87503000D01*
X87872000Y-87110000D02*
X87872000Y-86360000D01*
X88265000Y-87503000D02*
X87872000Y-87110000D01*
D36*
X88126000Y-82468000D02*
X88138000Y-82456000D01*
D35*
X88126000Y-82468000D02*
X88138000Y-82456000D01*
D34*
X88138000Y-82456000D02*
X87790000Y-82456000D01*
X87790000Y-82456000D02*
X86868000Y-81534000D01*
X96000000Y-86614000D02*
X96000000Y-85356000D01*
X90330000Y-82456000D02*
X88138000Y-82456000D01*
X90424000Y-82550000D02*
X90330000Y-82456000D01*
X96000000Y-85356000D02*
X96012000Y-85344000D01*
X83324000Y-86360000D02*
X83324000Y-85078000D01*
X83324000Y-85078000D02*
X85946000Y-82456000D01*
X85946000Y-82456000D02*
X88138000Y-82456000D01*
X83185000Y-88265000D02*
X83185000Y-86499000D01*
X83185000Y-86499000D02*
X83324000Y-86360000D01*
X95885000Y-88265000D02*
X95885000Y-86729000D01*
X95885000Y-86729000D02*
X96000000Y-86614000D01*
X69088000Y-76200000D02*
X69088000Y-74549000D01*
X75958000Y-67679000D02*
X80264000Y-67679000D01*
X75946000Y-67691000D02*
X75958000Y-67679000D01*
X69088000Y-74549000D02*
X71628000Y-72009000D01*
X80264000Y-67679000D02*
X83377000Y-67679000D01*
X83377000Y-67679000D02*
X83448000Y-67750000D01*
X69088000Y-76200000D02*
X69088000Y-75565000D01*
X64897000Y-57150000D02*
X63246000Y-57150000D01*
X66167000Y-55880000D02*
X64897000Y-57150000D01*
X75438000Y-55880000D02*
X66167000Y-55880000D01*
X76327000Y-56769000D02*
X75438000Y-55880000D01*
X76327000Y-64262000D02*
X76327000Y-56769000D01*
X78105000Y-66040000D02*
X76327000Y-64262000D01*
X57646000Y-56388000D02*
X59944000Y-56388000D01*
X59944000Y-56388000D02*
X60706000Y-57150000D01*
D37*
X86995000Y-88265000D02*
X86995000Y-89789000D01*
X81915000Y-89789000D02*
X81915000Y-88265000D01*
X82042000Y-89916000D02*
X81915000Y-89789000D01*
X86995000Y-89789000D02*
X86868000Y-89916000D01*
X84455000Y-88265000D02*
X84455000Y-89535000D01*
X86995000Y-92075000D02*
X86995000Y-94615000D01*
X84455000Y-89535000D02*
X86995000Y-92075000D01*
D34*
X86995000Y-94615000D02*
X86995000Y-94361000D01*
X84328000Y-96012000D02*
X83058000Y-96012000D01*
X73914000Y-95504000D02*
X71374000Y-95504000D01*
X74422000Y-96012000D02*
X73914000Y-95504000D01*
X94615000Y-94615000D02*
X94615000Y-95631000D01*
X84455000Y-95885000D02*
X84455000Y-94615000D01*
X84328000Y-96012000D02*
X84455000Y-95885000D01*
X86868000Y-96012000D02*
X84328000Y-96012000D01*
X94234000Y-96012000D02*
X89662000Y-96012000D01*
X94615000Y-95631000D02*
X94234000Y-96012000D01*
X77724000Y-96774000D02*
X81534000Y-96774000D01*
X81534000Y-96774000D02*
X81788000Y-97028000D01*
X97155000Y-94615000D02*
X97155000Y-95885000D01*
X81915000Y-96901000D02*
X81915000Y-94615000D01*
X81788000Y-97028000D02*
X81915000Y-96901000D01*
X97155000Y-95885000D02*
X97028000Y-96012000D01*
D37*
X94615000Y-88265000D02*
X94615000Y-89789000D01*
X90805000Y-89789000D02*
X90805000Y-88265000D01*
X91186000Y-90170000D02*
X90805000Y-89789000D01*
X94234000Y-90170000D02*
X91186000Y-90170000D01*
X94615000Y-89789000D02*
X94234000Y-90170000D01*
X97155000Y-88265000D02*
X97155000Y-89535000D01*
X90805000Y-93091000D02*
X90805000Y-94615000D01*
X91948000Y-91948000D02*
X90805000Y-93091000D01*
X94742000Y-91948000D02*
X91948000Y-91948000D01*
X97155000Y-89535000D02*
X94742000Y-91948000D01*
D34*
X68326000Y-90424000D02*
X67564000Y-90424000D01*
X67564000Y-90424000D02*
X64504000Y-87364000D01*
X61976000Y-94234000D02*
X61214000Y-94234000D01*
X64504000Y-87388000D02*
X64504000Y-87364000D01*
X64504000Y-87364000D02*
X64504000Y-86614000D01*
X63754000Y-88138000D02*
X64504000Y-87388000D01*
X60960000Y-88138000D02*
X63754000Y-88138000D01*
X60198000Y-88900000D02*
X60960000Y-88138000D01*
X60198000Y-93218000D02*
X60198000Y-88900000D01*
X61214000Y-94234000D02*
X60198000Y-93218000D01*
X64504000Y-86614000D02*
X64504000Y-82562000D01*
X71628000Y-77470000D02*
X71628000Y-76200000D01*
X70358000Y-78740000D02*
X71628000Y-77470000D01*
X68326000Y-78740000D02*
X70358000Y-78740000D01*
X64504000Y-82562000D02*
X68326000Y-78740000D01*
X71628000Y-83820000D02*
X71628000Y-87122000D01*
X69342000Y-91694000D02*
X68326000Y-91694000D01*
X69850000Y-91186000D02*
X69342000Y-91694000D01*
X69850000Y-88900000D02*
X69850000Y-91186000D01*
X71628000Y-87122000D02*
X69850000Y-88900000D01*
X68326000Y-91694000D02*
X65786000Y-91694000D01*
X64262000Y-90170000D02*
X63246000Y-90170000D01*
X65786000Y-91694000D02*
X64262000Y-90170000D01*
X61976000Y-89154000D02*
X62992000Y-89154000D01*
X62992000Y-90424000D02*
X61976000Y-90424000D01*
X63246000Y-90170000D02*
X62992000Y-90424000D01*
X63246000Y-89408000D02*
X63246000Y-90170000D01*
X62992000Y-89154000D02*
X63246000Y-89408000D01*
D36*
X88265000Y-96647000D02*
X88265000Y-97663000D01*
D35*
X88265000Y-94615000D02*
X88265000Y-96647000D01*
D36*
X104140000Y-92202000D02*
X104140000Y-86360000D01*
X98044000Y-98298000D02*
X104140000Y-92202000D01*
X88900000Y-98298000D02*
X98044000Y-98298000D01*
X88265000Y-97663000D02*
X88900000Y-98298000D01*
X90170000Y-85344000D02*
X92964000Y-82550000D01*
D35*
X89535000Y-85979000D02*
X90170000Y-85344000D01*
X89535000Y-88265000D02*
X89535000Y-85979000D01*
D36*
X92964000Y-82550000D02*
X103830000Y-82550000D01*
X103830000Y-82550000D02*
X104140000Y-82860000D01*
D34*
X61976000Y-91694000D02*
X62738000Y-91694000D01*
X62992000Y-92964000D02*
X61976000Y-92964000D01*
X63246000Y-92710000D02*
X62992000Y-92964000D01*
X63246000Y-92202000D02*
X63246000Y-92710000D01*
X62738000Y-91694000D02*
X63246000Y-92202000D01*
X71374000Y-92964000D02*
X72390000Y-92964000D01*
X72390000Y-94234000D02*
X71374000Y-94234000D01*
X72644000Y-93980000D02*
X72390000Y-94234000D01*
X72644000Y-93218000D02*
X72644000Y-93980000D01*
X72390000Y-92964000D02*
X72644000Y-93218000D01*
X68326000Y-92964000D02*
X71374000Y-92964000D01*
X77724000Y-95504000D02*
X77216000Y-95504000D01*
X77216000Y-95504000D02*
X76708000Y-94996000D01*
X76708000Y-94234000D02*
X77724000Y-94234000D01*
X76708000Y-94996000D02*
X76708000Y-94234000D01*
X61976000Y-95504000D02*
X64262000Y-95504000D01*
X76454000Y-95504000D02*
X77724000Y-95504000D01*
X73914000Y-98044000D02*
X76454000Y-95504000D01*
X66802000Y-98044000D02*
X73914000Y-98044000D01*
X64262000Y-95504000D02*
X66802000Y-98044000D01*
D38*
G36*
X57759600Y-61722000D02*
X57771607Y-61781292D01*
X57805736Y-61831242D01*
X57856609Y-61863977D01*
X57912000Y-61874400D01*
X60553600Y-61874400D01*
X60553600Y-64109600D01*
X55118000Y-64109600D01*
X55058708Y-64121607D01*
X55008758Y-64155736D01*
X54976023Y-64206609D01*
X54965600Y-64262000D01*
X54965600Y-64871600D01*
X53086000Y-64871600D01*
X53026708Y-64883607D01*
X52976758Y-64917736D01*
X52944023Y-64968609D01*
X52933600Y-65024000D01*
X52933600Y-67827247D01*
X52858634Y-67858222D01*
X52619063Y-68097375D01*
X52489248Y-68410003D01*
X52488953Y-68748512D01*
X52618222Y-69061366D01*
X52857375Y-69300937D01*
X52933600Y-69332589D01*
X52933600Y-87630000D01*
X52945607Y-87689292D01*
X52979736Y-87739242D01*
X53030609Y-87771977D01*
X53086000Y-87782400D01*
X56489600Y-87782400D01*
X56489600Y-89001600D01*
X51256400Y-89001600D01*
X51256400Y-61874400D01*
X56896000Y-61874400D01*
X56955292Y-61862393D01*
X57005242Y-61828264D01*
X57037977Y-61777391D01*
X57048400Y-61722000D01*
X57048400Y-59842400D01*
X57759600Y-59842400D01*
X57759600Y-61722000D01*
X57759600Y-61722000D01*
G37*
X57759600Y-61722000D02*
X57771607Y-61781292D01*
X57805736Y-61831242D01*
X57856609Y-61863977D01*
X57912000Y-61874400D01*
X60553600Y-61874400D01*
X60553600Y-64109600D01*
X55118000Y-64109600D01*
X55058708Y-64121607D01*
X55008758Y-64155736D01*
X54976023Y-64206609D01*
X54965600Y-64262000D01*
X54965600Y-64871600D01*
X53086000Y-64871600D01*
X53026708Y-64883607D01*
X52976758Y-64917736D01*
X52944023Y-64968609D01*
X52933600Y-65024000D01*
X52933600Y-67827247D01*
X52858634Y-67858222D01*
X52619063Y-68097375D01*
X52489248Y-68410003D01*
X52488953Y-68748512D01*
X52618222Y-69061366D01*
X52857375Y-69300937D01*
X52933600Y-69332589D01*
X52933600Y-87630000D01*
X52945607Y-87689292D01*
X52979736Y-87739242D01*
X53030609Y-87771977D01*
X53086000Y-87782400D01*
X56489600Y-87782400D01*
X56489600Y-89001600D01*
X51256400Y-89001600D01*
X51256400Y-61874400D01*
X56896000Y-61874400D01*
X56955292Y-61862393D01*
X57005242Y-61828264D01*
X57037977Y-61777391D01*
X57048400Y-61722000D01*
X57048400Y-59842400D01*
X57759600Y-59842400D01*
X57759600Y-61722000D01*
G36*
X74144603Y-70738565D02*
X74155668Y-70798040D01*
X74189221Y-70848747D01*
X83458237Y-80117763D01*
X83508653Y-80151199D01*
X83566000Y-80162400D01*
X87477600Y-80162400D01*
X87477600Y-82397600D01*
X82868450Y-82397600D01*
X72375483Y-71589844D01*
X72349778Y-71527634D01*
X72110625Y-71288063D01*
X72063489Y-71268490D01*
X70256400Y-69407189D01*
X70256400Y-63661510D01*
X70329715Y-63554210D01*
X70362361Y-63393000D01*
X70362361Y-63017400D01*
X74267162Y-63017400D01*
X74144603Y-70738565D01*
X74144603Y-70738565D01*
G37*
X74144603Y-70738565D02*
X74155668Y-70798040D01*
X74189221Y-70848747D01*
X83458237Y-80117763D01*
X83508653Y-80151199D01*
X83566000Y-80162400D01*
X87477600Y-80162400D01*
X87477600Y-82397600D01*
X82868450Y-82397600D01*
X72375483Y-71589844D01*
X72349778Y-71527634D01*
X72110625Y-71288063D01*
X72063489Y-71268490D01*
X70256400Y-69407189D01*
X70256400Y-63661510D01*
X70329715Y-63554210D01*
X70362361Y-63393000D01*
X70362361Y-63017400D01*
X74267162Y-63017400D01*
X74144603Y-70738565D01*
M02*
