G04 #@! TF.FileFunction,Copper,L2,Bot,Signal*
%FSLAX46Y46*%
G04 Gerber Fmt 4.6, Leading zero omitted, Abs format (unit mm)*
G04 Created by KiCad (PCBNEW 4.0.7) date 08/01/18 14:34:15*
%MOMM*%
%LPD*%
G01*
G04 APERTURE LIST*
%ADD10C,0.150000*%
%ADD11R,1.600000X1.600000*%
%ADD12O,1.600000X1.600000*%
%ADD13R,3.600000X1.800000*%
%ADD14O,3.600000X1.800000*%
%ADD15R,1.800000X1.800000*%
%ADD16C,1.800000*%
%ADD17C,2.500000*%
%ADD18R,3.500000X3.500000*%
%ADD19R,1.850000X1.850000*%
%ADD20C,1.850000*%
%ADD21C,7.000000*%
%ADD22C,0.889000*%
%ADD23C,1.270000*%
%ADD24C,0.508000*%
%ADD25C,0.762000*%
%ADD26C,0.304800*%
G04 APERTURE END LIST*
D10*
D11*
X66548000Y-83820000D03*
D12*
X74168000Y-76200000D03*
X69088000Y-83820000D03*
X71628000Y-76200000D03*
X71628000Y-83820000D03*
X69088000Y-76200000D03*
X74168000Y-83820000D03*
X66548000Y-76200000D03*
D13*
X104140000Y-86360000D03*
D14*
X104140000Y-82860000D03*
D15*
X63246000Y-57150000D03*
D16*
X60706000Y-57150000D03*
D17*
X83448000Y-55050000D03*
X83448000Y-61400000D03*
X83448000Y-67750000D03*
X94878000Y-55050000D03*
X94878000Y-61400000D03*
X94878000Y-67750000D03*
D18*
X72898000Y-64643000D03*
X72898000Y-58643000D03*
X68198000Y-61643000D03*
D19*
X58420000Y-85090000D03*
D20*
X58420000Y-82590000D03*
X58420000Y-80090000D03*
D21*
X55118000Y-96012000D03*
X108458000Y-96012000D03*
D22*
X67056000Y-82042000D03*
X63500000Y-82042000D03*
X59436000Y-87630000D03*
X65786000Y-87122000D03*
X67056000Y-87122000D03*
X73914000Y-87376000D03*
X67564000Y-69088000D03*
X68453000Y-72771000D03*
X78486000Y-71501000D03*
X78359000Y-68834000D03*
X80645000Y-70104000D03*
X79248000Y-66167000D03*
X85598000Y-85598000D03*
X80518000Y-86614000D03*
X76454000Y-90424000D03*
X76454000Y-91694000D03*
X72390000Y-90424000D03*
X72390000Y-89154000D03*
X70104000Y-86106000D03*
X72390000Y-96774000D03*
X67056000Y-95504000D03*
X67056000Y-94234000D03*
X60706000Y-96774000D03*
X61976000Y-86614000D03*
X61214000Y-66040000D03*
X60198000Y-66040000D03*
X59182000Y-66548000D03*
X59182000Y-67564000D03*
X59182000Y-68580000D03*
X59182000Y-69596000D03*
X59182000Y-70612000D03*
X59182000Y-71628000D03*
X59182000Y-72644000D03*
X60198000Y-72644000D03*
X61214000Y-72644000D03*
X62230000Y-72644000D03*
X63246000Y-72644000D03*
X64262000Y-72644000D03*
X65278000Y-72644000D03*
X65278000Y-71628000D03*
X65278000Y-70612000D03*
X65278000Y-69596000D03*
X65278000Y-68580000D03*
X65278000Y-67564000D03*
X65278000Y-66548000D03*
X64262000Y-66040000D03*
X63246000Y-66040000D03*
X62230000Y-66040000D03*
X62738000Y-76454000D03*
X61468000Y-85344000D03*
X53340000Y-68580000D03*
X55880000Y-68580000D03*
X54610000Y-71120000D03*
X54610000Y-66548000D03*
X88138000Y-74930000D03*
X88138000Y-79248000D03*
X89662000Y-76962000D03*
X86614000Y-76962000D03*
X83058000Y-93726000D03*
D23*
X89408000Y-93472000D03*
X89408000Y-92202000D03*
D22*
X95758000Y-93726000D03*
X93472000Y-86614000D03*
X55372000Y-56388000D03*
X54864000Y-59944000D03*
X68326000Y-62738000D03*
X90424000Y-82550000D03*
X96012000Y-85344000D03*
X75946000Y-67691000D03*
X71628000Y-72009000D03*
X78105000Y-66040000D03*
X82042000Y-89916000D03*
X86868000Y-89916000D03*
X74422000Y-96012000D03*
X83058000Y-96012000D03*
X86868000Y-96012000D03*
X89662000Y-96012000D03*
X81788000Y-97028000D03*
X97028000Y-96012000D03*
D24*
X67056000Y-82042000D02*
X63500000Y-82042000D01*
X65278000Y-87630000D02*
X59436000Y-87630000D01*
X65786000Y-87122000D02*
X65278000Y-87630000D01*
X73660000Y-87122000D02*
X67056000Y-87122000D01*
X73914000Y-87376000D02*
X73660000Y-87122000D01*
X60198000Y-66040000D02*
X61214000Y-66040000D01*
X59182000Y-67564000D02*
X59182000Y-66548000D01*
X59182000Y-69596000D02*
X59182000Y-68580000D01*
X59182000Y-71628000D02*
X59182000Y-70612000D01*
X60198000Y-72644000D02*
X59182000Y-72644000D01*
X62230000Y-72644000D02*
X61214000Y-72644000D01*
X64262000Y-72644000D02*
X63246000Y-72644000D01*
X65278000Y-71628000D02*
X65278000Y-72644000D01*
X65278000Y-69596000D02*
X65278000Y-70612000D01*
X65278000Y-67564000D02*
X65278000Y-68580000D01*
X64770000Y-66548000D02*
X65278000Y-66548000D01*
X64262000Y-66040000D02*
X64770000Y-66548000D01*
X62230000Y-66040000D02*
X63246000Y-66040000D01*
X93218000Y-82550000D02*
X90424000Y-82550000D01*
X96012000Y-85344000D02*
X93218000Y-82550000D01*
X71628000Y-72009000D02*
X75946000Y-67691000D01*
X74168000Y-76200000D02*
X74168000Y-71628000D01*
X78105000Y-67691000D02*
X78105000Y-66040000D01*
X74168000Y-71628000D02*
X78105000Y-67691000D01*
D25*
X86868000Y-89916000D02*
X82042000Y-89916000D01*
D24*
X83058000Y-96012000D02*
X74422000Y-96012000D01*
X89662000Y-96012000D02*
X86868000Y-96012000D01*
X96012000Y-97028000D02*
X81788000Y-97028000D01*
X97028000Y-96012000D02*
X96012000Y-97028000D01*
D26*
G36*
X112319600Y-95128315D02*
X111771616Y-93802093D01*
X110673687Y-92702246D01*
X109238440Y-92106279D01*
X107684378Y-92104923D01*
X106248093Y-92698384D01*
X105148246Y-93796313D01*
X104552279Y-95231560D01*
X104550923Y-96785622D01*
X105144384Y-98221907D01*
X106159304Y-99238600D01*
X57415075Y-99238600D01*
X58427754Y-98227687D01*
X59023721Y-96792440D01*
X59024254Y-96180512D01*
X73570953Y-96180512D01*
X73700222Y-96493366D01*
X73939375Y-96732937D01*
X74252003Y-96862752D01*
X74590512Y-96863047D01*
X74903366Y-96733778D01*
X74964851Y-96672400D01*
X81014317Y-96672400D01*
X80937248Y-96858003D01*
X80936953Y-97196512D01*
X81066222Y-97509366D01*
X81305375Y-97748937D01*
X81618003Y-97878752D01*
X81956512Y-97879047D01*
X82269366Y-97749778D01*
X82330851Y-97688400D01*
X96012000Y-97688400D01*
X96264724Y-97638130D01*
X96478973Y-97494973D01*
X97110974Y-96862972D01*
X97196512Y-96863047D01*
X97509366Y-96733778D01*
X97748937Y-96494625D01*
X97878752Y-96181997D01*
X97879047Y-95843488D01*
X97749778Y-95530634D01*
X97510625Y-95291063D01*
X97197997Y-95161248D01*
X96859488Y-95160953D01*
X96546634Y-95290222D01*
X96307063Y-95529375D01*
X96177248Y-95842003D01*
X96177172Y-95928882D01*
X95738454Y-96367600D01*
X90435683Y-96367600D01*
X90512752Y-96181997D01*
X90513047Y-95843488D01*
X90383778Y-95530634D01*
X90144625Y-95291063D01*
X89831997Y-95161248D01*
X89493488Y-95160953D01*
X89180634Y-95290222D01*
X89119149Y-95351600D01*
X87411056Y-95351600D01*
X87350625Y-95291063D01*
X87037997Y-95161248D01*
X86699488Y-95160953D01*
X86386634Y-95290222D01*
X86147063Y-95529375D01*
X86017248Y-95842003D01*
X86016953Y-96180512D01*
X86094256Y-96367600D01*
X83831683Y-96367600D01*
X83908752Y-96181997D01*
X83909047Y-95843488D01*
X83779778Y-95530634D01*
X83540625Y-95291063D01*
X83227997Y-95161248D01*
X82889488Y-95160953D01*
X82576634Y-95290222D01*
X82515149Y-95351600D01*
X74965056Y-95351600D01*
X74904625Y-95291063D01*
X74591997Y-95161248D01*
X74253488Y-95160953D01*
X73940634Y-95290222D01*
X73701063Y-95529375D01*
X73571248Y-95842003D01*
X73570953Y-96180512D01*
X59024254Y-96180512D01*
X59025077Y-95238378D01*
X58431616Y-93802093D01*
X57333687Y-92702246D01*
X55898440Y-92106279D01*
X54344378Y-92104923D01*
X52908093Y-92698384D01*
X51808246Y-93796313D01*
X51256400Y-95125305D01*
X51256400Y-90084512D01*
X81190953Y-90084512D01*
X81320222Y-90397366D01*
X81559375Y-90636937D01*
X81872003Y-90766752D01*
X82210512Y-90767047D01*
X82364549Y-90703400D01*
X86545435Y-90703400D01*
X86698003Y-90766752D01*
X87036512Y-90767047D01*
X87349366Y-90637778D01*
X87588937Y-90398625D01*
X87718752Y-90085997D01*
X87719047Y-89747488D01*
X87589778Y-89434634D01*
X87350625Y-89195063D01*
X87037997Y-89065248D01*
X86699488Y-89064953D01*
X86545451Y-89128600D01*
X82364565Y-89128600D01*
X82211997Y-89065248D01*
X81873488Y-89064953D01*
X81560634Y-89194222D01*
X81321063Y-89433375D01*
X81191248Y-89746003D01*
X81190953Y-90084512D01*
X51256400Y-90084512D01*
X51256400Y-87798512D01*
X58584953Y-87798512D01*
X58714222Y-88111366D01*
X58953375Y-88350937D01*
X59266003Y-88480752D01*
X59604512Y-88481047D01*
X59917366Y-88351778D01*
X59978851Y-88290400D01*
X65278000Y-88290400D01*
X65530724Y-88240130D01*
X65744973Y-88096973D01*
X65868974Y-87972972D01*
X65954512Y-87973047D01*
X66267366Y-87843778D01*
X66421058Y-87690354D01*
X66573375Y-87842937D01*
X66886003Y-87972752D01*
X67224512Y-87973047D01*
X67537366Y-87843778D01*
X67598851Y-87782400D01*
X73161247Y-87782400D01*
X73192222Y-87857366D01*
X73431375Y-88096937D01*
X73744003Y-88226752D01*
X74082512Y-88227047D01*
X74395366Y-88097778D01*
X74634937Y-87858625D01*
X74764752Y-87545997D01*
X74765047Y-87207488D01*
X74635778Y-86894634D01*
X74396625Y-86655063D01*
X74083997Y-86525248D01*
X73932548Y-86525116D01*
X73912724Y-86511870D01*
X73660000Y-86461600D01*
X67599056Y-86461600D01*
X67538625Y-86401063D01*
X67225997Y-86271248D01*
X66887488Y-86270953D01*
X66574634Y-86400222D01*
X66420942Y-86553646D01*
X66268625Y-86401063D01*
X65955997Y-86271248D01*
X65617488Y-86270953D01*
X65304634Y-86400222D01*
X65065063Y-86639375D01*
X64935248Y-86952003D01*
X64935233Y-86969600D01*
X59979056Y-86969600D01*
X59918625Y-86909063D01*
X59605997Y-86779248D01*
X59267488Y-86778953D01*
X58954634Y-86908222D01*
X58715063Y-87147375D01*
X58585248Y-87460003D01*
X58584953Y-87798512D01*
X51256400Y-87798512D01*
X51256400Y-85204300D01*
X57190200Y-85204300D01*
X57190200Y-86075628D01*
X57236603Y-86187655D01*
X57322344Y-86273397D01*
X57434371Y-86319800D01*
X58305700Y-86319800D01*
X58381900Y-86243600D01*
X58381900Y-85128100D01*
X58458100Y-85128100D01*
X58458100Y-86243600D01*
X58534300Y-86319800D01*
X59405629Y-86319800D01*
X59517656Y-86273397D01*
X59603397Y-86187655D01*
X59649800Y-86075628D01*
X59649800Y-85204300D01*
X59573600Y-85128100D01*
X58458100Y-85128100D01*
X58381900Y-85128100D01*
X57266400Y-85128100D01*
X57190200Y-85204300D01*
X51256400Y-85204300D01*
X51256400Y-80353670D01*
X57088369Y-80353670D01*
X57290636Y-80843192D01*
X57664838Y-81218048D01*
X57958649Y-81340049D01*
X57666808Y-81460636D01*
X57291952Y-81834838D01*
X57088831Y-82324006D01*
X57088369Y-82853670D01*
X57290636Y-83343192D01*
X57664838Y-83718048D01*
X58007177Y-83860200D01*
X57434371Y-83860200D01*
X57322344Y-83906603D01*
X57236603Y-83992345D01*
X57190200Y-84104372D01*
X57190200Y-84975700D01*
X57266400Y-85051900D01*
X58381900Y-85051900D01*
X58381900Y-85031900D01*
X58458100Y-85031900D01*
X58458100Y-85051900D01*
X59573600Y-85051900D01*
X59649800Y-84975700D01*
X59649800Y-84104372D01*
X59603397Y-83992345D01*
X59517656Y-83906603D01*
X59405629Y-83860200D01*
X58832344Y-83860200D01*
X59173192Y-83719364D01*
X59548048Y-83345162D01*
X59751169Y-82855994D01*
X59751631Y-82326330D01*
X59703776Y-82210512D01*
X62648953Y-82210512D01*
X62778222Y-82523366D01*
X63017375Y-82762937D01*
X63330003Y-82892752D01*
X63668512Y-82893047D01*
X63981366Y-82763778D01*
X64042851Y-82702400D01*
X65491065Y-82702400D01*
X65459078Y-82722983D01*
X65366285Y-82858790D01*
X65333639Y-83020000D01*
X65333639Y-84620000D01*
X65361977Y-84770603D01*
X65450983Y-84908922D01*
X65586790Y-85001715D01*
X65748000Y-85034361D01*
X67348000Y-85034361D01*
X67498603Y-85006023D01*
X67636922Y-84917017D01*
X67729715Y-84781210D01*
X67762361Y-84620000D01*
X67762361Y-83796365D01*
X67881600Y-83796365D01*
X67881600Y-83843635D01*
X67973432Y-84305304D01*
X68234946Y-84696689D01*
X68626331Y-84958203D01*
X69088000Y-85050035D01*
X69549669Y-84958203D01*
X69941054Y-84696689D01*
X70202568Y-84305304D01*
X70294400Y-83843635D01*
X70294400Y-83796365D01*
X70421600Y-83796365D01*
X70421600Y-83843635D01*
X70513432Y-84305304D01*
X70774946Y-84696689D01*
X71166331Y-84958203D01*
X71628000Y-85050035D01*
X72089669Y-84958203D01*
X72481054Y-84696689D01*
X72742568Y-84305304D01*
X72797258Y-84030358D01*
X73083407Y-84030358D01*
X73246467Y-84429401D01*
X73549822Y-84735669D01*
X73947289Y-84902534D01*
X73957643Y-84904589D01*
X74129900Y-84847894D01*
X74129900Y-83858100D01*
X74206100Y-83858100D01*
X74206100Y-84847894D01*
X74378357Y-84904589D01*
X74388711Y-84902534D01*
X74786178Y-84735669D01*
X75089533Y-84429401D01*
X75252593Y-84030358D01*
X75195947Y-83858100D01*
X74206100Y-83858100D01*
X74129900Y-83858100D01*
X73140053Y-83858100D01*
X73083407Y-84030358D01*
X72797258Y-84030358D01*
X72834400Y-83843635D01*
X72834400Y-83796365D01*
X72797259Y-83609642D01*
X73083407Y-83609642D01*
X73140053Y-83781900D01*
X74129900Y-83781900D01*
X74129900Y-82792106D01*
X74206100Y-82792106D01*
X74206100Y-83781900D01*
X75195947Y-83781900D01*
X75252593Y-83609642D01*
X75089533Y-83210599D01*
X74786178Y-82904331D01*
X74388711Y-82737466D01*
X74378357Y-82735411D01*
X74206100Y-82792106D01*
X74129900Y-82792106D01*
X73957643Y-82735411D01*
X73947289Y-82737466D01*
X73549822Y-82904331D01*
X73246467Y-83210599D01*
X73083407Y-83609642D01*
X72797259Y-83609642D01*
X72742568Y-83334696D01*
X72481054Y-82943311D01*
X72144618Y-82718512D01*
X89572953Y-82718512D01*
X89702222Y-83031366D01*
X89941375Y-83270937D01*
X90254003Y-83400752D01*
X90592512Y-83401047D01*
X90905366Y-83271778D01*
X90966851Y-83210400D01*
X92944454Y-83210400D01*
X95161028Y-85426974D01*
X95160953Y-85512512D01*
X95290222Y-85825366D01*
X95529375Y-86064937D01*
X95842003Y-86194752D01*
X96180512Y-86195047D01*
X96493366Y-86065778D01*
X96732937Y-85826625D01*
X96862752Y-85513997D01*
X96862799Y-85460000D01*
X101925639Y-85460000D01*
X101925639Y-87260000D01*
X101953977Y-87410603D01*
X102042983Y-87548922D01*
X102178790Y-87641715D01*
X102340000Y-87674361D01*
X105940000Y-87674361D01*
X106090603Y-87646023D01*
X106228922Y-87557017D01*
X106321715Y-87421210D01*
X106354361Y-87260000D01*
X106354361Y-85460000D01*
X106326023Y-85309397D01*
X106237017Y-85171078D01*
X106101210Y-85078285D01*
X105940000Y-85045639D01*
X102340000Y-85045639D01*
X102189397Y-85073977D01*
X102051078Y-85162983D01*
X101958285Y-85298790D01*
X101925639Y-85460000D01*
X96862799Y-85460000D01*
X96863047Y-85175488D01*
X96733778Y-84862634D01*
X96494625Y-84623063D01*
X96181997Y-84493248D01*
X96095119Y-84493172D01*
X94461947Y-82860000D01*
X101890374Y-82860000D01*
X101989818Y-83359938D01*
X102273010Y-83783764D01*
X102696836Y-84066956D01*
X103196774Y-84166400D01*
X105083226Y-84166400D01*
X105583164Y-84066956D01*
X106006990Y-83783764D01*
X106290182Y-83359938D01*
X106389626Y-82860000D01*
X106290182Y-82360062D01*
X106006990Y-81936236D01*
X105583164Y-81653044D01*
X105083226Y-81553600D01*
X103196774Y-81553600D01*
X102696836Y-81653044D01*
X102273010Y-81936236D01*
X101989818Y-82360062D01*
X101890374Y-82860000D01*
X94461947Y-82860000D01*
X93684973Y-82083027D01*
X93470724Y-81939870D01*
X93218000Y-81889600D01*
X90967056Y-81889600D01*
X90906625Y-81829063D01*
X90593997Y-81699248D01*
X90255488Y-81698953D01*
X89942634Y-81828222D01*
X89703063Y-82067375D01*
X89573248Y-82380003D01*
X89572953Y-82718512D01*
X72144618Y-82718512D01*
X72089669Y-82681797D01*
X71628000Y-82589965D01*
X71166331Y-82681797D01*
X70774946Y-82943311D01*
X70513432Y-83334696D01*
X70421600Y-83796365D01*
X70294400Y-83796365D01*
X70202568Y-83334696D01*
X69941054Y-82943311D01*
X69549669Y-82681797D01*
X69088000Y-82589965D01*
X68626331Y-82681797D01*
X68234946Y-82943311D01*
X67973432Y-83334696D01*
X67881600Y-83796365D01*
X67762361Y-83796365D01*
X67762361Y-83020000D01*
X67734023Y-82869397D01*
X67645017Y-82731078D01*
X67600556Y-82700699D01*
X67776937Y-82524625D01*
X67906752Y-82211997D01*
X67907047Y-81873488D01*
X67777778Y-81560634D01*
X67538625Y-81321063D01*
X67225997Y-81191248D01*
X66887488Y-81190953D01*
X66574634Y-81320222D01*
X66513149Y-81381600D01*
X64043056Y-81381600D01*
X63982625Y-81321063D01*
X63669997Y-81191248D01*
X63331488Y-81190953D01*
X63018634Y-81320222D01*
X62779063Y-81559375D01*
X62649248Y-81872003D01*
X62648953Y-82210512D01*
X59703776Y-82210512D01*
X59549364Y-81836808D01*
X59175162Y-81461952D01*
X58881351Y-81339951D01*
X59173192Y-81219364D01*
X59548048Y-80845162D01*
X59751169Y-80355994D01*
X59751631Y-79826330D01*
X59549364Y-79336808D01*
X59175162Y-78961952D01*
X58685994Y-78758831D01*
X58156330Y-78758369D01*
X57666808Y-78960636D01*
X57291952Y-79334838D01*
X57088831Y-79824006D01*
X57088369Y-80353670D01*
X51256400Y-80353670D01*
X51256400Y-76176365D01*
X65341600Y-76176365D01*
X65341600Y-76223635D01*
X65433432Y-76685304D01*
X65694946Y-77076689D01*
X66086331Y-77338203D01*
X66548000Y-77430035D01*
X67009669Y-77338203D01*
X67401054Y-77076689D01*
X67662568Y-76685304D01*
X67754400Y-76223635D01*
X67754400Y-76176365D01*
X67881600Y-76176365D01*
X67881600Y-76223635D01*
X67973432Y-76685304D01*
X68234946Y-77076689D01*
X68626331Y-77338203D01*
X69088000Y-77430035D01*
X69549669Y-77338203D01*
X69941054Y-77076689D01*
X70202568Y-76685304D01*
X70294400Y-76223635D01*
X70294400Y-76176365D01*
X70421600Y-76176365D01*
X70421600Y-76223635D01*
X70513432Y-76685304D01*
X70774946Y-77076689D01*
X71166331Y-77338203D01*
X71628000Y-77430035D01*
X72089669Y-77338203D01*
X72481054Y-77076689D01*
X72742568Y-76685304D01*
X72834400Y-76223635D01*
X72834400Y-76176365D01*
X72961600Y-76176365D01*
X72961600Y-76223635D01*
X73053432Y-76685304D01*
X73314946Y-77076689D01*
X73706331Y-77338203D01*
X74168000Y-77430035D01*
X74629669Y-77338203D01*
X75021054Y-77076689D01*
X75282568Y-76685304D01*
X75374400Y-76223635D01*
X75374400Y-76176365D01*
X75282568Y-75714696D01*
X75021054Y-75323311D01*
X74828400Y-75194584D01*
X74828400Y-71901546D01*
X78571973Y-68157973D01*
X78625387Y-68078033D01*
X81791313Y-68078033D01*
X82042953Y-68687050D01*
X82508500Y-69153409D01*
X83117076Y-69406112D01*
X83776033Y-69406687D01*
X84385050Y-69155047D01*
X84851409Y-68689500D01*
X85104112Y-68080924D01*
X85104114Y-68078033D01*
X93221313Y-68078033D01*
X93472953Y-68687050D01*
X93938500Y-69153409D01*
X94547076Y-69406112D01*
X95206033Y-69406687D01*
X95815050Y-69155047D01*
X96281409Y-68689500D01*
X96534112Y-68080924D01*
X96534687Y-67421967D01*
X96283047Y-66812950D01*
X95817500Y-66346591D01*
X95208924Y-66093888D01*
X94549967Y-66093313D01*
X93940950Y-66344953D01*
X93474591Y-66810500D01*
X93221888Y-67419076D01*
X93221313Y-68078033D01*
X85104114Y-68078033D01*
X85104687Y-67421967D01*
X84853047Y-66812950D01*
X84387500Y-66346591D01*
X83778924Y-66093888D01*
X83119967Y-66093313D01*
X82510950Y-66344953D01*
X82044591Y-66810500D01*
X81791888Y-67419076D01*
X81791313Y-68078033D01*
X78625387Y-68078033D01*
X78715130Y-67943724D01*
X78765400Y-67691000D01*
X78765400Y-66583056D01*
X78825937Y-66522625D01*
X78955752Y-66209997D01*
X78956047Y-65871488D01*
X78826778Y-65558634D01*
X78587625Y-65319063D01*
X78274997Y-65189248D01*
X77936488Y-65188953D01*
X77623634Y-65318222D01*
X77384063Y-65557375D01*
X77254248Y-65870003D01*
X77253953Y-66208512D01*
X77383222Y-66521366D01*
X77444600Y-66582851D01*
X77444600Y-67417454D01*
X73701027Y-71161027D01*
X73557870Y-71375276D01*
X73507600Y-71628000D01*
X73507600Y-75194584D01*
X73314946Y-75323311D01*
X73053432Y-75714696D01*
X72961600Y-76176365D01*
X72834400Y-76176365D01*
X72742568Y-75714696D01*
X72481054Y-75323311D01*
X72089669Y-75061797D01*
X71628000Y-74969965D01*
X71166331Y-75061797D01*
X70774946Y-75323311D01*
X70513432Y-75714696D01*
X70421600Y-76176365D01*
X70294400Y-76176365D01*
X70202568Y-75714696D01*
X69941054Y-75323311D01*
X69549669Y-75061797D01*
X69088000Y-74969965D01*
X68626331Y-75061797D01*
X68234946Y-75323311D01*
X67973432Y-75714696D01*
X67881600Y-76176365D01*
X67754400Y-76176365D01*
X67662568Y-75714696D01*
X67401054Y-75323311D01*
X67009669Y-75061797D01*
X66548000Y-74969965D01*
X66086331Y-75061797D01*
X65694946Y-75323311D01*
X65433432Y-75714696D01*
X65341600Y-76176365D01*
X51256400Y-76176365D01*
X51256400Y-72177512D01*
X70776953Y-72177512D01*
X70906222Y-72490366D01*
X71145375Y-72729937D01*
X71458003Y-72859752D01*
X71796512Y-72860047D01*
X72109366Y-72730778D01*
X72348937Y-72491625D01*
X72478752Y-72178997D01*
X72478828Y-72092118D01*
X76028974Y-68541972D01*
X76114512Y-68542047D01*
X76427366Y-68412778D01*
X76666937Y-68173625D01*
X76796752Y-67860997D01*
X76797047Y-67522488D01*
X76667778Y-67209634D01*
X76428625Y-66970063D01*
X76115997Y-66840248D01*
X75777488Y-66839953D01*
X75464634Y-66969222D01*
X75225063Y-67208375D01*
X75095248Y-67521003D01*
X75095172Y-67607882D01*
X71545026Y-71158028D01*
X71459488Y-71157953D01*
X71146634Y-71287222D01*
X70907063Y-71526375D01*
X70777248Y-71839003D01*
X70776953Y-72177512D01*
X51256400Y-72177512D01*
X51256400Y-61757300D01*
X66143200Y-61757300D01*
X66143200Y-63453628D01*
X66189603Y-63565655D01*
X66275344Y-63651397D01*
X66387371Y-63697800D01*
X68083700Y-63697800D01*
X68159900Y-63621600D01*
X68159900Y-61681100D01*
X68236100Y-61681100D01*
X68236100Y-63621600D01*
X68312300Y-63697800D01*
X70008629Y-63697800D01*
X70120656Y-63651397D01*
X70206397Y-63565655D01*
X70252800Y-63453628D01*
X70252800Y-62893000D01*
X70733639Y-62893000D01*
X70733639Y-66393000D01*
X70761977Y-66543603D01*
X70850983Y-66681922D01*
X70986790Y-66774715D01*
X71148000Y-66807361D01*
X74648000Y-66807361D01*
X74798603Y-66779023D01*
X74936922Y-66690017D01*
X75029715Y-66554210D01*
X75062361Y-66393000D01*
X75062361Y-64987445D01*
X83621261Y-64987445D01*
X83918478Y-65706764D01*
X84468342Y-66257588D01*
X85187141Y-66556060D01*
X85965445Y-66556739D01*
X86684764Y-66259522D01*
X87235588Y-65709658D01*
X87534060Y-64990859D01*
X87534739Y-64212555D01*
X87237522Y-63493236D01*
X86687658Y-62942412D01*
X85968859Y-62643940D01*
X85190555Y-62643261D01*
X84471236Y-62940478D01*
X83920412Y-63490342D01*
X83621940Y-64209141D01*
X83621261Y-64987445D01*
X75062361Y-64987445D01*
X75062361Y-62893000D01*
X75034023Y-62742397D01*
X74945017Y-62604078D01*
X74809210Y-62511285D01*
X74722211Y-62493667D01*
X82408214Y-62493667D01*
X82547301Y-62704526D01*
X83115084Y-62949908D01*
X83733550Y-62959330D01*
X84308543Y-62731358D01*
X84348699Y-62704526D01*
X84487786Y-62493667D01*
X83448000Y-61453882D01*
X82408214Y-62493667D01*
X74722211Y-62493667D01*
X74648000Y-62478639D01*
X71148000Y-62478639D01*
X70997397Y-62506977D01*
X70859078Y-62595983D01*
X70766285Y-62731790D01*
X70733639Y-62893000D01*
X70252800Y-62893000D01*
X70252800Y-61757300D01*
X70181050Y-61685550D01*
X81888670Y-61685550D01*
X82116642Y-62260543D01*
X82143474Y-62300699D01*
X82354333Y-62439786D01*
X83394118Y-61400000D01*
X83501882Y-61400000D01*
X84541667Y-62439786D01*
X84752526Y-62300699D01*
X84997908Y-61732916D01*
X84997982Y-61728033D01*
X93221313Y-61728033D01*
X93472953Y-62337050D01*
X93938500Y-62803409D01*
X94547076Y-63056112D01*
X95206033Y-63056687D01*
X95815050Y-62805047D01*
X96281409Y-62339500D01*
X96534112Y-61730924D01*
X96534687Y-61071967D01*
X96283047Y-60462950D01*
X95817500Y-59996591D01*
X95208924Y-59743888D01*
X94549967Y-59743313D01*
X93940950Y-59994953D01*
X93474591Y-60460500D01*
X93221888Y-61069076D01*
X93221313Y-61728033D01*
X84997982Y-61728033D01*
X85007330Y-61114450D01*
X84779358Y-60539457D01*
X84752526Y-60499301D01*
X84541667Y-60360214D01*
X83501882Y-61400000D01*
X83394118Y-61400000D01*
X82354333Y-60360214D01*
X82143474Y-60499301D01*
X81898092Y-61067084D01*
X81888670Y-61685550D01*
X70181050Y-61685550D01*
X70176600Y-61681100D01*
X68236100Y-61681100D01*
X68159900Y-61681100D01*
X66219400Y-61681100D01*
X66143200Y-61757300D01*
X51256400Y-61757300D01*
X51256400Y-59832372D01*
X66143200Y-59832372D01*
X66143200Y-61528700D01*
X66219400Y-61604900D01*
X68159900Y-61604900D01*
X68159900Y-59664400D01*
X68236100Y-59664400D01*
X68236100Y-61604900D01*
X70176600Y-61604900D01*
X70252800Y-61528700D01*
X70252800Y-59832372D01*
X70206397Y-59720345D01*
X70120656Y-59634603D01*
X70008629Y-59588200D01*
X68312300Y-59588200D01*
X68236100Y-59664400D01*
X68159900Y-59664400D01*
X68083700Y-59588200D01*
X66387371Y-59588200D01*
X66275344Y-59634603D01*
X66189603Y-59720345D01*
X66143200Y-59832372D01*
X51256400Y-59832372D01*
X51256400Y-58757300D01*
X70843200Y-58757300D01*
X70843200Y-60453628D01*
X70889603Y-60565655D01*
X70975344Y-60651397D01*
X71087371Y-60697800D01*
X72783700Y-60697800D01*
X72859900Y-60621600D01*
X72859900Y-58681100D01*
X72936100Y-58681100D01*
X72936100Y-60621600D01*
X73012300Y-60697800D01*
X74708629Y-60697800D01*
X74820656Y-60651397D01*
X74906397Y-60565655D01*
X74952800Y-60453628D01*
X74952800Y-60306333D01*
X82408214Y-60306333D01*
X83448000Y-61346118D01*
X84487786Y-60306333D01*
X84348699Y-60095474D01*
X83780916Y-59850092D01*
X83162450Y-59840670D01*
X82587457Y-60068642D01*
X82547301Y-60095474D01*
X82408214Y-60306333D01*
X74952800Y-60306333D01*
X74952800Y-58757300D01*
X74876600Y-58681100D01*
X72936100Y-58681100D01*
X72859900Y-58681100D01*
X70919400Y-58681100D01*
X70843200Y-58757300D01*
X51256400Y-58757300D01*
X51256400Y-57408719D01*
X59399374Y-57408719D01*
X59597842Y-57889049D01*
X59965018Y-58256866D01*
X60445001Y-58456173D01*
X60964719Y-58456626D01*
X61445049Y-58258158D01*
X61812866Y-57890982D01*
X61931639Y-57604946D01*
X61931639Y-58050000D01*
X61959977Y-58200603D01*
X62048983Y-58338922D01*
X62184790Y-58431715D01*
X62346000Y-58464361D01*
X64146000Y-58464361D01*
X64296603Y-58436023D01*
X64434922Y-58347017D01*
X64527715Y-58211210D01*
X64560361Y-58050000D01*
X64560361Y-56832372D01*
X70843200Y-56832372D01*
X70843200Y-58528700D01*
X70919400Y-58604900D01*
X72859900Y-58604900D01*
X72859900Y-56664400D01*
X72936100Y-56664400D01*
X72936100Y-58604900D01*
X74876600Y-58604900D01*
X74952800Y-58528700D01*
X74952800Y-58528523D01*
X82041356Y-58528523D01*
X82255017Y-59045621D01*
X82650298Y-59441593D01*
X83167022Y-59656155D01*
X83726523Y-59656644D01*
X84243621Y-59442983D01*
X84639593Y-59047702D01*
X84854155Y-58530978D01*
X84854157Y-58528523D01*
X93471356Y-58528523D01*
X93685017Y-59045621D01*
X94080298Y-59441593D01*
X94597022Y-59656155D01*
X95156523Y-59656644D01*
X95673621Y-59442983D01*
X96069593Y-59047702D01*
X96284155Y-58530978D01*
X96284644Y-57971477D01*
X96070983Y-57454379D01*
X95675702Y-57058407D01*
X95158978Y-56843845D01*
X94599477Y-56843356D01*
X94082379Y-57057017D01*
X93686407Y-57452298D01*
X93471845Y-57969022D01*
X93471356Y-58528523D01*
X84854157Y-58528523D01*
X84854644Y-57971477D01*
X84640983Y-57454379D01*
X84245702Y-57058407D01*
X83728978Y-56843845D01*
X83169477Y-56843356D01*
X82652379Y-57057017D01*
X82256407Y-57452298D01*
X82041845Y-57969022D01*
X82041356Y-58528523D01*
X74952800Y-58528523D01*
X74952800Y-56832372D01*
X74906397Y-56720345D01*
X74820656Y-56634603D01*
X74708629Y-56588200D01*
X73012300Y-56588200D01*
X72936100Y-56664400D01*
X72859900Y-56664400D01*
X72783700Y-56588200D01*
X71087371Y-56588200D01*
X70975344Y-56634603D01*
X70889603Y-56720345D01*
X70843200Y-56832372D01*
X64560361Y-56832372D01*
X64560361Y-56250000D01*
X64540354Y-56143667D01*
X82408214Y-56143667D01*
X82547301Y-56354526D01*
X83115084Y-56599908D01*
X83733550Y-56609330D01*
X84308543Y-56381358D01*
X84348699Y-56354526D01*
X84487786Y-56143667D01*
X83448000Y-55103882D01*
X82408214Y-56143667D01*
X64540354Y-56143667D01*
X64532023Y-56099397D01*
X64443017Y-55961078D01*
X64307210Y-55868285D01*
X64146000Y-55835639D01*
X62346000Y-55835639D01*
X62195397Y-55863977D01*
X62057078Y-55952983D01*
X61964285Y-56088790D01*
X61931639Y-56250000D01*
X61931639Y-56695277D01*
X61814158Y-56410951D01*
X61446982Y-56043134D01*
X60966999Y-55843827D01*
X60447281Y-55843374D01*
X59966951Y-56041842D01*
X59599134Y-56409018D01*
X59399827Y-56889001D01*
X59399374Y-57408719D01*
X51256400Y-57408719D01*
X51256400Y-55335550D01*
X81888670Y-55335550D01*
X82116642Y-55910543D01*
X82143474Y-55950699D01*
X82354333Y-56089786D01*
X83394118Y-55050000D01*
X83501882Y-55050000D01*
X84541667Y-56089786D01*
X84752526Y-55950699D01*
X84997908Y-55382916D01*
X84997982Y-55378033D01*
X93221313Y-55378033D01*
X93472953Y-55987050D01*
X93938500Y-56453409D01*
X94547076Y-56706112D01*
X95206033Y-56706687D01*
X95815050Y-56455047D01*
X96281409Y-55989500D01*
X96534112Y-55380924D01*
X96534687Y-54721967D01*
X96283047Y-54112950D01*
X95817500Y-53646591D01*
X95208924Y-53393888D01*
X94549967Y-53393313D01*
X93940950Y-53644953D01*
X93474591Y-54110500D01*
X93221888Y-54719076D01*
X93221313Y-55378033D01*
X84997982Y-55378033D01*
X85007330Y-54764450D01*
X84779358Y-54189457D01*
X84752526Y-54149301D01*
X84541667Y-54010214D01*
X83501882Y-55050000D01*
X83394118Y-55050000D01*
X82354333Y-54010214D01*
X82143474Y-54149301D01*
X81898092Y-54717084D01*
X81888670Y-55335550D01*
X51256400Y-55335550D01*
X51256400Y-53956333D01*
X82408214Y-53956333D01*
X83448000Y-54996118D01*
X84487786Y-53956333D01*
X84348699Y-53745474D01*
X83780916Y-53500092D01*
X83162450Y-53490670D01*
X82587457Y-53718642D01*
X82547301Y-53745474D01*
X82408214Y-53956333D01*
X51256400Y-53956333D01*
X51256400Y-51256400D01*
X112319600Y-51256400D01*
X112319600Y-95128315D01*
X112319600Y-95128315D01*
G37*
X112319600Y-95128315D02*
X111771616Y-93802093D01*
X110673687Y-92702246D01*
X109238440Y-92106279D01*
X107684378Y-92104923D01*
X106248093Y-92698384D01*
X105148246Y-93796313D01*
X104552279Y-95231560D01*
X104550923Y-96785622D01*
X105144384Y-98221907D01*
X106159304Y-99238600D01*
X57415075Y-99238600D01*
X58427754Y-98227687D01*
X59023721Y-96792440D01*
X59024254Y-96180512D01*
X73570953Y-96180512D01*
X73700222Y-96493366D01*
X73939375Y-96732937D01*
X74252003Y-96862752D01*
X74590512Y-96863047D01*
X74903366Y-96733778D01*
X74964851Y-96672400D01*
X81014317Y-96672400D01*
X80937248Y-96858003D01*
X80936953Y-97196512D01*
X81066222Y-97509366D01*
X81305375Y-97748937D01*
X81618003Y-97878752D01*
X81956512Y-97879047D01*
X82269366Y-97749778D01*
X82330851Y-97688400D01*
X96012000Y-97688400D01*
X96264724Y-97638130D01*
X96478973Y-97494973D01*
X97110974Y-96862972D01*
X97196512Y-96863047D01*
X97509366Y-96733778D01*
X97748937Y-96494625D01*
X97878752Y-96181997D01*
X97879047Y-95843488D01*
X97749778Y-95530634D01*
X97510625Y-95291063D01*
X97197997Y-95161248D01*
X96859488Y-95160953D01*
X96546634Y-95290222D01*
X96307063Y-95529375D01*
X96177248Y-95842003D01*
X96177172Y-95928882D01*
X95738454Y-96367600D01*
X90435683Y-96367600D01*
X90512752Y-96181997D01*
X90513047Y-95843488D01*
X90383778Y-95530634D01*
X90144625Y-95291063D01*
X89831997Y-95161248D01*
X89493488Y-95160953D01*
X89180634Y-95290222D01*
X89119149Y-95351600D01*
X87411056Y-95351600D01*
X87350625Y-95291063D01*
X87037997Y-95161248D01*
X86699488Y-95160953D01*
X86386634Y-95290222D01*
X86147063Y-95529375D01*
X86017248Y-95842003D01*
X86016953Y-96180512D01*
X86094256Y-96367600D01*
X83831683Y-96367600D01*
X83908752Y-96181997D01*
X83909047Y-95843488D01*
X83779778Y-95530634D01*
X83540625Y-95291063D01*
X83227997Y-95161248D01*
X82889488Y-95160953D01*
X82576634Y-95290222D01*
X82515149Y-95351600D01*
X74965056Y-95351600D01*
X74904625Y-95291063D01*
X74591997Y-95161248D01*
X74253488Y-95160953D01*
X73940634Y-95290222D01*
X73701063Y-95529375D01*
X73571248Y-95842003D01*
X73570953Y-96180512D01*
X59024254Y-96180512D01*
X59025077Y-95238378D01*
X58431616Y-93802093D01*
X57333687Y-92702246D01*
X55898440Y-92106279D01*
X54344378Y-92104923D01*
X52908093Y-92698384D01*
X51808246Y-93796313D01*
X51256400Y-95125305D01*
X51256400Y-90084512D01*
X81190953Y-90084512D01*
X81320222Y-90397366D01*
X81559375Y-90636937D01*
X81872003Y-90766752D01*
X82210512Y-90767047D01*
X82364549Y-90703400D01*
X86545435Y-90703400D01*
X86698003Y-90766752D01*
X87036512Y-90767047D01*
X87349366Y-90637778D01*
X87588937Y-90398625D01*
X87718752Y-90085997D01*
X87719047Y-89747488D01*
X87589778Y-89434634D01*
X87350625Y-89195063D01*
X87037997Y-89065248D01*
X86699488Y-89064953D01*
X86545451Y-89128600D01*
X82364565Y-89128600D01*
X82211997Y-89065248D01*
X81873488Y-89064953D01*
X81560634Y-89194222D01*
X81321063Y-89433375D01*
X81191248Y-89746003D01*
X81190953Y-90084512D01*
X51256400Y-90084512D01*
X51256400Y-87798512D01*
X58584953Y-87798512D01*
X58714222Y-88111366D01*
X58953375Y-88350937D01*
X59266003Y-88480752D01*
X59604512Y-88481047D01*
X59917366Y-88351778D01*
X59978851Y-88290400D01*
X65278000Y-88290400D01*
X65530724Y-88240130D01*
X65744973Y-88096973D01*
X65868974Y-87972972D01*
X65954512Y-87973047D01*
X66267366Y-87843778D01*
X66421058Y-87690354D01*
X66573375Y-87842937D01*
X66886003Y-87972752D01*
X67224512Y-87973047D01*
X67537366Y-87843778D01*
X67598851Y-87782400D01*
X73161247Y-87782400D01*
X73192222Y-87857366D01*
X73431375Y-88096937D01*
X73744003Y-88226752D01*
X74082512Y-88227047D01*
X74395366Y-88097778D01*
X74634937Y-87858625D01*
X74764752Y-87545997D01*
X74765047Y-87207488D01*
X74635778Y-86894634D01*
X74396625Y-86655063D01*
X74083997Y-86525248D01*
X73932548Y-86525116D01*
X73912724Y-86511870D01*
X73660000Y-86461600D01*
X67599056Y-86461600D01*
X67538625Y-86401063D01*
X67225997Y-86271248D01*
X66887488Y-86270953D01*
X66574634Y-86400222D01*
X66420942Y-86553646D01*
X66268625Y-86401063D01*
X65955997Y-86271248D01*
X65617488Y-86270953D01*
X65304634Y-86400222D01*
X65065063Y-86639375D01*
X64935248Y-86952003D01*
X64935233Y-86969600D01*
X59979056Y-86969600D01*
X59918625Y-86909063D01*
X59605997Y-86779248D01*
X59267488Y-86778953D01*
X58954634Y-86908222D01*
X58715063Y-87147375D01*
X58585248Y-87460003D01*
X58584953Y-87798512D01*
X51256400Y-87798512D01*
X51256400Y-85204300D01*
X57190200Y-85204300D01*
X57190200Y-86075628D01*
X57236603Y-86187655D01*
X57322344Y-86273397D01*
X57434371Y-86319800D01*
X58305700Y-86319800D01*
X58381900Y-86243600D01*
X58381900Y-85128100D01*
X58458100Y-85128100D01*
X58458100Y-86243600D01*
X58534300Y-86319800D01*
X59405629Y-86319800D01*
X59517656Y-86273397D01*
X59603397Y-86187655D01*
X59649800Y-86075628D01*
X59649800Y-85204300D01*
X59573600Y-85128100D01*
X58458100Y-85128100D01*
X58381900Y-85128100D01*
X57266400Y-85128100D01*
X57190200Y-85204300D01*
X51256400Y-85204300D01*
X51256400Y-80353670D01*
X57088369Y-80353670D01*
X57290636Y-80843192D01*
X57664838Y-81218048D01*
X57958649Y-81340049D01*
X57666808Y-81460636D01*
X57291952Y-81834838D01*
X57088831Y-82324006D01*
X57088369Y-82853670D01*
X57290636Y-83343192D01*
X57664838Y-83718048D01*
X58007177Y-83860200D01*
X57434371Y-83860200D01*
X57322344Y-83906603D01*
X57236603Y-83992345D01*
X57190200Y-84104372D01*
X57190200Y-84975700D01*
X57266400Y-85051900D01*
X58381900Y-85051900D01*
X58381900Y-85031900D01*
X58458100Y-85031900D01*
X58458100Y-85051900D01*
X59573600Y-85051900D01*
X59649800Y-84975700D01*
X59649800Y-84104372D01*
X59603397Y-83992345D01*
X59517656Y-83906603D01*
X59405629Y-83860200D01*
X58832344Y-83860200D01*
X59173192Y-83719364D01*
X59548048Y-83345162D01*
X59751169Y-82855994D01*
X59751631Y-82326330D01*
X59703776Y-82210512D01*
X62648953Y-82210512D01*
X62778222Y-82523366D01*
X63017375Y-82762937D01*
X63330003Y-82892752D01*
X63668512Y-82893047D01*
X63981366Y-82763778D01*
X64042851Y-82702400D01*
X65491065Y-82702400D01*
X65459078Y-82722983D01*
X65366285Y-82858790D01*
X65333639Y-83020000D01*
X65333639Y-84620000D01*
X65361977Y-84770603D01*
X65450983Y-84908922D01*
X65586790Y-85001715D01*
X65748000Y-85034361D01*
X67348000Y-85034361D01*
X67498603Y-85006023D01*
X67636922Y-84917017D01*
X67729715Y-84781210D01*
X67762361Y-84620000D01*
X67762361Y-83796365D01*
X67881600Y-83796365D01*
X67881600Y-83843635D01*
X67973432Y-84305304D01*
X68234946Y-84696689D01*
X68626331Y-84958203D01*
X69088000Y-85050035D01*
X69549669Y-84958203D01*
X69941054Y-84696689D01*
X70202568Y-84305304D01*
X70294400Y-83843635D01*
X70294400Y-83796365D01*
X70421600Y-83796365D01*
X70421600Y-83843635D01*
X70513432Y-84305304D01*
X70774946Y-84696689D01*
X71166331Y-84958203D01*
X71628000Y-85050035D01*
X72089669Y-84958203D01*
X72481054Y-84696689D01*
X72742568Y-84305304D01*
X72797258Y-84030358D01*
X73083407Y-84030358D01*
X73246467Y-84429401D01*
X73549822Y-84735669D01*
X73947289Y-84902534D01*
X73957643Y-84904589D01*
X74129900Y-84847894D01*
X74129900Y-83858100D01*
X74206100Y-83858100D01*
X74206100Y-84847894D01*
X74378357Y-84904589D01*
X74388711Y-84902534D01*
X74786178Y-84735669D01*
X75089533Y-84429401D01*
X75252593Y-84030358D01*
X75195947Y-83858100D01*
X74206100Y-83858100D01*
X74129900Y-83858100D01*
X73140053Y-83858100D01*
X73083407Y-84030358D01*
X72797258Y-84030358D01*
X72834400Y-83843635D01*
X72834400Y-83796365D01*
X72797259Y-83609642D01*
X73083407Y-83609642D01*
X73140053Y-83781900D01*
X74129900Y-83781900D01*
X74129900Y-82792106D01*
X74206100Y-82792106D01*
X74206100Y-83781900D01*
X75195947Y-83781900D01*
X75252593Y-83609642D01*
X75089533Y-83210599D01*
X74786178Y-82904331D01*
X74388711Y-82737466D01*
X74378357Y-82735411D01*
X74206100Y-82792106D01*
X74129900Y-82792106D01*
X73957643Y-82735411D01*
X73947289Y-82737466D01*
X73549822Y-82904331D01*
X73246467Y-83210599D01*
X73083407Y-83609642D01*
X72797259Y-83609642D01*
X72742568Y-83334696D01*
X72481054Y-82943311D01*
X72144618Y-82718512D01*
X89572953Y-82718512D01*
X89702222Y-83031366D01*
X89941375Y-83270937D01*
X90254003Y-83400752D01*
X90592512Y-83401047D01*
X90905366Y-83271778D01*
X90966851Y-83210400D01*
X92944454Y-83210400D01*
X95161028Y-85426974D01*
X95160953Y-85512512D01*
X95290222Y-85825366D01*
X95529375Y-86064937D01*
X95842003Y-86194752D01*
X96180512Y-86195047D01*
X96493366Y-86065778D01*
X96732937Y-85826625D01*
X96862752Y-85513997D01*
X96862799Y-85460000D01*
X101925639Y-85460000D01*
X101925639Y-87260000D01*
X101953977Y-87410603D01*
X102042983Y-87548922D01*
X102178790Y-87641715D01*
X102340000Y-87674361D01*
X105940000Y-87674361D01*
X106090603Y-87646023D01*
X106228922Y-87557017D01*
X106321715Y-87421210D01*
X106354361Y-87260000D01*
X106354361Y-85460000D01*
X106326023Y-85309397D01*
X106237017Y-85171078D01*
X106101210Y-85078285D01*
X105940000Y-85045639D01*
X102340000Y-85045639D01*
X102189397Y-85073977D01*
X102051078Y-85162983D01*
X101958285Y-85298790D01*
X101925639Y-85460000D01*
X96862799Y-85460000D01*
X96863047Y-85175488D01*
X96733778Y-84862634D01*
X96494625Y-84623063D01*
X96181997Y-84493248D01*
X96095119Y-84493172D01*
X94461947Y-82860000D01*
X101890374Y-82860000D01*
X101989818Y-83359938D01*
X102273010Y-83783764D01*
X102696836Y-84066956D01*
X103196774Y-84166400D01*
X105083226Y-84166400D01*
X105583164Y-84066956D01*
X106006990Y-83783764D01*
X106290182Y-83359938D01*
X106389626Y-82860000D01*
X106290182Y-82360062D01*
X106006990Y-81936236D01*
X105583164Y-81653044D01*
X105083226Y-81553600D01*
X103196774Y-81553600D01*
X102696836Y-81653044D01*
X102273010Y-81936236D01*
X101989818Y-82360062D01*
X101890374Y-82860000D01*
X94461947Y-82860000D01*
X93684973Y-82083027D01*
X93470724Y-81939870D01*
X93218000Y-81889600D01*
X90967056Y-81889600D01*
X90906625Y-81829063D01*
X90593997Y-81699248D01*
X90255488Y-81698953D01*
X89942634Y-81828222D01*
X89703063Y-82067375D01*
X89573248Y-82380003D01*
X89572953Y-82718512D01*
X72144618Y-82718512D01*
X72089669Y-82681797D01*
X71628000Y-82589965D01*
X71166331Y-82681797D01*
X70774946Y-82943311D01*
X70513432Y-83334696D01*
X70421600Y-83796365D01*
X70294400Y-83796365D01*
X70202568Y-83334696D01*
X69941054Y-82943311D01*
X69549669Y-82681797D01*
X69088000Y-82589965D01*
X68626331Y-82681797D01*
X68234946Y-82943311D01*
X67973432Y-83334696D01*
X67881600Y-83796365D01*
X67762361Y-83796365D01*
X67762361Y-83020000D01*
X67734023Y-82869397D01*
X67645017Y-82731078D01*
X67600556Y-82700699D01*
X67776937Y-82524625D01*
X67906752Y-82211997D01*
X67907047Y-81873488D01*
X67777778Y-81560634D01*
X67538625Y-81321063D01*
X67225997Y-81191248D01*
X66887488Y-81190953D01*
X66574634Y-81320222D01*
X66513149Y-81381600D01*
X64043056Y-81381600D01*
X63982625Y-81321063D01*
X63669997Y-81191248D01*
X63331488Y-81190953D01*
X63018634Y-81320222D01*
X62779063Y-81559375D01*
X62649248Y-81872003D01*
X62648953Y-82210512D01*
X59703776Y-82210512D01*
X59549364Y-81836808D01*
X59175162Y-81461952D01*
X58881351Y-81339951D01*
X59173192Y-81219364D01*
X59548048Y-80845162D01*
X59751169Y-80355994D01*
X59751631Y-79826330D01*
X59549364Y-79336808D01*
X59175162Y-78961952D01*
X58685994Y-78758831D01*
X58156330Y-78758369D01*
X57666808Y-78960636D01*
X57291952Y-79334838D01*
X57088831Y-79824006D01*
X57088369Y-80353670D01*
X51256400Y-80353670D01*
X51256400Y-76176365D01*
X65341600Y-76176365D01*
X65341600Y-76223635D01*
X65433432Y-76685304D01*
X65694946Y-77076689D01*
X66086331Y-77338203D01*
X66548000Y-77430035D01*
X67009669Y-77338203D01*
X67401054Y-77076689D01*
X67662568Y-76685304D01*
X67754400Y-76223635D01*
X67754400Y-76176365D01*
X67881600Y-76176365D01*
X67881600Y-76223635D01*
X67973432Y-76685304D01*
X68234946Y-77076689D01*
X68626331Y-77338203D01*
X69088000Y-77430035D01*
X69549669Y-77338203D01*
X69941054Y-77076689D01*
X70202568Y-76685304D01*
X70294400Y-76223635D01*
X70294400Y-76176365D01*
X70421600Y-76176365D01*
X70421600Y-76223635D01*
X70513432Y-76685304D01*
X70774946Y-77076689D01*
X71166331Y-77338203D01*
X71628000Y-77430035D01*
X72089669Y-77338203D01*
X72481054Y-77076689D01*
X72742568Y-76685304D01*
X72834400Y-76223635D01*
X72834400Y-76176365D01*
X72961600Y-76176365D01*
X72961600Y-76223635D01*
X73053432Y-76685304D01*
X73314946Y-77076689D01*
X73706331Y-77338203D01*
X74168000Y-77430035D01*
X74629669Y-77338203D01*
X75021054Y-77076689D01*
X75282568Y-76685304D01*
X75374400Y-76223635D01*
X75374400Y-76176365D01*
X75282568Y-75714696D01*
X75021054Y-75323311D01*
X74828400Y-75194584D01*
X74828400Y-71901546D01*
X78571973Y-68157973D01*
X78625387Y-68078033D01*
X81791313Y-68078033D01*
X82042953Y-68687050D01*
X82508500Y-69153409D01*
X83117076Y-69406112D01*
X83776033Y-69406687D01*
X84385050Y-69155047D01*
X84851409Y-68689500D01*
X85104112Y-68080924D01*
X85104114Y-68078033D01*
X93221313Y-68078033D01*
X93472953Y-68687050D01*
X93938500Y-69153409D01*
X94547076Y-69406112D01*
X95206033Y-69406687D01*
X95815050Y-69155047D01*
X96281409Y-68689500D01*
X96534112Y-68080924D01*
X96534687Y-67421967D01*
X96283047Y-66812950D01*
X95817500Y-66346591D01*
X95208924Y-66093888D01*
X94549967Y-66093313D01*
X93940950Y-66344953D01*
X93474591Y-66810500D01*
X93221888Y-67419076D01*
X93221313Y-68078033D01*
X85104114Y-68078033D01*
X85104687Y-67421967D01*
X84853047Y-66812950D01*
X84387500Y-66346591D01*
X83778924Y-66093888D01*
X83119967Y-66093313D01*
X82510950Y-66344953D01*
X82044591Y-66810500D01*
X81791888Y-67419076D01*
X81791313Y-68078033D01*
X78625387Y-68078033D01*
X78715130Y-67943724D01*
X78765400Y-67691000D01*
X78765400Y-66583056D01*
X78825937Y-66522625D01*
X78955752Y-66209997D01*
X78956047Y-65871488D01*
X78826778Y-65558634D01*
X78587625Y-65319063D01*
X78274997Y-65189248D01*
X77936488Y-65188953D01*
X77623634Y-65318222D01*
X77384063Y-65557375D01*
X77254248Y-65870003D01*
X77253953Y-66208512D01*
X77383222Y-66521366D01*
X77444600Y-66582851D01*
X77444600Y-67417454D01*
X73701027Y-71161027D01*
X73557870Y-71375276D01*
X73507600Y-71628000D01*
X73507600Y-75194584D01*
X73314946Y-75323311D01*
X73053432Y-75714696D01*
X72961600Y-76176365D01*
X72834400Y-76176365D01*
X72742568Y-75714696D01*
X72481054Y-75323311D01*
X72089669Y-75061797D01*
X71628000Y-74969965D01*
X71166331Y-75061797D01*
X70774946Y-75323311D01*
X70513432Y-75714696D01*
X70421600Y-76176365D01*
X70294400Y-76176365D01*
X70202568Y-75714696D01*
X69941054Y-75323311D01*
X69549669Y-75061797D01*
X69088000Y-74969965D01*
X68626331Y-75061797D01*
X68234946Y-75323311D01*
X67973432Y-75714696D01*
X67881600Y-76176365D01*
X67754400Y-76176365D01*
X67662568Y-75714696D01*
X67401054Y-75323311D01*
X67009669Y-75061797D01*
X66548000Y-74969965D01*
X66086331Y-75061797D01*
X65694946Y-75323311D01*
X65433432Y-75714696D01*
X65341600Y-76176365D01*
X51256400Y-76176365D01*
X51256400Y-72177512D01*
X70776953Y-72177512D01*
X70906222Y-72490366D01*
X71145375Y-72729937D01*
X71458003Y-72859752D01*
X71796512Y-72860047D01*
X72109366Y-72730778D01*
X72348937Y-72491625D01*
X72478752Y-72178997D01*
X72478828Y-72092118D01*
X76028974Y-68541972D01*
X76114512Y-68542047D01*
X76427366Y-68412778D01*
X76666937Y-68173625D01*
X76796752Y-67860997D01*
X76797047Y-67522488D01*
X76667778Y-67209634D01*
X76428625Y-66970063D01*
X76115997Y-66840248D01*
X75777488Y-66839953D01*
X75464634Y-66969222D01*
X75225063Y-67208375D01*
X75095248Y-67521003D01*
X75095172Y-67607882D01*
X71545026Y-71158028D01*
X71459488Y-71157953D01*
X71146634Y-71287222D01*
X70907063Y-71526375D01*
X70777248Y-71839003D01*
X70776953Y-72177512D01*
X51256400Y-72177512D01*
X51256400Y-61757300D01*
X66143200Y-61757300D01*
X66143200Y-63453628D01*
X66189603Y-63565655D01*
X66275344Y-63651397D01*
X66387371Y-63697800D01*
X68083700Y-63697800D01*
X68159900Y-63621600D01*
X68159900Y-61681100D01*
X68236100Y-61681100D01*
X68236100Y-63621600D01*
X68312300Y-63697800D01*
X70008629Y-63697800D01*
X70120656Y-63651397D01*
X70206397Y-63565655D01*
X70252800Y-63453628D01*
X70252800Y-62893000D01*
X70733639Y-62893000D01*
X70733639Y-66393000D01*
X70761977Y-66543603D01*
X70850983Y-66681922D01*
X70986790Y-66774715D01*
X71148000Y-66807361D01*
X74648000Y-66807361D01*
X74798603Y-66779023D01*
X74936922Y-66690017D01*
X75029715Y-66554210D01*
X75062361Y-66393000D01*
X75062361Y-64987445D01*
X83621261Y-64987445D01*
X83918478Y-65706764D01*
X84468342Y-66257588D01*
X85187141Y-66556060D01*
X85965445Y-66556739D01*
X86684764Y-66259522D01*
X87235588Y-65709658D01*
X87534060Y-64990859D01*
X87534739Y-64212555D01*
X87237522Y-63493236D01*
X86687658Y-62942412D01*
X85968859Y-62643940D01*
X85190555Y-62643261D01*
X84471236Y-62940478D01*
X83920412Y-63490342D01*
X83621940Y-64209141D01*
X83621261Y-64987445D01*
X75062361Y-64987445D01*
X75062361Y-62893000D01*
X75034023Y-62742397D01*
X74945017Y-62604078D01*
X74809210Y-62511285D01*
X74722211Y-62493667D01*
X82408214Y-62493667D01*
X82547301Y-62704526D01*
X83115084Y-62949908D01*
X83733550Y-62959330D01*
X84308543Y-62731358D01*
X84348699Y-62704526D01*
X84487786Y-62493667D01*
X83448000Y-61453882D01*
X82408214Y-62493667D01*
X74722211Y-62493667D01*
X74648000Y-62478639D01*
X71148000Y-62478639D01*
X70997397Y-62506977D01*
X70859078Y-62595983D01*
X70766285Y-62731790D01*
X70733639Y-62893000D01*
X70252800Y-62893000D01*
X70252800Y-61757300D01*
X70181050Y-61685550D01*
X81888670Y-61685550D01*
X82116642Y-62260543D01*
X82143474Y-62300699D01*
X82354333Y-62439786D01*
X83394118Y-61400000D01*
X83501882Y-61400000D01*
X84541667Y-62439786D01*
X84752526Y-62300699D01*
X84997908Y-61732916D01*
X84997982Y-61728033D01*
X93221313Y-61728033D01*
X93472953Y-62337050D01*
X93938500Y-62803409D01*
X94547076Y-63056112D01*
X95206033Y-63056687D01*
X95815050Y-62805047D01*
X96281409Y-62339500D01*
X96534112Y-61730924D01*
X96534687Y-61071967D01*
X96283047Y-60462950D01*
X95817500Y-59996591D01*
X95208924Y-59743888D01*
X94549967Y-59743313D01*
X93940950Y-59994953D01*
X93474591Y-60460500D01*
X93221888Y-61069076D01*
X93221313Y-61728033D01*
X84997982Y-61728033D01*
X85007330Y-61114450D01*
X84779358Y-60539457D01*
X84752526Y-60499301D01*
X84541667Y-60360214D01*
X83501882Y-61400000D01*
X83394118Y-61400000D01*
X82354333Y-60360214D01*
X82143474Y-60499301D01*
X81898092Y-61067084D01*
X81888670Y-61685550D01*
X70181050Y-61685550D01*
X70176600Y-61681100D01*
X68236100Y-61681100D01*
X68159900Y-61681100D01*
X66219400Y-61681100D01*
X66143200Y-61757300D01*
X51256400Y-61757300D01*
X51256400Y-59832372D01*
X66143200Y-59832372D01*
X66143200Y-61528700D01*
X66219400Y-61604900D01*
X68159900Y-61604900D01*
X68159900Y-59664400D01*
X68236100Y-59664400D01*
X68236100Y-61604900D01*
X70176600Y-61604900D01*
X70252800Y-61528700D01*
X70252800Y-59832372D01*
X70206397Y-59720345D01*
X70120656Y-59634603D01*
X70008629Y-59588200D01*
X68312300Y-59588200D01*
X68236100Y-59664400D01*
X68159900Y-59664400D01*
X68083700Y-59588200D01*
X66387371Y-59588200D01*
X66275344Y-59634603D01*
X66189603Y-59720345D01*
X66143200Y-59832372D01*
X51256400Y-59832372D01*
X51256400Y-58757300D01*
X70843200Y-58757300D01*
X70843200Y-60453628D01*
X70889603Y-60565655D01*
X70975344Y-60651397D01*
X71087371Y-60697800D01*
X72783700Y-60697800D01*
X72859900Y-60621600D01*
X72859900Y-58681100D01*
X72936100Y-58681100D01*
X72936100Y-60621600D01*
X73012300Y-60697800D01*
X74708629Y-60697800D01*
X74820656Y-60651397D01*
X74906397Y-60565655D01*
X74952800Y-60453628D01*
X74952800Y-60306333D01*
X82408214Y-60306333D01*
X83448000Y-61346118D01*
X84487786Y-60306333D01*
X84348699Y-60095474D01*
X83780916Y-59850092D01*
X83162450Y-59840670D01*
X82587457Y-60068642D01*
X82547301Y-60095474D01*
X82408214Y-60306333D01*
X74952800Y-60306333D01*
X74952800Y-58757300D01*
X74876600Y-58681100D01*
X72936100Y-58681100D01*
X72859900Y-58681100D01*
X70919400Y-58681100D01*
X70843200Y-58757300D01*
X51256400Y-58757300D01*
X51256400Y-57408719D01*
X59399374Y-57408719D01*
X59597842Y-57889049D01*
X59965018Y-58256866D01*
X60445001Y-58456173D01*
X60964719Y-58456626D01*
X61445049Y-58258158D01*
X61812866Y-57890982D01*
X61931639Y-57604946D01*
X61931639Y-58050000D01*
X61959977Y-58200603D01*
X62048983Y-58338922D01*
X62184790Y-58431715D01*
X62346000Y-58464361D01*
X64146000Y-58464361D01*
X64296603Y-58436023D01*
X64434922Y-58347017D01*
X64527715Y-58211210D01*
X64560361Y-58050000D01*
X64560361Y-56832372D01*
X70843200Y-56832372D01*
X70843200Y-58528700D01*
X70919400Y-58604900D01*
X72859900Y-58604900D01*
X72859900Y-56664400D01*
X72936100Y-56664400D01*
X72936100Y-58604900D01*
X74876600Y-58604900D01*
X74952800Y-58528700D01*
X74952800Y-58528523D01*
X82041356Y-58528523D01*
X82255017Y-59045621D01*
X82650298Y-59441593D01*
X83167022Y-59656155D01*
X83726523Y-59656644D01*
X84243621Y-59442983D01*
X84639593Y-59047702D01*
X84854155Y-58530978D01*
X84854157Y-58528523D01*
X93471356Y-58528523D01*
X93685017Y-59045621D01*
X94080298Y-59441593D01*
X94597022Y-59656155D01*
X95156523Y-59656644D01*
X95673621Y-59442983D01*
X96069593Y-59047702D01*
X96284155Y-58530978D01*
X96284644Y-57971477D01*
X96070983Y-57454379D01*
X95675702Y-57058407D01*
X95158978Y-56843845D01*
X94599477Y-56843356D01*
X94082379Y-57057017D01*
X93686407Y-57452298D01*
X93471845Y-57969022D01*
X93471356Y-58528523D01*
X84854157Y-58528523D01*
X84854644Y-57971477D01*
X84640983Y-57454379D01*
X84245702Y-57058407D01*
X83728978Y-56843845D01*
X83169477Y-56843356D01*
X82652379Y-57057017D01*
X82256407Y-57452298D01*
X82041845Y-57969022D01*
X82041356Y-58528523D01*
X74952800Y-58528523D01*
X74952800Y-56832372D01*
X74906397Y-56720345D01*
X74820656Y-56634603D01*
X74708629Y-56588200D01*
X73012300Y-56588200D01*
X72936100Y-56664400D01*
X72859900Y-56664400D01*
X72783700Y-56588200D01*
X71087371Y-56588200D01*
X70975344Y-56634603D01*
X70889603Y-56720345D01*
X70843200Y-56832372D01*
X64560361Y-56832372D01*
X64560361Y-56250000D01*
X64540354Y-56143667D01*
X82408214Y-56143667D01*
X82547301Y-56354526D01*
X83115084Y-56599908D01*
X83733550Y-56609330D01*
X84308543Y-56381358D01*
X84348699Y-56354526D01*
X84487786Y-56143667D01*
X83448000Y-55103882D01*
X82408214Y-56143667D01*
X64540354Y-56143667D01*
X64532023Y-56099397D01*
X64443017Y-55961078D01*
X64307210Y-55868285D01*
X64146000Y-55835639D01*
X62346000Y-55835639D01*
X62195397Y-55863977D01*
X62057078Y-55952983D01*
X61964285Y-56088790D01*
X61931639Y-56250000D01*
X61931639Y-56695277D01*
X61814158Y-56410951D01*
X61446982Y-56043134D01*
X60966999Y-55843827D01*
X60447281Y-55843374D01*
X59966951Y-56041842D01*
X59599134Y-56409018D01*
X59399827Y-56889001D01*
X59399374Y-57408719D01*
X51256400Y-57408719D01*
X51256400Y-55335550D01*
X81888670Y-55335550D01*
X82116642Y-55910543D01*
X82143474Y-55950699D01*
X82354333Y-56089786D01*
X83394118Y-55050000D01*
X83501882Y-55050000D01*
X84541667Y-56089786D01*
X84752526Y-55950699D01*
X84997908Y-55382916D01*
X84997982Y-55378033D01*
X93221313Y-55378033D01*
X93472953Y-55987050D01*
X93938500Y-56453409D01*
X94547076Y-56706112D01*
X95206033Y-56706687D01*
X95815050Y-56455047D01*
X96281409Y-55989500D01*
X96534112Y-55380924D01*
X96534687Y-54721967D01*
X96283047Y-54112950D01*
X95817500Y-53646591D01*
X95208924Y-53393888D01*
X94549967Y-53393313D01*
X93940950Y-53644953D01*
X93474591Y-54110500D01*
X93221888Y-54719076D01*
X93221313Y-55378033D01*
X84997982Y-55378033D01*
X85007330Y-54764450D01*
X84779358Y-54189457D01*
X84752526Y-54149301D01*
X84541667Y-54010214D01*
X83501882Y-55050000D01*
X83394118Y-55050000D01*
X82354333Y-54010214D01*
X82143474Y-54149301D01*
X81898092Y-54717084D01*
X81888670Y-55335550D01*
X51256400Y-55335550D01*
X51256400Y-53956333D01*
X82408214Y-53956333D01*
X83448000Y-54996118D01*
X84487786Y-53956333D01*
X84348699Y-53745474D01*
X83780916Y-53500092D01*
X83162450Y-53490670D01*
X82587457Y-53718642D01*
X82547301Y-53745474D01*
X82408214Y-53956333D01*
X51256400Y-53956333D01*
X51256400Y-51256400D01*
X112319600Y-51256400D01*
X112319600Y-95128315D01*
M02*
