G04 #@! TF.GenerationSoftware,KiCad,Pcbnew,(5.0.0)*
G04 #@! TF.CreationDate,2018-10-12T13:49:54-04:00*
G04 #@! TF.ProjectId,AutoFlyer,4175746F466C7965722E6B696361645F,rev?*
G04 #@! TF.SameCoordinates,Original*
G04 #@! TF.FileFunction,Copper,L1,Top,Signal*
G04 #@! TF.FilePolarity,Positive*
%FSLAX46Y46*%
G04 Gerber Fmt 4.6, Leading zero omitted, Abs format (unit mm)*
G04 Created by KiCad (PCBNEW (5.0.0)) date 10/12/18 13:49:54*
%MOMM*%
%LPD*%
G01*
G04 APERTURE LIST*
G04 #@! TA.AperFunction,SMDPad,CuDef*
%ADD10R,1.000000X1.600000*%
G04 #@! TD*
G04 #@! TA.AperFunction,ComponentPad*
%ADD11R,1.700000X1.700000*%
G04 #@! TD*
G04 #@! TA.AperFunction,ComponentPad*
%ADD12O,1.700000X1.700000*%
G04 #@! TD*
G04 #@! TA.AperFunction,SMDPad,CuDef*
%ADD13R,0.500000X0.900000*%
G04 #@! TD*
G04 #@! TA.AperFunction,SMDPad,CuDef*
%ADD14R,0.800000X0.750000*%
G04 #@! TD*
G04 #@! TA.AperFunction,SMDPad,CuDef*
%ADD15R,0.600000X0.700000*%
G04 #@! TD*
G04 #@! TA.AperFunction,SMDPad,CuDef*
%ADD16R,0.700000X1.300000*%
G04 #@! TD*
G04 #@! TA.AperFunction,WasherPad*
%ADD17C,4.500000*%
G04 #@! TD*
G04 #@! TA.AperFunction,SMDPad,CuDef*
%ADD18R,0.800000X0.900000*%
G04 #@! TD*
G04 #@! TA.AperFunction,SMDPad,CuDef*
%ADD19R,1.500000X0.600000*%
G04 #@! TD*
G04 #@! TA.AperFunction,SMDPad,CuDef*
%ADD20R,0.508000X1.143000*%
G04 #@! TD*
G04 #@! TA.AperFunction,ViaPad*
%ADD21C,0.762000*%
G04 #@! TD*
G04 #@! TA.AperFunction,Conductor*
%ADD22C,0.762000*%
G04 #@! TD*
G04 #@! TA.AperFunction,Conductor*
%ADD23C,0.254000*%
G04 #@! TD*
G04 APERTURE END LIST*
D10*
G04 #@! TO.P,C3,1*
G04 #@! TO.N,+6V*
X32004000Y-32004000D03*
G04 #@! TO.P,C3,2*
G04 #@! TO.N,GND*
X29004000Y-32004000D03*
G04 #@! TD*
G04 #@! TO.P,C1,1*
G04 #@! TO.N,Net-(C1-Pad1)*
X37846000Y-31496000D03*
G04 #@! TO.P,C1,2*
G04 #@! TO.N,GND*
X40846000Y-31496000D03*
G04 #@! TD*
D11*
G04 #@! TO.P,J1,1*
G04 #@! TO.N,/MotorA*
X27432000Y-39370000D03*
D12*
G04 #@! TO.P,J1,2*
G04 #@! TO.N,/MotorB*
X27432000Y-36830000D03*
G04 #@! TD*
D10*
G04 #@! TO.P,C2,1*
G04 #@! TO.N,+3V3*
X40132000Y-38608000D03*
G04 #@! TO.P,C2,2*
G04 #@! TO.N,GND*
X37132000Y-38608000D03*
G04 #@! TD*
D13*
G04 #@! TO.P,R1,1*
G04 #@! TO.N,GND*
X53836000Y-41910000D03*
G04 #@! TO.P,R1,2*
G04 #@! TO.N,Net-(D1-Pad1)*
X52336000Y-41910000D03*
G04 #@! TD*
G04 #@! TO.P,R2,1*
G04 #@! TO.N,GND*
X53836000Y-39878000D03*
G04 #@! TO.P,R2,2*
G04 #@! TO.N,Net-(R2-Pad2)*
X52336000Y-39878000D03*
G04 #@! TD*
D11*
G04 #@! TO.P,J2,1*
G04 #@! TO.N,GND*
X58674000Y-27432000D03*
D12*
G04 #@! TO.P,J2,2*
G04 #@! TO.N,/sck*
X56134000Y-27432000D03*
G04 #@! TO.P,J2,3*
G04 #@! TO.N,+3V3*
X53594000Y-27432000D03*
G04 #@! TO.P,J2,4*
G04 #@! TO.N,/miso*
X51054000Y-27432000D03*
G04 #@! TO.P,J2,5*
G04 #@! TO.N,/mosi*
X48514000Y-27432000D03*
G04 #@! TO.P,J2,6*
G04 #@! TO.N,/rst*
X45974000Y-27432000D03*
G04 #@! TD*
D14*
G04 #@! TO.P,C5,2*
G04 #@! TO.N,GND*
X46966000Y-30988000D03*
G04 #@! TO.P,C5,1*
G04 #@! TO.N,+3V3*
X45466000Y-30988000D03*
G04 #@! TD*
D15*
G04 #@! TO.P,D3,2*
G04 #@! TO.N,+6V*
X34414000Y-31242000D03*
G04 #@! TO.P,D3,1*
G04 #@! TO.N,Net-(C1-Pad1)*
X35814000Y-31242000D03*
G04 #@! TD*
D11*
G04 #@! TO.P,J3,1*
G04 #@! TO.N,GND*
X40894000Y-27432000D03*
D12*
G04 #@! TO.P,J3,2*
G04 #@! TO.N,Net-(J3-Pad2)*
X38354000Y-27432000D03*
G04 #@! TO.P,J3,3*
X35814000Y-27432000D03*
G04 #@! TO.P,J3,4*
G04 #@! TO.N,+6V*
X33274000Y-27432000D03*
G04 #@! TD*
D16*
G04 #@! TO.P,R3,1*
G04 #@! TO.N,/shunt*
X37404000Y-41656000D03*
G04 #@! TO.P,R3,2*
G04 #@! TO.N,GND*
X39304000Y-41656000D03*
G04 #@! TD*
D17*
G04 #@! TO.P,X1,*
G04 #@! TO.N,*
X27940000Y-27940000D03*
G04 #@! TD*
D18*
G04 #@! TO.P,U2,1*
G04 #@! TO.N,GND*
X37470000Y-36068000D03*
G04 #@! TO.P,U2,2*
G04 #@! TO.N,+3V3*
X39370000Y-36068000D03*
G04 #@! TO.P,U2,3*
G04 #@! TO.N,Net-(C1-Pad1)*
X38420000Y-34068000D03*
G04 #@! TD*
D19*
G04 #@! TO.P,U1,14*
G04 #@! TO.N,GND*
X48674000Y-32766000D03*
G04 #@! TO.P,U1,13*
G04 #@! TO.N,/shunt*
X48674000Y-34036000D03*
G04 #@! TO.P,U1,12*
G04 #@! TO.N,Net-(R2-Pad2)*
X48674000Y-35306000D03*
G04 #@! TO.P,U1,11*
G04 #@! TO.N,/led*
X48674000Y-36576000D03*
G04 #@! TO.P,U1,10*
G04 #@! TO.N,N/C*
X48674000Y-37846000D03*
G04 #@! TO.P,U1,9*
G04 #@! TO.N,/sck*
X48674000Y-39116000D03*
G04 #@! TO.P,U1,8*
G04 #@! TO.N,/miso*
X48674000Y-40386000D03*
G04 #@! TO.P,U1,7*
G04 #@! TO.N,/mosi*
X43274000Y-40386000D03*
G04 #@! TO.P,U1,6*
G04 #@! TO.N,/c0*
X43274000Y-39116000D03*
G04 #@! TO.P,U1,5*
G04 #@! TO.N,/c1*
X43274000Y-37846000D03*
G04 #@! TO.P,U1,4*
G04 #@! TO.N,/rst*
X43274000Y-36576000D03*
G04 #@! TO.P,U1,3*
G04 #@! TO.N,/c2*
X43274000Y-35306000D03*
G04 #@! TO.P,U1,2*
G04 #@! TO.N,/c3*
X43274000Y-34036000D03*
G04 #@! TO.P,U1,1*
G04 #@! TO.N,+3V3*
X43274000Y-32766000D03*
G04 #@! TD*
D17*
G04 #@! TO.P,X2,*
G04 #@! TO.N,*
X58420000Y-40640000D03*
G04 #@! TD*
D20*
G04 #@! TO.P,U3,1*
G04 #@! TO.N,/c0*
X30607000Y-42037000D03*
G04 #@! TO.P,U3,2*
G04 #@! TO.N,/MotorA*
X31877000Y-42037000D03*
G04 #@! TO.P,U3,3*
G04 #@! TO.N,/shunt*
X33147000Y-42037000D03*
G04 #@! TO.P,U3,4*
G04 #@! TO.N,/c1*
X34417000Y-42037000D03*
G04 #@! TO.P,U3,5*
G04 #@! TO.N,/c2*
X34417000Y-35687000D03*
G04 #@! TO.P,U3,6*
G04 #@! TO.N,/MotorB*
X33147000Y-35687000D03*
G04 #@! TO.P,U3,7*
G04 #@! TO.N,+6V*
X31877000Y-35687000D03*
G04 #@! TO.P,U3,8*
G04 #@! TO.N,/c3*
X30607000Y-35687000D03*
G04 #@! TD*
D21*
G04 #@! TO.N,GND*
X38608000Y-41656000D03*
X36322000Y-36068000D03*
X36068000Y-38608000D03*
X27686000Y-32004000D03*
X53848000Y-40894000D03*
X45974000Y-29718000D03*
X50292000Y-32766000D03*
X40386000Y-41935390D03*
G04 #@! TO.N,/miso*
X53848000Y-31242000D03*
G04 #@! TO.N,/mosi*
X46990000Y-32766000D03*
G04 #@! TO.N,Net-(D1-Pad1)*
X49530000Y-41910000D03*
G04 #@! TO.N,Net-(R2-Pad2)*
X53340000Y-35306000D03*
X50292000Y-35306000D03*
G04 #@! TO.N,/led*
X50279138Y-37833138D03*
G04 #@! TO.N,/c0*
X30226000Y-40640000D03*
X31750000Y-39116000D03*
G04 #@! TO.N,/c3*
X30734000Y-34036000D03*
X33274000Y-33782000D03*
X37084000Y-33782000D03*
X41402000Y-34036000D03*
G04 #@! TO.N,/c2*
X41656000Y-35306000D03*
X35560000Y-35306000D03*
G04 #@! TO.N,/c1*
X41656000Y-38100000D03*
X35560000Y-42418000D03*
G04 #@! TD*
D22*
G04 #@! TO.N,GND*
X39304000Y-41656000D02*
X38608000Y-41656000D01*
X37470000Y-38270000D02*
X37132000Y-38608000D01*
X37470000Y-36068000D02*
X37470000Y-38270000D01*
X37470000Y-36068000D02*
X36322000Y-36068000D01*
X37132000Y-38608000D02*
X36068000Y-38608000D01*
X40846000Y-27480000D02*
X40894000Y-27432000D01*
X40846000Y-31496000D02*
X40846000Y-27480000D01*
X29004000Y-32004000D02*
X27686000Y-32004000D01*
D23*
X53836000Y-41910000D02*
X53836000Y-40906000D01*
X53836000Y-40906000D02*
X53848000Y-40894000D01*
X53836000Y-40882000D02*
X53848000Y-40894000D01*
X53836000Y-39878000D02*
X53836000Y-40882000D01*
X46966000Y-30988000D02*
X46966000Y-30710000D01*
X46966000Y-30710000D02*
X45974000Y-29718000D01*
X48674000Y-32766000D02*
X50292000Y-32766000D01*
D22*
X39583390Y-41935390D02*
X40386000Y-41935390D01*
X39304000Y-41656000D02*
X39583390Y-41935390D01*
G04 #@! TO.N,Net-(C1-Pad1)*
X37592000Y-31242000D02*
X37846000Y-31496000D01*
X35814000Y-31242000D02*
X37592000Y-31242000D01*
X38420000Y-32070000D02*
X37846000Y-31496000D01*
X38420000Y-34068000D02*
X38420000Y-32070000D01*
G04 #@! TO.N,+3V3*
X40132000Y-36830000D02*
X39370000Y-36068000D01*
X40132000Y-38608000D02*
X40132000Y-36830000D01*
D23*
X44498000Y-30988000D02*
X45466000Y-30988000D01*
X43274000Y-32212000D02*
X44498000Y-30988000D01*
X43274000Y-32766000D02*
X43274000Y-32212000D01*
X45466000Y-30359000D02*
X44196000Y-29089000D01*
X45466000Y-30988000D02*
X45466000Y-30359000D01*
X44196000Y-29089000D02*
X44196000Y-26416000D01*
X44196000Y-26416000D02*
X44704000Y-25908000D01*
X52070000Y-25908000D02*
X53594000Y-27432000D01*
X44704000Y-25908000D02*
X52070000Y-25908000D01*
X41581830Y-32766000D02*
X43274000Y-32766000D01*
X40132000Y-34215830D02*
X41581830Y-32766000D01*
X40132000Y-38608000D02*
X40132000Y-34215830D01*
D22*
G04 #@! TO.N,+6V*
X33274000Y-27432000D02*
X33274000Y-29210000D01*
X33274000Y-29210000D02*
X32004000Y-30480000D01*
X32004000Y-30480000D02*
X32004000Y-32004000D01*
X32004000Y-32004000D02*
X33266000Y-32004000D01*
X33790000Y-31488000D02*
X34036000Y-31242000D01*
X33782000Y-31488000D02*
X33790000Y-31488000D01*
X33266000Y-32004000D02*
X34036000Y-31242000D01*
X31877000Y-32131000D02*
X32004000Y-32004000D01*
X31877000Y-35687000D02*
X31877000Y-32131000D01*
G04 #@! TO.N,/MotorA*
X30543500Y-39370000D02*
X27432000Y-39370000D01*
X31877000Y-40703500D02*
X30543500Y-39370000D01*
X31877000Y-42037000D02*
X31877000Y-40703500D01*
G04 #@! TO.N,/MotorB*
X27940000Y-37338000D02*
X27432000Y-36830000D01*
X32829500Y-37338000D02*
X27940000Y-37338000D01*
X33147000Y-35687000D02*
X33147000Y-37020500D01*
X33147000Y-37020500D02*
X32829500Y-37338000D01*
D23*
G04 #@! TO.N,/sck*
X52070000Y-31496000D02*
X55284001Y-28281999D01*
X50038000Y-39116000D02*
X52070000Y-37084000D01*
X48674000Y-39116000D02*
X50038000Y-39116000D01*
X55284001Y-28281999D02*
X56134000Y-27432000D01*
X52070000Y-37084000D02*
X52070000Y-31496000D01*
G04 #@! TO.N,/miso*
X49678000Y-40386000D02*
X52578000Y-37486000D01*
X48674000Y-40386000D02*
X49678000Y-40386000D01*
X52578000Y-32512000D02*
X53848000Y-31242000D01*
X52578000Y-37486000D02*
X52578000Y-32512000D01*
G04 #@! TO.N,/mosi*
X46990000Y-37120000D02*
X46990000Y-32766000D01*
X43724000Y-40386000D02*
X46990000Y-37120000D01*
X43274000Y-40386000D02*
X43724000Y-40386000D01*
G04 #@! TO.N,/rst*
X43274000Y-36576000D02*
X43724000Y-36576000D01*
X46349082Y-28956000D02*
X46295919Y-28956000D01*
X46865145Y-31800683D02*
X47568399Y-31800683D01*
X43724000Y-36576000D02*
X46253398Y-34046602D01*
X46295919Y-28956000D02*
X45974000Y-28634081D01*
X45974000Y-28634081D02*
X45974000Y-27432000D01*
X46253398Y-34046602D02*
X46253398Y-32412430D01*
X47721601Y-30328519D02*
X46349082Y-28956000D01*
X47721601Y-31647481D02*
X47721601Y-30328519D01*
X47568399Y-31800683D02*
X47721601Y-31647481D01*
X46253398Y-32412430D02*
X46865145Y-31800683D01*
G04 #@! TO.N,Net-(D1-Pad1)*
X52336000Y-41910000D02*
X49530000Y-41910000D01*
G04 #@! TO.N,Net-(R2-Pad2)*
X50292000Y-35306000D02*
X48674000Y-35306000D01*
X53340000Y-38674000D02*
X53340000Y-35306000D01*
X52336000Y-39878000D02*
X52336000Y-39678000D01*
X52336000Y-39678000D02*
X53340000Y-38674000D01*
G04 #@! TO.N,/led*
X48674000Y-36576000D02*
X49124000Y-36576000D01*
X50279138Y-37731138D02*
X50279138Y-37833138D01*
X49124000Y-36576000D02*
X50279138Y-37731138D01*
D22*
G04 #@! TO.N,/shunt*
X33147000Y-40703500D02*
X33464500Y-40386000D01*
X33147000Y-42037000D02*
X33147000Y-40703500D01*
X33464500Y-40386000D02*
X35306000Y-40386000D01*
X36292000Y-41656000D02*
X37404000Y-41656000D01*
X35306000Y-40670000D02*
X36292000Y-41656000D01*
X35306000Y-40386000D02*
X35306000Y-40670000D01*
D23*
X37404000Y-41956000D02*
X37404000Y-41656000D01*
X48674000Y-34036000D02*
X47752000Y-34036000D01*
X47752000Y-34036000D02*
X47568399Y-34219601D01*
X47568399Y-34219601D02*
X47568399Y-37781683D01*
X47568399Y-37781683D02*
X42678082Y-42672000D01*
X42678082Y-42672000D02*
X38120000Y-42672000D01*
X38120000Y-42672000D02*
X37404000Y-41956000D01*
G04 #@! TO.N,/c0*
X30607000Y-42037000D02*
X30607000Y-41021000D01*
X30607000Y-41021000D02*
X30226000Y-40640000D01*
X32130999Y-39496999D02*
X35686999Y-39496999D01*
X31750000Y-39116000D02*
X32130999Y-39496999D01*
X35686999Y-39496999D02*
X36322000Y-40132000D01*
X36322000Y-40132000D02*
X40640000Y-40132000D01*
X41656000Y-39116000D02*
X43274000Y-39116000D01*
X40640000Y-40132000D02*
X41656000Y-39116000D01*
G04 #@! TO.N,/c3*
X30607000Y-35687000D02*
X30607000Y-34163000D01*
X30607000Y-34163000D02*
X30734000Y-34036000D01*
X33274000Y-33782000D02*
X37084000Y-33782000D01*
X41402000Y-34036000D02*
X43274000Y-34036000D01*
G04 #@! TO.N,/c2*
X43274000Y-35306000D02*
X41656000Y-35306000D01*
X34798000Y-35306000D02*
X34417000Y-35687000D01*
X35560000Y-35306000D02*
X34798000Y-35306000D01*
G04 #@! TO.N,/c1*
X43274000Y-37846000D02*
X41910000Y-37846000D01*
X41910000Y-37846000D02*
X41656000Y-38100000D01*
X34798000Y-42418000D02*
X34417000Y-42037000D01*
X35560000Y-42418000D02*
X34798000Y-42418000D01*
D22*
G04 #@! TO.N,Net-(J3-Pad2)*
X35814000Y-27432000D02*
X38354000Y-27432000D01*
G04 #@! TD*
M02*
