M48
;DRILL file {KiCad (5.0.0)} date 10/12/18 13:49:50
;FORMAT={-:-/ absolute / inch / decimal}
FMAT,2
INCH,TZ
T1C0.0150
T2C0.0394
%
G90
G05
M72
T1
X1.09Y-1.26
X1.19Y-1.6
X1.21Y-1.34
X1.25Y-1.54
X1.31Y-1.33
X1.4Y-1.39
X1.4Y-1.67
X1.42Y-1.52
X1.43Y-1.42
X1.46Y-1.33
X1.52Y-1.64
X1.59Y-1.651
X1.63Y-1.34
X1.64Y-1.39
X1.64Y-1.5
X1.81Y-1.17
X1.85Y-1.29
X1.95Y-1.65
X1.9795Y-1.4895
X1.98Y-1.29
X1.98Y-1.39
X2.1Y-1.39
X2.12Y-1.23
X2.12Y-1.61
T2
X1.08Y-1.45
X1.08Y-1.55
X1.81Y-1.08
X1.91Y-1.08
X2.01Y-1.08
X2.11Y-1.08
X2.21Y-1.08
X2.31Y-1.08
X1.31Y-1.08
X1.41Y-1.08
X1.51Y-1.08
X1.61Y-1.08
T0
M30
