G04 #@! TF.FileFunction,Legend,Top*
%FSLAX46Y46*%
G04 Gerber Fmt 4.6, Leading zero omitted, Abs format (unit mm)*
G04 Created by KiCad (PCBNEW 4.0.7) date 08/02/18 07:41:19*
%MOMM*%
%LPD*%
G01*
G04 APERTURE LIST*
%ADD10C,0.100000*%
%ADD11C,0.152400*%
%ADD12C,0.150000*%
%ADD13C,0.120000*%
G04 APERTURE END LIST*
D10*
D11*
X36551809Y-39939383D02*
X36854190Y-39939383D01*
X36491333Y-40120812D02*
X36703000Y-39485812D01*
X36914667Y-40120812D01*
X37398476Y-39697479D02*
X37398476Y-40120812D01*
X37126333Y-39697479D02*
X37126333Y-40030098D01*
X37156572Y-40090574D01*
X37217048Y-40120812D01*
X37307762Y-40120812D01*
X37368238Y-40090574D01*
X37398476Y-40060336D01*
X37610143Y-39697479D02*
X37852048Y-39697479D01*
X37700857Y-39485812D02*
X37700857Y-40030098D01*
X37731096Y-40090574D01*
X37791572Y-40120812D01*
X37852048Y-40120812D01*
X38154429Y-40120812D02*
X38093953Y-40090574D01*
X38063714Y-40060336D01*
X38033476Y-39999860D01*
X38033476Y-39818431D01*
X38063714Y-39757955D01*
X38093953Y-39727717D01*
X38154429Y-39697479D01*
X38245143Y-39697479D01*
X38305619Y-39727717D01*
X38335857Y-39757955D01*
X38366095Y-39818431D01*
X38366095Y-39999860D01*
X38335857Y-40060336D01*
X38305619Y-40090574D01*
X38245143Y-40120812D01*
X38154429Y-40120812D01*
X38849905Y-39788193D02*
X38638238Y-39788193D01*
X38638238Y-40120812D02*
X38638238Y-39485812D01*
X38940619Y-39485812D01*
X39273239Y-40120812D02*
X39212763Y-40090574D01*
X39182524Y-40030098D01*
X39182524Y-39485812D01*
X39454667Y-39697479D02*
X39605858Y-40120812D01*
X39757048Y-39697479D02*
X39605858Y-40120812D01*
X39545382Y-40272002D01*
X39515143Y-40302240D01*
X39454667Y-40332479D01*
X40240858Y-40090574D02*
X40180382Y-40120812D01*
X40059430Y-40120812D01*
X39998953Y-40090574D01*
X39968715Y-40030098D01*
X39968715Y-39788193D01*
X39998953Y-39727717D01*
X40059430Y-39697479D01*
X40180382Y-39697479D01*
X40240858Y-39727717D01*
X40271096Y-39788193D01*
X40271096Y-39848669D01*
X39968715Y-39909145D01*
X40543239Y-40120812D02*
X40543239Y-39697479D01*
X40543239Y-39818431D02*
X40573478Y-39757955D01*
X40603716Y-39727717D01*
X40664192Y-39697479D01*
X40724668Y-39697479D01*
X38517286Y-41165236D02*
X38487048Y-41195474D01*
X38396333Y-41225712D01*
X38335857Y-41225712D01*
X38245143Y-41195474D01*
X38184667Y-41134998D01*
X38154428Y-41074521D01*
X38124190Y-40953569D01*
X38124190Y-40862855D01*
X38154428Y-40741902D01*
X38184667Y-40681426D01*
X38245143Y-40620950D01*
X38335857Y-40590712D01*
X38396333Y-40590712D01*
X38487048Y-40620950D01*
X38517286Y-40651188D01*
X38789428Y-40893093D02*
X39001095Y-40893093D01*
X39091809Y-41225712D02*
X38789428Y-41225712D01*
X38789428Y-40590712D01*
X39091809Y-40590712D01*
D12*
X47752000Y-35814000D02*
X42672000Y-35814000D01*
X42672000Y-35814000D02*
X42672000Y-31242000D01*
X42672000Y-31242000D02*
X47752000Y-31242000D01*
X47752000Y-31242000D02*
X47752000Y-35814000D01*
X47752000Y-34290000D02*
X47244000Y-34290000D01*
X47244000Y-34290000D02*
X47244000Y-33020000D01*
X47244000Y-33020000D02*
X47752000Y-33020000D01*
D13*
X41132000Y-29460000D02*
X39132000Y-29460000D01*
X39132000Y-31500000D02*
X41132000Y-31500000D01*
X38116000Y-37596000D02*
X40116000Y-37596000D01*
X40116000Y-35556000D02*
X38116000Y-35556000D01*
X31258000Y-31500000D02*
X33258000Y-31500000D01*
X33258000Y-29460000D02*
X31258000Y-29460000D01*
X30242000Y-33786000D02*
X32242000Y-33786000D01*
X32242000Y-31746000D02*
X30242000Y-31746000D01*
X49368000Y-35718000D02*
X49368000Y-36418000D01*
X48168000Y-36418000D02*
X48168000Y-35718000D01*
X37472000Y-31080000D02*
X37472000Y-29880000D01*
X35622000Y-31080000D02*
X37472000Y-31080000D01*
X35622000Y-29880000D02*
X37472000Y-29880000D01*
X28762000Y-38100000D02*
X28762000Y-35500000D01*
X28762000Y-35500000D02*
X26102000Y-35500000D01*
X26102000Y-35500000D02*
X26102000Y-38100000D01*
X26102000Y-38100000D02*
X28762000Y-38100000D01*
X28762000Y-39370000D02*
X28762000Y-40700000D01*
X28762000Y-40700000D02*
X27432000Y-40700000D01*
X47244000Y-28762000D02*
X60004000Y-28762000D01*
X60004000Y-28762000D02*
X60004000Y-26102000D01*
X60004000Y-26102000D02*
X47244000Y-26102000D01*
X47244000Y-26102000D02*
X47244000Y-28762000D01*
X45974000Y-28762000D02*
X44644000Y-28762000D01*
X44644000Y-28762000D02*
X44644000Y-27432000D01*
X39624000Y-26102000D02*
X31944000Y-26102000D01*
X31944000Y-26102000D02*
X31944000Y-28762000D01*
X31944000Y-28762000D02*
X39624000Y-28762000D01*
X39624000Y-28762000D02*
X39624000Y-26102000D01*
X40894000Y-26102000D02*
X42224000Y-26102000D01*
X42224000Y-26102000D02*
X42224000Y-27432000D01*
X52586000Y-41230000D02*
X53586000Y-41230000D01*
X53586000Y-42590000D02*
X52586000Y-42590000D01*
X52586000Y-39198000D02*
X53586000Y-39198000D01*
X53586000Y-40558000D02*
X52586000Y-40558000D01*
X36186000Y-32674000D02*
X36186000Y-33874000D01*
X34426000Y-33874000D02*
X34426000Y-32674000D01*
D12*
X29972000Y-36576000D02*
X35052000Y-36576000D01*
X35052000Y-36576000D02*
X35052000Y-41148000D01*
X35052000Y-41148000D02*
X29972000Y-41148000D01*
X29972000Y-41148000D02*
X29972000Y-36576000D01*
X29972000Y-38100000D02*
X30480000Y-38100000D01*
X30480000Y-38100000D02*
X30480000Y-39370000D01*
X30480000Y-39370000D02*
X29972000Y-39370000D01*
D13*
X40442000Y-32768000D02*
X39512000Y-32768000D01*
X37282000Y-32768000D02*
X38212000Y-32768000D01*
X37282000Y-32768000D02*
X37282000Y-34928000D01*
X40442000Y-32768000D02*
X40442000Y-34228000D01*
X45102000Y-40324000D02*
X45102000Y-38424000D01*
X42782000Y-38924000D02*
X42782000Y-40324000D01*
X44292000Y-42764000D02*
X43592000Y-42764000D01*
X43592000Y-41564000D02*
X44292000Y-41564000D01*
D12*
X44450095Y-34250381D02*
X44450095Y-35059905D01*
X44497714Y-35155143D01*
X44545333Y-35202762D01*
X44640571Y-35250381D01*
X44831048Y-35250381D01*
X44926286Y-35202762D01*
X44973905Y-35155143D01*
X45021524Y-35059905D01*
X45021524Y-34250381D01*
X46021524Y-35250381D02*
X45450095Y-35250381D01*
X45735809Y-35250381D02*
X45735809Y-34250381D01*
X45640571Y-34393238D01*
X45545333Y-34488476D01*
X45450095Y-34536095D01*
X39965334Y-30837143D02*
X39917715Y-30884762D01*
X39774858Y-30932381D01*
X39679620Y-30932381D01*
X39536762Y-30884762D01*
X39441524Y-30789524D01*
X39393905Y-30694286D01*
X39346286Y-30503810D01*
X39346286Y-30360952D01*
X39393905Y-30170476D01*
X39441524Y-30075238D01*
X39536762Y-29980000D01*
X39679620Y-29932381D01*
X39774858Y-29932381D01*
X39917715Y-29980000D01*
X39965334Y-30027619D01*
X40917715Y-30932381D02*
X40346286Y-30932381D01*
X40632000Y-30932381D02*
X40632000Y-29932381D01*
X40536762Y-30075238D01*
X40441524Y-30170476D01*
X40346286Y-30218095D01*
X39473143Y-36742666D02*
X39520762Y-36790285D01*
X39568381Y-36933142D01*
X39568381Y-37028380D01*
X39520762Y-37171238D01*
X39425524Y-37266476D01*
X39330286Y-37314095D01*
X39139810Y-37361714D01*
X38996952Y-37361714D01*
X38806476Y-37314095D01*
X38711238Y-37266476D01*
X38616000Y-37171238D01*
X38568381Y-37028380D01*
X38568381Y-36933142D01*
X38616000Y-36790285D01*
X38663619Y-36742666D01*
X38663619Y-36361714D02*
X38616000Y-36314095D01*
X38568381Y-36218857D01*
X38568381Y-35980761D01*
X38616000Y-35885523D01*
X38663619Y-35837904D01*
X38758857Y-35790285D01*
X38854095Y-35790285D01*
X38996952Y-35837904D01*
X39568381Y-36409333D01*
X39568381Y-35790285D01*
X32091334Y-30837143D02*
X32043715Y-30884762D01*
X31900858Y-30932381D01*
X31805620Y-30932381D01*
X31662762Y-30884762D01*
X31567524Y-30789524D01*
X31519905Y-30694286D01*
X31472286Y-30503810D01*
X31472286Y-30360952D01*
X31519905Y-30170476D01*
X31567524Y-30075238D01*
X31662762Y-29980000D01*
X31805620Y-29932381D01*
X31900858Y-29932381D01*
X32043715Y-29980000D01*
X32091334Y-30027619D01*
X32424667Y-29932381D02*
X33043715Y-29932381D01*
X32710381Y-30313333D01*
X32853239Y-30313333D01*
X32948477Y-30360952D01*
X32996096Y-30408571D01*
X33043715Y-30503810D01*
X33043715Y-30741905D01*
X32996096Y-30837143D01*
X32948477Y-30884762D01*
X32853239Y-30932381D01*
X32567524Y-30932381D01*
X32472286Y-30884762D01*
X32424667Y-30837143D01*
X31075334Y-33123143D02*
X31027715Y-33170762D01*
X30884858Y-33218381D01*
X30789620Y-33218381D01*
X30646762Y-33170762D01*
X30551524Y-33075524D01*
X30503905Y-32980286D01*
X30456286Y-32789810D01*
X30456286Y-32646952D01*
X30503905Y-32456476D01*
X30551524Y-32361238D01*
X30646762Y-32266000D01*
X30789620Y-32218381D01*
X30884858Y-32218381D01*
X31027715Y-32266000D01*
X31075334Y-32313619D01*
X31932477Y-32551714D02*
X31932477Y-33218381D01*
X31694381Y-32170762D02*
X31456286Y-32885048D01*
X32075334Y-32885048D01*
X48601334Y-34139143D02*
X48553715Y-34186762D01*
X48410858Y-34234381D01*
X48315620Y-34234381D01*
X48172762Y-34186762D01*
X48077524Y-34091524D01*
X48029905Y-33996286D01*
X47982286Y-33805810D01*
X47982286Y-33662952D01*
X48029905Y-33472476D01*
X48077524Y-33377238D01*
X48172762Y-33282000D01*
X48315620Y-33234381D01*
X48410858Y-33234381D01*
X48553715Y-33282000D01*
X48601334Y-33329619D01*
X49506096Y-33234381D02*
X49029905Y-33234381D01*
X48982286Y-33710571D01*
X49029905Y-33662952D01*
X49125143Y-33615333D01*
X49363239Y-33615333D01*
X49458477Y-33662952D01*
X49506096Y-33710571D01*
X49553715Y-33805810D01*
X49553715Y-34043905D01*
X49506096Y-34139143D01*
X49458477Y-34186762D01*
X49363239Y-34234381D01*
X49125143Y-34234381D01*
X49029905Y-34186762D01*
X48982286Y-34139143D01*
X36091905Y-32202381D02*
X36091905Y-31202381D01*
X36330000Y-31202381D01*
X36472858Y-31250000D01*
X36568096Y-31345238D01*
X36615715Y-31440476D01*
X36663334Y-31630952D01*
X36663334Y-31773810D01*
X36615715Y-31964286D01*
X36568096Y-32059524D01*
X36472858Y-32154762D01*
X36330000Y-32202381D01*
X36091905Y-32202381D01*
X36996667Y-31202381D02*
X37615715Y-31202381D01*
X37282381Y-31583333D01*
X37425239Y-31583333D01*
X37520477Y-31630952D01*
X37568096Y-31678571D01*
X37615715Y-31773810D01*
X37615715Y-32011905D01*
X37568096Y-32107143D01*
X37520477Y-32154762D01*
X37425239Y-32202381D01*
X37139524Y-32202381D01*
X37044286Y-32154762D01*
X36996667Y-32107143D01*
X54951334Y-42362381D02*
X54618000Y-41886190D01*
X54379905Y-42362381D02*
X54379905Y-41362381D01*
X54760858Y-41362381D01*
X54856096Y-41410000D01*
X54903715Y-41457619D01*
X54951334Y-41552857D01*
X54951334Y-41695714D01*
X54903715Y-41790952D01*
X54856096Y-41838571D01*
X54760858Y-41886190D01*
X54379905Y-41886190D01*
X55903715Y-42362381D02*
X55332286Y-42362381D01*
X55618000Y-42362381D02*
X55618000Y-41362381D01*
X55522762Y-41505238D01*
X55427524Y-41600476D01*
X55332286Y-41648095D01*
X54951334Y-40330381D02*
X54618000Y-39854190D01*
X54379905Y-40330381D02*
X54379905Y-39330381D01*
X54760858Y-39330381D01*
X54856096Y-39378000D01*
X54903715Y-39425619D01*
X54951334Y-39520857D01*
X54951334Y-39663714D01*
X54903715Y-39758952D01*
X54856096Y-39806571D01*
X54760858Y-39854190D01*
X54379905Y-39854190D01*
X55332286Y-39425619D02*
X55379905Y-39378000D01*
X55475143Y-39330381D01*
X55713239Y-39330381D01*
X55808477Y-39378000D01*
X55856096Y-39425619D01*
X55903715Y-39520857D01*
X55903715Y-39616095D01*
X55856096Y-39758952D01*
X55284667Y-40330381D01*
X55903715Y-40330381D01*
X35139334Y-33726381D02*
X34806000Y-33250190D01*
X34567905Y-33726381D02*
X34567905Y-32726381D01*
X34948858Y-32726381D01*
X35044096Y-32774000D01*
X35091715Y-32821619D01*
X35139334Y-32916857D01*
X35139334Y-33059714D01*
X35091715Y-33154952D01*
X35044096Y-33202571D01*
X34948858Y-33250190D01*
X34567905Y-33250190D01*
X35472667Y-32726381D02*
X36091715Y-32726381D01*
X35758381Y-33107333D01*
X35901239Y-33107333D01*
X35996477Y-33154952D01*
X36044096Y-33202571D01*
X36091715Y-33297810D01*
X36091715Y-33535905D01*
X36044096Y-33631143D01*
X35996477Y-33678762D01*
X35901239Y-33726381D01*
X35615524Y-33726381D01*
X35520286Y-33678762D01*
X35472667Y-33631143D01*
X31750095Y-37044381D02*
X31750095Y-37853905D01*
X31797714Y-37949143D01*
X31845333Y-37996762D01*
X31940571Y-38044381D01*
X32131048Y-38044381D01*
X32226286Y-37996762D01*
X32273905Y-37949143D01*
X32321524Y-37853905D01*
X32321524Y-37044381D01*
X32702476Y-37044381D02*
X33321524Y-37044381D01*
X32988190Y-37425333D01*
X33131048Y-37425333D01*
X33226286Y-37472952D01*
X33273905Y-37520571D01*
X33321524Y-37615810D01*
X33321524Y-37853905D01*
X33273905Y-37949143D01*
X33226286Y-37996762D01*
X33131048Y-38044381D01*
X32845333Y-38044381D01*
X32750095Y-37996762D01*
X32702476Y-37949143D01*
X40640095Y-32980381D02*
X40640095Y-33789905D01*
X40687714Y-33885143D01*
X40735333Y-33932762D01*
X40830571Y-33980381D01*
X41021048Y-33980381D01*
X41116286Y-33932762D01*
X41163905Y-33885143D01*
X41211524Y-33789905D01*
X41211524Y-32980381D01*
X41640095Y-33075619D02*
X41687714Y-33028000D01*
X41782952Y-32980381D01*
X42021048Y-32980381D01*
X42116286Y-33028000D01*
X42163905Y-33075619D01*
X42211524Y-33170857D01*
X42211524Y-33266095D01*
X42163905Y-33408952D01*
X41592476Y-33980381D01*
X42211524Y-33980381D01*
X45466095Y-38060381D02*
X45466095Y-38869905D01*
X45513714Y-38965143D01*
X45561333Y-39012762D01*
X45656571Y-39060381D01*
X45847048Y-39060381D01*
X45942286Y-39012762D01*
X45989905Y-38965143D01*
X46037524Y-38869905D01*
X46037524Y-38060381D01*
X46942286Y-38393714D02*
X46942286Y-39060381D01*
X46704190Y-38012762D02*
X46466095Y-38727048D01*
X47085143Y-38727048D01*
X46315334Y-42521143D02*
X46267715Y-42568762D01*
X46124858Y-42616381D01*
X46029620Y-42616381D01*
X45886762Y-42568762D01*
X45791524Y-42473524D01*
X45743905Y-42378286D01*
X45696286Y-42187810D01*
X45696286Y-42044952D01*
X45743905Y-41854476D01*
X45791524Y-41759238D01*
X45886762Y-41664000D01*
X46029620Y-41616381D01*
X46124858Y-41616381D01*
X46267715Y-41664000D01*
X46315334Y-41711619D01*
X47172477Y-41616381D02*
X46982000Y-41616381D01*
X46886762Y-41664000D01*
X46839143Y-41711619D01*
X46743905Y-41854476D01*
X46696286Y-42044952D01*
X46696286Y-42425905D01*
X46743905Y-42521143D01*
X46791524Y-42568762D01*
X46886762Y-42616381D01*
X47077239Y-42616381D01*
X47172477Y-42568762D01*
X47220096Y-42521143D01*
X47267715Y-42425905D01*
X47267715Y-42187810D01*
X47220096Y-42092571D01*
X47172477Y-42044952D01*
X47077239Y-41997333D01*
X46886762Y-41997333D01*
X46791524Y-42044952D01*
X46743905Y-42092571D01*
X46696286Y-42187810D01*
M02*
