G04 #@! TF.FileFunction,Copper,L2,Bot,Signal*
%FSLAX46Y46*%
G04 Gerber Fmt 4.6, Leading zero omitted, Abs format (unit mm)*
G04 Created by KiCad (PCBNEW 4.0.7) date 08/02/18 07:41:19*
%MOMM*%
%LPD*%
G01*
G04 APERTURE LIST*
%ADD10C,0.100000*%
%ADD11R,1.700000X1.700000*%
%ADD12O,1.700000X1.700000*%
%ADD13C,4.500000*%
%ADD14R,1.550000X1.300000*%
%ADD15R,1.200000X1.200000*%
%ADD16C,0.762000*%
%ADD17C,0.254000*%
%ADD18C,0.304800*%
G04 APERTURE END LIST*
D10*
D11*
X27432000Y-39370000D03*
D12*
X27432000Y-36830000D03*
D11*
X45974000Y-27432000D03*
D12*
X48514000Y-27432000D03*
X51054000Y-27432000D03*
X53594000Y-27432000D03*
X56134000Y-27432000D03*
X58674000Y-27432000D03*
D11*
X40894000Y-27432000D03*
D12*
X38354000Y-27432000D03*
X35814000Y-27432000D03*
X33274000Y-27432000D03*
D13*
X27940000Y-27940000D03*
X58420000Y-40640000D03*
D14*
X51646000Y-30770000D03*
X51646000Y-35270000D03*
X59606000Y-35270000D03*
X59606000Y-30770000D03*
D15*
X47414000Y-40132000D03*
X49614000Y-40132000D03*
D16*
X48768000Y-34544000D03*
X35306000Y-31496000D03*
X45466000Y-42164000D03*
X43942000Y-37846000D03*
X53848000Y-40894000D03*
X43180000Y-29210000D03*
X28702000Y-32766000D03*
X36830000Y-36576000D03*
X29718000Y-30480000D03*
X36830000Y-34544000D03*
X41656000Y-31750000D03*
X51308000Y-37084000D03*
X49784000Y-30480000D03*
X47752000Y-38100000D03*
X42164000Y-36576000D03*
X45974000Y-40132000D03*
X45974000Y-35306000D03*
X46990000Y-32512000D03*
X44704000Y-35306000D03*
X44704000Y-33274000D03*
X30734000Y-40894000D03*
X35560000Y-39370000D03*
X41656000Y-38608000D03*
X41656000Y-41402000D03*
X51308000Y-41910000D03*
X45974000Y-31750000D03*
X57912000Y-35306000D03*
X51562000Y-33782000D03*
X30734000Y-37338000D03*
X33528000Y-38608000D03*
D17*
X51646000Y-30770000D02*
X51646000Y-31834000D01*
X52324000Y-37084000D02*
X51308000Y-37084000D01*
X53340000Y-36068000D02*
X52324000Y-37084000D01*
X53340000Y-33528000D02*
X53340000Y-36068000D01*
X51646000Y-31834000D02*
X53340000Y-33528000D01*
X59606000Y-30770000D02*
X50074000Y-30770000D01*
X50074000Y-30770000D02*
X49784000Y-30480000D01*
X50074000Y-30770000D02*
X51646000Y-30770000D01*
X49784000Y-30480000D02*
X50074000Y-30770000D01*
X47752000Y-37846000D02*
X47752000Y-38100000D01*
X46482000Y-36576000D02*
X47752000Y-37846000D01*
X42164000Y-36576000D02*
X46482000Y-36576000D01*
X47414000Y-40132000D02*
X45974000Y-40132000D01*
X45974000Y-33528000D02*
X45974000Y-35306000D01*
X46990000Y-32512000D02*
X45974000Y-33528000D01*
X44704000Y-33274000D02*
X44704000Y-35306000D01*
X30734000Y-40386000D02*
X30734000Y-40894000D01*
X31750000Y-39370000D02*
X30734000Y-40386000D01*
X35560000Y-39370000D02*
X31750000Y-39370000D01*
X41656000Y-41402000D02*
X41656000Y-38608000D01*
X50800000Y-40132000D02*
X49614000Y-40132000D01*
X51308000Y-40640000D02*
X50800000Y-40132000D01*
X51308000Y-41910000D02*
X51308000Y-40640000D01*
X49530000Y-31750000D02*
X51562000Y-33782000D01*
X45974000Y-31750000D02*
X49530000Y-31750000D01*
X59606000Y-35270000D02*
X57948000Y-35270000D01*
X57948000Y-35270000D02*
X57912000Y-35306000D01*
X51646000Y-33866000D02*
X51646000Y-35270000D01*
X51562000Y-33782000D02*
X51646000Y-33866000D01*
X32258000Y-37338000D02*
X30734000Y-37338000D01*
X33528000Y-38608000D02*
X32258000Y-37338000D01*
D18*
G36*
X60458570Y-25892138D02*
X60464140Y-25895860D01*
X60467862Y-25901430D01*
X60478600Y-25955414D01*
X60478600Y-29725404D01*
X60381000Y-29705639D01*
X58831000Y-29705639D01*
X58680397Y-29733977D01*
X58542078Y-29822983D01*
X58449285Y-29958790D01*
X58416639Y-30120000D01*
X58416639Y-30236600D01*
X52835361Y-30236600D01*
X52835361Y-30120000D01*
X52807023Y-29969397D01*
X52718017Y-29831078D01*
X52582210Y-29738285D01*
X52421000Y-29705639D01*
X50871000Y-29705639D01*
X50720397Y-29733977D01*
X50582078Y-29822983D01*
X50489285Y-29958790D01*
X50466697Y-30070333D01*
X50451914Y-30034556D01*
X50230609Y-29812864D01*
X49941311Y-29692737D01*
X49628064Y-29692464D01*
X49338556Y-29812086D01*
X49116864Y-30033391D01*
X48996737Y-30322689D01*
X48996464Y-30635936D01*
X49116086Y-30925444D01*
X49337391Y-31147136D01*
X49504679Y-31216600D01*
X46554112Y-31216600D01*
X46420609Y-31082864D01*
X46131311Y-30962737D01*
X45818064Y-30962464D01*
X45528556Y-31082086D01*
X45306864Y-31303391D01*
X45186737Y-31592689D01*
X45186464Y-31905936D01*
X45306086Y-32195444D01*
X45527391Y-32417136D01*
X45816689Y-32537263D01*
X46129936Y-32537536D01*
X46202604Y-32507510D01*
X46202571Y-32545087D01*
X45596829Y-33150829D01*
X45491370Y-33308661D01*
X45491536Y-33118064D01*
X45371914Y-32828556D01*
X45150609Y-32606864D01*
X44861311Y-32486737D01*
X44548064Y-32486464D01*
X44258556Y-32606086D01*
X44036864Y-32827391D01*
X43916737Y-33116689D01*
X43916464Y-33429936D01*
X44036086Y-33719444D01*
X44170600Y-33854193D01*
X44170600Y-34725888D01*
X44036864Y-34859391D01*
X43916737Y-35148689D01*
X43916464Y-35461936D01*
X44036086Y-35751444D01*
X44257391Y-35973136D01*
X44424679Y-36042600D01*
X42744112Y-36042600D01*
X42610609Y-35908864D01*
X42321311Y-35788737D01*
X42008064Y-35788464D01*
X41718556Y-35908086D01*
X41496864Y-36129391D01*
X41376737Y-36418689D01*
X41376464Y-36731936D01*
X41496086Y-37021444D01*
X41717391Y-37243136D01*
X42006689Y-37363263D01*
X42319936Y-37363536D01*
X42609444Y-37243914D01*
X42744193Y-37109400D01*
X46261058Y-37109400D01*
X47002765Y-37851107D01*
X46964737Y-37942689D01*
X46964464Y-38255936D01*
X47084086Y-38545444D01*
X47305391Y-38767136D01*
X47594689Y-38887263D01*
X47907936Y-38887536D01*
X48197444Y-38767914D01*
X48419136Y-38546609D01*
X48539263Y-38257311D01*
X48539536Y-37944064D01*
X48419914Y-37654556D01*
X48198609Y-37432864D01*
X48018360Y-37358018D01*
X46859171Y-36198829D01*
X46686123Y-36083203D01*
X46482000Y-36042600D01*
X46253211Y-36042600D01*
X46419444Y-35973914D01*
X46641136Y-35752609D01*
X46761263Y-35463311D01*
X46761536Y-35150064D01*
X46641914Y-34860556D01*
X46507400Y-34725807D01*
X46507400Y-33748942D01*
X46956971Y-33299371D01*
X47145936Y-33299536D01*
X47435444Y-33179914D01*
X47657136Y-32958609D01*
X47777263Y-32669311D01*
X47777536Y-32356064D01*
X47747512Y-32283400D01*
X49309058Y-32283400D01*
X50774629Y-33748971D01*
X50774464Y-33937936D01*
X50885076Y-34205639D01*
X50871000Y-34205639D01*
X50720397Y-34233977D01*
X50582078Y-34322983D01*
X50489285Y-34458790D01*
X50456639Y-34620000D01*
X50456639Y-35920000D01*
X50484977Y-36070603D01*
X50573983Y-36208922D01*
X50709790Y-36301715D01*
X50871000Y-36334361D01*
X51060346Y-36334361D01*
X50862556Y-36416086D01*
X50640864Y-36637391D01*
X50520737Y-36926689D01*
X50520464Y-37239936D01*
X50640086Y-37529444D01*
X50861391Y-37751136D01*
X51150689Y-37871263D01*
X51463936Y-37871536D01*
X51753444Y-37751914D01*
X51888193Y-37617400D01*
X52324000Y-37617400D01*
X52528123Y-37576797D01*
X52701171Y-37461171D01*
X53717171Y-36445171D01*
X53832797Y-36272123D01*
X53873400Y-36068000D01*
X53873400Y-33528005D01*
X53873401Y-33528000D01*
X53832797Y-33323877D01*
X53717171Y-33150829D01*
X52400703Y-31834361D01*
X52421000Y-31834361D01*
X52571603Y-31806023D01*
X52709922Y-31717017D01*
X52802715Y-31581210D01*
X52835361Y-31420000D01*
X52835361Y-31303400D01*
X58416639Y-31303400D01*
X58416639Y-31420000D01*
X58444977Y-31570603D01*
X58533983Y-31708922D01*
X58669790Y-31801715D01*
X58831000Y-31834361D01*
X60381000Y-31834361D01*
X60478600Y-31815996D01*
X60478600Y-34225404D01*
X60381000Y-34205639D01*
X58831000Y-34205639D01*
X58680397Y-34233977D01*
X58542078Y-34322983D01*
X58449285Y-34458790D01*
X58416639Y-34620000D01*
X58416639Y-34696995D01*
X58358609Y-34638864D01*
X58069311Y-34518737D01*
X57756064Y-34518464D01*
X57466556Y-34638086D01*
X57244864Y-34859391D01*
X57124737Y-35148689D01*
X57124464Y-35461936D01*
X57244086Y-35751444D01*
X57465391Y-35973136D01*
X57754689Y-36093263D01*
X58067936Y-36093536D01*
X58357444Y-35973914D01*
X58416639Y-35914822D01*
X58416639Y-35920000D01*
X58444977Y-36070603D01*
X58533983Y-36208922D01*
X58669790Y-36301715D01*
X58831000Y-36334361D01*
X60381000Y-36334361D01*
X60478600Y-36315996D01*
X60478600Y-38942197D01*
X59926694Y-38389327D01*
X58950709Y-37984062D01*
X57893928Y-37983140D01*
X56917236Y-38386701D01*
X56169327Y-39133306D01*
X55764062Y-40109291D01*
X55763140Y-41166072D01*
X56166701Y-42142764D01*
X56721568Y-42698600D01*
X25955414Y-42698600D01*
X25901430Y-42687862D01*
X25895860Y-42684140D01*
X25892138Y-42678570D01*
X25881400Y-42624587D01*
X25881400Y-38520000D01*
X26167639Y-38520000D01*
X26167639Y-40220000D01*
X26195977Y-40370603D01*
X26284983Y-40508922D01*
X26420790Y-40601715D01*
X26582000Y-40634361D01*
X28282000Y-40634361D01*
X28432603Y-40606023D01*
X28570922Y-40517017D01*
X28663715Y-40381210D01*
X28696361Y-40220000D01*
X28696361Y-38520000D01*
X28668023Y-38369397D01*
X28579017Y-38231078D01*
X28443210Y-38138285D01*
X28282000Y-38105639D01*
X26582000Y-38105639D01*
X26431397Y-38133977D01*
X26293078Y-38222983D01*
X26200285Y-38358790D01*
X26167639Y-38520000D01*
X25881400Y-38520000D01*
X25881400Y-36830000D01*
X26150986Y-36830000D01*
X26246624Y-37310803D01*
X26518977Y-37718409D01*
X26926583Y-37990762D01*
X27407386Y-38086400D01*
X27456614Y-38086400D01*
X27937417Y-37990762D01*
X28345023Y-37718409D01*
X28495010Y-37493936D01*
X29946464Y-37493936D01*
X30066086Y-37783444D01*
X30287391Y-38005136D01*
X30576689Y-38125263D01*
X30889936Y-38125536D01*
X31179444Y-38005914D01*
X31314193Y-37871400D01*
X32037058Y-37871400D01*
X32740629Y-38574971D01*
X32740464Y-38763936D01*
X32770488Y-38836600D01*
X31750000Y-38836600D01*
X31545877Y-38877203D01*
X31372829Y-38992829D01*
X30356829Y-40008829D01*
X30241203Y-40181877D01*
X30218498Y-40296022D01*
X30066864Y-40447391D01*
X29946737Y-40736689D01*
X29946464Y-41049936D01*
X30066086Y-41339444D01*
X30287391Y-41561136D01*
X30576689Y-41681263D01*
X30889936Y-41681536D01*
X31179444Y-41561914D01*
X31401136Y-41340609D01*
X31521263Y-41051311D01*
X31521536Y-40738064D01*
X31408894Y-40465448D01*
X31970942Y-39903400D01*
X34979888Y-39903400D01*
X35113391Y-40037136D01*
X35402689Y-40157263D01*
X35715936Y-40157536D01*
X36005444Y-40037914D01*
X36227136Y-39816609D01*
X36347263Y-39527311D01*
X36347536Y-39214064D01*
X36227914Y-38924556D01*
X36067575Y-38763936D01*
X40868464Y-38763936D01*
X40988086Y-39053444D01*
X41122600Y-39188193D01*
X41122600Y-40821888D01*
X40988864Y-40955391D01*
X40868737Y-41244689D01*
X40868464Y-41557936D01*
X40988086Y-41847444D01*
X41209391Y-42069136D01*
X41498689Y-42189263D01*
X41811936Y-42189536D01*
X42101444Y-42069914D01*
X42323136Y-41848609D01*
X42443263Y-41559311D01*
X42443536Y-41246064D01*
X42323914Y-40956556D01*
X42189400Y-40821807D01*
X42189400Y-40287936D01*
X45186464Y-40287936D01*
X45306086Y-40577444D01*
X45527391Y-40799136D01*
X45816689Y-40919263D01*
X46129936Y-40919536D01*
X46412925Y-40802608D01*
X46427977Y-40882603D01*
X46516983Y-41020922D01*
X46652790Y-41113715D01*
X46814000Y-41146361D01*
X48014000Y-41146361D01*
X48164603Y-41118023D01*
X48302922Y-41029017D01*
X48395715Y-40893210D01*
X48428361Y-40732000D01*
X48428361Y-39532000D01*
X48599639Y-39532000D01*
X48599639Y-40732000D01*
X48627977Y-40882603D01*
X48716983Y-41020922D01*
X48852790Y-41113715D01*
X49014000Y-41146361D01*
X50214000Y-41146361D01*
X50364603Y-41118023D01*
X50502922Y-41029017D01*
X50595715Y-40893210D01*
X50628361Y-40732000D01*
X50628361Y-40714703D01*
X50774600Y-40860941D01*
X50774600Y-41329888D01*
X50640864Y-41463391D01*
X50520737Y-41752689D01*
X50520464Y-42065936D01*
X50640086Y-42355444D01*
X50861391Y-42577136D01*
X51150689Y-42697263D01*
X51463936Y-42697536D01*
X51753444Y-42577914D01*
X51975136Y-42356609D01*
X52095263Y-42067311D01*
X52095536Y-41754064D01*
X51975914Y-41464556D01*
X51841400Y-41329807D01*
X51841400Y-40640000D01*
X51836321Y-40614464D01*
X51800797Y-40435876D01*
X51734144Y-40336123D01*
X51685171Y-40262829D01*
X51685168Y-40262827D01*
X51177171Y-39754829D01*
X51004123Y-39639203D01*
X50800000Y-39598600D01*
X50628361Y-39598600D01*
X50628361Y-39532000D01*
X50600023Y-39381397D01*
X50511017Y-39243078D01*
X50375210Y-39150285D01*
X50214000Y-39117639D01*
X49014000Y-39117639D01*
X48863397Y-39145977D01*
X48725078Y-39234983D01*
X48632285Y-39370790D01*
X48599639Y-39532000D01*
X48428361Y-39532000D01*
X48400023Y-39381397D01*
X48311017Y-39243078D01*
X48175210Y-39150285D01*
X48014000Y-39117639D01*
X46814000Y-39117639D01*
X46663397Y-39145977D01*
X46525078Y-39234983D01*
X46432285Y-39370790D01*
X46413806Y-39462039D01*
X46131311Y-39344737D01*
X45818064Y-39344464D01*
X45528556Y-39464086D01*
X45306864Y-39685391D01*
X45186737Y-39974689D01*
X45186464Y-40287936D01*
X42189400Y-40287936D01*
X42189400Y-39188112D01*
X42323136Y-39054609D01*
X42443263Y-38765311D01*
X42443536Y-38452064D01*
X42323914Y-38162556D01*
X42102609Y-37940864D01*
X41813311Y-37820737D01*
X41500064Y-37820464D01*
X41210556Y-37940086D01*
X40988864Y-38161391D01*
X40868737Y-38450689D01*
X40868464Y-38763936D01*
X36067575Y-38763936D01*
X36006609Y-38702864D01*
X35717311Y-38582737D01*
X35404064Y-38582464D01*
X35114556Y-38702086D01*
X34979807Y-38836600D01*
X34285661Y-38836600D01*
X34315263Y-38765311D01*
X34315536Y-38452064D01*
X34195914Y-38162556D01*
X33974609Y-37940864D01*
X33685311Y-37820737D01*
X33494913Y-37820571D01*
X32635171Y-36960829D01*
X32462123Y-36845203D01*
X32258000Y-36804600D01*
X31314112Y-36804600D01*
X31180609Y-36670864D01*
X30891311Y-36550737D01*
X30578064Y-36550464D01*
X30288556Y-36670086D01*
X30066864Y-36891391D01*
X29946737Y-37180689D01*
X29946464Y-37493936D01*
X28495010Y-37493936D01*
X28617376Y-37310803D01*
X28713014Y-36830000D01*
X28617376Y-36349197D01*
X28345023Y-35941591D01*
X27937417Y-35669238D01*
X27456614Y-35573600D01*
X27407386Y-35573600D01*
X26926583Y-35669238D01*
X26518977Y-35941591D01*
X26246624Y-36349197D01*
X26150986Y-36830000D01*
X25881400Y-36830000D01*
X25881400Y-29637803D01*
X26433306Y-30190673D01*
X27409291Y-30595938D01*
X28466072Y-30596860D01*
X29442764Y-30193299D01*
X30190673Y-29446694D01*
X30595938Y-28470709D01*
X30596860Y-27413928D01*
X30594157Y-27407386D01*
X32017600Y-27407386D01*
X32017600Y-27456614D01*
X32113238Y-27937417D01*
X32385591Y-28345023D01*
X32793197Y-28617376D01*
X33274000Y-28713014D01*
X33754803Y-28617376D01*
X34162409Y-28345023D01*
X34434762Y-27937417D01*
X34530400Y-27456614D01*
X34530400Y-27407386D01*
X34557600Y-27407386D01*
X34557600Y-27456614D01*
X34653238Y-27937417D01*
X34925591Y-28345023D01*
X35333197Y-28617376D01*
X35814000Y-28713014D01*
X36294803Y-28617376D01*
X36702409Y-28345023D01*
X36974762Y-27937417D01*
X37031896Y-27650184D01*
X37219995Y-27650184D01*
X37389811Y-28067541D01*
X37706417Y-28388142D01*
X38121611Y-28563179D01*
X38135817Y-28566001D01*
X38315900Y-28509927D01*
X38315900Y-27470100D01*
X38392100Y-27470100D01*
X38392100Y-28509927D01*
X38572183Y-28566001D01*
X38586389Y-28563179D01*
X39001583Y-28388142D01*
X39318189Y-28067541D01*
X39488005Y-27650184D01*
X39455684Y-27546300D01*
X39739200Y-27546300D01*
X39739200Y-28342628D01*
X39785603Y-28454655D01*
X39871344Y-28540397D01*
X39983371Y-28586800D01*
X40779700Y-28586800D01*
X40855900Y-28510600D01*
X40855900Y-27470100D01*
X40932100Y-27470100D01*
X40932100Y-28510600D01*
X41008300Y-28586800D01*
X41804629Y-28586800D01*
X41916656Y-28540397D01*
X42002397Y-28454655D01*
X42048800Y-28342628D01*
X42048800Y-27546300D01*
X44819200Y-27546300D01*
X44819200Y-28342628D01*
X44865603Y-28454655D01*
X44951344Y-28540397D01*
X45063371Y-28586800D01*
X45859700Y-28586800D01*
X45935900Y-28510600D01*
X45935900Y-27470100D01*
X46012100Y-27470100D01*
X46012100Y-28510600D01*
X46088300Y-28586800D01*
X46884629Y-28586800D01*
X46996656Y-28540397D01*
X47082397Y-28454655D01*
X47128800Y-28342628D01*
X47128800Y-27546300D01*
X47052600Y-27470100D01*
X46012100Y-27470100D01*
X45935900Y-27470100D01*
X44895400Y-27470100D01*
X44819200Y-27546300D01*
X42048800Y-27546300D01*
X41972600Y-27470100D01*
X40932100Y-27470100D01*
X40855900Y-27470100D01*
X39815400Y-27470100D01*
X39739200Y-27546300D01*
X39455684Y-27546300D01*
X39431975Y-27470100D01*
X38392100Y-27470100D01*
X38315900Y-27470100D01*
X37276025Y-27470100D01*
X37219995Y-27650184D01*
X37031896Y-27650184D01*
X37070400Y-27456614D01*
X37070400Y-27407386D01*
X47257600Y-27407386D01*
X47257600Y-27456614D01*
X47353238Y-27937417D01*
X47625591Y-28345023D01*
X48033197Y-28617376D01*
X48514000Y-28713014D01*
X48994803Y-28617376D01*
X49402409Y-28345023D01*
X49674762Y-27937417D01*
X49770400Y-27456614D01*
X49770400Y-27407386D01*
X49797600Y-27407386D01*
X49797600Y-27456614D01*
X49893238Y-27937417D01*
X50165591Y-28345023D01*
X50573197Y-28617376D01*
X51054000Y-28713014D01*
X51534803Y-28617376D01*
X51942409Y-28345023D01*
X52214762Y-27937417D01*
X52310400Y-27456614D01*
X52310400Y-27407386D01*
X52337600Y-27407386D01*
X52337600Y-27456614D01*
X52433238Y-27937417D01*
X52705591Y-28345023D01*
X53113197Y-28617376D01*
X53594000Y-28713014D01*
X54074803Y-28617376D01*
X54482409Y-28345023D01*
X54754762Y-27937417D01*
X54850400Y-27456614D01*
X54850400Y-27407386D01*
X54877600Y-27407386D01*
X54877600Y-27456614D01*
X54973238Y-27937417D01*
X55245591Y-28345023D01*
X55653197Y-28617376D01*
X56134000Y-28713014D01*
X56614803Y-28617376D01*
X57022409Y-28345023D01*
X57294762Y-27937417D01*
X57390400Y-27456614D01*
X57390400Y-27407386D01*
X57417600Y-27407386D01*
X57417600Y-27456614D01*
X57513238Y-27937417D01*
X57785591Y-28345023D01*
X58193197Y-28617376D01*
X58674000Y-28713014D01*
X59154803Y-28617376D01*
X59562409Y-28345023D01*
X59834762Y-27937417D01*
X59930400Y-27456614D01*
X59930400Y-27407386D01*
X59834762Y-26926583D01*
X59562409Y-26518977D01*
X59154803Y-26246624D01*
X58674000Y-26150986D01*
X58193197Y-26246624D01*
X57785591Y-26518977D01*
X57513238Y-26926583D01*
X57417600Y-27407386D01*
X57390400Y-27407386D01*
X57294762Y-26926583D01*
X57022409Y-26518977D01*
X56614803Y-26246624D01*
X56134000Y-26150986D01*
X55653197Y-26246624D01*
X55245591Y-26518977D01*
X54973238Y-26926583D01*
X54877600Y-27407386D01*
X54850400Y-27407386D01*
X54754762Y-26926583D01*
X54482409Y-26518977D01*
X54074803Y-26246624D01*
X53594000Y-26150986D01*
X53113197Y-26246624D01*
X52705591Y-26518977D01*
X52433238Y-26926583D01*
X52337600Y-27407386D01*
X52310400Y-27407386D01*
X52214762Y-26926583D01*
X51942409Y-26518977D01*
X51534803Y-26246624D01*
X51054000Y-26150986D01*
X50573197Y-26246624D01*
X50165591Y-26518977D01*
X49893238Y-26926583D01*
X49797600Y-27407386D01*
X49770400Y-27407386D01*
X49674762Y-26926583D01*
X49402409Y-26518977D01*
X48994803Y-26246624D01*
X48514000Y-26150986D01*
X48033197Y-26246624D01*
X47625591Y-26518977D01*
X47353238Y-26926583D01*
X47257600Y-27407386D01*
X37070400Y-27407386D01*
X37031897Y-27213816D01*
X37219995Y-27213816D01*
X37276025Y-27393900D01*
X38315900Y-27393900D01*
X38315900Y-26354073D01*
X38392100Y-26354073D01*
X38392100Y-27393900D01*
X39431975Y-27393900D01*
X39488005Y-27213816D01*
X39318189Y-26796459D01*
X39046530Y-26521372D01*
X39739200Y-26521372D01*
X39739200Y-27317700D01*
X39815400Y-27393900D01*
X40855900Y-27393900D01*
X40855900Y-26353400D01*
X40932100Y-26353400D01*
X40932100Y-27393900D01*
X41972600Y-27393900D01*
X42048800Y-27317700D01*
X42048800Y-26521372D01*
X44819200Y-26521372D01*
X44819200Y-27317700D01*
X44895400Y-27393900D01*
X45935900Y-27393900D01*
X45935900Y-26353400D01*
X46012100Y-26353400D01*
X46012100Y-27393900D01*
X47052600Y-27393900D01*
X47128800Y-27317700D01*
X47128800Y-26521372D01*
X47082397Y-26409345D01*
X46996656Y-26323603D01*
X46884629Y-26277200D01*
X46088300Y-26277200D01*
X46012100Y-26353400D01*
X45935900Y-26353400D01*
X45859700Y-26277200D01*
X45063371Y-26277200D01*
X44951344Y-26323603D01*
X44865603Y-26409345D01*
X44819200Y-26521372D01*
X42048800Y-26521372D01*
X42002397Y-26409345D01*
X41916656Y-26323603D01*
X41804629Y-26277200D01*
X41008300Y-26277200D01*
X40932100Y-26353400D01*
X40855900Y-26353400D01*
X40779700Y-26277200D01*
X39983371Y-26277200D01*
X39871344Y-26323603D01*
X39785603Y-26409345D01*
X39739200Y-26521372D01*
X39046530Y-26521372D01*
X39001583Y-26475858D01*
X38586389Y-26300821D01*
X38572183Y-26297999D01*
X38392100Y-26354073D01*
X38315900Y-26354073D01*
X38135817Y-26297999D01*
X38121611Y-26300821D01*
X37706417Y-26475858D01*
X37389811Y-26796459D01*
X37219995Y-27213816D01*
X37031897Y-27213816D01*
X36974762Y-26926583D01*
X36702409Y-26518977D01*
X36294803Y-26246624D01*
X35814000Y-26150986D01*
X35333197Y-26246624D01*
X34925591Y-26518977D01*
X34653238Y-26926583D01*
X34557600Y-27407386D01*
X34530400Y-27407386D01*
X34434762Y-26926583D01*
X34162409Y-26518977D01*
X33754803Y-26246624D01*
X33274000Y-26150986D01*
X32793197Y-26246624D01*
X32385591Y-26518977D01*
X32113238Y-26926583D01*
X32017600Y-27407386D01*
X30594157Y-27407386D01*
X30193299Y-26437236D01*
X29638432Y-25881400D01*
X60404587Y-25881400D01*
X60458570Y-25892138D01*
X60458570Y-25892138D01*
G37*
X60458570Y-25892138D02*
X60464140Y-25895860D01*
X60467862Y-25901430D01*
X60478600Y-25955414D01*
X60478600Y-29725404D01*
X60381000Y-29705639D01*
X58831000Y-29705639D01*
X58680397Y-29733977D01*
X58542078Y-29822983D01*
X58449285Y-29958790D01*
X58416639Y-30120000D01*
X58416639Y-30236600D01*
X52835361Y-30236600D01*
X52835361Y-30120000D01*
X52807023Y-29969397D01*
X52718017Y-29831078D01*
X52582210Y-29738285D01*
X52421000Y-29705639D01*
X50871000Y-29705639D01*
X50720397Y-29733977D01*
X50582078Y-29822983D01*
X50489285Y-29958790D01*
X50466697Y-30070333D01*
X50451914Y-30034556D01*
X50230609Y-29812864D01*
X49941311Y-29692737D01*
X49628064Y-29692464D01*
X49338556Y-29812086D01*
X49116864Y-30033391D01*
X48996737Y-30322689D01*
X48996464Y-30635936D01*
X49116086Y-30925444D01*
X49337391Y-31147136D01*
X49504679Y-31216600D01*
X46554112Y-31216600D01*
X46420609Y-31082864D01*
X46131311Y-30962737D01*
X45818064Y-30962464D01*
X45528556Y-31082086D01*
X45306864Y-31303391D01*
X45186737Y-31592689D01*
X45186464Y-31905936D01*
X45306086Y-32195444D01*
X45527391Y-32417136D01*
X45816689Y-32537263D01*
X46129936Y-32537536D01*
X46202604Y-32507510D01*
X46202571Y-32545087D01*
X45596829Y-33150829D01*
X45491370Y-33308661D01*
X45491536Y-33118064D01*
X45371914Y-32828556D01*
X45150609Y-32606864D01*
X44861311Y-32486737D01*
X44548064Y-32486464D01*
X44258556Y-32606086D01*
X44036864Y-32827391D01*
X43916737Y-33116689D01*
X43916464Y-33429936D01*
X44036086Y-33719444D01*
X44170600Y-33854193D01*
X44170600Y-34725888D01*
X44036864Y-34859391D01*
X43916737Y-35148689D01*
X43916464Y-35461936D01*
X44036086Y-35751444D01*
X44257391Y-35973136D01*
X44424679Y-36042600D01*
X42744112Y-36042600D01*
X42610609Y-35908864D01*
X42321311Y-35788737D01*
X42008064Y-35788464D01*
X41718556Y-35908086D01*
X41496864Y-36129391D01*
X41376737Y-36418689D01*
X41376464Y-36731936D01*
X41496086Y-37021444D01*
X41717391Y-37243136D01*
X42006689Y-37363263D01*
X42319936Y-37363536D01*
X42609444Y-37243914D01*
X42744193Y-37109400D01*
X46261058Y-37109400D01*
X47002765Y-37851107D01*
X46964737Y-37942689D01*
X46964464Y-38255936D01*
X47084086Y-38545444D01*
X47305391Y-38767136D01*
X47594689Y-38887263D01*
X47907936Y-38887536D01*
X48197444Y-38767914D01*
X48419136Y-38546609D01*
X48539263Y-38257311D01*
X48539536Y-37944064D01*
X48419914Y-37654556D01*
X48198609Y-37432864D01*
X48018360Y-37358018D01*
X46859171Y-36198829D01*
X46686123Y-36083203D01*
X46482000Y-36042600D01*
X46253211Y-36042600D01*
X46419444Y-35973914D01*
X46641136Y-35752609D01*
X46761263Y-35463311D01*
X46761536Y-35150064D01*
X46641914Y-34860556D01*
X46507400Y-34725807D01*
X46507400Y-33748942D01*
X46956971Y-33299371D01*
X47145936Y-33299536D01*
X47435444Y-33179914D01*
X47657136Y-32958609D01*
X47777263Y-32669311D01*
X47777536Y-32356064D01*
X47747512Y-32283400D01*
X49309058Y-32283400D01*
X50774629Y-33748971D01*
X50774464Y-33937936D01*
X50885076Y-34205639D01*
X50871000Y-34205639D01*
X50720397Y-34233977D01*
X50582078Y-34322983D01*
X50489285Y-34458790D01*
X50456639Y-34620000D01*
X50456639Y-35920000D01*
X50484977Y-36070603D01*
X50573983Y-36208922D01*
X50709790Y-36301715D01*
X50871000Y-36334361D01*
X51060346Y-36334361D01*
X50862556Y-36416086D01*
X50640864Y-36637391D01*
X50520737Y-36926689D01*
X50520464Y-37239936D01*
X50640086Y-37529444D01*
X50861391Y-37751136D01*
X51150689Y-37871263D01*
X51463936Y-37871536D01*
X51753444Y-37751914D01*
X51888193Y-37617400D01*
X52324000Y-37617400D01*
X52528123Y-37576797D01*
X52701171Y-37461171D01*
X53717171Y-36445171D01*
X53832797Y-36272123D01*
X53873400Y-36068000D01*
X53873400Y-33528005D01*
X53873401Y-33528000D01*
X53832797Y-33323877D01*
X53717171Y-33150829D01*
X52400703Y-31834361D01*
X52421000Y-31834361D01*
X52571603Y-31806023D01*
X52709922Y-31717017D01*
X52802715Y-31581210D01*
X52835361Y-31420000D01*
X52835361Y-31303400D01*
X58416639Y-31303400D01*
X58416639Y-31420000D01*
X58444977Y-31570603D01*
X58533983Y-31708922D01*
X58669790Y-31801715D01*
X58831000Y-31834361D01*
X60381000Y-31834361D01*
X60478600Y-31815996D01*
X60478600Y-34225404D01*
X60381000Y-34205639D01*
X58831000Y-34205639D01*
X58680397Y-34233977D01*
X58542078Y-34322983D01*
X58449285Y-34458790D01*
X58416639Y-34620000D01*
X58416639Y-34696995D01*
X58358609Y-34638864D01*
X58069311Y-34518737D01*
X57756064Y-34518464D01*
X57466556Y-34638086D01*
X57244864Y-34859391D01*
X57124737Y-35148689D01*
X57124464Y-35461936D01*
X57244086Y-35751444D01*
X57465391Y-35973136D01*
X57754689Y-36093263D01*
X58067936Y-36093536D01*
X58357444Y-35973914D01*
X58416639Y-35914822D01*
X58416639Y-35920000D01*
X58444977Y-36070603D01*
X58533983Y-36208922D01*
X58669790Y-36301715D01*
X58831000Y-36334361D01*
X60381000Y-36334361D01*
X60478600Y-36315996D01*
X60478600Y-38942197D01*
X59926694Y-38389327D01*
X58950709Y-37984062D01*
X57893928Y-37983140D01*
X56917236Y-38386701D01*
X56169327Y-39133306D01*
X55764062Y-40109291D01*
X55763140Y-41166072D01*
X56166701Y-42142764D01*
X56721568Y-42698600D01*
X25955414Y-42698600D01*
X25901430Y-42687862D01*
X25895860Y-42684140D01*
X25892138Y-42678570D01*
X25881400Y-42624587D01*
X25881400Y-38520000D01*
X26167639Y-38520000D01*
X26167639Y-40220000D01*
X26195977Y-40370603D01*
X26284983Y-40508922D01*
X26420790Y-40601715D01*
X26582000Y-40634361D01*
X28282000Y-40634361D01*
X28432603Y-40606023D01*
X28570922Y-40517017D01*
X28663715Y-40381210D01*
X28696361Y-40220000D01*
X28696361Y-38520000D01*
X28668023Y-38369397D01*
X28579017Y-38231078D01*
X28443210Y-38138285D01*
X28282000Y-38105639D01*
X26582000Y-38105639D01*
X26431397Y-38133977D01*
X26293078Y-38222983D01*
X26200285Y-38358790D01*
X26167639Y-38520000D01*
X25881400Y-38520000D01*
X25881400Y-36830000D01*
X26150986Y-36830000D01*
X26246624Y-37310803D01*
X26518977Y-37718409D01*
X26926583Y-37990762D01*
X27407386Y-38086400D01*
X27456614Y-38086400D01*
X27937417Y-37990762D01*
X28345023Y-37718409D01*
X28495010Y-37493936D01*
X29946464Y-37493936D01*
X30066086Y-37783444D01*
X30287391Y-38005136D01*
X30576689Y-38125263D01*
X30889936Y-38125536D01*
X31179444Y-38005914D01*
X31314193Y-37871400D01*
X32037058Y-37871400D01*
X32740629Y-38574971D01*
X32740464Y-38763936D01*
X32770488Y-38836600D01*
X31750000Y-38836600D01*
X31545877Y-38877203D01*
X31372829Y-38992829D01*
X30356829Y-40008829D01*
X30241203Y-40181877D01*
X30218498Y-40296022D01*
X30066864Y-40447391D01*
X29946737Y-40736689D01*
X29946464Y-41049936D01*
X30066086Y-41339444D01*
X30287391Y-41561136D01*
X30576689Y-41681263D01*
X30889936Y-41681536D01*
X31179444Y-41561914D01*
X31401136Y-41340609D01*
X31521263Y-41051311D01*
X31521536Y-40738064D01*
X31408894Y-40465448D01*
X31970942Y-39903400D01*
X34979888Y-39903400D01*
X35113391Y-40037136D01*
X35402689Y-40157263D01*
X35715936Y-40157536D01*
X36005444Y-40037914D01*
X36227136Y-39816609D01*
X36347263Y-39527311D01*
X36347536Y-39214064D01*
X36227914Y-38924556D01*
X36067575Y-38763936D01*
X40868464Y-38763936D01*
X40988086Y-39053444D01*
X41122600Y-39188193D01*
X41122600Y-40821888D01*
X40988864Y-40955391D01*
X40868737Y-41244689D01*
X40868464Y-41557936D01*
X40988086Y-41847444D01*
X41209391Y-42069136D01*
X41498689Y-42189263D01*
X41811936Y-42189536D01*
X42101444Y-42069914D01*
X42323136Y-41848609D01*
X42443263Y-41559311D01*
X42443536Y-41246064D01*
X42323914Y-40956556D01*
X42189400Y-40821807D01*
X42189400Y-40287936D01*
X45186464Y-40287936D01*
X45306086Y-40577444D01*
X45527391Y-40799136D01*
X45816689Y-40919263D01*
X46129936Y-40919536D01*
X46412925Y-40802608D01*
X46427977Y-40882603D01*
X46516983Y-41020922D01*
X46652790Y-41113715D01*
X46814000Y-41146361D01*
X48014000Y-41146361D01*
X48164603Y-41118023D01*
X48302922Y-41029017D01*
X48395715Y-40893210D01*
X48428361Y-40732000D01*
X48428361Y-39532000D01*
X48599639Y-39532000D01*
X48599639Y-40732000D01*
X48627977Y-40882603D01*
X48716983Y-41020922D01*
X48852790Y-41113715D01*
X49014000Y-41146361D01*
X50214000Y-41146361D01*
X50364603Y-41118023D01*
X50502922Y-41029017D01*
X50595715Y-40893210D01*
X50628361Y-40732000D01*
X50628361Y-40714703D01*
X50774600Y-40860941D01*
X50774600Y-41329888D01*
X50640864Y-41463391D01*
X50520737Y-41752689D01*
X50520464Y-42065936D01*
X50640086Y-42355444D01*
X50861391Y-42577136D01*
X51150689Y-42697263D01*
X51463936Y-42697536D01*
X51753444Y-42577914D01*
X51975136Y-42356609D01*
X52095263Y-42067311D01*
X52095536Y-41754064D01*
X51975914Y-41464556D01*
X51841400Y-41329807D01*
X51841400Y-40640000D01*
X51836321Y-40614464D01*
X51800797Y-40435876D01*
X51734144Y-40336123D01*
X51685171Y-40262829D01*
X51685168Y-40262827D01*
X51177171Y-39754829D01*
X51004123Y-39639203D01*
X50800000Y-39598600D01*
X50628361Y-39598600D01*
X50628361Y-39532000D01*
X50600023Y-39381397D01*
X50511017Y-39243078D01*
X50375210Y-39150285D01*
X50214000Y-39117639D01*
X49014000Y-39117639D01*
X48863397Y-39145977D01*
X48725078Y-39234983D01*
X48632285Y-39370790D01*
X48599639Y-39532000D01*
X48428361Y-39532000D01*
X48400023Y-39381397D01*
X48311017Y-39243078D01*
X48175210Y-39150285D01*
X48014000Y-39117639D01*
X46814000Y-39117639D01*
X46663397Y-39145977D01*
X46525078Y-39234983D01*
X46432285Y-39370790D01*
X46413806Y-39462039D01*
X46131311Y-39344737D01*
X45818064Y-39344464D01*
X45528556Y-39464086D01*
X45306864Y-39685391D01*
X45186737Y-39974689D01*
X45186464Y-40287936D01*
X42189400Y-40287936D01*
X42189400Y-39188112D01*
X42323136Y-39054609D01*
X42443263Y-38765311D01*
X42443536Y-38452064D01*
X42323914Y-38162556D01*
X42102609Y-37940864D01*
X41813311Y-37820737D01*
X41500064Y-37820464D01*
X41210556Y-37940086D01*
X40988864Y-38161391D01*
X40868737Y-38450689D01*
X40868464Y-38763936D01*
X36067575Y-38763936D01*
X36006609Y-38702864D01*
X35717311Y-38582737D01*
X35404064Y-38582464D01*
X35114556Y-38702086D01*
X34979807Y-38836600D01*
X34285661Y-38836600D01*
X34315263Y-38765311D01*
X34315536Y-38452064D01*
X34195914Y-38162556D01*
X33974609Y-37940864D01*
X33685311Y-37820737D01*
X33494913Y-37820571D01*
X32635171Y-36960829D01*
X32462123Y-36845203D01*
X32258000Y-36804600D01*
X31314112Y-36804600D01*
X31180609Y-36670864D01*
X30891311Y-36550737D01*
X30578064Y-36550464D01*
X30288556Y-36670086D01*
X30066864Y-36891391D01*
X29946737Y-37180689D01*
X29946464Y-37493936D01*
X28495010Y-37493936D01*
X28617376Y-37310803D01*
X28713014Y-36830000D01*
X28617376Y-36349197D01*
X28345023Y-35941591D01*
X27937417Y-35669238D01*
X27456614Y-35573600D01*
X27407386Y-35573600D01*
X26926583Y-35669238D01*
X26518977Y-35941591D01*
X26246624Y-36349197D01*
X26150986Y-36830000D01*
X25881400Y-36830000D01*
X25881400Y-29637803D01*
X26433306Y-30190673D01*
X27409291Y-30595938D01*
X28466072Y-30596860D01*
X29442764Y-30193299D01*
X30190673Y-29446694D01*
X30595938Y-28470709D01*
X30596860Y-27413928D01*
X30594157Y-27407386D01*
X32017600Y-27407386D01*
X32017600Y-27456614D01*
X32113238Y-27937417D01*
X32385591Y-28345023D01*
X32793197Y-28617376D01*
X33274000Y-28713014D01*
X33754803Y-28617376D01*
X34162409Y-28345023D01*
X34434762Y-27937417D01*
X34530400Y-27456614D01*
X34530400Y-27407386D01*
X34557600Y-27407386D01*
X34557600Y-27456614D01*
X34653238Y-27937417D01*
X34925591Y-28345023D01*
X35333197Y-28617376D01*
X35814000Y-28713014D01*
X36294803Y-28617376D01*
X36702409Y-28345023D01*
X36974762Y-27937417D01*
X37031896Y-27650184D01*
X37219995Y-27650184D01*
X37389811Y-28067541D01*
X37706417Y-28388142D01*
X38121611Y-28563179D01*
X38135817Y-28566001D01*
X38315900Y-28509927D01*
X38315900Y-27470100D01*
X38392100Y-27470100D01*
X38392100Y-28509927D01*
X38572183Y-28566001D01*
X38586389Y-28563179D01*
X39001583Y-28388142D01*
X39318189Y-28067541D01*
X39488005Y-27650184D01*
X39455684Y-27546300D01*
X39739200Y-27546300D01*
X39739200Y-28342628D01*
X39785603Y-28454655D01*
X39871344Y-28540397D01*
X39983371Y-28586800D01*
X40779700Y-28586800D01*
X40855900Y-28510600D01*
X40855900Y-27470100D01*
X40932100Y-27470100D01*
X40932100Y-28510600D01*
X41008300Y-28586800D01*
X41804629Y-28586800D01*
X41916656Y-28540397D01*
X42002397Y-28454655D01*
X42048800Y-28342628D01*
X42048800Y-27546300D01*
X44819200Y-27546300D01*
X44819200Y-28342628D01*
X44865603Y-28454655D01*
X44951344Y-28540397D01*
X45063371Y-28586800D01*
X45859700Y-28586800D01*
X45935900Y-28510600D01*
X45935900Y-27470100D01*
X46012100Y-27470100D01*
X46012100Y-28510600D01*
X46088300Y-28586800D01*
X46884629Y-28586800D01*
X46996656Y-28540397D01*
X47082397Y-28454655D01*
X47128800Y-28342628D01*
X47128800Y-27546300D01*
X47052600Y-27470100D01*
X46012100Y-27470100D01*
X45935900Y-27470100D01*
X44895400Y-27470100D01*
X44819200Y-27546300D01*
X42048800Y-27546300D01*
X41972600Y-27470100D01*
X40932100Y-27470100D01*
X40855900Y-27470100D01*
X39815400Y-27470100D01*
X39739200Y-27546300D01*
X39455684Y-27546300D01*
X39431975Y-27470100D01*
X38392100Y-27470100D01*
X38315900Y-27470100D01*
X37276025Y-27470100D01*
X37219995Y-27650184D01*
X37031896Y-27650184D01*
X37070400Y-27456614D01*
X37070400Y-27407386D01*
X47257600Y-27407386D01*
X47257600Y-27456614D01*
X47353238Y-27937417D01*
X47625591Y-28345023D01*
X48033197Y-28617376D01*
X48514000Y-28713014D01*
X48994803Y-28617376D01*
X49402409Y-28345023D01*
X49674762Y-27937417D01*
X49770400Y-27456614D01*
X49770400Y-27407386D01*
X49797600Y-27407386D01*
X49797600Y-27456614D01*
X49893238Y-27937417D01*
X50165591Y-28345023D01*
X50573197Y-28617376D01*
X51054000Y-28713014D01*
X51534803Y-28617376D01*
X51942409Y-28345023D01*
X52214762Y-27937417D01*
X52310400Y-27456614D01*
X52310400Y-27407386D01*
X52337600Y-27407386D01*
X52337600Y-27456614D01*
X52433238Y-27937417D01*
X52705591Y-28345023D01*
X53113197Y-28617376D01*
X53594000Y-28713014D01*
X54074803Y-28617376D01*
X54482409Y-28345023D01*
X54754762Y-27937417D01*
X54850400Y-27456614D01*
X54850400Y-27407386D01*
X54877600Y-27407386D01*
X54877600Y-27456614D01*
X54973238Y-27937417D01*
X55245591Y-28345023D01*
X55653197Y-28617376D01*
X56134000Y-28713014D01*
X56614803Y-28617376D01*
X57022409Y-28345023D01*
X57294762Y-27937417D01*
X57390400Y-27456614D01*
X57390400Y-27407386D01*
X57417600Y-27407386D01*
X57417600Y-27456614D01*
X57513238Y-27937417D01*
X57785591Y-28345023D01*
X58193197Y-28617376D01*
X58674000Y-28713014D01*
X59154803Y-28617376D01*
X59562409Y-28345023D01*
X59834762Y-27937417D01*
X59930400Y-27456614D01*
X59930400Y-27407386D01*
X59834762Y-26926583D01*
X59562409Y-26518977D01*
X59154803Y-26246624D01*
X58674000Y-26150986D01*
X58193197Y-26246624D01*
X57785591Y-26518977D01*
X57513238Y-26926583D01*
X57417600Y-27407386D01*
X57390400Y-27407386D01*
X57294762Y-26926583D01*
X57022409Y-26518977D01*
X56614803Y-26246624D01*
X56134000Y-26150986D01*
X55653197Y-26246624D01*
X55245591Y-26518977D01*
X54973238Y-26926583D01*
X54877600Y-27407386D01*
X54850400Y-27407386D01*
X54754762Y-26926583D01*
X54482409Y-26518977D01*
X54074803Y-26246624D01*
X53594000Y-26150986D01*
X53113197Y-26246624D01*
X52705591Y-26518977D01*
X52433238Y-26926583D01*
X52337600Y-27407386D01*
X52310400Y-27407386D01*
X52214762Y-26926583D01*
X51942409Y-26518977D01*
X51534803Y-26246624D01*
X51054000Y-26150986D01*
X50573197Y-26246624D01*
X50165591Y-26518977D01*
X49893238Y-26926583D01*
X49797600Y-27407386D01*
X49770400Y-27407386D01*
X49674762Y-26926583D01*
X49402409Y-26518977D01*
X48994803Y-26246624D01*
X48514000Y-26150986D01*
X48033197Y-26246624D01*
X47625591Y-26518977D01*
X47353238Y-26926583D01*
X47257600Y-27407386D01*
X37070400Y-27407386D01*
X37031897Y-27213816D01*
X37219995Y-27213816D01*
X37276025Y-27393900D01*
X38315900Y-27393900D01*
X38315900Y-26354073D01*
X38392100Y-26354073D01*
X38392100Y-27393900D01*
X39431975Y-27393900D01*
X39488005Y-27213816D01*
X39318189Y-26796459D01*
X39046530Y-26521372D01*
X39739200Y-26521372D01*
X39739200Y-27317700D01*
X39815400Y-27393900D01*
X40855900Y-27393900D01*
X40855900Y-26353400D01*
X40932100Y-26353400D01*
X40932100Y-27393900D01*
X41972600Y-27393900D01*
X42048800Y-27317700D01*
X42048800Y-26521372D01*
X44819200Y-26521372D01*
X44819200Y-27317700D01*
X44895400Y-27393900D01*
X45935900Y-27393900D01*
X45935900Y-26353400D01*
X46012100Y-26353400D01*
X46012100Y-27393900D01*
X47052600Y-27393900D01*
X47128800Y-27317700D01*
X47128800Y-26521372D01*
X47082397Y-26409345D01*
X46996656Y-26323603D01*
X46884629Y-26277200D01*
X46088300Y-26277200D01*
X46012100Y-26353400D01*
X45935900Y-26353400D01*
X45859700Y-26277200D01*
X45063371Y-26277200D01*
X44951344Y-26323603D01*
X44865603Y-26409345D01*
X44819200Y-26521372D01*
X42048800Y-26521372D01*
X42002397Y-26409345D01*
X41916656Y-26323603D01*
X41804629Y-26277200D01*
X41008300Y-26277200D01*
X40932100Y-26353400D01*
X40855900Y-26353400D01*
X40779700Y-26277200D01*
X39983371Y-26277200D01*
X39871344Y-26323603D01*
X39785603Y-26409345D01*
X39739200Y-26521372D01*
X39046530Y-26521372D01*
X39001583Y-26475858D01*
X38586389Y-26300821D01*
X38572183Y-26297999D01*
X38392100Y-26354073D01*
X38315900Y-26354073D01*
X38135817Y-26297999D01*
X38121611Y-26300821D01*
X37706417Y-26475858D01*
X37389811Y-26796459D01*
X37219995Y-27213816D01*
X37031897Y-27213816D01*
X36974762Y-26926583D01*
X36702409Y-26518977D01*
X36294803Y-26246624D01*
X35814000Y-26150986D01*
X35333197Y-26246624D01*
X34925591Y-26518977D01*
X34653238Y-26926583D01*
X34557600Y-27407386D01*
X34530400Y-27407386D01*
X34434762Y-26926583D01*
X34162409Y-26518977D01*
X33754803Y-26246624D01*
X33274000Y-26150986D01*
X32793197Y-26246624D01*
X32385591Y-26518977D01*
X32113238Y-26926583D01*
X32017600Y-27407386D01*
X30594157Y-27407386D01*
X30193299Y-26437236D01*
X29638432Y-25881400D01*
X60404587Y-25881400D01*
X60458570Y-25892138D01*
M02*
