G04 #@! TF.FileFunction,Paste,Top*
%FSLAX46Y46*%
G04 Gerber Fmt 4.6, Leading zero omitted, Abs format (unit mm)*
G04 Created by KiCad (PCBNEW 4.0.7) date 07/25/18 13:49:51*
%MOMM*%
%LPD*%
G01*
G04 APERTURE LIST*
%ADD10C,0.100000*%
%ADD11R,1.000000X1.600000*%
%ADD12R,0.750000X0.800000*%
%ADD13R,0.600000X0.700000*%
%ADD14R,0.500000X0.900000*%
%ADD15R,0.700000X1.300000*%
%ADD16R,0.508000X1.143000*%
%ADD17R,0.800000X0.800000*%
%ADD18R,0.800000X0.900000*%
%ADD19R,1.550000X1.300000*%
G04 APERTURE END LIST*
D10*
D11*
X38632000Y-30480000D03*
X41632000Y-30480000D03*
X40616000Y-36576000D03*
X37616000Y-36576000D03*
X33758000Y-30480000D03*
X30758000Y-30480000D03*
X32742000Y-32766000D03*
X29742000Y-32766000D03*
D12*
X48768000Y-35318000D03*
X48768000Y-36818000D03*
D13*
X35622000Y-30480000D03*
X37022000Y-30480000D03*
D14*
X54852000Y-41910000D03*
X53352000Y-41910000D03*
X54852000Y-39878000D03*
X53352000Y-39878000D03*
D15*
X36134000Y-39370000D03*
X38034000Y-39370000D03*
D16*
X30607000Y-35687000D03*
X31877000Y-35687000D03*
X33147000Y-35687000D03*
X34417000Y-35687000D03*
X34417000Y-42037000D03*
X33147000Y-42037000D03*
X31877000Y-42037000D03*
X30607000Y-42037000D03*
D17*
X49530000Y-39840000D03*
X49530000Y-41440000D03*
D18*
X37912000Y-34528000D03*
X39812000Y-34528000D03*
X38862000Y-32528000D03*
D16*
X47117000Y-36703000D03*
X45847000Y-36703000D03*
X44577000Y-36703000D03*
X43307000Y-36703000D03*
X43307000Y-30353000D03*
X44577000Y-30353000D03*
X45847000Y-30353000D03*
X47117000Y-30353000D03*
D19*
X59606000Y-30770000D03*
X59606000Y-35270000D03*
X51646000Y-35270000D03*
X51646000Y-30770000D03*
M02*
