G04 #@! TF.FileFunction,Copper,L1,Top,Signal*
%FSLAX46Y46*%
G04 Gerber Fmt 4.6, Leading zero omitted, Abs format (unit mm)*
G04 Created by KiCad (PCBNEW 4.0.7) date 07/25/18 13:49:51*
%MOMM*%
%LPD*%
G01*
G04 APERTURE LIST*
%ADD10C,0.100000*%
%ADD11R,1.000000X1.600000*%
%ADD12R,0.750000X0.800000*%
%ADD13R,0.600000X0.700000*%
%ADD14R,1.700000X1.700000*%
%ADD15O,1.700000X1.700000*%
%ADD16R,0.500000X0.900000*%
%ADD17R,0.700000X1.300000*%
%ADD18R,0.508000X1.143000*%
%ADD19C,4.500000*%
%ADD20R,0.800000X0.800000*%
%ADD21R,0.800000X0.900000*%
%ADD22R,1.550000X1.300000*%
%ADD23C,0.762000*%
%ADD24C,0.508000*%
%ADD25C,0.762000*%
%ADD26C,0.254000*%
G04 APERTURE END LIST*
D10*
D11*
X38632000Y-30480000D03*
X41632000Y-30480000D03*
X40616000Y-36576000D03*
X37616000Y-36576000D03*
X33758000Y-30480000D03*
X30758000Y-30480000D03*
X32742000Y-32766000D03*
X29742000Y-32766000D03*
D12*
X48768000Y-35318000D03*
X48768000Y-36818000D03*
D13*
X35622000Y-30480000D03*
X37022000Y-30480000D03*
D14*
X27432000Y-39370000D03*
D15*
X27432000Y-36830000D03*
D14*
X45974000Y-27432000D03*
D15*
X48514000Y-27432000D03*
X51054000Y-27432000D03*
X53594000Y-27432000D03*
X56134000Y-27432000D03*
X58674000Y-27432000D03*
D14*
X40894000Y-27432000D03*
D15*
X38354000Y-27432000D03*
X35814000Y-27432000D03*
X33274000Y-27432000D03*
D16*
X54852000Y-41910000D03*
X53352000Y-41910000D03*
X54852000Y-39878000D03*
X53352000Y-39878000D03*
D17*
X36134000Y-39370000D03*
X38034000Y-39370000D03*
D18*
X30607000Y-35687000D03*
X31877000Y-35687000D03*
X33147000Y-35687000D03*
X34417000Y-35687000D03*
X34417000Y-42037000D03*
X33147000Y-42037000D03*
X31877000Y-42037000D03*
X30607000Y-42037000D03*
D19*
X27940000Y-27940000D03*
X58420000Y-40640000D03*
D20*
X49530000Y-39840000D03*
X49530000Y-41440000D03*
D21*
X37912000Y-34528000D03*
X39812000Y-34528000D03*
X38862000Y-32528000D03*
D18*
X47117000Y-36703000D03*
X45847000Y-36703000D03*
X44577000Y-36703000D03*
X43307000Y-36703000D03*
X43307000Y-30353000D03*
X44577000Y-30353000D03*
X45847000Y-30353000D03*
X47117000Y-30353000D03*
D22*
X59606000Y-30770000D03*
X59606000Y-35270000D03*
X51646000Y-35270000D03*
X51646000Y-30770000D03*
D23*
X49784000Y-35306000D03*
X40386000Y-39370000D03*
X28702000Y-32766000D03*
X36830000Y-36576000D03*
X54864000Y-40894000D03*
X29718000Y-30480000D03*
X36830000Y-34544000D03*
X43180000Y-29210000D03*
X41656000Y-31750000D03*
X53594000Y-30734000D03*
X57404000Y-30734000D03*
X46990000Y-38100000D03*
X42164000Y-37338000D03*
X44450000Y-35560000D03*
X46990000Y-33528000D03*
X31750000Y-39370000D03*
X30480000Y-40640000D03*
X34036000Y-39878000D03*
X30988000Y-37338000D03*
X46736000Y-34798000D03*
X43180000Y-35306000D03*
X44958000Y-38862000D03*
X33274000Y-40640000D03*
X35560000Y-36576000D03*
X35052000Y-39370000D03*
X45974000Y-31750000D03*
X51816000Y-34036000D03*
D24*
X48768000Y-35318000D02*
X49772000Y-35318000D01*
X49772000Y-35318000D02*
X49784000Y-35306000D01*
X38034000Y-39370000D02*
X40386000Y-39370000D01*
X29742000Y-32766000D02*
X28702000Y-32766000D01*
X37616000Y-36576000D02*
X36830000Y-36576000D01*
X54852000Y-41910000D02*
X54852000Y-40906000D01*
X54852000Y-40882000D02*
X54864000Y-40894000D01*
X54852000Y-40882000D02*
X54852000Y-39878000D01*
X54852000Y-40906000D02*
X54864000Y-40894000D01*
X30758000Y-30480000D02*
X29718000Y-30480000D01*
X37912000Y-34528000D02*
X36846000Y-34528000D01*
X36846000Y-34528000D02*
X36830000Y-34544000D01*
X43307000Y-30353000D02*
X43307000Y-29337000D01*
X43307000Y-29337000D02*
X43180000Y-29210000D01*
X41632000Y-30480000D02*
X41632000Y-31726000D01*
X41632000Y-31726000D02*
X41656000Y-31750000D01*
X38632000Y-30480000D02*
X38632000Y-32298000D01*
X38632000Y-32298000D02*
X38862000Y-32528000D01*
D25*
X38632000Y-30480000D02*
X37022000Y-30480000D01*
D26*
X48768000Y-36818000D02*
X47232000Y-36818000D01*
X47232000Y-36818000D02*
X47117000Y-36703000D01*
X47117000Y-36703000D02*
X47117000Y-35941000D01*
X57404000Y-32004000D02*
X57404000Y-30734000D01*
X56388000Y-33020000D02*
X57404000Y-32004000D01*
X49530000Y-33020000D02*
X56388000Y-33020000D01*
X47752000Y-34798000D02*
X49530000Y-33020000D01*
X47752000Y-35306000D02*
X47752000Y-34798000D01*
X47117000Y-35941000D02*
X47752000Y-35306000D01*
X51646000Y-30770000D02*
X53558000Y-30770000D01*
X53558000Y-30770000D02*
X53594000Y-30734000D01*
X57440000Y-30770000D02*
X59606000Y-30770000D01*
X57404000Y-30734000D02*
X57440000Y-30770000D01*
X40616000Y-36576000D02*
X41402000Y-36576000D01*
X47117000Y-37973000D02*
X47117000Y-36703000D01*
X46990000Y-38100000D02*
X47117000Y-37973000D01*
X41402000Y-36576000D02*
X42164000Y-37338000D01*
X39812000Y-34528000D02*
X39812000Y-34986000D01*
X39812000Y-34986000D02*
X40616000Y-35790000D01*
X40616000Y-35790000D02*
X40616000Y-36576000D01*
X51054000Y-27432000D02*
X51054000Y-30178000D01*
X51054000Y-30178000D02*
X51646000Y-30770000D01*
X48629000Y-36703000D02*
X48768000Y-36564000D01*
D25*
X32742000Y-33806000D02*
X32742000Y-32766000D01*
X31877000Y-34671000D02*
X32742000Y-33806000D01*
X31877000Y-35687000D02*
X31877000Y-34671000D01*
X33758000Y-31750000D02*
X32742000Y-32766000D01*
X33758000Y-30480000D02*
X33758000Y-31750000D01*
X33758000Y-30480000D02*
X35622000Y-30480000D01*
X35814000Y-27432000D02*
X35560000Y-27432000D01*
X35560000Y-27432000D02*
X33758000Y-29234000D01*
X33758000Y-29234000D02*
X33758000Y-30480000D01*
X33274000Y-27432000D02*
X35814000Y-27432000D01*
D24*
X27432000Y-39370000D02*
X30480000Y-39370000D01*
X31877000Y-40767000D02*
X31877000Y-42037000D01*
X30480000Y-39370000D02*
X31877000Y-40767000D01*
X27432000Y-36830000D02*
X28448000Y-36830000D01*
X33147000Y-36703000D02*
X33147000Y-35687000D01*
X31496000Y-38354000D02*
X33147000Y-36703000D01*
X29972000Y-38354000D02*
X31496000Y-38354000D01*
X28448000Y-36830000D02*
X29972000Y-38354000D01*
D26*
X45847000Y-36703000D02*
X45847000Y-38227000D01*
X47460000Y-39840000D02*
X49530000Y-39840000D01*
X45847000Y-38227000D02*
X47460000Y-39840000D01*
X48514000Y-27432000D02*
X48514000Y-30480000D01*
X45847000Y-33147000D02*
X45847000Y-36703000D01*
X48514000Y-30480000D02*
X45847000Y-33147000D01*
X48203584Y-31775601D02*
X54838399Y-31775601D01*
X44577000Y-35687000D02*
X44450000Y-35560000D01*
X44577000Y-36703000D02*
X44577000Y-35687000D01*
X46990000Y-32989185D02*
X48203584Y-31775601D01*
X46990000Y-33528000D02*
X46990000Y-32989185D01*
X54864000Y-28702000D02*
X53594000Y-27432000D01*
X54864000Y-31750000D02*
X54864000Y-28702000D01*
X54838399Y-31775601D02*
X54864000Y-31750000D01*
X34417000Y-35687000D02*
X34417000Y-36703000D01*
X34417000Y-36703000D02*
X35814000Y-38100000D01*
X44577000Y-37465000D02*
X44577000Y-36703000D01*
X43942000Y-38100000D02*
X44577000Y-37465000D01*
X35814000Y-38100000D02*
X43942000Y-38100000D01*
X30607000Y-42037000D02*
X30607000Y-40767000D01*
X31750000Y-39370000D02*
X34417000Y-36703000D01*
X30607000Y-40767000D02*
X30480000Y-40640000D01*
X30607000Y-35687000D02*
X30607000Y-36957000D01*
X34544000Y-40386000D02*
X34544000Y-40640000D01*
X34036000Y-39878000D02*
X34544000Y-40386000D01*
X30607000Y-36957000D02*
X30988000Y-37338000D01*
X56134000Y-31242000D02*
X54864000Y-32512000D01*
X46736000Y-34798000D02*
X47225601Y-34308399D01*
X47479601Y-34308399D02*
X47225601Y-34308399D01*
X49276000Y-32512000D02*
X47479601Y-34308399D01*
X54864000Y-32512000D02*
X49276000Y-32512000D01*
X56134000Y-31242000D02*
X56134000Y-27432000D01*
X43307000Y-36703000D02*
X43307000Y-35433000D01*
X43307000Y-35433000D02*
X43180000Y-35306000D01*
X34544000Y-40640000D02*
X43180000Y-40640000D01*
X43180000Y-40640000D02*
X44958000Y-38862000D01*
X34417000Y-42037000D02*
X34417000Y-40767000D01*
X34417000Y-40767000D02*
X34544000Y-40640000D01*
X58674000Y-27432000D02*
X58674000Y-26924000D01*
X58674000Y-26924000D02*
X57912000Y-26162000D01*
X57912000Y-26162000D02*
X48006000Y-26162000D01*
X48006000Y-26162000D02*
X47244000Y-26924000D01*
X47244000Y-26924000D02*
X47244000Y-30226000D01*
X47244000Y-30226000D02*
X47117000Y-30353000D01*
X53352000Y-41910000D02*
X50000000Y-41910000D01*
X50000000Y-41910000D02*
X49530000Y-41440000D01*
X33147000Y-40767000D02*
X33147000Y-42037000D01*
X33274000Y-40640000D02*
X33147000Y-40767000D01*
X35560000Y-34036000D02*
X35560000Y-36576000D01*
X36068000Y-33528000D02*
X35560000Y-34036000D01*
X41656000Y-33528000D02*
X36068000Y-33528000D01*
X44577000Y-30607000D02*
X41656000Y-33528000D01*
X35052000Y-39370000D02*
X36134000Y-39370000D01*
X44577000Y-30353000D02*
X44577000Y-30607000D01*
X51646000Y-35270000D02*
X51646000Y-34206000D01*
X45847000Y-31623000D02*
X45847000Y-30353000D01*
X45974000Y-31750000D02*
X45847000Y-31623000D01*
X51646000Y-34206000D02*
X51816000Y-34036000D01*
X51646000Y-35270000D02*
X51646000Y-37168000D01*
X53352000Y-38874000D02*
X53352000Y-39878000D01*
X51646000Y-37168000D02*
X53352000Y-38874000D01*
X59606000Y-35270000D02*
X51646000Y-35270000D01*
M02*
