G04 #@! TF.GenerationSoftware,KiCad,Pcbnew,(5.0.0)*
G04 #@! TF.CreationDate,2018-10-12T13:49:54-04:00*
G04 #@! TF.ProjectId,AutoFlyer,4175746F466C7965722E6B696361645F,rev?*
G04 #@! TF.SameCoordinates,Original*
G04 #@! TF.FileFunction,Copper,L2,Bot,Signal*
G04 #@! TF.FilePolarity,Positive*
%FSLAX46Y46*%
G04 Gerber Fmt 4.6, Leading zero omitted, Abs format (unit mm)*
G04 Created by KiCad (PCBNEW (5.0.0)) date 10/12/18 13:49:54*
%MOMM*%
%LPD*%
G01*
G04 APERTURE LIST*
G04 #@! TA.AperFunction,ComponentPad*
%ADD10R,1.700000X1.700000*%
G04 #@! TD*
G04 #@! TA.AperFunction,ComponentPad*
%ADD11O,1.700000X1.700000*%
G04 #@! TD*
G04 #@! TA.AperFunction,WasherPad*
%ADD12C,4.500000*%
G04 #@! TD*
G04 #@! TA.AperFunction,SMDPad,CuDef*
%ADD13R,1.550000X1.300000*%
G04 #@! TD*
G04 #@! TA.AperFunction,SMDPad,CuDef*
%ADD14R,1.200000X1.200000*%
G04 #@! TD*
G04 #@! TA.AperFunction,ViaPad*
%ADD15C,0.762000*%
G04 #@! TD*
G04 #@! TA.AperFunction,Conductor*
%ADD16C,0.254000*%
G04 #@! TD*
G04 #@! TA.AperFunction,Conductor*
%ADD17C,0.304800*%
G04 #@! TD*
G04 APERTURE END LIST*
D10*
G04 #@! TO.P,J1,1*
G04 #@! TO.N,/MotorA*
X27432000Y-39370000D03*
D11*
G04 #@! TO.P,J1,2*
G04 #@! TO.N,/MotorB*
X27432000Y-36830000D03*
G04 #@! TD*
D10*
G04 #@! TO.P,J2,1*
G04 #@! TO.N,GND*
X58674000Y-27432000D03*
D11*
G04 #@! TO.P,J2,2*
G04 #@! TO.N,/sck*
X56134000Y-27432000D03*
G04 #@! TO.P,J2,3*
G04 #@! TO.N,+3V3*
X53594000Y-27432000D03*
G04 #@! TO.P,J2,4*
G04 #@! TO.N,/miso*
X51054000Y-27432000D03*
G04 #@! TO.P,J2,5*
G04 #@! TO.N,/mosi*
X48514000Y-27432000D03*
G04 #@! TO.P,J2,6*
G04 #@! TO.N,/rst*
X45974000Y-27432000D03*
G04 #@! TD*
D10*
G04 #@! TO.P,J3,1*
G04 #@! TO.N,GND*
X40894000Y-27432000D03*
D11*
G04 #@! TO.P,J3,2*
G04 #@! TO.N,Net-(J3-Pad2)*
X38354000Y-27432000D03*
G04 #@! TO.P,J3,3*
X35814000Y-27432000D03*
G04 #@! TO.P,J3,4*
G04 #@! TO.N,+6V*
X33274000Y-27432000D03*
G04 #@! TD*
D12*
G04 #@! TO.P,X1,*
G04 #@! TO.N,*
X27940000Y-27940000D03*
G04 #@! TD*
D13*
G04 #@! TO.P,SW1,2*
G04 #@! TO.N,+3V3*
X51646000Y-30770000D03*
G04 #@! TO.P,SW1,1*
G04 #@! TO.N,Net-(R2-Pad2)*
X51646000Y-35270000D03*
X59606000Y-35270000D03*
G04 #@! TO.P,SW1,2*
G04 #@! TO.N,+3V3*
X59606000Y-30770000D03*
G04 #@! TD*
D12*
G04 #@! TO.P,X2,*
G04 #@! TO.N,*
X58420000Y-40640000D03*
G04 #@! TD*
D14*
G04 #@! TO.P,D1,2*
G04 #@! TO.N,/led*
X50800000Y-39710000D03*
G04 #@! TO.P,D1,1*
G04 #@! TO.N,Net-(D1-Pad1)*
X50800000Y-41910000D03*
G04 #@! TD*
D15*
G04 #@! TO.N,GND*
X38608000Y-41656000D03*
X36322000Y-36068000D03*
X36068000Y-38608000D03*
X27686000Y-32004000D03*
X53848000Y-40894000D03*
X45974000Y-29718000D03*
X50292000Y-32766000D03*
X40386000Y-41935390D03*
G04 #@! TO.N,/miso*
X53848000Y-31242000D03*
G04 #@! TO.N,/mosi*
X46990000Y-32766000D03*
G04 #@! TO.N,Net-(D1-Pad1)*
X49530000Y-41910000D03*
G04 #@! TO.N,Net-(R2-Pad2)*
X53340000Y-35306000D03*
X50292000Y-35306000D03*
G04 #@! TO.N,/led*
X50279138Y-37833138D03*
G04 #@! TO.N,/c0*
X30226000Y-40640000D03*
X31750000Y-39116000D03*
G04 #@! TO.N,/c3*
X30734000Y-34036000D03*
X33274000Y-33782000D03*
X37084000Y-33782000D03*
X41402000Y-34036000D03*
G04 #@! TO.N,/c2*
X41656000Y-35306000D03*
X35560000Y-35306000D03*
G04 #@! TO.N,/c1*
X41656000Y-38100000D03*
X35560000Y-42418000D03*
G04 #@! TD*
D16*
G04 #@! TO.N,+3V3*
X56932000Y-30770000D02*
X53594000Y-27432000D01*
X59606000Y-30770000D02*
X56932000Y-30770000D01*
X51771000Y-30770000D02*
X53259000Y-32258000D01*
X51646000Y-30770000D02*
X51771000Y-30770000D01*
X53259000Y-32258000D02*
X54610000Y-32258000D01*
X56098000Y-30770000D02*
X56932000Y-30770000D01*
X54610000Y-32258000D02*
X56098000Y-30770000D01*
G04 #@! TO.N,/miso*
X53848000Y-30226000D02*
X51054000Y-27432000D01*
X53848000Y-31242000D02*
X53848000Y-30226000D01*
G04 #@! TO.N,/mosi*
X46990000Y-32766000D02*
X46990000Y-30734000D01*
X48514000Y-29210000D02*
X48514000Y-27432000D01*
X46990000Y-30734000D02*
X48514000Y-29210000D01*
G04 #@! TO.N,Net-(D1-Pad1)*
X49530000Y-41910000D02*
X50800000Y-41910000D01*
G04 #@! TO.N,Net-(R2-Pad2)*
X51682000Y-35306000D02*
X51646000Y-35270000D01*
X53340000Y-35306000D02*
X51682000Y-35306000D01*
X51646000Y-35270000D02*
X50328000Y-35270000D01*
X50328000Y-35270000D02*
X50292000Y-35306000D01*
X59570000Y-35306000D02*
X59606000Y-35270000D01*
X53340000Y-35306000D02*
X59570000Y-35306000D01*
G04 #@! TO.N,/led*
X50800000Y-38354000D02*
X50279138Y-37833138D01*
X50800000Y-39710000D02*
X50800000Y-38354000D01*
G04 #@! TO.N,/c0*
X30226000Y-40640000D02*
X31750000Y-39116000D01*
G04 #@! TO.N,/c3*
X30734000Y-34036000D02*
X33020000Y-34036000D01*
X33020000Y-34036000D02*
X33274000Y-33782000D01*
X37084000Y-33782000D02*
X41148000Y-33782000D01*
X41148000Y-33782000D02*
X41402000Y-34036000D01*
G04 #@! TO.N,/c2*
X41656000Y-35306000D02*
X35560000Y-35306000D01*
G04 #@! TO.N,/c1*
X41656000Y-38100000D02*
X39116000Y-40640000D01*
X39116000Y-40640000D02*
X37338000Y-40640000D01*
X37338000Y-40640000D02*
X35560000Y-42418000D01*
G04 #@! TD*
D17*
G04 #@! TO.N,GND*
G36*
X60458570Y-25892138D02*
X60464140Y-25895860D01*
X60467862Y-25901430D01*
X60478600Y-25955414D01*
X60478600Y-29725053D01*
X60381000Y-29705639D01*
X58831000Y-29705639D01*
X58672431Y-29737180D01*
X58538003Y-29827003D01*
X58448180Y-29961431D01*
X58416639Y-30120000D01*
X58416639Y-30236600D01*
X57152941Y-30236600D01*
X55306447Y-28390107D01*
X55643777Y-28615503D01*
X56010257Y-28688400D01*
X56257743Y-28688400D01*
X56624223Y-28615503D01*
X57039814Y-28337814D01*
X57317503Y-27922223D01*
X57392278Y-27546300D01*
X57519200Y-27546300D01*
X57519200Y-28342628D01*
X57565603Y-28454655D01*
X57651344Y-28540397D01*
X57763371Y-28586800D01*
X58559700Y-28586800D01*
X58635900Y-28510600D01*
X58635900Y-27470100D01*
X58712100Y-27470100D01*
X58712100Y-28510600D01*
X58788300Y-28586800D01*
X59584629Y-28586800D01*
X59696656Y-28540397D01*
X59782397Y-28454655D01*
X59828800Y-28342628D01*
X59828800Y-27546300D01*
X59752600Y-27470100D01*
X58712100Y-27470100D01*
X58635900Y-27470100D01*
X57595400Y-27470100D01*
X57519200Y-27546300D01*
X57392278Y-27546300D01*
X57415014Y-27432000D01*
X57317503Y-26941777D01*
X57039814Y-26526186D01*
X57032610Y-26521372D01*
X57519200Y-26521372D01*
X57519200Y-27317700D01*
X57595400Y-27393900D01*
X58635900Y-27393900D01*
X58635900Y-26353400D01*
X58712100Y-26353400D01*
X58712100Y-27393900D01*
X59752600Y-27393900D01*
X59828800Y-27317700D01*
X59828800Y-26521372D01*
X59782397Y-26409345D01*
X59696656Y-26323603D01*
X59584629Y-26277200D01*
X58788300Y-26277200D01*
X58712100Y-26353400D01*
X58635900Y-26353400D01*
X58559700Y-26277200D01*
X57763371Y-26277200D01*
X57651344Y-26323603D01*
X57565603Y-26409345D01*
X57519200Y-26521372D01*
X57032610Y-26521372D01*
X56624223Y-26248497D01*
X56257743Y-26175600D01*
X56010257Y-26175600D01*
X55643777Y-26248497D01*
X55228186Y-26526186D01*
X54950497Y-26941777D01*
X54864000Y-27376629D01*
X54777503Y-26941777D01*
X54499814Y-26526186D01*
X54084223Y-26248497D01*
X53717743Y-26175600D01*
X53470257Y-26175600D01*
X53103777Y-26248497D01*
X52688186Y-26526186D01*
X52410497Y-26941777D01*
X52324000Y-27376629D01*
X52237503Y-26941777D01*
X51959814Y-26526186D01*
X51544223Y-26248497D01*
X51177743Y-26175600D01*
X50930257Y-26175600D01*
X50563777Y-26248497D01*
X50148186Y-26526186D01*
X49870497Y-26941777D01*
X49784000Y-27376629D01*
X49697503Y-26941777D01*
X49419814Y-26526186D01*
X49004223Y-26248497D01*
X48637743Y-26175600D01*
X48390257Y-26175600D01*
X48023777Y-26248497D01*
X47608186Y-26526186D01*
X47330497Y-26941777D01*
X47244000Y-27376629D01*
X47157503Y-26941777D01*
X46879814Y-26526186D01*
X46464223Y-26248497D01*
X46097743Y-26175600D01*
X45850257Y-26175600D01*
X45483777Y-26248497D01*
X45068186Y-26526186D01*
X44790497Y-26941777D01*
X44692986Y-27432000D01*
X44790497Y-27922223D01*
X45068186Y-28337814D01*
X45483777Y-28615503D01*
X45850257Y-28688400D01*
X46097743Y-28688400D01*
X46464223Y-28615503D01*
X46879814Y-28337814D01*
X47157503Y-27922223D01*
X47244000Y-27487371D01*
X47330497Y-27922223D01*
X47608186Y-28337814D01*
X47980600Y-28586653D01*
X47980600Y-28989058D01*
X46649975Y-30319685D01*
X46605442Y-30349441D01*
X46575686Y-30393974D01*
X46575685Y-30393975D01*
X46487550Y-30525878D01*
X46446152Y-30734000D01*
X46456601Y-30786530D01*
X46456600Y-32185849D01*
X46322475Y-32319974D01*
X46202600Y-32609376D01*
X46202600Y-32922624D01*
X46322475Y-33212026D01*
X46543974Y-33433525D01*
X46833376Y-33553400D01*
X47146624Y-33553400D01*
X47436026Y-33433525D01*
X47657525Y-33212026D01*
X47777400Y-32922624D01*
X47777400Y-32609376D01*
X47657525Y-32319974D01*
X47523400Y-32185849D01*
X47523400Y-30954940D01*
X48854029Y-29624313D01*
X48898559Y-29594559D01*
X48928313Y-29550029D01*
X48928315Y-29550027D01*
X49016450Y-29418123D01*
X49016451Y-29418122D01*
X49047400Y-29262531D01*
X49047400Y-29262527D01*
X49057848Y-29210001D01*
X49047400Y-29157475D01*
X49047400Y-28586653D01*
X49419814Y-28337814D01*
X49697503Y-27922223D01*
X49784000Y-27487371D01*
X49870497Y-27922223D01*
X50148186Y-28337814D01*
X50563777Y-28615503D01*
X50930257Y-28688400D01*
X51177743Y-28688400D01*
X51493293Y-28625634D01*
X52655725Y-29788066D01*
X52579569Y-29737180D01*
X52421000Y-29705639D01*
X50871000Y-29705639D01*
X50712431Y-29737180D01*
X50578003Y-29827003D01*
X50488180Y-29961431D01*
X50456639Y-30120000D01*
X50456639Y-31420000D01*
X50488180Y-31578569D01*
X50578003Y-31712997D01*
X50712431Y-31802820D01*
X50871000Y-31834361D01*
X52081021Y-31834361D01*
X52844684Y-32598025D01*
X52874441Y-32642559D01*
X53050878Y-32760451D01*
X53206469Y-32791400D01*
X53206473Y-32791400D01*
X53259000Y-32801848D01*
X53311527Y-32791400D01*
X54557474Y-32791400D01*
X54610000Y-32801848D01*
X54662526Y-32791400D01*
X54662531Y-32791400D01*
X54818122Y-32760451D01*
X54994559Y-32642559D01*
X55024317Y-32598023D01*
X56318941Y-31303400D01*
X56879473Y-31303400D01*
X56932000Y-31313848D01*
X56984527Y-31303400D01*
X58416639Y-31303400D01*
X58416639Y-31420000D01*
X58448180Y-31578569D01*
X58538003Y-31712997D01*
X58672431Y-31802820D01*
X58831000Y-31834361D01*
X60381000Y-31834361D01*
X60478600Y-31814947D01*
X60478600Y-34225053D01*
X60381000Y-34205639D01*
X58831000Y-34205639D01*
X58672431Y-34237180D01*
X58538003Y-34327003D01*
X58448180Y-34461431D01*
X58416639Y-34620000D01*
X58416639Y-34772600D01*
X53920151Y-34772600D01*
X53786026Y-34638475D01*
X53496624Y-34518600D01*
X53183376Y-34518600D01*
X52893974Y-34638475D01*
X52835361Y-34697088D01*
X52835361Y-34620000D01*
X52803820Y-34461431D01*
X52713997Y-34327003D01*
X52579569Y-34237180D01*
X52421000Y-34205639D01*
X50871000Y-34205639D01*
X50712431Y-34237180D01*
X50578003Y-34327003D01*
X50488180Y-34461431D01*
X50474663Y-34529386D01*
X50448624Y-34518600D01*
X50135376Y-34518600D01*
X49845974Y-34638475D01*
X49624475Y-34859974D01*
X49504600Y-35149376D01*
X49504600Y-35462624D01*
X49624475Y-35752026D01*
X49845974Y-35973525D01*
X50135376Y-36093400D01*
X50448624Y-36093400D01*
X50487894Y-36077134D01*
X50488180Y-36078569D01*
X50578003Y-36212997D01*
X50712431Y-36302820D01*
X50871000Y-36334361D01*
X52421000Y-36334361D01*
X52579569Y-36302820D01*
X52713997Y-36212997D01*
X52803820Y-36078569D01*
X52835361Y-35920000D01*
X52835361Y-35914912D01*
X52893974Y-35973525D01*
X53183376Y-36093400D01*
X53496624Y-36093400D01*
X53786026Y-35973525D01*
X53920151Y-35839400D01*
X58416639Y-35839400D01*
X58416639Y-35920000D01*
X58448180Y-36078569D01*
X58538003Y-36212997D01*
X58672431Y-36302820D01*
X58831000Y-36334361D01*
X60381000Y-36334361D01*
X60478601Y-36314947D01*
X60478601Y-38941884D01*
X59924730Y-38388013D01*
X58948391Y-37983600D01*
X57891609Y-37983600D01*
X56915270Y-38388013D01*
X56168013Y-39135270D01*
X55763600Y-40111609D01*
X55763600Y-41168391D01*
X56168013Y-42144730D01*
X56721883Y-42698600D01*
X51762754Y-42698600D01*
X51782820Y-42668569D01*
X51814361Y-42510000D01*
X51814361Y-41310000D01*
X51782820Y-41151431D01*
X51692997Y-41017003D01*
X51558569Y-40927180D01*
X51400000Y-40895639D01*
X50200000Y-40895639D01*
X50041431Y-40927180D01*
X49907003Y-41017003D01*
X49817180Y-41151431D01*
X49812540Y-41174757D01*
X49686624Y-41122600D01*
X49373376Y-41122600D01*
X49083974Y-41242475D01*
X48862475Y-41463974D01*
X48742600Y-41753376D01*
X48742600Y-42066624D01*
X48862475Y-42356026D01*
X49083974Y-42577525D01*
X49373376Y-42697400D01*
X49686624Y-42697400D01*
X49812540Y-42645243D01*
X49817180Y-42668569D01*
X49837246Y-42698600D01*
X36296047Y-42698600D01*
X36347400Y-42574624D01*
X36347400Y-42384940D01*
X37558941Y-41173400D01*
X39063474Y-41173400D01*
X39116000Y-41183848D01*
X39168526Y-41173400D01*
X39168531Y-41173400D01*
X39324122Y-41142451D01*
X39500559Y-41024559D01*
X39530317Y-40980023D01*
X41622942Y-38887400D01*
X41812624Y-38887400D01*
X42102026Y-38767525D01*
X42323525Y-38546026D01*
X42443400Y-38256624D01*
X42443400Y-37943376D01*
X42332862Y-37676514D01*
X49491738Y-37676514D01*
X49491738Y-37989762D01*
X49611613Y-38279164D01*
X49833112Y-38500663D01*
X50122514Y-38620538D01*
X50266601Y-38620538D01*
X50266601Y-38695639D01*
X50200000Y-38695639D01*
X50041431Y-38727180D01*
X49907003Y-38817003D01*
X49817180Y-38951431D01*
X49785639Y-39110000D01*
X49785639Y-40310000D01*
X49817180Y-40468569D01*
X49907003Y-40602997D01*
X50041431Y-40692820D01*
X50200000Y-40724361D01*
X51400000Y-40724361D01*
X51558569Y-40692820D01*
X51692997Y-40602997D01*
X51782820Y-40468569D01*
X51814361Y-40310000D01*
X51814361Y-39110000D01*
X51782820Y-38951431D01*
X51692997Y-38817003D01*
X51558569Y-38727180D01*
X51400000Y-38695639D01*
X51333400Y-38695639D01*
X51333400Y-38406525D01*
X51343848Y-38353999D01*
X51333400Y-38301473D01*
X51333400Y-38301469D01*
X51302451Y-38145878D01*
X51184559Y-37969441D01*
X51140025Y-37939684D01*
X51066538Y-37866197D01*
X51066538Y-37676514D01*
X50946663Y-37387112D01*
X50725164Y-37165613D01*
X50435762Y-37045738D01*
X50122514Y-37045738D01*
X49833112Y-37165613D01*
X49611613Y-37387112D01*
X49491738Y-37676514D01*
X42332862Y-37676514D01*
X42323525Y-37653974D01*
X42102026Y-37432475D01*
X41812624Y-37312600D01*
X41499376Y-37312600D01*
X41209974Y-37432475D01*
X40988475Y-37653974D01*
X40868600Y-37943376D01*
X40868600Y-38133058D01*
X38895060Y-40106600D01*
X37390527Y-40106600D01*
X37338000Y-40096152D01*
X37285473Y-40106600D01*
X37285469Y-40106600D01*
X37129878Y-40137549D01*
X36953441Y-40255441D01*
X36923684Y-40299975D01*
X35593060Y-41630600D01*
X35403376Y-41630600D01*
X35113974Y-41750475D01*
X34892475Y-41971974D01*
X34772600Y-42261376D01*
X34772600Y-42574624D01*
X34823953Y-42698600D01*
X25955414Y-42698600D01*
X25901430Y-42687862D01*
X25895860Y-42684140D01*
X25892138Y-42678570D01*
X25881400Y-42624587D01*
X25881400Y-38520000D01*
X26167639Y-38520000D01*
X26167639Y-40220000D01*
X26199180Y-40378569D01*
X26289003Y-40512997D01*
X26423431Y-40602820D01*
X26582000Y-40634361D01*
X28282000Y-40634361D01*
X28440569Y-40602820D01*
X28574997Y-40512997D01*
X28594789Y-40483376D01*
X29438600Y-40483376D01*
X29438600Y-40796624D01*
X29558475Y-41086026D01*
X29779974Y-41307525D01*
X30069376Y-41427400D01*
X30382624Y-41427400D01*
X30672026Y-41307525D01*
X30893525Y-41086026D01*
X31013400Y-40796624D01*
X31013400Y-40606941D01*
X31716941Y-39903400D01*
X31906624Y-39903400D01*
X32196026Y-39783525D01*
X32417525Y-39562026D01*
X32537400Y-39272624D01*
X32537400Y-38959376D01*
X32417525Y-38669974D01*
X32196026Y-38448475D01*
X31906624Y-38328600D01*
X31593376Y-38328600D01*
X31303974Y-38448475D01*
X31082475Y-38669974D01*
X30962600Y-38959376D01*
X30962600Y-39149059D01*
X30259059Y-39852600D01*
X30069376Y-39852600D01*
X29779974Y-39972475D01*
X29558475Y-40193974D01*
X29438600Y-40483376D01*
X28594789Y-40483376D01*
X28664820Y-40378569D01*
X28696361Y-40220000D01*
X28696361Y-38520000D01*
X28664820Y-38361431D01*
X28574997Y-38227003D01*
X28440569Y-38137180D01*
X28282000Y-38105639D01*
X26582000Y-38105639D01*
X26423431Y-38137180D01*
X26289003Y-38227003D01*
X26199180Y-38361431D01*
X26167639Y-38520000D01*
X25881400Y-38520000D01*
X25881400Y-36830000D01*
X26150986Y-36830000D01*
X26248497Y-37320223D01*
X26526186Y-37735814D01*
X26941777Y-38013503D01*
X27308257Y-38086400D01*
X27555743Y-38086400D01*
X27922223Y-38013503D01*
X28337814Y-37735814D01*
X28615503Y-37320223D01*
X28713014Y-36830000D01*
X28615503Y-36339777D01*
X28337814Y-35924186D01*
X27922223Y-35646497D01*
X27555743Y-35573600D01*
X27308257Y-35573600D01*
X26941777Y-35646497D01*
X26526186Y-35924186D01*
X26248497Y-36339777D01*
X26150986Y-36830000D01*
X25881400Y-36830000D01*
X25881400Y-35149376D01*
X34772600Y-35149376D01*
X34772600Y-35462624D01*
X34892475Y-35752026D01*
X35113974Y-35973525D01*
X35403376Y-36093400D01*
X35716624Y-36093400D01*
X36006026Y-35973525D01*
X36140151Y-35839400D01*
X41075849Y-35839400D01*
X41209974Y-35973525D01*
X41499376Y-36093400D01*
X41812624Y-36093400D01*
X42102026Y-35973525D01*
X42323525Y-35752026D01*
X42443400Y-35462624D01*
X42443400Y-35149376D01*
X42323525Y-34859974D01*
X42102026Y-34638475D01*
X41968418Y-34583133D01*
X42069525Y-34482026D01*
X42189400Y-34192624D01*
X42189400Y-33879376D01*
X42069525Y-33589974D01*
X41848026Y-33368475D01*
X41558624Y-33248600D01*
X41245376Y-33248600D01*
X41230827Y-33254626D01*
X41200531Y-33248600D01*
X41200526Y-33248600D01*
X41148000Y-33238152D01*
X41095474Y-33248600D01*
X37664151Y-33248600D01*
X37530026Y-33114475D01*
X37240624Y-32994600D01*
X36927376Y-32994600D01*
X36637974Y-33114475D01*
X36416475Y-33335974D01*
X36296600Y-33625376D01*
X36296600Y-33938624D01*
X36416475Y-34228026D01*
X36637974Y-34449525D01*
X36927376Y-34569400D01*
X37240624Y-34569400D01*
X37530026Y-34449525D01*
X37664151Y-34315400D01*
X40665456Y-34315400D01*
X40734475Y-34482026D01*
X40955974Y-34703525D01*
X41089582Y-34758867D01*
X41075849Y-34772600D01*
X36140151Y-34772600D01*
X36006026Y-34638475D01*
X35716624Y-34518600D01*
X35403376Y-34518600D01*
X35113974Y-34638475D01*
X34892475Y-34859974D01*
X34772600Y-35149376D01*
X25881400Y-35149376D01*
X25881400Y-33879376D01*
X29946600Y-33879376D01*
X29946600Y-34192624D01*
X30066475Y-34482026D01*
X30287974Y-34703525D01*
X30577376Y-34823400D01*
X30890624Y-34823400D01*
X31180026Y-34703525D01*
X31314151Y-34569400D01*
X32967474Y-34569400D01*
X33020000Y-34579848D01*
X33072526Y-34569400D01*
X33072531Y-34569400D01*
X33102827Y-34563374D01*
X33117376Y-34569400D01*
X33430624Y-34569400D01*
X33720026Y-34449525D01*
X33941525Y-34228026D01*
X34061400Y-33938624D01*
X34061400Y-33625376D01*
X33941525Y-33335974D01*
X33720026Y-33114475D01*
X33430624Y-32994600D01*
X33117376Y-32994600D01*
X32827974Y-33114475D01*
X32606475Y-33335974D01*
X32537456Y-33502600D01*
X31314151Y-33502600D01*
X31180026Y-33368475D01*
X30890624Y-33248600D01*
X30577376Y-33248600D01*
X30287974Y-33368475D01*
X30066475Y-33589974D01*
X29946600Y-33879376D01*
X25881400Y-33879376D01*
X25881400Y-29638117D01*
X26435270Y-30191987D01*
X27411609Y-30596400D01*
X28468391Y-30596400D01*
X29444730Y-30191987D01*
X30191987Y-29444730D01*
X30596400Y-28468391D01*
X30596400Y-27432000D01*
X31992986Y-27432000D01*
X32090497Y-27922223D01*
X32368186Y-28337814D01*
X32783777Y-28615503D01*
X33150257Y-28688400D01*
X33397743Y-28688400D01*
X33764223Y-28615503D01*
X34179814Y-28337814D01*
X34457503Y-27922223D01*
X34544000Y-27487371D01*
X34630497Y-27922223D01*
X34908186Y-28337814D01*
X35323777Y-28615503D01*
X35690257Y-28688400D01*
X35937743Y-28688400D01*
X36304223Y-28615503D01*
X36719814Y-28337814D01*
X36997503Y-27922223D01*
X37084000Y-27487371D01*
X37170497Y-27922223D01*
X37448186Y-28337814D01*
X37863777Y-28615503D01*
X38230257Y-28688400D01*
X38477743Y-28688400D01*
X38844223Y-28615503D01*
X39259814Y-28337814D01*
X39537503Y-27922223D01*
X39612278Y-27546300D01*
X39739200Y-27546300D01*
X39739200Y-28342628D01*
X39785603Y-28454655D01*
X39871344Y-28540397D01*
X39983371Y-28586800D01*
X40779700Y-28586800D01*
X40855900Y-28510600D01*
X40855900Y-27470100D01*
X40932100Y-27470100D01*
X40932100Y-28510600D01*
X41008300Y-28586800D01*
X41804629Y-28586800D01*
X41916656Y-28540397D01*
X42002397Y-28454655D01*
X42048800Y-28342628D01*
X42048800Y-27546300D01*
X41972600Y-27470100D01*
X40932100Y-27470100D01*
X40855900Y-27470100D01*
X39815400Y-27470100D01*
X39739200Y-27546300D01*
X39612278Y-27546300D01*
X39635014Y-27432000D01*
X39537503Y-26941777D01*
X39259814Y-26526186D01*
X39252610Y-26521372D01*
X39739200Y-26521372D01*
X39739200Y-27317700D01*
X39815400Y-27393900D01*
X40855900Y-27393900D01*
X40855900Y-26353400D01*
X40932100Y-26353400D01*
X40932100Y-27393900D01*
X41972600Y-27393900D01*
X42048800Y-27317700D01*
X42048800Y-26521372D01*
X42002397Y-26409345D01*
X41916656Y-26323603D01*
X41804629Y-26277200D01*
X41008300Y-26277200D01*
X40932100Y-26353400D01*
X40855900Y-26353400D01*
X40779700Y-26277200D01*
X39983371Y-26277200D01*
X39871344Y-26323603D01*
X39785603Y-26409345D01*
X39739200Y-26521372D01*
X39252610Y-26521372D01*
X38844223Y-26248497D01*
X38477743Y-26175600D01*
X38230257Y-26175600D01*
X37863777Y-26248497D01*
X37448186Y-26526186D01*
X37170497Y-26941777D01*
X37084000Y-27376629D01*
X36997503Y-26941777D01*
X36719814Y-26526186D01*
X36304223Y-26248497D01*
X35937743Y-26175600D01*
X35690257Y-26175600D01*
X35323777Y-26248497D01*
X34908186Y-26526186D01*
X34630497Y-26941777D01*
X34544000Y-27376629D01*
X34457503Y-26941777D01*
X34179814Y-26526186D01*
X33764223Y-26248497D01*
X33397743Y-26175600D01*
X33150257Y-26175600D01*
X32783777Y-26248497D01*
X32368186Y-26526186D01*
X32090497Y-26941777D01*
X31992986Y-27432000D01*
X30596400Y-27432000D01*
X30596400Y-27411609D01*
X30191987Y-26435270D01*
X29638117Y-25881400D01*
X60404587Y-25881400D01*
X60458570Y-25892138D01*
X60458570Y-25892138D01*
G37*
X60458570Y-25892138D02*
X60464140Y-25895860D01*
X60467862Y-25901430D01*
X60478600Y-25955414D01*
X60478600Y-29725053D01*
X60381000Y-29705639D01*
X58831000Y-29705639D01*
X58672431Y-29737180D01*
X58538003Y-29827003D01*
X58448180Y-29961431D01*
X58416639Y-30120000D01*
X58416639Y-30236600D01*
X57152941Y-30236600D01*
X55306447Y-28390107D01*
X55643777Y-28615503D01*
X56010257Y-28688400D01*
X56257743Y-28688400D01*
X56624223Y-28615503D01*
X57039814Y-28337814D01*
X57317503Y-27922223D01*
X57392278Y-27546300D01*
X57519200Y-27546300D01*
X57519200Y-28342628D01*
X57565603Y-28454655D01*
X57651344Y-28540397D01*
X57763371Y-28586800D01*
X58559700Y-28586800D01*
X58635900Y-28510600D01*
X58635900Y-27470100D01*
X58712100Y-27470100D01*
X58712100Y-28510600D01*
X58788300Y-28586800D01*
X59584629Y-28586800D01*
X59696656Y-28540397D01*
X59782397Y-28454655D01*
X59828800Y-28342628D01*
X59828800Y-27546300D01*
X59752600Y-27470100D01*
X58712100Y-27470100D01*
X58635900Y-27470100D01*
X57595400Y-27470100D01*
X57519200Y-27546300D01*
X57392278Y-27546300D01*
X57415014Y-27432000D01*
X57317503Y-26941777D01*
X57039814Y-26526186D01*
X57032610Y-26521372D01*
X57519200Y-26521372D01*
X57519200Y-27317700D01*
X57595400Y-27393900D01*
X58635900Y-27393900D01*
X58635900Y-26353400D01*
X58712100Y-26353400D01*
X58712100Y-27393900D01*
X59752600Y-27393900D01*
X59828800Y-27317700D01*
X59828800Y-26521372D01*
X59782397Y-26409345D01*
X59696656Y-26323603D01*
X59584629Y-26277200D01*
X58788300Y-26277200D01*
X58712100Y-26353400D01*
X58635900Y-26353400D01*
X58559700Y-26277200D01*
X57763371Y-26277200D01*
X57651344Y-26323603D01*
X57565603Y-26409345D01*
X57519200Y-26521372D01*
X57032610Y-26521372D01*
X56624223Y-26248497D01*
X56257743Y-26175600D01*
X56010257Y-26175600D01*
X55643777Y-26248497D01*
X55228186Y-26526186D01*
X54950497Y-26941777D01*
X54864000Y-27376629D01*
X54777503Y-26941777D01*
X54499814Y-26526186D01*
X54084223Y-26248497D01*
X53717743Y-26175600D01*
X53470257Y-26175600D01*
X53103777Y-26248497D01*
X52688186Y-26526186D01*
X52410497Y-26941777D01*
X52324000Y-27376629D01*
X52237503Y-26941777D01*
X51959814Y-26526186D01*
X51544223Y-26248497D01*
X51177743Y-26175600D01*
X50930257Y-26175600D01*
X50563777Y-26248497D01*
X50148186Y-26526186D01*
X49870497Y-26941777D01*
X49784000Y-27376629D01*
X49697503Y-26941777D01*
X49419814Y-26526186D01*
X49004223Y-26248497D01*
X48637743Y-26175600D01*
X48390257Y-26175600D01*
X48023777Y-26248497D01*
X47608186Y-26526186D01*
X47330497Y-26941777D01*
X47244000Y-27376629D01*
X47157503Y-26941777D01*
X46879814Y-26526186D01*
X46464223Y-26248497D01*
X46097743Y-26175600D01*
X45850257Y-26175600D01*
X45483777Y-26248497D01*
X45068186Y-26526186D01*
X44790497Y-26941777D01*
X44692986Y-27432000D01*
X44790497Y-27922223D01*
X45068186Y-28337814D01*
X45483777Y-28615503D01*
X45850257Y-28688400D01*
X46097743Y-28688400D01*
X46464223Y-28615503D01*
X46879814Y-28337814D01*
X47157503Y-27922223D01*
X47244000Y-27487371D01*
X47330497Y-27922223D01*
X47608186Y-28337814D01*
X47980600Y-28586653D01*
X47980600Y-28989058D01*
X46649975Y-30319685D01*
X46605442Y-30349441D01*
X46575686Y-30393974D01*
X46575685Y-30393975D01*
X46487550Y-30525878D01*
X46446152Y-30734000D01*
X46456601Y-30786530D01*
X46456600Y-32185849D01*
X46322475Y-32319974D01*
X46202600Y-32609376D01*
X46202600Y-32922624D01*
X46322475Y-33212026D01*
X46543974Y-33433525D01*
X46833376Y-33553400D01*
X47146624Y-33553400D01*
X47436026Y-33433525D01*
X47657525Y-33212026D01*
X47777400Y-32922624D01*
X47777400Y-32609376D01*
X47657525Y-32319974D01*
X47523400Y-32185849D01*
X47523400Y-30954940D01*
X48854029Y-29624313D01*
X48898559Y-29594559D01*
X48928313Y-29550029D01*
X48928315Y-29550027D01*
X49016450Y-29418123D01*
X49016451Y-29418122D01*
X49047400Y-29262531D01*
X49047400Y-29262527D01*
X49057848Y-29210001D01*
X49047400Y-29157475D01*
X49047400Y-28586653D01*
X49419814Y-28337814D01*
X49697503Y-27922223D01*
X49784000Y-27487371D01*
X49870497Y-27922223D01*
X50148186Y-28337814D01*
X50563777Y-28615503D01*
X50930257Y-28688400D01*
X51177743Y-28688400D01*
X51493293Y-28625634D01*
X52655725Y-29788066D01*
X52579569Y-29737180D01*
X52421000Y-29705639D01*
X50871000Y-29705639D01*
X50712431Y-29737180D01*
X50578003Y-29827003D01*
X50488180Y-29961431D01*
X50456639Y-30120000D01*
X50456639Y-31420000D01*
X50488180Y-31578569D01*
X50578003Y-31712997D01*
X50712431Y-31802820D01*
X50871000Y-31834361D01*
X52081021Y-31834361D01*
X52844684Y-32598025D01*
X52874441Y-32642559D01*
X53050878Y-32760451D01*
X53206469Y-32791400D01*
X53206473Y-32791400D01*
X53259000Y-32801848D01*
X53311527Y-32791400D01*
X54557474Y-32791400D01*
X54610000Y-32801848D01*
X54662526Y-32791400D01*
X54662531Y-32791400D01*
X54818122Y-32760451D01*
X54994559Y-32642559D01*
X55024317Y-32598023D01*
X56318941Y-31303400D01*
X56879473Y-31303400D01*
X56932000Y-31313848D01*
X56984527Y-31303400D01*
X58416639Y-31303400D01*
X58416639Y-31420000D01*
X58448180Y-31578569D01*
X58538003Y-31712997D01*
X58672431Y-31802820D01*
X58831000Y-31834361D01*
X60381000Y-31834361D01*
X60478600Y-31814947D01*
X60478600Y-34225053D01*
X60381000Y-34205639D01*
X58831000Y-34205639D01*
X58672431Y-34237180D01*
X58538003Y-34327003D01*
X58448180Y-34461431D01*
X58416639Y-34620000D01*
X58416639Y-34772600D01*
X53920151Y-34772600D01*
X53786026Y-34638475D01*
X53496624Y-34518600D01*
X53183376Y-34518600D01*
X52893974Y-34638475D01*
X52835361Y-34697088D01*
X52835361Y-34620000D01*
X52803820Y-34461431D01*
X52713997Y-34327003D01*
X52579569Y-34237180D01*
X52421000Y-34205639D01*
X50871000Y-34205639D01*
X50712431Y-34237180D01*
X50578003Y-34327003D01*
X50488180Y-34461431D01*
X50474663Y-34529386D01*
X50448624Y-34518600D01*
X50135376Y-34518600D01*
X49845974Y-34638475D01*
X49624475Y-34859974D01*
X49504600Y-35149376D01*
X49504600Y-35462624D01*
X49624475Y-35752026D01*
X49845974Y-35973525D01*
X50135376Y-36093400D01*
X50448624Y-36093400D01*
X50487894Y-36077134D01*
X50488180Y-36078569D01*
X50578003Y-36212997D01*
X50712431Y-36302820D01*
X50871000Y-36334361D01*
X52421000Y-36334361D01*
X52579569Y-36302820D01*
X52713997Y-36212997D01*
X52803820Y-36078569D01*
X52835361Y-35920000D01*
X52835361Y-35914912D01*
X52893974Y-35973525D01*
X53183376Y-36093400D01*
X53496624Y-36093400D01*
X53786026Y-35973525D01*
X53920151Y-35839400D01*
X58416639Y-35839400D01*
X58416639Y-35920000D01*
X58448180Y-36078569D01*
X58538003Y-36212997D01*
X58672431Y-36302820D01*
X58831000Y-36334361D01*
X60381000Y-36334361D01*
X60478601Y-36314947D01*
X60478601Y-38941884D01*
X59924730Y-38388013D01*
X58948391Y-37983600D01*
X57891609Y-37983600D01*
X56915270Y-38388013D01*
X56168013Y-39135270D01*
X55763600Y-40111609D01*
X55763600Y-41168391D01*
X56168013Y-42144730D01*
X56721883Y-42698600D01*
X51762754Y-42698600D01*
X51782820Y-42668569D01*
X51814361Y-42510000D01*
X51814361Y-41310000D01*
X51782820Y-41151431D01*
X51692997Y-41017003D01*
X51558569Y-40927180D01*
X51400000Y-40895639D01*
X50200000Y-40895639D01*
X50041431Y-40927180D01*
X49907003Y-41017003D01*
X49817180Y-41151431D01*
X49812540Y-41174757D01*
X49686624Y-41122600D01*
X49373376Y-41122600D01*
X49083974Y-41242475D01*
X48862475Y-41463974D01*
X48742600Y-41753376D01*
X48742600Y-42066624D01*
X48862475Y-42356026D01*
X49083974Y-42577525D01*
X49373376Y-42697400D01*
X49686624Y-42697400D01*
X49812540Y-42645243D01*
X49817180Y-42668569D01*
X49837246Y-42698600D01*
X36296047Y-42698600D01*
X36347400Y-42574624D01*
X36347400Y-42384940D01*
X37558941Y-41173400D01*
X39063474Y-41173400D01*
X39116000Y-41183848D01*
X39168526Y-41173400D01*
X39168531Y-41173400D01*
X39324122Y-41142451D01*
X39500559Y-41024559D01*
X39530317Y-40980023D01*
X41622942Y-38887400D01*
X41812624Y-38887400D01*
X42102026Y-38767525D01*
X42323525Y-38546026D01*
X42443400Y-38256624D01*
X42443400Y-37943376D01*
X42332862Y-37676514D01*
X49491738Y-37676514D01*
X49491738Y-37989762D01*
X49611613Y-38279164D01*
X49833112Y-38500663D01*
X50122514Y-38620538D01*
X50266601Y-38620538D01*
X50266601Y-38695639D01*
X50200000Y-38695639D01*
X50041431Y-38727180D01*
X49907003Y-38817003D01*
X49817180Y-38951431D01*
X49785639Y-39110000D01*
X49785639Y-40310000D01*
X49817180Y-40468569D01*
X49907003Y-40602997D01*
X50041431Y-40692820D01*
X50200000Y-40724361D01*
X51400000Y-40724361D01*
X51558569Y-40692820D01*
X51692997Y-40602997D01*
X51782820Y-40468569D01*
X51814361Y-40310000D01*
X51814361Y-39110000D01*
X51782820Y-38951431D01*
X51692997Y-38817003D01*
X51558569Y-38727180D01*
X51400000Y-38695639D01*
X51333400Y-38695639D01*
X51333400Y-38406525D01*
X51343848Y-38353999D01*
X51333400Y-38301473D01*
X51333400Y-38301469D01*
X51302451Y-38145878D01*
X51184559Y-37969441D01*
X51140025Y-37939684D01*
X51066538Y-37866197D01*
X51066538Y-37676514D01*
X50946663Y-37387112D01*
X50725164Y-37165613D01*
X50435762Y-37045738D01*
X50122514Y-37045738D01*
X49833112Y-37165613D01*
X49611613Y-37387112D01*
X49491738Y-37676514D01*
X42332862Y-37676514D01*
X42323525Y-37653974D01*
X42102026Y-37432475D01*
X41812624Y-37312600D01*
X41499376Y-37312600D01*
X41209974Y-37432475D01*
X40988475Y-37653974D01*
X40868600Y-37943376D01*
X40868600Y-38133058D01*
X38895060Y-40106600D01*
X37390527Y-40106600D01*
X37338000Y-40096152D01*
X37285473Y-40106600D01*
X37285469Y-40106600D01*
X37129878Y-40137549D01*
X36953441Y-40255441D01*
X36923684Y-40299975D01*
X35593060Y-41630600D01*
X35403376Y-41630600D01*
X35113974Y-41750475D01*
X34892475Y-41971974D01*
X34772600Y-42261376D01*
X34772600Y-42574624D01*
X34823953Y-42698600D01*
X25955414Y-42698600D01*
X25901430Y-42687862D01*
X25895860Y-42684140D01*
X25892138Y-42678570D01*
X25881400Y-42624587D01*
X25881400Y-38520000D01*
X26167639Y-38520000D01*
X26167639Y-40220000D01*
X26199180Y-40378569D01*
X26289003Y-40512997D01*
X26423431Y-40602820D01*
X26582000Y-40634361D01*
X28282000Y-40634361D01*
X28440569Y-40602820D01*
X28574997Y-40512997D01*
X28594789Y-40483376D01*
X29438600Y-40483376D01*
X29438600Y-40796624D01*
X29558475Y-41086026D01*
X29779974Y-41307525D01*
X30069376Y-41427400D01*
X30382624Y-41427400D01*
X30672026Y-41307525D01*
X30893525Y-41086026D01*
X31013400Y-40796624D01*
X31013400Y-40606941D01*
X31716941Y-39903400D01*
X31906624Y-39903400D01*
X32196026Y-39783525D01*
X32417525Y-39562026D01*
X32537400Y-39272624D01*
X32537400Y-38959376D01*
X32417525Y-38669974D01*
X32196026Y-38448475D01*
X31906624Y-38328600D01*
X31593376Y-38328600D01*
X31303974Y-38448475D01*
X31082475Y-38669974D01*
X30962600Y-38959376D01*
X30962600Y-39149059D01*
X30259059Y-39852600D01*
X30069376Y-39852600D01*
X29779974Y-39972475D01*
X29558475Y-40193974D01*
X29438600Y-40483376D01*
X28594789Y-40483376D01*
X28664820Y-40378569D01*
X28696361Y-40220000D01*
X28696361Y-38520000D01*
X28664820Y-38361431D01*
X28574997Y-38227003D01*
X28440569Y-38137180D01*
X28282000Y-38105639D01*
X26582000Y-38105639D01*
X26423431Y-38137180D01*
X26289003Y-38227003D01*
X26199180Y-38361431D01*
X26167639Y-38520000D01*
X25881400Y-38520000D01*
X25881400Y-36830000D01*
X26150986Y-36830000D01*
X26248497Y-37320223D01*
X26526186Y-37735814D01*
X26941777Y-38013503D01*
X27308257Y-38086400D01*
X27555743Y-38086400D01*
X27922223Y-38013503D01*
X28337814Y-37735814D01*
X28615503Y-37320223D01*
X28713014Y-36830000D01*
X28615503Y-36339777D01*
X28337814Y-35924186D01*
X27922223Y-35646497D01*
X27555743Y-35573600D01*
X27308257Y-35573600D01*
X26941777Y-35646497D01*
X26526186Y-35924186D01*
X26248497Y-36339777D01*
X26150986Y-36830000D01*
X25881400Y-36830000D01*
X25881400Y-35149376D01*
X34772600Y-35149376D01*
X34772600Y-35462624D01*
X34892475Y-35752026D01*
X35113974Y-35973525D01*
X35403376Y-36093400D01*
X35716624Y-36093400D01*
X36006026Y-35973525D01*
X36140151Y-35839400D01*
X41075849Y-35839400D01*
X41209974Y-35973525D01*
X41499376Y-36093400D01*
X41812624Y-36093400D01*
X42102026Y-35973525D01*
X42323525Y-35752026D01*
X42443400Y-35462624D01*
X42443400Y-35149376D01*
X42323525Y-34859974D01*
X42102026Y-34638475D01*
X41968418Y-34583133D01*
X42069525Y-34482026D01*
X42189400Y-34192624D01*
X42189400Y-33879376D01*
X42069525Y-33589974D01*
X41848026Y-33368475D01*
X41558624Y-33248600D01*
X41245376Y-33248600D01*
X41230827Y-33254626D01*
X41200531Y-33248600D01*
X41200526Y-33248600D01*
X41148000Y-33238152D01*
X41095474Y-33248600D01*
X37664151Y-33248600D01*
X37530026Y-33114475D01*
X37240624Y-32994600D01*
X36927376Y-32994600D01*
X36637974Y-33114475D01*
X36416475Y-33335974D01*
X36296600Y-33625376D01*
X36296600Y-33938624D01*
X36416475Y-34228026D01*
X36637974Y-34449525D01*
X36927376Y-34569400D01*
X37240624Y-34569400D01*
X37530026Y-34449525D01*
X37664151Y-34315400D01*
X40665456Y-34315400D01*
X40734475Y-34482026D01*
X40955974Y-34703525D01*
X41089582Y-34758867D01*
X41075849Y-34772600D01*
X36140151Y-34772600D01*
X36006026Y-34638475D01*
X35716624Y-34518600D01*
X35403376Y-34518600D01*
X35113974Y-34638475D01*
X34892475Y-34859974D01*
X34772600Y-35149376D01*
X25881400Y-35149376D01*
X25881400Y-33879376D01*
X29946600Y-33879376D01*
X29946600Y-34192624D01*
X30066475Y-34482026D01*
X30287974Y-34703525D01*
X30577376Y-34823400D01*
X30890624Y-34823400D01*
X31180026Y-34703525D01*
X31314151Y-34569400D01*
X32967474Y-34569400D01*
X33020000Y-34579848D01*
X33072526Y-34569400D01*
X33072531Y-34569400D01*
X33102827Y-34563374D01*
X33117376Y-34569400D01*
X33430624Y-34569400D01*
X33720026Y-34449525D01*
X33941525Y-34228026D01*
X34061400Y-33938624D01*
X34061400Y-33625376D01*
X33941525Y-33335974D01*
X33720026Y-33114475D01*
X33430624Y-32994600D01*
X33117376Y-32994600D01*
X32827974Y-33114475D01*
X32606475Y-33335974D01*
X32537456Y-33502600D01*
X31314151Y-33502600D01*
X31180026Y-33368475D01*
X30890624Y-33248600D01*
X30577376Y-33248600D01*
X30287974Y-33368475D01*
X30066475Y-33589974D01*
X29946600Y-33879376D01*
X25881400Y-33879376D01*
X25881400Y-29638117D01*
X26435270Y-30191987D01*
X27411609Y-30596400D01*
X28468391Y-30596400D01*
X29444730Y-30191987D01*
X30191987Y-29444730D01*
X30596400Y-28468391D01*
X30596400Y-27432000D01*
X31992986Y-27432000D01*
X32090497Y-27922223D01*
X32368186Y-28337814D01*
X32783777Y-28615503D01*
X33150257Y-28688400D01*
X33397743Y-28688400D01*
X33764223Y-28615503D01*
X34179814Y-28337814D01*
X34457503Y-27922223D01*
X34544000Y-27487371D01*
X34630497Y-27922223D01*
X34908186Y-28337814D01*
X35323777Y-28615503D01*
X35690257Y-28688400D01*
X35937743Y-28688400D01*
X36304223Y-28615503D01*
X36719814Y-28337814D01*
X36997503Y-27922223D01*
X37084000Y-27487371D01*
X37170497Y-27922223D01*
X37448186Y-28337814D01*
X37863777Y-28615503D01*
X38230257Y-28688400D01*
X38477743Y-28688400D01*
X38844223Y-28615503D01*
X39259814Y-28337814D01*
X39537503Y-27922223D01*
X39612278Y-27546300D01*
X39739200Y-27546300D01*
X39739200Y-28342628D01*
X39785603Y-28454655D01*
X39871344Y-28540397D01*
X39983371Y-28586800D01*
X40779700Y-28586800D01*
X40855900Y-28510600D01*
X40855900Y-27470100D01*
X40932100Y-27470100D01*
X40932100Y-28510600D01*
X41008300Y-28586800D01*
X41804629Y-28586800D01*
X41916656Y-28540397D01*
X42002397Y-28454655D01*
X42048800Y-28342628D01*
X42048800Y-27546300D01*
X41972600Y-27470100D01*
X40932100Y-27470100D01*
X40855900Y-27470100D01*
X39815400Y-27470100D01*
X39739200Y-27546300D01*
X39612278Y-27546300D01*
X39635014Y-27432000D01*
X39537503Y-26941777D01*
X39259814Y-26526186D01*
X39252610Y-26521372D01*
X39739200Y-26521372D01*
X39739200Y-27317700D01*
X39815400Y-27393900D01*
X40855900Y-27393900D01*
X40855900Y-26353400D01*
X40932100Y-26353400D01*
X40932100Y-27393900D01*
X41972600Y-27393900D01*
X42048800Y-27317700D01*
X42048800Y-26521372D01*
X42002397Y-26409345D01*
X41916656Y-26323603D01*
X41804629Y-26277200D01*
X41008300Y-26277200D01*
X40932100Y-26353400D01*
X40855900Y-26353400D01*
X40779700Y-26277200D01*
X39983371Y-26277200D01*
X39871344Y-26323603D01*
X39785603Y-26409345D01*
X39739200Y-26521372D01*
X39252610Y-26521372D01*
X38844223Y-26248497D01*
X38477743Y-26175600D01*
X38230257Y-26175600D01*
X37863777Y-26248497D01*
X37448186Y-26526186D01*
X37170497Y-26941777D01*
X37084000Y-27376629D01*
X36997503Y-26941777D01*
X36719814Y-26526186D01*
X36304223Y-26248497D01*
X35937743Y-26175600D01*
X35690257Y-26175600D01*
X35323777Y-26248497D01*
X34908186Y-26526186D01*
X34630497Y-26941777D01*
X34544000Y-27376629D01*
X34457503Y-26941777D01*
X34179814Y-26526186D01*
X33764223Y-26248497D01*
X33397743Y-26175600D01*
X33150257Y-26175600D01*
X32783777Y-26248497D01*
X32368186Y-26526186D01*
X32090497Y-26941777D01*
X31992986Y-27432000D01*
X30596400Y-27432000D01*
X30596400Y-27411609D01*
X30191987Y-26435270D01*
X29638117Y-25881400D01*
X60404587Y-25881400D01*
X60458570Y-25892138D01*
G04 #@! TD*
M02*
