G04 #@! TF.FileFunction,Legend,Top*
%FSLAX46Y46*%
G04 Gerber Fmt 4.6, Leading zero omitted, Abs format (unit mm)*
G04 Created by KiCad (PCBNEW 4.0.7) date 07/25/18 13:49:51*
%MOMM*%
%LPD*%
G01*
G04 APERTURE LIST*
%ADD10C,0.100000*%
%ADD11C,0.300000*%
%ADD12C,0.152400*%
%ADD13C,0.120000*%
%ADD14C,0.150000*%
G04 APERTURE END LIST*
D10*
D11*
X52121999Y-36770571D02*
X52407713Y-36770571D01*
X52550571Y-36842000D01*
X52693428Y-36984857D01*
X52764856Y-37270571D01*
X52764856Y-37770571D01*
X52693428Y-38056286D01*
X52550571Y-38199143D01*
X52407713Y-38270571D01*
X52121999Y-38270571D01*
X51979142Y-38199143D01*
X51836285Y-38056286D01*
X51764856Y-37770571D01*
X51764856Y-37270571D01*
X51836285Y-36984857D01*
X51979142Y-36842000D01*
X52121999Y-36770571D01*
X53407714Y-37270571D02*
X53407714Y-38270571D01*
X53407714Y-37413429D02*
X53479142Y-37342000D01*
X53622000Y-37270571D01*
X53836285Y-37270571D01*
X53979142Y-37342000D01*
X54050571Y-37484857D01*
X54050571Y-38270571D01*
X55836285Y-36699143D02*
X54550571Y-38627714D01*
X56622000Y-36770571D02*
X56907714Y-36770571D01*
X57050572Y-36842000D01*
X57193429Y-36984857D01*
X57264857Y-37270571D01*
X57264857Y-37770571D01*
X57193429Y-38056286D01*
X57050572Y-38199143D01*
X56907714Y-38270571D01*
X56622000Y-38270571D01*
X56479143Y-38199143D01*
X56336286Y-38056286D01*
X56264857Y-37770571D01*
X56264857Y-37270571D01*
X56336286Y-36984857D01*
X56479143Y-36842000D01*
X56622000Y-36770571D01*
X57693429Y-37270571D02*
X58264858Y-37270571D01*
X57907715Y-38270571D02*
X57907715Y-36984857D01*
X57979143Y-36842000D01*
X58122001Y-36770571D01*
X58264858Y-36770571D01*
X58550572Y-37270571D02*
X59122001Y-37270571D01*
X58764858Y-38270571D02*
X58764858Y-36984857D01*
X58836286Y-36842000D01*
X58979144Y-36770571D01*
X59122001Y-36770571D01*
X26217715Y-42842571D02*
X26217715Y-41342571D01*
X26717715Y-42414000D01*
X27217715Y-41342571D01*
X27217715Y-42842571D01*
X28217715Y-41342571D02*
X28360572Y-41342571D01*
X28503429Y-41414000D01*
X28574858Y-41485429D01*
X28646287Y-41628286D01*
X28717715Y-41914000D01*
X28717715Y-42271143D01*
X28646287Y-42556857D01*
X28574858Y-42699714D01*
X28503429Y-42771143D01*
X28360572Y-42842571D01*
X28217715Y-42842571D01*
X28074858Y-42771143D01*
X28003429Y-42699714D01*
X27932001Y-42556857D01*
X27860572Y-42271143D01*
X27860572Y-41914000D01*
X27932001Y-41628286D01*
X28003429Y-41485429D01*
X28074858Y-41414000D01*
X28217715Y-41342571D01*
X26217715Y-34714571D02*
X26217715Y-33214571D01*
X26717715Y-34286000D01*
X27217715Y-33214571D01*
X27217715Y-34714571D01*
X28717715Y-34714571D02*
X27860572Y-34714571D01*
X28289144Y-34714571D02*
X28289144Y-33214571D01*
X28146287Y-33428857D01*
X28003429Y-33571714D01*
X27860572Y-33643143D01*
D12*
X35668858Y-41389300D02*
X36031715Y-41389300D01*
X35596286Y-41607014D02*
X35850286Y-40845014D01*
X36104286Y-41607014D01*
X36684858Y-41099014D02*
X36684858Y-41607014D01*
X36358287Y-41099014D02*
X36358287Y-41498157D01*
X36394572Y-41570729D01*
X36467144Y-41607014D01*
X36576001Y-41607014D01*
X36648572Y-41570729D01*
X36684858Y-41534443D01*
X36938858Y-41099014D02*
X37229144Y-41099014D01*
X37047716Y-40845014D02*
X37047716Y-41498157D01*
X37084001Y-41570729D01*
X37156573Y-41607014D01*
X37229144Y-41607014D01*
X37592002Y-41607014D02*
X37519430Y-41570729D01*
X37483145Y-41534443D01*
X37446859Y-41461871D01*
X37446859Y-41244157D01*
X37483145Y-41171586D01*
X37519430Y-41135300D01*
X37592002Y-41099014D01*
X37700859Y-41099014D01*
X37773430Y-41135300D01*
X37809716Y-41171586D01*
X37846002Y-41244157D01*
X37846002Y-41461871D01*
X37809716Y-41534443D01*
X37773430Y-41570729D01*
X37700859Y-41607014D01*
X37592002Y-41607014D01*
X38426574Y-41207871D02*
X38172574Y-41207871D01*
X38172574Y-41607014D02*
X38172574Y-40845014D01*
X38535431Y-40845014D01*
X38934574Y-41607014D02*
X38862002Y-41570729D01*
X38825717Y-41498157D01*
X38825717Y-40845014D01*
X39152288Y-41099014D02*
X39333717Y-41607014D01*
X39515145Y-41099014D02*
X39333717Y-41607014D01*
X39261145Y-41788443D01*
X39224860Y-41824729D01*
X39152288Y-41861014D01*
X40095716Y-41570729D02*
X40023145Y-41607014D01*
X39878002Y-41607014D01*
X39805431Y-41570729D01*
X39769145Y-41498157D01*
X39769145Y-41207871D01*
X39805431Y-41135300D01*
X39878002Y-41099014D01*
X40023145Y-41099014D01*
X40095716Y-41135300D01*
X40132002Y-41207871D01*
X40132002Y-41280443D01*
X39769145Y-41353014D01*
X40458574Y-41607014D02*
X40458574Y-41099014D01*
X40458574Y-41244157D02*
X40494859Y-41171586D01*
X40531145Y-41135300D01*
X40603716Y-41099014D01*
X40676288Y-41099014D01*
X41474573Y-40917586D02*
X41510859Y-40881300D01*
X41583430Y-40845014D01*
X41764859Y-40845014D01*
X41837430Y-40881300D01*
X41873716Y-40917586D01*
X41910001Y-40990157D01*
X41910001Y-41062729D01*
X41873716Y-41171586D01*
X41438287Y-41607014D01*
X41910001Y-41607014D01*
X42381715Y-40845014D02*
X42454287Y-40845014D01*
X42526858Y-40881300D01*
X42563144Y-40917586D01*
X42599430Y-40990157D01*
X42635715Y-41135300D01*
X42635715Y-41316729D01*
X42599430Y-41461871D01*
X42563144Y-41534443D01*
X42526858Y-41570729D01*
X42454287Y-41607014D01*
X42381715Y-41607014D01*
X42309144Y-41570729D01*
X42272858Y-41534443D01*
X42236573Y-41461871D01*
X42200287Y-41316729D01*
X42200287Y-41135300D01*
X42236573Y-40990157D01*
X42272858Y-40917586D01*
X42309144Y-40881300D01*
X42381715Y-40845014D01*
X43361429Y-41607014D02*
X42926001Y-41607014D01*
X43143715Y-41607014D02*
X43143715Y-40845014D01*
X43071144Y-40953871D01*
X42998572Y-41026443D01*
X42926001Y-41062729D01*
X43796858Y-41171586D02*
X43724286Y-41135300D01*
X43688001Y-41099014D01*
X43651715Y-41026443D01*
X43651715Y-40990157D01*
X43688001Y-40917586D01*
X43724286Y-40881300D01*
X43796858Y-40845014D01*
X43942001Y-40845014D01*
X44014572Y-40881300D01*
X44050858Y-40917586D01*
X44087143Y-40990157D01*
X44087143Y-41026443D01*
X44050858Y-41099014D01*
X44014572Y-41135300D01*
X43942001Y-41171586D01*
X43796858Y-41171586D01*
X43724286Y-41207871D01*
X43688001Y-41244157D01*
X43651715Y-41316729D01*
X43651715Y-41461871D01*
X43688001Y-41534443D01*
X43724286Y-41570729D01*
X43796858Y-41607014D01*
X43942001Y-41607014D01*
X44014572Y-41570729D01*
X44050858Y-41534443D01*
X44087143Y-41461871D01*
X44087143Y-41316729D01*
X44050858Y-41244157D01*
X44014572Y-41207871D01*
X43942001Y-41171586D01*
X44413715Y-41316729D02*
X44994286Y-41316729D01*
X45284572Y-40845014D02*
X45792572Y-40845014D01*
X45466001Y-41607014D01*
X46082858Y-41316729D02*
X46663429Y-41316729D01*
X46990001Y-40917586D02*
X47026287Y-40881300D01*
X47098858Y-40845014D01*
X47280287Y-40845014D01*
X47352858Y-40881300D01*
X47389144Y-40917586D01*
X47425429Y-40990157D01*
X47425429Y-41062729D01*
X47389144Y-41171586D01*
X46953715Y-41607014D01*
X47425429Y-41607014D01*
X48114858Y-40845014D02*
X47752001Y-40845014D01*
X47715715Y-41207871D01*
X47752001Y-41171586D01*
X47824572Y-41135300D01*
X48006001Y-41135300D01*
X48078572Y-41171586D01*
X48114858Y-41207871D01*
X48151143Y-41280443D01*
X48151143Y-41461871D01*
X48114858Y-41534443D01*
X48078572Y-41570729D01*
X48006001Y-41607014D01*
X47824572Y-41607014D01*
X47752001Y-41570729D01*
X47715715Y-41534443D01*
X41801143Y-42829843D02*
X41764857Y-42866129D01*
X41656000Y-42902414D01*
X41583429Y-42902414D01*
X41474572Y-42866129D01*
X41402000Y-42793557D01*
X41365715Y-42720986D01*
X41329429Y-42575843D01*
X41329429Y-42466986D01*
X41365715Y-42321843D01*
X41402000Y-42249271D01*
X41474572Y-42176700D01*
X41583429Y-42140414D01*
X41656000Y-42140414D01*
X41764857Y-42176700D01*
X41801143Y-42212986D01*
X42127715Y-42503271D02*
X42381715Y-42503271D01*
X42490572Y-42902414D02*
X42127715Y-42902414D01*
X42127715Y-42140414D01*
X42490572Y-42140414D01*
D11*
X44005428Y-27285143D02*
X42862571Y-27285143D01*
X31305428Y-27285143D02*
X30162571Y-27285143D01*
X30734000Y-27856571D02*
X30734000Y-26713714D01*
D13*
X41132000Y-29460000D02*
X39132000Y-29460000D01*
X39132000Y-31500000D02*
X41132000Y-31500000D01*
X38116000Y-37596000D02*
X40116000Y-37596000D01*
X40116000Y-35556000D02*
X38116000Y-35556000D01*
X31258000Y-31500000D02*
X33258000Y-31500000D01*
X33258000Y-29460000D02*
X31258000Y-29460000D01*
X30242000Y-33786000D02*
X32242000Y-33786000D01*
X32242000Y-31746000D02*
X30242000Y-31746000D01*
X49368000Y-35718000D02*
X49368000Y-36418000D01*
X48168000Y-36418000D02*
X48168000Y-35718000D01*
X37472000Y-31080000D02*
X37472000Y-29880000D01*
X35622000Y-31080000D02*
X37472000Y-31080000D01*
X35622000Y-29880000D02*
X37472000Y-29880000D01*
X28762000Y-38100000D02*
X28762000Y-35500000D01*
X28762000Y-35500000D02*
X26102000Y-35500000D01*
X26102000Y-35500000D02*
X26102000Y-38100000D01*
X26102000Y-38100000D02*
X28762000Y-38100000D01*
X28762000Y-39370000D02*
X28762000Y-40700000D01*
X28762000Y-40700000D02*
X27432000Y-40700000D01*
X47244000Y-28762000D02*
X60004000Y-28762000D01*
X60004000Y-28762000D02*
X60004000Y-26102000D01*
X60004000Y-26102000D02*
X47244000Y-26102000D01*
X47244000Y-26102000D02*
X47244000Y-28762000D01*
X45974000Y-28762000D02*
X44644000Y-28762000D01*
X44644000Y-28762000D02*
X44644000Y-27432000D01*
X39624000Y-26102000D02*
X31944000Y-26102000D01*
X31944000Y-26102000D02*
X31944000Y-28762000D01*
X31944000Y-28762000D02*
X39624000Y-28762000D01*
X39624000Y-28762000D02*
X39624000Y-26102000D01*
X40894000Y-26102000D02*
X42224000Y-26102000D01*
X42224000Y-26102000D02*
X42224000Y-27432000D01*
X53602000Y-41230000D02*
X54602000Y-41230000D01*
X54602000Y-42590000D02*
X53602000Y-42590000D01*
X53602000Y-39198000D02*
X54602000Y-39198000D01*
X54602000Y-40558000D02*
X53602000Y-40558000D01*
X37684000Y-40250000D02*
X36484000Y-40250000D01*
X36484000Y-38490000D02*
X37684000Y-38490000D01*
D14*
X29972000Y-36576000D02*
X35052000Y-36576000D01*
X35052000Y-36576000D02*
X35052000Y-41148000D01*
X35052000Y-41148000D02*
X29972000Y-41148000D01*
X29972000Y-41148000D02*
X29972000Y-36576000D01*
X29972000Y-38100000D02*
X30480000Y-38100000D01*
X30480000Y-38100000D02*
X30480000Y-39370000D01*
X30480000Y-39370000D02*
X29972000Y-39370000D01*
D13*
X49030000Y-41940000D02*
X50030000Y-41940000D01*
X50030000Y-41940000D02*
X50030000Y-39840000D01*
X49030000Y-41940000D02*
X49030000Y-39840000D01*
X40442000Y-32768000D02*
X39512000Y-32768000D01*
X37282000Y-32768000D02*
X38212000Y-32768000D01*
X37282000Y-32768000D02*
X37282000Y-34928000D01*
X40442000Y-32768000D02*
X40442000Y-34228000D01*
D14*
X47752000Y-35814000D02*
X42672000Y-35814000D01*
X42672000Y-35814000D02*
X42672000Y-31242000D01*
X42672000Y-31242000D02*
X47752000Y-31242000D01*
X47752000Y-31242000D02*
X47752000Y-35814000D01*
X47752000Y-34290000D02*
X47244000Y-34290000D01*
X47244000Y-34290000D02*
X47244000Y-33020000D01*
X47244000Y-33020000D02*
X47752000Y-33020000D01*
D13*
X52396000Y-36250000D02*
X52396000Y-36220000D01*
X52396000Y-29790000D02*
X52396000Y-29820000D01*
X58856000Y-29790000D02*
X58856000Y-29820000D01*
X58856000Y-36220000D02*
X58856000Y-36250000D01*
X52396000Y-34320000D02*
X52396000Y-31720000D01*
X58856000Y-36250000D02*
X52396000Y-36250000D01*
X58856000Y-34320000D02*
X58856000Y-31720000D01*
X58856000Y-29790000D02*
X52396000Y-29790000D01*
D14*
X39965334Y-30837143D02*
X39917715Y-30884762D01*
X39774858Y-30932381D01*
X39679620Y-30932381D01*
X39536762Y-30884762D01*
X39441524Y-30789524D01*
X39393905Y-30694286D01*
X39346286Y-30503810D01*
X39346286Y-30360952D01*
X39393905Y-30170476D01*
X39441524Y-30075238D01*
X39536762Y-29980000D01*
X39679620Y-29932381D01*
X39774858Y-29932381D01*
X39917715Y-29980000D01*
X39965334Y-30027619D01*
X40917715Y-30932381D02*
X40346286Y-30932381D01*
X40632000Y-30932381D02*
X40632000Y-29932381D01*
X40536762Y-30075238D01*
X40441524Y-30170476D01*
X40346286Y-30218095D01*
X39473143Y-36742666D02*
X39520762Y-36790285D01*
X39568381Y-36933142D01*
X39568381Y-37028380D01*
X39520762Y-37171238D01*
X39425524Y-37266476D01*
X39330286Y-37314095D01*
X39139810Y-37361714D01*
X38996952Y-37361714D01*
X38806476Y-37314095D01*
X38711238Y-37266476D01*
X38616000Y-37171238D01*
X38568381Y-37028380D01*
X38568381Y-36933142D01*
X38616000Y-36790285D01*
X38663619Y-36742666D01*
X38663619Y-36361714D02*
X38616000Y-36314095D01*
X38568381Y-36218857D01*
X38568381Y-35980761D01*
X38616000Y-35885523D01*
X38663619Y-35837904D01*
X38758857Y-35790285D01*
X38854095Y-35790285D01*
X38996952Y-35837904D01*
X39568381Y-36409333D01*
X39568381Y-35790285D01*
X32091334Y-30837143D02*
X32043715Y-30884762D01*
X31900858Y-30932381D01*
X31805620Y-30932381D01*
X31662762Y-30884762D01*
X31567524Y-30789524D01*
X31519905Y-30694286D01*
X31472286Y-30503810D01*
X31472286Y-30360952D01*
X31519905Y-30170476D01*
X31567524Y-30075238D01*
X31662762Y-29980000D01*
X31805620Y-29932381D01*
X31900858Y-29932381D01*
X32043715Y-29980000D01*
X32091334Y-30027619D01*
X32424667Y-29932381D02*
X33043715Y-29932381D01*
X32710381Y-30313333D01*
X32853239Y-30313333D01*
X32948477Y-30360952D01*
X32996096Y-30408571D01*
X33043715Y-30503810D01*
X33043715Y-30741905D01*
X32996096Y-30837143D01*
X32948477Y-30884762D01*
X32853239Y-30932381D01*
X32567524Y-30932381D01*
X32472286Y-30884762D01*
X32424667Y-30837143D01*
X31075334Y-33123143D02*
X31027715Y-33170762D01*
X30884858Y-33218381D01*
X30789620Y-33218381D01*
X30646762Y-33170762D01*
X30551524Y-33075524D01*
X30503905Y-32980286D01*
X30456286Y-32789810D01*
X30456286Y-32646952D01*
X30503905Y-32456476D01*
X30551524Y-32361238D01*
X30646762Y-32266000D01*
X30789620Y-32218381D01*
X30884858Y-32218381D01*
X31027715Y-32266000D01*
X31075334Y-32313619D01*
X31932477Y-32551714D02*
X31932477Y-33218381D01*
X31694381Y-32170762D02*
X31456286Y-32885048D01*
X32075334Y-32885048D01*
X48601334Y-34139143D02*
X48553715Y-34186762D01*
X48410858Y-34234381D01*
X48315620Y-34234381D01*
X48172762Y-34186762D01*
X48077524Y-34091524D01*
X48029905Y-33996286D01*
X47982286Y-33805810D01*
X47982286Y-33662952D01*
X48029905Y-33472476D01*
X48077524Y-33377238D01*
X48172762Y-33282000D01*
X48315620Y-33234381D01*
X48410858Y-33234381D01*
X48553715Y-33282000D01*
X48601334Y-33329619D01*
X49506096Y-33234381D02*
X49029905Y-33234381D01*
X48982286Y-33710571D01*
X49029905Y-33662952D01*
X49125143Y-33615333D01*
X49363239Y-33615333D01*
X49458477Y-33662952D01*
X49506096Y-33710571D01*
X49553715Y-33805810D01*
X49553715Y-34043905D01*
X49506096Y-34139143D01*
X49458477Y-34186762D01*
X49363239Y-34234381D01*
X49125143Y-34234381D01*
X49029905Y-34186762D01*
X48982286Y-34139143D01*
X35583905Y-32232381D02*
X35583905Y-31232381D01*
X35822000Y-31232381D01*
X35964858Y-31280000D01*
X36060096Y-31375238D01*
X36107715Y-31470476D01*
X36155334Y-31660952D01*
X36155334Y-31803810D01*
X36107715Y-31994286D01*
X36060096Y-32089524D01*
X35964858Y-32184762D01*
X35822000Y-32232381D01*
X35583905Y-32232381D01*
X36488667Y-31232381D02*
X37107715Y-31232381D01*
X36774381Y-31613333D01*
X36917239Y-31613333D01*
X37012477Y-31660952D01*
X37060096Y-31708571D01*
X37107715Y-31803810D01*
X37107715Y-32041905D01*
X37060096Y-32137143D01*
X37012477Y-32184762D01*
X36917239Y-32232381D01*
X36631524Y-32232381D01*
X36536286Y-32184762D01*
X36488667Y-32137143D01*
X51649334Y-42362381D02*
X51316000Y-41886190D01*
X51077905Y-42362381D02*
X51077905Y-41362381D01*
X51458858Y-41362381D01*
X51554096Y-41410000D01*
X51601715Y-41457619D01*
X51649334Y-41552857D01*
X51649334Y-41695714D01*
X51601715Y-41790952D01*
X51554096Y-41838571D01*
X51458858Y-41886190D01*
X51077905Y-41886190D01*
X52601715Y-42362381D02*
X52030286Y-42362381D01*
X52316000Y-42362381D02*
X52316000Y-41362381D01*
X52220762Y-41505238D01*
X52125524Y-41600476D01*
X52030286Y-41648095D01*
X51649334Y-40330381D02*
X51316000Y-39854190D01*
X51077905Y-40330381D02*
X51077905Y-39330381D01*
X51458858Y-39330381D01*
X51554096Y-39378000D01*
X51601715Y-39425619D01*
X51649334Y-39520857D01*
X51649334Y-39663714D01*
X51601715Y-39758952D01*
X51554096Y-39806571D01*
X51458858Y-39854190D01*
X51077905Y-39854190D01*
X52030286Y-39425619D02*
X52077905Y-39378000D01*
X52173143Y-39330381D01*
X52411239Y-39330381D01*
X52506477Y-39378000D01*
X52554096Y-39425619D01*
X52601715Y-39520857D01*
X52601715Y-39616095D01*
X52554096Y-39758952D01*
X51982667Y-40330381D01*
X52601715Y-40330381D01*
X39822381Y-39536666D02*
X39346190Y-39870000D01*
X39822381Y-40108095D02*
X38822381Y-40108095D01*
X38822381Y-39727142D01*
X38870000Y-39631904D01*
X38917619Y-39584285D01*
X39012857Y-39536666D01*
X39155714Y-39536666D01*
X39250952Y-39584285D01*
X39298571Y-39631904D01*
X39346190Y-39727142D01*
X39346190Y-40108095D01*
X38822381Y-39203333D02*
X38822381Y-38584285D01*
X39203333Y-38917619D01*
X39203333Y-38774761D01*
X39250952Y-38679523D01*
X39298571Y-38631904D01*
X39393810Y-38584285D01*
X39631905Y-38584285D01*
X39727143Y-38631904D01*
X39774762Y-38679523D01*
X39822381Y-38774761D01*
X39822381Y-39060476D01*
X39774762Y-39155714D01*
X39727143Y-39203333D01*
X31750095Y-37044381D02*
X31750095Y-37853905D01*
X31797714Y-37949143D01*
X31845333Y-37996762D01*
X31940571Y-38044381D01*
X32131048Y-38044381D01*
X32226286Y-37996762D01*
X32273905Y-37949143D01*
X32321524Y-37853905D01*
X32321524Y-37044381D01*
X32702476Y-37044381D02*
X33321524Y-37044381D01*
X32988190Y-37425333D01*
X33131048Y-37425333D01*
X33226286Y-37472952D01*
X33273905Y-37520571D01*
X33321524Y-37615810D01*
X33321524Y-37853905D01*
X33273905Y-37949143D01*
X33226286Y-37996762D01*
X33131048Y-38044381D01*
X32845333Y-38044381D01*
X32750095Y-37996762D01*
X32702476Y-37949143D01*
X49045905Y-39060381D02*
X49045905Y-38060381D01*
X49284000Y-38060381D01*
X49426858Y-38108000D01*
X49522096Y-38203238D01*
X49569715Y-38298476D01*
X49617334Y-38488952D01*
X49617334Y-38631810D01*
X49569715Y-38822286D01*
X49522096Y-38917524D01*
X49426858Y-39012762D01*
X49284000Y-39060381D01*
X49045905Y-39060381D01*
X50569715Y-39060381D02*
X49998286Y-39060381D01*
X50284000Y-39060381D02*
X50284000Y-38060381D01*
X50188762Y-38203238D01*
X50093524Y-38298476D01*
X49998286Y-38346095D01*
X35306095Y-32980381D02*
X35306095Y-33789905D01*
X35353714Y-33885143D01*
X35401333Y-33932762D01*
X35496571Y-33980381D01*
X35687048Y-33980381D01*
X35782286Y-33932762D01*
X35829905Y-33885143D01*
X35877524Y-33789905D01*
X35877524Y-32980381D01*
X36306095Y-33075619D02*
X36353714Y-33028000D01*
X36448952Y-32980381D01*
X36687048Y-32980381D01*
X36782286Y-33028000D01*
X36829905Y-33075619D01*
X36877524Y-33170857D01*
X36877524Y-33266095D01*
X36829905Y-33408952D01*
X36258476Y-33980381D01*
X36877524Y-33980381D01*
X44450095Y-34250381D02*
X44450095Y-35059905D01*
X44497714Y-35155143D01*
X44545333Y-35202762D01*
X44640571Y-35250381D01*
X44831048Y-35250381D01*
X44926286Y-35202762D01*
X44973905Y-35155143D01*
X45021524Y-35059905D01*
X45021524Y-34250381D01*
X46021524Y-35250381D02*
X45450095Y-35250381D01*
X45735809Y-35250381D02*
X45735809Y-34250381D01*
X45640571Y-34393238D01*
X45545333Y-34488476D01*
X45450095Y-34536095D01*
X54292667Y-33424762D02*
X54435524Y-33472381D01*
X54673620Y-33472381D01*
X54768858Y-33424762D01*
X54816477Y-33377143D01*
X54864096Y-33281905D01*
X54864096Y-33186667D01*
X54816477Y-33091429D01*
X54768858Y-33043810D01*
X54673620Y-32996190D01*
X54483143Y-32948571D01*
X54387905Y-32900952D01*
X54340286Y-32853333D01*
X54292667Y-32758095D01*
X54292667Y-32662857D01*
X54340286Y-32567619D01*
X54387905Y-32520000D01*
X54483143Y-32472381D01*
X54721239Y-32472381D01*
X54864096Y-32520000D01*
X55197429Y-32472381D02*
X55435524Y-33472381D01*
X55626001Y-32758095D01*
X55816477Y-33472381D01*
X56054572Y-32472381D01*
X56959334Y-33472381D02*
X56387905Y-33472381D01*
X56673619Y-33472381D02*
X56673619Y-32472381D01*
X56578381Y-32615238D01*
X56483143Y-32710476D01*
X56387905Y-32758095D01*
M02*
