M48
;DRILL file {KiCad 4.0.7} date 08/02/18 07:41:22
;FORMAT={-:-/ absolute / inch / decimal}
FMAT,2
INCH,TZ
T1C0.015
T2C0.039
%
G90
G05
M72
T1
X1.13Y-1.29
X1.17Y-1.2
X1.21Y-1.47
X1.21Y-1.61
X1.32Y-1.52
X1.39Y-1.24
X1.4Y-1.55
X1.45Y-1.36
X1.45Y-1.44
X1.64Y-1.25
X1.64Y-1.52
X1.64Y-1.63
X1.66Y-1.44
X1.7Y-1.15
X1.73Y-1.49
X1.76Y-1.31
X1.76Y-1.39
X1.79Y-1.66
X1.81Y-1.25
X1.81Y-1.39
X1.81Y-1.58
X1.85Y-1.28
X1.88Y-1.5
X1.92Y-1.36
X1.96Y-1.2
X2.02Y-1.46
X2.02Y-1.65
X2.03Y-1.33
X2.12Y-1.61
X2.28Y-1.39
T2
X1.08Y-1.45
X1.08Y-1.55
X1.31Y-1.08
X1.41Y-1.08
X1.51Y-1.08
X1.61Y-1.08
X1.81Y-1.08
X1.91Y-1.08
X2.01Y-1.08
X2.11Y-1.08
X2.21Y-1.08
X2.31Y-1.08
T0
M30
