G04 #@! TF.FileFunction,Legend,Bot*
%FSLAX46Y46*%
G04 Gerber Fmt 4.6, Leading zero omitted, Abs format (unit mm)*
G04 Created by KiCad (PCBNEW 4.0.7) date 08/02/18 07:41:19*
%MOMM*%
%LPD*%
G01*
G04 APERTURE LIST*
%ADD10C,0.100000*%
%ADD11C,0.304800*%
%ADD12C,0.300000*%
%ADD13C,0.120000*%
%ADD14C,0.150000*%
G04 APERTURE END LIST*
D10*
D11*
X49046191Y-30528683D02*
X48380953Y-30528683D01*
X49179238Y-30927826D02*
X48713572Y-29530826D01*
X48247905Y-30927826D01*
X47183524Y-29996493D02*
X47183524Y-30927826D01*
X47782238Y-29996493D02*
X47782238Y-30728255D01*
X47715714Y-30861302D01*
X47582667Y-30927826D01*
X47383095Y-30927826D01*
X47250047Y-30861302D01*
X47183524Y-30794779D01*
X46717857Y-29996493D02*
X46185667Y-29996493D01*
X46518286Y-29530826D02*
X46518286Y-30728255D01*
X46451762Y-30861302D01*
X46318715Y-30927826D01*
X46185667Y-30927826D01*
X45520429Y-30927826D02*
X45653476Y-30861302D01*
X45720000Y-30794779D01*
X45786524Y-30661731D01*
X45786524Y-30262588D01*
X45720000Y-30129540D01*
X45653476Y-30063017D01*
X45520429Y-29996493D01*
X45320857Y-29996493D01*
X45187809Y-30063017D01*
X45121286Y-30129540D01*
X45054762Y-30262588D01*
X45054762Y-30661731D01*
X45121286Y-30794779D01*
X45187809Y-30861302D01*
X45320857Y-30927826D01*
X45520429Y-30927826D01*
X43990381Y-30196064D02*
X44456048Y-30196064D01*
X44456048Y-30927826D02*
X44456048Y-29530826D01*
X43790810Y-29530826D01*
X43059048Y-30927826D02*
X43192095Y-30861302D01*
X43258619Y-30728255D01*
X43258619Y-29530826D01*
X42659905Y-29996493D02*
X42327286Y-30927826D01*
X41994666Y-29996493D02*
X42327286Y-30927826D01*
X42460333Y-31260445D01*
X42526857Y-31326969D01*
X42659905Y-31393493D01*
X40930285Y-30861302D02*
X41063333Y-30927826D01*
X41329428Y-30927826D01*
X41462476Y-30861302D01*
X41529000Y-30728255D01*
X41529000Y-30196064D01*
X41462476Y-30063017D01*
X41329428Y-29996493D01*
X41063333Y-29996493D01*
X40930285Y-30063017D01*
X40863762Y-30196064D01*
X40863762Y-30329112D01*
X41529000Y-30462160D01*
X40265047Y-30927826D02*
X40265047Y-29996493D01*
X40265047Y-30262588D02*
X40198523Y-30129540D01*
X40131999Y-30063017D01*
X39998952Y-29996493D01*
X39865904Y-29996493D01*
X36539713Y-30927826D02*
X37337999Y-30927826D01*
X36938856Y-30927826D02*
X36938856Y-29530826D01*
X37071904Y-29730398D01*
X37204951Y-29863445D01*
X37337999Y-29929969D01*
X35741428Y-30129540D02*
X35874475Y-30063017D01*
X35940999Y-29996493D01*
X36007523Y-29863445D01*
X36007523Y-29796921D01*
X35940999Y-29663874D01*
X35874475Y-29597350D01*
X35741428Y-29530826D01*
X35475332Y-29530826D01*
X35342285Y-29597350D01*
X35275761Y-29663874D01*
X35209237Y-29796921D01*
X35209237Y-29863445D01*
X35275761Y-29996493D01*
X35342285Y-30063017D01*
X35475332Y-30129540D01*
X35741428Y-30129540D01*
X35874475Y-30196064D01*
X35940999Y-30262588D01*
X36007523Y-30395636D01*
X36007523Y-30661731D01*
X35940999Y-30794779D01*
X35874475Y-30861302D01*
X35741428Y-30927826D01*
X35475332Y-30927826D01*
X35342285Y-30861302D01*
X35275761Y-30794779D01*
X35209237Y-30661731D01*
X35209237Y-30395636D01*
X35275761Y-30262588D01*
X35342285Y-30196064D01*
X35475332Y-30129540D01*
X34610523Y-30794779D02*
X34543999Y-30861302D01*
X34610523Y-30927826D01*
X34677047Y-30861302D01*
X34610523Y-30794779D01*
X34610523Y-30927826D01*
X33745714Y-30129540D02*
X33878761Y-30063017D01*
X33945285Y-29996493D01*
X34011809Y-29863445D01*
X34011809Y-29796921D01*
X33945285Y-29663874D01*
X33878761Y-29597350D01*
X33745714Y-29530826D01*
X33479618Y-29530826D01*
X33346571Y-29597350D01*
X33280047Y-29663874D01*
X33213523Y-29796921D01*
X33213523Y-29863445D01*
X33280047Y-29996493D01*
X33346571Y-30063017D01*
X33479618Y-30129540D01*
X33745714Y-30129540D01*
X33878761Y-30196064D01*
X33945285Y-30262588D01*
X34011809Y-30395636D01*
X34011809Y-30661731D01*
X33945285Y-30794779D01*
X33878761Y-30861302D01*
X33745714Y-30927826D01*
X33479618Y-30927826D01*
X33346571Y-30861302D01*
X33280047Y-30794779D01*
X33213523Y-30661731D01*
X33213523Y-30395636D01*
X33280047Y-30262588D01*
X33346571Y-30196064D01*
X33479618Y-30129540D01*
X32614809Y-30794779D02*
X32548285Y-30861302D01*
X32614809Y-30927826D01*
X32681333Y-30861302D01*
X32614809Y-30794779D01*
X32614809Y-30927826D01*
X32016095Y-29663874D02*
X31949571Y-29597350D01*
X31816523Y-29530826D01*
X31483904Y-29530826D01*
X31350857Y-29597350D01*
X31284333Y-29663874D01*
X31217809Y-29796921D01*
X31217809Y-29929969D01*
X31284333Y-30129540D01*
X32082619Y-30927826D01*
X31217809Y-30927826D01*
X40331571Y-33195079D02*
X40398095Y-33261602D01*
X40597666Y-33328126D01*
X40730714Y-33328126D01*
X40930286Y-33261602D01*
X41063333Y-33128555D01*
X41129857Y-32995507D01*
X41196381Y-32729412D01*
X41196381Y-32529840D01*
X41129857Y-32263745D01*
X41063333Y-32130698D01*
X40930286Y-31997650D01*
X40730714Y-31931126D01*
X40597666Y-31931126D01*
X40398095Y-31997650D01*
X40331571Y-32064174D01*
X39732857Y-32596364D02*
X39267190Y-32596364D01*
X39067619Y-33328126D02*
X39732857Y-33328126D01*
X39732857Y-31931126D01*
X39067619Y-31931126D01*
X58652834Y-36572976D02*
X58386738Y-36572976D01*
X58253691Y-36639500D01*
X58120643Y-36772548D01*
X58054119Y-37038643D01*
X58054119Y-37504310D01*
X58120643Y-37770405D01*
X58253691Y-37903452D01*
X58386738Y-37969976D01*
X58652834Y-37969976D01*
X58785881Y-37903452D01*
X58918929Y-37770405D01*
X58985453Y-37504310D01*
X58985453Y-37038643D01*
X58918929Y-36772548D01*
X58785881Y-36639500D01*
X58652834Y-36572976D01*
X57455405Y-37038643D02*
X57455405Y-37969976D01*
X57455405Y-37171690D02*
X57388881Y-37105167D01*
X57255834Y-37038643D01*
X57056262Y-37038643D01*
X56923214Y-37105167D01*
X56856691Y-37238214D01*
X56856691Y-37969976D01*
X55193596Y-36506452D02*
X56391024Y-38302595D01*
X54461834Y-36572976D02*
X54195738Y-36572976D01*
X54062691Y-36639500D01*
X53929643Y-36772548D01*
X53863119Y-37038643D01*
X53863119Y-37504310D01*
X53929643Y-37770405D01*
X54062691Y-37903452D01*
X54195738Y-37969976D01*
X54461834Y-37969976D01*
X54594881Y-37903452D01*
X54727929Y-37770405D01*
X54794453Y-37504310D01*
X54794453Y-37038643D01*
X54727929Y-36772548D01*
X54594881Y-36639500D01*
X54461834Y-36572976D01*
X53463976Y-37038643D02*
X52931786Y-37038643D01*
X53264405Y-37969976D02*
X53264405Y-36772548D01*
X53197881Y-36639500D01*
X53064834Y-36572976D01*
X52931786Y-36572976D01*
X52665690Y-37038643D02*
X52133500Y-37038643D01*
X52466119Y-37969976D02*
X52466119Y-36772548D01*
X52399595Y-36639500D01*
X52266548Y-36572976D01*
X52133500Y-36572976D01*
D12*
X28646285Y-42842571D02*
X28646285Y-41342571D01*
X28146285Y-42414000D01*
X27646285Y-41342571D01*
X27646285Y-42842571D01*
X26646285Y-41342571D02*
X26503428Y-41342571D01*
X26360571Y-41414000D01*
X26289142Y-41485429D01*
X26217713Y-41628286D01*
X26146285Y-41914000D01*
X26146285Y-42271143D01*
X26217713Y-42556857D01*
X26289142Y-42699714D01*
X26360571Y-42771143D01*
X26503428Y-42842571D01*
X26646285Y-42842571D01*
X26789142Y-42771143D01*
X26860571Y-42699714D01*
X26931999Y-42556857D01*
X27003428Y-42271143D01*
X27003428Y-41914000D01*
X26931999Y-41628286D01*
X26860571Y-41485429D01*
X26789142Y-41414000D01*
X26646285Y-41342571D01*
X28646285Y-34714571D02*
X28646285Y-33214571D01*
X28146285Y-34286000D01*
X27646285Y-33214571D01*
X27646285Y-34714571D01*
X26146285Y-34714571D02*
X27003428Y-34714571D01*
X26574856Y-34714571D02*
X26574856Y-33214571D01*
X26717713Y-33428857D01*
X26860571Y-33571714D01*
X27003428Y-33643143D01*
X42862572Y-27285143D02*
X44005429Y-27285143D01*
X30162572Y-27285143D02*
X31305429Y-27285143D01*
X30734000Y-27856571D02*
X30734000Y-26713714D01*
D13*
X58856000Y-36250000D02*
X58856000Y-36220000D01*
X58856000Y-29790000D02*
X58856000Y-29820000D01*
X52396000Y-29790000D02*
X52396000Y-29820000D01*
X52396000Y-36220000D02*
X52396000Y-36250000D01*
X58856000Y-34320000D02*
X58856000Y-31720000D01*
X52396000Y-36250000D02*
X58856000Y-36250000D01*
X52396000Y-34320000D02*
X52396000Y-31720000D01*
X52396000Y-29790000D02*
X58856000Y-29790000D01*
X50314000Y-39432000D02*
X50314000Y-40832000D01*
X50314000Y-40832000D02*
X47514000Y-40832000D01*
X50314000Y-39432000D02*
X47514000Y-39432000D01*
D14*
X56959333Y-33424762D02*
X56816476Y-33472381D01*
X56578380Y-33472381D01*
X56483142Y-33424762D01*
X56435523Y-33377143D01*
X56387904Y-33281905D01*
X56387904Y-33186667D01*
X56435523Y-33091429D01*
X56483142Y-33043810D01*
X56578380Y-32996190D01*
X56768857Y-32948571D01*
X56864095Y-32900952D01*
X56911714Y-32853333D01*
X56959333Y-32758095D01*
X56959333Y-32662857D01*
X56911714Y-32567619D01*
X56864095Y-32520000D01*
X56768857Y-32472381D01*
X56530761Y-32472381D01*
X56387904Y-32520000D01*
X56054571Y-32472381D02*
X55816476Y-33472381D01*
X55625999Y-32758095D01*
X55435523Y-33472381D01*
X55197428Y-32472381D01*
X54292666Y-33472381D02*
X54864095Y-33472381D01*
X54578381Y-33472381D02*
X54578381Y-32472381D01*
X54673619Y-32615238D01*
X54768857Y-32710476D01*
X54864095Y-32758095D01*
M02*
