M48
;DRILL file {KiCad 4.0.7} date 07/25/18 13:49:53
;FORMAT={-:-/ absolute / inch / decimal}
FMAT,2
INCH,TZ
T1C0.015
T2C0.039
%
G90
G05
M72
T1
X1.13Y-1.29
X1.17Y-1.2
X1.2Y-1.6
X1.22Y-1.47
X1.25Y-1.55
X1.31Y-1.6
X1.34Y-1.57
X1.38Y-1.55
X1.4Y-1.44
X1.45Y-1.36
X1.45Y-1.44
X1.59Y-1.55
X1.64Y-1.25
X1.66Y-1.47
X1.7Y-1.15
X1.7Y-1.39
X1.75Y-1.4
X1.77Y-1.53
X1.81Y-1.25
X1.84Y-1.37
X1.85Y-1.32
X1.85Y-1.5
X1.96Y-1.39
X2.04Y-1.34
X2.11Y-1.21
X2.16Y-1.61
X2.26Y-1.21
T2
X1.08Y-1.45
X1.08Y-1.55
X1.31Y-1.08
X1.41Y-1.08
X1.51Y-1.08
X1.61Y-1.08
X1.81Y-1.08
X1.91Y-1.08
X2.01Y-1.08
X2.11Y-1.08
X2.21Y-1.08
X2.31Y-1.08
T0
M30
