G04 #@! TF.FileFunction,Paste,Top*
%FSLAX46Y46*%
G04 Gerber Fmt 4.6, Leading zero omitted, Abs format (unit mm)*
G04 Created by KiCad (PCBNEW 4.0.7) date 08/02/18 07:41:19*
%MOMM*%
%LPD*%
G01*
G04 APERTURE LIST*
%ADD10C,0.100000*%
%ADD11R,0.508000X1.143000*%
%ADD12R,1.000000X1.600000*%
%ADD13R,0.750000X0.800000*%
%ADD14R,0.600000X0.700000*%
%ADD15R,0.500000X0.900000*%
%ADD16R,1.300000X0.700000*%
%ADD17R,0.800000X0.900000*%
%ADD18R,0.400000X0.650000*%
%ADD19R,0.800000X0.750000*%
G04 APERTURE END LIST*
D10*
D11*
X47117000Y-36703000D03*
X45847000Y-36703000D03*
X44577000Y-36703000D03*
X43307000Y-36703000D03*
X43307000Y-30353000D03*
X44577000Y-30353000D03*
X45847000Y-30353000D03*
X47117000Y-30353000D03*
D12*
X38632000Y-30480000D03*
X41632000Y-30480000D03*
X40616000Y-36576000D03*
X37616000Y-36576000D03*
X33758000Y-30480000D03*
X30758000Y-30480000D03*
X32742000Y-32766000D03*
X29742000Y-32766000D03*
D13*
X48768000Y-35318000D03*
X48768000Y-36818000D03*
D14*
X35622000Y-30480000D03*
X37022000Y-30480000D03*
D15*
X53836000Y-41910000D03*
X52336000Y-41910000D03*
X53836000Y-39878000D03*
X52336000Y-39878000D03*
D16*
X35306000Y-34224000D03*
X35306000Y-32324000D03*
D11*
X30607000Y-35687000D03*
X31877000Y-35687000D03*
X33147000Y-35687000D03*
X34417000Y-35687000D03*
X34417000Y-42037000D03*
X33147000Y-42037000D03*
X31877000Y-42037000D03*
X30607000Y-42037000D03*
D17*
X37912000Y-34528000D03*
X39812000Y-34528000D03*
X38862000Y-32528000D03*
D18*
X44592000Y-38674000D03*
X43292000Y-38674000D03*
X43942000Y-40574000D03*
X43942000Y-38674000D03*
X43292000Y-40574000D03*
X44592000Y-40574000D03*
D19*
X44692000Y-42164000D03*
X43192000Y-42164000D03*
M02*
