G04 #@! TF.GenerationSoftware,KiCad,Pcbnew,(5.0.0)*
G04 #@! TF.CreationDate,2018-10-12T13:49:54-04:00*
G04 #@! TF.ProjectId,AutoFlyer,4175746F466C7965722E6B696361645F,rev?*
G04 #@! TF.SameCoordinates,Original*
G04 #@! TF.FileFunction,Soldermask,Top*
G04 #@! TF.FilePolarity,Negative*
%FSLAX46Y46*%
G04 Gerber Fmt 4.6, Leading zero omitted, Abs format (unit mm)*
G04 Created by KiCad (PCBNEW (5.0.0)) date 10/12/18 13:49:54*
%MOMM*%
%LPD*%
G01*
G04 APERTURE LIST*
%ADD10R,1.400000X2.000000*%
%ADD11R,2.100000X2.100000*%
%ADD12O,2.100000X2.100000*%
%ADD13R,0.900000X1.300000*%
%ADD14R,1.200000X1.150000*%
%ADD15R,1.000000X1.100000*%
%ADD16R,1.100000X1.700000*%
%ADD17C,4.900000*%
%ADD18R,1.200000X1.300000*%
%ADD19R,1.900000X1.000000*%
%ADD20R,0.908000X1.543000*%
G04 APERTURE END LIST*
D10*
G04 #@! TO.C,C3*
X32004000Y-32004000D03*
X29004000Y-32004000D03*
G04 #@! TD*
G04 #@! TO.C,C1*
X37846000Y-31496000D03*
X40846000Y-31496000D03*
G04 #@! TD*
D11*
G04 #@! TO.C,J1*
X27432000Y-39370000D03*
D12*
X27432000Y-36830000D03*
G04 #@! TD*
D10*
G04 #@! TO.C,C2*
X40132000Y-38608000D03*
X37132000Y-38608000D03*
G04 #@! TD*
D13*
G04 #@! TO.C,R1*
X53836000Y-41910000D03*
X52336000Y-41910000D03*
G04 #@! TD*
G04 #@! TO.C,R2*
X53836000Y-39878000D03*
X52336000Y-39878000D03*
G04 #@! TD*
D11*
G04 #@! TO.C,J2*
X58674000Y-27432000D03*
D12*
X56134000Y-27432000D03*
X53594000Y-27432000D03*
X51054000Y-27432000D03*
X48514000Y-27432000D03*
X45974000Y-27432000D03*
G04 #@! TD*
D14*
G04 #@! TO.C,C5*
X46966000Y-30988000D03*
X45466000Y-30988000D03*
G04 #@! TD*
D15*
G04 #@! TO.C,D3*
X34414000Y-31242000D03*
X35814000Y-31242000D03*
G04 #@! TD*
D11*
G04 #@! TO.C,J3*
X40894000Y-27432000D03*
D12*
X38354000Y-27432000D03*
X35814000Y-27432000D03*
X33274000Y-27432000D03*
G04 #@! TD*
D16*
G04 #@! TO.C,R3*
X37404000Y-41656000D03*
X39304000Y-41656000D03*
G04 #@! TD*
D17*
G04 #@! TO.C,X1*
X27940000Y-27940000D03*
G04 #@! TD*
D18*
G04 #@! TO.C,U2*
X37470000Y-36068000D03*
X39370000Y-36068000D03*
X38420000Y-34068000D03*
G04 #@! TD*
D19*
G04 #@! TO.C,U1*
X48674000Y-32766000D03*
X48674000Y-34036000D03*
X48674000Y-35306000D03*
X48674000Y-36576000D03*
X48674000Y-37846000D03*
X48674000Y-39116000D03*
X48674000Y-40386000D03*
X43274000Y-40386000D03*
X43274000Y-39116000D03*
X43274000Y-37846000D03*
X43274000Y-36576000D03*
X43274000Y-35306000D03*
X43274000Y-34036000D03*
X43274000Y-32766000D03*
G04 #@! TD*
D17*
G04 #@! TO.C,X2*
X58420000Y-40640000D03*
G04 #@! TD*
D20*
G04 #@! TO.C,U3*
X30607000Y-42037000D03*
X31877000Y-42037000D03*
X33147000Y-42037000D03*
X34417000Y-42037000D03*
X34417000Y-35687000D03*
X33147000Y-35687000D03*
X31877000Y-35687000D03*
X30607000Y-35687000D03*
G04 #@! TD*
M02*
